<svg id="Layer_1" data-name="Layer 1" xmlns="http://www.w3.org/2000/svg" xmlns:xlink="http://www.w3.org/1999/xlink" viewBox="0 0 1922 1490"><defs><style>.cls-1,.cls-3{fill:none;}.cls-2{clip-path:url(#clip-path);}.cls-3{stroke:#fff;stroke-miterlimit:10;stroke-width:60px;opacity:0.3;}.cls-4{clip-path:url(#clip-path-2);}.cls-5{clip-path:url(#clip-path-3);}.cls-6{fill:#5bc2e7;}.cls-7{opacity:0.2;}.cls-8{fill:#fff;}</style><clipPath id="clip-path"><rect class="cls-1" x="2227" y="378" width="1920" height="816"/></clipPath><clipPath id="clip-path-2"><rect class="cls-1" x="2227" y="-600" width="1920" height="816"/></clipPath><clipPath id="clip-path-3"><rect class="cls-1" width="1922" height="1490"/></clipPath></defs><g class="cls-2"><circle class="cls-3" cx="2144" cy="1078" r="502"/></g><g class="cls-4"><circle class="cls-3" cx="2144" cy="100" r="502"/></g><g class="cls-5"><rect class="cls-6" width="1922" height="1490"/><g class="cls-7"><polygon class="cls-8" points="947.42 1490 2193.33 149.51 2193.33 120.19 920.17 1490 947.42 1490"/><polygon class="cls-8" points="847.38 1490 874.63 1490 2193.33 71.19 2193.33 41.88 847.38 1490"/><polygon class="cls-8" points="2159.84 -0.41 774.59 1490 801.84 1490 2187.09 -0.41 2159.84 -0.41"/><polygon class="cls-8" points="1020.21 1490 2193.33 227.82 2193.33 198.51 992.96 1490 1020.21 1490"/><polygon class="cls-8" points="1093 1490 2193.33 306.14 2193.33 276.82 1065.75 1490 1093 1490"/><polygon class="cls-8" points="1165.79 1490 2193.33 384.46 2193.33 355.14 1138.54 1490 1165.79 1490"/><polygon class="cls-8" points="1238.58 1490 2193.33 462.77 2193.33 433.46 1211.33 1490 1238.58 1490"/><polygon class="cls-8" points="1795.89 -0.41 410.63 1490 437.88 1490 1823.13 -0.41 1795.89 -0.41"/><polygon class="cls-8" points="1723.1 -0.41 337.85 1490 365.09 1490 1750.34 -0.41 1723.1 -0.41"/><polygon class="cls-8" points="1650.31 -0.41 265.05 1490 292.3 1490 1677.55 -0.41 1650.31 -0.41"/><polygon class="cls-8" points="1868.68 -0.41 483.43 1490 510.67 1490 1895.92 -0.41 1868.68 -0.41"/><polygon class="cls-8" points="1941.47 -0.41 556.22 1490 583.46 1490 1968.71 -0.41 1941.47 -0.41"/><polygon class="cls-8" points="2014.26 -0.41 629.01 1490 656.25 1490 2041.51 -0.41 2014.26 -0.41"/><polygon class="cls-8" points="2087.26 -0.41 702.01 1490 729.25 1490 2114.51 -0.41 2087.26 -0.41"/><polygon class="cls-8" points="1899.17 1490 2193.33 1173.51 2193.33 1144.19 1871.92 1490 1899.17 1490"/><polygon class="cls-8" points="1826.38 1490 2193.33 1095.19 2193.33 1065.88 1799.13 1490 1826.38 1490"/><polygon class="cls-8" points="1462.43 1490 2193.33 703.61 2193.33 674.3 1435.18 1490 1462.43 1490"/><polygon class="cls-8" points="1389.63 1490 2193.33 625.3 2193.33 595.98 1362.39 1490 1389.63 1490"/><polygon class="cls-8" points="1316.84 1490 2193.33 546.98 2193.33 517.66 1289.6 1490 1316.84 1490"/><polygon class="cls-8" points="1535.22 1490 2193.33 781.93 2193.33 752.61 1507.97 1490 1535.22 1490"/><polygon class="cls-8" points="1608.01 1490 2193.33 860.25 2193.33 830.93 1580.76 1490 1608.01 1490"/><polygon class="cls-8" points="1680.8 1490 2193.33 938.56 2193.33 909.25 1653.55 1490 1680.8 1490"/><polygon class="cls-8" points="1753.59 1490 2193.33 1016.88 2193.33 987.56 1726.34 1490 1753.59 1490"/><polygon class="cls-8" points="1280.88 -0.41 -104.37 1490 -77.13 1490 1308.13 -0.41 1280.88 -0.41"/><polygon class="cls-8" points="1208.09 -0.41 -177.16 1490 -149.92 1490 1235.34 -0.41 1208.09 -0.41"/><polygon class="cls-8" points="1135.3 -0.41 -249.96 1490 -222.71 1490 1162.54 -0.41 1135.3 -0.41"/><polygon class="cls-8" points="1353.67 -0.41 -31.58 1490 -4.34 1490 1380.92 -0.41 1353.67 -0.41"/><polygon class="cls-8" points="1426.46 -0.41 41.21 1490 68.45 1490 1453.71 -0.41 1426.46 -0.41"/><polygon class="cls-8" points="1499.25 -0.41 114 1490 141.25 1490 1526.5 -0.41 1499.25 -0.41"/><polygon class="cls-8" points="1572.04 -0.41 186.79 1490 214.04 1490 1599.29 -0.41 1572.04 -0.41"/><polygon class="cls-8" points="771.34 -0.41 -272.77 1122.96 -272.77 1152.28 798.59 -0.41 771.34 -0.41"/><polygon class="cls-8" points="698.55 -0.41 -272.77 1044.65 -272.77 1073.96 725.8 -0.41 698.55 -0.41"/><polygon class="cls-8" points="625.76 -0.41 -272.77 966.33 -272.77 995.65 653.01 -0.41 625.76 -0.41"/><polygon class="cls-8" points="844.13 -0.41 -272.77 1201.28 -272.77 1230.6 871.38 -0.41 844.13 -0.41"/><polygon class="cls-8" points="916.92 -0.41 -272.77 1279.6 -272.77 1308.91 944.17 -0.41 916.92 -0.41"/><polygon class="cls-8" points="989.72 -0.41 -272.77 1357.91 -272.77 1387.23 1016.96 -0.41 989.72 -0.41"/><polygon class="cls-8" points="1062.51 -0.41 -272.77 1436.23 -272.77 1465.55 1089.75 -0.41 1062.51 -0.41"/><polygon class="cls-8" points="256.33 -0.41 -272.77 568.86 -272.77 598.18 283.58 -0.41 256.33 -0.41"/><polygon class="cls-8" points="183.54 -0.41 -272.77 490.54 -272.77 519.86 210.79 -0.41 183.54 -0.41"/><polygon class="cls-8" points="110.75 -0.41 -272.77 412.23 -272.77 441.54 138 -0.41 110.75 -0.41"/><polygon class="cls-8" points="329.13 -0.41 -272.77 647.18 -272.77 676.49 356.37 -0.41 329.13 -0.41"/><polygon class="cls-8" points="401.92 -0.41 -272.77 725.49 -272.77 754.81 429.16 -0.41 401.92 -0.41"/><polygon class="cls-8" points="474.71 -0.41 -272.77 803.81 -272.77 833.12 501.95 -0.41 474.71 -0.41"/><polygon class="cls-8" points="547.5 -0.41 -272.77 882.13 -272.77 911.44 574.74 -0.41 547.5 -0.41"/><polygon class="cls-8" points="37.96 -0.41 -272.77 333.91 -272.77 363.23 65.21 -0.41 37.96 -0.41"/></g></g></svg>