<svg id="Layer_1" data-name="Layer 1" xmlns="http://www.w3.org/2000/svg" xmlns:xlink="http://www.w3.org/1999/xlink" viewBox="0 0 1922 1490"><defs><style>.cls-1{fill:none;}.cls-2{clip-path:url(#clip-path);}.cls-3{fill:#ff7500;}.cls-4{opacity:0.2;}.cls-5{fill:#fff;}.cls-6{clip-path:url(#clip-path-2);}</style><clipPath id="clip-path"><rect class="cls-1" width="1922" height="1490"/></clipPath><clipPath id="clip-path-2"><rect class="cls-1" y="-1619" width="1922" height="1490"/></clipPath></defs><title>Background-StripesO</title><g class="cls-2"><rect class="cls-3" width="1922" height="1490"/><g class="cls-4"><polygon class="cls-5" points="2454.82 181.3 944.69 1806.08 911.66 1806.08 2454.82 145.77 2454.82 181.3"/><polygon class="cls-5" points="2454.82 86.38 856.46 1806.08 823.44 1806.08 2454.82 50.84 2454.82 86.38"/><polygon class="cls-5" points="2447.26 -0.41 768.23 1806.08 735.21 1806.08 2414.23 -0.41 2447.26 -0.41"/><polygon class="cls-5" points="2454.82 276.23 1032.92 1806.08 999.89 1806.08 2454.82 240.69 2454.82 276.23"/><polygon class="cls-5" points="2454.82 371.15 1121.14 1806.08 1088.12 1806.08 2454.82 335.62 2454.82 371.15"/><polygon class="cls-5" points="2454.82 466.08 1209.37 1806.08 1176.35 1806.08 2454.82 430.54 2454.82 466.08"/><polygon class="cls-5" points="2454.82 561 1297.6 1806.08 1264.57 1806.08 2454.82 525.47 2454.82 561"/><polygon class="cls-5" points="2006.12 -0.41 327.1 1806.08 294.07 1806.08 1973.1 -0.41 2006.12 -0.41"/><polygon class="cls-5" points="1917.89 -0.41 238.87 1806.08 205.84 1806.08 1884.87 -0.41 1917.89 -0.41"/><polygon class="cls-5" points="1829.67 -0.41 150.64 1806.08 117.61 1806.08 1796.64 -0.41 1829.67 -0.41"/><polygon class="cls-5" points="2094.35 -0.41 415.32 1806.08 382.3 1806.08 2061.32 -0.41 2094.35 -0.41"/><polygon class="cls-5" points="2182.58 -0.41 503.55 1806.08 470.52 1806.08 2149.55 -0.41 2182.58 -0.41"/><polygon class="cls-5" points="2270.8 -0.41 591.78 1806.08 558.75 1806.08 2237.78 -0.41 2270.8 -0.41"/><text/><polygon class="cls-5" points="2454.82 852.92 1568.92 1806.08 1535.89 1806.08 2454.82 817.38 2454.82 852.92"/><polygon class="cls-5" points="2454.82 757.99 1480.69 1806.08 1447.66 1806.08 2454.82 722.46 2454.82 757.99"/><polygon class="cls-5" points="2454.82 663.07 1392.46 1806.08 1359.44 1806.08 2454.82 627.53 2454.82 663.07"/><polygon class="cls-5" points="2454.82 947.84 1657.14 1806.08 1624.12 1806.08 2454.82 912.31 2454.82 947.84"/><polygon class="cls-5" points="2454.82 1042.77 1745.37 1806.08 1712.35 1806.08 2454.82 1007.24 2454.82 1042.77"/><polygon class="cls-5" points="2454.82 1137.69 1833.6 1806.08 1800.57 1806.08 2454.82 1102.16 2454.82 1137.69"/><polygon class="cls-5" points="2454.82 1232.62 1921.83 1806.08 1888.8 1806.08 2454.82 1197.09 2454.82 1232.62"/><polygon class="cls-5" points="1381.89 -0.41 -297.13 1806.08 -330.16 1806.08 1348.87 -0.41 1381.89 -0.41"/><polygon class="cls-5" points="1293.67 -0.41 -385.36 1806.08 -418.39 1806.08 1260.64 -0.41 1293.67 -0.41"/><polygon class="cls-5" points="1205.44 -0.41 -473.59 1806.08 -506.61 1806.08 1172.41 -0.41 1205.44 -0.41"/><polygon class="cls-5" points="1470.12 -0.41 -208.91 1806.08 -241.93 1806.08 1437.1 -0.41 1470.12 -0.41"/><polygon class="cls-5" points="1558.35 -0.41 -120.68 1806.08 -153.7 1806.08 1525.32 -0.41 1558.35 -0.41"/><polygon class="cls-5" points="1646.58 -0.41 -32.45 1806.08 -65.48 1806.08 1613.55 -0.41 1646.58 -0.41"/><polygon class="cls-5" points="1734.81 -0.41 55.78 1806.08 22.75 1806.08 1701.78 -0.41 1734.81 -0.41"/><polygon class="cls-5" points="764.3 -0.41 -534.27 1396.74 -534.27 1361.2 731.27 -0.41 764.3 -0.41"/><polygon class="cls-5" points="676.07 -0.41 -534.27 1301.81 -534.27 1266.28 643.05 -0.41 676.07 -0.41"/><polygon class="cls-5" points="587.85 -0.41 -534.27 1206.89 -534.27 1171.35 554.82 -0.41 587.85 -0.41"/><polygon class="cls-5" points="852.53 -0.41 -534.27 1491.66 -534.27 1456.13 819.5 -0.41 852.53 -0.41"/><polygon class="cls-5" points="940.76 -0.41 -534.27 1586.59 -534.27 1551.05 907.73 -0.41 940.76 -0.41"/><polygon class="cls-5" points="1028.98 -0.41 -534.27 1681.51 -534.27 1645.98 995.96 -0.41 1028.98 -0.41"/><polygon class="cls-5" points="1117.21 -0.41 -534.27 1776.44 -534.27 1740.9 1084.18 -0.41 1117.21 -0.41"/><polygon class="cls-5" points="140.07 -0.41 -534.27 725.12 -534.27 689.59 107.05 -0.41 140.07 -0.41"/><polygon class="cls-5" points="51.84 -0.41 -534.27 630.2 -534.27 594.66 18.82 -0.41 51.84 -0.41"/><polygon class="cls-5" points="228.3 -0.41 -534.27 820.05 -534.27 784.51 195.27 -0.41 228.3 -0.41"/><polygon class="cls-5" points="316.53 -0.41 -534.27 914.97 -534.27 879.44 283.5 -0.41 316.53 -0.41"/><polygon class="cls-5" points="404.75 -0.41 -534.27 1009.89 -534.27 974.36 371.73 -0.41 404.75 -0.41"/><polygon class="cls-5" points="492.98 -0.41 -534.27 1104.82 -534.27 1069.29 459.96 -0.41 492.98 -0.41"/></g></g><g class="cls-6"><g class="cls-4"><polygon class="cls-5" points="2454.82 -1437.7 944.69 187.08 911.66 187.08 2454.82 -1473.23 2454.82 -1437.7"/><polygon class="cls-5" points="2454.82 -1532.62 856.46 187.08 823.44 187.08 2454.82 -1568.16 2454.82 -1532.62"/><polygon class="cls-5" points="2447.26 -1619.41 768.23 187.08 735.21 187.08 2414.23 -1619.41 2447.26 -1619.41"/><polygon class="cls-5" points="2454.82 -1342.77 1032.92 187.08 999.89 187.08 2454.82 -1378.31 2454.82 -1342.77"/><polygon class="cls-5" points="2454.82 -1247.85 1121.14 187.08 1088.12 187.08 2454.82 -1283.38 2454.82 -1247.85"/><polygon class="cls-5" points="2454.82 -1152.92 1209.37 187.08 1176.35 187.08 2454.82 -1188.46 2454.82 -1152.92"/><polygon class="cls-5" points="2454.82 -1058 1297.6 187.08 1264.57 187.08 2454.82 -1093.53 2454.82 -1058"/><polygon class="cls-5" points="2006.12 -1619.41 327.1 187.08 294.07 187.08 1973.1 -1619.41 2006.12 -1619.41"/><polygon class="cls-5" points="1917.89 -1619.41 238.87 187.08 205.84 187.08 1884.87 -1619.41 1917.89 -1619.41"/><polygon class="cls-5" points="1829.67 -1619.41 150.64 187.08 117.61 187.08 1796.64 -1619.41 1829.67 -1619.41"/><polygon class="cls-5" points="2094.35 -1619.41 415.32 187.08 382.3 187.08 2061.32 -1619.41 2094.35 -1619.41"/><polygon class="cls-5" points="2182.58 -1619.41 503.55 187.08 470.52 187.08 2149.55 -1619.41 2182.58 -1619.41"/><polygon class="cls-5" points="2270.8 -1619.41 591.78 187.08 558.75 187.08 2237.78 -1619.41 2270.8 -1619.41"/><text/><polygon class="cls-5" points="2454.82 -766.08 1568.92 187.08 1535.89 187.08 2454.82 -801.62 2454.82 -766.08"/><polygon class="cls-5" points="2454.82 -861.01 1480.69 187.08 1447.66 187.08 2454.82 -896.54 2454.82 -861.01"/><polygon class="cls-5" points="2454.82 -955.93 1392.46 187.08 1359.44 187.08 2454.82 -991.47 2454.82 -955.93"/><polygon class="cls-5" points="2454.82 -671.16 1657.14 187.08 1624.12 187.08 2454.82 -706.69 2454.82 -671.16"/><polygon class="cls-5" points="2454.82 -576.23 1745.37 187.08 1712.35 187.08 2454.82 -611.76 2454.82 -576.23"/><polygon class="cls-5" points="2454.82 -481.31 1833.6 187.08 1800.57 187.08 2454.82 -516.84 2454.82 -481.31"/><polygon class="cls-5" points="2454.82 -386.38 1921.83 187.08 1888.8 187.08 2454.82 -421.91 2454.82 -386.38"/><polygon class="cls-5" points="1381.89 -1619.41 -297.13 187.08 -330.16 187.08 1348.87 -1619.41 1381.89 -1619.41"/><polygon class="cls-5" points="1293.67 -1619.41 -385.36 187.08 -418.39 187.08 1260.64 -1619.41 1293.67 -1619.41"/><polygon class="cls-5" points="1205.44 -1619.41 -473.59 187.08 -506.61 187.08 1172.41 -1619.41 1205.44 -1619.41"/><polygon class="cls-5" points="1470.12 -1619.41 -208.91 187.08 -241.93 187.08 1437.1 -1619.41 1470.12 -1619.41"/><polygon class="cls-5" points="1558.35 -1619.41 -120.68 187.08 -153.7 187.08 1525.32 -1619.41 1558.35 -1619.41"/><polygon class="cls-5" points="1646.58 -1619.41 -32.45 187.08 -65.48 187.08 1613.55 -1619.41 1646.58 -1619.41"/><polygon class="cls-5" points="1734.81 -1619.41 55.78 187.08 22.75 187.08 1701.78 -1619.41 1734.81 -1619.41"/><polygon class="cls-5" points="1028.98 -1619.41 -534.27 62.51 -534.27 26.98 995.96 -1619.41 1028.98 -1619.41"/><polygon class="cls-5" points="1117.21 -1619.41 -534.27 157.44 -534.27 121.9 1084.18 -1619.41 1117.21 -1619.41"/></g></g></svg>