<svg id="Layer_1" data-name="Layer 1" xmlns="http://www.w3.org/2000/svg" xmlns:xlink="http://www.w3.org/1999/xlink" viewBox="0 0 1922 1490"><defs><style>.cls-1,.cls-3{fill:none;}.cls-2{clip-path:url(#clip-path);}.cls-3{stroke:#fff;stroke-miterlimit:10;stroke-width:60px;opacity:0.3;}.cls-4{clip-path:url(#clip-path-2);}.cls-5{clip-path:url(#clip-path-3);}.cls-6{fill:#d0006f;}.cls-7{opacity:0.2;}.cls-8{fill:#fff;}.cls-9{clip-path:url(#clip-path-4);}</style><clipPath id="clip-path"><rect class="cls-1" x="2227" y="674" width="1920" height="816"/></clipPath><clipPath id="clip-path-2"><rect class="cls-1" x="2227" y="-322" width="1920" height="816"/></clipPath><clipPath id="clip-path-3"><rect class="cls-1" width="1922" height="1490"/></clipPath><clipPath id="clip-path-4"><rect class="cls-1" y="-1629" width="1922" height="1490"/></clipPath></defs><title>Background-StripesP</title><g class="cls-2"><circle class="cls-3" cx="2144" cy="1374" r="502"/></g><g class="cls-4"><circle class="cls-3" cx="2144" cy="378" r="502"/></g><g class="cls-5"><rect class="cls-6" width="1922" height="1490"/><g class="cls-7"><polygon class="cls-8" points="2454.82 181.3 944.69 1806.08 911.66 1806.08 2454.82 145.77 2454.82 181.3"/><polygon class="cls-8" points="2454.82 86.38 856.46 1806.08 823.44 1806.08 2454.82 50.84 2454.82 86.38"/><polygon class="cls-8" points="2447.26 -0.41 768.23 1806.08 735.21 1806.08 2414.23 -0.41 2447.26 -0.41"/><polygon class="cls-8" points="2454.82 276.23 1032.92 1806.08 999.89 1806.08 2454.82 240.69 2454.82 276.23"/><polygon class="cls-8" points="2454.82 371.15 1121.14 1806.08 1088.12 1806.08 2454.82 335.62 2454.82 371.15"/><polygon class="cls-8" points="2454.82 466.08 1209.37 1806.08 1176.35 1806.08 2454.82 430.54 2454.82 466.08"/><polygon class="cls-8" points="2454.82 561 1297.6 1806.08 1264.57 1806.08 2454.82 525.47 2454.82 561"/><polygon class="cls-8" points="2006.12 -0.41 327.1 1806.08 294.07 1806.08 1973.1 -0.41 2006.12 -0.41"/><polygon class="cls-8" points="1917.89 -0.41 238.87 1806.08 205.84 1806.08 1884.87 -0.41 1917.89 -0.41"/><polygon class="cls-8" points="1829.67 -0.41 150.64 1806.08 117.61 1806.08 1796.64 -0.41 1829.67 -0.41"/><polygon class="cls-8" points="2094.35 -0.41 415.32 1806.08 382.3 1806.08 2061.32 -0.41 2094.35 -0.41"/><polygon class="cls-8" points="2182.58 -0.41 503.55 1806.08 470.52 1806.08 2149.55 -0.41 2182.58 -0.41"/><polygon class="cls-8" points="2270.8 -0.41 591.78 1806.08 558.75 1806.08 2237.78 -0.41 2270.8 -0.41"/><text/><polygon class="cls-8" points="2454.82 852.92 1568.92 1806.08 1535.89 1806.08 2454.82 817.38 2454.82 852.92"/><polygon class="cls-8" points="2454.82 757.99 1480.69 1806.08 1447.66 1806.08 2454.82 722.46 2454.82 757.99"/><polygon class="cls-8" points="2454.82 663.07 1392.46 1806.08 1359.44 1806.08 2454.82 627.53 2454.82 663.07"/><polygon class="cls-8" points="2454.82 947.84 1657.14 1806.08 1624.12 1806.08 2454.82 912.31 2454.82 947.84"/><polygon class="cls-8" points="2454.82 1042.77 1745.37 1806.08 1712.35 1806.08 2454.82 1007.24 2454.82 1042.77"/><polygon class="cls-8" points="2454.82 1137.69 1833.6 1806.08 1800.57 1806.08 2454.82 1102.16 2454.82 1137.69"/><polygon class="cls-8" points="2454.82 1232.62 1921.83 1806.08 1888.8 1806.08 2454.82 1197.09 2454.82 1232.62"/><polygon class="cls-8" points="1381.89 -0.41 -297.13 1806.08 -330.16 1806.08 1348.87 -0.41 1381.89 -0.41"/><polygon class="cls-8" points="1293.67 -0.41 -385.36 1806.08 -418.39 1806.08 1260.64 -0.41 1293.67 -0.41"/><polygon class="cls-8" points="1205.44 -0.41 -473.59 1806.08 -506.61 1806.08 1172.41 -0.41 1205.44 -0.41"/><polygon class="cls-8" points="1470.12 -0.41 -208.91 1806.08 -241.93 1806.08 1437.1 -0.41 1470.12 -0.41"/><polygon class="cls-8" points="1558.35 -0.41 -120.68 1806.08 -153.7 1806.08 1525.32 -0.41 1558.35 -0.41"/><polygon class="cls-8" points="1646.58 -0.41 -32.45 1806.08 -65.48 1806.08 1613.55 -0.41 1646.58 -0.41"/><polygon class="cls-8" points="1734.81 -0.41 55.78 1806.08 22.75 1806.08 1701.78 -0.41 1734.81 -0.41"/><polygon class="cls-8" points="764.3 -0.41 -534.27 1396.74 -534.27 1361.2 731.27 -0.41 764.3 -0.41"/><polygon class="cls-8" points="676.07 -0.41 -534.27 1301.81 -534.27 1266.28 643.05 -0.41 676.07 -0.41"/><polygon class="cls-8" points="587.85 -0.41 -534.27 1206.89 -534.27 1171.35 554.82 -0.41 587.85 -0.41"/><polygon class="cls-8" points="852.53 -0.41 -534.27 1491.66 -534.27 1456.13 819.5 -0.41 852.53 -0.41"/><polygon class="cls-8" points="940.76 -0.41 -534.27 1586.59 -534.27 1551.05 907.73 -0.41 940.76 -0.41"/><polygon class="cls-8" points="1028.98 -0.41 -534.27 1681.51 -534.27 1645.98 995.96 -0.41 1028.98 -0.41"/><polygon class="cls-8" points="1117.21 -0.41 -534.27 1776.44 -534.27 1740.9 1084.18 -0.41 1117.21 -0.41"/><polygon class="cls-8" points="140.07 -0.41 -534.27 725.12 -534.27 689.59 107.05 -0.41 140.07 -0.41"/><polygon class="cls-8" points="51.84 -0.41 -534.27 630.2 -534.27 594.66 18.82 -0.41 51.84 -0.41"/><polygon class="cls-8" points="228.3 -0.41 -534.27 820.05 -534.27 784.51 195.27 -0.41 228.3 -0.41"/><polygon class="cls-8" points="316.53 -0.41 -534.27 914.97 -534.27 879.44 283.5 -0.41 316.53 -0.41"/><polygon class="cls-8" points="404.75 -0.41 -534.27 1009.89 -534.27 974.36 371.73 -0.41 404.75 -0.41"/><polygon class="cls-8" points="492.98 -0.41 -534.27 1104.82 -534.27 1069.29 459.96 -0.41 492.98 -0.41"/></g></g><g class="cls-9"><g class="cls-7"><polygon class="cls-8" points="2454.82 -1447.7 944.69 177.08 911.66 177.08 2454.82 -1483.23 2454.82 -1447.7"/><polygon class="cls-8" points="2454.82 -1542.62 856.46 177.08 823.44 177.08 2454.82 -1578.16 2454.82 -1542.62"/><polygon class="cls-8" points="2447.26 -1629.41 768.23 177.08 735.21 177.08 2414.23 -1629.41 2447.26 -1629.41"/><polygon class="cls-8" points="2454.82 -1352.77 1032.92 177.08 999.89 177.08 2454.82 -1388.31 2454.82 -1352.77"/><polygon class="cls-8" points="2454.82 -1257.85 1121.14 177.08 1088.12 177.08 2454.82 -1293.38 2454.82 -1257.85"/><polygon class="cls-8" points="2454.82 -1162.92 1209.37 177.08 1176.35 177.08 2454.82 -1198.46 2454.82 -1162.92"/><polygon class="cls-8" points="2454.82 -1068 1297.6 177.08 1264.57 177.08 2454.82 -1103.53 2454.82 -1068"/><polygon class="cls-8" points="2006.12 -1629.41 327.1 177.08 294.07 177.08 1973.1 -1629.41 2006.12 -1629.41"/><polygon class="cls-8" points="1917.89 -1629.41 238.87 177.08 205.84 177.08 1884.87 -1629.41 1917.89 -1629.41"/><polygon class="cls-8" points="1829.67 -1629.41 150.64 177.08 117.61 177.08 1796.64 -1629.41 1829.67 -1629.41"/><polygon class="cls-8" points="2094.35 -1629.41 415.32 177.08 382.3 177.08 2061.32 -1629.41 2094.35 -1629.41"/><polygon class="cls-8" points="2182.58 -1629.41 503.55 177.08 470.52 177.08 2149.55 -1629.41 2182.58 -1629.41"/><polygon class="cls-8" points="2270.8 -1629.41 591.78 177.08 558.75 177.08 2237.78 -1629.41 2270.8 -1629.41"/><text/><polygon class="cls-8" points="2454.82 -776.08 1568.92 177.08 1535.89 177.08 2454.82 -811.62 2454.82 -776.08"/><polygon class="cls-8" points="2454.82 -871.01 1480.69 177.08 1447.66 177.08 2454.82 -906.54 2454.82 -871.01"/><polygon class="cls-8" points="2454.82 -965.93 1392.46 177.08 1359.44 177.08 2454.82 -1001.47 2454.82 -965.93"/><polygon class="cls-8" points="2454.82 -681.16 1657.14 177.08 1624.12 177.08 2454.82 -716.69 2454.82 -681.16"/><polygon class="cls-8" points="2454.82 -586.23 1745.37 177.08 1712.35 177.08 2454.82 -621.76 2454.82 -586.23"/><polygon class="cls-8" points="2454.82 -491.31 1833.6 177.08 1800.57 177.08 2454.82 -526.84 2454.82 -491.31"/><polygon class="cls-8" points="2454.82 -396.38 1921.83 177.08 1888.8 177.08 2454.82 -431.91 2454.82 -396.38"/><polygon class="cls-8" points="1381.89 -1629.41 -297.13 177.08 -330.16 177.08 1348.87 -1629.41 1381.89 -1629.41"/><polygon class="cls-8" points="1293.67 -1629.41 -385.36 177.08 -418.39 177.08 1260.64 -1629.41 1293.67 -1629.41"/><polygon class="cls-8" points="1205.44 -1629.41 -473.59 177.08 -506.61 177.08 1172.41 -1629.41 1205.44 -1629.41"/><polygon class="cls-8" points="1470.12 -1629.41 -208.91 177.08 -241.93 177.08 1437.1 -1629.41 1470.12 -1629.41"/><polygon class="cls-8" points="1558.35 -1629.41 -120.68 177.08 -153.7 177.08 1525.32 -1629.41 1558.35 -1629.41"/><polygon class="cls-8" points="1646.58 -1629.41 -32.45 177.08 -65.48 177.08 1613.55 -1629.41 1646.58 -1629.41"/><polygon class="cls-8" points="1734.81 -1629.41 55.78 177.08 22.75 177.08 1701.78 -1629.41 1734.81 -1629.41"/><polygon class="cls-8" points="1028.98 -1629.41 -534.27 52.51 -534.27 16.98 995.96 -1629.41 1028.98 -1629.41"/><polygon class="cls-8" points="1117.21 -1629.41 -534.27 147.44 -534.27 111.9 1084.18 -1629.41 1117.21 -1629.41"/></g></g></svg>