<svg id="Layer_1" data-name="Layer 1" xmlns="http://www.w3.org/2000/svg" xmlns:xlink="http://www.w3.org/1999/xlink" viewBox="0 0 57.78 44"><defs><style>.cls-1{fill:none;}.cls-2{clip-path:url(#clip-path);}.cls-3{fill:#fff;}</style><clipPath id="clip-path"><path class="cls-1" d="M-212.32,88H-88.47A55.48,55.48,0,0,1-33,143.47V267.31A4.69,4.69,0,0,1-37.69,272H-161.53A55.48,55.48,0,0,1-217,216.53V92.68A4.69,4.69,0,0,1-212.32,88Z"/></clipPath></defs><title>CurlyQuote</title><path class="cls-3" d="M14.22,24.44c0-11.55,3.56-14.22,8.45-14.22V0C14.67,0,0,4.44,0,24.44,0,40.44,3.11,44,3.11,44H25.33V24.44Z"/><path class="cls-3" d="M46.67,24.44c0-11.55,3.55-14.22,8.44-14.22V0c-8,0-22.67,4.44-22.67,24.44,0,16,3.12,19.56,3.12,19.56H57.78V24.44Z"/></svg>