<svg id="Layer_1" data-name="Layer 1" xmlns="http://www.w3.org/2000/svg" viewBox="0 0 1667.51 195.59"><defs><style>.cls-1{fill:#ff7500;}.cls-2,.cls-3,.cls-5{fill:#fff;}.cls-2{opacity:0.2;}.cls-4{fill:none;}.cls-4,.cls-5{stroke:#fff;stroke-miterlimit:10;stroke-width:3px;}</style></defs><title>TF-ProgramTimeline</title><rect class="cls-1" x="9.3" y="37.01" width="1583" height="89.81"/><rect class="cls-2" x="8.3" y="37.01" width="402" height="89.81"/><rect class="cls-2" x="662.3" y="37.01" width="121" height="89.81"/><path class="cls-3" d="M641,1.15h2.47V15A4.81,4.81,0,0,1,638.28,20a4.88,4.88,0,0,1-5.2-5.25h2.44c0,1.72.83,3.08,2.76,3.08A2.58,2.58,0,0,0,641,15Z"/><path class="cls-3" d="M654.31,4.91a6.09,6.09,0,0,1,5.47,2.92V5.15h2.47V19.84h-2.47V17.1a6.14,6.14,0,0,1-5.49,3c-3.92,0-6.95-3.08-6.95-7.64S650.37,4.91,654.31,4.91ZM654.8,7c-2.68,0-5,2-5,5.42s2.28,5.5,5,5.5,5-2,5-5.47S657.48,7,654.8,7Z"/><path class="cls-3" d="M677.12,11.53c0-3-1.63-4.53-4.1-4.53s-4.21,1.55-4.21,4.71v8.13h-2.44V5.15h2.44V7.24a5.44,5.44,0,0,1,4.72-2.36c3.41,0,6,2.09,6,6.3v8.66h-2.42Z"/><path class="cls-3" d="M684.31,20a1.67,1.67,0,1,1,1.61-1.66A1.64,1.64,0,0,1,684.31,20Z"/><path class="cls-3" d="M1129.27,1.29h2.62l6.87,15.33,6.86-15.33h2.6V19.84h-2.44V6l-6.17,13.84h-1.71L1131.71,6V19.84h-2.44Z"/><path class="cls-3" d="M1158.4,4.91a6.08,6.08,0,0,1,5.47,2.92V5.15h2.47V19.84h-2.47V17.1a6.12,6.12,0,0,1-5.49,3c-3.92,0-7-3.08-7-7.64S1154.46,4.91,1158.4,4.91Zm.49,2.11c-2.68,0-5,2-5,5.42s2.28,5.5,5,5.5,5-2,5-5.47S1161.57,7,1158.89,7Z"/><path class="cls-3" d="M1180.6,5.15h2.52l-8.85,21.6h-2.52l2.9-7.07-5.93-14.53h2.71l4.61,11.9Z"/><path class="cls-3" d="M1018.6,15.68h-8.15l-1.5,4.16h-2.57l6.75-18.58h2.81l6.74,18.58h-2.58Zm-4.08-11.42-3.37,9.44h6.75Z"/><path class="cls-3" d="M1033.56,4.91c3.94,0,7,2.94,7,7.53s-3,7.64-7,7.64a6.37,6.37,0,0,1-5.5-2.95v9.68h-2.44V5.15h2.44v2.7A6.21,6.21,0,0,1,1033.56,4.91ZM1033.05,7c-2.66,0-5,2-5,5.45s2.33,5.47,5,5.47,5-2,5-5.5S1035.76,7,1033.05,7Z"/><path class="cls-3" d="M1046.18,19.84h-2.44V5.15h2.44V7.53a5,5,0,0,1,4.74-2.65V7.4h-.64c-2.33,0-4.1,1-4.1,4.45Z"/><path class="cls-3" d="M1054.52,20a1.67,1.67,0,1,1,1.6-1.66A1.62,1.62,0,0,1,1054.52,20Z"/><path class="cls-3" d="M1255.74,1.15h2.47V15A4.81,4.81,0,0,1,1253,20a4.88,4.88,0,0,1-5.2-5.25h2.44c0,1.72.83,3.08,2.76,3.08a2.58,2.58,0,0,0,2.71-2.89Z"/><path class="cls-3" d="M1276,19.84h-2.44V17.67a5.41,5.41,0,0,1-4.69,2.38c-3.38,0-6-2.09-6-6.3V5.15h2.41v8.28c0,3,1.64,4.51,4.1,4.51s4.21-1.56,4.21-4.72V5.15H1276Z"/><path class="cls-3" d="M1290.91,11.53c0-3-1.64-4.53-4.1-4.53s-4.21,1.55-4.21,4.71v8.13h-2.44V5.15h2.44V7.24a5.41,5.41,0,0,1,4.72-2.36c3.4,0,6,2.09,6,6.3v8.66h-2.41Z"/><path class="cls-3" d="M1303.67,20.08c-4.18,0-7.27-2.95-7.27-7.61s3-7.56,7.27-7.56a6.73,6.73,0,0,1,7,7,13.87,13.87,0,0,1-.08,1.47H1298.9a4.6,4.6,0,0,0,4.77,4.61,4,4,0,0,0,4.13-2.7h2.62A6.6,6.6,0,0,1,1303.67,20.08Zm-4.75-8.66h9.28c0-2.87-2.12-4.45-4.64-4.45A4.55,4.55,0,0,0,1298.92,11.42Z"/><path class="cls-3" d="M1385.73,1.15h2.47V15A4.81,4.81,0,0,1,1383,20a4.88,4.88,0,0,1-5.2-5.25h2.44c0,1.72.83,3.08,2.76,3.08a2.57,2.57,0,0,0,2.7-2.89Z"/><path class="cls-3" d="M1406,19.84h-2.44V17.67a5.42,5.42,0,0,1-4.69,2.38c-3.38,0-6-2.09-6-6.3V5.15h2.42v8.28c0,3,1.63,4.51,4.1,4.51s4.21-1.56,4.21-4.72V5.15H1406Z"/><path class="cls-3" d="M1410.15,0h2.44V19.84h-2.44Z"/><path class="cls-3" d="M1426.88,5.15h2.52l-8.85,21.6H1418l2.9-7.07L1415,5.15h2.71l4.61,11.9Z"/><path class="cls-3" d="M1510.83,15.68h-8.15l-1.5,4.16h-2.58l6.76-18.58h2.81l6.73,18.58h-2.57Zm-4.08-11.42-3.37,9.44h6.75Z"/><path class="cls-3" d="M1530.88,19.84h-2.44V17.67a5.42,5.42,0,0,1-4.69,2.38c-3.38,0-6-2.09-6-6.3V5.15h2.42v8.28c0,3,1.63,4.51,4.1,4.51s4.21-1.56,4.21-4.72V5.15h2.44Z"/><path class="cls-3" d="M1541.06,4.91a6.06,6.06,0,0,1,5.47,2.92V5.15H1549v15c0,4.05-2.71,6.92-7,6.92-3.86,0-6.62-2-7.1-5.1h2.41c.54,1.77,2.28,3,4.69,3,2.6,0,4.56-1.66,4.56-4.8V17.08a6.14,6.14,0,0,1-5.47,3c-3.94,0-7-3.08-7-7.64S1537.12,4.91,1541.06,4.91Zm.49,2.11c-2.68,0-5,2-5,5.42s2.28,5.5,5,5.5,5-2,5-5.47S1544.23,7,1541.55,7Z"/><path class="cls-3" d="M1553.9,20a1.67,1.67,0,1,1,1.61-1.66A1.63,1.63,0,0,1,1553.9,20Z"/><path class="cls-3" d="M21.83,15.22H13.68l-1.5,4.16H9.6L16.36.8h2.81L25.9,19.38H23.33ZM17.75,3.8l-3.37,9.44h6.75Z"/><path class="cls-3" d="M41.88,19.38H39.44V17.21a5.42,5.42,0,0,1-4.69,2.38c-3.38,0-6-2.09-6-6.3V4.69h2.42V13c0,3,1.63,4.5,4.1,4.5s4.21-1.55,4.21-4.72V4.69h2.44Z"/><path class="cls-3" d="M52.06,4.44a6,6,0,0,1,5.47,2.93V4.69H60v15c0,4.05-2.71,6.91-7,6.91-3.86,0-6.62-1.95-7.1-5.09h2.41c.54,1.77,2.28,3,4.69,3,2.6,0,4.56-1.67,4.56-4.8V16.62a6.14,6.14,0,0,1-5.47,3c-3.94,0-7-3.09-7-7.64S48.12,4.44,52.06,4.44Zm.49,2.12c-2.68,0-5,2-5,5.42s2.28,5.49,5,5.49,5-2,5-5.47S55.23,6.56,52.55,6.56Z"/><path class="cls-3" d="M64.9,19.54a1.67,1.67,0,1,1,1.61-1.67A1.64,1.64,0,0,1,64.9,19.54Z"/><path class="cls-3" d="M271.86,19.89a9.22,9.22,0,0,1-9.39-9.55,9.39,9.39,0,1,1,18.77,0A9.2,9.2,0,0,1,271.86,19.89Zm0-2.12c3.94,0,6.89-2.87,6.89-7.43s-2.95-7.42-6.89-7.42S265,5.76,265,10.34,267.92,17.77,271.86,17.77Z"/><path class="cls-3" d="M290.7,4.77c3.65,0,6,1.87,6.78,5h-2.62a4,4,0,0,0-4.16-2.9c-2.68,0-4.66,1.9-4.66,5.5s2,5.55,4.66,5.55a4,4,0,0,0,4.16-2.9h2.62c-.75,2.92-3.13,5-6.78,5-4.18,0-7.16-3-7.16-7.61S286.52,4.77,290.7,4.77Z"/><path class="cls-3" d="M301.26,7h-1.9V5h1.9V1.31h2.44V5h3.83V7H303.7v8.66c0,1.45.54,1.95,2,1.95h1.79V19.7h-2.19c-2.6,0-4.08-1.07-4.08-4Z"/><path class="cls-3" d="M311.26,19.86a1.66,1.66,0,1,1,1.61-1.66A1.63,1.63,0,0,1,311.26,19.86Z"/><path class="cls-3" d="M400.06,1.13V19.84h-2.44L387.81,5V19.84h-2.44V1.13h2.44L397.62,16V1.13Z"/><path class="cls-3" d="M410.62,20.08c-4.16,0-7.32-2.95-7.32-7.61a7.43,7.43,0,1,1,14.85,0A7.28,7.28,0,0,1,410.62,20.08Zm0-2.14c2.55,0,5-1.75,5-5.47S413.22,7,410.7,7s-4.91,1.75-4.91,5.45S408.07,17.94,410.62,17.94Z"/><path class="cls-3" d="M422.25,5.15l4.59,12.44,4.55-12.44H434l-5.76,14.69h-2.84L419.62,5.15Z"/><path class="cls-3" d="M437.18,20a1.67,1.67,0,1,1,1.61-1.66A1.63,1.63,0,0,1,437.18,20Z"/><path class="cls-3" d="M524.66,10.54c0,5.79-3.78,9.3-9.92,9.3h-5.82V1.15h5.82C520.88,1.15,524.66,4.74,524.66,10.54Zm-9.92,7.29c4.88,0,7.42-2.74,7.42-7.29s-2.54-7.4-7.42-7.4h-3.38V17.83Z"/><path class="cls-3" d="M534.22,20.08c-4.18,0-7.26-2.95-7.26-7.61s3-7.56,7.26-7.56a6.73,6.73,0,0,1,7,7,11.64,11.64,0,0,1-.08,1.47H529.45A4.62,4.62,0,0,0,534.22,18a4,4,0,0,0,4.13-2.7H541A6.61,6.61,0,0,1,534.22,20.08Zm-4.74-8.66h9.27A4.3,4.3,0,0,0,534.12,7,4.55,4.55,0,0,0,529.48,11.42Z"/><path class="cls-3" d="M550.73,4.91c3.65,0,6,1.87,6.79,4.95h-2.63A4,4,0,0,0,550.73,7c-2.68,0-4.66,1.9-4.66,5.5s2,5.54,4.66,5.54a3.94,3.94,0,0,0,4.16-2.89h2.63c-.75,2.92-3.14,5-6.79,5-4.18,0-7.15-2.95-7.15-7.61S546.55,4.91,550.73,4.91Z"/><path class="cls-3" d="M561.54,20a1.67,1.67,0,1,1,1.61-1.66A1.64,1.64,0,0,1,561.54,20Z"/><path class="cls-3" d="M758.62,1.15h10.56v2h-8.12v6.3h6.59v2h-6.59v8.42h-2.44Z"/><path class="cls-3" d="M778.48,20.08c-4.18,0-7.26-2.95-7.26-7.61s3-7.56,7.26-7.56a6.73,6.73,0,0,1,7,7,13.87,13.87,0,0,1-.08,1.47H773.71A4.62,4.62,0,0,0,778.48,18a4,4,0,0,0,4.13-2.7h2.63A6.61,6.61,0,0,1,778.48,20.08Zm-4.74-8.66H783C783,8.55,780.89,7,778.37,7A4.54,4.54,0,0,0,773.74,11.42Z"/><path class="cls-3" d="M796.68,4.91c4,0,7,2.94,7,7.53s-3,7.64-7,7.64a6.15,6.15,0,0,1-5.5-2.95v2.71h-2.43V0h2.43V7.88A6.24,6.24,0,0,1,796.68,4.91ZM796.17,7c-2.65,0-5,2-5,5.45s2.34,5.47,5,5.47,5-2,5-5.5S798.88,7,796.17,7Z"/><path class="cls-3" d="M807.64,20a1.67,1.67,0,1,1,1.61-1.66A1.63,1.63,0,0,1,807.64,20Z"/><path class="cls-3" d="M881.1,1.29h2.62l6.87,15.33,6.86-15.33h2.6V19.84h-2.44V6l-6.17,13.84h-1.71L883.54,6V19.84H881.1Z"/><path class="cls-3" d="M910.23,4.91a6.09,6.09,0,0,1,5.47,2.92V5.15h2.47V19.84H915.7V17.1a6.14,6.14,0,0,1-5.49,3c-3.92,0-7-3.08-7-7.64S906.29,4.91,910.23,4.91ZM910.72,7c-2.68,0-5,2-5,5.42s2.28,5.5,5,5.5,5-2,5-5.47S913.4,7,910.72,7Z"/><path class="cls-3" d="M924.73,19.84H922.3V5.15h2.43V7.53a5,5,0,0,1,4.75-2.65V7.4h-.64c-2.34,0-4.11,1-4.11,4.45Z"/><path class="cls-3" d="M933.07,20a1.67,1.67,0,1,1,1.61-1.66A1.63,1.63,0,0,1,933.07,20Z"/><line class="cls-4" x1="10.3" y1="37.01" x2="1592.3" y2="37.01"/><circle class="cls-3" cx="8.59" cy="36.55" r="8.59"/><circle class="cls-3" cx="1592.31" cy="32.84" r="9.99"/><line class="cls-5" x1="1592.31" y1="156.96" x2="1592.31" y2="32.84"/><path class="cls-3" d="M66.06,85.71c-3.63,0-6.46-1.8-6.58-5.2h4.37a1.94,1.94,0,0,0,2.09,1.92c1.2,0,2-.6,2-1.59,0-3.12-8.43-1.44-8.38-7.41,0-3.2,2.62-5,6.14-5,3.68,0,6.15,1.82,6.32,5H67.55a1.83,1.83,0,0,0-2-1.75,1.49,1.49,0,0,0-1.73,1.53c0,2.93,8.33,1.61,8.33,7.25C72.2,83.36,70,85.71,66.06,85.71Z"/><path class="cls-3" d="M74.34,68.55a2.45,2.45,0,1,1,2.44,2.21A2.27,2.27,0,0,1,74.34,68.55Zm.38,3.6h4.11v13.4H74.72Z"/><path class="cls-3" d="M86.89,72A4.64,4.64,0,0,1,91,74.05v-1.9h4.1V85.52c0,3.58-2.06,6.63-6.69,6.63-4,0-6.58-2-6.94-5.21h4.06a2.51,2.51,0,0,0,2.68,1.65c1.56,0,2.79-.81,2.79-3.07V83.63a4.76,4.76,0,0,1-4.13,2.11c-3.29,0-5.91-2.69-5.91-6.91S83.6,72,86.89,72Zm1.2,3.58a3,3,0,0,0-2.93,3.29,3,3,0,0,0,2.93,3.33,3.33,3.33,0,0,0,0-6.62Z"/><path class="cls-3" d="M107.34,78.27c0-1.82-1-2.83-2.57-2.83s-2.57,1-2.57,2.83v7.28H98.1V72.15h4.1v1.78A4.92,4.92,0,0,1,106.26,72c3.09,0,5.16,2.11,5.16,5.71v7.83h-4.08Z"/><path class="cls-3" d="M132.59,85.55h-4.11V83.72a4.9,4.9,0,0,1-4.06,2c-3.09,0-5.18-2.14-5.18-5.71V72.15h4.08v7.28c0,1.82,1,2.83,2.57,2.83s2.59-1,2.59-2.83V72.15h4.11Z"/><path class="cls-3" d="M143.77,72c3.29,0,5.9,2.64,5.9,6.87s-2.61,6.91-5.9,6.91a4.81,4.81,0,0,1-4.13-2.07v8.26h-4.1V72.15h4.1v1.9A4.71,4.71,0,0,1,143.77,72Zm-1.23,3.58a3.34,3.34,0,0,0,0,6.62,3,3,0,0,0,3-3.33A3,3,0,0,0,142.54,75.54Z"/><path class="cls-3" d="M165,72.78a1.18,1.18,0,0,0-1.25-1.35,1.22,1.22,0,0,0-1.34,1.2A3.68,3.68,0,0,0,163.76,75l4.1,4c.1-.22.22-.43.32-.67l.88-1.51h4.11L172,78.87a18.78,18.78,0,0,1-1.49,2.69l4.06,4h-4.78L168.25,84a8.82,8.82,0,0,1-5.57,1.78c-3.91,0-6.38-2-6.38-5.16a5.39,5.39,0,0,1,3.43-5,4.37,4.37,0,0,1-1.18-3c0-2.38,1.9-4.3,5.26-4.3s5.13,2.09,5.06,4.42Zm.72,8.81L162,78a2.73,2.73,0,0,0-1.72,2.4c0,1.18,1,2.14,2.61,2.14A4.67,4.67,0,0,0,165.73,81.59Z"/><path class="cls-3" d="M187.26,85.71c-3.63,0-6.46-1.8-6.58-5.2h4.37a1.93,1.93,0,0,0,2.09,1.92c1.2,0,2-.6,2-1.59,0-3.12-8.42-1.44-8.37-7.41,0-3.2,2.61-5,6.14-5s6.15,1.82,6.31,5h-4.44a1.82,1.82,0,0,0-1.94-1.75,1.49,1.49,0,0,0-1.73,1.53c0,2.93,8.33,1.61,8.33,7.25C193.4,83.36,191.19,85.71,187.26,85.71Z"/><path class="cls-3" d="M201.87,85.74c-3.94,0-6.77-2.64-6.77-6.89S197.89,72,201.87,72a6.31,6.31,0,0,1,6.67,6.67,9.77,9.77,0,0,1-.07,1.2h-9.29a2.49,2.49,0,0,0,2.55,2.57,2.17,2.17,0,0,0,2.13-1.29h4.37A6.26,6.26,0,0,1,201.87,85.74Zm-2.66-8.19h5.13a2.31,2.31,0,0,0-2.52-2.3A2.54,2.54,0,0,0,199.21,77.55Z"/><path class="cls-3" d="M215.79,72a4.66,4.66,0,0,1,4.13,2.09v-1.9H224v13.4h-4.1v-1.9a4.72,4.72,0,0,1-4.15,2.09c-3.27,0-5.88-2.69-5.88-6.91S212.5,72,215.79,72Zm1.2,3.58a3,3,0,0,0-2.93,3.29A3,3,0,0,0,217,82.16a3.33,3.33,0,0,0,0-6.62Z"/><path class="cls-3" d="M232.45,85.74c-3.58,0-6-2-6.17-4.59h4.05a1.88,1.88,0,0,0,2.07,1.56c1,0,1.61-.48,1.61-1.08,0-2.16-7.3-.6-7.3-5.52,0-2.28,1.94-4.15,5.45-4.15s5.38,1.92,5.64,4.56H234A1.77,1.77,0,0,0,232,75c-1,0-1.49.38-1.49,1,0,2.14,7.25.63,7.32,5.62C237.87,84,235.81,85.74,232.45,85.74Z"/><path class="cls-3" d="M246.49,85.74a6.89,6.89,0,1,1,7-6.89A6.65,6.65,0,0,1,246.49,85.74Zm0-3.55c1.46,0,2.83-1.08,2.83-3.34s-1.35-3.34-2.79-3.34-2.78,1.06-2.78,3.34S245,82.19,246.49,82.19Z"/><path class="cls-3" d="M264.92,78.27c0-1.82-1-2.83-2.57-2.83s-2.57,1-2.57,2.83v7.28h-4.1V72.15h4.1v1.78A4.92,4.92,0,0,1,263.84,72c3.1,0,5.16,2.11,5.16,5.71v7.83h-4.08Z"/><path class="cls-3" d="M285.17,72c3.32,0,5.91,2.64,5.91,6.87s-2.62,6.91-5.91,6.91a4.69,4.69,0,0,1-4.12-2.07v1.88h-4.11V67.78h4.11v6.27A4.71,4.71,0,0,1,285.17,72ZM284,75.54a3.33,3.33,0,1,0,2.95,3.29A3,3,0,0,0,284,75.54Z"/><path class="cls-3" d="M299.19,85.74c-3.94,0-6.77-2.64-6.77-6.89S295.21,72,299.19,72a6.31,6.31,0,0,1,6.67,6.67,9.77,9.77,0,0,1-.07,1.2H296.5a2.49,2.49,0,0,0,2.55,2.57,2.17,2.17,0,0,0,2.13-1.29h4.37A6.26,6.26,0,0,1,299.19,85.74Zm-2.66-8.19h5.13a2.31,2.31,0,0,0-2.52-2.3A2.54,2.54,0,0,0,296.53,77.55Z"/><path class="cls-3" d="M313.11,72a4.64,4.64,0,0,1,4.13,2.09v-1.9h4.1V85.52c0,3.58-2.06,6.63-6.69,6.63-4,0-6.58-2-6.94-5.21h4.06a2.51,2.51,0,0,0,2.68,1.65c1.56,0,2.79-.81,2.79-3.07V83.63a4.76,4.76,0,0,1-4.13,2.11c-3.29,0-5.9-2.69-5.9-6.91S309.82,72,313.11,72Zm1.2,3.58a3,3,0,0,0-2.93,3.29,3,3,0,0,0,2.93,3.33,3.33,3.33,0,0,0,0-6.62Z"/><path class="cls-3" d="M323.93,68.55a2.45,2.45,0,1,1,2.45,2.21A2.28,2.28,0,0,1,323.93,68.55Zm.39,3.6h4.1v13.4h-4.1Z"/><path class="cls-3" d="M340.64,78.27c0-1.82-1-2.83-2.57-2.83s-2.57,1-2.57,2.83v7.28h-4.1V72.15h4.1v1.78A4.92,4.92,0,0,1,339.56,72c3.09,0,5.16,2.11,5.16,5.71v7.83h-4.08Z"/><path class="cls-3" d="M353,85.74c-3.57,0-6-2-6.17-4.59h4.06A1.88,1.88,0,0,0,353,82.71c1.06,0,1.61-.48,1.61-1.08,0-2.16-7.3-.6-7.3-5.52,0-2.28,2-4.15,5.45-4.15s5.38,1.92,5.64,4.56h-3.79a1.76,1.76,0,0,0-2-1.51c-1,0-1.48.38-1.48,1,0,2.14,7.24.63,7.32,5.62C358.45,84,356.38,85.74,353,85.74Z"/><path class="cls-3" d="M681.85,68.7H686V80.17c0,3.62-2.21,5.54-5.55,5.54s-5.88-2-5.88-5.8h4.08c0,1.44.63,2.13,1.68,2.13s1.56-.62,1.56-1.87Z"/><path class="cls-3" d="M702.5,85.55h-4.11V83.72a4.89,4.89,0,0,1-4.06,2c-3.09,0-5.18-2.14-5.18-5.71V72.15h4.08v7.28c0,1.82,1,2.83,2.57,2.83s2.59-1,2.59-2.83V72.15h4.11Z"/><path class="cls-3" d="M710.53,72a4.92,4.92,0,0,1,4.13,2V67.78h4.11V85.55h-4.11V83.63a4.64,4.64,0,0,1-4.13,2.11c-3.28,0-5.9-2.69-5.9-6.91S707.25,72,710.53,72Zm1.2,3.58a3,3,0,0,0-2.92,3.29,3,3,0,0,0,2.92,3.33,3.33,3.33,0,0,0,0-6.62Z"/><path class="cls-3" d="M726.83,72A4.64,4.64,0,0,1,731,74.05v-1.9h4.1V85.52c0,3.58-2.06,6.63-6.69,6.63-4,0-6.58-2-6.94-5.21h4.06a2.51,2.51,0,0,0,2.68,1.65c1.56,0,2.79-.81,2.79-3.07V83.63a4.76,4.76,0,0,1-4.13,2.11c-3.29,0-5.9-2.69-5.9-6.91S723.54,72,726.83,72Zm1.2,3.58a3,3,0,0,0-2.93,3.29A3,3,0,0,0,728,82.16a3.33,3.33,0,0,0,0-6.62Z"/><path class="cls-3" d="M737.65,68.55a2.45,2.45,0,1,1,2.45,2.21A2.28,2.28,0,0,1,737.65,68.55Zm.39,3.6h4.1v13.4H738Z"/><path class="cls-3" d="M754.36,78.27c0-1.82-1-2.83-2.57-2.83s-2.57,1-2.57,2.83v7.28h-4.1V72.15h4.1v1.78A4.92,4.92,0,0,1,753.28,72c3.09,0,5.16,2.11,5.16,5.71v7.83h-4.08Z"/><path class="cls-3" d="M766.38,72a4.64,4.64,0,0,1,4.13,2.09v-1.9h4.1V85.52c0,3.58-2.06,6.63-6.69,6.63-4,0-6.58-2-6.94-5.21H765a2.52,2.52,0,0,0,2.69,1.65c1.56,0,2.78-.81,2.78-3.07V83.63a4.74,4.74,0,0,1-4.13,2.11c-3.29,0-5.9-2.69-5.9-6.91S763.09,72,766.38,72Zm1.2,3.58a3,3,0,0,0-2.93,3.29,3,3,0,0,0,2.93,3.33,3.33,3.33,0,0,0,0-6.62Z"/><path class="cls-3" d="M1076.08,85.71a8.63,8.63,0,1,1,8.62-8.64A8.47,8.47,0,0,1,1076.08,85.71Zm0-3.74c2.69,0,4.44-1.94,4.44-4.9s-1.75-4.89-4.44-4.89-4.46,1.89-4.46,4.89S1073.35,82,1076.08,82Z"/><path class="cls-3" d="M1087.39,75.56h-1.49V72.15h1.49v-.38c0-3.5,2.16-5.23,6.24-5v3.48c-1.59-.09-2.14.39-2.14,1.8v.12h2.21v3.41h-2.21v10h-4.1Z"/><path class="cls-3" d="M1096,75.56h-1.49V72.15H1096v-.38c0-3.5,2.16-5.23,6.24-5v3.48c-1.59-.09-2.14.39-2.14,1.8v.12h2.21v3.41h-2.21v10H1096Z"/><path class="cls-3" d="M1104,75.42h10.56v3.41H1104Z"/><path class="cls-3" d="M1124.27,85.71c-3.62,0-6.45-1.8-6.57-5.2h4.37a1.93,1.93,0,0,0,2.08,1.92c1.2,0,2-.6,2-1.59,0-3.12-8.42-1.44-8.37-7.41,0-3.2,2.61-5,6.14-5s6.14,1.82,6.31,5h-4.44a1.82,1.82,0,0,0-1.94-1.75,1.49,1.49,0,0,0-1.73,1.53c0,2.93,8.33,1.61,8.33,7.25C1130.42,83.36,1128.21,85.71,1124.27,85.71Z"/><path class="cls-3" d="M1138.89,85.74c-3.94,0-6.77-2.64-6.77-6.89s2.79-6.89,6.77-6.89a6.31,6.31,0,0,1,6.67,6.67,9.77,9.77,0,0,1-.07,1.2h-9.29a2.49,2.49,0,0,0,2.55,2.57,2.17,2.17,0,0,0,2.13-1.29h4.37A6.26,6.26,0,0,1,1138.89,85.74Zm-2.66-8.19h5.13a2.31,2.31,0,0,0-2.52-2.3A2.54,2.54,0,0,0,1136.23,77.55Z"/><path class="cls-3" d="M1152.81,72a4.66,4.66,0,0,1,4.13,2.09v-1.9h4.1v13.4h-4.1v-1.9a4.73,4.73,0,0,1-4.15,2.09c-3.27,0-5.88-2.69-5.88-6.91S1149.52,72,1152.81,72Zm1.2,3.58a3,3,0,0,0-2.93,3.29,3,3,0,0,0,2.93,3.33,3.33,3.33,0,0,0,0-6.62Z"/><path class="cls-3" d="M1169.47,85.74c-3.58,0-6-2-6.17-4.59h4a1.88,1.88,0,0,0,2.07,1.56c1,0,1.61-.48,1.61-1.08,0-2.16-7.3-.6-7.3-5.52,0-2.28,1.94-4.15,5.45-4.15s5.37,1.92,5.64,4.56H1171a1.77,1.77,0,0,0-2-1.51c-1,0-1.49.38-1.49,1,0,2.14,7.25.63,7.32,5.62C1174.89,84,1172.83,85.74,1169.47,85.74Z"/><path class="cls-3" d="M1183.51,85.74a6.89,6.89,0,1,1,7-6.89A6.64,6.64,0,0,1,1183.51,85.74Zm0-3.55c1.46,0,2.83-1.08,2.83-3.34s-1.35-3.34-2.79-3.34-2.78,1.06-2.78,3.34S1182,82.19,1183.51,82.19Z"/><path class="cls-3" d="M1201.94,78.27c0-1.82-1-2.83-2.57-2.83s-2.57,1-2.57,2.83v7.28h-4.1V72.15h4.1v1.78a4.92,4.92,0,0,1,4.06-1.92c3.09,0,5.16,2.11,5.16,5.71v7.83h-4.08Z"/><path class="cls-3" d="M464.87,85.71c-3.63,0-6.46-1.8-6.58-5.2h4.37a1.93,1.93,0,0,0,2.09,1.92c1.2,0,2-.6,2-1.59,0-3.12-8.42-1.44-8.37-7.41,0-3.2,2.61-5,6.14-5s6.15,1.82,6.32,5h-4.45a1.82,1.82,0,0,0-1.94-1.75,1.49,1.49,0,0,0-1.73,1.53c0,2.93,8.33,1.61,8.33,7.25C471,83.36,468.8,85.71,464.87,85.71Z"/><path class="cls-3" d="M486.76,85.55h-4.11V83.72a4.9,4.9,0,0,1-4.06,2c-3.09,0-5.18-2.14-5.18-5.71V72.15h4.08v7.28c0,1.82,1,2.83,2.57,2.83s2.59-1,2.59-2.83V72.15h4.11Z"/><path class="cls-3" d="M497.94,72c3.31,0,5.9,2.64,5.9,6.87s-2.61,6.91-5.9,6.91a4.7,4.7,0,0,1-4.13-2.07v1.88h-4.1V67.78h4.1v6.27A4.73,4.73,0,0,1,497.94,72Zm-1.23,3.58a3.34,3.34,0,0,0,0,6.62,3,3,0,0,0,3-3.33A3,3,0,0,0,496.71,75.54Z"/><path class="cls-3" d="M524.46,78.27a2.57,2.57,0,1,0-5.14,0v7.28h-4.08V78.27a2.57,2.57,0,1,0-5.13,0v7.28H506V72.15h4.11v1.68A4.72,4.72,0,0,1,514,72a5,5,0,0,1,4.56,2.5,5.39,5.39,0,0,1,4.51-2.5c3.31,0,5.45,2.11,5.45,5.71v7.83h-4.08Z"/><path class="cls-3" d="M531,68.55a2.45,2.45,0,1,1,2.45,2.21A2.28,2.28,0,0,1,531,68.55Zm.39,3.6h4.1v13.4h-4.1Z"/><path class="cls-3" d="M544,85.74c-3.58,0-6-2-6.17-4.59h4.05a1.88,1.88,0,0,0,2.07,1.56c1.05,0,1.61-.48,1.61-1.08,0-2.16-7.3-.6-7.3-5.52,0-2.28,1.94-4.15,5.45-4.15s5.37,1.92,5.64,4.56h-3.79a1.77,1.77,0,0,0-2-1.51c-1,0-1.49.38-1.49,1,0,2.14,7.25.63,7.32,5.62C549.37,84,547.31,85.74,544,85.74Z"/><path class="cls-3" d="M557.34,85.74c-3.58,0-6-2-6.17-4.59h4.06a1.87,1.87,0,0,0,2.06,1.56c1.06,0,1.61-.48,1.61-1.08,0-2.16-7.3-.6-7.3-5.52,0-2.28,1.95-4.15,5.45-4.15s5.38,1.92,5.64,4.56H558.9a1.77,1.77,0,0,0-2-1.51c-1,0-1.49.38-1.49,1,0,2.14,7.25.63,7.32,5.62C562.76,84,560.7,85.74,557.34,85.74Z"/><path class="cls-3" d="M564.9,68.55a2.45,2.45,0,1,1,2.45,2.21A2.27,2.27,0,0,1,564.9,68.55Zm.38,3.6h4.11v13.4h-4.11Z"/><path class="cls-3" d="M578.46,85.74a6.89,6.89,0,1,1,7-6.89A6.65,6.65,0,0,1,578.46,85.74Zm0-3.55c1.46,0,2.83-1.08,2.83-3.34s-1.34-3.34-2.78-3.34-2.79,1.06-2.79,3.34S577,82.19,578.46,82.19Z"/><path class="cls-3" d="M596.89,78.27c0-1.82-1-2.83-2.57-2.83s-2.57,1-2.57,2.83v7.28h-4.1V72.15h4.1v1.78A4.92,4.92,0,0,1,595.81,72c3.1,0,5.16,2.11,5.16,5.71v7.83h-4.08Z"/><path class="cls-3" d="M609.27,85.74c-3.57,0-6-2-6.17-4.59h4.06a1.88,1.88,0,0,0,2.07,1.56c1,0,1.6-.48,1.6-1.08,0-2.16-7.29-.6-7.29-5.52,0-2.28,1.94-4.15,5.45-4.15s5.37,1.92,5.64,4.56h-3.8a1.76,1.76,0,0,0-2-1.51c-1,0-1.49.38-1.49,1,0,2.14,7.25.63,7.32,5.62C614.7,84,612.63,85.74,609.27,85.74Z"/><path class="cls-3" d="M141.83,20.13c-3.79,0-6.48-2.12-6.53-5.23h2.63c.16,1.57,1.27,3.14,3.9,3.14,2.39,0,3.8-1.35,3.8-3.14,0-5.1-10.22-1.85-10.22-8.87,0-3.12,2.52-5.23,6.26-5.23s6,2,6.26,4.85h-2.71c-.16-1.27-1.35-2.71-3.66-2.74-2-.05-3.63,1-3.63,3,0,4.88,10.19,1.84,10.19,8.84C148.12,17.47,145.93,20.13,141.83,20.13Z"/><path class="cls-3" d="M158.18,20.18c-4.23,0-7.35-3-7.35-7.7s3-7.64,7.35-7.64a6.81,6.81,0,0,1,7.13,7.1,14.41,14.41,0,0,1-.08,1.49H153.35a4.68,4.68,0,0,0,4.83,4.67,4.08,4.08,0,0,0,4.17-2.74H165A6.67,6.67,0,0,1,158.18,20.18Zm-4.8-8.75h9.38c0-2.9-2.14-4.5-4.69-4.5A4.6,4.6,0,0,0,153.38,11.43Z"/><path class="cls-3" d="M176.58,4.84c4,0,7,3,7,7.62s-3.06,7.72-7,7.72a6.41,6.41,0,0,1-5.55-3V27h-2.47V5.08H171V7.82A6.26,6.26,0,0,1,176.58,4.84ZM176.07,7c-2.68,0-5,2.06-5,5.5s2.36,5.53,5,5.53,5-2.06,5-5.55S178.81,7,176.07,7Z"/><path class="cls-3" d="M187.67,20.1a1.68,1.68,0,1,1,1.63-1.68A1.65,1.65,0,0,1,187.67,20.1Z"/><path class="cls-3" d="M1491,178.55h4.39l2.42,12.27,3-12.27h4.52l2.88,12.27,2.44-12.27h4.42l-4.39,16.85h-5l-2.69-11.09-2.78,11.09h-5Z"/><path class="cls-3" d="M1523.27,195.59a6.89,6.89,0,1,1,7-6.88A6.65,6.65,0,0,1,1523.27,195.59Zm0-3.55c1.46,0,2.83-1.08,2.83-3.33s-1.34-3.34-2.78-3.34-2.79,1.06-2.79,3.34S1521.78,192,1523.27,192Z"/><path class="cls-3" d="M1536.56,195.4h-4.1V182h4.1v2.23a5,5,0,0,1,4.2-2.38v4.35h-1.12c-2,0-3.08.67-3.08,3Z"/><path class="cls-3" d="M1542.73,177.64h4.11V195.4h-4.11Z"/><path class="cls-3" d="M1554.9,181.82a4.9,4.9,0,0,1,4.13,2v-6.22h4.1V195.4H1559v-1.92a4.63,4.63,0,0,1-4.13,2.11c-3.29,0-5.9-2.68-5.9-6.91S1551.61,181.82,1554.9,181.82Zm1.2,3.57a3,3,0,0,0-2.93,3.29,3,3,0,0,0,2.93,3.34,3.34,3.34,0,0,0,0-6.63Z"/><path class="cls-3" d="M1577.29,195.57c-3.62,0-6.45-1.8-6.57-5.21h4.36a1.93,1.93,0,0,0,2.09,1.92c1.2,0,2-.6,2-1.58,0-3.12-8.42-1.44-8.38-7.42,0-3.19,2.62-5,6.15-5s6.14,1.83,6.31,5h-4.44a1.82,1.82,0,0,0-1.94-1.75,1.5,1.5,0,0,0-1.73,1.54c0,2.93,8.33,1.6,8.33,7.25C1583.44,193.22,1581.23,195.57,1577.29,195.57Z"/><path class="cls-3" d="M1599.18,195.4h-4.1v-1.82a4.9,4.9,0,0,1-4.06,2c-3.1,0-5.18-2.14-5.18-5.72V182h4.08v7.27c0,1.83,1,2.83,2.56,2.83s2.6-1,2.6-2.83V182h4.1Z"/><path class="cls-3" d="M1620.59,188.13a2.57,2.57,0,1,0-5.14,0v7.27h-4.08v-7.27a2.57,2.57,0,1,0-5.13,0v7.27h-4.11V182h4.11v1.68a4.72,4.72,0,0,1,3.91-1.83,5,5,0,0,1,4.56,2.5,5.41,5.41,0,0,1,4.51-2.5c3.31,0,5.45,2.12,5.45,5.72v7.82h-4.08Z"/><path class="cls-3" d="M1646,188.13a2.57,2.57,0,1,0-5.13,0v7.27h-4.08v-7.27a2.57,2.57,0,1,0-5.14,0v7.27h-4.1V182h4.1v1.68a4.72,4.72,0,0,1,3.91-1.83,5,5,0,0,1,4.56,2.5,5.41,5.41,0,0,1,4.52-2.5c3.31,0,5.44,2.12,5.44,5.72v7.82H1646Z"/><path class="cls-3" d="M1652.58,178.41a2.45,2.45,0,1,1,2.45,2.21A2.27,2.27,0,0,1,1652.58,178.41Zm.38,3.6h4.11V195.4H1653Z"/><path class="cls-3" d="M1660.69,185.42h-1.63V182h1.63v-3.27h4.1V182h2.69v3.41h-2.69v5.37c0,.8.34,1.13,1.25,1.13h1.47v3.48h-2.09c-2.79,0-4.73-1.17-4.73-4.65Z"/></svg>