<svg id="Layer_1" data-name="Layer 1" xmlns="http://www.w3.org/2000/svg" viewBox="0 0 578.65 827.3"><defs><style>.cls-1{fill:#ff7500;}.cls-2,.cls-3{fill:#fff;}.cls-2{opacity:0.2;}.cls-4{fill:none;stroke:#fff;stroke-miterlimit:10;stroke-width:3px;}.cls-5{fill:#0076cf;}</style></defs><title>TF-ProgramTimeline-vertical</title><rect class="cls-1" x="-82.96" y="169.61" width="808.1" height="487.28" transform="translate(734.34 92.15) rotate(90)"/><rect class="cls-2" x="218.55" y="-132.34" width="205.22" height="487.28" transform="translate(432.45 -209.86) rotate(90)"/><rect class="cls-2" x="290.21" y="129.79" width="61.77" height="487.28" transform="translate(694.52 52.33) rotate(90)"/><path class="cls-3" d="M7.67,337.87h2.46v13.81A4.81,4.81,0,0,1,5,356.74a4.88,4.88,0,0,1-5.2-5.25H2.2c0,1.72.83,3.08,2.76,3.08a2.58,2.58,0,0,0,2.71-2.89Z"/><path class="cls-3" d="M21,341.63a6.1,6.1,0,0,1,5.47,2.92v-2.68h2.47v14.69H26.46v-2.74a6.15,6.15,0,0,1-5.5,3c-3.91,0-6.94-3.08-6.94-7.64S17.05,341.63,21,341.63Zm.48,2.11c-2.68,0-5,2-5,5.42s2.28,5.49,5,5.49,5-2,5-5.46S24.15,343.74,21.47,343.74Z"/><path class="cls-3" d="M43.8,348.25c0-3-1.63-4.53-4.1-4.53s-4.21,1.55-4.21,4.71v8.13H33.05V341.87h2.44V344a5.44,5.44,0,0,1,4.72-2.36c3.4,0,6,2.09,6,6.3v8.66H43.8Z"/><path class="cls-3" d="M51,356.72a1.67,1.67,0,1,1,1.6-1.66A1.62,1.62,0,0,1,51,356.72Z"/><path class="cls-3" d="M-.24,595.09H2.39l6.86,15.33,6.86-15.33h2.6v18.55H16.27V599.81l-6.16,13.83H8.39L2.2,599.78v13.86H-.24Z"/><path class="cls-3" d="M28.9,598.71a6.1,6.1,0,0,1,5.47,2.92V599h2.46v14.69H34.37V610.9a6.13,6.13,0,0,1-5.5,3c-3.91,0-6.94-3.08-6.94-7.64S25,598.71,28.9,598.71Zm.48,2.12c-2.68,0-5,1.95-5,5.41s2.28,5.5,5,5.5,5-2,5-5.47S32.06,600.83,29.38,600.83Z"/><path class="cls-3" d="M51.09,599h2.52l-8.84,21.61H42.25l2.89-7.08L39.22,599h2.7l4.61,11.9Z"/><path class="cls-3" d="M12,544.35H3.83l-1.5,4.15H-.24l6.75-18.57H9.33l6.73,18.57H13.49ZM7.91,532.93l-3.38,9.43h6.76Z"/><path class="cls-3" d="M26.94,533.57c3.94,0,7,2.95,7,7.53s-3,7.65-7,7.65a6.38,6.38,0,0,1-5.5-3v9.67H19V533.81h2.43v2.71A6.23,6.23,0,0,1,26.94,533.57Zm-.51,2.12c-2.65,0-5,2-5,5.44s2.34,5.47,5,5.47,5-2,5-5.5S29.14,535.69,26.43,535.69Z"/><path class="cls-3" d="M39.57,548.5H37.13V533.81h2.44v2.39a4.93,4.93,0,0,1,4.74-2.65v2.51h-.64c-2.33,0-4.1,1.05-4.1,4.46Z"/><path class="cls-3" d="M47.9,548.67a1.67,1.67,0,0,1,0-3.33,1.67,1.67,0,0,1,0,3.33Z"/><path class="cls-3" d="M7.67,663.48h2.47v13.81A4.81,4.81,0,0,1,5,682.35a4.88,4.88,0,0,1-5.2-5.25H2.2c0,1.71.83,3.08,2.76,3.08a2.58,2.58,0,0,0,2.71-2.89Z"/><path class="cls-3" d="M28,682.17H25.52V680a5.41,5.41,0,0,1-4.69,2.38c-3.38,0-6-2.09-6-6.3v-8.6h2.41v8.28c0,3,1.64,4.5,4.1,4.5s4.21-1.55,4.21-4.72v-8.06H28Z"/><path class="cls-3" d="M42.84,673.86c0-3-1.64-4.53-4.1-4.53s-4.21,1.55-4.21,4.71v8.13H32.09V667.48h2.44v2.09a5.41,5.41,0,0,1,4.72-2.36c3.4,0,6,2.09,6,6.3v8.66H42.84Z"/><path class="cls-3" d="M55.6,682.41c-4.18,0-7.27-2.95-7.27-7.62s3-7.56,7.27-7.56a6.74,6.74,0,0,1,7,7,14.17,14.17,0,0,1-.08,1.47H50.83a4.6,4.6,0,0,0,4.77,4.61,4,4,0,0,0,4.13-2.7h2.62A6.6,6.6,0,0,1,55.6,682.41Zm-4.75-8.66h9.28c0-2.87-2.12-4.45-4.64-4.45A4.55,4.55,0,0,0,50.85,673.75Z"/><path class="cls-3" d="M7.67,725.84h2.46v13.81A4.81,4.81,0,0,1,5,744.71a4.88,4.88,0,0,1-5.2-5.25H2.2c0,1.71.83,3.08,2.76,3.08a2.58,2.58,0,0,0,2.71-2.89Z"/><path class="cls-3" d="M28,744.53H25.52v-2.17a5.41,5.41,0,0,1-4.69,2.38c-3.38,0-6-2.09-6-6.3v-8.6h2.41v8.28c0,3,1.64,4.5,4.1,4.5s4.21-1.55,4.21-4.72v-8.06H28Z"/><path class="cls-3" d="M32.09,724.69h2.44v19.84H32.09Z"/><path class="cls-3" d="M48.81,729.84h2.53l-8.85,21.6H40l2.89-7.08-5.92-14.52h2.71l4.61,11.9Z"/><path class="cls-3" d="M12,804.7H3.84l-1.51,4.16H-.24l6.76-18.58H9.33l6.73,18.58H13.49ZM7.91,793.28l-3.38,9.44h6.76Z"/><path class="cls-3" d="M32,808.86H29.6v-2.17a5.43,5.43,0,0,1-4.7,2.38c-3.37,0-6-2.09-6-6.3v-8.6h2.42v8.28c0,3,1.63,4.5,4.1,4.5s4.21-1.55,4.21-4.71v-8.07H32Z"/><path class="cls-3" d="M42.22,793.93a6.06,6.06,0,0,1,5.47,2.92v-2.68h2.46v15c0,4.05-2.7,6.92-7,6.92-3.86,0-6.62-2-7.1-5.1h2.41c.54,1.77,2.28,3,4.69,3,2.6,0,4.56-1.66,4.56-4.8V806.1a6.15,6.15,0,0,1-5.47,3c-3.94,0-7-3.08-7-7.64S38.28,793.93,42.22,793.93ZM42.7,796c-2.68,0-5,2-5,5.42S40,807,42.7,807s5-2,5-5.47S45.38,796,42.7,796Z"/><path class="cls-3" d="M55.06,809a1.67,1.67,0,1,1,1.61-1.66A1.64,1.64,0,0,1,55.06,809Z"/><path class="cls-3" d="M12,23.24H3.84L2.33,27.4H-.24L6.52,8.82H9.33L16.06,27.4H13.49ZM7.91,11.82,4.53,21.26h6.76Z"/><path class="cls-3" d="M32,27.4H29.6V25.22a5.41,5.41,0,0,1-4.7,2.39c-3.37,0-6-2.09-6-6.3V12.7h2.42V21c0,3,1.63,4.5,4.1,4.5s4.21-1.55,4.21-4.72V12.7H32Z"/><path class="cls-3" d="M42.22,12.46a6,6,0,0,1,5.47,2.93V12.7h2.46v15c0,4-2.7,6.91-7,6.91-3.86,0-6.62-2-7.1-5.09h2.41c.54,1.77,2.28,3,4.69,3,2.6,0,4.56-1.67,4.56-4.8V24.64a6.15,6.15,0,0,1-5.47,3c-3.94,0-7-3.09-7-7.64S38.28,12.46,42.22,12.46Zm.48,2.12c-2.68,0-5,2-5,5.42s2.28,5.49,5,5.49,5-2,5-5.47S45.38,14.58,42.7,14.58Z"/><path class="cls-3" d="M55.06,27.56a1.67,1.67,0,1,1,1.61-1.67A1.64,1.64,0,0,1,55.06,27.56Z"/><path class="cls-3" d="M9.14,161.49a9.55,9.55,0,0,1,0-19.09,9.55,9.55,0,0,1,0,19.09Zm0-2.12c3.94,0,6.89-2.87,6.89-7.43s-3-7.42-6.89-7.42-6.89,2.84-6.89,7.42S5.2,159.37,9.14,159.37Z"/><path class="cls-3" d="M28,146.37c3.64,0,6,1.87,6.78,5H32.14a4,4,0,0,0-4.15-2.9c-2.68,0-4.67,1.9-4.67,5.5s2,5.55,4.67,5.55a3.93,3.93,0,0,0,4.15-2.9h2.63a6.54,6.54,0,0,1-6.78,5c-4.19,0-7.16-2.95-7.16-7.61S23.8,146.37,28,146.37Z"/><path class="cls-3" d="M38.55,148.62H36.64v-2h1.91v-3.7H41v3.7h3.83v2H41v8.66c0,1.45.53,2,2,2h1.8v2.06h-2.2c-2.6,0-4.07-1.07-4.07-4Z"/><path class="cls-3" d="M48.54,161.46a1.66,1.66,0,1,1,1.61-1.66A1.63,1.63,0,0,1,48.54,161.46Z"/><path class="cls-3" d="M14.45,207.62v18.71H12L2.2,211.45v14.88H-.24V207.62H2.2L12,222.47V207.62Z"/><path class="cls-3" d="M25,226.57c-4.15,0-7.32-2.95-7.32-7.62a7.19,7.19,0,0,1,7.43-7.56A7.17,7.17,0,0,1,32.54,219,7.29,7.29,0,0,1,25,226.57Zm0-2.15c2.55,0,5-1.74,5-5.47s-2.44-5.44-5-5.44-4.9,1.74-4.9,5.44S22.47,224.42,25,224.42Z"/><path class="cls-3" d="M36.65,211.64l4.58,12.43,4.56-12.43h2.6l-5.77,14.69H39.78L34,211.64Z"/><path class="cls-3" d="M51.58,226.49a1.67,1.67,0,1,1,0-3.33,1.67,1.67,0,0,1,0,3.33Z"/><path class="cls-3" d="M15.5,282.13c0,5.79-3.78,9.31-9.92,9.31H-.24V272.75H5.58C11.72,272.75,15.5,276.34,15.5,282.13Zm-9.92,7.29c4.88,0,7.42-2.73,7.42-7.29s-2.54-7.4-7.42-7.4H2.2v14.69Z"/><path class="cls-3" d="M25.06,291.68c-4.18,0-7.26-2.95-7.26-7.62s3-7.56,7.26-7.56a6.74,6.74,0,0,1,7.06,7A11.84,11.84,0,0,1,32,285H20.29a4.62,4.62,0,0,0,4.77,4.61,4,4,0,0,0,4.13-2.7h2.63A6.61,6.61,0,0,1,25.06,291.68ZM20.32,283H29.6A4.31,4.31,0,0,0,25,278.57,4.55,4.55,0,0,0,20.32,283Z"/><path class="cls-3" d="M41.58,276.5c3.64,0,6,1.88,6.78,5H45.73a4,4,0,0,0-4.15-2.89c-2.68,0-4.67,1.9-4.67,5.49s2,5.55,4.67,5.55a3.93,3.93,0,0,0,4.15-2.89h2.63a6.54,6.54,0,0,1-6.78,5c-4.19,0-7.16-2.95-7.16-7.62S37.39,276.5,41.58,276.5Z"/><path class="cls-3" d="M52.38,291.6A1.67,1.67,0,1,1,54,289.93,1.64,1.64,0,0,1,52.38,291.6Z"/><path class="cls-3" d="M-.24,403.57H10.32v2H2.2v6.3H8.79v2H2.2v8.42H-.24Z"/><path class="cls-3" d="M19.62,422.5c-4.18,0-7.26-2.95-7.26-7.62s3-7.56,7.26-7.56a6.74,6.74,0,0,1,7.06,7,11.84,11.84,0,0,1-.09,1.47H14.85a4.62,4.62,0,0,0,4.77,4.61,4,4,0,0,0,4.13-2.71h2.63A6.6,6.6,0,0,1,19.62,422.5Zm-4.74-8.66h9.27a4.3,4.3,0,0,0-4.63-4.45A4.55,4.55,0,0,0,14.88,413.84Z"/><path class="cls-3" d="M37.82,407.32c4,0,7,2.95,7,7.54s-3,7.64-7,7.64a6.12,6.12,0,0,1-5.49-2.95v2.71H29.89V402.42h2.44v7.88A6.21,6.21,0,0,1,37.82,407.32Zm-.5,2.12c-2.66,0-5,2-5,5.44s2.33,5.47,5,5.47,5-2,5-5.49S40,409.44,37.32,409.44Z"/><path class="cls-3" d="M48.79,422.42a1.67,1.67,0,1,1,1.61-1.67A1.65,1.65,0,0,1,48.79,422.42Z"/><path class="cls-3" d="M-.24,468.18H2.39l6.86,15.34,6.86-15.34h2.61v18.55H16.27V472.9l-6.16,13.83H8.39L2.2,472.87v13.86H-.24Z"/><path class="cls-3" d="M28.9,471.8a6.12,6.12,0,0,1,5.47,2.92V472h2.46v14.69H34.37V484a6.15,6.15,0,0,1-5.5,3c-3.91,0-6.94-3.09-6.94-7.65S25,471.8,28.9,471.8Zm.48,2.12c-2.68,0-5,2-5,5.41s2.28,5.5,5,5.5,5-2,5-5.47S32.06,473.92,29.38,473.92Z"/><path class="cls-3" d="M43.4,486.73H41V472H43.4v2.39a4.94,4.94,0,0,1,4.75-2.65v2.51H47.5c-2.33,0-4.1,1-4.1,4.45Z"/><path class="cls-3" d="M51.73,486.9a1.67,1.67,0,0,1,0-3.33,1.67,1.67,0,0,1,0,3.33Z"/><line class="cls-4" x1="77.5" y1="10.69" x2="77.5" y2="817.69"/><circle class="cls-3" cx="77.7" cy="8.59" r="8.59"/><circle class="cls-3" cx="77.42" cy="817.31" r="9.99"/><path class="cls-3" d="M177.25,118c-3.63,0-6.46-1.8-6.58-5.21H175a1.93,1.93,0,0,0,2.09,1.92c1.2,0,2-.6,2-1.58,0-3.12-8.43-1.44-8.38-7.42,0-3.19,2.62-5,6.14-5,3.68,0,6.15,1.83,6.32,5h-4.44a1.83,1.83,0,0,0-2-1.76,1.5,1.5,0,0,0-1.73,1.54c0,2.93,8.33,1.61,8.33,7.25C183.39,115.66,181.18,118,177.25,118Z"/><path class="cls-3" d="M185.53,100.85a2.45,2.45,0,1,1,2.45,2.21A2.27,2.27,0,0,1,185.53,100.85Zm.38,3.6H190v13.39h-4.11Z"/><path class="cls-3" d="M198.08,104.26a4.64,4.64,0,0,1,4.13,2.09v-1.9h4.1v13.37c0,3.58-2.06,6.62-6.69,6.62-4,0-6.58-2-6.94-5.2h4.06a2.52,2.52,0,0,0,2.68,1.65c1.56,0,2.79-.81,2.79-3.07v-1.9a4.74,4.74,0,0,1-4.13,2.12c-3.29,0-5.9-2.69-5.9-6.92S194.79,104.26,198.08,104.26Zm1.2,3.58a3,3,0,0,0-2.93,3.28,3,3,0,0,0,2.93,3.34,3.33,3.33,0,0,0,0-6.62Z"/><path class="cls-3" d="M218.53,110.57c0-1.82-1-2.83-2.57-2.83s-2.57,1-2.57,2.83v7.27h-4.1V104.45h4.1v1.78a4.92,4.92,0,0,1,4.06-1.92c3.09,0,5.16,2.11,5.16,5.71v7.82h-4.08Z"/><path class="cls-3" d="M243.78,117.84h-4.11V116a4.87,4.87,0,0,1-4,2c-3.1,0-5.19-2.14-5.19-5.71v-7.83h4.08v7.27c0,1.83,1,2.84,2.57,2.84s2.59-1,2.59-2.84v-7.27h4.11Z"/><path class="cls-3" d="M255,104.26c3.29,0,5.9,2.64,5.9,6.86S258.25,118,255,118a4.83,4.83,0,0,1-4.13-2.07v8.26h-4.1V104.45h4.1v1.9A4.72,4.72,0,0,1,255,104.26Zm-1.22,3.58a3.33,3.33,0,0,0,0,6.62,3,3,0,0,0,2.95-3.34A3,3,0,0,0,253.74,107.84Z"/><path class="cls-3" d="M276.2,105.07a1.18,1.18,0,0,0-1.25-1.34,1.22,1.22,0,0,0-1.34,1.2,3.7,3.7,0,0,0,1.34,2.33l4.11,4c.09-.22.21-.43.31-.68l.89-1.51h4.1l-1.15,2.09a18.78,18.78,0,0,1-1.49,2.69l4.06,4H281l-1.56-1.51a8.82,8.82,0,0,1-5.57,1.78c-3.91,0-6.38-2-6.38-5.16a5.37,5.37,0,0,1,3.43-5,4.37,4.37,0,0,1-1.18-3c0-2.38,1.9-4.3,5.26-4.3s5.14,2.09,5.06,4.41Zm.72,8.81-3.75-3.62a2.73,2.73,0,0,0-1.72,2.4c0,1.18,1,2.14,2.61,2.14A4.68,4.68,0,0,0,276.92,113.88Z"/><path class="cls-3" d="M298.45,118c-3.63,0-6.46-1.8-6.58-5.21h4.37a1.93,1.93,0,0,0,2.09,1.92c1.2,0,2-.6,2-1.58,0-3.12-8.42-1.44-8.37-7.42,0-3.19,2.61-5,6.14-5s6.15,1.83,6.31,5h-4.44A1.83,1.83,0,0,0,298,104a1.5,1.5,0,0,0-1.73,1.54c0,2.93,8.33,1.61,8.33,7.25C304.59,115.66,302.38,118,298.45,118Z"/><path class="cls-3" d="M313.06,118a6.46,6.46,0,0,1-6.77-6.89c0-4.25,2.79-6.89,6.77-6.89a6.31,6.31,0,0,1,6.67,6.67,9.89,9.89,0,0,1-.07,1.2h-9.29a2.49,2.49,0,0,0,2.55,2.57,2.17,2.17,0,0,0,2.13-1.3h4.37A6.26,6.26,0,0,1,313.06,118Zm-2.66-8.19h5.13a2.31,2.31,0,0,0-2.52-2.3A2.53,2.53,0,0,0,310.4,109.85Z"/><path class="cls-3" d="M327,104.26a4.66,4.66,0,0,1,4.13,2.09v-1.9h4.1v13.39h-4.1V116A4.74,4.74,0,0,1,327,118c-3.27,0-5.88-2.69-5.88-6.92S323.69,104.26,327,104.26Zm1.2,3.58a3,3,0,0,0-2.93,3.28,3,3,0,0,0,2.93,3.34,3.33,3.33,0,0,0,0-6.62Z"/><path class="cls-3" d="M343.64,118c-3.58,0-6-2-6.17-4.59h4.06a1.87,1.87,0,0,0,2.06,1.56c1.06,0,1.61-.48,1.61-1.08,0-2.16-7.3-.6-7.3-5.52,0-2.28,2-4.15,5.45-4.15s5.38,1.92,5.64,4.56H345.2a1.77,1.77,0,0,0-2-1.51c-1,0-1.49.38-1.49,1,0,2.14,7.25.62,7.32,5.62C349.06,116.28,347,118,343.64,118Z"/><path class="cls-3" d="M357.68,118a6.89,6.89,0,1,1,7-6.89A6.65,6.65,0,0,1,357.68,118Zm0-3.56c1.46,0,2.83-1.08,2.83-3.33s-1.34-3.34-2.78-3.34-2.79,1.06-2.79,3.34S356.19,114.48,357.68,114.48Z"/><path class="cls-3" d="M376.11,110.57c0-1.82-1-2.83-2.57-2.83s-2.57,1-2.57,2.83v7.27h-4.1V104.45H371v1.78a4.92,4.92,0,0,1,4.06-1.92c3.1,0,5.16,2.11,5.16,5.71v7.82h-4.08Z"/><path class="cls-3" d="M396.37,104.26c3.31,0,5.9,2.64,5.9,6.86s-2.62,6.92-5.9,6.92a4.7,4.7,0,0,1-4.13-2.07v1.87h-4.11V100.08h4.11v6.27A4.73,4.73,0,0,1,396.37,104.26Zm-1.23,3.58a3.33,3.33,0,1,0,2.95,3.28A3,3,0,0,0,395.14,107.84Z"/><path class="cls-3" d="M410.38,118c-3.94,0-6.77-2.64-6.77-6.89s2.79-6.89,6.77-6.89a6.31,6.31,0,0,1,6.67,6.67,9.89,9.89,0,0,1-.07,1.2h-9.29a2.49,2.49,0,0,0,2.55,2.57,2.17,2.17,0,0,0,2.13-1.3h4.37A6.26,6.26,0,0,1,410.38,118Zm-2.66-8.19h5.13a2.31,2.31,0,0,0-2.52-2.3A2.53,2.53,0,0,0,407.72,109.85Z"/><path class="cls-3" d="M424.3,104.26a4.64,4.64,0,0,1,4.13,2.09v-1.9h4.1v13.37c0,3.58-2.06,6.62-6.69,6.62-4,0-6.58-2-6.94-5.2H423a2.52,2.52,0,0,0,2.68,1.65c1.56,0,2.79-.81,2.79-3.07v-1.9A4.73,4.73,0,0,1,424.3,118c-3.29,0-5.9-2.69-5.9-6.92S421,104.26,424.3,104.26Zm1.2,3.58a3,3,0,0,0-2.93,3.28,3,3,0,0,0,2.93,3.34,3.33,3.33,0,0,0,0-6.62Z"/><path class="cls-3" d="M435.12,100.85a2.45,2.45,0,1,1,2.45,2.21A2.27,2.27,0,0,1,435.12,100.85Zm.39,3.6h4.1v13.39h-4.1Z"/><path class="cls-3" d="M451.83,110.57c0-1.82-1-2.83-2.57-2.83s-2.57,1-2.57,2.83v7.27h-4.1V104.45h4.1v1.78a4.92,4.92,0,0,1,4.06-1.92c3.1,0,5.16,2.11,5.16,5.71v7.82h-4.08Z"/><path class="cls-3" d="M464.21,118c-3.57,0-6-2-6.17-4.59h4.06a1.88,1.88,0,0,0,2.06,1.56c1.06,0,1.61-.48,1.61-1.08,0-2.16-7.29-.6-7.29-5.52,0-2.28,1.94-4.15,5.44-4.15s5.38,1.92,5.64,4.56h-3.79a1.76,1.76,0,0,0-2-1.51c-1,0-1.48.38-1.48,1,0,2.14,7.24.62,7.32,5.62C469.64,116.28,467.57,118,464.21,118Z"/><path class="cls-3" d="M277.43,363h4.11v11.48c0,3.62-2.21,5.54-5.55,5.54s-5.88-2-5.88-5.81h4.08c0,1.44.63,2.14,1.68,2.14s1.56-.62,1.56-1.87Z"/><path class="cls-3" d="M298.08,379.84H294V378a4.89,4.89,0,0,1-4.06,2c-3.09,0-5.18-2.14-5.18-5.71v-7.83h4.08v7.27c0,1.83,1,2.84,2.57,2.84s2.59-1,2.59-2.84v-7.27h4.11Z"/><path class="cls-3" d="M306.11,366.26a4.89,4.89,0,0,1,4.13,2v-6.22h4.11v17.76h-4.11v-1.92a4.62,4.62,0,0,1-4.13,2.12c-3.28,0-5.9-2.69-5.9-6.92S302.83,366.26,306.11,366.26Zm1.2,3.58a3,3,0,0,0-2.92,3.28,3,3,0,0,0,2.92,3.34,3.33,3.33,0,0,0,0-6.62Z"/><path class="cls-3" d="M322.41,366.26a4.64,4.64,0,0,1,4.13,2.09v-1.9h4.1v13.37c0,3.58-2.06,6.62-6.69,6.62-4,0-6.58-2-6.94-5.2h4.06a2.52,2.52,0,0,0,2.68,1.65c1.56,0,2.79-.81,2.79-3.07v-1.9a4.74,4.74,0,0,1-4.13,2.12c-3.29,0-5.9-2.69-5.9-6.92S319.12,366.26,322.41,366.26Zm1.2,3.58a3,3,0,0,0-2.93,3.28,3,3,0,0,0,2.93,3.34,3.33,3.33,0,0,0,0-6.62Z"/><path class="cls-3" d="M333.23,362.85a2.45,2.45,0,1,1,2.45,2.21A2.27,2.27,0,0,1,333.23,362.85Zm.39,3.6h4.1v13.39h-4.1Z"/><path class="cls-3" d="M349.94,372.57c0-1.82-1-2.83-2.57-2.83s-2.57,1-2.57,2.83v7.27h-4.1V366.45h4.1v1.78a4.92,4.92,0,0,1,4.06-1.92c3.09,0,5.16,2.11,5.16,5.71v7.82h-4.08Z"/><path class="cls-3" d="M362,366.26a4.64,4.64,0,0,1,4.13,2.09v-1.9h4.1v13.37c0,3.58-2.06,6.62-6.69,6.62-4,0-6.58-2-6.94-5.2h4.06a2.53,2.53,0,0,0,2.69,1.65c1.56,0,2.78-.81,2.78-3.07v-1.9A4.73,4.73,0,0,1,362,380c-3.29,0-5.9-2.69-5.9-6.92S358.67,366.26,362,366.26Zm1.2,3.58a3,3,0,0,0-2.93,3.28,3,3,0,0,0,2.93,3.34,3.33,3.33,0,0,0,0-6.62Z"/><path class="cls-3" d="M259.52,549a8.63,8.63,0,1,1,8.62-8.64A8.48,8.48,0,0,1,259.52,549Zm0-3.74c2.69,0,4.44-1.95,4.44-4.9s-1.75-4.9-4.44-4.9-4.46,1.9-4.46,4.9S256.78,545.27,259.52,545.27Z"/><path class="cls-3" d="M270.82,538.86h-1.49v-3.41h1.49v-.38c0-3.51,2.16-5.24,6.24-5v3.48c-1.58-.1-2.13.38-2.13,1.8v.12h2.21v3.41h-2.21v10h-4.11Z"/><path class="cls-3" d="M279.46,538.86H278v-3.41h1.49v-.38c0-3.51,2.16-5.24,6.24-5v3.48c-1.58-.1-2.13.38-2.13,1.8v.12h2.21v3.41h-2.21v10h-4.11Z"/><path class="cls-3" d="M287.45,538.71H298v3.41H287.45Z"/><path class="cls-3" d="M307.71,549c-3.62,0-6.46-1.8-6.58-5.21h4.37a1.93,1.93,0,0,0,2.09,1.92c1.2,0,2-.6,2-1.58,0-3.12-8.43-1.44-8.38-7.42,0-3.19,2.62-5,6.15-5s6.14,1.83,6.31,5H309.2a1.83,1.83,0,0,0-1.95-1.76,1.49,1.49,0,0,0-1.72,1.54c0,2.93,8.32,1.61,8.32,7.25C313.85,546.66,311.65,549,307.71,549Z"/><path class="cls-3" d="M322.33,549c-3.94,0-6.77-2.64-6.77-6.89s2.78-6.89,6.77-6.89a6.31,6.31,0,0,1,6.67,6.67c0,.39,0,.79-.07,1.2h-9.29a2.48,2.48,0,0,0,2.54,2.57,2.2,2.2,0,0,0,2.14-1.3h4.37A6.27,6.27,0,0,1,322.33,549Zm-2.67-8.19h5.14a2.31,2.31,0,0,0-2.52-2.3A2.53,2.53,0,0,0,319.66,540.85Z"/><path class="cls-3" d="M336.25,535.26a4.64,4.64,0,0,1,4.12,2.09v-1.9h4.11v13.39h-4.11V547a4.74,4.74,0,0,1-4.15,2.09c-3.26,0-5.88-2.69-5.88-6.92S333,535.26,336.25,535.26Zm1.2,3.58a3,3,0,0,0-2.93,3.28,3,3,0,0,0,2.93,3.34,3,3,0,0,0,2.92-3.31C340.37,540,339,538.84,337.45,538.84Z"/><path class="cls-3" d="M352.9,549c-3.57,0-6-2-6.17-4.59h4.06a1.88,1.88,0,0,0,2.06,1.56c1.06,0,1.61-.48,1.61-1.08,0-2.16-7.29-.6-7.29-5.52,0-2.28,1.94-4.15,5.44-4.15s5.38,1.92,5.64,4.56h-3.79a1.76,1.76,0,0,0-2-1.51c-1,0-1.48.38-1.48,1,0,2.14,7.24.62,7.32,5.62C358.33,547.28,356.26,549,352.9,549Z"/><path class="cls-3" d="M366.94,549a6.89,6.89,0,1,1,7-6.89A6.64,6.64,0,0,1,366.94,549Zm0-3.56c1.47,0,2.83-1.08,2.83-3.33s-1.34-3.34-2.78-3.34-2.78,1.06-2.78,3.34S365.45,545.48,366.94,545.48Z"/><path class="cls-3" d="M385.37,541.57c0-1.82-1-2.83-2.56-2.83s-2.57,1-2.57,2.83v7.27h-4.11V535.45h4.11v1.78a4.89,4.89,0,0,1,4.05-1.92c3.1,0,5.16,2.11,5.16,5.71v7.82h-4.08Z"/><path class="cls-3" d="M248.53,291.65c-3.63,0-6.46-1.8-6.58-5.21h4.37a1.93,1.93,0,0,0,2.09,1.92c1.2,0,2-.6,2-1.58,0-3.12-8.43-1.44-8.38-7.42,0-3.19,2.61-5,6.14-5,3.68,0,6.15,1.83,6.32,5.05H250a1.84,1.84,0,0,0-2-1.76,1.5,1.5,0,0,0-1.73,1.54c0,2.93,8.33,1.61,8.33,7.25C254.67,289.3,252.46,291.65,248.53,291.65Z"/><path class="cls-3" d="M270.42,291.48h-4.11v-1.82a4.87,4.87,0,0,1-4.06,2c-3.09,0-5.18-2.14-5.18-5.71v-7.83h4.08v7.27c0,1.83,1,2.84,2.57,2.84s2.59-1,2.59-2.84v-7.27h4.11Z"/><path class="cls-3" d="M281.6,277.9c3.31,0,5.9,2.64,5.9,6.86s-2.61,6.92-5.9,6.92a4.7,4.7,0,0,1-4.13-2.07v1.87h-4.1V273.72h4.1V280A4.73,4.73,0,0,1,281.6,277.9Zm-1.23,3.58a3.34,3.34,0,0,0,0,6.62,3,3,0,0,0,3-3.34A3,3,0,0,0,280.37,281.48Z"/><path class="cls-3" d="M308.12,284.21a2.57,2.57,0,1,0-5.14,0v7.27H298.9v-7.27a2.57,2.57,0,1,0-5.13,0v7.27h-4.11V278.09h4.11v1.68a4.72,4.72,0,0,1,3.91-1.82,5,5,0,0,1,4.56,2.49,5.4,5.4,0,0,1,4.51-2.49c3.31,0,5.45,2.11,5.45,5.71v7.82h-4.08Z"/><path class="cls-3" d="M314.69,274.49a2.45,2.45,0,1,1,2.45,2.21A2.27,2.27,0,0,1,314.69,274.49Zm.39,3.6h4.1v13.39h-4.1Z"/><path class="cls-3" d="M327.61,291.68c-3.58,0-6-2-6.17-4.59h4.05a1.88,1.88,0,0,0,2.07,1.56c1.05,0,1.61-.48,1.61-1.08,0-2.16-7.3-.6-7.3-5.52,0-2.28,1.94-4.15,5.45-4.15s5.37,1.92,5.64,4.56h-3.79a1.77,1.77,0,0,0-2-1.51c-1,0-1.49.38-1.49,1,0,2.14,7.25.62,7.32,5.62C333,289.92,331,291.68,327.61,291.68Z"/><path class="cls-3" d="M341,291.68c-3.58,0-6-2-6.17-4.59h4.06a1.87,1.87,0,0,0,2.06,1.56c1.06,0,1.61-.48,1.61-1.08,0-2.16-7.3-.6-7.3-5.52,0-2.28,1.95-4.15,5.45-4.15s5.38,1.92,5.64,4.56h-3.79a1.77,1.77,0,0,0-2-1.51c-1,0-1.49.38-1.49,1,0,2.14,7.25.62,7.32,5.62C346.42,289.92,344.36,291.68,341,291.68Z"/><path class="cls-3" d="M348.56,274.49A2.45,2.45,0,1,1,351,276.7,2.27,2.27,0,0,1,348.56,274.49Zm.38,3.6h4.11v13.39h-4.11Z"/><path class="cls-3" d="M362.12,291.68a6.89,6.89,0,1,1,7-6.89A6.65,6.65,0,0,1,362.12,291.68Zm0-3.56c1.46,0,2.83-1.08,2.83-3.33s-1.34-3.34-2.78-3.34-2.79,1.06-2.79,3.34S360.63,288.12,362.12,288.12Z"/><path class="cls-3" d="M380.55,284.21c0-1.82-1-2.83-2.57-2.83s-2.57,1-2.57,2.83v7.27h-4.1V278.09h4.1v1.78a4.92,4.92,0,0,1,4.06-1.92c3.1,0,5.16,2.11,5.16,5.71v7.82h-4.08Z"/><path class="cls-3" d="M392.93,291.68c-3.57,0-6-2-6.16-4.59h4.05a1.88,1.88,0,0,0,2.07,1.56c1.05,0,1.6-.48,1.6-1.08,0-2.16-7.29-.6-7.29-5.52,0-2.28,1.94-4.15,5.45-4.15s5.37,1.92,5.64,4.56h-3.8a1.76,1.76,0,0,0-2-1.51c-1,0-1.49.38-1.49,1,0,2.14,7.25.62,7.32,5.62C398.36,289.92,396.29,291.68,392.93,291.68Z"/><path class="cls-3" d="M6.29,93.08C2.5,93.08-.19,91-.24,87.85H2.39C2.55,89.42,3.67,91,6.29,91c2.39,0,3.8-1.36,3.8-3.15C10.09,82.75-.13,86-.13,79c0-3.12,2.52-5.24,6.26-5.24s6,2,6.26,4.86H9.68C9.52,77.33,8.33,75.9,6,75.87c-2-.06-3.63,1-3.63,3,0,4.88,10.19,1.85,10.19,8.84C12.58,90.43,10.39,93.08,6.29,93.08Z"/><path class="cls-3" d="M22.64,93.14c-4.23,0-7.35-3-7.35-7.7s3-7.65,7.35-7.65a6.81,6.81,0,0,1,7.13,7.11,14.56,14.56,0,0,1-.08,1.49H17.82a4.66,4.66,0,0,0,4.82,4.66,4.1,4.1,0,0,0,4.18-2.74h2.65A6.68,6.68,0,0,1,22.64,93.14Zm-4.8-8.76h9.38c0-2.9-2.14-4.5-4.69-4.5A4.6,4.6,0,0,0,17.84,84.38Z"/><path class="cls-3" d="M41.05,77.79c4,0,7.05,3,7.05,7.62S45,93.14,41.05,93.14a6.45,6.45,0,0,1-5.56-3v9.78H33V78h2.47v2.74A6.26,6.26,0,0,1,41.05,77.79Zm-.52,2.14c-2.68,0-5,2.07-5,5.51s2.36,5.53,5,5.53,5-2.06,5-5.56S43.27,79.93,40.53,79.93Z"/><path class="cls-3" d="M52.13,93.06a1.69,1.69,0,1,1,1.63-1.68A1.65,1.65,0,0,1,52.13,93.06Z"/><rect class="cls-3" x="303.19" y="556.5" width="35.62" height="488" transform="translate(1121.5 479.5) rotate(90)"/><path class="cls-5" d="M231.92,792.85h4.39l2.43,12.27,3-12.27h4.51l2.88,12.27,2.45-12.27H256L251.6,809.7h-5l-2.69-11.09-2.78,11.09h-5Z"/><path class="cls-5" d="M264.15,809.89a6.89,6.89,0,1,1,7-6.89A6.64,6.64,0,0,1,264.15,809.89Zm0-3.55c1.47,0,2.83-1.08,2.83-3.34s-1.34-3.33-2.78-3.33-2.78,1.05-2.78,3.33S262.66,806.34,264.15,806.34Z"/><path class="cls-5" d="M277.45,809.7h-4.11V796.31h4.11v2.23a5,5,0,0,1,4.2-2.38v4.35h-1.13c-1.94,0-3.07.67-3.07,3Z"/><path class="cls-5" d="M283.61,791.94h4.11V809.7h-4.11Z"/><path class="cls-5" d="M295.78,796.11a4.92,4.92,0,0,1,4.13,2v-6.21H304V809.7h-4.11v-1.92a4.64,4.64,0,0,1-4.13,2.11c-3.29,0-5.9-2.69-5.9-6.91S292.49,796.11,295.78,796.11Zm1.2,3.58a3,3,0,0,0-2.92,3.29,2.95,2.95,0,1,0,2.92-3.29Z"/><path class="cls-5" d="M318.17,809.87c-3.62,0-6.45-1.8-6.57-5.21H316a1.93,1.93,0,0,0,2.09,1.92c1.19,0,2-.6,2-1.58,0-3.12-8.42-1.45-8.37-7.42,0-3.19,2.61-5,6.14-5s6.15,1.82,6.31,5h-4.44a1.82,1.82,0,0,0-1.94-1.75,1.49,1.49,0,0,0-1.73,1.53c0,2.93,8.33,1.61,8.33,7.25C324.32,807.51,322.11,809.87,318.17,809.87Z"/><path class="cls-5" d="M340.06,809.7H336v-1.82a4.89,4.89,0,0,1-4.06,2c-3.09,0-5.18-2.13-5.18-5.71v-7.82h4.08v7.27c0,1.82,1,2.83,2.57,2.83s2.59-1,2.59-2.83v-7.27h4.1Z"/><path class="cls-5" d="M361.47,802.43a2.57,2.57,0,1,0-5.14,0v7.27h-4.08v-7.27a2.57,2.57,0,1,0-5.13,0v7.27H343V796.31h4.11V798a4.72,4.72,0,0,1,3.91-1.83,5,5,0,0,1,4.56,2.5,5.39,5.39,0,0,1,4.51-2.5c3.32,0,5.45,2.11,5.45,5.72v7.82h-4.08Z"/><path class="cls-5" d="M386.89,802.43a2.57,2.57,0,1,0-5.14,0v7.27h-4.08v-7.27a2.57,2.57,0,1,0-5.14,0v7.27h-4.1V796.31h4.1V798a4.74,4.74,0,0,1,3.92-1.83,5,5,0,0,1,4.56,2.5,5.36,5.36,0,0,1,4.51-2.5c3.31,0,5.45,2.11,5.45,5.72v7.82h-4.08Z"/><path class="cls-5" d="M393.46,792.71a2.44,2.44,0,0,1,4.87,0,2.45,2.45,0,0,1-4.87,0Zm.39,3.6H398V809.7h-4.1Z"/><path class="cls-5" d="M401.57,799.71h-1.63v-3.4h1.63V793h4.11v3.27h2.69v3.4h-2.69v5.38c0,.79.33,1.13,1.25,1.13h1.46v3.48H406.3c-2.78,0-4.73-1.18-4.73-4.66Z"/></svg>