<svg id="Layer_1" data-name="Layer 1" xmlns="http://www.w3.org/2000/svg" xmlns:xlink="http://www.w3.org/1999/xlink" viewBox="0 0 1922 782"><defs><style>.cls-1{fill:none;}.cls-2{opacity:0.15;}.cls-3{clip-path:url(#clip-path);}.cls-4{fill:#fff;}.cls-5{fill:#0076cf;}.cls-6{clip-path:url(#clip-path-2);}.cls-7{clip-path:url(#clip-path-3);}.cls-8{clip-path:url(#clip-path-4);}.cls-9{opacity:0.2;}.cls-10{clip-path:url(#clip-path-5);}</style><clipPath id="clip-path"><rect class="cls-1" y="884" width="1922" height="782"/></clipPath><clipPath id="clip-path-2"><rect class="cls-1" width="1922" height="782"/></clipPath><clipPath id="clip-path-3"><rect class="cls-1" y="-923" width="1922" height="782"/></clipPath><clipPath id="clip-path-4"><rect class="cls-1" x="2252" y="530" width="1922" height="1490"/></clipPath><clipPath id="clip-path-5"><rect class="cls-1" x="2252" y="-1099" width="1922" height="1490"/></clipPath></defs><title>Background-DotsB</title><g class="cls-2"><g class="cls-3"><circle class="cls-4" cx="97.4" cy="87.41" r="106.9"/><circle class="cls-4" cx="408.18" cy="87.41" r="106.9"/><circle class="cls-4" cx="718.95" cy="87.41" r="106.9"/><circle class="cls-4" cx="1029.73" cy="87.41" r="106.9"/><circle class="cls-4" cx="1340.51" cy="87.41" r="106.9"/><circle class="cls-4" cx="1649.75" cy="87.41" r="106.9"/><circle class="cls-4" cx="97.4" cy="409.88" r="106.9"/><circle class="cls-4" cx="420.18" cy="421.87" r="118.9"/><circle class="cls-4" cx="765.82" cy="421.87" r="118.9"/><circle class="cls-4" cx="1111.47" cy="421.87" r="118.9"/><circle class="cls-4" cx="1457.12" cy="421.87" r="118.9"/><circle class="cls-4" cx="1803.58" cy="421.87" r="118.9"/><circle class="cls-4" cx="97.4" cy="732.34" r="106.9"/><circle class="cls-4" cx="420.18" cy="780.52" r="118.9"/><circle class="cls-4" cx="789.71" cy="804.41" r="142.79"/><circle class="cls-4" cx="1204.79" cy="804.41" r="142.79"/><circle class="cls-4" cx="1619.87" cy="804.41" r="142.79"/><path class="cls-4" d="M1926.54,710.35a142.65,142.65,0,0,0,0,188.11Z"/><path class="cls-4" d="M1926.54-14.36a106.92,106.92,0,0,0,0,203.54Z"/></g></g><rect class="cls-5" x="2" y="0.2" width="1920" height="781.8"/><g class="cls-2"><g class="cls-6"><circle class="cls-4" cx="420.18" cy="-103.48" r="118.9"/><circle class="cls-4" cx="789.71" cy="-79.59" r="142.79"/><circle class="cls-4" cx="1204.79" cy="-79.59" r="142.79"/><circle class="cls-4" cx="1619.87" cy="-79.59" r="142.79"/><circle class="cls-4" cx="97.4" cy="170.81" r="106.9"/><circle class="cls-4" cx="420.18" cy="255.17" r="118.9"/><circle class="cls-4" cx="789.71" cy="351.1" r="142.79"/><circle class="cls-4" cx="1243.69" cy="390" r="181.68"/><circle class="cls-4" cx="97.4" cy="493.27" r="106.9"/><circle class="cls-4" cx="97.4" cy="813.06" r="106.9"/><circle class="cls-4" cx="420.18" cy="613.82" r="118.9"/><circle class="cls-4" cx="789.71" cy="781.8" r="142.79"/><path class="cls-4" d="M1141.44,1088.68h204.49a181.68,181.68,0,1,0-204.49,0Z"/><path class="cls-4" d="M1922.15,756.34c-183.37.1-332,148.79-332,332.18v.16h332Z"/><path class="cls-4" d="M1928.74,298.45a181.69,181.69,0,1,0,0,183.09Z"/><path class="cls-4" d="M1926.54-173.65a142.23,142.23,0,0,0-35.4,94.06,142.23,142.23,0,0,0,35.4,94.05Z"/></g></g><g class="cls-2"><g class="cls-7"><circle class="cls-4" cx="420.18" cy="50.95" r="118.9"/><circle class="cls-4" cx="789.71" cy="-141.2" r="142.79"/><path class="cls-4" d="M193.18,165.68a106.9,106.9,0,0,0-191.55,0Z"/><path class="cls-4" d="M860,165.68a142.7,142.7,0,0,0-140.57,0Z"/><path class="cls-4" d="M1141.44,165.68h204.49a181.68,181.68,0,1,0-204.49,0Z"/><path class="cls-4" d="M1922.15-166.66c-183.37.1-332,148.79-332,332.18v.16h332Z"/></g></g><g class="cls-8"><g class="cls-9"><polygon class="cls-4" points="3633.89 529.59 1954.87 2336.08 1921.84 2336.08 3600.87 529.59 3633.89 529.59"/><polygon class="cls-4" points="3545.67 529.59 1866.64 2336.08 1833.61 2336.08 3512.64 529.59 3545.67 529.59"/><polygon class="cls-4" points="3457.44 529.59 1778.41 2336.08 1745.39 2336.08 3424.41 529.59 3457.44 529.59"/><polygon class="cls-4" points="3016.3 529.59 1717.73 1926.74 1717.73 1891.2 2983.28 529.59 3016.3 529.59"/><polygon class="cls-4" points="2928.07 529.59 1717.73 1831.81 1717.73 1796.28 2895.05 529.59 2928.07 529.59"/><polygon class="cls-4" points="2839.85 529.59 1717.73 1736.89 1717.73 1701.35 2806.82 529.59 2839.85 529.59"/><polygon class="cls-4" points="3104.53 529.59 1717.73 2021.66 1717.73 1986.13 3071.5 529.59 3104.53 529.59"/><polygon class="cls-4" points="3192.76 529.59 1717.73 2116.59 1717.73 2081.05 3159.73 529.59 3192.76 529.59"/><polygon class="cls-4" points="3280.98 529.59 1717.73 2211.51 1717.73 2175.98 3247.96 529.59 3280.98 529.59"/><polygon class="cls-4" points="3369.21 529.59 1717.73 2306.44 1717.73 2270.9 3336.18 529.59 3369.21 529.59"/><polygon class="cls-4" points="2392.07 529.59 1717.73 1255.12 1717.73 1219.59 2359.05 529.59 2392.07 529.59"/><polygon class="cls-4" points="2303.84 529.59 1717.73 1160.19 1717.73 1124.66 2270.82 529.59 2303.84 529.59"/><polygon class="cls-4" points="2215.62 529.59 1717.73 1065.27 1717.73 1029.74 2182.59 529.59 2215.62 529.59"/><polygon class="cls-4" points="2480.3 529.59 1717.73 1350.05 1717.73 1314.51 2447.27 529.59 2480.3 529.59"/><polygon class="cls-4" points="2568.53 529.59 1717.73 1444.97 1717.73 1409.44 2535.5 529.59 2568.53 529.59"/><polygon class="cls-4" points="2656.75 529.59 1717.73 1539.89 1717.73 1504.36 2623.73 529.59 2656.75 529.59"/><polygon class="cls-4" points="2744.98 529.59 1717.73 1634.82 1717.73 1599.29 2711.96 529.59 2744.98 529.59"/><polygon class="cls-4" points="1741.46 529.59 1774.48 529.59 1717.73 590.64 1717.73 555.11 1741.46 529.59"/><polygon class="cls-4" points="1862.71 529.59 1717.73 685.57 1717.73 650.04 1829.68 529.59 1862.71 529.59"/><polygon class="cls-4" points="1950.94 529.59 1717.73 780.5 1717.73 744.96 1917.91 529.59 1950.94 529.59"/><polygon class="cls-4" points="2039.16 529.59 1717.73 875.42 1717.73 839.89 2006.14 529.59 2039.16 529.59"/><polygon class="cls-4" points="2127.39 529.59 1717.73 970.35 1717.73 934.81 2094.36 529.59 2127.39 529.59"/></g></g><g class="cls-10"><g class="cls-9"><polygon class="cls-4" points="3633.89 -1099.41 1954.87 707.08 1921.84 707.08 3600.87 -1099.41 3633.89 -1099.41"/><polygon class="cls-4" points="3545.67 -1099.41 1866.64 707.08 1833.61 707.08 3512.64 -1099.41 3545.67 -1099.41"/><polygon class="cls-4" points="3457.44 -1099.41 1778.41 707.08 1745.39 707.08 3424.41 -1099.41 3457.44 -1099.41"/><polygon class="cls-4" points="3016.3 -1099.41 1717.73 297.74 1717.73 262.2 2983.28 -1099.41 3016.3 -1099.41"/><polygon class="cls-4" points="2928.07 -1099.41 1717.73 202.81 1717.73 167.28 2895.05 -1099.41 2928.07 -1099.41"/><polygon class="cls-4" points="2839.85 -1099.41 1717.73 107.89 1717.73 72.35 2806.82 -1099.41 2839.85 -1099.41"/><polygon class="cls-4" points="3104.53 -1099.41 1717.73 392.66 1717.73 357.13 3071.5 -1099.41 3104.53 -1099.41"/><polygon class="cls-4" points="3192.76 -1099.41 1717.73 487.59 1717.73 452.05 3159.73 -1099.41 3192.76 -1099.41"/><polygon class="cls-4" points="3280.98 -1099.41 1717.73 582.51 1717.73 546.98 3247.96 -1099.41 3280.98 -1099.41"/><polygon class="cls-4" points="3369.21 -1099.41 1717.73 677.44 1717.73 641.9 3336.18 -1099.41 3369.21 -1099.41"/><polygon class="cls-4" points="2744.98 -1099.41 1717.73 5.82 1717.73 -29.71 2711.96 -1099.41 2744.98 -1099.41"/></g></g></svg>