<svg id="Layer_1" data-name="Layer 1" xmlns="http://www.w3.org/2000/svg" xmlns:xlink="http://www.w3.org/1999/xlink" viewBox="0 0 1922 782"><defs><style>.cls-1{fill:none;}.cls-2{opacity:0.15;}.cls-3{clip-path:url(#clip-path);}.cls-4{fill:#fff;}.cls-5{fill:#5bc2e7;}.cls-6{clip-path:url(#clip-path-2);}.cls-7{clip-path:url(#clip-path-3);}.cls-8{opacity:0.2;}</style><clipPath id="clip-path"><rect class="cls-1" y="891" width="1922" height="782"/></clipPath><clipPath id="clip-path-2"><rect class="cls-1" width="1922" height="782"/></clipPath><clipPath id="clip-path-3"><rect class="cls-1" x="2252" width="1922" height="1490"/></clipPath></defs><title>Background-DotsLB</title><g class="cls-2"><g class="cls-3"><circle class="cls-4" cx="97.4" cy="94.41" r="106.9"/><circle class="cls-4" cx="408.18" cy="94.41" r="106.9"/><circle class="cls-4" cx="718.95" cy="94.41" r="106.9"/><circle class="cls-4" cx="1029.73" cy="94.41" r="106.9"/><circle class="cls-4" cx="1340.51" cy="94.41" r="106.9"/><circle class="cls-4" cx="1649.75" cy="94.41" r="106.9"/><circle class="cls-4" cx="97.4" cy="416.88" r="106.9"/><circle class="cls-4" cx="420.18" cy="428.87" r="118.9"/><circle class="cls-4" cx="765.82" cy="428.87" r="118.9"/><circle class="cls-4" cx="1111.47" cy="428.87" r="118.9"/><circle class="cls-4" cx="1457.12" cy="428.87" r="118.9"/><circle class="cls-4" cx="1803.58" cy="428.87" r="118.9"/><circle class="cls-4" cx="97.4" cy="739.34" r="106.9"/><circle class="cls-4" cx="420.18" cy="787.52" r="118.9"/><circle class="cls-4" cx="789.71" cy="811.41" r="142.79"/><circle class="cls-4" cx="1204.79" cy="811.41" r="142.79"/><circle class="cls-4" cx="1619.87" cy="811.41" r="142.79"/><path class="cls-4" d="M1926.54,717.35a142.65,142.65,0,0,0,0,188.11Z"/><path class="cls-4" d="M1926.54-7.36a106.92,106.92,0,0,0,0,203.54Z"/></g></g><rect class="cls-5" x="2" y="0.2" width="1920" height="781.8"/><g class="cls-2"><g class="cls-6"><circle class="cls-4" cx="420.18" cy="-103.48" r="118.9"/><circle class="cls-4" cx="789.71" cy="-79.59" r="142.79"/><circle class="cls-4" cx="1204.79" cy="-79.59" r="142.79"/><circle class="cls-4" cx="1619.87" cy="-79.59" r="142.79"/><circle class="cls-4" cx="97.4" cy="170.81" r="106.9"/><circle class="cls-4" cx="420.18" cy="255.17" r="118.9"/><circle class="cls-4" cx="789.71" cy="351.1" r="142.79"/><circle class="cls-4" cx="1243.69" cy="390" r="181.68"/><circle class="cls-4" cx="97.4" cy="493.27" r="106.9"/><circle class="cls-4" cx="97.4" cy="813.06" r="106.9"/><circle class="cls-4" cx="420.18" cy="613.82" r="118.9"/><circle class="cls-4" cx="789.71" cy="781.8" r="142.79"/><path class="cls-4" d="M1141.44,1088.68h204.49a181.68,181.68,0,1,0-204.49,0Z"/><path class="cls-4" d="M1922.15,756.34c-183.37.1-332,148.79-332,332.18v.16h332Z"/><path class="cls-4" d="M1928.74,298.45a181.69,181.69,0,1,0,0,183.09Z"/><path class="cls-4" d="M1926.54-173.65a142.23,142.23,0,0,0-35.4,94.06,142.23,142.23,0,0,0,35.4,94.05Z"/></g></g><g class="cls-7"><g class="cls-8"><polygon class="cls-4" points="3633.89 -0.41 1954.87 1806.08 1921.84 1806.08 3600.87 -0.41 3633.89 -0.41"/><polygon class="cls-4" points="3545.67 -0.41 1866.64 1806.08 1833.61 1806.08 3512.64 -0.41 3545.67 -0.41"/><polygon class="cls-4" points="3457.44 -0.41 1778.41 1806.08 1745.39 1806.08 3424.41 -0.41 3457.44 -0.41"/><polygon class="cls-4" points="3016.3 -0.41 1717.73 1396.74 1717.73 1361.2 2983.28 -0.41 3016.3 -0.41"/><polygon class="cls-4" points="2928.07 -0.41 1717.73 1301.81 1717.73 1266.28 2895.05 -0.41 2928.07 -0.41"/><polygon class="cls-4" points="2839.85 -0.41 1717.73 1206.89 1717.73 1171.35 2806.82 -0.41 2839.85 -0.41"/><polygon class="cls-4" points="3104.53 -0.41 1717.73 1491.66 1717.73 1456.13 3071.5 -0.41 3104.53 -0.41"/><polygon class="cls-4" points="3192.76 -0.41 1717.73 1586.59 1717.73 1551.05 3159.73 -0.41 3192.76 -0.41"/><polygon class="cls-4" points="3280.98 -0.41 1717.73 1681.51 1717.73 1645.98 3247.96 -0.41 3280.98 -0.41"/><polygon class="cls-4" points="3369.21 -0.41 1717.73 1776.44 1717.73 1740.9 3336.18 -0.41 3369.21 -0.41"/><polygon class="cls-4" points="2392.07 -0.41 1717.73 725.12 1717.73 689.59 2359.05 -0.41 2392.07 -0.41"/><polygon class="cls-4" points="2303.84 -0.41 1717.73 630.2 1717.73 594.66 2270.82 -0.41 2303.84 -0.41"/><polygon class="cls-4" points="2215.62 -0.41 1717.73 535.27 1717.73 499.74 2182.59 -0.41 2215.62 -0.41"/><polygon class="cls-4" points="2480.3 -0.41 1717.73 820.05 1717.73 784.51 2447.27 -0.41 2480.3 -0.41"/><polygon class="cls-4" points="2568.53 -0.41 1717.73 914.97 1717.73 879.44 2535.5 -0.41 2568.53 -0.41"/><polygon class="cls-4" points="2656.75 -0.41 1717.73 1009.89 1717.73 974.36 2623.73 -0.41 2656.75 -0.41"/><polygon class="cls-4" points="2744.98 -0.41 1717.73 1104.82 1717.73 1069.29 2711.96 -0.41 2744.98 -0.41"/><polygon class="cls-4" points="1741.46 -0.41 1774.48 -0.41 1717.73 60.65 1717.73 25.11 1741.46 -0.41"/><polygon class="cls-4" points="1862.71 -0.41 1717.73 155.57 1717.73 120.04 1829.68 -0.41 1862.71 -0.41"/><polygon class="cls-4" points="1950.94 -0.41 1717.73 250.5 1717.73 214.96 1917.91 -0.41 1950.94 -0.41"/><polygon class="cls-4" points="2039.16 -0.41 1717.73 345.42 1717.73 309.89 2006.14 -0.41 2039.16 -0.41"/><polygon class="cls-4" points="2127.39 -0.41 1717.73 440.35 1717.73 404.81 2094.36 -0.41 2127.39 -0.41"/></g></g></svg>