<svg id="Layer_1" data-name="Layer 1" xmlns="http://www.w3.org/2000/svg" xmlns:xlink="http://www.w3.org/1999/xlink" viewBox="0 0 1922 782"><defs><style>.cls-1{fill:none;}.cls-2{opacity:0.15;}.cls-3{clip-path:url(#clip-path);}.cls-4{fill:#fff;}.cls-5{fill:#ff7500;}.cls-6{clip-path:url(#clip-path-2);}.cls-7{clip-path:url(#clip-path-3);}.cls-8{clip-path:url(#clip-path-4);}.cls-9{opacity:0.2;}.cls-10{clip-path:url(#clip-path-5);}</style><clipPath id="clip-path"><rect class="cls-1" y="907" width="1922" height="782"/></clipPath><clipPath id="clip-path-2"><rect class="cls-1" width="1922" height="782"/></clipPath><clipPath id="clip-path-3"><rect class="cls-1" y="-891" width="1922" height="782"/></clipPath><clipPath id="clip-path-4"><rect class="cls-1" x="2252" y="731" width="1922" height="1490"/></clipPath><clipPath id="clip-path-5"><rect class="cls-1" x="2252" y="-891" width="1922" height="1490"/></clipPath></defs><title>Background-DotsO</title><g class="cls-2"><g class="cls-3"><circle class="cls-4" cx="97.4" cy="110.41" r="106.9"/><circle class="cls-4" cx="408.18" cy="110.41" r="106.9"/><circle class="cls-4" cx="718.95" cy="110.41" r="106.9"/><circle class="cls-4" cx="1029.73" cy="110.41" r="106.9"/><circle class="cls-4" cx="1340.51" cy="110.41" r="106.9"/><circle class="cls-4" cx="1649.75" cy="110.41" r="106.9"/><circle class="cls-4" cx="97.4" cy="432.88" r="106.9"/><circle class="cls-4" cx="420.18" cy="444.87" r="118.9"/><circle class="cls-4" cx="765.82" cy="444.87" r="118.9"/><circle class="cls-4" cx="1111.47" cy="444.87" r="118.9"/><circle class="cls-4" cx="1457.12" cy="444.87" r="118.9"/><circle class="cls-4" cx="1803.58" cy="444.87" r="118.9"/><circle class="cls-4" cx="97.4" cy="755.34" r="106.9"/><circle class="cls-4" cx="420.18" cy="803.52" r="118.9"/><circle class="cls-4" cx="789.71" cy="827.41" r="142.79"/><circle class="cls-4" cx="1204.79" cy="827.41" r="142.79"/><circle class="cls-4" cx="1619.87" cy="827.41" r="142.79"/><path class="cls-4" d="M1926.54,733.35a142.65,142.65,0,0,0,0,188.11Z"/><path class="cls-4" d="M1926.54,8.64a106.92,106.92,0,0,0,0,203.54Z"/></g></g><rect class="cls-5" x="2" y="0.2" width="1920" height="781.8"/><g class="cls-2"><g class="cls-6"><circle class="cls-4" cx="420.18" cy="-103.48" r="118.9"/><circle class="cls-4" cx="789.71" cy="-79.59" r="142.79"/><circle class="cls-4" cx="1204.79" cy="-79.59" r="142.79"/><circle class="cls-4" cx="1619.87" cy="-79.59" r="142.79"/><circle class="cls-4" cx="97.4" cy="170.81" r="106.9"/><circle class="cls-4" cx="420.18" cy="255.17" r="118.9"/><circle class="cls-4" cx="789.71" cy="351.1" r="142.79"/><circle class="cls-4" cx="1243.69" cy="390" r="181.68"/><circle class="cls-4" cx="97.4" cy="493.27" r="106.9"/><circle class="cls-4" cx="97.4" cy="813.06" r="106.9"/><circle class="cls-4" cx="420.18" cy="613.82" r="118.9"/><circle class="cls-4" cx="789.71" cy="781.8" r="142.79"/><path class="cls-4" d="M1141.44,1088.68h204.49a181.68,181.68,0,1,0-204.49,0Z"/><path class="cls-4" d="M1922.15,756.34c-183.37.1-332,148.79-332,332.18v.16h332Z"/><path class="cls-4" d="M1928.74,298.45a181.69,181.69,0,1,0,0,183.09Z"/><path class="cls-4" d="M1926.54-173.65a142.23,142.23,0,0,0-35.4,94.06,142.23,142.23,0,0,0,35.4,94.05Z"/></g></g><g class="cls-2"><g class="cls-7"><circle class="cls-4" cx="97.4" cy="-77.94" r="106.9"/><circle class="cls-4" cx="420.18" cy="82.95" r="118.9"/><circle class="cls-4" cx="789.71" cy="-109.2" r="142.79"/><path class="cls-4" d="M193.18,197.68a106.9,106.9,0,0,0-191.55,0Z"/><path class="cls-4" d="M860,197.68a142.7,142.7,0,0,0-140.57,0Z"/><path class="cls-4" d="M1141.44,197.68h204.49a181.68,181.68,0,1,0-204.49,0Z"/><path class="cls-4" d="M1922.15-134.66c-183.37.1-332,148.79-332,332.18v.16h332Z"/></g></g><g class="cls-8"><g class="cls-9"><polygon class="cls-4" points="3633.89 730.59 1954.87 2537.08 1921.84 2537.08 3600.87 730.59 3633.89 730.59"/><polygon class="cls-4" points="3545.67 730.59 1866.64 2537.08 1833.61 2537.08 3512.64 730.59 3545.67 730.59"/><polygon class="cls-4" points="3457.44 730.59 1778.41 2537.08 1745.39 2537.08 3424.41 730.59 3457.44 730.59"/><polygon class="cls-4" points="3016.3 730.59 1717.73 2127.74 1717.73 2092.2 2983.28 730.59 3016.3 730.59"/><polygon class="cls-4" points="2928.07 730.59 1717.73 2032.81 1717.73 1997.28 2895.05 730.59 2928.07 730.59"/><polygon class="cls-4" points="2839.85 730.59 1717.73 1937.89 1717.73 1902.35 2806.82 730.59 2839.85 730.59"/><polygon class="cls-4" points="3104.53 730.59 1717.73 2222.66 1717.73 2187.13 3071.5 730.59 3104.53 730.59"/><polygon class="cls-4" points="3192.76 730.59 1717.73 2317.59 1717.73 2282.05 3159.73 730.59 3192.76 730.59"/><polygon class="cls-4" points="3280.98 730.59 1717.73 2412.51 1717.73 2376.98 3247.96 730.59 3280.98 730.59"/><polygon class="cls-4" points="3369.21 730.59 1717.73 2507.44 1717.73 2471.9 3336.18 730.59 3369.21 730.59"/><polygon class="cls-4" points="2392.07 730.59 1717.73 1456.12 1717.73 1420.59 2359.05 730.59 2392.07 730.59"/><polygon class="cls-4" points="2303.84 730.59 1717.73 1361.19 1717.73 1325.66 2270.82 730.59 2303.84 730.59"/><polygon class="cls-4" points="2215.62 730.59 1717.73 1266.27 1717.73 1230.74 2182.59 730.59 2215.62 730.59"/><polygon class="cls-4" points="2480.3 730.59 1717.73 1551.05 1717.73 1515.51 2447.27 730.59 2480.3 730.59"/><polygon class="cls-4" points="2568.53 730.59 1717.73 1645.97 1717.73 1610.44 2535.5 730.59 2568.53 730.59"/><polygon class="cls-4" points="2656.75 730.59 1717.73 1740.89 1717.73 1705.36 2623.73 730.59 2656.75 730.59"/><polygon class="cls-4" points="2744.98 730.59 1717.73 1835.82 1717.73 1800.29 2711.96 730.59 2744.98 730.59"/><polygon class="cls-4" points="1741.46 730.59 1774.48 730.59 1717.73 791.64 1717.73 756.11 1741.46 730.59"/><polygon class="cls-4" points="1862.71 730.59 1717.73 886.57 1717.73 851.04 1829.68 730.59 1862.71 730.59"/><polygon class="cls-4" points="1950.94 730.59 1717.73 981.5 1717.73 945.96 1917.91 730.59 1950.94 730.59"/><polygon class="cls-4" points="2039.16 730.59 1717.73 1076.42 1717.73 1040.89 2006.14 730.59 2039.16 730.59"/><polygon class="cls-4" points="2127.39 730.59 1717.73 1171.35 1717.73 1135.81 2094.36 730.59 2127.39 730.59"/></g></g><g class="cls-10"><g class="cls-9"><polygon class="cls-4" points="3633.89 -891.41 1954.87 915.08 1921.84 915.08 3600.87 -891.41 3633.89 -891.41"/><polygon class="cls-4" points="3545.67 -891.41 1866.64 915.08 1833.61 915.08 3512.64 -891.41 3545.67 -891.41"/><polygon class="cls-4" points="3457.44 -891.41 1778.41 915.08 1745.39 915.08 3424.41 -891.41 3457.44 -891.41"/><polygon class="cls-4" points="3016.3 -891.41 1717.73 505.74 1717.73 470.2 2983.28 -891.41 3016.3 -891.41"/><polygon class="cls-4" points="2928.07 -891.41 1717.73 410.81 1717.73 375.28 2895.05 -891.41 2928.07 -891.41"/><polygon class="cls-4" points="2839.85 -891.41 1717.73 315.89 1717.73 280.35 2806.82 -891.41 2839.85 -891.41"/><polygon class="cls-4" points="3104.53 -891.41 1717.73 600.66 1717.73 565.13 3071.5 -891.41 3104.53 -891.41"/><polygon class="cls-4" points="3192.76 -891.41 1717.73 695.59 1717.73 660.05 3159.73 -891.41 3192.76 -891.41"/><polygon class="cls-4" points="3280.98 -891.41 1717.73 790.51 1717.73 754.98 3247.96 -891.41 3280.98 -891.41"/><polygon class="cls-4" points="3369.21 -891.41 1717.73 885.44 1717.73 849.9 3336.18 -891.41 3369.21 -891.41"/><polygon class="cls-4" points="2568.53 -891.41 1717.73 23.97 1717.73 -11.56 2535.5 -891.41 2568.53 -891.41"/><polygon class="cls-4" points="2656.75 -891.41 1717.73 118.89 1717.73 83.36 2623.73 -891.41 2656.75 -891.41"/><polygon class="cls-4" points="2744.98 -891.41 1717.73 213.82 1717.73 178.29 2711.96 -891.41 2744.98 -891.41"/></g></g></svg>