<svg id="Layer_1" data-name="Layer 1" xmlns="http://www.w3.org/2000/svg" xmlns:xlink="http://www.w3.org/1999/xlink" viewBox="0 0 1922 782"><defs><style>.cls-1{fill:none;}.cls-2{fill:#d0006f;}.cls-3{opacity:0.15;}.cls-4{clip-path:url(#clip-path);}.cls-5{fill:#fff;}.cls-6{clip-path:url(#clip-path-2);}.cls-7{clip-path:url(#clip-path-3);}.cls-8{opacity:0.2;}</style><clipPath id="clip-path"><rect class="cls-1" width="1922" height="782"/></clipPath><clipPath id="clip-path-2"><rect class="cls-1" y="-884" width="1922" height="782"/></clipPath><clipPath id="clip-path-3"><rect class="cls-1" x="2252" y="-354" width="1922" height="1490"/></clipPath></defs><title>Background-DotsP</title><rect class="cls-2" x="2" y="0.2" width="1920" height="781.8"/><g class="cls-3"><g class="cls-4"><circle class="cls-5" cx="420.18" cy="-103.48" r="118.9"/><circle class="cls-5" cx="789.71" cy="-79.59" r="142.79"/><circle class="cls-5" cx="1204.79" cy="-79.59" r="142.79"/><circle class="cls-5" cx="1619.87" cy="-79.59" r="142.79"/><circle class="cls-5" cx="97.4" cy="170.81" r="106.9"/><circle class="cls-5" cx="420.18" cy="255.17" r="118.9"/><circle class="cls-5" cx="789.71" cy="351.1" r="142.79"/><circle class="cls-5" cx="1243.69" cy="390" r="181.68"/><circle class="cls-5" cx="97.4" cy="493.27" r="106.9"/><circle class="cls-5" cx="97.4" cy="813.06" r="106.9"/><circle class="cls-5" cx="420.18" cy="613.82" r="118.9"/><circle class="cls-5" cx="789.71" cy="781.8" r="142.79"/><path class="cls-5" d="M1141.44,1088.68h204.49a181.68,181.68,0,1,0-204.49,0Z"/><path class="cls-5" d="M1922.15,756.34c-183.37.1-332,148.79-332,332.18v.16h332Z"/><path class="cls-5" d="M1928.74,298.45a181.69,181.69,0,1,0,0,183.09Z"/><path class="cls-5" d="M1926.54-173.65a142.23,142.23,0,0,0-35.4,94.06,142.23,142.23,0,0,0,35.4,94.05Z"/></g></g><g class="cls-3"><g class="cls-6"><circle class="cls-5" cx="97.4" cy="-70.94" r="106.9"/><circle class="cls-5" cx="420.18" cy="89.95" r="118.9"/><circle class="cls-5" cx="789.71" cy="-102.2" r="142.79"/><path class="cls-5" d="M193.18,204.68a106.9,106.9,0,0,0-191.55,0Z"/><path class="cls-5" d="M860,204.68a142.7,142.7,0,0,0-140.57,0Z"/><path class="cls-5" d="M1141.44,204.68h204.49a181.68,181.68,0,1,0-204.49,0Z"/><path class="cls-5" d="M1922.15-127.66c-183.37.1-332,148.79-332,332.18v.16h332Z"/></g></g><g class="cls-7"><g class="cls-8"><polygon class="cls-5" points="3633.89 -354.41 1954.87 1452.08 1921.84 1452.08 3600.87 -354.41 3633.89 -354.41"/><polygon class="cls-5" points="3545.67 -354.41 1866.64 1452.08 1833.61 1452.08 3512.64 -354.41 3545.67 -354.41"/><polygon class="cls-5" points="3457.44 -354.41 1778.41 1452.08 1745.39 1452.08 3424.41 -354.41 3457.44 -354.41"/><polygon class="cls-5" points="3016.3 -354.41 1717.73 1042.74 1717.73 1007.2 2983.28 -354.41 3016.3 -354.41"/><polygon class="cls-5" points="2928.07 -354.41 1717.73 947.81 1717.73 912.28 2895.05 -354.41 2928.07 -354.41"/><polygon class="cls-5" points="2839.85 -354.41 1717.73 852.89 1717.73 817.35 2806.82 -354.41 2839.85 -354.41"/><polygon class="cls-5" points="3104.53 -354.41 1717.73 1137.66 1717.73 1102.13 3071.5 -354.41 3104.53 -354.41"/><polygon class="cls-5" points="3192.76 -354.41 1717.73 1232.59 1717.73 1197.05 3159.73 -354.41 3192.76 -354.41"/><polygon class="cls-5" points="3280.98 -354.41 1717.73 1327.51 1717.73 1291.98 3247.96 -354.41 3280.98 -354.41"/><polygon class="cls-5" points="3369.21 -354.41 1717.73 1422.44 1717.73 1386.9 3336.18 -354.41 3369.21 -354.41"/><polygon class="cls-5" points="2392.07 -354.41 1717.73 371.12 1717.73 335.59 2359.05 -354.41 2392.07 -354.41"/><polygon class="cls-5" points="2303.84 -354.41 1717.73 276.19 1717.73 240.66 2270.82 -354.41 2303.84 -354.41"/><polygon class="cls-5" points="2215.62 -354.41 1717.73 181.27 1717.73 145.74 2182.59 -354.41 2215.62 -354.41"/><polygon class="cls-5" points="2480.3 -354.41 1717.73 466.05 1717.73 430.51 2447.27 -354.41 2480.3 -354.41"/><polygon class="cls-5" points="2568.53 -354.41 1717.73 560.97 1717.73 525.44 2535.5 -354.41 2568.53 -354.41"/><polygon class="cls-5" points="2656.75 -354.41 1717.73 655.89 1717.73 620.36 2623.73 -354.41 2656.75 -354.41"/><polygon class="cls-5" points="2744.98 -354.41 1717.73 750.82 1717.73 715.29 2711.96 -354.41 2744.98 -354.41"/><polygon class="cls-5" points="2127.39 -354.41 1717.73 86.34 1717.73 50.81 2094.36 -354.41 2127.39 -354.41"/></g></g></svg>