<svg id="Layer_1" data-name="Layer 1" xmlns="http://www.w3.org/2000/svg" xmlns:xlink="http://www.w3.org/1999/xlink" viewBox="0 0 1922 782"><defs><style>.cls-1{fill:none;}.cls-2{opacity:0.15;}.cls-3{clip-path:url(#clip-path);}.cls-4{fill:#fff;}.cls-5{fill:#ffb81c;}.cls-6{clip-path:url(#clip-path-2);}.cls-7{clip-path:url(#clip-path-3);}.cls-8{clip-path:url(#clip-path-4);}.cls-9{opacity:0.2;}.cls-10{clip-path:url(#clip-path-5);}</style><clipPath id="clip-path"><rect class="cls-1" y="923" width="1922" height="782"/></clipPath><clipPath id="clip-path-2"><rect class="cls-1" width="1922" height="782"/></clipPath><clipPath id="clip-path-3"><rect class="cls-1" y="-907" width="1922" height="782"/></clipPath><clipPath id="clip-path-4"><rect class="cls-1" x="2252" y="-176" width="1922" height="1490"/></clipPath><clipPath id="clip-path-5"><rect class="cls-1" x="2252" y="-1798" width="1922" height="1490"/></clipPath></defs><title>Background-DotsY</title><g class="cls-2"><g class="cls-3"><circle class="cls-4" cx="97.4" cy="126.41" r="106.9"/><circle class="cls-4" cx="408.18" cy="126.41" r="106.9"/><circle class="cls-4" cx="718.95" cy="126.41" r="106.9"/><circle class="cls-4" cx="1029.73" cy="126.41" r="106.9"/><circle class="cls-4" cx="1340.51" cy="126.41" r="106.9"/><circle class="cls-4" cx="1649.75" cy="126.41" r="106.9"/><circle class="cls-4" cx="97.4" cy="448.88" r="106.9"/><circle class="cls-4" cx="420.18" cy="460.87" r="118.9"/><circle class="cls-4" cx="765.82" cy="460.87" r="118.9"/><circle class="cls-4" cx="1111.47" cy="460.87" r="118.9"/><circle class="cls-4" cx="1457.12" cy="460.87" r="118.9"/><circle class="cls-4" cx="1803.58" cy="460.87" r="118.9"/><circle class="cls-4" cx="97.4" cy="771.34" r="106.9"/><circle class="cls-4" cx="420.18" cy="819.52" r="118.9"/><circle class="cls-4" cx="789.71" cy="843.41" r="142.79"/><circle class="cls-4" cx="1204.79" cy="843.41" r="142.79"/><circle class="cls-4" cx="1619.87" cy="843.41" r="142.79"/><path class="cls-4" d="M1926.54,749.35a142.65,142.65,0,0,0,0,188.11Z"/><path class="cls-4" d="M1926.54,24.64a106.92,106.92,0,0,0,0,203.54Z"/></g></g><rect class="cls-5" x="2" y="0.2" width="1920" height="781.8"/><g class="cls-2"><g class="cls-6"><circle class="cls-4" cx="420.18" cy="-103.48" r="118.9"/><circle class="cls-4" cx="789.71" cy="-79.59" r="142.79"/><circle class="cls-4" cx="1204.79" cy="-79.59" r="142.79"/><circle class="cls-4" cx="1619.87" cy="-79.59" r="142.79"/><circle class="cls-4" cx="97.4" cy="170.81" r="106.9"/><circle class="cls-4" cx="420.18" cy="255.17" r="118.9"/><circle class="cls-4" cx="789.71" cy="351.1" r="142.79"/><circle class="cls-4" cx="1243.69" cy="390" r="181.68"/><circle class="cls-4" cx="97.4" cy="493.27" r="106.9"/><circle class="cls-4" cx="97.4" cy="813.06" r="106.9"/><circle class="cls-4" cx="420.18" cy="613.82" r="118.9"/><circle class="cls-4" cx="789.71" cy="781.8" r="142.79"/><path class="cls-4" d="M1141.44,1088.68h204.49a181.68,181.68,0,1,0-204.49,0Z"/><path class="cls-4" d="M1922.15,756.34c-183.37.1-332,148.79-332,332.18v.16h332Z"/><path class="cls-4" d="M1928.74,298.45a181.69,181.69,0,1,0,0,183.09Z"/><path class="cls-4" d="M1926.54-173.65a142.23,142.23,0,0,0-35.4,94.06,142.23,142.23,0,0,0,35.4,94.05Z"/></g></g><g class="cls-2"><g class="cls-7"><circle class="cls-4" cx="97.4" cy="-93.94" r="106.9"/><circle class="cls-4" cx="420.18" cy="66.95" r="118.9"/><circle class="cls-4" cx="789.71" cy="-125.2" r="142.79"/><path class="cls-4" d="M193.18,181.68a106.9,106.9,0,0,0-191.55,0Z"/><path class="cls-4" d="M860,181.68a142.7,142.7,0,0,0-140.57,0Z"/><path class="cls-4" d="M1141.44,181.68h204.49a181.68,181.68,0,1,0-204.49,0Z"/><path class="cls-4" d="M1922.15-150.66c-183.37.1-332,148.79-332,332.18v.16h332Z"/></g></g><g class="cls-8"><g class="cls-9"><polygon class="cls-4" points="3633.89 -176.41 1954.87 1630.08 1921.84 1630.08 3600.87 -176.41 3633.89 -176.41"/><polygon class="cls-4" points="3545.67 -176.41 1866.64 1630.08 1833.61 1630.08 3512.64 -176.41 3545.67 -176.41"/><polygon class="cls-4" points="3457.44 -176.41 1778.41 1630.08 1745.39 1630.08 3424.41 -176.41 3457.44 -176.41"/><polygon class="cls-4" points="3016.3 -176.41 1717.73 1220.74 1717.73 1185.2 2983.28 -176.41 3016.3 -176.41"/><polygon class="cls-4" points="2928.07 -176.41 1717.73 1125.81 1717.73 1090.28 2895.05 -176.41 2928.07 -176.41"/><polygon class="cls-4" points="2839.85 -176.41 1717.73 1030.89 1717.73 995.35 2806.82 -176.41 2839.85 -176.41"/><polygon class="cls-4" points="3104.53 -176.41 1717.73 1315.66 1717.73 1280.13 3071.5 -176.41 3104.53 -176.41"/><polygon class="cls-4" points="3192.76 -176.41 1717.73 1410.59 1717.73 1375.05 3159.73 -176.41 3192.76 -176.41"/><polygon class="cls-4" points="3280.98 -176.41 1717.73 1505.51 1717.73 1469.98 3247.96 -176.41 3280.98 -176.41"/><polygon class="cls-4" points="3369.21 -176.41 1717.73 1600.44 1717.73 1564.9 3336.18 -176.41 3369.21 -176.41"/><polygon class="cls-4" points="2392.07 -176.41 1717.73 549.12 1717.73 513.59 2359.05 -176.41 2392.07 -176.41"/><polygon class="cls-4" points="2303.84 -176.41 1717.73 454.19 1717.73 418.66 2270.82 -176.41 2303.84 -176.41"/><polygon class="cls-4" points="2215.62 -176.41 1717.73 359.27 1717.73 323.74 2182.59 -176.41 2215.62 -176.41"/><polygon class="cls-4" points="2480.3 -176.41 1717.73 644.05 1717.73 608.51 2447.27 -176.41 2480.3 -176.41"/><polygon class="cls-4" points="2568.53 -176.41 1717.73 738.97 1717.73 703.44 2535.5 -176.41 2568.53 -176.41"/><polygon class="cls-4" points="2656.75 -176.41 1717.73 833.89 1717.73 798.36 2623.73 -176.41 2656.75 -176.41"/><polygon class="cls-4" points="2744.98 -176.41 1717.73 928.82 1717.73 893.29 2711.96 -176.41 2744.98 -176.41"/><polygon class="cls-4" points="1950.94 -176.41 1717.73 74.5 1717.73 38.96 1917.91 -176.41 1950.94 -176.41"/><polygon class="cls-4" points="2039.16 -176.41 1717.73 169.42 1717.73 133.89 2006.14 -176.41 2039.16 -176.41"/><polygon class="cls-4" points="2127.39 -176.41 1717.73 264.35 1717.73 228.81 2094.36 -176.41 2127.39 -176.41"/></g></g><g class="cls-10"><g class="cls-9"><polygon class="cls-4" points="3633.89 -1798.41 1954.87 8.08 1921.84 8.08 3600.87 -1798.41 3633.89 -1798.41"/><polygon class="cls-4" points="3545.67 -1798.41 1866.64 8.08 1833.61 8.08 3512.64 -1798.41 3545.67 -1798.41"/><polygon class="cls-4" points="3457.44 -1798.41 1778.41 8.08 1745.39 8.08 3424.41 -1798.41 3457.44 -1798.41"/></g></g></svg>