<?xml version="1.0" encoding="utf-8"?>
<svg version="1.1" xmlns="http://www.w3.org/2000/svg" viewBox="0 0 324 77.5" xml:space="preserve">
  <style type="text/css">
    .red{fill:#F15A33;}
    .blue{fill:#00B1C3;}
    .white{fill:#FFFFFF;}
  </style>
  <g id="curiosity-machine-logo">
    <g>
      <g>
        <path class="red" d="M62.8,76.9l-2-5.4H47.1l-2,5.4h-7.7l12.3-32h8.5l12.3,32H62.8z M53.9,51.7l-5,13.8h10L53.9,51.7z"/>
        <path class="red" d="M126.1,76.9V63.4H111v13.5h-6.8v-32h6.8v12.6h15.1V44.9h6.9v32H126.1z"/>
        <path class="red" d="M174.1,76.9L158.9,56v20.9h-6.8v-32h7L173.9,65V44.9h6.8v32H174.1z"/>
        <path class="blue" d="M27.8,76.9V53.8l-9,23.1h-3l-9-23.1v23.1H0v-32h9.5l7.8,20l7.8-20h9.6v32H27.8z"/>
        <path class="blue" d="M70.1,60.9c0-9.9,7.4-16.5,17.1-16.5c7,0,11.1,3.8,13.3,7.8l-5.8,2.9c-1.3-2.6-4.2-4.7-7.5-4.7
          c-5.8,0-10.1,4.5-10.1,10.5c0,6,4.2,10.5,10.1,10.5c3.3,0,6.1-2.1,7.5-4.6l5.8,2.8c-2.3,4-6.3,7.9-13.3,7.9
          C77.6,77.5,70.1,70.8,70.1,60.9z"/>
        <path class="blue" d="M139.1,76.9v-32h6.8v32H139.1z"/>
        <path class="blue" d="M186.9,76.9v-32h22.6v6h-15.8v6.7h15.5v6h-15.5v7.3h15.8v6H186.9z"/>
        <g>
          <rect x="252" y="0" class="red" width="36" height="36"/>
          <rect x="180" y="0" class="red" width="36" height="36"/>
          <rect x="108" y="0" class="red" width="36" height="36"/>
          <rect x="36" y="0" class="red" width="36" height="36"/>
        </g>
        <g>
          <rect y="0" class="blue" width="36" height="36"/>
          <rect x="72" y="0" class="blue" width="36" height="36"/>
          <rect x="144" y="0" class="blue" width="36" height="36"/>
          <rect x="216" y="0" class="blue" width="36" height="36"/>
          <rect x="288" y="0" class="blue" width="36" height="36"/>
        </g>
      </g>
      <g>
        <path class="white" d="M128.6,3.1c0,0.3-0.2,0.5-0.6,0.8v3.8c0.4,0.2,0.6,0.5,0.6,0.8c0,0.3-0.2,0.6-0.6,0.8V13
          c0.4,0.2,0.6,0.5,0.6,0.8c0,0.3-0.2,0.6-0.6,0.8v3.8c0.4,0.2,0.6,0.5,0.6,0.8c0,0.3-0.2,0.6-0.6,0.8v3.8c0.4,0.2,0.6,0.5,0.6,0.8
          c0,0.3-0.2,0.6-0.6,0.8v3.8c0.4,0.2,0.6,0.5,0.6,0.8c0,0.3-0.2,0.6-0.6,0.8v1.8h1.5V3.1H128.6z"/>
        <path class="white" d="M126.8,2.4L126.8,2.4l0-0.3V1.7h-1.5v2.6c0.2-0.1,0.4-0.2,0.6-0.2c0.4-0.2,0.8-0.3,1-0.4
          c0.9-0.4,1.1-0.6,1.1-0.6C127.9,3,127.8,2.8,126.8,2.4z"/>
        <path class="white" d="M126.8,7.8L126.8,7.8l0-0.3V7.1V4.5c-0.2,0.1-0.4,0.2-0.6,0.2c-0.4,0.2-0.8,0.3-1,0.4
          c-0.9,0.4-1.1,0.6-1.1,0.7c0,0.1,0.2,0.3,1.2,0.7v0.7v2.6c0.2-0.1,0.4-0.2,0.6-0.2c0.4-0.2,0.8-0.3,1-0.4
          c0.9-0.4,1.1-0.6,1.1-0.7C127.9,8.4,127.8,8.2,126.8,7.8z"/>
        <path class="white" d="M176.5,18.6c-0.2,0-0.2-0.3-0.2-0.5l0-0.2l0-0.2c0-0.1,0-0.4,0.2-0.5c1.3-0.2,1.7-0.7,1.7-1l0-0.1l0-0.1
          c-0.1-0.2-0.6-0.6-1.9-0.6c-0.2,0-0.3-0.3-0.3-0.4l0-0.2l-0.1-0.2c0-0.2-0.1-0.4,0.1-0.5c1.2-0.5,1.5-1.1,1.5-1.3l0-0.1l0-0.1
          c-0.1-0.2-0.7-0.5-2-0.2c-0.2,0-0.3-0.2-0.4-0.3L175,12l-0.1-0.1c-0.1-0.1-0.2-0.4,0-0.5c1-0.8,1.3-1.4,1.2-1.7L176,9.5L176,9.4
          c-0.2-0.2-0.8-0.3-2,0.3c-0.2,0.1-0.4-0.1-0.5-0.2l-0.1-0.1l-0.1-0.1c-0.1-0.1-0.2-0.4-0.1-0.5c0.9-1,0.9-1.7,0.8-1.9l-0.1-0.1
          l-0.1-0.1c-0.2-0.2-0.9-0.1-1.9,0.7c-0.2,0.1-0.4,0-0.5-0.1l-0.1-0.1L171.1,7c-0.1-0.1-0.3-0.3-0.2-0.5c0.6-1.1,0.6-1.8,0.4-2
          l-0.1-0.1l-0.1-0.1c-0.2-0.1-0.9,0.1-1.7,1.1c-0.1,0.2-0.4,0.1-0.5,0l-0.1-0.1l-0.1-0.1c-0.1-0.1-0.4-0.3-0.3-0.5
          c0.4-1.2,0.2-2,0-2.1c0,0-0.1,0-0.1,0l-0.1,0c-0.3,0-0.9,0.3-1.4,1.5c-0.1,0.2-0.4,0.2-0.5,0.1l-0.2,0l-0.2-0.1
          c-0.1-0.1-0.4-0.2-0.4-0.4c0.1-1.3-0.2-1.9-0.5-2l-0.1,0l-0.1,0c-0.3,0-0.8,0.5-1.1,1.7c-0.1,0.2-0.3,0.2-0.5,0.2l-0.2,0l-0.2,0
          c-0.2,0-0.4-0.1-0.5-0.3c-0.2-1.3-0.6-1.7-0.9-1.8l-0.1,0l-0.1,0c-0.2,0.1-0.7,0.6-0.7,1.9c0,0.2-0.3,0.3-0.4,0.3l-0.2,0l-0.2,0
          c-0.2,0-0.4,0-0.5-0.2c-0.4-1.2-1-1.5-1.3-1.5l-0.1,0l-0.1,0c-0.2,0.1-0.5,0.7-0.3,2c0,0.2-0.2,0.3-0.4,0.4l-0.2,0.1l-0.2,0
          c-0.2,0-0.4,0.2-0.5,0c-0.7-1.1-1.3-1.3-1.6-1.2l-0.1,0.1l-0.1,0.1c-0.2,0.2-0.3,0.8,0.2,2c0.1,0.2-0.1,0.4-0.3,0.4l-0.1,0.1
          L154,6.3c-0.1,0.1-0.4,0.2-0.5,0.1c-0.9-0.9-1.6-1-1.8-0.9l-0.1,0.1l-0.1,0.1c-0.1,0.2-0.2,0.9,0.6,1.9c0.1,0.2-0.1,0.4-0.1,0.5
          l-0.1,0.1l-0.1,0.1c-0.1,0.1-0.3,0.3-0.5,0.2c-1.1-0.7-1.8-0.7-2-0.5l-0.1,0.1L149,8.2c-0.1,0.2,0,0.9,1,1.7
          c0.2,0.1,0.1,0.4,0,0.6l-0.1,0.1l-0.1,0.1c-0.1,0.1-0.3,0.4-0.5,0.3c-1.2-0.5-1.9-0.3-2.1-0.1l-0.1,0.1l-0.1,0.1
          c-0.1,0.2,0.2,0.9,1.4,1.5c0.2,0.1,0.1,0.4,0.1,0.5l-0.1,0.2l-0.1,0.2c-0.1,0.1-0.2,0.4-0.4,0.4c-1.3-0.2-1.9,0.1-2,0.4l0,0.1
          l0,0.1c0,0.2,0.5,0.8,1.7,1.2c0.2,0.1,0.2,0.3,0.2,0.5l0,0.2l0,0.2c0,0.2-0.1,0.4-0.3,0.5c-1.3,0.1-1.8,0.5-1.9,0.8l0,0.1l0,0.1
          c0.1,0.2,0.6,0.7,1.9,0.8c0.2,0,0.3,0.3,0.3,0.5l0,0.2l0,0.2c0,0.2,0,0.4-0.2,0.5c-1.2,0.4-1.7,0.9-1.7,1.2l0,0.1l0,0.1
          c0.1,0.2,0.7,0.5,2,0.4c0.2,0,0.3,0.2,0.4,0.4l0.1,0.2l0.1,0.2c0,0.1,0.1,0.4-0.1,0.5c-1.1,0.7-1.5,1.3-1.4,1.5l0.1,0.1l0.1,0.1
          c0.2,0.2,0.8,0.4,2.1-0.1c0.2-0.1,0.4,0.2,0.5,0.3l0.1,0.1l0.1,0.1c0.1,0.1,0.2,0.4,0,0.6c-1,0.9-1.1,1.5-1,1.7l0.1,0.1l0.1,0.1
          c0.2,0.1,0.9,0.2,2-0.5c0.2-0.1,0.4,0.1,0.5,0.2l0.1,0.1l0.1,0.1c0.1,0.1,0.3,0.3,0.1,0.5c-0.7,1-0.7,1.7-0.6,1.9l0.1,0.1
          l0.1,0.1c0.2,0.1,0.9,0,1.8-0.9c0.2-0.1,0.4,0,0.5,0.1l0.1,0.1l0.1,0.1c0.1,0.1,0.4,0.2,0.3,0.4c-0.5,1.2-0.3,1.8-0.2,2l0.1,0.1
          l0.1,0.1c0.2,0.1,0.9-0.2,1.6-1.2c0.1-0.2,0.4-0.1,0.5,0l0.2,0l0.2,0.1c0.1,0.1,0.4,0.2,0.4,0.4c-0.2,1.3,0.1,1.9,0.3,2l0.1,0
          l0.1,0c0.3,0,0.8-0.3,1.3-1.5c0.1-0.2,0.4-0.2,0.5-0.2l0.2,0l0.2,0c0.2,0,0.4,0.1,0.4,0.3c0,1.3,0.5,1.8,0.7,1.9l0.1,0l0.1,0
          c0.2,0,0.7-0.5,0.9-1.8c0-0.2,0.3-0.3,0.5-0.3l0.2,0l0.2,0c0.2,0,0.4,0,0.5,0.2c0.3,1.3,0.8,1.7,1.1,1.7l0.1,0l0.1,0
          c0.2-0.1,0.6-0.6,0.5-2c0-0.2,0.2-0.3,0.4-0.4l0.2-0.1l0.2,0c0.1,0,0.4-0.1,0.5,0.1c0.6,1.2,1.2,1.5,1.4,1.5c0,0,0.1,0,0.1,0
          l0.1,0c0.2-0.1,0.4-0.8,0-2.1c-0.1-0.2,0.2-0.4,0.3-0.5l0.1-0.1l0.1-0.1c0.1-0.1,0.4-0.2,0.5,0c0.8,1,1.5,1.2,1.7,1.1l0.1-0.1
          l0.1-0.1c0.2-0.2,0.2-0.9-0.4-2c-0.1-0.2,0.1-0.4,0.2-0.5l0.1-0.1l0.1-0.1c0.1-0.1,0.4-0.2,0.5-0.1c1,0.8,1.7,0.9,1.9,0.7
          l0.1-0.1L174,29c0.1-0.2,0-0.9-0.8-1.9c-0.1-0.2,0-0.4,0.1-0.5l0.1-0.1l0.1-0.1c0.1-0.1,0.3-0.3,0.5-0.2c1.2,0.6,1.8,0.5,2,0.3
          l0.1-0.1l0.1-0.1c0.1-0.3-0.2-0.9-1.2-1.7c-0.2-0.1-0.1-0.4,0-0.5l0.1-0.1l0.1-0.1c0.1-0.1,0.2-0.4,0.4-0.3c1.2,0.3,1.8,0,2-0.2
          l0-0.1l0-0.1c0-0.3-0.3-0.8-1.5-1.3c-0.2-0.1-0.2-0.4-0.1-0.5L176,21l0-0.2c0-0.1,0.1-0.4,0.3-0.4c1.3,0,1.8-0.4,1.9-0.6l0-0.1
          l0-0.1C178.2,19.3,177.8,18.8,176.5,18.6z M151.5,17.1c-0.5-1.3,0.3-2.8,1.6-3.3c1.3-0.5,2.8,0.3,3.3,1.6
          c0.5,1.3-0.3,2.8-1.6,3.3C153.4,19.1,151.9,18.4,151.5,17.1z M159,24.6c-0.3,1.4-1.6,2.3-3,2c-1.4-0.3-2.3-1.6-2-3
          c0.3-1.4,1.6-2.3,3-2S159.3,23.2,159,24.6z M157.7,12c-1.1-0.9-1.2-2.6-0.2-3.6c0.9-1.1,2.6-1.2,3.6-0.2c1.1,0.9,1.2,2.6,0.2,3.6
          C160.4,12.9,158.8,13,157.7,12z M160.9,19.2c-0.7-0.6-0.8-1.7-0.2-2.3c0.6-0.7,1.7-0.8,2.4-0.2c0.7,0.6,0.8,1.7,0.2,2.3
          C162.6,19.7,161.6,19.8,160.9,19.2z M166.5,27.4c-0.9,1.1-2.6,1.2-3.6,0.2c-1.1-0.9-1.2-2.6-0.2-3.6c0.9-1.1,2.6-1.2,3.6-0.2
          C167.4,24.7,167.5,26.4,166.5,27.4z M167,14.3c-1.4-0.3-2.3-1.6-2-3c0.3-1.4,1.6-2.3,3-2c1.4,0.3,2.3,1.6,2,3
          C169.7,13.6,168.4,14.5,167,14.3z M170.9,22c-1.3,0.5-2.8-0.3-3.3-1.6c-0.5-1.3,0.3-2.8,1.6-3.3c1.3-0.5,2.8,0.3,3.3,1.6
          C173,20.1,172.2,21.6,170.9,22z"/>
        <path class="white" d="M126.8,13.2L126.8,13.2l0-0.3v-0.4V9.9c-0.2,0.1-0.4,0.2-0.6,0.2c-0.4,0.2-0.8,0.3-1,0.4
          c-0.9,0.4-1.1,0.6-1.1,0.7c0,0.1,0.2,0.3,1.2,0.7v0.7v2.6c0.2-0.1,0.4-0.2,0.6-0.2c0.4-0.2,0.8-0.3,1-0.4
          c0.9-0.4,1.1-0.6,1.1-0.7C127.9,13.8,127.8,13.6,126.8,13.2z"/>
        <path class="white" d="M126.8,18.6L126.8,18.6l0-0.3v-0.4v-2.6c-0.2,0.1-0.4,0.2-0.6,0.2c-0.4,0.2-0.8,0.3-1,0.4
          c-0.9,0.4-1.1,0.6-1.1,0.7c0,0.1,0.2,0.3,1.2,0.7v0.7v2.6c0.2-0.1,0.4-0.2,0.6-0.2c0.4-0.2,0.8-0.3,1-0.4
          c0.9-0.4,1.1-0.6,1.1-0.7C127.9,19.2,127.8,19,126.8,18.6z"/>
        <polygon class="white" points="268.8,33.6 268.9,30.1 264.3,29.1 			"/>
        <path class="white" d="M208.5,5.3l3.5,1.1c0.1,0,0.3,0,0.3-0.1c0-0.1-0.1-0.2-0.2-0.3l-3.5-1.1l0.4-1.3l-0.6-0.2
          c0,0-0.5,0.5-1.1,0.2v0l-3.5-1.2c-0.8-0.3-1.5,0.2-1.8,0.2c0,0-0.1,0-0.1,0c-0.1-0.2,0.3-0.6-0.1-0.7l-0.6-0.2l-0.2,0.7
          c-3.8-1-7.3-0.5-9.7,1.3c-2.1,1.6-3.1,4-2.8,6.7c0.6,5.1,4.7,6.4,8.2,7.5c2,0.6,4,1.3,5.4,2.5c1.8,1.5,2.6,4.1,1.8,6.4
          c-0.4,1.3-1.7,3.6-5.7,3.9c-2.1,0.2-3.9-0.4-5.2-1.6c-1.1-1-1.8-2.3-2.1-3.9h0c0,0,0,0,0,0c0,0,0,0,0,0c-0.1-0.4-0.5-0.6-0.8-0.5
          c-0.4,0.1-0.6,0.5-0.6,0.8h0c0.4,1.9,1.3,3.5,2.6,4.7c1.6,1.5,3.8,2.1,6.3,1.9c3.5-0.3,6-2,6.9-4.9c0.9-2.8,0-6-2.3-7.9
          c-1.7-1.4-3.8-2.1-5.9-2.8c-3.5-1.1-6.7-2.1-7.2-6.3c-0.3-2.2,0.5-4.1,2.2-5.4c2-1.5,4.9-1.9,8-1.2L200,3.9l-0.1,0.3
          c-3-0.7-5.7-0.3-7.5,1.1c-1.5,1.2-2.2,2.9-2,4.9c0.5,3.8,3.4,4.8,6.9,5.9c2.1,0.7,4.4,1.4,6.1,2.9c2.4,2.1,3.4,5.5,2.4,8.5
          c-1,3-3.7,5-7.4,5.2c-0.3,0-0.6,0-0.9,0c-2.3,0-4.3-0.7-5.8-2.1c-1.7-1.5-2.7-3.7-2.9-6.2h0c0-0.4-0.4-0.7-0.8-0.7
          c-0.4,0-0.7,0.4-0.7,0.8h0c0.3,2.9,1.4,5.4,3.4,7.1c1.8,1.6,4.1,2.5,6.8,2.5c0.3,0,0.6,0,1,0c4.3-0.3,7.5-2.6,8.7-6.2
          c1.2-3.6,0-7.6-2.9-10c-2-1.7-4.4-2.5-6.6-3.2c-3.6-1.2-5.5-1.9-5.9-4.7c-0.2-1.5,0.3-2.8,1.4-3.6c1.2-0.9,3.5-1.5,6.6-0.8
          l-0.2,0.7l0.6,0.2c0.4,0.1,0.4-0.6,0.6-0.5c0.2,0.1,0.5,1,1.4,1.3l3.5,1.2v0c0.7,0.2,0.8,0.9,0.8,0.9l0.6,0.2l0.4-1.3l3.5,1.1
          c0.1,0,0.3,0,0.3-0.1c0-0.1-0.1-0.2-0.2-0.3l-3.5-1.1l0.4-1.3L208.5,5.3z"/>
        <polygon class="white" points="264.6,33.2 268.2,34 266.3,31.9 			"/>
        <path class="white" d="M236.5,18.9c0.4-0.6,0.6-1,0.3-1.2c-0.3-0.2-1.1-0.3-1.1-0.3v-0.6c0,0-0.2,0.1-0.9,0.1V6.2
          c0-0.3,0.1-0.9,0.4-1.4c0.2-0.4-0.5-3.1-0.5-3.1h-1.4c0,0-0.7,2.7-0.5,3.1c0.3,0.5,0.4,1.1,0.4,1.4v10.7c-0.6,0-0.8-0.1-0.8-0.1
          v0.6c0,0-0.8,0.1-1.1,0.3c-0.3,0.2-0.1,0.6,0.3,1.2c1,1.5,0.7,3.3,0,5c-0.7,1.8-0.1,9.6,0.2,10c0.2,0.2,0.8,0.3,2.3,0.3
          c1.5,0,2.1-0.1,2.3-0.3c0.3-0.3,0.9-8.2,0.2-10C235.8,22.3,235.5,20.4,236.5,18.9z"/>
        <path class="white" d="M126.8,24L126.8,24l0-0.3v-0.4v-2.6c-0.2,0.1-0.4,0.2-0.6,0.2c-0.4,0.2-0.8,0.3-1,0.4
          c-0.9,0.4-1.1,0.6-1.1,0.7c0,0.1,0.2,0.3,1.2,0.7v0.7v2.6c0.2-0.1,0.4-0.2,0.6-0.2c0.4-0.2,0.8-0.3,1-0.4
          c0.9-0.4,1.1-0.6,1.1-0.7C127.9,24.6,127.8,24.4,126.8,24z"/>
        <path class="white" d="M87.9,11.3c0,0,0.8,1.1,1.5,2.6c0.2,0.2,0.8,0.3,1.2,0.2c0.4,0,0.9-0.2,1.1-0.5c0.4-1.6,0.9-2.8,0.9-2.8l0,0
          c0,0,0.5-1.2,1.5-2.5c0-0.3-0.1-0.8-0.4-1.1c-0.2-0.3-0.6-0.6-0.9-0.7c-1.6,0.5-2.9,0.6-2.9,0.6s-1.3,0.1-3,0
          c-0.3,0.1-0.6,0.5-0.8,0.9c-0.2,0.4-0.2,0.9-0.1,1.2C87.2,10.3,87.9,11.3,87.9,11.3z M90,9.1c0.4,0,0.7,0.3,0.8,0.6
          c0,0.4-0.2,0.7-0.6,0.8c-0.4,0-0.7-0.3-0.8-0.6C89.3,9.5,89.6,9.1,90,9.1z"/>
        <path class="white" d="M270,19.3c-0.1-0.8-1.2-1.3-1.7-0.6l0,10.5l1.7,0.3L270,19.3z"/>
        <path class="white" d="M90.9,17.6c4.3-0.4,7.5-4.3,7.1-8.6c-0.4-4.3-4.3-7.5-8.6-7.1c-4.3,0.4-7.5,4.3-7.1,8.6c0,0,0,0,0,0.1
          l0.1,0.9c0.8,12,1.4,20.6-4.8,21.5l0.1,0.7l0.1,0.7c6.9-1,7-9.1,6.3-19.7C85.7,16.7,88.2,17.9,90.9,17.6z M89.6,4.9
          c2.7-0.3,5.1,1.7,5.4,4.4c0.3,2.7-1.7,5.1-4.4,5.4c-2.7,0.3-5.1-1.7-5.4-4.4C85,7.6,86.9,5.1,89.6,4.9z"/>
        <path class="white" d="M293,5.6c0,0.5,0.3,0.9,0.8,1.3l10.5,16.5L305,33c0,0.6,0.5,1.2,1,1.2c0.6,0,1-0.6,1-1.2l0.7-9.6l10.5-16.5
          c0.5-0.4,0.8-0.8,0.8-1.3l0,0c0-2.4-6.7-3.7-13-3.7C299.7,1.8,293,3.1,293,5.6L293,5.6z M305.9,3.2c6.8,0,11.5,1.3,11.5,2.4
          c0,1.1-4.7,2.4-11.5,2.4c-6.8,0-11.5-1.3-11.5-2.4C294.4,4.5,299.1,3.2,305.9,3.2z"/>
        <path class="white" d="M60.3,1.7v21.9c0,1.7-0.7,3.3-1.9,4.5c-1.1,1.1-2.7,1.9-4.5,1.9c-1.7,0-3.3-0.7-4.5-1.9
          c-1.1-1.1-1.9-2.7-1.9-4.5V1.7h-4.2v21.9c0,5.8,4.7,10.5,10.5,10.5c5.8,0,10.5-4.7,10.5-10.5V1.7H60.3z M46.7,7.9h-2.2V2.7h2.2
          V7.9z M63.5,7.9h-2.2V2.7h2.2V7.9z"/>
        <path class="white" d="M126.8,29.4L126.8,29.4l0-0.3v-0.4v-2.6c-0.2,0.1-0.4,0.2-0.6,0.2c-0.4,0.2-0.8,0.3-1,0.4
          c-0.9,0.4-1.1,0.6-1.1,0.7c0,0.1,0.2,0.3,1.2,0.7v0.7v2.6c0.2-0.1,0.4-0.2,0.6-0.2c0.4-0.2,0.8-0.3,1-0.4
          c0.9-0.4,1.1-0.6,1.1-0.7C127.9,30,127.8,29.8,126.8,29.4z"/>
        <path class="white" d="M102.2,29.7c-0.3-0.5-6.1-9.1-7.6-11.4c-0.2-0.3-0.6-0.6-1.1-0.5c-1.7,0.6-4.7,1.7-5.5,2
          c-0.6,0.2-0.7,0.8-0.5,1.2c0.2,0.5,0.6,0.7,1.1,0.5c0.7-0.3,2.8-0.9,2.8-0.9c0,0,5.2,8.5,5.2,10.2c0,0.8-0.3,1.8,0.3,1.6
          c0.8-0.3,4.5-1.6,5.3-2C102.7,30.4,102.4,30.1,102.2,29.7z"/>
        <path class="white" d="M125.1,32.1c-0.9,0.4-1.1,0.6-1.1,0.7c0,0.1,0.2,0.3,1.2,0.7v0.7h1.5v-2.6c-0.2,0.1-0.4,0.2-0.6,0.2
          C125.7,31.9,125.3,32.1,125.1,32.1z"/>
        <path class="white" d="M122.4,32.7h0.9c0-0.3,0.2-0.5,0.6-0.8v-3.8c-0.4-0.2-0.6-0.5-0.6-0.8v0c0-0.3,0.2-0.6,0.6-0.8v-3.8
          c-0.4-0.2-0.6-0.5-0.6-0.8c0-0.3,0.2-0.6,0.6-0.8v-3.8c-0.4-0.2-0.6-0.5-0.6-0.8c0-0.3,0.2-0.6,0.6-0.8V12
          c-0.4-0.2-0.6-0.5-0.6-0.8c0-0.3,0.2-0.6,0.6-0.8V6.6c-0.4-0.2-0.6-0.5-0.6-0.8v0c0-0.3,0.2-0.6,0.6-0.8V3.1h-1.5V32.7z"/>
        <path class="white" d="M31.7,27.1c-0.5-0.5-1.4-0.1-2.1,0.5c-2.5,2.3-6,3.5-9.3,3.3c-3.5-0.1-6.6-1.6-9-4.2
          c-3.6-4-3.8-11.4-0.4-15.5c4.3-5.1,11.9-5.6,16.9-1.4c1,0.8,2.7,0.9,3.7-0.2c0.8-0.8,0.9-2.2-0.1-3.3C25.6,0.1,14.7,0,8.3,6.9
          c-6,6.5-6,16.6,0.3,22.8c3.1,3,7.2,4.5,11.7,4.4c4.1,0,8.6-1.8,11.2-4.9C32.2,28.4,32.4,27.7,31.7,27.1z M29.7,6.8
          c0.7,0,1.3,0.5,1.3,1.2c0,0.7-0.5,1.3-1.2,1.3c-0.7,0-1.3-0.5-1.3-1.2C28.4,7.4,29,6.8,29.7,6.8z"/>
        <path class="white" d="M269,7.3c1.2,0,1-1.8,1-1.8V1.9c-0.4-0.3-1.4-0.2-1.7,0.2l0,4.8C268.3,6.9,268.4,7.3,269,7.3z"/>
        <path class="white" d="M261.5,21.6l6.3-1.5c-0.3-0.7-0.5-2.1,1-2.4c1.4-0.3,1.8,0.8,2,1.7l6.3-1.5c-1.7-4.4-2.6-11.4-0.6-14.1
          l-5.7,1.6c0,0.5,0.2,2.2-1.6,2.5c-1.2,0.2-1.4-0.9-1.3-1.7l-5.5,1.6c-0.6,0.1-1.2,0.8-1.4,1.2C258.1,14.5,261.5,21.6,261.5,21.6z
          "/>
        <polygon class="white" points="269.5,34.1 273.9,31 269.6,30.2"/>
        <path class="white" d="M277.7,17.7c1.9-3.8,3-9.4,2.5-12.5c-0.3-2.3-2.8-2.7-3.7-0.2C275.5,8,276.1,13.7,277.7,17.7z"/>
      </g>
    </g>
  </g>
</svg>
