<?xml version="1.0" encoding="utf-8"?>
  <svg version="1.1" id="Layer_1" xmlns="http://www.w3.org/2000/svg" xmlns:xlink="http://www.w3.org/1999/xlink" x="0px" y="0px"
	 viewBox="0 0 75 36" style="enable-background:new 0 0 75 36;" xml:space="preserve">
  <style type="text/css">
  	.st0{fill:#F15A33;}
  	.st1{fill:#00B1C3;}
  	.st2{fill:#FFFFFF;}
  </style>
  <path class="st0" d="M65.8,34V10.9l-9,23.1h-3l-9-23.1V34H38V2h9.5l7.8,20l7.8-20h9.6v32H65.8z"/>
  <rect class="st1" width="36" height="36"/>
  <path class="st2" d="M31.7,27.1c-0.5-0.5-1.4-0.1-2.1,0.5c-2.5,2.3-6,3.5-9.3,3.3c-3.5-0.1-6.6-1.6-9-4.2c-3.6-4-3.8-11.4-0.4-15.5
  	c4.3-5.1,11.9-5.6,16.9-1.4c1,0.8,2.7,0.9,3.7-0.2c0.8-0.8,0.9-2.2-0.1-3.3C25.6,0.1,14.7,0,8.3,6.9c-6,6.5-6,16.6,0.3,22.8
  	c3.1,3,7.2,4.5,11.7,4.4c4.1,0,8.6-1.8,11.2-4.9C32.2,28.4,32.4,27.7,31.7,27.1z M29.7,6.8C30.4,6.8,31,7.3,31,8s-0.5,1.3-1.2,1.3
  	s-1.3-0.5-1.3-1.2C28.4,7.4,29,6.8,29.7,6.8z"/>
</svg>
