<?xml version="1.0" encoding="utf-8"?>
<!-- Generator: Adobe Illustrator 23.0.2, SVG Export Plug-In . SVG Version: 6.00 Build 0)  -->
<svg version="1.1" id="Layer_1" xmlns="http://www.w3.org/2000/svg" xmlns:xlink="http://www.w3.org/1999/xlink" x="0px" y="0px"
	 viewBox="0 0 230.5 192.2" style="enable-background:new 0 0 230.5 192.2;" xml:space="preserve">
<style type="text/css">
	.st0{fill:#0076CF;}
	.st1{opacity:0.5;fill:#FF7500;}
	.st2{opacity:0.75;fill:#FF7500;}
	.st3{fill:#FF7500;}
</style>
<g>
	<path class="st0" d="M108.4,65.9c-1.1,1.1-1.7,2.5-1.7,4.1v20.1c0,1.6,0.6,3,1.7,4.1s2.5,1.7,4.1,1.7h30.6c2.6,0,4.7,2.1,4.7,4.7
		v79.2c0,1.6,0.6,3,1.7,4.1c1.1,1.1,2.5,1.7,4.1,1.7H179c1.6,0,2.9-0.6,4.1-1.7c1.1-1.1,1.7-2.5,1.7-4.1v-79.2
		c0-2.6,2.1-4.7,4.7-4.7h30.6c1.6,0,2.9-0.6,4.1-1.7c1.1-1.1,1.7-2.5,1.7-4.1V70c0-1.6-0.6-2.9-1.7-4.1c-1.1-1.1-2.5-1.7-4.1-1.7
		H112.5C110.9,64.2,109.6,64.8,108.4,65.9z"/>
	<path class="st1" d="M135.5,108.2h-15.2v6.6H77.4V79h17.1V64.2H66.2c-2.2,0-4,1.8-4,4V118c0,6.7,5.4,12.1,12.1,12.1h57.3
		c2.2,0,4-1.8,4-4L135.5,108.2L135.5,108.2z"/>
	<path class="st2" d="M152.7,52c-3.4-9.1-12.3-15.6-22.6-15.6h-92c-2.2,0-4,1.8-4,4V130c0,15.6,12.6,28.2,28.2,28.2h73.3v-15.6H64
		c-7.8,0-14.1-6.3-14.1-14.1V52H152.7z"/>
	<path class="st3" d="M135.5,169.6H57.9c-20,0-36.2-16.3-36.2-36.2V24.1h110.6c16.8,0,30.9,12.4,35,27.9h16.5
		C179.4,27.5,158,8,132.3,8H9.6c-2.2,0-4,1.8-4,4v121.3c0,28.9,23.4,52.4,52.4,52.4h77.6v-16.1H135.5z"/>
</g>
</svg>
