<?xml version="1.0" encoding="utf-8"?>
<!-- Generator: Adobe Illustrator 22.1.0, SVG Export Plug-In . SVG Version: 6.00 Build 0)  -->
<svg version="1.1" id="Layer_1" xmlns="http://www.w3.org/2000/svg" xmlns:xlink="http://www.w3.org/1999/xlink" x="0px" y="0px"
	 viewBox="0 0 220 57" style="enable-background:new 0 0 220 57;" xml:space="preserve">
<style type="text/css">
	.st0{fill:none;stroke:#E5E2DA;stroke-width:2.0527;stroke-linejoin:round;}
	.st1{fill:none;stroke:#E5E2DA;stroke-width:2.0527;stroke-linejoin:round;stroke-dasharray:4,2;}
	.st2{fill:#08B0C2;}
	.st3{fill:#E5E2DA;}
	.st4{fill:#B7E2E2;}
	.st5{fill:#FFFBF7;stroke:#FFFBF7;stroke-width:1.2394;stroke-miterlimit:10;}
	.st6{fill:#FFFBF7;}
	.st7{fill:none;stroke:#FFFBF7;stroke-width:12;stroke-miterlimit:10;}
	.st8{fill:#333333;}
</style>
<g>
	<g>
		<line class="st0" x1="184" y1="18" x2="182" y2="18"/>
		<line class="st1" x1="180" y1="18" x2="31" y2="17.7"/>
		<line class="st0" x1="30" y1="17.7" x2="28" y2="17.7"/>
	</g>
</g>
<g>
	<circle class="st2" cx="21.5" cy="17.5" r="9.1"/>
	<path class="st3" d="M21.5,9.7c4.3,0,7.8,3.5,7.8,7.8s-3.5,7.8-7.8,7.8s-7.8-3.5-7.8-7.8S17.2,9.7,21.5,9.7 M21.5,7
		C15.7,7,11,11.7,11,17.5S15.7,28,21.5,28S32,23.3,32,17.5S27.3,7,21.5,7L21.5,7z"/>
</g>
<g>
	<circle class="st4" cx="106.5" cy="18.5" r="7"/>
	<path class="st3" d="M106.5,13c3,0,5.5,2.5,5.5,5.5s-2.5,5.5-5.5,5.5s-5.5-2.5-5.5-5.5S103.5,13,106.5,13 M106.5,10
		c-4.7,0-8.5,3.8-8.5,8.5s3.8,8.5,8.5,8.5s8.5-3.8,8.5-8.5S111.2,10,106.5,10L106.5,10z"/>
</g>
<g>
	<path class="st3" d="M187.3,20.9c0,0-8.6-4.8-8.6-5.8s0-4.5,0-4.5c0-2.1,1.7-3.8,3.8-3.8h3.7v2.6h-3.7c-0.7,0-1.2,0.5-1.2,1.2v3.2
		l6.8,6.4L187.3,20.9z"/>
	<path class="st3" d="M202.1,20.9c0,0,8.6-4.8,8.6-5.8s0-4.5,0-4.5c0-2.1-1.7-3.8-3.8-3.8h-3.7v2.6h3.7c0.7,0,1.2,0.5,1.2,1.2v3.2
		l-6.8,6.4L202.1,20.9z"/>
	<path class="st3" d="M201.5,29.5H200v-1.2c0-0.3-0.3-0.6-0.6-0.6H197v-3.6c0-0.2-0.2-0.3-0.3-0.3h-3.9c-0.2,0-0.3,0.2-0.3,0.3v3.6
		h-2.3c-0.3,0-0.6,0.3-0.6,0.6v1.2H188c-1.5,0-2.8,1.3-2.8,2.8h19.1C204.3,30.8,203.1,29.5,201.5,29.5z"/>
	<g>
		<path class="st4" d="M194.7,23.4c-4.4,0-8.1-3.6-8.1-8.1l-0.1-10.9h16.1l0.1,10.9C202.7,19.8,199.1,23.4,194.7,23.4z"/>
		<path class="st3" d="M201.1,6l0.1,9.4c0,3.6-2.9,6.6-6.6,6.6c-3.6,0-6.6-2.9-6.6-6.6L188,6H201.1 M204.1,3H185l0.1,12.4
			c0,5.3,4.3,9.6,9.6,9.6c5.3,0,9.6-4.3,9.6-9.6L204.1,3L204.1,3z"/>
	</g>
</g>
<g>
	<path class="st8" d="M8.4,42.8c-0.2-0.3-0.6-0.5-1-0.7C7,42,6.6,41.9,6,41.9c-0.8,0-1.3,0.1-1.7,0.4C4,42.6,3.9,43,3.9,43.5
		c0,0.3,0,0.5,0.1,0.6c0.1,0.2,0.2,0.3,0.4,0.4c0.2,0.1,0.4,0.2,0.7,0.3c0.3,0.1,0.7,0.2,1.1,0.3c0.5,0.1,0.9,0.2,1.2,0.3
		c0.4,0.1,0.7,0.3,0.9,0.4c0.3,0.2,0.5,0.4,0.6,0.7c0.1,0.3,0.2,0.6,0.2,1c0,0.4-0.1,0.7-0.2,1s-0.4,0.5-0.6,0.7
		c-0.3,0.2-0.6,0.3-1,0.4s-0.8,0.1-1.2,0.1c-1.3,0-2.5-0.4-3.4-1.2l0.4-0.7c0.3,0.3,0.7,0.6,1.3,0.8c0.5,0.2,1.1,0.3,1.8,0.3
		c0.7,0,1.2-0.1,1.6-0.4c0.4-0.2,0.6-0.6,0.6-1.1c0-0.3-0.1-0.5-0.2-0.7c-0.1-0.2-0.3-0.3-0.5-0.5c-0.2-0.1-0.5-0.2-0.8-0.3
		c-0.3-0.1-0.7-0.2-1.1-0.3c-0.4-0.1-0.8-0.2-1.2-0.3c-0.3-0.1-0.6-0.3-0.8-0.4c-0.2-0.2-0.4-0.4-0.5-0.6C3.1,44.3,3,44,3,43.6
		c0-0.4,0.1-0.7,0.2-1.1c0.1-0.3,0.4-0.6,0.6-0.8c0.3-0.2,0.6-0.4,1-0.5s0.8-0.2,1.2-0.2c0.6,0,1.1,0.1,1.5,0.3
		c0.4,0.2,0.8,0.4,1.2,0.7L8.4,42.8z"/>
	<path class="st8" d="M13.4,49.5c0,0-0.1,0.1-0.2,0.1c-0.1,0-0.2,0.1-0.3,0.1s-0.3,0.1-0.4,0.1s-0.3,0-0.5,0c-0.2,0-0.3,0-0.5-0.1
		c-0.2,0-0.3-0.1-0.4-0.2c-0.1-0.1-0.2-0.2-0.3-0.4c-0.1-0.2-0.1-0.3-0.1-0.5v-4.5H9.8v-0.6h0.9v-2.1h0.8v2.1h1.4v0.6h-1.4v4.2
		c0,0.2,0.1,0.4,0.2,0.5c0.1,0.1,0.3,0.2,0.5,0.2c0.2,0,0.4,0,0.6-0.1s0.3-0.1,0.3-0.2L13.4,49.5z"/>
	<path class="st8" d="M16,49.9c-0.3,0-0.6-0.1-0.9-0.1c-0.3-0.1-0.5-0.2-0.7-0.4c-0.2-0.2-0.3-0.4-0.4-0.6c-0.1-0.2-0.2-0.5-0.2-0.7
		c0-0.3,0.1-0.5,0.2-0.8c0.1-0.2,0.3-0.4,0.5-0.6c0.2-0.2,0.5-0.3,0.8-0.4c0.3-0.1,0.7-0.1,1.1-0.1c0.3,0,0.6,0,1,0.1
		c0.3,0.1,0.6,0.1,0.9,0.2v-0.6c0-0.6-0.2-1-0.5-1.3c-0.3-0.3-0.7-0.5-1.3-0.5c-0.3,0-0.7,0.1-1,0.2c-0.3,0.1-0.7,0.3-1,0.6
		l-0.3-0.5c0.4-0.3,0.8-0.5,1.2-0.6c0.4-0.1,0.8-0.2,1.2-0.2c0.8,0,1.4,0.2,1.8,0.7c0.4,0.4,0.7,1,0.7,1.8v2.8
		c0,0.2,0.1,0.3,0.3,0.3v0.7c-0.1,0-0.1,0-0.2,0c-0.1,0-0.1,0-0.1,0c-0.2,0-0.3,0-0.4-0.1c-0.1-0.1-0.2-0.2-0.2-0.4l0-0.5
		c-0.3,0.4-0.6,0.7-1.1,0.9C16.9,49.8,16.5,49.9,16,49.9z M16.2,49.3c0.4,0,0.7-0.1,1.1-0.2c0.4-0.2,0.6-0.4,0.8-0.6
		c0.1-0.1,0.1-0.1,0.1-0.2c0-0.1,0.1-0.2,0.1-0.2v-1c-0.3-0.1-0.6-0.2-0.9-0.2s-0.6-0.1-0.9-0.1c-0.6,0-1.1,0.1-1.4,0.4
		s-0.5,0.6-0.5,1c0,0.2,0,0.3,0.1,0.5c0.1,0.2,0.2,0.3,0.3,0.4c0.1,0.1,0.3,0.2,0.5,0.3C15.7,49.2,16,49.3,16.2,49.3z"/>
	<path class="st8" d="M23.5,49.8c-0.4,0-0.8-0.1-1.2-0.3c-0.4-0.2-0.7-0.4-0.9-0.7s-0.5-0.6-0.6-1c-0.1-0.4-0.2-0.8-0.2-1.2
		c0-0.4,0.1-0.8,0.2-1.2c0.1-0.4,0.3-0.7,0.6-1c0.3-0.3,0.6-0.5,0.9-0.7c0.4-0.2,0.8-0.3,1.2-0.3c0.5,0,1,0.1,1.4,0.4
		c0.4,0.3,0.7,0.6,1,1v-1.3h0.7v6.3c0,0.4-0.1,0.8-0.2,1.1s-0.4,0.6-0.7,0.8c-0.3,0.2-0.6,0.4-1,0.5c-0.4,0.1-0.8,0.2-1.2,0.2
		c-0.7,0-1.3-0.1-1.7-0.4c-0.4-0.3-0.8-0.6-1.1-1l0.5-0.4c0.2,0.4,0.6,0.7,1,0.9s0.8,0.3,1.3,0.3c0.3,0,0.6,0,0.9-0.1
		c0.3-0.1,0.5-0.2,0.7-0.4s0.4-0.4,0.5-0.6c0.1-0.3,0.2-0.5,0.2-0.9v-1.2c-0.2,0.4-0.6,0.7-1,0.9C24.4,49.7,23.9,49.8,23.5,49.8z
		 M23.7,49.2c0.2,0,0.5,0,0.7-0.1c0.2-0.1,0.4-0.2,0.6-0.4c0.2-0.1,0.3-0.3,0.5-0.5s0.2-0.4,0.3-0.6v-1.9c-0.1-0.2-0.2-0.4-0.4-0.6
		s-0.3-0.4-0.5-0.5c-0.2-0.1-0.4-0.2-0.6-0.3c-0.2-0.1-0.4-0.1-0.7-0.1c-0.4,0-0.7,0.1-0.9,0.2c-0.3,0.1-0.5,0.3-0.7,0.6
		c-0.2,0.2-0.3,0.5-0.4,0.8c-0.1,0.3-0.2,0.6-0.2,0.9c0,0.3,0.1,0.7,0.2,1c0.1,0.3,0.3,0.6,0.5,0.8c0.2,0.2,0.5,0.4,0.7,0.5
		C23.1,49.1,23.4,49.2,23.7,49.2z"/>
	<path class="st8" d="M31.1,49.9c-0.5,0-0.9-0.1-1.3-0.3c-0.4-0.2-0.7-0.4-1-0.7c-0.3-0.3-0.5-0.6-0.7-1s-0.2-0.8-0.2-1.3
		c0-0.4,0.1-0.9,0.2-1.2c0.2-0.4,0.4-0.7,0.7-1c0.3-0.3,0.6-0.5,1-0.7c0.4-0.2,0.8-0.3,1.3-0.3s0.9,0.1,1.3,0.3
		c0.4,0.2,0.7,0.4,1,0.7c0.3,0.3,0.5,0.6,0.6,1c0.2,0.4,0.2,0.8,0.2,1.2c0,0.1,0,0.1,0,0.2c0,0.1,0,0.1,0,0.1h-5.3
		c0,0.3,0.1,0.6,0.2,0.9c0.1,0.3,0.3,0.5,0.5,0.7s0.4,0.4,0.7,0.5c0.3,0.1,0.6,0.2,0.9,0.2c0.2,0,0.4,0,0.6-0.1s0.4-0.1,0.6-0.2
		c0.2-0.1,0.3-0.2,0.5-0.4s0.2-0.3,0.3-0.5l0.7,0.2c-0.1,0.2-0.2,0.4-0.4,0.6c-0.2,0.2-0.4,0.4-0.6,0.5c-0.2,0.1-0.5,0.2-0.8,0.3
		C31.7,49.8,31.4,49.9,31.1,49.9z M33.4,46.3c0-0.3-0.1-0.6-0.2-0.9c-0.1-0.3-0.3-0.5-0.5-0.7s-0.4-0.4-0.7-0.5
		c-0.3-0.1-0.6-0.2-0.9-0.2c-0.3,0-0.6,0.1-0.9,0.2c-0.3,0.1-0.5,0.3-0.7,0.5c-0.2,0.2-0.4,0.4-0.5,0.7c-0.1,0.3-0.2,0.6-0.2,0.9
		H33.4z"/>
	<path class="st8" d="M42.4,49v0.7h-4.1V49h1.7v-5.1c-0.1,0.1-0.2,0.2-0.3,0.3c-0.2,0.1-0.3,0.2-0.5,0.3c-0.2,0.1-0.4,0.2-0.6,0.2
		c-0.2,0.1-0.4,0.1-0.5,0.1V44c0.2,0,0.4-0.1,0.6-0.2c0.2-0.1,0.4-0.2,0.6-0.4c0.2-0.1,0.4-0.3,0.5-0.4c0.1-0.1,0.2-0.2,0.2-0.2h0.8
		V49H42.4z"/>
</g>
<g>
	<path class="st8" d="M91.7,42.8c-0.2-0.3-0.6-0.5-1-0.7c-0.4-0.2-0.9-0.3-1.4-0.3c-0.8,0-1.3,0.1-1.7,0.4c-0.3,0.3-0.5,0.7-0.5,1.2
		c0,0.3,0,0.5,0.1,0.6c0.1,0.2,0.2,0.3,0.4,0.4c0.2,0.1,0.4,0.2,0.7,0.3c0.3,0.1,0.7,0.2,1.1,0.3c0.5,0.1,0.9,0.2,1.2,0.3
		c0.4,0.1,0.7,0.3,0.9,0.4c0.3,0.2,0.5,0.4,0.6,0.7c0.1,0.3,0.2,0.6,0.2,1c0,0.4-0.1,0.7-0.2,1s-0.4,0.5-0.6,0.7
		c-0.3,0.2-0.6,0.3-1,0.4c-0.4,0.1-0.8,0.1-1.2,0.1c-1.3,0-2.5-0.4-3.4-1.2l0.4-0.7c0.3,0.3,0.7,0.6,1.3,0.8
		c0.5,0.2,1.1,0.3,1.8,0.3c0.7,0,1.2-0.1,1.6-0.4c0.4-0.2,0.6-0.6,0.6-1.1c0-0.3-0.1-0.5-0.2-0.7c-0.1-0.2-0.3-0.3-0.5-0.5
		c-0.2-0.1-0.5-0.2-0.8-0.3s-0.7-0.2-1.1-0.3c-0.4-0.1-0.8-0.2-1.2-0.3c-0.3-0.1-0.6-0.3-0.8-0.4c-0.2-0.2-0.4-0.4-0.5-0.6
		c-0.1-0.2-0.2-0.5-0.2-0.9c0-0.4,0.1-0.7,0.2-1.1c0.1-0.3,0.4-0.6,0.6-0.8c0.3-0.2,0.6-0.4,1-0.5s0.8-0.2,1.2-0.2
		c0.6,0,1.1,0.1,1.5,0.3c0.4,0.2,0.8,0.4,1.2,0.7L91.7,42.8z"/>
	<path class="st8" d="M96.8,49.5c0,0-0.1,0.1-0.2,0.1c-0.1,0-0.2,0.1-0.3,0.1s-0.3,0.1-0.4,0.1s-0.3,0-0.5,0c-0.2,0-0.3,0-0.5-0.1
		s-0.3-0.1-0.4-0.2c-0.1-0.1-0.2-0.2-0.3-0.4C94.1,49,94,48.8,94,48.6v-4.5h-0.9v-0.6H94v-2.1h0.8v2.1h1.4v0.6h-1.4v4.2
		c0,0.2,0.1,0.4,0.2,0.5c0.1,0.1,0.3,0.2,0.5,0.2c0.2,0,0.4,0,0.6-0.1s0.3-0.1,0.3-0.2L96.8,49.5z"/>
	<path class="st8" d="M99.4,49.9c-0.3,0-0.6-0.1-0.9-0.1c-0.3-0.1-0.5-0.2-0.7-0.4c-0.2-0.2-0.3-0.4-0.4-0.6
		c-0.1-0.2-0.2-0.5-0.2-0.7c0-0.3,0.1-0.5,0.2-0.8c0.1-0.2,0.3-0.4,0.5-0.6c0.2-0.2,0.5-0.3,0.8-0.4c0.3-0.1,0.7-0.1,1.1-0.1
		c0.3,0,0.6,0,1,0.1c0.3,0.1,0.6,0.1,0.9,0.2v-0.6c0-0.6-0.2-1-0.5-1.3c-0.3-0.3-0.7-0.5-1.3-0.5c-0.3,0-0.7,0.1-1,0.2
		c-0.3,0.1-0.7,0.3-1,0.6l-0.3-0.5c0.4-0.3,0.8-0.5,1.2-0.6c0.4-0.1,0.8-0.2,1.2-0.2c0.8,0,1.4,0.2,1.8,0.7c0.4,0.4,0.7,1,0.7,1.8
		v2.8c0,0.2,0.1,0.3,0.3,0.3v0.7c-0.1,0-0.1,0-0.2,0c-0.1,0-0.1,0-0.1,0c-0.2,0-0.3,0-0.4-0.1c-0.1-0.1-0.2-0.2-0.2-0.4l0-0.5
		c-0.3,0.4-0.6,0.7-1.1,0.9C100.3,49.8,99.8,49.9,99.4,49.9z M99.6,49.3c0.4,0,0.7-0.1,1.1-0.2c0.4-0.2,0.6-0.4,0.8-0.6
		c0.1-0.1,0.1-0.1,0.1-0.2c0-0.1,0.1-0.2,0.1-0.2v-1c-0.3-0.1-0.6-0.2-0.9-0.2s-0.6-0.1-0.9-0.1c-0.6,0-1.1,0.1-1.4,0.4
		s-0.5,0.6-0.5,1c0,0.2,0,0.3,0.1,0.5c0.1,0.2,0.2,0.3,0.3,0.4c0.1,0.1,0.3,0.2,0.5,0.3C99.1,49.2,99.3,49.3,99.6,49.3z"/>
	<path class="st8" d="M106.8,49.8c-0.4,0-0.8-0.1-1.2-0.3c-0.4-0.2-0.7-0.4-0.9-0.7s-0.5-0.6-0.6-1c-0.1-0.4-0.2-0.8-0.2-1.2
		c0-0.4,0.1-0.8,0.2-1.2c0.1-0.4,0.3-0.7,0.6-1c0.3-0.3,0.6-0.5,0.9-0.7c0.4-0.2,0.8-0.3,1.2-0.3c0.5,0,1,0.1,1.4,0.4
		c0.4,0.3,0.7,0.6,1,1v-1.3h0.7v6.3c0,0.4-0.1,0.8-0.2,1.1s-0.4,0.6-0.7,0.8c-0.3,0.2-0.6,0.4-1,0.5c-0.4,0.1-0.8,0.2-1.2,0.2
		c-0.7,0-1.3-0.1-1.7-0.4c-0.4-0.3-0.8-0.6-1.1-1l0.5-0.4c0.2,0.4,0.6,0.7,1,0.9s0.8,0.3,1.3,0.3c0.3,0,0.6,0,0.9-0.1
		c0.3-0.1,0.5-0.2,0.7-0.4s0.4-0.4,0.5-0.6c0.1-0.3,0.2-0.5,0.2-0.9v-1.2c-0.2,0.4-0.6,0.7-1,0.9C107.7,49.7,107.3,49.8,106.8,49.8z
		 M107.1,49.2c0.2,0,0.5,0,0.7-0.1c0.2-0.1,0.4-0.2,0.6-0.4c0.2-0.1,0.3-0.3,0.5-0.5s0.2-0.4,0.3-0.6v-1.9c-0.1-0.2-0.2-0.4-0.4-0.6
		s-0.3-0.4-0.5-0.5c-0.2-0.1-0.4-0.2-0.6-0.3c-0.2-0.1-0.4-0.1-0.7-0.1c-0.4,0-0.7,0.1-0.9,0.2c-0.3,0.1-0.5,0.3-0.7,0.6
		c-0.2,0.2-0.3,0.5-0.4,0.8c-0.1,0.3-0.2,0.6-0.2,0.9c0,0.3,0.1,0.7,0.2,1c0.1,0.3,0.3,0.6,0.5,0.8c0.2,0.2,0.5,0.4,0.7,0.5
		C106.4,49.1,106.7,49.2,107.1,49.2z"/>
	<path class="st8" d="M114.4,49.9c-0.5,0-0.9-0.1-1.3-0.3c-0.4-0.2-0.7-0.4-1-0.7c-0.3-0.3-0.5-0.6-0.7-1s-0.2-0.8-0.2-1.3
		c0-0.4,0.1-0.9,0.2-1.2c0.2-0.4,0.4-0.7,0.7-1c0.3-0.3,0.6-0.5,1-0.7c0.4-0.2,0.8-0.3,1.3-0.3s0.9,0.1,1.3,0.3
		c0.4,0.2,0.7,0.4,1,0.7c0.3,0.3,0.5,0.6,0.6,1c0.2,0.4,0.2,0.8,0.2,1.2c0,0.1,0,0.1,0,0.2c0,0.1,0,0.1,0,0.1h-5.3
		c0,0.3,0.1,0.6,0.2,0.9c0.1,0.3,0.3,0.5,0.5,0.7s0.4,0.4,0.7,0.5c0.3,0.1,0.6,0.2,0.9,0.2c0.2,0,0.4,0,0.6-0.1s0.4-0.1,0.6-0.2
		c0.2-0.1,0.3-0.2,0.5-0.4s0.2-0.3,0.3-0.5l0.7,0.2c-0.1,0.2-0.2,0.4-0.4,0.6c-0.2,0.2-0.4,0.4-0.6,0.5c-0.2,0.1-0.5,0.2-0.8,0.3
		C115,49.8,114.7,49.9,114.4,49.9z M116.7,46.3c0-0.3-0.1-0.6-0.2-0.9c-0.1-0.3-0.3-0.5-0.5-0.7s-0.4-0.4-0.7-0.5
		c-0.3-0.1-0.6-0.2-0.9-0.2c-0.3,0-0.6,0.1-0.9,0.2c-0.3,0.1-0.5,0.3-0.7,0.5c-0.2,0.2-0.4,0.4-0.5,0.7c-0.1,0.3-0.2,0.6-0.2,0.9
		H116.7z"/>
	<path class="st8" d="M121.6,49.8c0-0.3,0-0.6,0.1-0.9c0.1-0.3,0.2-0.6,0.3-0.8c0.1-0.3,0.4-0.5,0.6-0.8c0.3-0.2,0.6-0.5,1-0.7
		c0.2-0.1,0.5-0.2,0.7-0.3c0.3-0.1,0.5-0.2,0.7-0.4s0.4-0.3,0.5-0.5s0.2-0.4,0.2-0.6c0-0.2,0-0.3-0.1-0.5c-0.1-0.2-0.2-0.3-0.3-0.4
		c-0.1-0.1-0.3-0.2-0.5-0.3c-0.2-0.1-0.4-0.1-0.7-0.1c-0.3,0-0.5,0-0.7,0.1s-0.4,0.2-0.6,0.3s-0.3,0.2-0.4,0.3
		c-0.1,0.1-0.2,0.2-0.2,0.3l-0.5-0.6c0,0,0.1-0.1,0.3-0.3c0.1-0.1,0.3-0.3,0.5-0.4c0.2-0.1,0.5-0.2,0.8-0.3c0.3-0.1,0.6-0.2,1-0.2
		c0.4,0,0.7,0.1,1,0.2s0.5,0.2,0.7,0.4c0.2,0.2,0.4,0.4,0.5,0.6c0.1,0.2,0.2,0.5,0.2,0.7c0,0.3-0.1,0.6-0.2,0.9
		c-0.2,0.2-0.3,0.5-0.6,0.6c-0.2,0.2-0.5,0.3-0.7,0.4c-0.2,0.1-0.4,0.2-0.6,0.3c-0.4,0.2-0.7,0.3-0.9,0.5c-0.2,0.2-0.4,0.3-0.6,0.5
		c-0.2,0.2-0.3,0.3-0.3,0.5c-0.1,0.2-0.1,0.4-0.2,0.7h4.2v0.7H121.6z"/>
</g>
<g>
	<path class="st8" d="M180.7,42.8c-0.2-0.3-0.6-0.5-1-0.7s-0.9-0.3-1.4-0.3c-0.8,0-1.3,0.1-1.7,0.4c-0.3,0.3-0.5,0.7-0.5,1.2
		c0,0.3,0,0.5,0.1,0.6c0.1,0.2,0.2,0.3,0.4,0.4c0.2,0.1,0.4,0.2,0.7,0.3c0.3,0.1,0.7,0.2,1.1,0.3c0.5,0.1,0.9,0.2,1.2,0.3
		c0.4,0.1,0.7,0.3,0.9,0.4c0.3,0.2,0.5,0.4,0.6,0.7c0.1,0.3,0.2,0.6,0.2,1c0,0.4-0.1,0.7-0.2,1c-0.2,0.3-0.4,0.5-0.6,0.7
		c-0.3,0.2-0.6,0.3-1,0.4s-0.8,0.1-1.2,0.1c-1.3,0-2.5-0.4-3.4-1.2l0.4-0.7c0.3,0.3,0.7,0.6,1.3,0.8c0.5,0.2,1.1,0.3,1.8,0.3
		c0.7,0,1.2-0.1,1.6-0.4c0.4-0.2,0.6-0.6,0.6-1.1c0-0.3-0.1-0.5-0.2-0.7c-0.1-0.2-0.3-0.3-0.5-0.5c-0.2-0.1-0.5-0.2-0.8-0.3
		c-0.3-0.1-0.7-0.2-1.1-0.3c-0.4-0.1-0.8-0.2-1.2-0.3c-0.3-0.1-0.6-0.3-0.8-0.4c-0.2-0.2-0.4-0.4-0.5-0.6c-0.1-0.2-0.2-0.5-0.2-0.9
		c0-0.4,0.1-0.7,0.2-1.1c0.1-0.3,0.4-0.6,0.6-0.8c0.3-0.2,0.6-0.4,1-0.5c0.4-0.1,0.8-0.2,1.2-0.2c0.6,0,1.1,0.1,1.5,0.3
		c0.4,0.2,0.8,0.4,1.2,0.7L180.7,42.8z"/>
	<path class="st8" d="M185.8,49.5c0,0-0.1,0.1-0.2,0.1c-0.1,0-0.2,0.1-0.3,0.1s-0.3,0.1-0.4,0.1s-0.3,0-0.5,0c-0.2,0-0.3,0-0.5-0.1
		s-0.3-0.1-0.4-0.2c-0.1-0.1-0.2-0.2-0.3-0.4c-0.1-0.2-0.1-0.3-0.1-0.5v-4.5h-0.9v-0.6h0.9v-2.1h0.8v2.1h1.4v0.6h-1.4v4.2
		c0,0.2,0.1,0.4,0.2,0.5c0.1,0.1,0.3,0.2,0.5,0.2c0.2,0,0.4,0,0.6-0.1s0.3-0.1,0.3-0.2L185.8,49.5z"/>
	<path class="st8" d="M188.4,49.9c-0.3,0-0.6-0.1-0.9-0.1c-0.3-0.1-0.5-0.2-0.7-0.4c-0.2-0.2-0.3-0.4-0.4-0.6
		c-0.1-0.2-0.2-0.5-0.2-0.7c0-0.3,0.1-0.5,0.2-0.8c0.1-0.2,0.3-0.4,0.5-0.6c0.2-0.2,0.5-0.3,0.8-0.4c0.3-0.1,0.7-0.1,1.1-0.1
		c0.3,0,0.6,0,1,0.1c0.3,0.1,0.6,0.1,0.9,0.2v-0.6c0-0.6-0.2-1-0.5-1.3c-0.3-0.3-0.7-0.5-1.3-0.5c-0.3,0-0.7,0.1-1,0.2
		c-0.3,0.1-0.7,0.3-1,0.6l-0.3-0.5c0.4-0.3,0.8-0.5,1.2-0.6c0.4-0.1,0.8-0.2,1.2-0.2c0.8,0,1.4,0.2,1.8,0.7c0.4,0.4,0.7,1,0.7,1.8
		v2.8c0,0.2,0.1,0.3,0.3,0.3v0.7c-0.1,0-0.1,0-0.2,0c-0.1,0-0.1,0-0.1,0c-0.2,0-0.3,0-0.4-0.1c-0.1-0.1-0.2-0.2-0.2-0.4l0-0.5
		c-0.3,0.4-0.6,0.7-1.1,0.9C189.3,49.8,188.8,49.9,188.4,49.9z M188.6,49.3c0.4,0,0.7-0.1,1.1-0.2c0.4-0.2,0.6-0.4,0.8-0.6
		c0.1-0.1,0.1-0.1,0.1-0.2c0-0.1,0.1-0.2,0.1-0.2v-1c-0.3-0.1-0.6-0.2-0.9-0.2s-0.6-0.1-0.9-0.1c-0.6,0-1.1,0.1-1.4,0.4
		s-0.5,0.6-0.5,1c0,0.2,0,0.3,0.1,0.5c0.1,0.2,0.2,0.3,0.3,0.4c0.1,0.1,0.3,0.2,0.5,0.3C188.1,49.2,188.3,49.3,188.6,49.3z"/>
	<path class="st8" d="M195.8,49.8c-0.4,0-0.8-0.1-1.2-0.3c-0.4-0.2-0.7-0.4-0.9-0.7s-0.5-0.6-0.6-1c-0.1-0.4-0.2-0.8-0.2-1.2
		c0-0.4,0.1-0.8,0.2-1.2c0.1-0.4,0.3-0.7,0.6-1c0.3-0.3,0.6-0.5,0.9-0.7c0.4-0.2,0.8-0.3,1.2-0.3c0.5,0,1,0.1,1.4,0.4
		c0.4,0.3,0.7,0.6,1,1v-1.3h0.7v6.3c0,0.4-0.1,0.8-0.2,1.1s-0.4,0.6-0.7,0.8c-0.3,0.2-0.6,0.4-1,0.5c-0.4,0.1-0.8,0.2-1.2,0.2
		c-0.7,0-1.3-0.1-1.7-0.4c-0.4-0.3-0.8-0.6-1.1-1l0.5-0.4c0.2,0.4,0.6,0.7,1,0.9s0.8,0.3,1.3,0.3c0.3,0,0.6,0,0.9-0.1
		c0.3-0.1,0.5-0.2,0.7-0.4s0.4-0.4,0.5-0.6c0.1-0.3,0.2-0.5,0.2-0.9v-1.2c-0.2,0.4-0.6,0.7-1,0.9C196.7,49.7,196.3,49.8,195.8,49.8z
		 M196.1,49.2c0.2,0,0.5,0,0.7-0.1c0.2-0.1,0.4-0.2,0.6-0.4c0.2-0.1,0.3-0.3,0.5-0.5s0.2-0.4,0.3-0.6v-1.9c-0.1-0.2-0.2-0.4-0.4-0.6
		s-0.3-0.4-0.5-0.5c-0.2-0.1-0.4-0.2-0.6-0.3c-0.2-0.1-0.4-0.1-0.7-0.1c-0.4,0-0.7,0.1-0.9,0.2c-0.3,0.1-0.5,0.3-0.7,0.6
		c-0.2,0.2-0.3,0.5-0.4,0.8c-0.1,0.3-0.2,0.6-0.2,0.9c0,0.3,0.1,0.7,0.2,1c0.1,0.3,0.3,0.6,0.5,0.8c0.2,0.2,0.5,0.4,0.7,0.5
		C195.4,49.1,195.7,49.2,196.1,49.2z"/>
	<path class="st8" d="M203.4,49.9c-0.5,0-0.9-0.1-1.3-0.3c-0.4-0.2-0.7-0.4-1-0.7c-0.3-0.3-0.5-0.6-0.7-1s-0.2-0.8-0.2-1.3
		c0-0.4,0.1-0.9,0.2-1.2c0.2-0.4,0.4-0.7,0.7-1c0.3-0.3,0.6-0.5,1-0.7c0.4-0.2,0.8-0.3,1.3-0.3s0.9,0.1,1.3,0.3
		c0.4,0.2,0.7,0.4,1,0.7c0.3,0.3,0.5,0.6,0.6,1c0.2,0.4,0.2,0.8,0.2,1.2c0,0.1,0,0.1,0,0.2c0,0.1,0,0.1,0,0.1h-5.3
		c0,0.3,0.1,0.6,0.2,0.9c0.1,0.3,0.3,0.5,0.5,0.7s0.4,0.4,0.7,0.5c0.3,0.1,0.6,0.2,0.9,0.2c0.2,0,0.4,0,0.6-0.1s0.4-0.1,0.6-0.2
		c0.2-0.1,0.3-0.2,0.5-0.4s0.2-0.3,0.3-0.5l0.7,0.2c-0.1,0.2-0.2,0.4-0.4,0.6c-0.2,0.2-0.4,0.4-0.6,0.5c-0.2,0.1-0.5,0.2-0.8,0.3
		C204,49.8,203.7,49.9,203.4,49.9z M205.7,46.3c0-0.3-0.1-0.6-0.2-0.9c-0.1-0.3-0.3-0.5-0.5-0.7s-0.4-0.4-0.7-0.5
		c-0.3-0.1-0.6-0.2-0.9-0.2c-0.3,0-0.6,0.1-0.9,0.2c-0.3,0.1-0.5,0.3-0.7,0.5c-0.2,0.2-0.4,0.4-0.5,0.7c-0.1,0.3-0.2,0.6-0.2,0.9
		H205.7z"/>
	<path class="st8" d="M214.1,46.9c0.5,0.1,1,0.3,1.3,0.7c0.3,0.4,0.5,0.9,0.5,1.5c0,0.4-0.1,0.7-0.2,1c-0.1,0.3-0.3,0.6-0.6,0.8
		c-0.2,0.2-0.5,0.4-0.9,0.5c-0.3,0.1-0.7,0.2-1.1,0.2c-0.6,0-1.1-0.1-1.6-0.4s-0.8-0.6-1-1l0.6-0.5c0.2,0.4,0.4,0.6,0.8,0.8
		s0.8,0.3,1.3,0.3c0.6,0,1.1-0.1,1.4-0.4s0.5-0.7,0.5-1.3c0-0.6-0.2-1-0.5-1.3c-0.4-0.3-0.9-0.5-1.6-0.5h-0.3v-0.7h0.3
		c0.6,0,1.1-0.1,1.4-0.4s0.5-0.7,0.5-1.1c0-0.2,0-0.4-0.1-0.6c-0.1-0.2-0.2-0.3-0.4-0.5c-0.2-0.1-0.3-0.2-0.6-0.3s-0.4-0.1-0.7-0.1
		c-0.5,0-0.9,0.1-1.2,0.3c-0.3,0.2-0.6,0.5-0.8,0.8l-0.5-0.5c0.1-0.2,0.2-0.4,0.4-0.6s0.4-0.3,0.6-0.4c0.2-0.1,0.5-0.2,0.7-0.3
		c0.3-0.1,0.6-0.1,0.8-0.1c0.4,0,0.7,0.1,1,0.2c0.3,0.1,0.6,0.2,0.8,0.4s0.4,0.4,0.5,0.7c0.1,0.3,0.2,0.6,0.2,0.9
		c0,0.2,0,0.5-0.1,0.7c-0.1,0.2-0.2,0.4-0.3,0.6s-0.3,0.3-0.5,0.4C214.5,46.8,214.3,46.9,214.1,46.9z"/>
</g>
<polygon class="st3" points="33.8,4.8 21.5,18.5 16.6,14.4 15,16.3 21.7,22 35.6,6.4 "/>
</svg>
