<svg xmlns="http://www.w3.org/2000/svg" viewBox="0 0 174.84 120"><defs><style>.cls-1{fill:#949494;}</style></defs><title>Asset 5</title><g id="Layer_2" data-name="Layer 2"><g id="Layer_1-2" data-name="Layer 1"><path class="cls-1" d="M140.35,24.74H116.12V16.3a8.28,8.28,0,1,0-4,0v8.44H30.23V16.3a8.28,8.28,0,1,0-4,0v8.44H2a2,2,0,0,0-2,2V118a2,2,0,0,0,2,2H140.35a2,2,0,0,0,2-2V26.74A2,2,0,0,0,140.35,24.74ZM109.84,8.28a4.28,4.28,0,1,1,4.28,4.28A4.28,4.28,0,0,1,109.84,8.28ZM24,8.28a4.28,4.28,0,1,1,4.28,4.28A4.28,4.28,0,0,1,24,8.28ZM138.35,116H4V28.74H138.35Z"/><path class="cls-1" d="M114.12,88.81H28.23a7.29,7.29,0,1,0,0,14.58h85.88a7.29,7.29,0,1,0,0-14.58Zm0,10.58H28.23a3.29,3.29,0,1,1,0-6.58h85.88a3.29,3.29,0,1,1,0,6.58Z"/><path class="cls-1" d="M28.23,76.27A13.9,13.9,0,0,0,31.3,48.82a2,2,0,0,0-1.14.08L18,53.44a2,2,0,0,0-.91.69A13.88,13.88,0,0,0,28.23,76.27ZM19.95,57l11-4.11a9.92,9.92,0,1,1-11,4.11Z"/><path class="cls-1" d="M114.12,76.27a13.88,13.88,0,0,0,11.17-22.15,2,2,0,0,0-.91-.69l-12.19-4.54a2,2,0,0,0-1.14-.08,13.9,13.9,0,0,0,3.06,27.45Zm-2.74-23.41,11,4.11a9.79,9.79,0,0,1,1.62,5.4,9.9,9.9,0,1,1-12.64-9.51Z"/><path class="cls-1" d="M165.28,26.16l.08-.14a7.5,7.5,0,0,0-12.9-7.65l-.08.13a16.26,16.26,0,0,0-1.21,14.32A2,2,0,0,0,153,34.09l.25,0A16.26,16.26,0,0,0,165.28,26.16ZM161.9,24l-.06.11a12.32,12.32,0,0,1-7.44,5.68,12.33,12.33,0,0,1,1.42-9.25h0l.06-.09a3.3,3.3,0,0,1,2.87-1.8,3.84,3.84,0,0,1,1.93.56A3.31,3.31,0,0,1,161.9,24Z"/><path class="cls-1" d="M168.9,38.83l-.07,0h0a16.26,16.26,0,0,0-14,3.3,2,2,0,0,0-.54,2.4,16.27,16.27,0,0,0,11.27,8.94l.14,0a8.7,8.7,0,0,0,1.82.2,7.51,7.51,0,0,0,1.37-14.85Zm1.84,8.09a3.31,3.31,0,0,1-4.19,2.65l-.12,0a12.33,12.33,0,0,1-7.71-5.31A12.32,12.32,0,0,1,168,42.71l.44-2-.32,2A3.31,3.31,0,0,1,170.74,46.92Z"/></g></g></svg>