<svg id="Layer_1" data-name="Layer 1" xmlns="http://www.w3.org/2000/svg" xmlns:xlink="http://www.w3.org/1999/xlink" viewBox="0 0 1920 816"><defs><style>.cls-1,.cls-3,.cls-6,.cls-7{fill:none;}.cls-2{clip-path:url(#clip-path);}.cls-3,.cls-6,.cls-7{stroke:#fff;stroke-miterlimit:10;opacity:0.3;}.cls-3{stroke-width:40px;}.cls-4{fill:#0076cf;}.cls-5{clip-path:url(#clip-path-2);}.cls-6{stroke-width:20px;}.cls-7{stroke-width:60px;}.cls-8{clip-path:url(#clip-path-3);}.cls-9{clip-path:url(#clip-path-4);}.cls-10{opacity:0.2;}.cls-11{fill:#fff;}.cls-12{clip-path:url(#clip-path-5);}.cls-13{clip-path:url(#clip-path-6);}.cls-14{clip-path:url(#clip-path-7);}</style><clipPath id="clip-path"><rect class="cls-1" y="978" width="1920" height="816"/></clipPath><clipPath id="clip-path-2"><rect class="cls-1" width="1920" height="816"/></clipPath><clipPath id="clip-path-3"><rect class="cls-1" y="-993" width="1920" height="816"/></clipPath><clipPath id="clip-path-4"><rect class="cls-1" x="-2227" y="641" width="1922" height="1490"/></clipPath><clipPath id="clip-path-5"><rect class="cls-1" x="-2227" y="-981" width="1922" height="1490"/></clipPath><clipPath id="clip-path-6"><rect class="cls-1" x="2158" y="-177" width="604" height="293" transform="translate(4920 -61) rotate(180)"/></clipPath><clipPath id="clip-path-7"><rect class="cls-1" x="2158" y="670" width="604" height="293" transform="translate(4920 1633) rotate(180)"/></clipPath></defs><title>Background-CirclesB</title><g class="cls-2"><circle class="cls-3" cx="1519" cy="1040" r="502"/></g><rect class="cls-4" width="1920" height="816"/><g class="cls-5"><circle class="cls-6" cx="1852" cy="720" r="380"/><circle class="cls-7" cx="-83" cy="700" r="502"/><circle class="cls-3" cx="1519" cy="62" r="502"/></g><g class="cls-8"><circle class="cls-6" cx="1852" cy="-273" r="380"/><circle class="cls-7" cx="-83" cy="-293" r="502"/></g><g class="cls-9"><g class="cls-10"><polygon class="cls-11" points="227.82 822.3 -1282.31 2447.08 -1315.34 2447.08 227.82 786.77 227.82 822.3"/><polygon class="cls-11" points="227.82 727.38 -1370.54 2447.08 -1403.56 2447.08 227.82 691.84 227.82 727.38"/><polygon class="cls-11" points="220.26 640.59 -1458.77 2447.08 -1491.79 2447.08 187.23 640.59 220.26 640.59"/><polygon class="cls-11" points="43.8 640.59 -1635.22 2447.08 -1668.25 2447.08 10.78 640.59 43.8 640.59"/><text/></g></g><g class="cls-12"><g class="cls-10"><polygon class="cls-11" points="227.82 -799.7 -1282.31 825.08 -1315.34 825.08 227.82 -835.23 227.82 -799.7"/><polygon class="cls-11" points="227.82 -894.62 -1370.54 825.08 -1403.56 825.08 227.82 -930.16 227.82 -894.62"/><polygon class="cls-11" points="220.26 -981.41 -1458.77 825.08 -1491.79 825.08 187.23 -981.41 220.26 -981.41"/><polygon class="cls-11" points="227.82 -704.77 -1194.08 825.08 -1227.11 825.08 227.82 -740.31 227.82 -704.77"/><polygon class="cls-11" points="227.82 -609.85 -1105.86 825.08 -1138.88 825.08 227.82 -645.38 227.82 -609.85"/><polygon class="cls-11" points="227.82 -514.92 -1017.63 825.08 -1050.65 825.08 227.82 -550.46 227.82 -514.92"/><polygon class="cls-11" points="227.82 -420 -929.4 825.08 -962.43 825.08 227.82 -455.53 227.82 -420"/><polygon class="cls-11" points="43.8 -981.41 -1635.22 825.08 -1668.25 825.08 10.78 -981.41 43.8 -981.41"/><text/><polygon class="cls-11" points="227.82 536.39 -40.49 825.08 -73.52 825.08 227.82 500.86 227.82 536.39"/><polygon class="cls-11" points="227.82 441.47 -128.72 825.08 -161.74 825.08 227.82 405.94 227.82 441.47"/><polygon class="cls-11" points="227.82 346.55 -216.94 825.08 -249.97 825.08 227.82 311.01 227.82 346.55"/><polygon class="cls-11" points="227.82 631.32 47.74 825.08 14.71 825.08 227.82 595.79 227.82 631.32"/><polygon class="cls-11" points="227.82 726.24 135.96 825.08 102.94 825.08 227.82 690.71 227.82 726.24"/><polygon class="cls-11" points="227.82 821.17 224.19 825.08 191.17 825.08 227.82 785.63 227.82 821.17"/><polygon class="cls-11" points="227.82 -128.08 -658.08 825.08 -691.11 825.08 227.82 -163.62 227.82 -128.08"/><polygon class="cls-11" points="227.82 -223.01 -746.31 825.08 -779.34 825.08 227.82 -258.54 227.82 -223.01"/><polygon class="cls-11" points="227.82 -317.93 -834.54 825.08 -867.56 825.08 227.82 -353.46 227.82 -317.93"/><polygon class="cls-11" points="227.82 -33.16 -569.86 825.08 -602.88 825.08 227.82 -68.69 227.82 -33.16"/><polygon class="cls-11" points="227.82 61.77 -481.63 825.08 -514.65 825.08 227.82 26.24 227.82 61.77"/><polygon class="cls-11" points="227.82 156.69 -393.4 825.08 -426.43 825.08 227.82 121.16 227.82 156.69"/><polygon class="cls-11" points="227.82 251.62 -305.17 825.08 -338.2 825.08 227.82 216.09 227.82 251.62"/></g></g><g class="cls-13"><path class="cls-4" d="M1920.15,40.75a15.76,15.76,0,1,0-20.87,7.86A15.76,15.76,0,0,0,1920.15,40.75Z"/><path class="cls-4" d="M1852.64,36.65a15.76,15.76,0,1,0,20.87-7.85A15.77,15.77,0,0,0,1852.64,36.65Z"/><path class="cls-4" d="M1923.45,153.72A15.77,15.77,0,1,0,1938,170.65,15.77,15.77,0,0,0,1923.45,153.72Z"/></g><g class="cls-14"><path class="cls-4" d="M1939.4,652.66a15.77,15.77,0,1,0-21-7.4A15.77,15.77,0,0,0,1939.4,652.66Z"/><path class="cls-4" d="M1904,634.55a15.76,15.76,0,1,0-21-7.39A15.75,15.75,0,0,0,1904,634.55Z"/><path class="cls-4" d="M1886.5,746.46a15.77,15.77,0,1,0,22.3-.25A15.77,15.77,0,0,0,1886.5,746.46Z"/><path class="cls-4" d="M1847.26,763.86a15.77,15.77,0,1,0-.25-22.29A15.76,15.76,0,0,0,1847.26,763.86Z"/></g></svg>