<svg id="Layer_1" data-name="Layer 1" xmlns="http://www.w3.org/2000/svg" xmlns:xlink="http://www.w3.org/1999/xlink" viewBox="0 0 1920 816"><defs><style>.cls-1,.cls-3,.cls-6,.cls-7{fill:none;}.cls-2{clip-path:url(#clip-path);}.cls-3,.cls-6,.cls-7{stroke:#fff;stroke-miterlimit:10;opacity:0.3;}.cls-3{stroke-width:40px;}.cls-4{fill:#5bc2e7;}.cls-5{clip-path:url(#clip-path-2);}.cls-6{stroke-width:20px;}.cls-7{stroke-width:60px;}.cls-8{clip-path:url(#clip-path-3);}.cls-9{clip-path:url(#clip-path-4);}.cls-10{opacity:0.2;}.cls-11{fill:#fff;}.cls-12{clip-path:url(#clip-path-5);}.cls-13{fill:#0076cf;}</style><clipPath id="clip-path"><rect class="cls-1" y="970" width="1920" height="816"/></clipPath><clipPath id="clip-path-2"><rect class="cls-1" width="1920" height="816"/></clipPath><clipPath id="clip-path-3"><rect class="cls-1" y="-978" width="1920" height="816"/></clipPath><clipPath id="clip-path-4"><rect class="cls-1" x="-2227" y="-337" width="1922" height="1490"/></clipPath><clipPath id="clip-path-5"><rect class="cls-1" x="2158" y="-308" width="604" height="293" transform="translate(4920 -323) rotate(180)"/></clipPath></defs><title>Background-CirclesLB</title><g class="cls-2"><circle class="cls-3" cx="1519" cy="1032" r="502"/></g><rect class="cls-4" width="1920" height="816"/><g class="cls-5"><circle class="cls-6" cx="1852" cy="720" r="380"/><circle class="cls-7" cx="-83" cy="700" r="502"/><circle class="cls-3" cx="1519" cy="62" r="502"/></g><g class="cls-8"><circle class="cls-6" cx="1852" cy="-258" r="380"/><circle class="cls-7" cx="-83" cy="-278" r="502"/></g><g class="cls-9"><g class="cls-10"><polygon class="cls-11" points="227.82 -155.7 -1282.31 1469.08 -1315.34 1469.08 227.82 -191.23 227.82 -155.7"/><polygon class="cls-11" points="227.82 -250.62 -1370.54 1469.08 -1403.56 1469.08 227.82 -286.16 227.82 -250.62"/><polygon class="cls-11" points="220.26 -337.41 -1458.77 1469.08 -1491.79 1469.08 187.23 -337.41 220.26 -337.41"/><polygon class="cls-11" points="227.82 -60.77 -1194.08 1469.08 -1227.11 1469.08 227.82 -96.31 227.82 -60.77"/><polygon class="cls-11" points="227.82 34.15 -1105.86 1469.08 -1138.88 1469.08 227.82 -1.38 227.82 34.15"/><polygon class="cls-11" points="227.82 129.08 -1017.63 1469.08 -1050.65 1469.08 227.82 93.54 227.82 129.08"/><polygon class="cls-11" points="227.82 224 -929.4 1469.08 -962.43 1469.08 227.82 188.47 227.82 224"/><polygon class="cls-11" points="43.8 -337.41 -1635.22 1469.08 -1668.25 1469.08 10.78 -337.41 43.8 -337.41"/><text/><polygon class="cls-11" points="227.82 515.92 -658.08 1469.08 -691.11 1469.08 227.82 480.38 227.82 515.92"/><polygon class="cls-11" points="227.82 420.99 -746.31 1469.08 -779.34 1469.08 227.82 385.46 227.82 420.99"/><polygon class="cls-11" points="227.82 326.07 -834.54 1469.08 -867.56 1469.08 227.82 290.54 227.82 326.07"/><polygon class="cls-11" points="227.82 610.84 -569.86 1469.08 -602.88 1469.08 227.82 575.31 227.82 610.84"/><polygon class="cls-11" points="227.82 705.77 -481.63 1469.08 -514.65 1469.08 227.82 670.24 227.82 705.77"/><polygon class="cls-11" points="227.82 800.69 -393.4 1469.08 -426.43 1469.08 227.82 765.16 227.82 800.69"/></g></g><g class="cls-12"><path class="cls-13" d="M1923.45,22.72A15.77,15.77,0,1,0,1938,39.65,15.77,15.77,0,0,0,1923.45,22.72Z"/></g></svg>