<svg id="Layer_1" data-name="Layer 1" xmlns="http://www.w3.org/2000/svg" xmlns:xlink="http://www.w3.org/1999/xlink" viewBox="0 0 1920 816"><defs><style>.cls-1,.cls-3,.cls-6,.cls-7{fill:none;}.cls-2{clip-path:url(#clip-path);}.cls-3,.cls-6,.cls-7{stroke:#fff;stroke-miterlimit:10;opacity:0.3;}.cls-3{stroke-width:40px;}.cls-4{fill:#ff7500;}.cls-5{clip-path:url(#clip-path-2);}.cls-6{stroke-width:20px;}.cls-7{stroke-width:60px;}.cls-8{clip-path:url(#clip-path-3);}.cls-9{clip-path:url(#clip-path-4);}.cls-10{opacity:0.2;}.cls-11{fill:#fff;}.cls-12{clip-path:url(#clip-path-5);}</style><clipPath id="clip-path"><rect class="cls-1" y="996" width="1920" height="816"/></clipPath><clipPath id="clip-path-2"><rect class="cls-1" width="1920" height="816"/></clipPath><clipPath id="clip-path-3"><rect class="cls-1" y="-970" width="1920" height="816"/></clipPath><clipPath id="clip-path-4"><rect class="cls-1" x="-2227" y="322" width="1922" height="1490"/></clipPath><clipPath id="clip-path-5"><rect class="cls-1" x="-2227" y="-1307" width="1922" height="1490"/></clipPath></defs><title>Background-CirclesO</title><g class="cls-2"><circle class="cls-3" cx="1519" cy="1058" r="502"/></g><rect class="cls-4" width="1920" height="816"/><g class="cls-5"><circle class="cls-6" cx="1852" cy="720" r="380"/><circle class="cls-7" cx="-83" cy="700" r="502"/><circle class="cls-3" cx="1519" cy="62" r="502"/></g><g class="cls-8"><circle class="cls-6" cx="1852" cy="-250" r="380"/><circle class="cls-7" cx="-83" cy="-270" r="502"/></g><g class="cls-9"><g class="cls-10"><polygon class="cls-11" points="227.82 503.3 -1282.31 2128.08 -1315.34 2128.08 227.82 467.77 227.82 503.3"/><polygon class="cls-11" points="227.82 408.38 -1370.54 2128.08 -1403.56 2128.08 227.82 372.84 227.82 408.38"/><polygon class="cls-11" points="220.26 321.59 -1458.77 2128.08 -1491.79 2128.08 187.23 321.59 220.26 321.59"/><polygon class="cls-11" points="227.82 598.23 -1194.08 2128.08 -1227.11 2128.08 227.82 562.69 227.82 598.23"/><polygon class="cls-11" points="227.82 693.15 -1105.86 2128.08 -1138.88 2128.08 227.82 657.62 227.82 693.15"/><polygon class="cls-11" points="227.82 788.08 -1017.63 2128.08 -1050.65 2128.08 227.82 752.54 227.82 788.08"/><polygon class="cls-11" points="43.8 321.59 -1635.22 2128.08 -1668.25 2128.08 10.78 321.59 43.8 321.59"/><text/></g></g><g class="cls-12"><g class="cls-10"><polygon class="cls-11" points="227.82 -1125.7 -1282.31 499.08 -1315.34 499.08 227.82 -1161.23 227.82 -1125.7"/><polygon class="cls-11" points="227.82 -1220.62 -1370.54 499.08 -1403.56 499.08 227.82 -1256.16 227.82 -1220.62"/><polygon class="cls-11" points="220.26 -1307.41 -1458.77 499.08 -1491.79 499.08 187.23 -1307.41 220.26 -1307.41"/><polygon class="cls-11" points="227.82 -1030.77 -1194.08 499.08 -1227.11 499.08 227.82 -1066.31 227.82 -1030.77"/><polygon class="cls-11" points="227.82 -935.85 -1105.86 499.08 -1138.88 499.08 227.82 -971.38 227.82 -935.85"/><polygon class="cls-11" points="227.82 -840.92 -1017.63 499.08 -1050.65 499.08 227.82 -876.46 227.82 -840.92"/><polygon class="cls-11" points="227.82 -746 -929.4 499.08 -962.43 499.08 227.82 -781.53 227.82 -746"/><polygon class="cls-11" points="43.8 -1307.41 -1635.22 499.08 -1668.25 499.08 10.78 -1307.41 43.8 -1307.41"/><text/><polygon class="cls-11" points="227.82 210.4 -40.49 499.08 -73.52 499.08 227.82 174.86 227.82 210.4"/><polygon class="cls-11" points="227.82 115.47 -128.72 499.08 -161.74 499.08 227.82 79.94 227.82 115.47"/><polygon class="cls-11" points="227.82 20.55 -216.94 499.08 -249.97 499.08 227.82 -14.99 227.82 20.55"/><polygon class="cls-11" points="227.82 305.32 47.74 499.08 14.71 499.08 227.82 269.79 227.82 305.32"/><polygon class="cls-11" points="227.82 400.24 135.96 499.08 102.94 499.08 227.82 364.71 227.82 400.24"/><polygon class="cls-11" points="227.82 495.17 224.19 499.08 191.17 499.08 227.82 459.63 227.82 495.17"/><polygon class="cls-11" points="227.82 -454.08 -658.08 499.08 -691.11 499.08 227.82 -489.62 227.82 -454.08"/><polygon class="cls-11" points="227.82 -549.01 -746.31 499.08 -779.34 499.08 227.82 -584.54 227.82 -549.01"/><polygon class="cls-11" points="227.82 -643.93 -834.54 499.08 -867.56 499.08 227.82 -679.47 227.82 -643.93"/><polygon class="cls-11" points="227.82 -359.16 -569.86 499.08 -602.88 499.08 227.82 -394.69 227.82 -359.16"/><polygon class="cls-11" points="227.82 -264.23 -481.63 499.08 -514.65 499.08 227.82 -299.76 227.82 -264.23"/><polygon class="cls-11" points="227.82 -169.31 -393.4 499.08 -426.43 499.08 227.82 -204.84 227.82 -169.31"/><polygon class="cls-11" points="227.82 -74.38 -305.17 499.08 -338.2 499.08 227.82 -109.91 227.82 -74.38"/></g></g></svg>