<svg id="Layer_1" data-name="Layer 1" xmlns="http://www.w3.org/2000/svg" xmlns:xlink="http://www.w3.org/1999/xlink" viewBox="0 0 1920 816"><defs><style>.cls-1,.cls-3,.cls-6,.cls-7{fill:none;}.cls-2{clip-path:url(#clip-path);}.cls-3,.cls-6,.cls-7{stroke:#fff;stroke-miterlimit:10;opacity:0.3;}.cls-3{stroke-width:40px;}.cls-4{fill:#d0006f;}.cls-5{clip-path:url(#clip-path-2);}.cls-6{stroke-width:20px;}.cls-7{stroke-width:60px;}.cls-8{clip-path:url(#clip-path-3);}.cls-9{opacity:0.2;}.cls-10{fill:#fff;}.cls-11{clip-path:url(#clip-path-4);}.cls-12{fill:#0076cf;}</style><clipPath id="clip-path"><rect class="cls-1" y="993" width="1920" height="816"/></clipPath><clipPath id="clip-path-2"><rect class="cls-1" width="1920" height="816"/></clipPath><clipPath id="clip-path-3"><rect class="cls-1" x="-2227" y="12" width="1922" height="1490"/></clipPath><clipPath id="clip-path-4"><rect class="cls-1" x="2158" y="816" width="604" height="293" transform="translate(4920 1925) rotate(180)"/></clipPath></defs><title>Background-CirclesP</title><g class="cls-2"><circle class="cls-3" cx="1519" cy="1055" r="502"/></g><rect class="cls-4" width="1920" height="816"/><g class="cls-5"><circle class="cls-6" cx="1852" cy="720" r="380"/><circle class="cls-7" cx="-83" cy="700" r="502"/><circle class="cls-3" cx="1519" cy="62" r="502"/></g><g class="cls-8"><g class="cls-9"><polygon class="cls-10" points="227.82 193.3 -1282.31 1818.08 -1315.34 1818.08 227.82 157.77 227.82 193.3"/><polygon class="cls-10" points="227.82 98.38 -1370.54 1818.08 -1403.56 1818.08 227.82 62.84 227.82 98.38"/><polygon class="cls-10" points="220.26 11.59 -1458.77 1818.08 -1491.79 1818.08 187.23 11.59 220.26 11.59"/><polygon class="cls-10" points="227.82 288.23 -1194.08 1818.08 -1227.11 1818.08 227.82 252.69 227.82 288.23"/><polygon class="cls-10" points="227.82 383.15 -1105.86 1818.08 -1138.88 1818.08 227.82 347.62 227.82 383.15"/><polygon class="cls-10" points="227.82 478.08 -1017.63 1818.08 -1050.65 1818.08 227.82 442.54 227.82 478.08"/><polygon class="cls-10" points="227.82 573 -929.4 1818.08 -962.43 1818.08 227.82 537.47 227.82 573"/><polygon class="cls-10" points="43.8 11.59 -1635.22 1818.08 -1668.25 1818.08 10.78 11.59 43.8 11.59"/><text/><polygon class="cls-10" points="227.82 769.99 -746.31 1818.08 -779.34 1818.08 227.82 734.46 227.82 769.99"/><polygon class="cls-10" points="227.82 675.07 -834.54 1818.08 -867.56 1818.08 227.82 639.53 227.82 675.07"/></g></g><g class="cls-11"><path class="cls-12" d="M1939.4,798.66a15.77,15.77,0,1,0-21-7.4A15.77,15.77,0,0,0,1939.4,798.66Z"/><path class="cls-12" d="M1904,780.55a15.76,15.76,0,1,0-21-7.39A15.75,15.75,0,0,0,1904,780.55Z"/></g></svg>