<svg id="Layer_1" data-name="Layer 1" xmlns="http://www.w3.org/2000/svg" xmlns:xlink="http://www.w3.org/1999/xlink" viewBox="0 0 1920 816"><defs><style>.cls-1,.cls-4,.cls-5,.cls-6{fill:none;}.cls-2{fill:#ffb81c;}.cls-3{clip-path:url(#clip-path);}.cls-4,.cls-5,.cls-6{stroke:#fff;stroke-miterlimit:10;opacity:0.3;}.cls-4{stroke-width:20px;}.cls-5{stroke-width:60px;}.cls-6{stroke-width:40px;}.cls-7{clip-path:url(#clip-path-2);}.cls-8{clip-path:url(#clip-path-3);}.cls-9{opacity:0.2;}.cls-10{fill:#fff;}</style><clipPath id="clip-path"><rect class="cls-1" width="1920" height="816"/></clipPath><clipPath id="clip-path-2"><rect class="cls-1" y="-996" width="1920" height="816"/></clipPath><clipPath id="clip-path-3"><rect class="cls-1" x="-2227" y="-674" width="1922" height="1490"/></clipPath></defs><title>Background-CirclesY</title><rect class="cls-2" width="1920" height="816"/><g class="cls-3"><circle class="cls-4" cx="1852" cy="720" r="380"/><circle class="cls-5" cx="-83" cy="700" r="502"/><circle class="cls-6" cx="1519" cy="62" r="502"/></g><g class="cls-7"><circle class="cls-4" cx="1852" cy="-276" r="380"/><circle class="cls-5" cx="-83" cy="-296" r="502"/></g><g class="cls-8"><g class="cls-9"><polygon class="cls-10" points="227.82 -492.7 -1282.31 1132.08 -1315.34 1132.08 227.82 -528.23 227.82 -492.7"/><polygon class="cls-10" points="227.82 -587.62 -1370.54 1132.08 -1403.56 1132.08 227.82 -623.16 227.82 -587.62"/><polygon class="cls-10" points="220.26 -674.41 -1458.77 1132.08 -1491.79 1132.08 187.23 -674.41 220.26 -674.41"/><polygon class="cls-10" points="227.82 -397.77 -1194.08 1132.08 -1227.11 1132.08 227.82 -433.31 227.82 -397.77"/><polygon class="cls-10" points="227.82 -302.85 -1105.86 1132.08 -1138.88 1132.08 227.82 -338.38 227.82 -302.85"/><polygon class="cls-10" points="227.82 -207.92 -1017.63 1132.08 -1050.65 1132.08 227.82 -243.46 227.82 -207.92"/><polygon class="cls-10" points="227.82 -113 -929.4 1132.08 -962.43 1132.08 227.82 -148.53 227.82 -113"/><polygon class="cls-10" points="43.8 -674.41 -1635.22 1132.08 -1668.25 1132.08 10.78 -674.41 43.8 -674.41"/><text/><polygon class="cls-10" points="227.82 843.39 -40.49 1132.08 -73.52 1132.08 227.82 807.86 227.82 843.39"/><polygon class="cls-10" points="227.82 748.47 -128.72 1132.08 -161.74 1132.08 227.82 712.94 227.82 748.47"/><polygon class="cls-10" points="227.82 653.54 -216.94 1132.08 -249.97 1132.08 227.82 618.01 227.82 653.54"/><polygon class="cls-10" points="227.82 178.92 -658.08 1132.08 -691.11 1132.08 227.82 143.38 227.82 178.92"/><polygon class="cls-10" points="227.82 83.99 -746.31 1132.08 -779.34 1132.08 227.82 48.46 227.82 83.99"/><polygon class="cls-10" points="227.82 -10.93 -834.54 1132.08 -867.56 1132.08 227.82 -46.47 227.82 -10.93"/><polygon class="cls-10" points="227.82 273.84 -569.86 1132.08 -602.88 1132.08 227.82 238.31 227.82 273.84"/><polygon class="cls-10" points="227.82 368.77 -481.63 1132.08 -514.65 1132.08 227.82 333.24 227.82 368.77"/><polygon class="cls-10" points="227.82 463.69 -393.4 1132.08 -426.43 1132.08 227.82 428.16 227.82 463.69"/><polygon class="cls-10" points="227.82 558.62 -305.17 1132.08 -338.2 1132.08 227.82 523.09 227.82 558.62"/></g></g></svg>