<?xml version="1.0" encoding="utf-8"?>
<!-- Generator: Adobe Illustrator 22.0.1, SVG Export Plug-In . SVG Version: 6.00 Build 0)  -->
<svg version="1.1" xmlns="http://www.w3.org/2000/svg" xmlns:xlink="http://www.w3.org/1999/xlink" x="0px" y="0px"
	 viewBox="0 0 700 700" style="enable-background:new 0 0 700 700;" xml:space="preserve">
<style type="text/css">
	.st0{fill:url(#SVGID_1_);}
	.st1{fill:url(#SVGID_2_);stroke:url(#SVGID_3_);stroke-width:21.1191;stroke-miterlimit:10;}
	.st2{fill:url(#SVGID_4_);stroke:url(#SVGID_5_);stroke-width:21.1191;stroke-miterlimit:10;}
	.st3{fill:#FFFFFF;stroke:url(#SVGID_6_);stroke-width:7.0397;stroke-linecap:round;stroke-linejoin:round;}
	.st4{fill:url(#SVGID_7_);}
	.st5{fill:url(#SVGID_8_);}
	.st6{fill:none;stroke:#00BDCD;stroke-width:2.2189;stroke-miterlimit:10;}
	.st7{fill:#FFFCF8;}
	.st8{fill:#00BDCD;}
	.st9{fill:url(#SVGID_9_);}
	.st10{display:none;}
</style>
<g id="Icons">
	<linearGradient id="SVGID_1_" gradientUnits="userSpaceOnUse" x1="246.2509" y1="584.3689" x2="459.7888" y2="584.3689">
		<stop  offset="0" style="stop-color:#00BDCD"/>
		<stop  offset="0.9987" style="stop-color:#0085C7"/>
	</linearGradient>
	<rect x="246.3" y="549.2" class="st0" width="213.5" height="70.4"/>
	<linearGradient id="SVGID_2_" gradientUnits="userSpaceOnUse" x1="121.6871" y1="647.1396" x2="584.3526" y2="647.1396">
		<stop  offset="0" style="stop-color:#C7EDF2"/>
		<stop  offset="0.9987" style="stop-color:#C4DEEF"/>
	</linearGradient>
	<linearGradient id="SVGID_3_" gradientUnits="userSpaceOnUse" x1="111.1276" y1="647.1396" x2="594.9122" y2="647.1396">
		<stop  offset="0" style="stop-color:#00BDCD"/>
		<stop  offset="0.9987" style="stop-color:#0085C7"/>
	</linearGradient>
	<rect x="121.7" y="619.6" class="st1" width="462.7" height="55.1"/>
	<linearGradient id="SVGID_4_" gradientUnits="userSpaceOnUse" x1="31.5397" y1="286.3545" x2="667.4603" y2="286.3545">
		<stop  offset="0" style="stop-color:#C7EDF2"/>
		<stop  offset="0.9987" style="stop-color:#C4DEEF"/>
	</linearGradient>
	<linearGradient id="SVGID_5_" gradientUnits="userSpaceOnUse" x1="20.9801" y1="286.3545" x2="678.0198" y2="286.3545">
		<stop  offset="0" style="stop-color:#00BDCD"/>
		<stop  offset="0.9987" style="stop-color:#0085C7"/>
	</linearGradient>
	<rect x="31.5" y="24.7" class="st2" width="635.9" height="523.3"/>
	<linearGradient id="SVGID_6_" gradientUnits="userSpaceOnUse" x1="77.2978" y1="256.1611" x2="621.7021" y2="256.1611">
		<stop  offset="0" style="stop-color:#00BDCD"/>
		<stop  offset="0.9987" style="stop-color:#0085C7"/>
	</linearGradient>
	<rect x="80.8" y="81" class="st3" width="537.4" height="350.4"/>
	<g>
		<g id="XMLID_27_">
			<g>
				<linearGradient id="SVGID_7_" gradientUnits="userSpaceOnUse" x1="141.1045" y1="346.3775" x2="564.9182" y2="346.3775">
					<stop  offset="0" style="stop-color:#00BDCD"/>
					<stop  offset="0.9987" style="stop-color:#0085C7"/>
				</linearGradient>
				<path class="st4" d="M564.9,314.2v19.2c0,24.9-20.2,45.1-45.1,45.1H186.2c-24.9,0-45.1-20.2-45.1-45.1v-19.2H564.9z"/>
				<linearGradient id="SVGID_8_" gradientUnits="userSpaceOnUse" x1="141.1045" y1="191.0531" x2="564.9182" y2="191.0531">
					<stop  offset="0" style="stop-color:#00BDCD"/>
					<stop  offset="0.9987" style="stop-color:#0085C7"/>
				</linearGradient>
				<path class="st5" d="M564.9,190.7v45.9H141.1v-45.9c0-24.9,20.2-45.1,45.1-45.1h333.6C544.7,145.6,564.9,165.8,564.9,190.7z"/>
			</g>
			<g>
				<path class="st6" d="M564.9,314.2v19.2c0,24.9-20.2,45.1-45.1,45.1H186.2c-24.9,0-45.1-20.2-45.1-45.1v-19.2v-77.7v-45.9
					c0-24.9,20.2-45.1,45.1-45.1h333.6c24.9,0,45.1,20.2,45.1,45.1v45.9V314.2z"/>
			</g>
		</g>
		<g>
			<path class="st7" d="M304.8,170.6v40.6h-10v-17.3h-23.5v17.3h-10.1v-40.6h10.1V187h23.5v-16.4H304.8z"/>
			<path class="st7" d="M331.9,211.8c-3.1,0-5.8-0.4-8.3-1.2c-2.5-0.8-4.6-1.9-6.4-3.3c-1.8-1.4-3.1-3-4.1-4.9
				c-0.9-1.9-1.4-3.8-1.4-5.9c0-2.1,0.5-4.1,1.4-6c0.9-1.9,2.3-3.5,4-5c1.8-1.4,3.9-2.6,6.4-3.4c2.5-0.8,5.3-1.3,8.4-1.3
				c3.1,0,5.9,0.4,8.4,1.3c2.5,0.8,4.6,2,6.3,3.4c1.7,1.4,3,3.1,3.9,4.9c0.9,1.9,1.4,3.8,1.4,5.8c0,0.5,0,1,0,1.4
				c0,0.5-0.1,0.8-0.2,1.1h-29.6c0.1,1.2,0.5,2.2,1.1,3.1c0.6,0.9,1.3,1.7,2.3,2.3c0.9,0.6,2,1.1,3.1,1.5c1.2,0.3,2.4,0.5,3.7,0.5
				c1.9,0,3.8-0.4,5.5-1.1c1.7-0.7,2.9-1.7,3.5-2.9l8.4,1.8c-1.4,2.3-3.7,4.2-6.8,5.6C339.8,211.1,336.1,211.8,331.9,211.8z
				 M341.8,193.7c-0.2-2.2-1.3-4.1-3.2-5.4c-1.9-1.4-4.2-2-6.8-2c-1.3,0-2.5,0.2-3.7,0.5c-1.1,0.4-2.2,0.9-3,1.5
				c-0.9,0.6-1.6,1.4-2.2,2.3c-0.6,0.9-0.9,1.9-1,3H341.8z"/>
			<path class="st7" d="M357.8,169.5h9.8v32.1c0,1.1,0.3,2,1,2.6c0.7,0.6,1.7,0.9,2.9,0.9c0.6,0,1.2-0.1,1.9-0.2
				c0.7-0.2,1.4-0.3,2-0.6l1.3,5.8c-1.3,0.5-2.8,0.9-4.6,1.1c-1.8,0.3-3.3,0.4-4.7,0.4c-3.1,0-5.4-0.6-7.1-1.9
				c-1.7-1.3-2.5-3.1-2.5-5.5V169.5z"/>
			<path class="st7" d="M381,169.5h9.8v32.1c0,1.1,0.3,2,1,2.6c0.7,0.6,1.7,0.9,2.9,0.9c0.6,0,1.2-0.1,1.9-0.2
				c0.7-0.2,1.4-0.3,2-0.6l1.3,5.8c-1.3,0.5-2.8,0.9-4.6,1.1c-1.8,0.3-3.3,0.4-4.7,0.4c-3.1,0-5.4-0.6-7.1-1.9
				c-1.7-1.3-2.5-3.1-2.5-5.5V169.5z"/>
			<path class="st7" d="M421.9,211.8c-3.1,0-5.9-0.4-8.4-1.3c-2.5-0.8-4.6-2-6.3-3.4c-1.7-1.4-3.1-3.1-4-4.9
				c-0.9-1.9-1.4-3.8-1.4-5.9c0-2.1,0.5-4.1,1.4-5.9c0.9-1.9,2.3-3.5,4-4.9c1.7-1.4,3.8-2.6,6.3-3.4c2.5-0.8,5.3-1.3,8.4-1.3
				c3.1,0,5.9,0.4,8.4,1.3c2.5,0.8,4.6,2,6.3,3.4c1.7,1.4,3.1,3.1,4,4.9s1.4,3.9,1.4,5.9c0,2.1-0.5,4-1.4,5.9
				c-0.9,1.9-2.2,3.5-3.9,4.9c-1.7,1.4-3.8,2.6-6.3,3.4C427.8,211.4,425,211.8,421.9,211.8z M411.9,196.3c0,1.3,0.3,2.5,0.8,3.6
				c0.5,1.1,1.2,2,2.1,2.8c0.9,0.8,2,1.4,3.2,1.9c1.2,0.4,2.5,0.7,3.9,0.7c1.4,0,2.7-0.2,3.9-0.7c1.2-0.4,2.3-1.1,3.2-1.9
				s1.6-1.8,2.1-2.9c0.5-1.1,0.8-2.3,0.8-3.7c0-1.3-0.3-2.5-0.8-3.6c-0.5-1.1-1.2-2.1-2.1-2.9s-2-1.4-3.2-1.9
				c-1.2-0.4-2.5-0.7-3.9-0.7c-1.4,0-2.7,0.2-3.9,0.7c-1.2,0.5-2.3,1.1-3.2,1.9c-0.9,0.8-1.6,1.8-2.1,2.9
				C412.1,193.8,411.9,195,411.9,196.3z"/>
		</g>
		<g>
			<g>
				<g>
					<path class="st8" d="M293.3,304.3c8-19.6,13.9-40,17.4-60.9c-3.1-0.4-6.1-0.8-9.2-1.2c1.2,22.1,4.6,44.1,10.1,65.6
						c1.5,5.8,10.5,3.4,9-2.5c-5.3-20.7-8.6-41.7-9.8-63.1c-0.3-4.9-8.3-6.7-9.2-1.2c-3.5,20.9-9.4,41.3-17.4,60.9
						C282,307.3,291,309.8,293.3,304.3L293.3,304.3z"/>
				</g>
			</g>
			<g>
				<g>
					<path class="st8" d="M278.8,291.9c17.1,0.2,34.1,0.1,51.2-0.1c6-0.1,6-9.5,0-9.3c-17.1,0.3-34.1,0.3-51.2,0.1
						C272.8,282.5,272.8,291.9,278.8,291.9L278.8,291.9z"/>
				</g>
			</g>
			<g>
				<g>
					<g>
						<path class="st8" d="M389.7,254.5c0,15.2,0,30.4,0,45.6c0,6,9.3,6,9.3,0c0-15.2,0-30.4,0-45.6
							C399,248.5,389.7,248.5,389.7,254.5L389.7,254.5z"/>
					</g>
				</g>
				<g>
					<g>
						<g>
							<path class="st8" d="M375.9,257.1c12.3,0,24.7,0,37,0c6,0,6-9.3,0-9.3c-12.3,0-24.7,0-37,0
								C369.9,247.7,369.9,257.1,375.9,257.1L375.9,257.1z"/>
						</g>
					</g>
					<g>
						<g>
							<path class="st8" d="M372.6,307.2c14.7,0,29.3,0,44,0c6,0,6-9.3,0-9.3c-14.7,0-29.3,0-44,0
								C366.5,297.8,366.5,307.2,372.6,307.2L372.6,307.2z"/>
						</g>
					</g>
				</g>
			</g>
		</g>
	</g>
	<linearGradient id="SVGID_9_" gradientUnits="userSpaceOnUse" x1="318.9946" y1="486.4891" x2="382.352" y2="486.4891">
		<stop  offset="0" style="stop-color:#00BDCD"/>
		<stop  offset="0.9987" style="stop-color:#0085C7"/>
	</linearGradient>
	<circle class="st9" cx="350.7" cy="486.5" r="31.7"/>
</g>
<g id="Guides" class="st10">
</g>
<g id="Layer_2">
</g>
</svg>
