<?xml version="1.0" encoding="utf-8"?>
<!-- Generator: Adobe Illustrator 22.0.1, SVG Export Plug-In . SVG Version: 6.00 Build 0)  -->
<svg version="1.1" id="Layer_1" xmlns="http://www.w3.org/2000/svg" xmlns:xlink="http://www.w3.org/1999/xlink" x="0px" y="0px"
	 viewBox="0 0 300 300" style="enable-background:new 0 0 300 300;" xml:space="preserve">
<style type="text/css">
	.st0{fill:#02B0C2;}
	.st1{fill:#FFFFFF;}
</style>
<g>
	<circle class="st0" cx="150.4" cy="150.5" r="150"/>
	<g>
		<rect x="96.2" y="80.2" class="st1" width="105" height="6.4"/>
		<rect x="96.2" y="118.5" class="st1" width="105" height="6.4"/>
		<rect x="96.2" y="99.4" class="st1" width="105" height="6.4"/>
		<path class="st1" d="M125.2,153.7l-5-4.3l-4.2,5.1L106,166.8l-1.1-1.1l-4.7-4.6l-4.4,4.8l-4,4.3l-4.2,4.6l4.5,4.3l10.6,10.3l5,4.8
			l4.4-5.4l18.5-22.4l4-4.8l-4.7-4.1L125.2,153.7z M107,184.9l-10.6-10.3l4-4.3l6.1,5.9l14.5-17.6l4.4,3.9L107,184.9z"/>
		<path class="st1" d="M125.2,194.4l-5-4.3l-4.2,5.1l-10,12.4l-1.1-1.1l-4.7-4.6l-4.4,4.8l-4,4.3l-4.2,4.6L92,220l10.6,10.3l5,4.9
			l4.4-5.4l18.5-22.4l4-4.8l-4.7-4.1L125.2,194.4z M107,225.5l-10.6-10.3l4-4.3l6.1,5.9l14.5-17.6l4.4,3.9L107,225.5z"/>
		<rect x="144.9" y="162.9" class="st1" width="58.9" height="6.4"/>
		<rect x="144.9" y="174.1" class="st1" width="58.9" height="6.4"/>
		<rect x="144.9" y="203.5" class="st1" width="58.9" height="6.4"/>
		<rect x="144.9" y="214.8" class="st1" width="58.9" height="6.4"/>
		<path class="st1" d="M91.7,60.4H63.1v190.7h128.7l12.3-14h28.5V46.4H103.9L91.7,60.4z M226.2,52.8v177.9h-25l-1.9,2.2L189,244.6
			H69.6V66.8h25l1.9-2.2l10.4-11.8L226.2,52.8L226.2,52.8L226.2,52.8z"/>
	</g>
</g>
</svg>
