<?xml version="1.0" encoding="utf-8"?>
<!-- Generator: Adobe Illustrator 22.0.1, SVG Export Plug-In . SVG Version: 6.00 Build 0)  -->
<svg version="1.1" xmlns="http://www.w3.org/2000/svg" xmlns:xlink="http://www.w3.org/1999/xlink" x="0px" y="0px"
	 viewBox="0 0 127 127" style="enable-background:new 0 0 127 127;" xml:space="preserve">
<style type="text/css">
	.st0{fill:#04B0C2;}
	.st1{fill:#F15A33;stroke:#FFFFFF;stroke-width:0.9106;stroke-miterlimit:10;}
	.st2{fill:#F15A33;stroke:#FFFFFF;stroke-miterlimit:10;}
	.st3{fill:none;stroke:#FFFBF7;stroke-width:0.9106;stroke-miterlimit:10;}
	.st4{fill:none;}
	.st5{fill:#FFFBF7;}
	.st6{display:none;}
	.st7{display:inline;}
	.st8{fill:none;stroke:#F15A33;stroke-width:0.9232;stroke-miterlimit:10;}
	.st9{display:inline;fill:none;stroke:#F15A33;stroke-miterlimit:10;stroke-dasharray:8;}
	.st10{fill:#04B0C2;stroke:#FFFFFF;stroke-miterlimit:10;}
</style>
<g id="Foundations_of_AI_r3">
	<circle class="st0" cx="63" cy="63.5" r="63"/>
	<circle class="st1" cx="63" cy="63.5" r="47.2"/>
	<circle class="st0" cx="63" cy="63.5" r="30.4"/>
	<line class="st2" x1="54" y1="48.3" x2="54" y2="51.2"/>
	<line class="st2" x1="72.6" y1="48.3" x2="72.6" y2="51.2"/>
	<g>
		<path class="st3" d="M91.4,63.5c0-15.7-12.7-28.4-28.4-28.4c-15.7,0-28.4,12.7-28.4,28.4c0,9.5,4.7,17.9,11.8,23
			c0-2,1.6-3.6,3.6-3.6V81h26V83c2,0,3.6,1.6,3.6,3.6C86.7,81.4,91.4,73,91.4,63.5z M72.6,45.1c0.9,0,1.6,0.7,1.6,1.6
			s-0.7,1.6-1.6,1.6c-0.9,0-1.6-0.7-1.6-1.6S71.7,45.1,72.6,45.1z M54,45.1c0.9,0,1.6,0.7,1.6,1.6s-0.7,1.6-1.6,1.6
			c-0.9,0-1.6-0.7-1.6-1.6S53.1,45.1,54,45.1z M81,74H64.6v4.9l-2.7,0V74H45.5V50.7H81V74z"/>
		<path class="st2" d="M54,48.3c0.9,0,1.6-0.7,1.6-1.6s-0.7-1.6-1.6-1.6c-0.9,0-1.6,0.7-1.6,1.6S53.1,48.3,54,48.3z"/>
		<polygon class="st2" points="45.5,74 61.9,74 61.9,78.9 64.6,78.9 64.6,74 81,74 81,50.7 45.5,50.7 		"/>
		<circle class="st2" cx="72.6" cy="46.7" r="1.6"/>
		<path class="st2" d="M76,83V81H50V83c-2,0-3.6,1.6-3.6,3.6c4.7,3.4,10.4,5.4,16.6,5.4s11.9-2,16.6-5.4C79.6,84.6,78,83,76,83z"/>
	</g>
	<circle class="st4" cx="63" cy="63.5" r="27"/>
	<g>
		<path class="st5" d="M30.1,52.3L28.6,57l-8.3-2.5l1.5-4.8l1.4,0.4l-0.9,3l1.8,0.6L25,51l1.4,0.4l-0.9,2.8l2.1,0.7l0.9-3L30.1,52.3
			z"/>
		<path class="st5" d="M28.2,48.3l-3.9,0.4l0.9-1.8l2.5-0.2l-1.3-2.1l0.9-1.8l1.9,3.4l4-0.5l-0.9,1.8l-2.7,0.2l1.4,2.3l-0.9,1.8
			L28.2,48.3z"/>
		<path class="st5" d="M36.1,42.4c-0.5,0.6-1.1,0.9-1.8,0.9l-0.1,0.1c0.5,0.3,0.7,0.5,0.8,0.5l2.1,1.7L36,47l-7.5-5.9l0.9-1.1
			l0.8,0.3l0.1-0.1c-0.3-0.7-0.1-1.4,0.4-2.1c0.5-0.6,1.1-0.9,1.8-0.9c0.7,0,1.5,0.4,2.4,1c0.6,0.4,1,0.9,1.2,1.4
			c0.3,0.5,0.4,1,0.4,1.4S36.4,42,36.1,42.4z M31.5,39.5c-0.3,0.3-0.4,0.7-0.3,1c0.1,0.3,0.4,0.7,0.9,1.1l0.2,0.1
			c0.6,0.4,1,0.7,1.4,0.7s0.7-0.1,1-0.5c0.5-0.6,0.2-1.4-0.8-2.2c-0.5-0.4-1-0.6-1.3-0.7C32.1,39,31.8,39.1,31.5,39.5z"/>
		<path class="st5" d="M39.8,38.4l-1.3,1.2l-6.2-6.8l1.3-1.2L39.8,38.4z"/>
		<path class="st5" d="M44.2,31.3c0.6,0.9,0.8,1.8,0.7,2.6c-0.1,0.8-0.6,1.5-1.5,2.1c-0.5,0.3-1.1,0.5-1.6,0.6
			c-0.6,0-1.1-0.1-1.6-0.4c-0.5-0.3-0.9-0.7-1.3-1.3c-0.6-0.9-0.8-1.8-0.7-2.6c0.1-0.8,0.6-1.5,1.5-2.1c0.5-0.3,1.1-0.5,1.6-0.6
			c0.6,0,1.1,0.1,1.6,0.4C43.4,30.2,43.8,30.7,44.2,31.3z M40.4,33.8c0.4,0.5,0.7,0.9,1.1,1.1c0.4,0.2,0.7,0.1,1.2-0.2
			c0.4-0.3,0.6-0.6,0.6-1c0-0.4-0.2-0.9-0.6-1.4c-0.4-0.5-0.7-0.9-1.1-1.1c-0.4-0.2-0.7-0.1-1.1,0.2c-0.4,0.3-0.6,0.6-0.6,1
			C39.8,32.7,40,33.2,40.4,33.8z"/>
		<path class="st5" d="M47.9,26c0.2-0.1,0.4-0.2,0.6-0.2l0.5,1.6c-0.1,0-0.3,0.1-0.5,0.2c-0.5,0.2-0.9,0.5-1.1,0.9
			c-0.2,0.4-0.2,0.8,0,1.3l1.3,3.1l-1.7,0.7l-2.5-6.1l1.3-0.5l0.7,0.9l0.1,0c0-0.4,0.2-0.8,0.4-1.1S47.5,26.1,47.9,26z"/>
		<path class="st5" d="M49.7,23.7c-0.2-0.6,0.1-0.9,0.7-1.1c0.6-0.2,1,0,1.2,0.6c0.1,0.3,0.1,0.5-0.1,0.7c-0.1,0.2-0.3,0.3-0.6,0.4
			C50.3,24.5,49.9,24.3,49.7,23.7z M53.7,31.3L52,31.7l-1.8-6.4l1.7-0.5L53.7,31.3z"/>
		<path class="st5" d="M61.3,30.1l-1.8,0.2l-0.5-3.8c-0.1-0.5-0.2-0.8-0.4-1c-0.2-0.2-0.5-0.3-0.8-0.3c-0.5,0.1-0.8,0.3-1,0.6
			c-0.2,0.4-0.2,0.9-0.1,1.7l0.4,3.1l-1.8,0.2l-0.8-6.6l1.4-0.2l0.3,0.8l0.1,0c0.2-0.3,0.4-0.6,0.7-0.8s0.7-0.3,1.2-0.4
			c0.8-0.1,1.4,0,1.8,0.4c0.4,0.4,0.7,0.9,0.8,1.7L61.3,30.1z"/>
		<path class="st5" d="M68.6,30.5c-0.1,0.9-0.4,1.7-1,2.1s-1.4,0.6-2.5,0.6c-1-0.1-1.8-0.2-2.4-0.6l0.1-1.4c0.8,0.4,1.6,0.6,2.5,0.7
			c0.9,0.1,1.4-0.4,1.5-1.4l0-0.1l0.1-0.8l-0.1,0c-0.5,0.6-1.1,0.9-1.9,0.9c-0.8-0.1-1.4-0.4-1.8-1c-0.4-0.6-0.6-1.5-0.5-2.5
			c0.1-1.1,0.4-1.9,0.8-2.5c0.5-0.6,1.1-0.8,1.9-0.8c0.8,0.1,1.4,0.4,1.8,1.1l0,0l0.2-0.8l1.5,0.1L68.6,30.5z M65.7,29
			c0.5,0,0.8-0.1,1.1-0.3c0.2-0.3,0.4-0.7,0.4-1.3l0-0.2c0-0.7,0-1.2-0.2-1.5s-0.5-0.5-1-0.5c-0.8-0.1-1.3,0.6-1.4,1.9
			c0,0.7,0,1.2,0.2,1.5C64.9,28.7,65.2,28.9,65.7,29z"/>
		<path class="st5" d="M76,28.9L74.9,32l-1.7-0.6l3-8.1l2.4,0.9c1.1,0.4,1.8,0.9,2.2,1.5c0.4,0.6,0.4,1.3,0.1,2.1
			c-0.2,0.5-0.5,0.9-0.9,1.1c-0.4,0.3-0.9,0.4-1.4,0.5l1.1,4.4L77.7,33l-0.8-3.8L76,28.9z M76.5,27.5l0.6,0.2c0.5,0.2,1,0.3,1.3,0.2
			c0.3-0.1,0.6-0.3,0.7-0.7c0.1-0.4,0.1-0.7-0.1-1c-0.2-0.3-0.6-0.5-1.1-0.7l-0.5-0.2L76.5,27.5z"/>
		<path class="st5" d="M86.9,34.5c-0.6,0.9-1.3,1.5-2.1,1.7c-0.8,0.2-1.6,0-2.5-0.5c-0.5-0.3-0.9-0.8-1.2-1.3
			c-0.3-0.5-0.4-1-0.3-1.6s0.3-1.2,0.7-1.7c0.6-0.9,1.3-1.5,2.1-1.7c0.8-0.2,1.6,0,2.5,0.5c0.5,0.3,0.9,0.8,1.2,1.3s0.4,1,0.3,1.6
			C87.5,33.4,87.3,33.9,86.9,34.5z M83.1,32.1c-0.4,0.6-0.5,1-0.5,1.4c0,0.4,0.2,0.7,0.6,1c0.4,0.3,0.8,0.3,1.1,0.1
			c0.4-0.2,0.7-0.5,1.1-1.1c0.4-0.6,0.5-1,0.5-1.4c0-0.4-0.2-0.7-0.6-1c-0.4-0.3-0.8-0.3-1.1-0.2C83.8,31.1,83.4,31.5,83.1,32.1z"/>
		<path class="st5" d="M93.3,35.8c0.6,0.6,0.8,1.2,0.6,1.9s-0.6,1.5-1.3,2.2c-0.8,0.8-1.5,1.2-2.3,1.3c-0.7,0.1-1.4-0.1-2-0.7
			c-0.5-0.5-0.8-1.2-0.7-1.9l-0.1-0.1L86.9,39l-1-1l6.5-6.5l1.3,1.3l-1.5,1.5c-0.2,0.2-0.5,0.5-1,0.9l0,0C92,35,92.7,35.3,93.3,35.8
			z M91.9,36.5c-0.3-0.3-0.6-0.4-1-0.4c-0.3,0-0.7,0.3-1.2,0.7l-0.1,0.1c-0.5,0.5-0.8,0.9-0.9,1.3c-0.1,0.4,0.1,0.7,0.4,1
			c0.3,0.3,0.6,0.4,1,0.3c0.4-0.1,0.8-0.4,1.3-0.8c0.5-0.5,0.7-0.9,0.8-1.3S92.1,36.7,91.9,36.5z"/>
		<path class="st5" d="M97,46.5c-0.9,0.6-1.8,0.8-2.6,0.7c-0.8-0.1-1.5-0.6-2.1-1.5c-0.3-0.5-0.5-1.1-0.6-1.6c0-0.6,0.1-1.1,0.4-1.6
			c0.3-0.5,0.7-0.9,1.3-1.3c0.9-0.6,1.8-0.8,2.6-0.7c0.8,0.1,1.5,0.7,2,1.5c0.3,0.5,0.5,1.1,0.6,1.6c0,0.6-0.1,1.1-0.4,1.6
			S97.6,46.1,97,46.5z M94.5,42.7c-0.5,0.4-0.9,0.7-1.1,1.1c-0.2,0.4-0.1,0.7,0.1,1.2c0.3,0.4,0.6,0.6,1,0.6s0.9-0.2,1.4-0.5
			c0.6-0.4,0.9-0.7,1.1-1.1c0.2-0.4,0.1-0.7-0.2-1.1c-0.3-0.4-0.6-0.6-1-0.6C95.5,42.1,95.1,42.3,94.5,42.7z"/>
		<path class="st5" d="M96.9,51.4c0.1,0.3,0.3,0.6,0.6,1l-1.2,0.5c-0.4-0.3-0.7-0.8-0.9-1.4c-0.3-0.7-0.3-1.2-0.1-1.7
			c0.2-0.4,0.6-0.8,1.3-1.1l2.9-1.3l-0.3-0.8l0.7-0.3l0.9,0.7l1.5-0.1l0.5,1.1l-1.3,0.6l0.7,1.7l-1.2,0.5l-0.7-1.7l-2.9,1.3
			c-0.2,0.1-0.4,0.2-0.4,0.4S96.8,51.2,96.9,51.4z"/>
		<path class="st5" d="M99.6,58c-0.7,0.2-1.2,0.1-1.7-0.3c-0.5-0.4-0.8-1-1.1-1.9c-0.1-0.5-0.2-0.9-0.2-1.2s0-0.7,0-1l1.4-0.4
			C98,53.6,98,54,98,54.4c0,0.4,0.1,0.8,0.1,1.1c0.2,0.6,0.4,0.9,0.8,0.8c0.1,0,0.2-0.1,0.3-0.2c0.1-0.1,0.1-0.3,0.2-0.5
			c0.1-0.2,0.1-0.5,0.2-0.9c0.1-0.5,0.2-1,0.3-1.2s0.3-0.5,0.5-0.7c0.2-0.2,0.5-0.3,0.8-0.4c0.6-0.2,1.1-0.1,1.5,0.3
			c0.4,0.4,0.8,0.9,1,1.7c0.2,0.8,0.2,1.6,0.1,2.4l-1.4-0.2c0.1-0.4,0.1-0.7,0.1-1s0-0.6-0.1-0.9c-0.1-0.5-0.3-0.7-0.6-0.7
			c-0.2,0-0.3,0.2-0.3,0.4c-0.1,0.2-0.1,0.6-0.2,1.2c-0.1,0.6-0.2,1-0.3,1.2c-0.1,0.3-0.3,0.5-0.5,0.7C100.2,57.8,99.9,57.9,99.6,58
			z"/>
	</g>
	<path class="st5" d="M63,105.5c-0.9,0-1.9,0-3-0.1l-0.3,0l-1.2-6.2c-1.6-0.2-3.3-0.5-4.9-1l-3.5,5.3l-0.3-0.1
		c-1.9-0.6-3.8-1.4-5.5-2.3l-0.3-0.2l1.3-6.2c-1.4-0.8-2.8-1.8-4.1-2.8l-5.3,3.6l-0.3-0.2c-1.5-1.3-2.9-2.7-4.2-4.2L31,90.7l3.6-5.3
		c-1-1.3-2-2.7-2.8-4.1l-6.2,1.3l-0.2-0.3c-0.9-1.8-1.7-3.6-2.3-5.5L23,76.4l5.3-3.5c-0.4-1.6-0.8-3.2-1-4.9l-6.2-1.2l0-0.3
		c-0.1-1.1-0.1-2.1-0.1-3c0-0.9,0-1.9,0.1-3l0.9,0.1c-0.1,1.1-0.1,2.1-0.1,2.9c0,0.8,0,1.6,0.1,2.6l6.2,1.2l0,0.3
		c0.2,1.8,0.6,3.6,1.1,5.4l0.1,0.3l-5.3,3.5c0.6,1.6,1.2,3.2,2,4.8l6.2-1.3l0.2,0.3c0.9,1.6,1.9,3.1,3.1,4.6l0.2,0.3l-3.5,5.2
		c1.1,1.3,2.4,2.5,3.7,3.7l5.2-3.5l0.3,0.2c1.4,1.1,3,2.2,4.6,3.1l0.3,0.2l-1.3,6.2c1.5,0.8,3.1,1.4,4.8,2l3.5-5.3l0.3,0.1
		c1.8,0.5,3.6,0.9,5.4,1.1l0.3,0l1.2,6.2c1.9,0.1,3.2,0.1,5.2,0l1.2-6.2l0.3,0c1.8-0.2,3.6-0.6,5.4-1.1l0.3-0.1l3.5,5.3
		c1.6-0.6,3.2-1.2,4.8-2l-1.3-6.2l0.3-0.2c1.6-0.9,3.1-1.9,4.6-3.1l0.3-0.2l5.2,3.5c1.3-1.1,2.5-2.4,3.7-3.7l-3.5-5.2l0.2-0.3
		c1.1-1.4,2.2-3,3.1-4.6l0.2-0.3l6.2,1.3c0.8-1.5,1.4-3.1,2-4.8l-5.3-3.5l0.1-0.3c0.5-1.8,0.9-3.6,1.1-5.4l0-0.3l6.2-1.2
		c0.1-1,0.1-1.8,0.1-2.6c0-0.9,0-1.8-0.1-2.9l0.9-0.1c0.1,1.1,0.1,2.1,0.1,3c0,0.9,0,1.9-0.1,3l0,0.3L98.6,68
		c-0.2,1.6-0.5,3.3-1,4.9l5.3,3.5l-0.1,0.3c-0.6,1.9-1.4,3.8-2.3,5.5l-0.2,0.3l-6.2-1.3c-0.8,1.4-1.8,2.8-2.8,4.1l3.6,5.3L94.7,91
		c-1.3,1.5-2.7,2.9-4.2,4.2l-0.3,0.2L85,91.9c-1.3,1-2.7,2-4.1,2.8l1.3,6.2l-0.3,0.2c-1.8,0.9-3.6,1.7-5.5,2.3l-0.3,0.1l-3.5-5.3
		c-1.6,0.4-3.2,0.8-4.9,1l-1.2,6.2l-0.3,0C64.9,105.5,63.9,105.5,63,105.5z"/>
	<g id="cut_line" class="st6">
		<g class="st7">
			<circle class="st8" cx="112" cy="121.9" r="3.5"/>
			<line class="st8" x1="119.7" y1="106.9" x2="115.3" y2="123.3"/>
		</g>
		<g class="st7">
			<circle class="st8" cx="122" cy="121.9" r="3.5"/>
			<line class="st8" x1="114.4" y1="106.9" x2="118.8" y2="123.3"/>
		</g>
		<path class="st9" d="M111.4,87.4c-8.8,17.8-27.2,30.1-48.4,30.1c-29.8,0-54-24.2-54-54s24.2-54,54-54s54,24.2,54,54v44.9"/>
	</g>
	<path class="st2" d="M60.7,81c0-1.4,1.1-2.5,2.5-2.5c1.4,0,2.5,1.1,2.5,2.5"/>
	<g>
		<path class="st2" d="M63.3,68.2c2.2,0,3.9-1.8,3.9-3.9l-7.8,0C59.3,66.4,61.1,68.2,63.3,68.2z"/>
	</g>
	<g>
		<ellipse class="st10" cx="55" cy="56" rx="2.7" ry="2.4"/>
		<ellipse class="st10" cx="71.5" cy="56" rx="2.7" ry="2.4"/>
	</g>
</g>
<g id="Foundations_of_AI">
</g>
</svg>
