<?xml version="1.0" encoding="utf-8"?>
<!-- Generator: Adobe Illustrator 22.0.1, SVG Export Plug-In . SVG Version: 6.00 Build 0)  -->
<svg version="1.1" id="Layer_1" xmlns="http://www.w3.org/2000/svg" xmlns:xlink="http://www.w3.org/1999/xlink" x="0px" y="0px"
	 viewBox="0 0 330.6 131.5" style="enable-background:new 0 0 330.6 131.5;" xml:space="preserve">
<style type="text/css">
	.st0{fill:#FFFFFF;}
</style>
<g>
	<path class="st0" d="M214.9,50.8c-0.1-0.4-0.4-0.8-0.6-1.1s-0.6-0.6-1-0.8s-0.8-0.3-1.3-0.3c-0.6,0-1.1,0.1-1.5,0.4
		c-0.4,0.3-0.8,0.7-1.1,1.1v-4.2h-0.9v9.6h0.8v-1.3c0.3,0.4,0.6,0.8,1.1,1.1c0.5,0.3,1,0.4,1.5,0.4c0.5,0,0.9-0.1,1.3-0.3
		c0.4-0.2,0.7-0.4,1-0.8c0.3-0.3,0.5-0.7,0.7-1.1c0.2-0.4,0.3-0.9,0.3-1.4C215.1,51.7,215.1,51.3,214.9,50.8z M214,53.2
		c-0.1,0.3-0.3,0.6-0.5,0.9c-0.2,0.3-0.5,0.5-0.8,0.6c-0.3,0.2-0.7,0.2-1,0.2c-0.2,0-0.5,0-0.7-0.1c-0.2-0.1-0.5-0.2-0.7-0.4
		c-0.2-0.1-0.4-0.3-0.6-0.5c-0.2-0.2-0.2-0.4-0.3-0.7v-2.1c0.1-0.2,0.2-0.4,0.4-0.7c0.2-0.2,0.3-0.4,0.5-0.5
		c0.2-0.2,0.4-0.3,0.7-0.4c0.2-0.1,0.5-0.1,0.8-0.1c0.4,0,0.7,0.1,1,0.2c0.3,0.2,0.6,0.4,0.8,0.6c0.2,0.3,0.4,0.6,0.5,0.9
		c0.1,0.3,0.2,0.7,0.2,1C214.2,52.5,214.1,52.9,214,53.2z"/>
	<path class="st0" d="M217.4,57.2c-0.1,0.1-0.1,0.2-0.2,0.3c0,0.1-0.1,0.1-0.1,0.1c0,0-0.1,0-0.2,0.1c-0.1,0-0.2,0-0.3,0
		c0,0-0.1,0-0.1,0c0,0-0.1,0-0.1,0v0.8c0.1,0,0.3,0,0.4,0c0.4,0,0.7-0.1,0.9-0.2c0.2-0.2,0.4-0.4,0.5-0.7l3.6-8.9H221l-2.4,6l-2.5-6
		h-0.9l3,6.9c-0.2,0.4-0.3,0.8-0.4,1C217.6,56.9,217.5,57.1,217.4,57.2z"/>
	<path class="st0" d="M51.4,45.9L39.6,76.6H47l1.9-5.2H62l1.9,5.2h7.4L59.6,45.9H51.4z M50.7,65.7l4.8-13.2l4.8,13.2H50.7z"/>
	<polygon class="st0" points="124.7,58 110.2,58 110.2,45.9 103.7,45.9 103.7,76.6 110.2,76.6 110.2,63.7 124.7,63.7 124.7,76.6 
		131.3,76.6 131.3,45.9 124.7,45.9 	"/>
	<polygon class="st0" points="170.5,65.2 156.3,45.9 149.6,45.9 149.6,76.6 156.1,76.6 156.1,56.6 170.8,76.6 177.1,76.6 
		177.1,45.9 170.5,45.9 	"/>
	<rect x="62.6" y="5.5" class="st0" width="2.1" height="4.9"/>
	<rect x="46.4" y="5.5" class="st0" width="2.1" height="4.9"/>
	<path class="st0" d="M3.7,2.9v34.5h310.8V2.9H3.7z M34,31c-2.4,3-6.8,4.7-10.7,4.7c-4.3,0-8.2-1.4-11.2-4.3C6,25.5,6,15.8,11.8,9.5
		C17.8,3,28.3,3.1,33.9,9c0.9,1,0.8,2.4,0.1,3.1c-1,1-2.5,1-3.5,0.2c-4.8-4-12.1-3.5-16.2,1.4c-3.3,3.9-3.1,11.1,0.4,14.9
		c2.3,2.5,5.2,3.9,8.6,4.1c3.2,0.1,6.5-1,8.9-3.2c0.7-0.6,1.5-1,2-0.5C34.8,29.5,34.7,30.1,34,31z M65.6,25.6
		c0,5.6-4.5,10.1-10.1,10.1c-5.6,0-10.1-4.5-10.1-10.1v-21h4v21c0,1.7,0.7,3.2,1.8,4.3c1.1,1.1,2.6,1.8,4.3,1.8
		c1.7,0,3.2-0.7,4.3-1.8c1.1-1.1,1.8-2.6,1.8-4.3v-21h4V25.6z M78.3,36l-0.1-0.7l-0.1-0.7c6-0.8,5.4-9.1,4.6-20.6l-0.1-0.9
		c0,0,0,0,0-0.1c-0.4-4.2,2.6-7.9,6.8-8.3c4.2-0.4,7.9,2.6,8.3,6.8c0.4,4.2-2.6,7.9-6.8,8.3c-2.6,0.3-5-0.9-6.6-2.7
		C85,27.3,84.9,35.1,78.3,36z M101.8,32.2c-0.8,0.3-4.3,1.6-5.1,1.9c-0.6,0.2-0.3-0.8-0.3-1.6c0-1.6-5-9.8-5-9.8s-2,0.7-2.7,0.9
		c-0.5,0.2-0.9-0.1-1.1-0.5c-0.1-0.4-0.1-0.9,0.5-1.1c0.7-0.3,3.6-1.4,5.3-1.9c0.5-0.2,0.9,0.2,1,0.5c1.5,2.2,7,10.5,7.3,10.9
		C102,31.8,102.2,32.1,101.8,32.2z M122.7,7.7c-0.4,0.2-0.6,0.5-0.6,0.8v0c0,0.3,0.2,0.5,0.6,0.8v3.6c-0.4,0.2-0.6,0.5-0.6,0.8
		c0,0.3,0.2,0.5,0.6,0.8V18c-0.4,0.2-0.6,0.5-0.6,0.8c0,0.3,0.2,0.5,0.6,0.8v3.6c-0.4,0.2-0.6,0.5-0.6,0.8c0,0.3,0.2,0.5,0.6,0.8
		v3.6c-0.4,0.2-0.6,0.5-0.6,0.8v0c0,0.3,0.2,0.5,0.6,0.8v3.6c-0.4,0.2-0.6,0.5-0.6,0.7h-0.9V5.9h1.5V7.7z M125.3,35.7h-1.4V35
		c-1-0.4-1.1-0.6-1.2-0.7c0-0.1,0.2-0.2,1.1-0.6c0.1-0.1,0.5-0.2,0.9-0.4c0.2-0.1,0.4-0.2,0.6-0.2V35.7z M125.4,32.4
		c-0.1,0.1-0.5,0.2-0.9,0.4c-0.2,0.1-0.4,0.2-0.6,0.2v-2.5v-0.6c-1-0.4-1.1-0.6-1.2-0.7c0,0,0.2-0.2,1.1-0.6
		c0.1-0.1,0.5-0.2,0.9-0.4c0.2-0.1,0.4-0.2,0.6-0.2v2.5v0.4v0.3l0,0c1,0.4,1.1,0.6,1.2,0.7C126.5,31.8,126.3,32,125.4,32.4z
		 M125.4,27.2c-0.1,0.1-0.5,0.2-0.9,0.4c-0.2,0.1-0.4,0.2-0.6,0.2v-2.5v-0.6c-1-0.4-1.1-0.6-1.2-0.7c0-0.1,0.2-0.2,1.1-0.6
		c0.1-0.1,0.5-0.2,0.9-0.4c0.2-0.1,0.4-0.2,0.6-0.2v2.5v0.4v0.3l0,0c1,0.4,1.1,0.6,1.2,0.7C126.5,26.6,126.3,26.8,125.4,27.2z
		 M125.4,22c-0.1,0.1-0.5,0.2-0.9,0.4c-0.2,0.1-0.4,0.2-0.6,0.2v-2.5v-0.6c-1-0.4-1.1-0.6-1.2-0.7c0-0.1,0.2-0.2,1.1-0.6
		c0.1-0.1,0.5-0.2,0.9-0.4c0.2-0.1,0.4-0.2,0.6-0.2v2.5v0.4v0.3l0,0c1,0.4,1.1,0.6,1.2,0.7C126.5,21.5,126.3,21.7,125.4,22z
		 M125.4,16.9c-0.1,0.1-0.5,0.2-0.9,0.4c-0.2,0.1-0.4,0.2-0.6,0.2v-2.5v-0.6c-1-0.4-1.1-0.6-1.2-0.7c0-0.1,0.2-0.2,1.1-0.6
		c0.1-0.1,0.5-0.2,0.9-0.4c0.2-0.1,0.4-0.2,0.6-0.2v2.5v0.4v0.3l0,0c1,0.4,1.1,0.6,1.2,0.7C126.5,16.3,126.3,16.5,125.4,16.9z
		 M125.4,11.7c-0.1,0.1-0.5,0.2-0.9,0.4c-0.2,0.1-0.4,0.2-0.6,0.2V9.8V9.1c-1-0.4-1.1-0.6-1.2-0.7c0,0,0.2-0.2,1.1-0.6
		c0.1-0.1,0.5-0.2,0.9-0.4c0.2-0.1,0.4-0.2,0.6-0.2v2.5v0.4v0.3l0,0c1,0.4,1.1,0.6,1.2,0.7C126.5,11.1,126.3,11.3,125.4,11.7z
		 M125.4,6.5c-0.1,0.1-0.5,0.2-0.9,0.4c-0.2,0.1-0.4,0.2-0.6,0.2V4.6h1.4v0.4v0.3l0,0c1,0.4,1.1,0.6,1.2,0.7
		C126.5,5.9,126.3,6.1,125.4,6.5z M128,34.3h-1.5v-1.8c0.4-0.2,0.6-0.5,0.6-0.8c0-0.3-0.2-0.5-0.6-0.8v-3.6c0.4-0.2,0.6-0.5,0.6-0.8
		c0-0.3-0.2-0.5-0.6-0.8v-3.6c0.4-0.2,0.6-0.5,0.6-0.8c0-0.3-0.2-0.5-0.6-0.8V17c0.4-0.2,0.6-0.5,0.6-0.8c0-0.3-0.2-0.5-0.6-0.8
		v-3.6c0.4-0.2,0.6-0.5,0.6-0.8c0-0.3-0.2-0.5-0.6-0.8V6.7c0.4-0.2,0.6-0.5,0.6-0.7h0.9V34.3z M172.8,20l0,0.2l0,0.2
		c0,0.1,0,0.4,0.2,0.5c1.2,0.2,1.6,0.7,1.7,0.9l0,0.1l0,0.1c-0.1,0.2-0.6,0.6-1.8,0.6c-0.2,0-0.3,0.3-0.3,0.4l0,0.2l-0.1,0.2
		c0,0.2-0.1,0.4,0.1,0.5c1.1,0.5,1.5,1.1,1.4,1.3l0,0.1l0,0.1c-0.1,0.2-0.7,0.5-1.9,0.2c-0.2,0-0.3,0.2-0.4,0.3l-0.1,0.1l-0.1,0.1
		c-0.1,0.1-0.2,0.4,0,0.5c1,0.7,1.2,1.3,1.2,1.6l-0.1,0.1l-0.1,0.1c-0.2,0.2-0.7,0.3-1.9-0.3c-0.2-0.1-0.4,0.1-0.5,0.2l-0.1,0.1
		l-0.1,0.1c-0.1,0.1-0.2,0.3-0.1,0.5c0.8,0.9,0.9,1.6,0.8,1.8l-0.1,0.1l-0.1,0.1c-0.2,0.2-0.9,0.1-1.8-0.7c-0.2-0.1-0.4,0-0.5,0.1
		l-0.1,0.1l-0.1,0.1c-0.1,0.1-0.3,0.3-0.2,0.5c0.6,1.1,0.6,1.8,0.4,1.9l-0.1,0.1l-0.1,0.1c-0.2,0.1-0.9-0.1-1.7-1.1
		c-0.1-0.2-0.4-0.1-0.5,0l-0.1,0.1l-0.1,0.1c-0.1,0.1-0.3,0.2-0.3,0.4c0.4,1.2,0.2,1.9,0,2l-0.1,0c0,0-0.1,0-0.1,0
		c-0.2,0-0.8-0.3-1.4-1.4c-0.1-0.2-0.4-0.2-0.5-0.1l-0.2,0l-0.2,0.1c-0.1,0-0.4,0.2-0.4,0.4c0.1,1.3-0.2,1.8-0.5,1.9l-0.1,0l-0.1,0
		c-0.2,0-0.7-0.5-1-1.7c-0.1-0.2-0.3-0.2-0.5-0.2l-0.2,0l-0.2,0c-0.2,0-0.4,0.1-0.4,0.3c-0.2,1.3-0.6,1.7-0.8,1.7l-0.1,0l-0.1,0
		c-0.2-0.1-0.6-0.6-0.7-1.8c0-0.2-0.3-0.3-0.4-0.3l-0.2,0l-0.2,0c-0.2,0-0.4,0-0.5,0.2c-0.4,1.2-1,1.5-1.2,1.5l-0.1,0l-0.1,0
		c-0.2-0.1-0.5-0.7-0.3-1.9c0-0.2-0.2-0.3-0.3-0.4l-0.2-0.1l-0.2,0c-0.2,0-0.4-0.2-0.5,0c-0.7,1-1.3,1.3-1.5,1.2l-0.1-0.1l-0.1-0.1
		c-0.2-0.2-0.3-0.8,0.2-1.9c0.1-0.2-0.1-0.4-0.3-0.4l-0.1-0.1l-0.1-0.1c-0.1-0.1-0.4-0.2-0.5-0.1c-0.9,0.9-1.5,1-1.7,0.9l-0.1-0.1
		l-0.1-0.1c-0.1-0.2-0.2-0.8,0.6-1.8c0.1-0.2-0.1-0.4-0.1-0.5l-0.1-0.1l-0.1-0.1c-0.1-0.1-0.3-0.3-0.5-0.2c-1,0.7-1.7,0.6-1.9,0.5
		l-0.1-0.1l-0.1-0.1c-0.1-0.2,0-0.8,0.9-1.7c0.2-0.1,0.1-0.4,0-0.5l-0.1-0.1l-0.1-0.1c-0.1-0.1-0.2-0.3-0.4-0.3
		c-1.2,0.4-1.8,0.3-2,0.1l-0.1-0.1l-0.1-0.1c-0.1-0.2,0.2-0.8,1.3-1.4c0.2-0.1,0.1-0.4,0.1-0.5l-0.1-0.2l-0.1-0.2
		c-0.1-0.1-0.2-0.4-0.4-0.4c-1.2,0.2-1.8-0.1-1.9-0.3l0-0.1l0-0.1c0-0.2,0.4-0.8,1.6-1.1c0.2-0.1,0.2-0.3,0.2-0.5l0-0.2l0-0.2
		c0-0.2-0.1-0.4-0.3-0.4c-1.2-0.1-1.8-0.5-1.8-0.8l0-0.1l0-0.1c0.1-0.2,0.6-0.7,1.8-0.8c0.2,0,0.3-0.3,0.3-0.4l0-0.2l0-0.2
		c0-0.2,0-0.4-0.2-0.5c-1.2-0.4-1.6-0.9-1.6-1.1l0-0.1l0-0.1c0.1-0.2,0.7-0.5,1.9-0.3c0.2,0,0.3-0.2,0.4-0.4l0.1-0.2l0.1-0.2
		c0-0.1,0.1-0.4-0.1-0.5c-1.1-0.6-1.4-1.2-1.3-1.4l0.1-0.1l0.1-0.1c0.2-0.2,0.8-0.4,2,0.1c0.2,0.1,0.4-0.2,0.4-0.3l0.1-0.1l0.1-0.1
		c0.1-0.1,0.2-0.4,0-0.5c-0.9-0.8-1-1.4-0.9-1.7l0.1-0.1l0.1-0.1c0.2-0.1,0.8-0.2,1.9,0.5c0.2,0.1,0.4-0.1,0.5-0.2l0.1-0.1l0.1-0.1
		c0.1-0.1,0.3-0.3,0.1-0.5c-0.7-1-0.7-1.6-0.6-1.8l0.1-0.1l0.1-0.1c0.2-0.1,0.9,0,1.7,0.9c0.2,0.1,0.4,0,0.5-0.1l0.1-0.1l0.1-0.1
		c0.1-0.1,0.3-0.2,0.3-0.4c-0.5-1.1-0.3-1.8-0.2-1.9l0.1-0.1l0.1-0.1c0.2-0.1,0.8,0.2,1.5,1.2c0.1,0.2,0.4,0.1,0.5,0l0.2,0l0.2-0.1
		c0.1-0.1,0.4-0.2,0.3-0.4c-0.2-1.2,0.1-1.8,0.3-1.9l0.1,0l0.1,0c0.2,0,0.8,0.3,1.2,1.5c0.1,0.2,0.3,0.2,0.5,0.2l0.2,0l0.2,0
		c0.2,0,0.4-0.1,0.4-0.3c0-1.2,0.4-1.8,0.7-1.8l0.1,0l0.1,0c0.2,0,0.7,0.4,0.8,1.7c0,0.2,0.3,0.3,0.4,0.3l0.2,0l0.2,0
		c0.2,0,0.4,0,0.5-0.2c0.3-1.2,0.8-1.6,1-1.7l0.1,0l0.1,0c0.2,0.1,0.6,0.6,0.5,1.9c0,0.2,0.2,0.3,0.4,0.4l0.2,0.1l0.2,0
		c0.1,0,0.4,0.1,0.5-0.1c0.6-1.1,1.1-1.4,1.4-1.4l0.1,0c0,0,0.1,0,0.1,0c0.2,0.1,0.4,0.8,0,2c-0.1,0.2,0.2,0.4,0.3,0.4l0.1,0.1
		l0.1,0.1c0.1,0.1,0.4,0.2,0.5,0c0.8-1,1.4-1.2,1.7-1.1l0.1,0.1l0.1,0.1c0.2,0.2,0.2,0.9-0.4,1.9c-0.1,0.2,0.1,0.4,0.2,0.5l0.1,0.1
		l0.1,0.1c0.1,0.1,0.4,0.2,0.5,0.1c1-0.8,1.7-0.9,1.8-0.7l0.1,0.1l0.1,0.1c0.1,0.2,0,0.9-0.8,1.8c-0.1,0.2,0,0.4,0.1,0.5l0.1,0.1
		l0.1,0.1c0.1,0.1,0.3,0.3,0.5,0.2c1.2-0.6,1.7-0.4,1.9-0.3l0.1,0.1l0.1,0.1c0.1,0.2-0.2,0.9-1.2,1.6c-0.2,0.1-0.1,0.4,0,0.5
		l0.1,0.1l0.1,0.1c0.1,0.1,0.2,0.4,0.4,0.3c1.2-0.3,1.8,0,1.9,0.2l0,0.1l0,0.1c0,0.2-0.3,0.8-1.4,1.3c-0.2,0.1-0.2,0.3-0.1,0.5
		l0.1,0.2l0,0.2c0,0.1,0.1,0.4,0.3,0.4c1.2,0,1.7,0.3,1.8,0.6l0,0.1l0,0.1c0,0.2-0.5,0.7-1.7,0.9C172.8,19.5,172.8,19.8,172.8,20z
		 M207,9.1L203.7,8l-0.4,1.2l-0.4,1.2l3.3,1.1c0.1,0,0.2,0.2,0.2,0.3c0,0.1-0.2,0.2-0.3,0.1l-3.3-1.1l-0.4,1.2l-0.6-0.2
		c0,0-0.1-0.6-0.7-0.8v0l-3.4-1.1c-0.9-0.3-1.1-1.2-1.3-1.2c-0.2-0.1-0.2,0.6-0.6,0.5L195.2,9l0.2-0.6c-2.9-0.7-5.1-0.2-6.3,0.7
		c-1.1,0.8-1.6,2-1.4,3.5c0.3,2.7,2.2,3.4,5.6,4.5c2.1,0.7,4.4,1.4,6.3,3c2.8,2.3,3.9,6.2,2.7,9.6c-1.1,3.4-4.2,5.7-8.3,6
		c-0.3,0-0.6,0-0.9,0c-2.5,0-4.8-0.8-6.5-2.4c-1.9-1.7-3-4.1-3.2-6.8h0c0-0.4,0.3-0.7,0.6-0.7c0.4,0,0.7,0.3,0.7,0.6h0
		c0.2,2.4,1.2,4.5,2.8,5.9c1.5,1.3,3.4,2,5.6,2c0.3,0,0.5,0,0.8,0c3.6-0.3,6.2-2.1,7.1-5c0.9-2.9,0-6.2-2.3-8.1
		c-1.7-1.4-3.8-2.1-5.9-2.8c-3.3-1.1-6.1-2-6.6-5.6c-0.2-1.9,0.4-3.6,1.9-4.7c1.8-1.3,4.4-1.7,7.2-1l0.1-0.3l0.1-0.2
		c-3-0.7-5.8-0.3-7.7,1.1c-1.6,1.2-2.4,3.1-2.1,5.2c0.5,4,3.6,5,6.9,6.1c2,0.6,4.1,1.3,5.7,2.7c2.2,1.8,3,4.9,2.2,7.6
		c-0.9,2.7-3.3,4.4-6.6,4.7c-2.4,0.2-4.5-0.5-6-1.9c-1.2-1.1-2.1-2.7-2.5-4.5h0c-0.1-0.4,0.2-0.7,0.5-0.8c0.4-0.1,0.7,0.2,0.8,0.5h0
		c0,0,0,0,0,0h0c0.3,1.5,1,2.8,2,3.7c1.3,1.1,3,1.7,5,1.5c3.8-0.3,5-2.4,5.4-3.7c0.7-2.2,0-4.6-1.7-6.1c-1.4-1.2-3.3-1.8-5.2-2.4
		c-3.4-1.1-7.3-2.3-7.9-7.2c-0.3-2.6,0.7-5,2.7-6.5c2.3-1.7,5.7-2.1,9.3-1.2l0.2-0.6l0.6,0.2c0.4,0.1,0,0.5,0.1,0.7c0,0,0.1,0,0.1,0
		c0.3,0,0.9-0.5,1.7-0.2l3.4,1.1v0c0.6,0.2,1.1-0.2,1.1-0.2l0.6,0.2l-0.4,1.2l3.3,1.1c0.1,0,0.2,0.2,0.2,0.3
		C207.3,9.1,207.2,9.1,207,9.1z M230.6,25.8c0.7,1.7,0.1,9.2-0.2,9.6c-0.2,0.2-0.7,0.3-2.2,0.3c-1.4,0-2-0.1-2.2-0.3
		c-0.3-0.3-0.9-7.9-0.2-9.6c0.6-1.6,1-3.3,0-4.8c-0.4-0.5-0.6-1-0.3-1.1c0.3-0.2,1.1-0.3,1.1-0.3v-0.6c0,0,0.1,0.1,0.7,0.1V8.9
		c0-0.3-0.1-0.9-0.3-1.4c-0.2-0.3,0.5-3,0.5-3h1.4c0,0,0.7,2.6,0.5,3c-0.3,0.5-0.3,1.1-0.3,1.4v10.3c0.6,0,0.8-0.1,0.8-0.1v0.6
		c0,0,0.7,0.1,1.1,0.3c0.3,0.1,0.1,0.6-0.3,1.1C229.6,22.5,229.9,24.3,230.6,25.8z M261.1,5c0.2-0.4,1.3-0.5,1.6-0.2v3.5
		c0,0,0.1,1.7-1,1.7c-0.6,0-0.6-0.4-0.6-0.4L261.1,5z M257.6,34.8l1.6-1.2l1.9,1.9L257.6,34.8z M261.6,35.1l-4.3-4.3l4.3,1
		L261.6,35.1z M261.1,30.9l0-10.1c0.5-0.7,1.6-0.1,1.6,0.6l0,9.8L261.1,30.9z M262.3,35.7l0.1-3.8l4.1,0.8L262.3,35.7z M263.4,21.5
		c-0.1-0.8-0.5-1.9-1.9-1.6c-1.4,0.3-1.2,1.6-0.9,2.3l-6.1,1.4c0,0-3.3-6.8-0.6-12.1c0.2-0.4,0.8-1,1.4-1.1l5.3-1.5
		c-0.1,0.7,0.1,1.8,1.3,1.6c1.7-0.3,1.5-1.9,1.5-2.4l5.5-1.5c-1.9,2.6-1,9.4,0.6,13.5L263.4,21.5z M270.1,20
		c-1.5-3.9-2.1-9.4-1.1-12.2c0.8-2.4,3.2-2.1,3.5,0.2C272.9,11,271.9,16.3,270.1,20z M297.3,4.7c6.1,0,12.5,1.2,12.5,3.5l0,0
		c0,0.5-0.3,0.9-0.8,1.3l-10,15.8l-0.6,9.2c0,0.6-0.4,1.1-1,1.1s-1-0.5-1-1.1l-0.6-9.2l-10-15.8c-0.5-0.4-0.8-0.8-0.8-1.2l0-0.1
		C284.8,5.9,291.2,4.7,297.3,4.7z"/>
	<polygon class="st0" points="20.3,65.1 12.9,45.9 3.7,45.9 3.7,76.6 10.3,76.6 10.3,54.5 18.9,76.6 21.8,76.6 30.4,54.5 30.4,76.6 
		37,76.6 37,45.9 27.8,45.9 	"/>
	<path class="st0" d="M87.4,51.2c3.1,0,5.9,2,7.2,4.5l5.6-2.8c-2.2-3.9-6.1-7.5-12.8-7.5c-9.2,0-16.4,6.4-16.4,15.9
		c0,9.4,7.1,15.9,16.4,15.9c6.7,0,10.6-3.7,12.8-7.5l-5.6-2.7c-1.3,2.5-4,4.5-7.2,4.5c-5.6,0-9.7-4.3-9.7-10.1
		C77.7,55.5,81.8,51.2,87.4,51.2z"/>
	<rect x="137.2" y="45.9" class="st0" width="6.5" height="30.7"/>
	<polygon class="st0" points="183,76.6 204.7,76.6 204.7,70.9 189.5,70.9 189.5,63.9 204.4,63.9 204.4,58.1 189.5,58.1 189.5,51.7 
		204.7,51.7 204.7,45.9 183,45.9 	"/>
	<path class="st0" d="M32.2,11.9c0.7,0,1.2-0.6,1.2-1.2c0-0.7-0.6-1.2-1.2-1.2c-0.7,0-1.2,0.6-1.2,1.2C31,11.4,31.6,11.9,32.2,11.9z
		"/>
	<path class="st0" d="M90.7,17c2.6-0.3,4.5-2.6,4.2-5.2c-0.3-2.6-2.6-4.5-5.2-4.2c-2.6,0.3-4.5,2.6-4.2,5.2
		C85.8,15.4,88.1,17.2,90.7,17z M86.3,10.6c0.2-0.3,0.5-0.7,0.8-0.8c1.6,0.2,2.8,0,2.8,0s1.3-0.1,2.8-0.6c0.3,0.1,0.7,0.4,0.9,0.7
		c0.2,0.3,0.4,0.8,0.4,1.1c-0.9,1.3-1.4,2.4-1.4,2.4l0,0c0,0-0.5,1.2-0.9,2.7c-0.2,0.2-0.7,0.4-1,0.4c-0.4,0-0.9-0.1-1.1-0.2
		c-0.7-1.4-1.4-2.5-1.4-2.5s-0.7-1-1.9-2.1C86.1,11.4,86.2,10.9,86.3,10.6z"/>
	<path class="st0" d="M90.2,13c0.4,0,0.7-0.4,0.6-0.8c0-0.4-0.4-0.7-0.8-0.6c-0.4,0-0.7,0.4-0.6,0.8C89.5,12.8,89.9,13.1,90.2,13z"
		/>
	<path class="st0" d="M153.7,17.7c-0.4-1.3-1.8-2-3.1-1.5c-1.3,0.4-2,1.8-1.5,3.1c0.4,1.3,1.8,2,3.1,1.5
		C153.5,20.4,154.2,19,153.7,17.7z"/>
	<path class="st0" d="M154.4,23.6c-1.3-0.3-2.6,0.6-2.9,1.9c-0.3,1.3,0.6,2.6,1.9,2.9c1.3,0.3,2.6-0.6,2.9-1.9
		C156.6,25.2,155.7,23.9,154.4,23.6z"/>
	<path class="st0" d="M166.8,14.7c0.3-1.3-0.6-2.6-1.9-2.9c-1.3-0.3-2.6,0.6-2.9,1.9c-0.3,1.3,0.6,2.6,1.9,2.9
		C165.2,16.9,166.5,16,166.8,14.7z"/>
	<path class="st0" d="M166.1,19.4c-1.3,0.4-2,1.8-1.5,3.1c0.4,1.3,1.8,2,3.1,1.5c1.3-0.4,2-1.8,1.5-3.1
		C168.8,19.6,167.4,18.9,166.1,19.4z"/>
	<path class="st0" d="M160.3,21.2c0.6-0.7,0.5-1.7-0.1-2.3c-0.7-0.6-1.7-0.5-2.3,0.1c-0.6,0.7-0.5,1.7,0.1,2.3
		C158.7,21.9,159.8,21.8,160.3,21.2z"/>
	<path class="st0" d="M159.8,26c-0.9,1-0.8,2.6,0.2,3.5c1,0.9,2.6,0.8,3.5-0.2c0.9-1,0.8-2.6-0.2-3.5C162.2,24.9,160.7,25,159.8,26z
		"/>
	<path class="st0" d="M158.3,10.8c-1-0.9-2.6-0.8-3.5,0.2c-0.9,1-0.8,2.6,0.2,3.5c1,0.9,2.6,0.8,3.5-0.2
		C159.4,13.2,159.3,11.7,158.3,10.8z"/>
	<path class="st0" d="M297.2,10.6c6.5,0,11-1.2,11-2.3c0-1.1-4.5-2.3-11-2.3c-6.5,0-11,1.2-11,2.3C286.1,9.4,290.7,10.6,297.2,10.6z
		"/>
	<path class="st0" d="M210.4,58.8c-1.1,0-2,0.8-2,1.9c0,1,0.9,1.9,2,1.9c1.1,0,2-0.8,2-1.9C212.4,59.6,211.5,58.8,210.4,58.8z"/>
	<rect x="208.5" y="64.2" class="st0" width="3.8" height="12.4"/>
	<path class="st0" d="M218.5,66.2L218.5,66.2l-0.3-2.1h-3.3v12.4h3.8v-6.3c0-1.6,1.5-2.9,3.3-2.9c0.2,0,0.3,0,0.5,0l0-3.5
		c-0.2,0-0.5-0.1-0.7-0.1C220.3,63.9,219,64.9,218.5,66.2z"/>
	<path class="st0" d="M250.9,63.9c-3.7,0-6.3,2.9-6.3,6.5c0,3.6,2.2,6.5,6.3,6.5c2.4,0,3.8-0.3,4.8-0.8l-0.4-2.6
		c-1.1,0.4-2.6,0.5-3.7,0.5c-1.8,0-3.4-1-3.3-2.4l8,0C256.7,67,254.9,63.9,250.9,63.9z M248.2,69c0-1.5,1.3-2.6,2.4-2.6
		c1.5,0,2.2,1,2.2,2.5L248.2,69z"/>
	<path class="st0" d="M300.2,63.9c-1.5,0-2.9,0.8-3.8,2l0,0l-0.2-1.7H293v12.4h3.8v-7.5c0.1-1.2,1.1-2.1,2.3-2.1
		c1.4,0,1.9,1.3,1.9,2.7h0v6.9h3.8V69C304.8,66.5,303.7,63.9,300.2,63.9z"/>
	<path class="st0" d="M311.7,60.8l-3.8,1v2.3h-1.6V67h1.6v5.7c0,2.7,1.8,4.1,3.9,4.1c0.9,0,1.6-0.1,2.4-0.3c0,0,0.1,0,0.1,0v-2.8
		c0,0,0,0,0,0c-0.4,0.1-0.7,0.1-1.1,0.1c-0.8,0-1.5-0.6-1.5-1.3V67h2.8v-2.8h-2.8V60.8z"/>
	<path class="st0" d="M238.8,65.4c-0.8-1.1-2-1.5-3.4-1.5c-3.2,0-5.5,2.9-5.5,6.5s2.1,6.5,5.2,6.5c1.6,0,2.9-0.5,3.8-1.7l0.3,1.4
		h3.6v-18h-3.8V65.4z M236.4,73.8c-1.4,0-2.6-1.6-2.6-3.5c0-1.9,1.2-3.5,2.6-3.5c1.4,0,2.5,0.9,2.5,3.5
		C238.9,72.9,237.8,73.8,236.4,73.8z"/>
	<path class="st0" d="M285.5,63.9c-3.7,0-6.3,2.9-6.3,6.5c0,3.6,2.2,6.5,6.3,6.5c2.4,0,3.8-0.3,4.8-0.8l-0.4-2.6
		c-1.1,0.4-2.6,0.5-3.7,0.5c-1.8,0-3.4-1-3.3-2.4l8,0C291.2,67,289.5,63.9,285.5,63.9z M282.8,69c0-1.5,1.3-2.6,2.4-2.6
		c1.5,0,2.2,1,2.2,2.5L282.8,69z"/>
	<path class="st0" d="M275.8,66.9c0.8,0,1.4,0.1,2,0.4l0.6-2.9c-0.8-0.3-1.8-0.4-2.8-0.4c-4.6,0-7.2,2.7-7.2,6.6c0,3.7,2,6.4,7,6.4
		c1,0,2.1-0.2,3.1-0.5l-0.4-2.9c-0.6,0.3-1.3,0.4-2.1,0.4c-1.8,0-2.9-0.7-3.3-1.9c0,0-0.2-0.7-0.2-0.8c0-0.3-0.1-0.5-0.1-0.8
		C272.2,68.3,273.4,66.9,275.8,66.9z"/>
	<path class="st0" d="M265,69.6c-0.2-0.1-0.5-0.2-0.8-0.4l0,0c-0.3-0.1-1.4-0.5-1.9-0.8c-0.2-0.1-0.4-0.3-0.5-0.5
		c-0.1-0.2-0.1-0.3-0.1-0.5c0-0.6,0.6-1,1.5-1c0.7,0,2,0.2,2.7,0.6l0.6-2.6c-1.3-0.5-2.9-0.6-3.7-0.6c-2.7,0-4.8,1.8-4.8,3.9
		c0,0.6,0.2,1.2,0.4,1.7c0.3,0.6,0.9,1.1,1.7,1.5c0.3,0.1,0.6,0.3,0.9,0.4c0.4,0.2,1.4,0.5,1.8,0.8c0.2,0.1,0.4,0.3,0.5,0.5
		c0.1,0.2,0.1,0.4,0.1,0.6c0,0.7-0.6,1-1.5,1c-1,0-2.7-0.4-3.5-0.9l-0.6,2.7c1.3,0.6,3,0.8,4.2,0.8c3,0,5.1-1.7,5.1-4
		c0-0.7-0.2-1.3-0.4-1.8C266.3,70.4,265.7,70,265,69.6z"/>
	<polygon class="st0" points="329.2,3.2 328.5,3.2 328.3,3.2 326.6,6.7 325,3.2 324.7,3.2 324,3.2 323.8,3.2 323.8,8.6 324,8.6 
		324.5,8.6 324.7,8.6 324.7,4.8 326.2,7.8 326.4,7.8 326.8,7.8 327.1,7.8 328.5,4.8 328.5,8.6 328.8,8.6 329.2,8.6 329.5,8.6 
		329.5,3.2 	"/>
	<path class="st0" d="M226.3,58.8c-1.1,0-2,0.8-2,1.9c0,1,0.9,1.9,2,1.9c1.1,0,2-0.8,2-1.9C228.3,59.6,227.4,58.8,226.3,58.8z"/>
	<rect x="224.4" y="64.2" class="st0" width="3.8" height="12.4"/>
	<polygon class="st0" points="318.8,3.1 318.5,3.1 318.5,3.9 318.8,3.9 320.4,3.9 320.4,8.6 320.6,8.6 321.1,8.6 321.3,8.6 
		321.3,3.9 322.9,3.9 323.1,3.9 323.1,3.1 322.9,3.1 	"/>
</g>
<g>
	<g>
		<path class="st0" d="M22,105.4v17.9h-5.4v-1.7c-1.2,1.4-2.9,2.2-5.3,2.2c-4.7,0-8.6-4.1-8.6-9.5c0-5.3,3.9-9.5,8.6-9.5
			c2.4,0,4.2,0.8,5.3,2.2v-1.7H22z M16.6,114.4c0-2.7-1.8-4.4-4.3-4.4c-2.5,0-4.3,1.7-4.3,4.4c0,2.7,1.8,4.4,4.3,4.4
			C14.9,118.8,16.6,117.1,16.6,114.4z"/>
		<path class="st0" d="M49.9,105.4h3.3v5.2h-3.3v12.8h-5.4v-12.8h-2.4v-5.2h2.4c0-5,2.8-8,8.7-7.7v5.2
			C51.2,102.7,49.9,103.3,49.9,105.4z"/>
		<path class="st0" d="M73,105.4v17.9h-5.4v-1.7c-1.2,1.4-2.9,2.2-5.3,2.2c-4.7,0-8.6-4.1-8.6-9.5c0-5.3,3.9-9.5,8.6-9.5
			c2.4,0,4.2,0.8,5.3,2.2v-1.7H73z M67.7,114.4c0-2.7-1.8-4.4-4.3-4.4s-4.3,1.7-4.3,4.4c0,2.7,1.8,4.4,4.3,4.4
			S67.7,117.1,67.7,114.4z"/>
		<path class="st0" d="M103.9,112.3v11h-5.4v-10.5c0-1.8-0.9-2.9-2.6-2.9c-1.8,0-2.8,1.3-2.8,3.4v10.1h-5.4v-10.5
			c0-1.8-0.9-2.9-2.6-2.9c-1.8,0-2.8,1.3-2.8,3.4v10.1H77v-17.9h5.4v1.6c0.8-1.2,2.4-2.2,4.8-2.2c2.1,0,3.7,0.9,4.7,2.4
			c1-1.4,2.7-2.4,5.2-2.4C101.2,104.9,103.9,107.9,103.9,112.3z"/>
		<path class="st0" d="M143.3,105.4l-6.1,17.4c-2,5.7-5.2,8-10.2,7.7v-5c2.5,0,3.7-0.8,4.5-3l-7.1-17.1h5.9l4,11l3.4-11H143.3z"/>
		<path class="st0" d="M152.4,114.4c0-5.3,4.1-9.5,9.5-9.5c3.5,0,6.6,1.8,8.1,4.6l-4.7,2.7c-0.6-1.3-1.9-2-3.5-2
			c-2.3,0-4.1,1.7-4.1,4.2c0,2.5,1.7,4.2,4.1,4.2c1.6,0,2.9-0.8,3.5-2l4.7,2.7c-1.5,2.8-4.6,4.6-8.1,4.6
			C156.5,123.8,152.4,119.7,152.4,114.4z"/>
		<path class="st0" d="M189.4,112.3v11H184v-10.2c0-2.2-1.4-3.3-3.1-3.3c-2,0-3.3,1.1-3.3,3.7v9.8h-5.4V98.2h5.4v8.9
			c1-1.3,2.8-2.2,5.1-2.2C186.3,104.9,189.4,107.5,189.4,112.3z"/>
		<path class="st0" d="M211.5,105.4v17.9h-5.4v-1.7c-1.2,1.4-2.9,2.2-5.3,2.2c-4.7,0-8.6-4.1-8.6-9.5c0-5.3,3.9-9.5,8.6-9.5
			c2.4,0,4.2,0.8,5.3,2.2v-1.7H211.5z M206.1,114.4c0-2.7-1.8-4.4-4.3-4.4c-2.5,0-4.3,1.7-4.3,4.4c0,2.7,1.8,4.4,4.3,4.4
			C204.3,118.8,206.1,117.1,206.1,114.4z"/>
		<path class="st0" d="M243.2,119c1.5,0,2.7-0.6,3.4-1.4l4.3,2.5c-1.8,2.4-4.4,3.7-7.8,3.7c-6.1,0-9.9-4.1-9.9-9.5
			c0-5.3,3.9-9.5,9.5-9.5c5.2,0,9.1,4.1,9.1,9.5c0,0.8-0.1,1.5-0.2,2.2h-12.7C239.6,118.4,241.3,119,243.2,119z M246.5,112.5
			c-0.6-2.1-2.2-2.8-3.8-2.8c-2,0-3.4,1-3.9,2.8H246.5z"/>
		<path class="st0" d="M272.2,112.3v11h-5.4v-10.2c0-2.2-1.4-3.3-3.1-3.3c-2,0-3.3,1.1-3.3,3.7v9.8h-5.4v-17.9h5.4v1.7
			c1-1.3,2.8-2.2,5.1-2.2C269.1,104.9,272.2,107.5,272.2,112.3z"/>
		<path class="st0" d="M294.3,105.4v17c0,6-4.7,8.6-9.5,8.6c-3.7,0-6.9-1.4-8.5-4.3l4.6-2.7c0.7,1.3,1.7,2.3,4.1,2.3
			c2.5,0,4.1-1.3,4.1-3.8v-1.6c-1.2,1.5-2.9,2.3-5.2,2.3c-5.1,0-8.8-4.2-8.8-9.1c0-4.9,3.7-9.1,8.8-9.1c2.3,0,4.1,0.9,5.2,2.3v-1.8
			H294.3z M289,114c0-2.5-1.8-4.2-4.3-4.2s-4.3,1.7-4.3,4.2c0,2.5,1.8,4.2,4.3,4.2S289,116.5,289,114z"/>
		<path class="st0" d="M307.3,119c1.5,0,2.7-0.6,3.4-1.4l4.3,2.5c-1.8,2.4-4.4,3.7-7.8,3.7c-6.1,0-9.9-4.1-9.9-9.5
			c0-5.3,3.9-9.5,9.5-9.5c5.2,0,9.1,4.1,9.1,9.5c0,0.8-0.1,1.5-0.2,2.2H303C303.7,118.4,305.4,119,307.3,119z M310.6,112.5
			c-0.6-2.1-2.2-2.8-3.8-2.8c-2,0-3.4,1-3.9,2.8H310.6z"/>
	</g>
	<polygon class="st0" points="107.6,100.7 113,97.6 113,103.9 107.6,103.9 	"/>
	<polygon class="st0" points="116.9,100.7 122.3,97.6 122.3,123.3 116.9,123.3 	"/>
	<path class="st0" d="M107.6,105.4h5.4v17.9h-5.4V105.4z"/>
	<polygon class="st0" points="26,100.7 31.4,97.7 31.4,103.9 26,103.9 	"/>
	<path class="st0" d="M26,105.5h5.4v17.9H26V105.5z"/>
	<polygon class="st0" points="215.5,100.7 220.9,97.6 220.9,123.3 215.5,123.3 	"/>
	<polygon class="st0" points="224.8,100.7 230.2,97.6 230.2,123.3 224.8,123.3 	"/>
</g>
</svg>
