<svg xmlns="http://www.w3.org/2000/svg" viewBox="0 0 1189.82 591.37"><defs><style>.cls-1{fill:none;stroke:#00b0c2;stroke-width:2px;}.cls-1,.cls-2,.cls-4,.cls-5,.cls-6{stroke-miterlimit:10;}.cls-2,.cls-3,.cls-4,.cls-5{fill:#f08533;}.cls-2,.cls-4,.cls-5,.cls-6{stroke:#f08533;}.cls-2{stroke-width:0.29px;}.cls-4{stroke-width:0.48px;}.cls-6,.cls-7{fill:#fff;}</style></defs><title>Asset 2</title><g id="Layer_2" data-name="Layer 2"><g id="Layer_2-2" data-name="Layer 2"><path class="cls-1" d="M796.38,91.37c.49-1.87.67-3.89,1.52-5.57A61,61,0,0,1,802.78,78q2.91-2.82,4.85.9a14.93,14.93,0,0,1,.33,4,12.21,12.21,0,0,1,13.15-2.34c-.25-1-.47-1.66-.57-2.35-1.91-12.32,14.18-3.38,18.38-8.48a36.42,36.42,0,0,1,15.13-11.25c6.49-2.49,17.27-9.6,21.22-.84,7.71-3.3,14.72-7.49,22.31-11A22.63,22.63,0,0,1,905.26,45c3.55-.26,4.53.9,4.59,4.47,0,1.25,0,2.51,0,3.82,3.79,0,7.37-.16,10.92.06,3.39.22,11.55,2.86,7,7.93-2.38,2.66-4.24,6.1-8.89,5.74-.91-.07-2,2.68-3.08,4.12l.9.75c5-3.21,6.72.75,11.81.14,8.63-1,16.34,1.6,24,5.1q6.21,3.5,10.73-2c1.89-4.43,4.48-5.39,8.84-3.56,1.88.78,12.88,3,12,8.15-.65,3.87,1.44,5.87,3.74,7.58q4.46-5.39,9.89-1.1c6.52.29,17.37,2.6,21.61-3.3,4.1-5.71,9.09-7.27,15.83-5.43,6.44,1.77,13,3,19.46,4.78a11.48,11.48,0,0,1,5.65,3.09,26,26,0,0,0,19.43,2.27c5.46.18,7.19,2,7.58,7.64,10.11,0,18.13.2,27.62,4.73.67.32,1.29.74,1.95,1.08,5,2.52,5.6,2.14,5.34-3.26-.21-4.24,1.48-6,5.53-4.79a54.08,54.08,0,0,1,11.26,5,26.72,26.72,0,0,0,12.93,3.94c6,.16,12.08,1.29,17,4.67,5.16,3.56,10.34,6.33,16.57,7.31a3.76,3.76,0,0,1,3.22,4.72c-.37,1.21-2.54,2.2-4.08,2.64-2.41.68-4.27,1.38-4.8,4.26-1.94,10.61-25.12-6.36-25-3.58.14,4.44-2.3,5.73-6.84,4.93,1.11,2.67,2,4.68,2.79,6.74,1.32,3.57.3,4.85-3.18,6.36a156.08,156.08,0,0,0-16.8,8.32,30.37,30.37,0,0,1-22.69,3.5c-4.58-1-10.5-.77-12.51,4.36-1.42,3.65-2.38,7.5-4,11a23,23,0,0,1-4.84,6.55c-5.4,5.19-3.7,15.4-11.92,18-3.24,1-4.42.08-4.16-3.27a11.55,11.55,0,0,1,.54-2.81c3.57-10.09-6.21-18,3.05-26.56,4.89-4.54,9.74-9.12,14.46-13.54-.71-.58-1.88-1.13-2.39-2-1.46-2.63-3.27-2.4-5.23-.87a23.47,23.47,0,0,0-3.42,3.34c-4.9,5.81-11.34,7.77-18.7,8-8.59.23-17.2.47-25.74,1.35-7,.72-20.12,6-24.49,12.45-3.56,5.27,5.64,5.6,7.94,7.33,2.53,1.89,4.55,4.47,7,7a5.35,5.35,0,0,0,2.75-5.14q1.15-3.24,3.43-.44c2.6,3.25,2.52,7.17,2.85,11.08.18,2.19,1.33,4.38,2.35,6.42,2.18,4.32,1.5,6.59-3.07,8.69.27,2,.58,4.09.82,6.18.34,3-10,8.09-9.48.85.35-4.86,1.1-9.69,1.72-14.53.25-2,.91-4-1.68-5.74-1.93,9.37-3.22,16.56-9,24.3a57.7,57.7,0,0,0-5.79,8.73c-5.14,10.39-16.06,5.86-22.51,14.08-1.92,2.44-4.93,4-7.68,6.14,1.86.88,4,1.94,6.16,2.89,3.67,1.6,4.75,4.2,3.12,7.89-1.86,4.19-5.44,5.81-9.72,6-6.87.3-7.13,0-6.09-6.8.75-4.94-3.36-2.45-4.23-6.77a25.49,25.49,0,0,1-.07-4.68,19.87,19.87,0,0,1-13.92,1.49c.49-1,1-2.08,1.49-3.09s1-1.74,1.48-2.61l-.72-.7-9.32,7,.15.87c1.9.12,3.81.15,5.69.38,2.58.3,5.57.07,6.52,3.36,2.26,7.83-11.64,6.89-5.72,13.23,7,7.46,4.07,20.27-1.16,26.48a54.39,54.39,0,0,1-9.18,14.55,155.06,155.06,0,0,1-20.83,7.45c3.4,3.34,3.65,5.53,1,8.19-1.8,1.85-5.47,1.65-7.52-.41-1.44-1.44-.48-4.66,2-6.85-1.8-3.29-2.89-3.56-5.8-1.32-1,.77-1.9,1.7-2.88,2.52-1.91,1.58-1.75,3-.08,4.78a121,121,0,0,1,8.16,9.77,12.36,12.36,0,0,1-2.72,17.48c-2.36,1.77-4.3,4.09-6.69,5.8a8.89,8.89,0,0,1-5,1.67c-.71,0-1.35-2.37-2-3.67-1.47-2.95-6.2-8.24-9.43-8.93-1.08-.23-1.92-1.55-2.77-2.28L885.17,344c.91,2.16,1.43,5,3,6.84,2.21,2.6,5.27,4.47,7.9,6.72,1.08.91,2.41,1.84,2.91,3.06,2,4.75,6.16,13.73-1.5,16a7.3,7.3,0,0,0,5.33,4.65c3.44.88,4.46,2.74,4.48,6.34,0,1.29.8,2.59,1.36,3.84.25.55,1.17,1,1.15,1.45-.19,4.93,7.24,7.4,10.82,6.82a27,27,0,0,1,11,2.84,23.32,23.32,0,0,0,11.26,3c2.73,0,5.51-.55,8.19-.2,1,.13,1.81,2.07,2.7,3.18-1,.82-2,2.12-3.18,2.34a14.29,14.29,0,0,1-5.36-.26c-3.11-.61-6-1.49-9.3-.1-1.48.63-4-.28-5.66-1.17q-8.21-1.17-16.48-1.74a45.3,45.3,0,0,1-6.64-2.2c-2.79-1.06-5.48-2-6-5.76a4.33,4.33,0,0,0-4.18-3.74c-2.65-.17-3.85-2-5-4.23a83.33,83.33,0,0,0-5.68-8.63c-.53-.78-1.41-1.41-1.73-2.25-1-2.81-7.27-6.69-7.57-9-.46-3.65-3.09-5.16-6-6.63a6,6,0,0,1-2.45-2.78,2.58,2.58,0,0,1,2.58-3.64c2.1.05,4.3-.29,6.25.27,1.65.48,3.08,1.9,4.47,3.07a31.9,31.9,0,0,0,4.63,3.76c-1.33-5.45-.69-11.59-6.36-15a2.7,2.7,0,0,1-.8-2.25c1.31-8-.55-15.59-2.91-23.16a60.44,60.44,0,0,1-7,2.43c-2.75.61-4-.55-3.39-3.27,1.19-4.91-.9-8.31-4-11.72-2-2.22-3.47-5-5.36-7.75a11.86,11.86,0,0,1-3.18.57c-4.66-.27-8.42.83-10.06,5.74a.49.49,0,0,1-.2.25c-6.54,5.34-13.1,10.65-19.59,16.05q-5.37,6.19-1.92,15.1a17.58,17.58,0,0,1-6.69,9.1,4.65,4.65,0,0,1-7.2.25,7.69,7.69,0,0,1-2.15-3.47c-1.31-8-7.57-14.31-7.85-22.7,0-1.3-1-2.55-1.41-3.86-1.16-3.57-2.27-7.16-3.37-10.68-2.89-.8-6.35-1.5-9.61-2.73-1.85-.7-2.07-2.58-.87-4.26a14.8,14.8,0,0,1,2.1-2c-2.62-1.57-5.14-3-7.6-4.6-.79-.5-1.86-1.12-2-1.88-.79-3.22-2.78-2.1-4.92-1.87-6.25.69-12.54,2.51-18.81.74-2.94-.83-5.62-2.57-8.36-3.86-1.34,4.34,8.5,5.52,9.19,9.26.06.35.47.68.78,1,2.83,2.47,2.85,4,.16,6.67a13.85,13.85,0,0,0-2.68,3.07c-3.89,7.31-10,11.85-17.49,15.07-5.64,2.43-11.05,5.42-16.66,7.92a57.87,57.87,0,0,1-10.72,3.84c-4.89,1.08-9.5-1.54-10.07-6.44-1.24-10.71-8.29-18.45-12.88-27.43a196.53,196.53,0,0,0-10.9-18.68c-1.17-1.77-4-2.42-6.48-3.1.47.61.93,1.23,1.41,1.83s1.55,1.31,1.55,2c0,6.81,7.06,9.73,8.48,15.71.42,1.75,1.41,3.46,1.38,5.18-.08,4.67,2.37,8.05,5.25,11.2,3.07,3.38,5.37,7.05,6.15,11.64a6.45,6.45,0,0,0,1.82,3.26c2.93,2.92,5.75,6.07,9.15,8.34,1.85,1.23,4.78,1.14,7.21,1.09a77,77,0,0,0,11-1,23.14,23.14,0,0,0,5.84-2.16c2.67-1.25,3.79-.65,3.72,2.31-.25,11.56-4.83,20.59-15,26.74-5.05,3.05-10.34,6.23-14.27,10.5-4.22,4.59-7.41,10.31-10.19,16-1.28,2.6-.72,6.22-.6,9.37a99.5,99.5,0,0,0,1.13,10.74,48.51,48.51,0,0,0,2,9.57c4.5,12.18-6.22,13.9-14.66,19.08-3.59,2.2-4.34,3.83-2.74,7.72,2.64,6.41,1,11.39-4.16,15.51a10.89,10.89,0,0,0-3.93,8,13.72,13.72,0,0,1-5.21,9.86c-9.31,7.35-19,14.13-31.11,15.86a29,29,0,0,1-7.61.14c-10-1.23-19.2-25-19-33.54a22.41,22.41,0,0,0-6.49-17.06q-7.17-6.82-3.13-16.35c2.07-3.09,4.13-6.19,6-9.4.71-1.22,1.49-2.91,1.19-4.13-1.72-7.1-3.53-14.2-5.81-21.14-.77-2.35-2.79-4.43-4.61-6.26-5.71-5.72-6.83-10.43-3.85-17.84,2.61-6.51,2.41-6.95-4.53-7.18-4.94-.16-9.37-1.34-13.3-4.51-6.6-5.34-21.5,4.14-29.77,2.92-1.84-.28-3.8.2-5.7.4-6.55.7-11.43-1.55-15-7.32-2.19-3.56-5.35-6.51-8-9.8-1.59-2-3.07-4-4.53-6.1-1.59-2.25-3.06-4.56-4.64-6.81-2.15-3.05-3.27-6.33-1.45-9.84,2-3.88,1.85-7.86,1.73-12.07-.24-8.25,1.67-16,7.41-22.38,3.54-3.93,6.67-8.2,11.69-10.64,3.78-1.83,10.17-18.48,11.93-21.5a8.81,8.81,0,0,1,8.31-4.44,1.61,1.61,0,0,1,.31,0,28.47,28.47,0,0,0,22.28-5.15c1.7-1.22,4.45-1.14,6.75-1.31,6.75-.49,16.47-2.56,22.31.88,7.31,4.3-3.23,13.53,9.09,15.27,5.09.72,9.69,2.22,13.44,5.89a10.74,10.74,0,0,0,2.36,1.62c2.42,1.35,3.79.76,4.47-1.85,2.08-8.06,5.11-9.38,12.41-5.19a29.55,29.55,0,0,1,5.27,4.07c2,1.83,4.11,2.14,6.74,1.85,4-.43,8.16-.31,12.24-.51,3.06-.16,6.11-.43,9.16-.75.37,0,.69-.68,1-1.08.11-.15.07-.41.14-.61L673.77,253c-5.31,1.18-10.45,3.6-14.56-.07-2.65,1.12-4.62,2.05-6.67,2.74-.53.17-1.83-.31-1.92-.68-.83-3.67-4-3.63-6.68-4.46-2.12-.66-3.66-1.14-3.24-4.3s-.63-6.6-1-9.93c-8.33,0-3.11,5.65-3.27,10.44-.28,8-9.81,2.12-12.28.43s-2.93-4.43-1.58-7c1.07-2.06.75-2.84-1.21-4.2a17.32,17.32,0,0,1-5.45-6.27c-2.64-5.4-5.61-7.52-12.68-7.28a38.51,38.51,0,0,0,9.17,11.35q6,6.4-.35,11.64-6.81,1.56-9.13-5.42c-3.52-8.88-11-9.73-18.45-13.66-19.55-10.29-30.17,40.06-54.78,26.81-3.39-1.82-4.66-4.85-4.78-8.44-.15-4.66-.19-9.33-.17-14,.07-13.8,21.61-1.7,28.29-10,1.69-2.1,1.78-4.17-.17-5.92q-4.7-3.76-9.54-7.3-3.45-4.23,1.88-5.49c4.24-.31,8.13-1.29,11.41-4.06l-.13-1c-3.09.47-6.19.85-9.26,1.44q-6.08,3.92-11.62.74-1.16-3.09,2.16-3.69c-3.05-4.31.27-5.45,2.74-8.61a17,17,0,0,0,4.15-6.35c-.39,3.65-8.84-11.49-8.06-10.52-2.66-3.32-2.6-5.38.57-8.13a14.11,14.11,0,0,0,1.66-2.48q2.46-6.17,7.4-.92c1.18.84,2,2.21,3.1,3.12,2.26,1.82,2.31,4.05,1.1,6.28-1.42,2.6-.34,3.83,1.71,5.46,1.72,1.37,12.48,11.76,9.59,15.69-.57.76-.56,2-.73,3a9.35,9.35,0,0,0,.17,4c2.87-2.52,5.67-5.15,8.65-7.54a70.29,70.29,0,0,1,9.37-6.8c3.61-2,4.21-2.5,3.61-6.62a35.58,35.58,0,0,1-.67-6.63c.11-2.39,1-4.88,3.77-5.23,6.07-.75,4.49,11.43,4.43,13q4,5.57,11.59,2c3-.29,6-.95,9-1.52,1.45-.27,2.86-.88,4.32-1a7.85,7.85,0,0,0,7.2-6.19c1.78-7.44,1.64-9.07,9.68-9.38-.3-1.58-1.11-3.3-.76-4.73s1.88-2.53,2.86-3.74q-7.1,1.1-9-5.84c2.12-13.11,4-11.9,11-21,4.65-6.11-19.37,13-18.27,12.45-5.8,3.19-6,5.19-2,10.45,3.36,4.39,3.33,6.16-1.2,9-3.15,2-4,4.53-4,8,0,5.5-2.24,8.29-7.12,9.53-4.11,1-6.81-.2-8.48-4.12a34.75,34.75,0,0,1-1.54-5.18c-2.1-8.39-7.79-5.14-13.92-4.85-6.43.31-10.36-4.85-8.94-11.07,1.51-6.59,4.83-11.6,10.78-15a19.79,19.79,0,0,0,9.15-10.66c1.62-4.4,5.67-6.48,8.91-9.33a21.05,21.05,0,0,0,2.76-2.13c4.31-5.39,8.73-10.4,15.7-12.75,1.94-.64,3.22-3.74,4.43-5.93,1.85-3.37,3.8-4.07,7.17-2.06,6.92,4.14,12.66-3.25,17.61.18,4.17,2.89,7.39-5.83,8.8,3.69,5.78-1.2,10.44,1.46,15,4.55a38.36,38.36,0,0,0,15,6.51c6.41,1.12,8.43,4.77,6.8,11.58l6.33-.55c-1.31-5.16.26-9.25,3.1-12.85.77-1,3-2,3.64-1.55a5.45,5.45,0,0,1,1.88,3.86c.12,1.6-.58,3.26-1.11,5.79,2-1,3.53-1.61,4.9-2.43,3.83-2.26,7.5-4.85,11.46-6.85,2.3-1.16,5-1.5,7.59-2.09,3-.67,4.83.17,4.23,4.56l19.12-5.09a11.06,11.06,0,0,0,0-1.12c-.22-3.93,2.5-6.38,6.26-5.18a34.34,34.34,0,0,1,7.36,3.65c3.65,2.22,7.16,4.68,10.68,7-.49-5.28-1.36-9.94-1.27-14.59.16-9.15,10.52-15.3,19-11.66q2.77,4.11-1.12,7.8c-.8,2-.61,3.85,1.64,4.93.19,3.58.37,7.16.59,10.73.12,2.11.73,3.85,2.63,4.09-.45-2.58-2-5.56-1.12-7.56C800,95,799.4,93.09,796.38,91.37ZM657.53,213.68c-3.69,3.83-7.35,9.61-7,12.62.46,4.35-1.57,6.51-5.3,7.81a18.51,18.51,0,0,0-2.3,1.18c2.43-.06,5.33,1.33,6.47-2.21.13-.39,1.25-.52,1.94-.67,3.79-.83,7.69-1.32,11.35-2.53a69.28,69.28,0,0,1,24.66,2.94c3.3.31,4.46-1.87,2.22-4.27s-5.22-3.76-8-5.42c-1.93-1.16-4-2-6.43-3.25C666,222,664.69,220.42,657.53,213.68ZM717.32,278c0,.82-.27,1.74,0,2,3.5,3.17,3.93,8.83,8.87,10.85.57.23.91,1.31,1.1,2.06a15.58,15.58,0,0,1,.21,2.72c3.57.48,4,.2,7.49-4.52-1.76-1.21-3.46-2.5-5.28-3.61a13.81,13.81,0,0,0-4.28-2c-2.18-.43-3.5-1.16-3.44-3.63C722.12,278.12,721.7,277.8,717.32,278ZM676,123.31c3.49.29,9.84,2.13,11.56-2.59-5.3,1-9.36-4-14.62-2.26Z"/><path class="cls-1" d="M366.26,501.42c.92,1.75,1.82,3.51,2.76,5.24,3.2,5.88,1.28,10.41-5.34,11.34a17.09,17.09,0,0,0-10.54,5.78c-1.78,1.89-4.41,3-6.72,4.46,1.75,3.62,1.61,4.09-2.38,6.84,1.27,5.92,1.1,6.19-5.5,8.38.66,2.39,1.36,4.79,2,7.21A69.5,69.5,0,0,1,334,563.35c.15,2.77-.45,3.26-6,7.64,1,2.35,23.59,17.67,9.78,19.38a45.85,45.85,0,0,1-20.69-6.79,23,23,0,0,1-5.27-3.47,54.39,54.39,0,0,0-2.3-11.43c-.76-.56-1.43-1.26-2.14-1.9-3.78-3.46-3.46-6.67.94-9.38.36-.22.7-.47.94-.64a55.4,55.4,0,0,1-3.24-7.22c-2.35-7.95,8.72-7.42,7.88-15.92a11.67,11.67,0,0,0-.32-2.52c-2.63-7.81-.8-14.93,2.81-22s.84-17.3,4-24.9a13,13,0,0,0,1.17-5.25c-.44-9.43,1.55-18.56,3-27.77a19.18,19.18,0,0,0-.3-6.31,7.8,7.8,0,0,0-5.69-6.58,46.56,46.56,0,0,1-17.23-10c-7.5-6.66-3.81-18.26-11.51-25.56-4.5-4.27-4.56-5.3-2-10.84,2.36-5.05-5.41-12.56,2.16-15.51,5-1.95,6.95-6.36,8.78-10.71.94-2.25.84-4.94,1.27-7.84-3,0-5.65.08-8.25,0-8.91-.32-12.13-11.22-17.18-11.14-4.38.07-7.09-2.18-8.52-5.95-1.54-4.05-4.26-5.48-8.4-4.93-7,.93-8.12-4.16-14-5.6-.16,0-.39.27-.57.24-6.46-.91-13.69.81-18.71-5.16a7.65,7.65,0,0,0-6.05-2.92,29.66,29.66,0,0,1-5-.62c-4.72-1-6.14-3.4-4.86-8.05.14-.51.26-1,.39-1.53l-.9.33c-.86-1.78-2.07-3.48-2.53-5.36-1.14-4.66-4.5-7.61-7.72-10.66-5.07-4.81-11.94-8-13-16.78-2.09,4.24-1.22,9.3,1.16,11.91,3.5,3.84,6.92,7.76,10.21,11.78,1.85,2.26,3.68,5.22,1.41,7.76s-5.24.6-7.62-.61c-4.57-2.32-7.39-6.39-9.26-11-2.12-5.2-3.82-10.56-5.61-15.89-1.52-4.54,1.56-7.82-4-10.67-7-3.57-4.62-12.4-10.69-15.22-4.6-2.14-8.17-5-9.46-10.35-1.71-7-8.47-7.39-6.7-16,1.15-5.6.87-10.79-2.78-15.73-6-8.15,6.55-4.86,7-10.28.18-2.09-.83-2.88-2.8-2.92-1.62,0-4.7-3.71-6.34-4.45-9.66-4.37-17.18-22.18-24.85-24.8-3.85-1.32-7.44-2.95-7.75-8.06-1,.37-1.53.56-2.07.79-3,1.27-5.14.31-5.38-3-.6-8.26-18.9-2.48-23.72-13.26-1.77,1.22-18.94,16.06-15.29,3.1a2.89,2.89,0,0,0-.06-.92c-9.19-2.35-10.86,15.75-18.57,19.08-6.25,2.7-12.57,5.72-17.21,11.12-.54.62-1.21,1.41-1.92,1.54q-7.69,3.83-14.91.91c-3.16-5.25,12.4-14.11,14.28-14.7a25.27,25.27,0,0,0,16-8,40.45,40.45,0,0,0-4.07-.63c-3.92-.22-7.87-.09-11.75-.56C8.67,159,6.41,141.2,20,138c-.64-3.1-2.45-4.23-4.88-4.16-28.07.82-7.69-17.34,4.12-6.88-.45-4.78-19-23.48-8.4-27.18,7.74-2.71,25.85-17.35,33-8A36.75,36.75,0,0,1,50.07,91q4.18,1.95,8.39,3.86c15.13.63,26.67-.87,40.08,6.78,4,2.29,9.15,2.73,12.84,0,3.53-2.6,7.21-2.16,11-1.17,2.63.7,4.31.31,6.27-2,15.25-17.66,21.08,8.65,33.46,5.12,4.72-1.35,14.17-3.26,12.91,5-.22,1.44-.54,2.87-1,5.09,4.24-.77,8-2,11.73-1.94s7.15,1.66,11.33,2.72a15.64,15.64,0,0,1-1.05-3.67c-.07-9.13,6.56-2.13,12-4.42s10.48-1.45,15.57,1.27q6.88,6.08,12.7.44c1.24-6.19,5.21-7.42,11-7.26,6.81.19,12.84,1.32,17.29,7,3,3.76,6.72,4,9.64.07a36.36,36.36,0,0,1,3.72-4.76,8,8,0,0,1,4-2.13c9.28-1.37.92,14.05-5.07,15.64A22.61,22.61,0,0,0,273.9,118l4.46,5.76c4.81-2.92,10.4,4.36,13.35,7,2.53,2.23-23.95,15-23.95-4.56-5.5-.4-18.39,18.2-21.09,21.47-9.09,11,18.88,22.47,26.15,23.88,9.27,1.81,11.35,9.11,14.48,16.71,3.29-8.69,7.85-16.37,5-25.57A19.19,19.19,0,0,1,294.52,149c1-2.72,2.58-5.35,3-8.15.9-6.14,4.11-8.11,9.76-5.27,3.6,1.81,7.06,3.88,10.63,5.74a14.58,14.58,0,0,1,7.14,7.78c1.61,4.06,5,6.15,9.09,7.66,1.12-1.89,2.1-3.75,3.28-5.48,3.68-5.43,10.52-2.56,10.29,2.7-.17,3.91,1.76,6.28,4.78,8.3a13.6,13.6,0,0,1,6.55,12.3c-.08,5.15.3,5,5.41,5.6a21.35,21.35,0,0,1,7.34,1.76c4.8,2.45,4.94,8.37.2,10.91-4.26,2.28-28.57,6.36-29,9.91-.55,4.37,6.88,4.56,9.07,5.41,3.43,1.35,4.3,3.1,3.67,6.75-1.22,7-7.17,12.17-13.77,11.49a7.22,7.22,0,0,1-4.82-2.46c-1.74-2.55-3.81-1.75-5.86-1.39-2.4.42-2.29,2.53-2.35,4.3-.25,8-2.58,10.53-10.55,10.82-5.47.2-7.19,5.25-8.42,9.84-.6,2.29-1.54,4-3.7,3.61-1.16,4.19-2,8.23-3.47,12A99.36,99.36,0,0,1,290,273.89c-2,1.9-1.14,4.31.08,6.46,1.42,2.5,10.46,14.47,2.69,17.51a4.39,4.39,0,0,1-5.81-1.68,20.22,20.22,0,0,1-6.6-7.58c-.92-2.69-1.65-5.45-2.59-8.62-4.4,2.06-8.38.49-12.43-.75-2-.62-7.16,2.84-9.3,3.26-4.24.82-8.51,1.48-12.76,2.19a4.44,4.44,0,0,1-1,0c-4.06-.06-4.82.75-4.77,4.83a10.57,10.57,0,0,1-.41,4.07c-2.86,7-.26,13.32,2.09,19.69.56,1.52,1.53,2.51,3.43,1.4.57-.32,1.59.05,2.38.23a46.23,46.23,0,0,0,5.23,1.26c3.85.39,4.3-.09,4.64-3.9.31-3.64,2.11-5.38,5.89-5.72,4.1-.37,7.26,1.58,8,5.12.82,3.82-.2,7.35-2,10.71-.54,1-1.11,2-2.21,3.92h8.17c6.5,0,8.89,2.16,9.31,8.6.18,2.65-.19,5.35.17,8,.27,1.9,1.34,3.69,2.15,5.79,1.7-1,2.57-1.58,3.51-2a7.89,7.89,0,0,1,8.44.48,17.48,17.48,0,0,0,2.91,1.93c5.18,2.17,4.46,2.55,6.33-2.55,1.69-4.59,3.29-5.73,8.06-4.94a22.1,22.1,0,0,0,7.11-5.31c2.12-.64,3.49.52,3.09,3s-.86,4.9-1.46,8.28c2.43-3.32,6.55-7.88,10.79-3.35,1.76,1.89,3.68,2,6,2.16,3.75.26,7.47,1,11.21,1.46a4.22,4.22,0,0,0,2.2-.43c3.35-1.69,6.11-.85,6.92,2.7,1.24,5.36,4.79,7.46,9.74,8.73a131.46,131.46,0,0,1,15.23,5.21c3,1.19,4.11,3.88,3.7,7a9.54,9.54,0,0,0,1.83,7.16,12.63,12.63,0,0,0,3.59,7.94,6.15,6.15,0,0,0,4.73-1.26c4.36-4.57,9.1-4.5,12.42,1,2,3.27,4.35,4.66,8.06,4.23,4.18-.49,7.84.9,11.43,3.05,2.08,1.26,4.7,1.65,7.11,2.3,1.94.52,4.1.5,5.84,1.35,3.33,1.63,4,5.81,2,9.13-2.56,4.26-4.86,8.67-7.45,12.91a30.36,30.36,0,0,1-4.75,6.34c-2.68,2.55-3.4,5.6-4,9.05a71,71,0,0,1-3.66,13.74,19.57,19.57,0,0,1-10.37,10.77c-9.67,4.36-17.43,9.64-21,20.19-2.51,7.49-4.85,15.17-10.33,21.33-3.82,4.29-6.26,5-11.43,2.59-1.67-.79-3.39-1.49-5.09-2.23ZM332.26,207l6.55-5.83C332.83,200.86,331.67,202,332.26,207Z"/><path class="cls-1" d="M400.58,12A21.26,21.26,0,0,1,399.09,10c-.08-3.74,1.7-5.57,5.36-5.5a216.78,216.78,0,0,1,48.18-3.37c8.84.32,25.07,4.56,33.75,8-4.86,6.83-12.75,5.19-20.71,5.19v1.37A22.3,22.3,0,0,1,477,16.79c-.41,1.23-.8,2.46-1.23,3.68a8.77,8.77,0,0,1-.56,1.1l.64.78c5.63-4.6,9.36-6.29,15.55-9.78,3.7-2.09,29.24-6.1,22,4.52-2,2.94-7.77,11.65-10.48,14.39-2,2.07-5,3.22-7.24,5.15a10.11,10.11,0,0,0-2.89,4.56,23.07,23.07,0,0,0-.48,13.56c4.22,8.82.95,16.31-8.39,18.7-1.1.29-2.18.64-3.31,1A59.79,59.79,0,0,1,483,80.55c2.53,9.3-10,4-8.14,12.18,2.52,1,4.9,1.79,7.16,2.84,13.84,6.4-23.07,11.35-21.68,11.3-4.78.16-8.53,1.37-11.15,5.85a12.3,12.3,0,0,1-11,6.53c-8.69,0-10.05,10.14-17.77,12.71-3.78,1.26-4,2.24-2.14,5.75A13.17,13.17,0,0,1,417,151c-2.15,2.59-5.57,2.37-7.92-.08a23,23,0,0,0-5.4-3.7c-3.78-2.14-7.75-4-11.44-6.23-2.61-1.61-4.24-3.91-3.91-7.44a18.59,18.59,0,0,0-7.69-9.42c-5.47-6.56-4.77-13.74,1.71-19.32.87-.75,1.77-1.47,2.92-2.43-3.53-1.19-11.66-3.54-6.95-9.15,1.2-1.43,2.46-2.81,4.15-4.74-6.1-.64-13.07-.84-13.14-8.79a9.27,9.27,0,0,0-1.57-5.25c-4.53-5.9-9.13-12.18-17.35-12.86-7-.57-19.56,2.49-24.83-4.18-1.88-2.38-1.62-4.12,1-5.71,1.38-.82,2.78-1.59,4.17-2.38l-.18-.88c-2.46-.35-4.91-.71-7.38-1-3.86-.5-5.46-1.81-5.49-4.52s2-4.65,5.45-5.16a24.94,24.94,0,0,0,13.9-3.17A11,11,0,0,1,334,29.44c.21-1.07,2.07-2.2,3.41-2.6a34.28,34.28,0,0,0,13.3-6.91C364.15,8.31,384.35,7.66,400,13.21Z"/><path class="cls-1" d="M340.67,15.47a14.21,14.21,0,0,1,2.09,1.33c.7.7,1.81,1.54,1.77,2.26-.23,3.41-18.62,9.47-20,10.12A9.21,9.21,0,0,0,320.6,33q-7.08,4.36-13.73,9.38c-.76,2-1.54,4.33-3.09,5.41-2.3,1.6-11.37.92-11.06,5.89.19,2.93-2,4.46-4.7,4.54-7.16.19-19.87,2.26-26.73-1.48q-3.66-4.36-.87-8.63c-.82,2.8-22.66-20.55-18.59-21.72s1.55-5.9,4.31-7.49c2.12-1.22,5.4-.09,6.89,2.43s3.14,4,6.26,4c1.55,0,3.1,1.12,4.82,1.8.5-1.93-15.88-11.73-3.06-13.47,6.45-.88,11,2,15.8-4.9S313,7.7,319.69,7.85c2.1,0,33.15-2.43,32.08,2.68Q348.35,16.34,340.67,15.47Z"/><path class="cls-1" d="M312.1,124c.24.9.47,1.72.7,2.54a7.52,7.52,0,0,1-2.77.32c-5.55-1.49-15.45-11-20.1-9.43-1,.34-2,1.11-3,1q-5.52-.45-1.89-4.79a69.43,69.43,0,0,0,6-4.15c1.67-1.25,2.84-2.81,2.17-5.11C292.86,103,282,95.21,280,96c-2.48,1-4.69.49-7-.7a9.08,9.08,0,0,0-4.15-.57,33.08,33.08,0,0,0-4.3.56,2.4,2.4,0,0,1-2.95-1.84c-1-2.93-6.18-.7-7-3.88-.21-.77.37-1.79.74-2.65,2.56-6,14-14.09,10.45-2.89l.64.28c.29-.51.62-1,.86-1.53,4.22-9.63,6.92-.21,10.67.22,4.27.5,12.66.51,16.41,3.86a7.92,7.92,0,0,0,6.11,2c8.8-.53,3.24,8.35,9.64,9.54a19.87,19.87,0,0,1,10.54,5.2c1.57,1.52,2.78,3.25,2.58,5.63-.27,3.29-1.86,4.84-5.11,4.3a8.56,8.56,0,0,1-4.35-2.19c-2.53-2.46-4.16-3.12-8.42-2.15,1.52,1.08,2.78,1.92,4,2.85,1.93,1.49,3.89,2.94,5.67,4.6a6.92,6.92,0,0,1,1.53,2.78c1.3,3.74.34,5-3.51,4.63A7.94,7.94,0,0,0,312.1,124Z"/><path class="cls-1" d="M194.33,65.94c-.78-5.46,3.68-10.26,8.73-3.24,10.7,14.86-10.32,12.4-20,7.88q-.63,7.1,5,9.7c4,.22,7.52,1.88,11.1,3.4.27.11.57.15,1.17.31,0-1.37-.05-2.57,0-3.76.19-3.55,2.6-5.23,5.79-3.69,3.77,1.83,6.83,4.56,7,9.18.12,3.94,7.31,7.4,5.55,10.48-.88,1.53-2.45,1.56-4,.66-1.61,3.84-20.14-3.16-23.62-1s-10.59-.5-12.27-4.3c-2-4.57-6.45-1.74-4.9-8.46-1.74,3.19-4.58,4.51-8.51,3.93-4.3-2.22-7.16-12.75.13-12.86,4.52-.07,10.45-4.82,14.46-6.37-2.31-.47-16,2.28-16.13-1.41,0-.6,13.21-10.76,15.38-10.27,1.95.45,2.28,2,2.27,3.76a10.67,10.67,0,0,0,.18,1.3c2.36-.09,3.88,1.07,5.33,2.9C188.76,66.25,191.5,66,194.33,65.94Z"/><path class="cls-1" d="M1005.22,427.87a48.47,48.47,0,0,0,3.38,4.09,3.66,3.66,0,0,0,2.44,1c4-.2,7.18.78,8.91,5.29.67-1,1.28-1.59,1.36-2.19.62-4.71,1-9.45,1.74-14.15a18,18,0,0,1,1.8-6.28c1.67-2.88,4-2.68,5.49.32.75,1.47.81,3.28,1.42,4.84s1.13,3.19,2.26,4c4.06,3,5.65,7.31,7.09,11.78.49,1.51,1,3,1.33,4.58q4.59,4.95,9.49,9.6c.07.31.13.79.32.87,4.24,1.88,4.23,6.24,5.84,9.69a23.07,23.07,0,0,0,3.88,5.38c3.59,4,5,8.3,3.62,13.77-1.29,5.24-10.57,15.57-9.91,20.92s-.56,9-6,11.5c-4.21,1.94-8,4.42-12.84,3.19a1.12,1.12,0,0,0-.63,0c-6.89,2.65-11.86-1.5-16.76-5.08-1.81-1.32-3-3.77-4-5.91-2.46-5.25-6.46.24-8.59-3.86-.09-.19-.72-.17-1.1-.14-4.21.26-5.42-.75-5.63-4.73-.29-5.33-3.28-8.06-8.6-7.61a7.7,7.7,0,0,0-3.45,1.37,16.41,16.41,0,0,1-11.68,3.19c-3.91-.48-7.24.51-9.76,4-1.74,2.4-4.54,3-7.47,2.62-6.16-.73-12.25-.92-18.27,1.17-2.19.77-4.6.47-5.78-2-1.39-2.9,1.26-3.76,3.33-5.18-6.48-5.09-2.34-11.78-6.15-18q-4.68-3-3.05-7.83c1.81-1.38,1.49-2.9,1-4.53-.63-2.25-1.38-4.46-2.09-6.68-1.48-4.57,2.55-3.3,4.59-5.94,6.2-8,19.23-1.57,23.45-11.92,1.64-4,9.16-4.95,9.74-8.53a6.94,6.94,0,0,1,10.09-5c2.17,1.16,3.94,1.55,5.51-1.19.63-1.11,2.53-1.78,4-2.08,1.76-.36,2.84-.64,2.93-2.85.15-3.64,2.6-5.36,5.86-3.58s6.75,1.37,10.19,1.49c1.88.06,4-.31,4.85,2.05.73,2.07-.08,3.57-1.76,5A15.28,15.28,0,0,0,1005.22,427.87Z"/><path class="cls-1" d="M1045.55,396.41a48.73,48.73,0,0,1,5.3-1.19q5.67,1.69,9-2.41c1.3-2.93,4.44-4.27,9-3.52,3.68.6,5.25,2.11,5,5.69-.14,2.44.81,3.15,3,3.41,6.74.81.15,11.87-9.9,4.28-6.37-4.81-14,3.23-20.38-2.28l-.71.75c3.66,5,8.22,6.58,10.63,12.52a18.58,18.58,0,0,1-4.19,1.44,10.24,10.24,0,0,1-10.07-4.83c-.48-.7-1-1.36-1.56-2-3.42-4.1-4.8-4.06-7.84.19-2.86,4-9.15,4.85-12.57,1.4a6.68,6.68,0,0,0-6.25-2.07c-1.3.16-2.72-.56-4.08-.89.39-1.35.69-2.74,1.21-4.05a37.52,37.52,0,0,1,2.13-3.77A70.51,70.51,0,0,0,1006,398c-2.82-.11-5.22-.58-6.75-3.31a2.87,2.87,0,0,0-2.27-.89c-4.64.21-5.8-1.16-4.54-5.84a5.52,5.52,0,0,1-1.66-.57c-1.32-1-3.12-1.95-3.69-3.34-.84-2.08,1.28-2.67,2.84-3.42,5.66-2.73,7.49-2.55,11.09,1.45a11.2,11.2,0,0,1,1.19,2.43q.82,4.15,4.19,1.42c.57-.36.86-1.18,1.26-1.8,2.43-3.78,6.08-4.63,9.31-1.4s6.84,4.07,11.2,3.94c1.91-.06,4.63.69,5.66,2.07C1037.07,393.05,1041.08,395.73,1045.55,396.41Z"/><path class="cls-1" d="M746.93,96.72c-2.55,0-5.1,0-7.64,0A11.16,11.16,0,0,1,731.11,93a10.71,10.71,0,0,0-4.72-2.74c-3.67-1-4.9-3.32-2.93-6.57,6.33-10.45,14.88-20.92,26.43-24.92,5.52-1.91,10.85-4.54,17.06-3.29,1.15.23,2.58-1.32,4-1.82,3.86-1.39,7.71-2.86,11.66-3.91,2.09-.56,2.33.41,2.36,2.85.09,6.6-4.79,7.28-9.06,9-6.46,2.66-13,5.1-19.28,8.16-5,2.45-9.6,5.72-14.4,8.58-3.23,1.93-3.54,6.1-.5,8.9a45.56,45.56,0,0,0,4.15,2.94,13.87,13.87,0,0,1,3,2.35c.72.92,1.47,2.31,1.26,3.29-.14.66-1.93,1-3,1.43Z"/><path class="cls-1" d="M938.58,358.8c-.15.48-.1.27,0,.08,2.54-5.59,5.88-5.06,10.67-1.13q4.49,2.34.56,5.09c-2.6.82-1,3.25-2,4.51-1.4,1.68-1.14,2.73.52,4.19,1.86,1.62,1.15,3.8-1.84,5.56-1.58.93-2.28,1.82-2.16,3.7.07,1-.74,2.14-1.14,3.22s-1.32,2.27-1.1,3.2c.87,3.75-1.65,5.15-4.15,6.63s-4.64.24-6.68-1.28c-.65-.48-1.7-1.25-2.16-1-3.38,1.6-5.66-1.34-8.43-2-1.14-.29-1.78-2.6-2.62-4a24.72,24.72,0,0,1-3.75-8.61c.08-1.86,1.43-2.93,3.54-3.43q4.62-4.1,9.56-7.78c2.53,0,3.86-1,5.2-3.25C933.5,360.83,936,360.24,938.58,358.8Z"/><path class="cls-1" d="M603.6,41.32c-3,0-6,.1-9,0-4-.17-6-2.23-5.69-5.67.36-4.12,2.48-5.3,6.19-3.45,3.74-3,5-2.9,9.61,1.08.95-2.45,1.17-6.13,4.95-5.13,2.35.62,4.34,2.59,6.49,4l.62-.6c-.61-.31-1.5-.46-1.76-1-.55-1-1.19-2.36-1-3.37.15-.66,1.75-1,2.74-1.43,4.28-1.71,7-2.25,10.81.58a30.91,30.91,0,0,1,15.11-.54c5.1.57,5.7,2,3.79,6.67s-5.26,6.09-9.68,6.46c-.69.06-1.38.18-1.8.23,2,2.73,4.38,5.21,5.84,8.15,4.08,8.2-15.23,9.23-14.76.13q-2-5.09-6-.92A24.83,24.83,0,0,1,616.23,54c-3.29,3.8-7.16,3.44-11,.19-2.06-1.73-4.8-2.65-7.12-4.1a12,12,0,0,1-2.23-2.41,19.31,19.31,0,0,1,8.07-4.58Z"/><path class="cls-1" d="M1024.63,229c.11.93-.08,2.05.37,2.76,2.52,4,2.28,8,.37,12.09-1.59,3.45-3.25,6.78-2.37,11,1.09,5.16-5.73,3.4-8.38,5.46-2,1.59-3.92,2.07-6.17,0-1.65,3.06-3.76,5.45-7.29,4.2-1-.34-1.34-2.44-2.28-4.32-1.53.77-3.47,1.66-5.34,2.69-3.14,1.72-5.17,1.62-6.47-.44s-.38-5.4,2.13-6.9a8.46,8.46,0,0,1,4.43-1.48c8.89.59,15-5.17,21.64-9.45q4.31-6.87,1.75-15.4c-.33-3.16.79-4.73,3.58-5.24s4.26-1.27,3-4.58c-.43-1.11.77-2.83,1.22-4.26a111.29,111.29,0,0,0,13.18,5.31c.84.34,2.21,1.17,2.15,1.63-.18,1.44-.53,3.49-1.54,4.08-2.27,1.32-4.31,2.31-5.44,5.08-.93,2.27-3.19,1.46-4.86.15-1-.78-1.92-1.66-2.87-2.5Z"/><path class="cls-1" d="M700.62,445.74c-.26-3.48-.6-5.8-.57-8.12.08-6.06,11.51-9.83,15.62-13.77a11.13,11.13,0,0,1,2.51-5.1c1.15-.15,3,.37,3.55,1.24,2.11,3.35,3.59,7.05,2.51,11.12a43.75,43.75,0,0,0-4.64,8.29,20.82,20.82,0,0,1-.84,6.27q-3,8.34-6.51,16.48a7.28,7.28,0,0,1-8.2,4.61c-6.14-1.25-6.24-8.45-7.95-12.82A11.71,11.71,0,0,1,700.62,445.74Z"/><path class="cls-1" d="M219.93,60.51a5.53,5.53,0,0,0,4.56,2.62c4.28.59,4.79,1.25,3.93,5.41-.47,2.29-7.49,7.56-7.86,2.47a14.11,14.11,0,0,1,.51-3.11c-6.68,0-14.45-3.36-11.44-11.55L211.85,58l-.23.71,5.52-.74.37-.79c-15.69-12.87,6.7-3.77,14.22-6.19,4.23-1.37,6.25.18,6.49,4.58.24,4.6-14.83,4.36-17.88,4.36Z"/><path class="cls-1" d="M240.18,92c-2.21.73-4.1,1.19-5-1.81-.41-1.43-8.62-6.68-10.28-9.11,1.65-.77,5.42-3.51,7.17-3.69,5.31-.52,10.63-1,16-1.31,1.79-.11,3.87-.23,4.72,1.92,1.31,3.34-1.19,5.81-3.61,7.46-3,2,1.28,3.73,2.12,5.8C254.72,99.67,242.47,95.08,240.18,92Z"/><path class="cls-1" d="M964.38,355.48c-1.51,1.38-1.88,4.16-4.6,3.33a2.89,2.89,0,0,1-1.69-1.92c-.35-2.47-1-5.15,1.76-6.87a8,8,0,0,0,.88-.68c-1.48-2.31-3.49-4.27-4-6.57-.69-2.94,1.81-4.45,5.36-5.31a22.17,22.17,0,0,0-4.22-1.18c-2.65-.12-5.05-.27-4.63-3.95.37-3.38-4.06-2.67-2.76-7.81a40.59,40.59,0,0,0,.8-6.54c.42-4.79,3.77-1.58,6-1.21,3.18.52,4,2.72,3.44,5.37-.69,3.07-.77,5.17,2.14,7.66,2.3,2,4,4.18,7.2,5,2.79.74,2.41,3.67,2.5,6a32.7,32.7,0,0,1-.31,3.9c2.92.28,6,.13,6.39,3.93s.17,7.27-3.7,9.38a3.53,3.53,0,0,0-1.11,1.44c-1.8,3.34-5,3.61-7.17.47A35.16,35.16,0,0,1,964.38,355.48Z"/><path class="cls-1" d="M886.47,37.71c.78-1.27,1.26-2.21,1.88-3.05a5.05,5.05,0,0,1,7.45-.84q3,.9,6.14,1.5c13.63,7-11.07,10.6-12.35,10.88s-2.32.89-3.38.73a7.9,7.9,0,0,1-4.08-1.73,14.86,14.86,0,0,1,2.48-5.89c-2-.1-24.72,1.76-20-4.91a48.94,48.94,0,0,1,3.64-4.09q-5.67,1.85-9.85-1.56c-.29-.93,0-2.72.6-3.13,4.44-2.81,8.71-6.2,14.31-6.31,4-.08,5.69,1.9,5,5.76-.37,2,.26,2.82,2.11,3C885.49,28.53,885.16,33.73,886.47,37.71Z"/><path class="cls-1" d="M270.89,72.91c-4.67-1.09-21.27,1.81-22.77-4-1.07-4.08-3.7-4.11-7.2-4.76-1.95-.37-2.66-1.73-2.54-3.51.38-5.83,15.24.7,17.95,2.71,2.53,1.87,22.87,3.07,22.8,3.61-.16,1.18-.49,2.87-1.32,3.31A51.17,51.17,0,0,1,270.89,72.91Z"/><path class="cls-1" d="M1020.62,60.06c.89-4.72,2-5.09,5.88-3.55q5.93.91,11.87,1.73c1.7.88,18.59,3.64,19.2,6.26.55,2.36-1.85,3.2-3.74,3.31-6.67.39-13.35.71-20,.7-3.38,0-6,.71-7.76,3.77a5.24,5.24,0,0,1-6.08,2.44c-2.49-.58-3-2.72-3.19-4.94-.23-3.3-1.47-5.36-5.28-5.27-2.43,0-4.61-.92-5.21-3.75-.5-2.34.62-3.93,2.5-5,2.19-1.29,4.31-1.42,6.41.49A57.28,57.28,0,0,0,1020.62,60.06Z"/><path class="cls-1" d="M499.88,134.28a7.05,7.05,0,0,1-2.46-.46c-4.11-2.11-8.45-2.51-13-2.29-.83,0-1.89-1.12-2.56-1.95a37.85,37.85,0,0,0-6.76-8.72c-1.89-3.22.08-6.6,3.73-6.26a39.72,39.72,0,0,0,16.39,3.62c3.47-.92,18.81-3,16.73,7C511,129.81,505.3,134.36,499.88,134.28Z"/><path class="cls-1" d="M312.85,317.39c-2,2.86-4.68,3.09-7.59,2a77.89,77.89,0,0,1-8.41-3.6c-8.17-4.1-12-.13-20-1.82-9.15-1.92,1.38-8.91,2.91-10.63,3.21-3.59,5.92-4,10.09-1.64,3.2,1.79,6.66,3.09,10,4.57s7.31,2.54,10.32,4.7c1.6,1.15,1.77,4.27,2.59,6.5Z"/><path class="cls-1" d="M1132.74,521.5c-1.16-.14-2,0-2.59-.37-1.08-.66-2.71-1.53-2.79-2.43-.41-4.63,6.19-4.24,5-9.13a9.68,9.68,0,0,0-2-3.84c-1.23-1.43-3.1-2.37-4.11-3.9-.7-1.08-1-3.29-.4-4.12a4.42,4.42,0,0,1,4.09-1.09,56,56,0,0,1,9.25,5.55c.68.48.59,2.26.56,3.44a12.14,12.14,0,0,1-.84,2.85,8,8,0,0,1,8.61,3c.21,1.08-.84,2.7-1.78,3.63a29.91,29.91,0,0,1-4.54,3.05c1.88,2.32,3.12,4.49.91,7-2.38,2.68-6.39,3.85-9.24,2.68-1.82-.76-2.42-2-1.44-3.79C1131.78,523.22,1132.19,522.49,1132.74,521.5Z"/><path class="cls-1" d="M1110.93,553.16a11.94,11.94,0,0,1-9.22-6.17c-1.64-2.84-.69-5.21,2.25-6.84,3.12-1.72,6.12-3.67,9.3-5.24a11.75,11.75,0,0,0,6.11-7.28,14.45,14.45,0,0,1,2.53-3.94c1.95-2.48,4.08-1.26,6.22-.21s1.89,2.79,1.45,4.62a8.86,8.86,0,0,0-.49,2.16c.06,5.53-2,9.17-8,9.72-.8.07-1.78,1.57-2.11,2.6s-.1,2.51-.14,3.78C1118.65,551,1116.54,553.08,1110.93,553.16Z"/><path class="cls-1" d="M959.8,384.28c1,.67,2.06,1.4,3.14,2,3.5,2,4.47,4.48,2.76,7.18-1.86,2.94-5.27,3.58-8.28,1.53-.42-.29-.79-.66-1.37-1.16-.38.87-.49,1.93-1,2.26-1.55.94-7.57,3.31-6.57-1.82a87,87,0,0,1,3.72-14c2.68-7.14,11.72-1.59,14.76-7.36-.08.16,8.94,9.39-3.41,10-1.22.06-2.44.27-3.66.41Z"/><path class="cls-1" d="M379.82,199.85c-1.16,3.87.15,4.79,2.77,5.19,3.65.55,6.07,7.14,3.55,9.73-1.33,1.37-7.94-1.43-9.83-1.14s-3.92.88-5.9,1.14q-9.21-1.14-6.11-9.9C368.4,198.13,373.77,191.18,379.82,199.85Z"/><path class="cls-1" d="M312.77,317.49c1.17-3,.34-7.17,5-7.15,2.65,0,5.24.19,7.07,2.71.43.58,1.89.48,2.89.58,2.91.3,6.2-.07,7.41,3.56,1.67,5-2.16,7.13-7.14,7.94-1.7.27-3.65-1.16-5.52-1.7s-4-1.08-6.07-1.49c-2.54-.52-4.1-1.69-3.53-4.55Z"/><path class="cls-1" d="M524.21,184.69c-3.92-3.72-3.74-4.49.81-6.75a5.72,5.72,0,0,0,2.11-2.54,5.53,5.53,0,0,1,6.51-3.33c5.67,1.14,3.53,12,3.08,14.43-.5,2.78-12.36,6.18-13.44,5.3C520.66,189.64,523.12,186.8,524.21,184.69Z"/><path class="cls-1" d="M1036.33,520.64a3.91,3.91,0,0,1,1.71.19,7,7,0,0,0,6.75.06c6.65-3.17,1.35,8.82,1.15,10-.36,2.15-.84,4.09-3.27,4.41-2.82.38-5.66.19-7.15-2.77a62.86,62.86,0,0,1-3.2-7.52C1031.22,521.9,1032.35,520.6,1036.33,520.64Z"/><path class="cls-1" d="M821.36,361.82a16.58,16.58,0,0,1-2.23,0c-3.5-.52-4.7-3.29-2.81-6.25.19-.29,3.53-8.69,6.17-7.83,1.67.54,4.21,1.63,4.41,2.81a23.3,23.3,0,0,1-.3,9.59c-.28,1.12-3.25,1.55-5,2.3Z"/><path class="cls-1" d="M949,301c1.51-2.84,2.72-5.91,4.62-8.46s4.95-1.87,6.21,1.16c1.49,3.59-2.19,10.52-5.95,11.23C951.11,305.41,949.54,304.08,949,301Z"/><polygon class="cls-2" points="158.58 205.95 157.27 205.14 156.36 206.39 156.17 204.86 154.63 204.93 155.71 203.83 154.7 202.67 156.23 202.82 156.5 201.31 157.34 202.6 158.69 201.87 158.2 203.33 159.62 203.94 158.17 204.46 158.58 205.95"/><path class="cls-3" d="M149.8,198.75a4.67,4.67,0,0,0,2.14-2.43,4,4,0,0,0-.13-2"/><path class="cls-3" d="M150.16,199.37a7,7,0,0,0,2.11-2,4.18,4.18,0,0,0,.23-3.2c-.21-.89-1.59-.51-1.37.38a2.64,2.64,0,0,1-.23,2.31,6.17,6.17,0,0,1-1.46,1.28c-.75.52,0,1.76.72,1.23Z"/><path class="cls-3" d="M120.57,213.64a4.69,4.69,0,0,0,2.56,2,4.09,4.09,0,0,0,2-.25"/><path class="cls-3" d="M120.07,214.15a6.37,6.37,0,0,0,2.18,1.95,4.25,4.25,0,0,0,3,0,.72.72,0,0,0-.38-1.38,2.64,2.64,0,0,1-2.39-.09,6.83,6.83,0,0,1-1.42-1.47c-.58-.72-1.58.3-1,1Z"/><polygon class="cls-2" points="125.39 205.89 124.08 205.08 123.17 206.33 122.98 204.8 121.44 204.87 122.52 203.77 121.51 202.61 123.04 202.76 123.31 201.25 124.15 202.54 125.5 201.81 125.01 203.27 126.43 203.88 124.98 204.4 125.39 205.89"/><path class="cls-3" d="M139.66,192.56"/><path class="cls-3" d="M139.66,193.27a.71.71,0,0,0,0-1.42.71.71,0,0,0,0,1.42Z"/><path class="cls-3" d="M134.81,197.79"/><path class="cls-3" d="M134.81,198.5a.72.72,0,0,0,0-1.43.72.72,0,0,0,0,1.43Z"/><polygon class="cls-4" points="141.68 196.65 142.07 197.81 143.03 198.59 141.86 198.98 141.08 199.94 140.69 198.77 139.74 197.99 140.91 197.6 141.68 196.65"/><path class="cls-3" d="M157.09,217.87a4.69,4.69,0,0,0,2.15-2.43,4.22,4.22,0,0,0-.13-2"/><path class="cls-3" d="M157.45,218.49a7,7,0,0,0,2.12-2,4.18,4.18,0,0,0,.23-3.2c-.21-.89-1.59-.52-1.38.38a2.64,2.64,0,0,1-.22,2.31,6.42,6.42,0,0,1-1.47,1.28c-.74.52,0,1.76.72,1.23Z"/><path class="cls-5" d="M149.09,225a12,12,0,0,0,4.3-9.35,12,12,0,1,0-19.91,9.18,8.34,8.34,0,0,1,1.28,1.31l6.4,8.42,6.58-8.24A9.91,9.91,0,0,1,149.09,225Z"/><circle class="cls-6" cx="141.37" cy="215.68" r="7.81"/><polygon class="cls-2" points="229.68 258.96 228.37 258.15 227.47 259.4 227.28 257.87 225.74 257.94 226.81 256.84 225.8 255.68 227.33 255.83 227.61 254.32 228.44 255.61 229.8 254.88 229.31 256.34 230.72 256.95 229.27 257.47 229.68 258.96"/><path class="cls-3" d="M220.9,251.76a4.69,4.69,0,0,0,2.15-2.43,4.22,4.22,0,0,0-.13-2"/><path class="cls-3" d="M221.26,252.38a7.1,7.1,0,0,0,2.12-2,4.18,4.18,0,0,0,.23-3.2c-.21-.89-1.59-.51-1.38.38a2.64,2.64,0,0,1-.22,2.31,6.42,6.42,0,0,1-1.47,1.28c-.74.52,0,1.76.72,1.23Z"/><path class="cls-3" d="M191.68,266.65a4.65,4.65,0,0,0,2.56,2,4,4,0,0,0,1.94-.25"/><path class="cls-3" d="M191.17,267.16a6.41,6.41,0,0,0,2.19,1.95,4.17,4.17,0,0,0,3,0,.72.72,0,0,0-.38-1.38,2.62,2.62,0,0,1-2.39-.09,6.83,6.83,0,0,1-1.42-1.47c-.57-.72-1.58.3-1,1Z"/><polygon class="cls-2" points="196.5 258.9 195.18 258.09 194.28 259.34 194.09 257.81 192.55 257.88 193.63 256.78 192.61 255.62 194.14 255.78 194.42 254.26 195.25 255.55 196.61 254.82 196.12 256.28 197.53 256.89 196.09 257.41 196.5 258.9"/><path class="cls-3" d="M210.76,245.57"/><path class="cls-3" d="M210.76,246.29a.72.72,0,0,0,0-1.43.72.72,0,0,0,0,1.43Z"/><path class="cls-3" d="M205.91,250.8"/><path class="cls-3" d="M205.91,251.51a.72.72,0,0,0,0-1.43.72.72,0,0,0,0,1.43Z"/><polygon class="cls-4" points="212.79 249.66 213.17 250.83 214.13 251.6 212.96 251.99 212.19 252.95 211.8 251.78 210.84 251 212.01 250.61 212.79 249.66"/><path class="cls-3" d="M228.2,270.88a4.67,4.67,0,0,0,2.14-2.43,4,4,0,0,0-.13-2"/><path class="cls-3" d="M228.56,271.5a7,7,0,0,0,2.11-2,4.18,4.18,0,0,0,.23-3.2c-.21-.89-1.59-.51-1.37.38a2.64,2.64,0,0,1-.23,2.31,6.17,6.17,0,0,1-1.46,1.28c-.75.52,0,1.76.72,1.23Z"/><path class="cls-5" d="M220.19,278a12,12,0,0,0,4.31-9.34A12.15,12.15,0,0,0,213,256.75a12,12,0,0,0-8.39,21,9.41,9.41,0,0,1,1.28,1.32l6.39,8.41,6.59-8.24A9.84,9.84,0,0,1,220.19,278Z"/><circle class="cls-7" cx="212.48" cy="268.69" r="7.81"/><polygon class="cls-2" points="350.61 420.54 349.3 419.73 348.39 420.98 348.2 419.45 346.66 419.52 347.74 418.42 346.73 417.26 348.26 417.41 348.53 415.9 349.37 417.19 350.72 416.46 350.23 417.92 351.65 418.53 350.2 419.05 350.61 420.54"/><path class="cls-3" d="M341.83,413.34a4.67,4.67,0,0,0,2.14-2.43,4,4,0,0,0-.13-2"/><path class="cls-3" d="M342.19,414a7,7,0,0,0,2.11-2,4.18,4.18,0,0,0,.23-3.2c-.21-.89-1.59-.52-1.37.38a2.64,2.64,0,0,1-.23,2.31,6.17,6.17,0,0,1-1.46,1.28c-.75.52,0,1.76.72,1.23Z"/><path class="cls-3" d="M312.6,428.23a4.69,4.69,0,0,0,2.56,2,4.21,4.21,0,0,0,1.95-.25"/><path class="cls-3" d="M312.1,428.74a6.25,6.25,0,0,0,2.18,1.94,4.19,4.19,0,0,0,3,0,.72.72,0,0,0-.38-1.38,2.68,2.68,0,0,1-2.39-.09,6.83,6.83,0,0,1-1.42-1.47c-.58-.72-1.58.29-1,1Z"/><polygon class="cls-2" points="317.42 420.48 316.11 419.67 315.2 420.92 315.01 419.39 313.48 419.46 314.55 418.36 313.54 417.2 315.07 417.35 315.35 415.84 316.18 417.13 317.54 416.4 317.04 417.86 318.46 418.47 317.01 418.99 317.42 420.48"/><path class="cls-3" d="M331.69,407.15"/><path class="cls-3" d="M331.69,407.86a.71.71,0,0,0,0-1.42.71.71,0,0,0,0,1.42Z"/><path class="cls-3" d="M326.84,412.38"/><path class="cls-3" d="M326.84,413.09a.72.72,0,0,0,0-1.43.72.72,0,0,0,0,1.43Z"/><polygon class="cls-4" points="333.71 411.24 334.1 412.4 335.06 413.18 333.89 413.57 333.11 414.52 332.72 413.36 331.77 412.58 332.94 412.19 333.71 411.24"/><path class="cls-3" d="M349.12,432.46a4.69,4.69,0,0,0,2.15-2.43,4.21,4.21,0,0,0-.13-2"/><path class="cls-3" d="M349.48,433.08a7,7,0,0,0,2.12-2,4.18,4.18,0,0,0,.23-3.2c-.21-.9-1.59-.52-1.38.38a2.64,2.64,0,0,1-.22,2.31,6.14,6.14,0,0,1-1.47,1.27c-.74.53,0,1.77.72,1.24Z"/><path class="cls-5" d="M341.12,439.54a12,12,0,0,0,4.3-9.35,12,12,0,0,0-24,0,12,12,0,0,0,4.1,9.18,8.86,8.86,0,0,1,1.28,1.32l6.4,8.42,6.58-8.24A9.36,9.36,0,0,1,341.12,439.54Z"/><circle class="cls-7" cx="333.4" cy="430.26" r="7.81"/><polygon class="cls-2" points="304.5 178.48 303.19 177.67 302.29 178.92 302.1 177.39 300.56 177.46 301.63 176.36 300.62 175.2 302.15 175.35 302.43 173.84 303.26 175.13 304.62 174.4 304.13 175.86 305.54 176.47 304.09 176.99 304.5 178.48"/><path class="cls-3" d="M295.72,171.28a4.69,4.69,0,0,0,2.15-2.43,4.22,4.22,0,0,0-.13-2"/><path class="cls-3" d="M296.08,171.9a7,7,0,0,0,2.12-2,4.18,4.18,0,0,0,.23-3.2c-.21-.89-1.59-.52-1.38.38a2.64,2.64,0,0,1-.22,2.31,6.42,6.42,0,0,1-1.47,1.28c-.74.52,0,1.76.72,1.23Z"/><path class="cls-3" d="M266.5,186.17a4.69,4.69,0,0,0,2.56,2,4.17,4.17,0,0,0,1.94-.25"/><path class="cls-3" d="M266,186.68a6.5,6.5,0,0,0,2.19,1.95,4.22,4.22,0,0,0,3,0,.72.72,0,0,0-.38-1.38,2.65,2.65,0,0,1-2.39-.09,7.07,7.07,0,0,1-1.42-1.47c-.57-.72-1.58.29-1,1Z"/><polygon class="cls-2" points="271.32 178.42 270 177.61 269.1 178.86 268.91 177.33 267.37 177.4 268.45 176.3 267.43 175.14 268.96 175.29 269.24 173.78 270.07 175.07 271.43 174.34 270.94 175.8 272.35 176.41 270.91 176.93 271.32 178.42"/><path class="cls-3" d="M285.58,165.09"/><path class="cls-3" d="M285.58,165.8a.71.71,0,0,0,0-1.42.71.71,0,0,0,0,1.42Z"/><path class="cls-3" d="M280.73,170.32"/><path class="cls-3" d="M280.73,171a.72.72,0,0,0,0-1.43.72.72,0,0,0,0,1.43Z"/><polygon class="cls-4" points="287.61 169.18 288 170.34 288.95 171.12 287.78 171.51 287.01 172.47 286.62 171.3 285.66 170.52 286.83 170.13 287.61 169.18"/><path class="cls-3" d="M303,190.4a4.67,4.67,0,0,0,2.14-2.43,4.08,4.08,0,0,0-.12-2"/><path class="cls-3" d="M303.38,191a7,7,0,0,0,2.11-2,4.18,4.18,0,0,0,.23-3.2c-.21-.9-1.59-.52-1.37.38a2.64,2.64,0,0,1-.23,2.31,5.91,5.91,0,0,1-1.46,1.27c-.75.53,0,1.77.72,1.24Z"/><path class="cls-5" d="M295,197.48a12,12,0,0,0,4.31-9.35,12.14,12.14,0,0,0-11.52-11.86,12,12,0,0,0-8.39,21,9.39,9.39,0,0,1,1.28,1.32l6.39,8.42,6.59-8.24A9.84,9.84,0,0,1,295,197.48Z"/><circle class="cls-6" cx="287.3" cy="188.21" r="7.81"/><polygon class="cls-2" points="555.97 217.12 554.66 216.31 553.75 217.56 553.56 216.03 552.02 216.1 553.1 215 552.09 213.84 553.62 214 553.89 212.48 554.73 213.77 556.08 213.04 555.59 214.5 557.01 215.11 555.56 215.63 555.97 217.12"/><path class="cls-3" d="M547.19,209.93a4.69,4.69,0,0,0,2.14-2.44,4.08,4.08,0,0,0-.12-2"/><path class="cls-3" d="M547.55,210.54a7,7,0,0,0,2.11-2,4.18,4.18,0,0,0,.23-3.2c-.21-.89-1.58-.51-1.37.38a2.64,2.64,0,0,1-.23,2.31,6.17,6.17,0,0,1-1.46,1.28c-.75.52,0,1.76.72,1.23Z"/><path class="cls-3" d="M518,224.81a4.72,4.72,0,0,0,2.56,2,4.09,4.09,0,0,0,2-.25"/><path class="cls-3" d="M517.46,225.32a6.37,6.37,0,0,0,2.18,2,4.19,4.19,0,0,0,3,0,.71.71,0,0,0-.38-1.37,2.64,2.64,0,0,1-2.39-.1,6.83,6.83,0,0,1-1.42-1.47c-.57-.72-1.58.3-1,1Z"/><polygon class="cls-2" points="522.78 217.06 521.47 216.25 520.56 217.5 520.38 215.97 518.84 216.04 519.91 214.94 518.9 213.78 520.43 213.94 520.71 212.42 521.54 213.72 522.9 212.99 522.4 214.44 523.82 215.05 522.37 215.57 522.78 217.06"/><path class="cls-3" d="M537.05,203.73"/><path class="cls-3" d="M537.05,204.45a.72.72,0,0,0,0-1.43.72.72,0,0,0,0,1.43Z"/><path class="cls-3" d="M532.2,209"/><path class="cls-3" d="M532.2,209.67a.72.72,0,0,0,0-1.43.72.72,0,0,0,0,1.43Z"/><polygon class="cls-4" points="539.07 207.82 539.46 208.99 540.42 209.76 539.25 210.15 538.47 211.11 538.09 209.94 537.13 209.16 538.3 208.78 539.07 207.82"/><path class="cls-3" d="M554.48,229a4.69,4.69,0,0,0,2.15-2.43,4.09,4.09,0,0,0-.13-2"/><path class="cls-3" d="M554.84,229.66a7,7,0,0,0,2.12-2,4.18,4.18,0,0,0,.23-3.2c-.21-.89-1.59-.51-1.38.38a2.6,2.6,0,0,1-.22,2.31,6,6,0,0,1-1.47,1.28c-.74.52,0,1.76.72,1.23Z"/><path class="cls-5" d="M546.48,236.12a12,12,0,0,0,4.3-9.34,12.14,12.14,0,0,0-11.52-11.87,12,12,0,0,0-8.39,21,8.41,8.41,0,0,1,1.28,1.32l6.4,8.41,6.59-8.24A9.3,9.3,0,0,1,546.48,236.12Z"/><circle class="cls-7" cx="538.76" cy="226.85" r="7.81"/><polygon class="cls-2" points="573.71 222.73 572.4 221.93 571.49 223.18 571.3 221.65 569.76 221.72 570.84 220.62 569.83 219.46 571.36 219.61 571.63 218.09 572.47 219.39 573.82 218.66 573.33 220.12 574.75 220.72 573.3 221.25 573.71 222.73"/><path class="cls-3" d="M564.93,215.54a4.66,4.66,0,0,0,2.14-2.44,4,4,0,0,0-.12-1.95"/><path class="cls-3" d="M565.29,216.16a7,7,0,0,0,2.11-2,4.18,4.18,0,0,0,.23-3.2c-.21-.9-1.58-.52-1.37.38a2.62,2.62,0,0,1-.23,2.3,5.75,5.75,0,0,1-1.46,1.28c-.75.53,0,1.77.72,1.24Z"/><path class="cls-3" d="M535.7,230.43a4.67,4.67,0,0,0,2.56,2,4.08,4.08,0,0,0,2-.24"/><path class="cls-3" d="M535.2,230.93a6.18,6.18,0,0,0,2.18,1.95,4.19,4.19,0,0,0,3,0c.88-.27.5-1.65-.38-1.38a2.64,2.64,0,0,1-2.39-.1,6.4,6.4,0,0,1-1.42-1.47c-.58-.71-1.58.3-1,1Z"/><polygon class="cls-2" points="540.52 222.67 539.21 221.87 538.3 223.12 538.11 221.59 536.58 221.66 537.65 220.56 536.64 219.4 538.17 219.55 538.45 218.04 539.28 219.33 540.64 218.6 540.14 220.06 541.56 220.66 540.11 221.19 540.52 222.67"/><path class="cls-3" d="M554.79,209.35"/><path class="cls-3" d="M554.79,210.06a.72.72,0,0,0,0-1.43.72.72,0,0,0,0,1.43Z"/><path class="cls-3" d="M549.94,214.57"/><path class="cls-3" d="M549.94,215.29a.72.72,0,0,0,0-1.43.72.72,0,0,0,0,1.43Z"/><polygon class="cls-4" points="556.81 213.43 557.2 214.6 558.16 215.38 556.99 215.77 556.21 216.72 555.83 215.55 554.87 214.78 556.04 214.39 556.81 213.43"/><path class="cls-3" d="M572.22,234.66a4.71,4.71,0,0,0,2.15-2.44,4.17,4.17,0,0,0-.13-1.95"/><path class="cls-3" d="M572.58,235.28a7,7,0,0,0,2.12-2,4.18,4.18,0,0,0,.23-3.2c-.21-.9-1.59-.52-1.38.38a2.62,2.62,0,0,1-.22,2.3,6.19,6.19,0,0,1-1.47,1.28c-.74.53,0,1.77.72,1.24Z"/><path class="cls-5" d="M564.22,241.74a12,12,0,0,0,4.3-9.35,12,12,0,0,0-24,0,12,12,0,0,0,4.1,9.18,8.86,8.86,0,0,1,1.28,1.32l6.4,8.42,6.59-8.24A8.81,8.81,0,0,1,564.22,241.74Z"/><circle class="cls-7" cx="556.5" cy="232.46" r="7.81"/><polygon class="cls-2" points="542.2 250.24 540.88 249.43 539.98 250.68 539.79 249.15 538.25 249.22 539.33 248.12 538.31 246.96 539.85 247.11 540.12 245.6 540.96 246.89 542.31 246.16 541.82 247.62 543.23 248.23 541.79 248.75 542.2 250.24"/><path class="cls-3" d="M533.41,243a4.69,4.69,0,0,0,2.15-2.43,4.09,4.09,0,0,0-.13-2"/><path class="cls-3" d="M533.77,243.66a6.87,6.87,0,0,0,2.12-2,4.18,4.18,0,0,0,.23-3.2c-.21-.89-1.59-.51-1.38.38a2.6,2.6,0,0,1-.22,2.31,6,6,0,0,1-1.47,1.28c-.74.52,0,1.76.72,1.23Z"/><path class="cls-3" d="M504.19,257.93a4.69,4.69,0,0,0,2.56,2,4.09,4.09,0,0,0,1.95-.25"/><path class="cls-3" d="M503.69,258.44a6.37,6.37,0,0,0,2.18,1.95,4.25,4.25,0,0,0,3,0,.72.72,0,0,0-.38-1.38,2.64,2.64,0,0,1-2.39-.09,6.6,6.6,0,0,1-1.42-1.47c-.58-.72-1.58.3-1,1Z"/><polygon class="cls-2" points="509.01 250.18 507.7 249.37 506.79 250.62 506.6 249.09 505.06 249.16 506.14 248.06 505.13 246.9 506.66 247.05 506.93 245.54 507.77 246.83 509.12 246.1 508.63 247.56 510.05 248.17 508.6 248.69 509.01 250.18"/><path class="cls-3" d="M523.27,236.85"/><path class="cls-3" d="M523.27,237.56a.71.71,0,0,0,0-1.42.71.71,0,0,0,0,1.42Z"/><path class="cls-3" d="M518.43,242.08"/><path class="cls-3" d="M518.43,242.79a.72.72,0,0,0,0-1.43.72.72,0,0,0,0,1.43Z"/><polygon class="cls-4" points="525.3 240.94 525.69 242.1 526.64 242.88 525.48 243.27 524.7 244.23 524.31 243.06 523.36 242.28 524.52 241.89 525.3 240.94"/><path class="cls-3" d="M540.71,262.16a4.63,4.63,0,0,0,2.14-2.43,4.08,4.08,0,0,0-.12-2"/><path class="cls-3" d="M541.07,262.78a7,7,0,0,0,2.11-2,4.18,4.18,0,0,0,.24-3.2c-.22-.89-1.59-.52-1.38.38a2.64,2.64,0,0,1-.23,2.31,6.17,6.17,0,0,1-1.46,1.28c-.75.52,0,1.76.72,1.23Z"/><path class="cls-5" d="M532.7,269.24a12,12,0,0,0,4.31-9.35A12.14,12.14,0,0,0,525.49,248a12,12,0,0,0-8.39,21,8.81,8.81,0,0,1,1.28,1.31l6.4,8.42,6.58-8.24A10.45,10.45,0,0,1,532.7,269.24Z"/><circle class="cls-7" cx="524.99" cy="259.97" r="7.81"/><polygon class="cls-2" points="593.23 331.93 591.92 331.13 591.01 332.37 590.82 330.84 589.28 330.91 590.36 329.81 589.35 328.65 590.88 328.81 591.15 327.29 591.99 328.59 593.35 327.86 592.85 329.31 594.27 329.92 592.82 330.44 593.23 331.93"/><path class="cls-3" d="M584.45,324.74a4.65,4.65,0,0,0,2.14-2.44,4.08,4.08,0,0,0-.12-2"/><path class="cls-3" d="M584.81,325.35a6.83,6.83,0,0,0,2.11-2,4.18,4.18,0,0,0,.24-3.2c-.22-.89-1.59-.51-1.38.38a2.64,2.64,0,0,1-.23,2.31,6.17,6.17,0,0,1-1.46,1.28c-.75.53,0,1.76.72,1.23Z"/><path class="cls-3" d="M555.23,339.62a4.65,4.65,0,0,0,2.56,2,4.17,4.17,0,0,0,1.94-.24"/><path class="cls-3" d="M554.72,340.13a6.22,6.22,0,0,0,2.19,1.95,4.17,4.17,0,0,0,3,0,.71.71,0,0,0-.38-1.37,2.64,2.64,0,0,1-2.39-.1,6.6,6.6,0,0,1-1.42-1.47c-.57-.72-1.58.3-1,1Z"/><polygon class="cls-2" points="560.04 331.87 558.73 331.07 557.83 332.31 557.64 330.78 556.1 330.85 557.17 329.75 556.16 328.59 557.69 328.75 557.97 327.23 558.8 328.53 560.16 327.8 559.67 329.26 561.08 329.86 559.63 330.39 560.04 331.87"/><path class="cls-3" d="M574.31,318.54"/><path class="cls-3" d="M574.31,319.26a.72.72,0,0,0,0-1.43.72.72,0,0,0,0,1.43Z"/><path class="cls-3" d="M569.46,323.77"/><path class="cls-3" d="M569.46,324.48a.71.71,0,0,0,0-1.42.71.71,0,0,0,0,1.42Z"/><polygon class="cls-4" points="576.34 322.63 576.72 323.8 577.68 324.57 576.51 324.96 575.74 325.92 575.35 324.75 574.39 323.97 575.56 323.59 576.34 322.63"/><path class="cls-3" d="M591.74,343.86a4.75,4.75,0,0,0,2.15-2.44,4.09,4.09,0,0,0-.13-2"/><path class="cls-3" d="M592.1,344.47a6.87,6.87,0,0,0,2.12-2,4.18,4.18,0,0,0,.23-3.2c-.21-.89-1.59-.51-1.38.38a2.6,2.6,0,0,1-.22,2.31,6,6,0,0,1-1.47,1.28c-.74.52,0,1.76.72,1.23Z"/><path class="cls-5" d="M583.74,350.94a12,12,0,0,0,4.3-9.35,12.13,12.13,0,0,0-11.52-11.86,12,12,0,0,0-8.38,21,8.81,8.81,0,0,1,1.27,1.32l6.4,8.41,6.59-8.24A9.22,9.22,0,0,1,583.74,350.94Z"/><circle class="cls-7" cx="576.02" cy="341.66" r="7.81"/><polygon class="cls-2" points="616.76 334.13 615.45 333.32 614.55 334.57 614.36 333.04 612.82 333.11 613.89 332.01 612.88 330.85 614.41 331 614.69 329.49 615.52 330.78 616.88 330.05 616.39 331.51 617.8 332.12 616.35 332.64 616.76 334.13"/><path class="cls-3" d="M608,326.93a4.69,4.69,0,0,0,2.15-2.43,4.22,4.22,0,0,0-.13-2"/><path class="cls-3" d="M608.34,327.55a7,7,0,0,0,2.12-2,4.18,4.18,0,0,0,.23-3.2c-.21-.89-1.59-.52-1.38.38a2.64,2.64,0,0,1-.22,2.31,6.42,6.42,0,0,1-1.47,1.28c-.74.52,0,1.76.72,1.23Z"/><path class="cls-3" d="M578.76,341.82a4.69,4.69,0,0,0,2.56,2,4.17,4.17,0,0,0,1.94-.25"/><path class="cls-3" d="M578.25,342.33a6.5,6.5,0,0,0,2.19,1.95,4.22,4.22,0,0,0,3,0,.72.72,0,0,0-.38-1.38,2.65,2.65,0,0,1-2.39-.09,7.07,7.07,0,0,1-1.42-1.47c-.57-.72-1.58.3-1,1Z"/><polygon class="cls-2" points="583.58 334.07 582.26 333.26 581.36 334.51 581.17 332.98 579.63 333.05 580.71 331.95 579.69 330.79 581.23 330.94 581.5 329.43 582.33 330.72 583.69 329.99 583.2 331.45 584.61 332.06 583.17 332.58 583.58 334.07"/><path class="cls-3" d="M597.84,320.74"/><path class="cls-3" d="M597.84,321.45a.71.71,0,0,0,0-1.42.71.71,0,0,0,0,1.42Z"/><path class="cls-3" d="M593,326"/><path class="cls-3" d="M593,326.68a.72.72,0,0,0,0-1.43.72.72,0,0,0,0,1.43Z"/><polygon class="cls-4" points="599.87 324.82 600.25 326 601.21 326.77 600.04 327.16 599.27 328.12 598.88 326.95 597.92 326.17 599.09 325.78 599.87 324.82"/><path class="cls-3" d="M615.28,346.05a4.67,4.67,0,0,0,2.14-2.43,4,4,0,0,0-.13-2"/><path class="cls-3" d="M615.64,346.67a7,7,0,0,0,2.11-2,4.18,4.18,0,0,0,.23-3.2c-.21-.89-1.59-.52-1.37.38a2.64,2.64,0,0,1-.23,2.31,6.17,6.17,0,0,1-1.46,1.28c-.75.52,0,1.76.72,1.23Z"/><path class="cls-5" d="M607.27,353.13a12,12,0,0,0,4.31-9.35,12.14,12.14,0,0,0-11.52-11.86,12,12,0,0,0-8.39,21,9.33,9.33,0,0,1,1.28,1.31l6.39,8.42,6.59-8.24A9.84,9.84,0,0,1,607.27,353.13Z"/><circle class="cls-7" cx="599.56" cy="343.86" r="7.81"/><polygon class="cls-2" points="605.15 352.9 603.84 352.1 602.93 353.35 602.74 351.82 601.21 351.89 602.28 350.79 601.27 349.63 602.8 349.78 603.08 348.26 603.91 349.56 605.26 348.83 604.77 350.29 606.19 350.89 604.74 351.42 605.15 352.9"/><path class="cls-7" d="M596.37,345.71a4.62,4.62,0,0,0,2.14-2.44,4,4,0,0,0-.12-1.95"/><path class="cls-3" d="M567.15,360.6a4.63,4.63,0,0,0,2.56,2,4,4,0,0,0,1.94-.24"/><path class="cls-3" d="M566.64,361.1a6.12,6.12,0,0,0,2.19,1.95,4.17,4.17,0,0,0,3,0c.88-.27.51-1.65-.38-1.38a2.64,2.64,0,0,1-2.39-.1,6.4,6.4,0,0,1-1.42-1.47c-.57-.71-1.58.3-1,1Z"/><polygon class="cls-2" points="571.96 352.85 570.65 352.04 569.75 353.29 569.56 351.76 568.02 351.83 569.09 350.73 568.08 349.57 569.61 349.72 569.89 348.21 570.72 349.5 572.08 348.77 571.59 350.23 573 350.83 571.55 351.36 571.96 352.85"/><path class="cls-3" d="M586.23,339.52"/><path class="cls-3" d="M586.23,340.23a.72.72,0,0,0,0-1.43.72.72,0,0,0,0,1.43Z"/><path class="cls-3" d="M581.38,344.74"/><path class="cls-3" d="M581.38,345.46a.72.72,0,0,0,0-1.43.72.72,0,0,0,0,1.43Z"/><polygon class="cls-4" points="588.25 343.6 588.64 344.77 589.6 345.55 588.43 345.94 587.65 346.89 587.27 345.72 586.31 344.95 587.48 344.56 588.25 343.6"/><path class="cls-3" d="M603.66,364.83a4.68,4.68,0,0,0,2.15-2.44,4,4,0,0,0-.13-1.95"/><path class="cls-3" d="M604,365.45a6.87,6.87,0,0,0,2.12-2,4.18,4.18,0,0,0,.23-3.2c-.21-.9-1.59-.52-1.38.38a2.58,2.58,0,0,1-.22,2.3,5.82,5.82,0,0,1-1.47,1.28c-.74.53,0,1.77.72,1.24Z"/><path class="cls-5" d="M595.66,371.91a12,12,0,0,0,4.3-9.35,12,12,0,0,0-24,0,12,12,0,0,0,4.11,9.18,9.32,9.32,0,0,1,1.27,1.32l6.4,8.42,6.59-8.24A9.29,9.29,0,0,1,595.66,371.91Z"/><circle class="cls-7" cx="587.94" cy="362.63" r="7.81"/><polygon class="cls-2" points="666 414.87 664.69 414.06 663.78 415.31 663.59 413.78 662.06 413.85 663.13 412.75 662.12 411.59 663.65 411.74 663.93 410.23 664.76 411.52 666.12 410.79 665.62 412.25 667.04 412.86 665.59 413.38 666 414.87"/><path class="cls-3" d="M657.22,407.67a4.63,4.63,0,0,0,2.14-2.43,4.08,4.08,0,0,0-.12-2"/><path class="cls-3" d="M657.58,408.29a7,7,0,0,0,2.11-2,4.18,4.18,0,0,0,.24-3.2c-.22-.89-1.59-.52-1.38.38a2.67,2.67,0,0,1-.22,2.31,6.42,6.42,0,0,1-1.47,1.28c-.75.52,0,1.76.72,1.23Z"/><path class="cls-3" d="M628,422.56a4.59,4.59,0,0,0,2.56,2,4,4,0,0,0,1.94-.24"/><path class="cls-3" d="M627.49,423.06a6.12,6.12,0,0,0,2.19,1.95,4.17,4.17,0,0,0,3,0,.72.72,0,0,0-.38-1.38,2.64,2.64,0,0,1-2.39-.1,6.56,6.56,0,0,1-1.42-1.46c-.57-.72-1.58.29-1,1Z"/><polygon class="cls-2" points="632.81 414.81 631.5 414 630.6 415.25 630.41 413.72 628.87 413.79 629.94 412.69 628.93 411.53 630.46 411.68 630.74 410.17 631.57 411.46 632.93 410.73 632.44 412.19 633.85 412.8 632.4 413.32 632.81 414.81"/><path class="cls-3" d="M647.08,401.48"/><path class="cls-3" d="M647.08,402.19a.72.72,0,0,0,0-1.43.72.72,0,0,0,0,1.43Z"/><path class="cls-3" d="M642.23,406.71"/><path class="cls-3" d="M642.23,407.42a.72.72,0,0,0,0-1.43.72.72,0,0,0,0,1.43Z"/><polygon class="cls-4" points="649.11 405.56 649.49 406.73 650.45 407.51 649.28 407.9 648.5 408.85 648.12 407.69 647.16 406.91 648.33 406.52 649.11 405.56"/><path class="cls-3" d="M664.51,426.79a4.68,4.68,0,0,0,2.15-2.44,4,4,0,0,0-.13-2"/><path class="cls-3" d="M664.87,427.41a6.87,6.87,0,0,0,2.12-2,4.18,4.18,0,0,0,.23-3.2c-.21-.9-1.59-.52-1.38.38a2.58,2.58,0,0,1-.22,2.3,5.63,5.63,0,0,1-1.47,1.28c-.74.53,0,1.77.72,1.24Z"/><path class="cls-5" d="M656.51,433.87a12,12,0,0,0,4.31-9.35,12.14,12.14,0,0,0-11.52-11.86,12,12,0,0,0-8.39,21,9.32,9.32,0,0,1,1.27,1.32l6.4,8.42,6.59-8.24A9.29,9.29,0,0,1,656.51,433.87Z"/><circle class="cls-7" cx="648.79" cy="424.59" r="7.81"/><polygon class="cls-2" points="675.09 430.49 673.78 429.68 672.87 430.93 672.68 429.4 671.14 429.47 672.22 428.37 671.21 427.21 672.74 427.37 673.01 425.85 673.85 427.14 675.2 426.41 674.71 427.87 676.13 428.48 674.68 429 675.09 430.49"/><path class="cls-3" d="M666.31,423.3a4.73,4.73,0,0,0,2.14-2.44,4.08,4.08,0,0,0-.12-2"/><path class="cls-3" d="M666.67,423.91a7,7,0,0,0,2.11-2,4.18,4.18,0,0,0,.23-3.2c-.21-.89-1.58-.51-1.37.38a2.64,2.64,0,0,1-.23,2.31,6.17,6.17,0,0,1-1.46,1.28c-.75.52,0,1.76.72,1.23Z"/><path class="cls-3" d="M637.08,438.18a4.69,4.69,0,0,0,2.56,2,4.09,4.09,0,0,0,2-.25"/><path class="cls-3" d="M636.58,438.69a6.37,6.37,0,0,0,2.18,1.95,4.19,4.19,0,0,0,3,0,.71.71,0,0,0-.38-1.37,2.64,2.64,0,0,1-2.39-.1,6.83,6.83,0,0,1-1.42-1.47c-.58-.72-1.58.3-1,1Z"/><polygon class="cls-2" points="641.9 430.43 640.59 429.63 639.68 430.87 639.49 429.34 637.96 429.41 639.03 428.31 638.02 427.15 639.55 427.31 639.83 425.79 640.66 427.08 642.02 426.36 641.52 427.81 642.94 428.42 641.49 428.94 641.9 430.43"/><path class="cls-3" d="M656.17,417.1"/><path class="cls-3" d="M656.17,417.82a.72.72,0,0,0,0-1.43.72.72,0,0,0,0,1.43Z"/><path class="cls-3" d="M651.32,422.33"/><path class="cls-3" d="M651.32,423a.72.72,0,0,0,0-1.43.72.72,0,0,0,0,1.43Z"/><polygon class="cls-4" points="658.19 421.19 658.58 422.36 659.54 423.13 658.37 423.52 657.59 424.48 657.21 423.31 656.25 422.53 657.42 422.14 658.19 421.19"/><path class="cls-3" d="M673.6,442.41a4.69,4.69,0,0,0,2.15-2.43,4.09,4.09,0,0,0-.13-2"/><path class="cls-3" d="M674,443a7,7,0,0,0,2.12-2,4.18,4.18,0,0,0,.23-3.2c-.21-.89-1.59-.51-1.38.38a2.6,2.6,0,0,1-.22,2.31,6.42,6.42,0,0,1-1.47,1.28c-.74.52,0,1.76.72,1.23Z"/><path class="cls-5" d="M665.6,449.49a12,12,0,0,0,4.3-9.34,12.14,12.14,0,0,0-11.52-11.87,12,12,0,0,0-8.39,21,8.41,8.41,0,0,1,1.28,1.32l6.4,8.41,6.59-8.24A9.3,9.3,0,0,1,665.6,449.49Z"/><circle class="cls-7" cx="657.88" cy="440.22" r="7.81"/><polygon class="cls-2" points="683.03 318.88 681.72 318.08 680.81 319.32 680.62 317.8 679.09 317.87 680.16 316.76 679.15 315.6 680.68 315.76 680.96 314.24 681.79 315.54 683.15 314.81 682.65 316.27 684.07 316.87 682.62 317.4 683.03 318.88"/><path class="cls-3" d="M674.25,311.69a4.65,4.65,0,0,0,2.14-2.44,4,4,0,0,0-.12-1.95"/><path class="cls-3" d="M674.61,312.31a7,7,0,0,0,2.11-2,4.18,4.18,0,0,0,.24-3.2c-.22-.9-1.59-.52-1.38.38a2.65,2.65,0,0,1-.22,2.3,6.19,6.19,0,0,1-1.47,1.28c-.75.53,0,1.77.72,1.24Z"/><path class="cls-3" d="M645,326.58a4.63,4.63,0,0,0,2.56,2,4,4,0,0,0,1.94-.24"/><path class="cls-3" d="M644.52,327.08a6.12,6.12,0,0,0,2.19,1.95,4.17,4.17,0,0,0,3,0c.88-.27.51-1.65-.38-1.38a2.64,2.64,0,0,1-2.39-.1,6.4,6.4,0,0,1-1.42-1.47c-.57-.72-1.58.3-1,1Z"/><polygon class="cls-2" points="649.84 318.82 648.53 318.02 647.63 319.26 647.44 317.74 645.9 317.81 646.97 316.7 645.96 315.55 647.49 315.7 647.77 314.19 648.6 315.48 649.96 314.75 649.47 316.21 650.88 316.81 649.43 317.34 649.84 318.82"/><path class="cls-3" d="M664.11,305.5"/><path class="cls-3" d="M664.11,306.21a.72.72,0,0,0,0-1.43.72.72,0,0,0,0,1.43Z"/><path class="cls-3" d="M659.26,310.72"/><path class="cls-3" d="M659.26,311.44a.72.72,0,0,0,0-1.43.72.72,0,0,0,0,1.43Z"/><polygon class="cls-4" points="666.13 309.58 666.52 310.75 667.48 311.53 666.31 311.91 665.53 312.87 665.15 311.7 664.19 310.93 665.36 310.54 666.13 309.58"/><path class="cls-3" d="M681.54,330.81a4.71,4.71,0,0,0,2.15-2.44,4,4,0,0,0-.13-1.95"/><path class="cls-3" d="M681.9,331.42a6.76,6.76,0,0,0,2.12-2,4.15,4.15,0,0,0,.23-3.19c-.21-.9-1.59-.52-1.38.37a2.6,2.6,0,0,1-.22,2.31,5.82,5.82,0,0,1-1.47,1.28c-.74.53,0,1.77.72,1.23Z"/><path class="cls-5" d="M673.54,337.89a12,12,0,0,0,4.31-9.35,12.14,12.14,0,0,0-11.52-11.86,12,12,0,0,0-8.39,21,9.32,9.32,0,0,1,1.27,1.32l6.4,8.41,6.59-8.23A8.8,8.8,0,0,1,673.54,337.89Z"/><circle class="cls-7" cx="665.82" cy="328.61" r="7.81"/><polygon class="cls-2" points="728.83 347.46 727.52 346.66 726.62 347.9 726.42 346.38 724.89 346.44 725.96 345.34 724.95 344.18 726.48 344.34 726.76 342.82 727.59 344.12 728.95 343.39 728.46 344.85 729.87 345.45 728.42 345.98 728.83 347.46"/><path class="cls-3" d="M720.05,340.27a4.71,4.71,0,0,0,2.15-2.44,4.17,4.17,0,0,0-.13-1.95"/><path class="cls-3" d="M720.41,340.89a7.13,7.13,0,0,0,2.12-2,4.15,4.15,0,0,0,.23-3.19c-.21-.9-1.59-.52-1.38.38a2.62,2.62,0,0,1-.22,2.3,6.19,6.19,0,0,1-1.47,1.28c-.74.53,0,1.77.72,1.24Z"/><path class="cls-3" d="M690.83,355.16a4.68,4.68,0,0,0,2.56,2,4,4,0,0,0,1.94-.24"/><path class="cls-3" d="M690.32,355.66a6.21,6.21,0,0,0,2.19,1.95,4.17,4.17,0,0,0,3,0c.88-.27.51-1.65-.38-1.38a2.65,2.65,0,0,1-2.39-.1,6.4,6.4,0,0,1-1.42-1.47c-.57-.72-1.58.3-1,1Z"/><polygon class="cls-2" points="695.64 347.4 694.33 346.6 693.43 347.84 693.24 346.32 691.7 346.38 692.77 345.28 691.76 344.12 693.29 344.28 693.57 342.76 694.4 344.06 695.76 343.33 695.27 344.79 696.68 345.39 695.24 345.92 695.64 347.4"/><path class="cls-3" d="M709.91,334.08"/><path class="cls-3" d="M709.91,334.79a.72.72,0,0,0,0-1.43.72.72,0,0,0,0,1.43Z"/><path class="cls-3" d="M705.06,339.3"/><path class="cls-3" d="M705.06,340a.72.72,0,0,0,0-1.43.72.72,0,0,0,0,1.43Z"/><polygon class="cls-4" points="711.94 338.16 712.32 339.33 713.28 340.11 712.11 340.49 711.34 341.45 710.95 340.28 709.99 339.51 711.16 339.12 711.94 338.16"/><path class="cls-3" d="M727.35,359.39a4.69,4.69,0,0,0,2.14-2.44,4,4,0,0,0-.13-2"/><path class="cls-3" d="M727.71,360a6.83,6.83,0,0,0,2.11-2,4.18,4.18,0,0,0,.23-3.2c-.21-.89-1.59-.51-1.37.38a2.64,2.64,0,0,1-.23,2.31,6,6,0,0,1-1.46,1.28c-.75.53,0,1.76.72,1.23Z"/><path class="cls-5" d="M719.34,366.47a12,12,0,0,0,4.31-9.35,12.14,12.14,0,0,0-11.52-11.86,12,12,0,0,0-8.39,21,10,10,0,0,1,1.28,1.32l6.39,8.41,6.59-8.24A9.22,9.22,0,0,1,719.34,366.47Z"/><circle class="cls-7" cx="711.63" cy="357.19" r="7.81"/><polygon class="cls-2" points="723.55 265.25 722.23 264.44 721.33 265.69 721.14 264.16 719.6 264.23 720.68 263.13 719.66 261.97 721.2 262.12 721.47 260.61 722.3 261.9 723.66 261.17 723.17 262.63 724.58 263.24 723.14 263.76 723.55 265.25"/><path class="cls-3" d="M714.76,258.05a4.69,4.69,0,0,0,2.15-2.43,4.09,4.09,0,0,0-.13-2"/><path class="cls-3" d="M715.12,258.67a6.87,6.87,0,0,0,2.12-2,4.18,4.18,0,0,0,.23-3.2c-.21-.89-1.59-.51-1.38.38a2.6,2.6,0,0,1-.22,2.31,6,6,0,0,1-1.47,1.28c-.74.52,0,1.76.72,1.23Z"/><path class="cls-3" d="M685.54,272.94a4.69,4.69,0,0,0,2.56,2,4.09,4.09,0,0,0,1.95-.25"/><path class="cls-3" d="M685,273.45a6.5,6.5,0,0,0,2.19,1.95,4.19,4.19,0,0,0,3,0,.72.72,0,0,0-.38-1.38,2.61,2.61,0,0,1-2.39-.09,6.87,6.87,0,0,1-1.43-1.47c-.57-.72-1.57.3-1,1Z"/><polygon class="cls-2" points="690.36 265.19 689.04 264.38 688.14 265.63 687.95 264.1 686.41 264.17 687.49 263.07 686.48 261.91 688.01 262.06 688.28 260.55 689.12 261.84 690.47 261.12 689.98 262.57 691.4 263.18 689.95 263.7 690.36 265.19"/><path class="cls-3" d="M704.62,251.86"/><path class="cls-3" d="M704.62,252.58a.72.72,0,0,0,0-1.43.72.72,0,0,0,0,1.43Z"/><path class="cls-3" d="M699.77,257.09"/><path class="cls-3" d="M699.77,257.8a.72.72,0,0,0,0-1.43.72.72,0,0,0,0,1.43Z"/><polygon class="cls-4" points="706.65 255.95 707.04 257.12 708 257.89 706.83 258.28 706.05 259.24 705.66 258.07 704.7 257.29 705.87 256.9 706.65 255.95"/><path class="cls-3" d="M722.06,277.17a4.63,4.63,0,0,0,2.14-2.43,4.08,4.08,0,0,0-.12-2"/><path class="cls-3" d="M722.42,277.79a7,7,0,0,0,2.11-2,4.18,4.18,0,0,0,.24-3.2c-.22-.89-1.59-.51-1.38.38a2.64,2.64,0,0,1-.23,2.31,6.17,6.17,0,0,1-1.46,1.28c-.75.52,0,1.76.72,1.23Z"/><path class="cls-5" d="M714.05,284.25a12,12,0,0,0,4.31-9.34A12.15,12.15,0,0,0,706.84,263a12,12,0,0,0-8.39,21,8.88,8.88,0,0,1,1.28,1.32l6.4,8.41,6.58-8.24A10.45,10.45,0,0,1,714.05,284.25Z"/><circle class="cls-7" cx="706.34" cy="274.98" r="7.81"/><polygon class="cls-2" points="822.94 218.24 821.62 217.44 820.72 218.68 820.53 217.16 818.99 217.22 820.07 216.12 819.05 214.96 820.59 215.12 820.86 213.6 821.69 214.9 823.05 214.17 822.56 215.63 823.97 216.23 822.53 216.76 822.94 218.24"/><path class="cls-3" d="M814.15,211.05a4.68,4.68,0,0,0,2.15-2.44,4,4,0,0,0-.13-2"/><path class="cls-3" d="M814.51,211.67a7,7,0,0,0,2.12-2,4.18,4.18,0,0,0,.23-3.2c-.21-.9-1.59-.52-1.38.38a2.58,2.58,0,0,1-.22,2.3,5.82,5.82,0,0,1-1.47,1.28c-.74.53,0,1.77.72,1.24Z"/><path class="cls-3" d="M784.93,225.94a4.67,4.67,0,0,0,2.56,2,4.08,4.08,0,0,0,2-.24"/><path class="cls-3" d="M784.42,226.44a6.29,6.29,0,0,0,2.19,1.95,4.19,4.19,0,0,0,3,0c.87-.27.5-1.65-.38-1.38a2.64,2.64,0,0,1-2.39-.1,6.44,6.44,0,0,1-1.43-1.47c-.57-.71-1.57.3-1,1Z"/><polygon class="cls-2" points="789.75 218.18 788.43 217.38 787.53 218.63 787.34 217.1 785.8 217.17 786.88 216.06 785.87 214.91 787.4 215.06 787.67 213.54 788.51 214.84 789.86 214.11 789.37 215.57 790.79 216.17 789.34 216.7 789.75 218.18"/><path class="cls-3" d="M804,204.86"/><path class="cls-3" d="M804,205.57a.72.72,0,0,0,0-1.43.72.72,0,0,0,0,1.43Z"/><path class="cls-3" d="M799.16,210.08"/><path class="cls-3" d="M799.16,210.8a.72.72,0,0,0,0-1.43.72.72,0,0,0,0,1.43Z"/><polygon class="cls-4" points="806.04 208.94 806.43 210.11 807.38 210.89 806.22 211.28 805.44 212.23 805.05 211.06 804.09 210.29 805.26 209.9 806.04 208.94"/><path class="cls-3" d="M821.45,230.17a4.65,4.65,0,0,0,2.14-2.44,4,4,0,0,0-.12-1.95"/><path class="cls-3" d="M821.81,230.78a6.83,6.83,0,0,0,2.11-2,4.15,4.15,0,0,0,.24-3.19c-.22-.9-1.59-.52-1.38.38a2.62,2.62,0,0,1-.23,2.3,6,6,0,0,1-1.46,1.28c-.75.53,0,1.77.72,1.23Z"/><path class="cls-5" d="M813.44,237.25a12,12,0,0,0,4.31-9.35A12.14,12.14,0,0,0,806.23,216a12,12,0,0,0-8.39,21,9.39,9.39,0,0,1,1.28,1.32l6.4,8.42s4.86-6.1,6.58-8.24A8.8,8.8,0,0,1,813.44,237.25Z"/><circle class="cls-7" cx="805.73" cy="227.97" r="7.81"/><polygon class="cls-2" points="862 229.26 860.68 228.46 859.78 229.7 859.59 228.18 858.05 228.25 859.13 227.14 858.11 225.98 859.64 226.14 859.92 224.62 860.75 225.92 862.11 225.19 861.62 226.65 863.03 227.25 861.59 227.78 862 229.26"/><path class="cls-3" d="M853.21,222.07a4.71,4.71,0,0,0,2.15-2.44,4,4,0,0,0-.13-1.95"/><path class="cls-3" d="M853.57,222.69a6.87,6.87,0,0,0,2.12-2,4.18,4.18,0,0,0,.23-3.2c-.21-.9-1.59-.52-1.38.38a2.59,2.59,0,0,1-.22,2.3,5.82,5.82,0,0,1-1.47,1.28c-.74.53,0,1.77.72,1.24Z"/><path class="cls-3" d="M824,237a4.67,4.67,0,0,0,2.56,2,4.08,4.08,0,0,0,2-.24"/><path class="cls-3" d="M823.49,237.46a6.18,6.18,0,0,0,2.18,1.95,4.19,4.19,0,0,0,3,0c.87-.27.5-1.65-.38-1.38a2.64,2.64,0,0,1-2.39-.1,6.2,6.2,0,0,1-1.42-1.47c-.58-.71-1.58.3-1,1Z"/><polygon class="cls-2" points="828.81 229.2 827.5 228.4 826.59 229.64 826.4 228.12 824.86 228.19 825.94 227.08 824.93 225.93 826.46 226.08 826.73 224.56 827.57 225.86 828.92 225.13 828.43 226.59 829.85 227.19 828.4 227.72 828.81 229.2"/><path class="cls-3" d="M843.07,215.88"/><path class="cls-3" d="M843.07,216.59a.72.72,0,0,0,0-1.43.72.72,0,0,0,0,1.43Z"/><path class="cls-3" d="M838.23,221.1"/><path class="cls-3" d="M838.23,221.82a.72.72,0,0,0,0-1.43.72.72,0,0,0,0,1.43Z"/><polygon class="cls-4" points="845.1 219.96 845.49 221.13 846.45 221.91 845.28 222.29 844.5 223.25 844.11 222.08 843.15 221.31 844.32 220.92 845.1 219.96"/><path class="cls-3" d="M860.51,241.19a4.65,4.65,0,0,0,2.14-2.44,4,4,0,0,0-.12-1.95"/><path class="cls-3" d="M860.87,241.8a6.83,6.83,0,0,0,2.11-2,4.15,4.15,0,0,0,.24-3.19c-.22-.9-1.59-.52-1.38.38a2.62,2.62,0,0,1-.23,2.3,6,6,0,0,1-1.46,1.28c-.75.53,0,1.77.72,1.23Z"/><path class="cls-5" d="M852.5,248.27a12,12,0,0,0,4.31-9.35,12.14,12.14,0,0,0-11.52-11.86,12,12,0,0,0-8.39,21,9.39,9.39,0,0,1,1.28,1.32l6.4,8.41s4.86-6.09,6.58-8.23A9.28,9.28,0,0,1,852.5,248.27Z"/><circle class="cls-7" cx="844.79" cy="238.99" r="7.81"/><polygon class="cls-2" points="832.02 290.37 830.71 289.56 829.8 290.81 829.62 289.28 828.08 289.35 829.15 288.25 828.14 287.09 829.67 287.25 829.95 285.73 830.78 287.02 832.14 286.3 831.65 287.75 833.06 288.36 831.61 288.88 832.02 290.37"/><path class="cls-3" d="M823.24,283.18a4.75,4.75,0,0,0,2.15-2.44,4.22,4.22,0,0,0-.13-2"/><path class="cls-3" d="M823.6,283.79a7,7,0,0,0,2.12-2,4.18,4.18,0,0,0,.23-3.2c-.21-.89-1.59-.51-1.38.38a2.64,2.64,0,0,1-.22,2.31,6.42,6.42,0,0,1-1.47,1.28c-.74.52,0,1.76.72,1.23Z"/><path class="cls-3" d="M794,298.06a4.69,4.69,0,0,0,2.56,2,4,4,0,0,0,1.94-.25"/><path class="cls-3" d="M793.51,298.57a6.39,6.39,0,0,0,2.19,1.95,4.17,4.17,0,0,0,3,0,.71.71,0,0,0-.38-1.37,2.65,2.65,0,0,1-2.39-.1,7.07,7.07,0,0,1-1.42-1.47c-.57-.72-1.58.3-1,1Z"/><polygon class="cls-2" points="798.84 290.31 797.52 289.5 796.62 290.75 796.43 289.22 794.89 289.29 795.97 288.19 794.95 287.03 796.49 287.19 796.76 285.67 797.59 286.96 798.95 286.24 798.46 287.69 799.87 288.3 798.43 288.82 798.84 290.31"/><path class="cls-3" d="M813.1,277"/><path class="cls-3" d="M813.1,277.7a.72.72,0,0,0,0-1.43.72.72,0,0,0,0,1.43Z"/><path class="cls-3" d="M808.25,282.21"/><path class="cls-3" d="M808.25,282.92a.71.71,0,0,0,0-1.42.71.71,0,0,0,0,1.42Z"/><polygon class="cls-4" points="815.13 281.07 815.51 282.24 816.47 283.01 815.3 283.4 814.53 284.36 814.14 283.19 813.18 282.41 814.35 282.02 815.13 281.07"/><path class="cls-3" d="M830.54,302.29a4.67,4.67,0,0,0,2.14-2.43,4,4,0,0,0-.13-2"/><path class="cls-3" d="M830.9,302.91a7,7,0,0,0,2.11-2,4.18,4.18,0,0,0,.23-3.2c-.21-.89-1.59-.51-1.37.38a2.64,2.64,0,0,1-.23,2.31,6.17,6.17,0,0,1-1.46,1.28c-.75.52,0,1.76.72,1.23Z"/><path class="cls-5" d="M822.53,309.37a12,12,0,0,0,4.31-9.34,12.15,12.15,0,0,0-11.52-11.87,12,12,0,0,0-8.39,21,9.41,9.41,0,0,1,1.28,1.32l6.39,8.41,6.59-8.24A9.84,9.84,0,0,1,822.53,309.37Z"/><circle class="cls-7" cx="814.82" cy="300.1" r="7.81"/><polygon class="cls-2" points="826.74 326.49 825.42 325.68 824.52 326.93 824.33 325.4 822.79 325.47 823.87 324.37 822.85 323.21 824.39 323.36 824.66 321.85 825.5 323.14 826.85 322.41 826.36 323.87 827.77 324.48 826.33 325 826.74 326.49"/><path class="cls-3" d="M818,319.29a4.69,4.69,0,0,0,2.15-2.43,4.09,4.09,0,0,0-.13-2"/><path class="cls-3" d="M818.31,319.91a6.87,6.87,0,0,0,2.12-2,4.18,4.18,0,0,0,.23-3.2c-.21-.89-1.59-.51-1.38.38a2.6,2.6,0,0,1-.22,2.31,6,6,0,0,1-1.47,1.28c-.74.52,0,1.76.72,1.23Z"/><path class="cls-3" d="M788.73,334.18a4.69,4.69,0,0,0,2.56,2,4.09,4.09,0,0,0,2-.25"/><path class="cls-3" d="M788.23,334.69a6.37,6.37,0,0,0,2.18,1.95,4.19,4.19,0,0,0,3,0,.72.72,0,0,0-.38-1.38,2.61,2.61,0,0,1-2.39-.09,6.6,6.6,0,0,1-1.42-1.47c-.58-.72-1.58.3-1,1Z"/><polygon class="cls-2" points="793.55 326.43 792.24 325.62 791.33 326.87 791.14 325.34 789.6 325.41 790.68 324.31 789.67 323.15 791.2 323.31 791.47 321.79 792.31 323.08 793.66 322.36 793.17 323.81 794.59 324.42 793.14 324.94 793.55 326.43"/><path class="cls-3" d="M807.81,313.1"/><path class="cls-3" d="M807.81,313.82a.72.72,0,0,0,0-1.43.72.72,0,0,0,0,1.43Z"/><path class="cls-3" d="M803,318.33"/><path class="cls-3" d="M803,319a.72.72,0,0,0,0-1.43.72.72,0,0,0,0,1.43Z"/><polygon class="cls-4" points="809.84 317.19 810.23 318.36 811.18 319.13 810.02 319.52 809.24 320.48 808.85 319.31 807.89 318.53 809.07 318.14 809.84 317.19"/><path class="cls-3" d="M825.25,338.41a4.63,4.63,0,0,0,2.14-2.43,4.08,4.08,0,0,0-.12-2"/><path class="cls-3" d="M825.61,339a7,7,0,0,0,2.11-2,4.18,4.18,0,0,0,.24-3.2c-.22-.89-1.59-.52-1.38.38a2.64,2.64,0,0,1-.23,2.31,6.17,6.17,0,0,1-1.46,1.28c-.75.52,0,1.76.72,1.23Z"/><path class="cls-5" d="M817.24,345.49a12,12,0,0,0,4.31-9.34A12.14,12.14,0,0,0,810,324.28a12,12,0,0,0-8.39,21,9.32,9.32,0,0,1,1.28,1.31l6.4,8.42,6.58-8.24A10.45,10.45,0,0,1,817.24,345.49Z"/><circle class="cls-7" cx="809.53" cy="336.22" r="7.81"/><polygon class="cls-2" points="842.46 328.68 841.14 327.88 840.24 329.13 840.05 327.6 838.51 327.67 839.59 326.56 838.58 325.41 840.11 325.56 840.38 324.05 841.22 325.34 842.57 324.61 842.08 326.07 843.5 326.68 842.05 327.2 842.46 328.68"/><path class="cls-3" d="M833.68,321.49a4.66,4.66,0,0,0,2.14-2.44,4,4,0,0,0-.13-1.95"/><path class="cls-3" d="M834,322.11a7,7,0,0,0,2.11-2,4.18,4.18,0,0,0,.23-3.2c-.21-.9-1.59-.52-1.38.38a2.61,2.61,0,0,1-.22,2.31,5.78,5.78,0,0,1-1.47,1.27c-.74.53,0,1.77.73,1.24Z"/><path class="cls-3" d="M804.45,336.38a4.67,4.67,0,0,0,2.56,2,4.08,4.08,0,0,0,2-.24"/><path class="cls-3" d="M804,336.88a6.18,6.18,0,0,0,2.18,1.95,4.19,4.19,0,0,0,3,0,.72.72,0,0,0-.38-1.38,2.64,2.64,0,0,1-2.39-.1,6.4,6.4,0,0,1-1.42-1.47c-.58-.71-1.58.3-1,1Z"/><polygon class="cls-2" points="809.27 328.63 807.96 327.82 807.05 329.07 806.86 327.54 805.32 327.61 806.4 326.51 805.39 325.35 806.92 325.5 807.19 323.99 808.03 325.28 809.38 324.55 808.89 326.01 810.31 326.62 808.86 327.14 809.27 328.63"/><path class="cls-3" d="M823.53,315.3"/><path class="cls-3" d="M823.53,316a.72.72,0,0,0,0-1.43.72.72,0,0,0,0,1.43Z"/><path class="cls-3" d="M818.69,320.52"/><path class="cls-3" d="M818.69,321.24a.72.72,0,0,0,0-1.43.72.72,0,0,0,0,1.43Z"/><polygon class="cls-4" points="825.56 319.38 825.95 320.55 826.91 321.33 825.74 321.72 824.96 322.67 824.57 321.5 823.62 320.73 824.78 320.34 825.56 319.38"/><path class="cls-3" d="M841,340.61a4.68,4.68,0,0,0,2.15-2.44,4.17,4.17,0,0,0-.13-1.95"/><path class="cls-3" d="M841.33,341.23a7,7,0,0,0,2.11-2,4.18,4.18,0,0,0,.24-3.2c-.21-.9-1.59-.52-1.38.38a2.65,2.65,0,0,1-.22,2.3,6.19,6.19,0,0,1-1.47,1.28c-.75.53,0,1.77.72,1.24Z"/><path class="cls-5" d="M833,347.69a12,12,0,0,0,4.31-9.35,12.14,12.14,0,0,0-11.52-11.86,12,12,0,0,0-8.39,21,9.39,9.39,0,0,1,1.28,1.32l6.4,8.42,6.58-8.24A9.83,9.83,0,0,1,833,347.69Z"/><circle class="cls-7" cx="825.25" cy="338.41" r="7.81"/><polygon class="cls-2" points="832.18 342.15 830.87 341.35 829.96 342.59 829.77 341.06 828.24 341.13 829.31 340.03 828.3 338.87 829.83 339.03 830.11 337.51 830.94 338.81 832.3 338.08 831.8 339.54 833.22 340.14 831.77 340.67 832.18 342.15"/><path class="cls-3" d="M823.4,335a4.65,4.65,0,0,0,2.14-2.44,4.08,4.08,0,0,0-.12-2"/><path class="cls-3" d="M823.76,335.57a6.83,6.83,0,0,0,2.11-2,4.18,4.18,0,0,0,.24-3.2c-.21-.89-1.59-.51-1.38.38a2.67,2.67,0,0,1-.22,2.31,6.42,6.42,0,0,1-1.47,1.28c-.75.53,0,1.76.72,1.23Z"/><path class="cls-3" d="M794.18,349.84a4.65,4.65,0,0,0,2.56,2,4,4,0,0,0,1.94-.25"/><path class="cls-3" d="M793.67,350.35a6.31,6.31,0,0,0,2.19,1.95,4.17,4.17,0,0,0,3,0,.71.71,0,0,0-.38-1.37,2.64,2.64,0,0,1-2.39-.1,6.6,6.6,0,0,1-1.42-1.47c-.57-.72-1.58.3-1,1Z"/><polygon class="cls-2" points="798.99 342.09 797.68 341.29 796.78 342.53 796.59 341 795.05 341.07 796.13 339.97 795.11 338.81 796.64 338.97 796.92 337.45 797.75 338.75 799.11 338.02 798.62 339.48 800.03 340.08 798.59 340.61 798.99 342.09"/><path class="cls-3" d="M813.26,328.76"/><path class="cls-3" d="M813.26,329.48a.72.72,0,0,0,0-1.43.72.72,0,0,0,0,1.43Z"/><path class="cls-3" d="M808.41,334"/><path class="cls-3" d="M808.41,334.7a.71.71,0,0,0,0-1.42.71.71,0,0,0,0,1.42Z"/><polygon class="cls-4" points="815.29 332.85 815.67 334.02 816.63 334.79 815.46 335.18 814.69 336.14 814.3 334.97 813.34 334.19 814.51 333.81 815.29 332.85"/><path class="cls-3" d="M830.7,354.08a4.73,4.73,0,0,0,2.14-2.44,4.09,4.09,0,0,0-.13-2"/><path class="cls-3" d="M831.06,354.69a7,7,0,0,0,2.11-2,4.18,4.18,0,0,0,.23-3.2c-.21-.89-1.59-.51-1.38.38a2.6,2.6,0,0,1-.22,2.31,6,6,0,0,1-1.47,1.28c-.74.52,0,1.76.73,1.23Z"/><path class="cls-5" d="M822.69,361.15a12,12,0,0,0,4.31-9.34,12.15,12.15,0,0,0-11.52-11.87,12,12,0,0,0-8.39,21,9.41,9.41,0,0,1,1.28,1.32l6.39,8.41,6.59-8.24A9.84,9.84,0,0,1,822.69,361.15Z"/><circle class="cls-7" cx="814.97" cy="351.88" r="7.81"/><polygon class="cls-2" points="946.41 279.31 945.1 278.51 944.19 279.75 944 278.23 942.47 278.3 943.54 277.19 942.53 276.04 944.06 276.19 944.34 274.68 945.17 275.97 946.53 275.24 946.03 276.7 947.45 277.3 946 277.83 946.41 279.31"/><path class="cls-3" d="M937.63,272.12a4.62,4.62,0,0,0,2.14-2.44,4,4,0,0,0-.12-1.95"/><path class="cls-3" d="M938,272.74a7,7,0,0,0,2.11-2,4.18,4.18,0,0,0,.24-3.2c-.21-.9-1.59-.52-1.38.38a2.67,2.67,0,0,1-.22,2.31,6.14,6.14,0,0,1-1.47,1.27c-.75.53,0,1.77.72,1.24Z"/><path class="cls-3" d="M908.41,287a4.63,4.63,0,0,0,2.56,2,4,4,0,0,0,1.94-.24"/><path class="cls-3" d="M907.9,287.51a6.21,6.21,0,0,0,2.19,1.95,4.17,4.17,0,0,0,3,0c.88-.27.51-1.65-.38-1.38a2.64,2.64,0,0,1-2.39-.1,6.4,6.4,0,0,1-1.42-1.47c-.57-.71-1.58.3-1,1Z"/><polygon class="cls-2" points="913.22 279.25 911.91 278.45 911.01 279.7 910.82 278.17 909.28 278.24 910.36 277.14 909.34 275.98 910.87 276.13 911.15 274.62 911.98 275.91 913.34 275.18 912.85 276.64 914.26 277.25 912.82 277.77 913.22 279.25"/><path class="cls-3" d="M927.49,265.93"/><path class="cls-3" d="M927.49,266.64a.72.72,0,0,0,0-1.43.72.72,0,0,0,0,1.43Z"/><path class="cls-3" d="M922.64,271.15"/><path class="cls-3" d="M922.64,271.87a.72.72,0,0,0,0-1.43.72.72,0,0,0,0,1.43Z"/><polygon class="cls-4" points="929.52 270.01 929.9 271.18 930.86 271.96 929.69 272.35 928.92 273.3 928.53 272.13 927.57 271.36 928.74 270.97 929.52 270.01"/><path class="cls-3" d="M944.92,291.24a4.64,4.64,0,0,0,2.15-2.44,4,4,0,0,0-.13-1.95"/><path class="cls-3" d="M945.29,291.86a7,7,0,0,0,2.11-2,4.18,4.18,0,0,0,.23-3.2c-.21-.9-1.59-.52-1.38.38a2.58,2.58,0,0,1-.22,2.3,5.82,5.82,0,0,1-1.47,1.28c-.74.53,0,1.77.73,1.24Z"/><path class="cls-5" d="M936.92,298.32a12,12,0,0,0,4.31-9.35,12.14,12.14,0,0,0-11.52-11.86,12,12,0,0,0-8.39,21,10,10,0,0,1,1.28,1.32l6.39,8.42,6.59-8.24A9.29,9.29,0,0,1,936.92,298.32Z"/><circle class="cls-7" cx="929.2" cy="289.04" r="7.81"/><polygon class="cls-2" points="896.5 338.81 895.19 338.01 894.28 339.25 894.09 337.72 892.56 337.79 893.63 336.69 892.62 335.53 894.15 335.69 894.43 334.17 895.26 335.47 896.62 334.74 896.12 336.2 897.54 336.8 896.09 337.33 896.5 338.81"/><path class="cls-3" d="M887.72,331.62a4.65,4.65,0,0,0,2.14-2.44,4.09,4.09,0,0,0-.12-2"/><path class="cls-3" d="M888.08,332.23a6.83,6.83,0,0,0,2.11-2,4.16,4.16,0,0,0,.24-3.19.71.71,0,0,0-1.38.37,2.67,2.67,0,0,1-.22,2.31,6.19,6.19,0,0,1-1.47,1.28c-.75.53,0,1.77.72,1.23Z"/><path class="cls-3" d="M858.5,346.51a4.68,4.68,0,0,0,2.56,2,4,4,0,0,0,1.94-.24"/><path class="cls-3" d="M858,347a6.12,6.12,0,0,0,2.19,1.95,4.12,4.12,0,0,0,3,0,.71.71,0,0,0-.38-1.37,2.64,2.64,0,0,1-2.39-.1A6.4,6.4,0,0,1,859,346c-.57-.72-1.58.3-1,1Z"/><polygon class="cls-2" points="863.31 338.75 862 337.95 861.1 339.19 860.91 337.67 859.37 337.73 860.44 336.63 859.43 335.47 860.96 335.63 861.24 334.11 862.07 335.41 863.43 334.68 862.94 336.14 864.35 336.74 862.9 337.27 863.31 338.75"/><path class="cls-3" d="M877.58,325.42"/><path class="cls-3" d="M877.58,326.14a.72.72,0,0,0,0-1.43.72.72,0,0,0,0,1.43Z"/><path class="cls-3" d="M872.73,330.65"/><path class="cls-3" d="M872.73,331.37a.72.72,0,0,0,0-1.43.72.72,0,0,0,0,1.43Z"/><polygon class="cls-4" points="879.61 329.51 879.99 330.68 880.95 331.45 879.78 331.84 879 332.8 878.62 331.63 877.66 330.86 878.83 330.47 879.61 329.51"/><path class="cls-3" d="M895,350.74a4.71,4.71,0,0,0,2.15-2.44,4.09,4.09,0,0,0-.13-2"/><path class="cls-3" d="M895.37,351.35a6.76,6.76,0,0,0,2.12-2,4.18,4.18,0,0,0,.23-3.2c-.21-.89-1.59-.51-1.38.38a2.6,2.6,0,0,1-.22,2.31,6,6,0,0,1-1.47,1.28c-.74.53,0,1.76.72,1.23Z"/><path class="cls-5" d="M887,357.82a12,12,0,0,0,4.31-9.35,12.14,12.14,0,0,0-11.52-11.86,12,12,0,0,0-8.39,21,8.81,8.81,0,0,1,1.27,1.32l6.4,8.41,6.59-8.24A9.22,9.22,0,0,1,887,357.82Z"/><circle class="cls-7" cx="879.29" cy="348.54" r="7.81"/><polygon class="cls-2" points="916.02 362.86 914.71 362.05 913.81 363.3 913.62 361.77 912.08 361.84 913.15 360.74 912.14 359.58 913.67 359.73 913.95 358.22 914.78 359.51 916.14 358.78 915.65 360.24 917.06 360.85 915.61 361.37 916.02 362.86"/><path class="cls-3" d="M907.24,355.66a4.69,4.69,0,0,0,2.15-2.43,4.22,4.22,0,0,0-.13-2"/><path class="cls-3" d="M907.6,356.28a7,7,0,0,0,2.12-2,4.18,4.18,0,0,0,.23-3.2c-.21-.89-1.59-.51-1.38.38a2.64,2.64,0,0,1-.22,2.31,6.42,6.42,0,0,1-1.47,1.28c-.74.52,0,1.76.72,1.23Z"/><path class="cls-3" d="M878,370.55a4.69,4.69,0,0,0,2.56,2,4,4,0,0,0,1.94-.25"/><path class="cls-3" d="M877.51,371.06A6.5,6.5,0,0,0,879.7,373a4.22,4.22,0,0,0,3,0,.72.72,0,0,0-.38-1.38,2.65,2.65,0,0,1-2.39-.09,7.07,7.07,0,0,1-1.42-1.47c-.57-.72-1.58.3-1,1Z"/><polygon class="cls-2" points="882.84 362.8 881.52 361.99 880.62 363.24 880.43 361.71 878.89 361.78 879.97 360.68 878.95 359.52 880.49 359.67 880.76 358.16 881.59 359.45 882.95 358.72 882.46 360.18 883.87 360.79 882.43 361.31 882.84 362.8"/><path class="cls-3" d="M897.1,349.47"/><path class="cls-3" d="M897.1,350.18a.71.71,0,0,0,0-1.42.71.71,0,0,0,0,1.42Z"/><path class="cls-3" d="M892.25,354.7"/><path class="cls-3" d="M892.25,355.41a.72.72,0,0,0,0-1.43.72.72,0,0,0,0,1.43Z"/><polygon class="cls-4" points="899.13 353.56 899.51 354.73 900.47 355.5 899.3 355.89 898.53 356.85 898.14 355.68 897.18 354.9 898.35 354.51 899.13 353.56"/><path class="cls-3" d="M914.54,374.78a4.67,4.67,0,0,0,2.14-2.43,4,4,0,0,0-.13-2"/><path class="cls-3" d="M914.9,375.4a7,7,0,0,0,2.11-2,4.18,4.18,0,0,0,.23-3.2c-.21-.89-1.59-.52-1.37.38a2.64,2.64,0,0,1-.23,2.31,6.17,6.17,0,0,1-1.46,1.28c-.75.52,0,1.76.72,1.23Z"/><path class="cls-5" d="M906.53,381.86a12,12,0,0,0,4.31-9.35,12.14,12.14,0,0,0-11.52-11.86,12,12,0,0,0-8.39,21,9.33,9.33,0,0,1,1.28,1.31l6.39,8.42,6.59-8.24A9.84,9.84,0,0,1,906.53,381.86Z"/><circle class="cls-7" cx="898.82" cy="372.59" r="7.81"/><polygon class="cls-2" points="333.34 180.62 332.03 179.81 331.12 181.06 330.93 179.53 329.39 179.6 330.47 178.5 329.46 177.34 330.99 177.49 331.26 175.98 332.1 177.27 333.45 176.54 332.96 178 334.38 178.61 332.93 179.13 333.34 180.62"/><path class="cls-3" d="M324.56,173.42A4.63,4.63,0,0,0,326.7,171a4.08,4.08,0,0,0-.12-2"/><path class="cls-3" d="M324.92,174a7,7,0,0,0,2.11-2,4.18,4.18,0,0,0,.23-3.2c-.21-.89-1.58-.51-1.37.38a2.64,2.64,0,0,1-.23,2.31,6.17,6.17,0,0,1-1.46,1.28c-.75.52,0,1.76.72,1.23Z"/><path class="cls-3" d="M295.33,188.31a4.72,4.72,0,0,0,2.56,2,4.09,4.09,0,0,0,1.95-.25"/><path class="cls-3" d="M294.83,188.82a6.37,6.37,0,0,0,2.18,2,4.19,4.19,0,0,0,3,0,.72.72,0,0,0-.38-1.38,2.61,2.61,0,0,1-2.39-.09,6.83,6.83,0,0,1-1.42-1.47c-.58-.72-1.58.3-1,1Z"/><polygon class="cls-2" points="300.15 180.56 298.84 179.75 297.93 181 297.74 179.47 296.21 179.54 297.28 178.44 296.27 177.28 297.8 177.44 298.08 175.92 298.91 177.21 300.27 176.49 299.77 177.94 301.19 178.55 299.74 179.07 300.15 180.56"/><path class="cls-3" d="M314.42,167.23"/><path class="cls-3" d="M314.42,168a.72.72,0,0,0,0-1.43.72.72,0,0,0,0,1.43Z"/><path class="cls-3" d="M309.57,172.46"/><path class="cls-3" d="M309.57,173.17a.72.72,0,0,0,0-1.43.72.72,0,0,0,0,1.43Z"/><polygon class="cls-4" points="316.44 171.32 316.83 172.49 317.79 173.26 316.62 173.65 315.84 174.61 315.46 173.44 314.5 172.66 315.67 172.27 316.44 171.32"/><path class="cls-3" d="M331.85,192.54a4.69,4.69,0,0,0,2.15-2.43,4.09,4.09,0,0,0-.13-2"/><path class="cls-3" d="M332.21,193.16a7,7,0,0,0,2.12-2,4.18,4.18,0,0,0,.23-3.2c-.21-.89-1.59-.51-1.38.38a2.6,2.6,0,0,1-.22,2.31,6.21,6.21,0,0,1-1.47,1.28c-.74.52,0,1.76.72,1.23Z"/><path class="cls-5" d="M323.85,199.62a12,12,0,0,0,4.3-9.34,12.14,12.14,0,0,0-11.52-11.87,12,12,0,0,0-8.39,21,8.41,8.41,0,0,1,1.28,1.32l6.4,8.41,6.59-8.24A9.3,9.3,0,0,1,323.85,199.62Z"/><circle class="cls-7" cx="316.13" cy="190.35" r="7.81"/><polygon class="cls-2" points="362.53 184.35 361.22 183.55 360.31 184.79 360.12 183.27 358.58 183.34 359.66 182.23 358.65 181.07 360.18 181.23 360.45 179.71 361.29 181.01 362.64 180.28 362.15 181.74 363.57 182.34 362.12 182.87 362.53 184.35"/><path class="cls-3" d="M353.75,177.16a4.66,4.66,0,0,0,2.14-2.44,3.93,3.93,0,0,0-.13-1.95"/><path class="cls-3" d="M354.11,177.78a7,7,0,0,0,2.11-2,4.18,4.18,0,0,0,.23-3.2c-.21-.9-1.59-.52-1.37.38a2.62,2.62,0,0,1-.23,2.3,6,6,0,0,1-1.46,1.28c-.75.53,0,1.77.72,1.24Z"/><path class="cls-3" d="M324.52,192.05a4.67,4.67,0,0,0,2.56,2,4.08,4.08,0,0,0,1.95-.24"/><path class="cls-3" d="M324,192.55a6.18,6.18,0,0,0,2.18,1.95,4.19,4.19,0,0,0,3,0c.88-.27.5-1.65-.38-1.38a2.64,2.64,0,0,1-2.39-.1,6.4,6.4,0,0,1-1.42-1.47c-.58-.71-1.58.3-1,1Z"/><polygon class="cls-2" points="329.34 184.29 328.03 183.49 327.12 184.74 326.93 183.21 325.39 183.28 326.47 182.18 325.46 181.01 326.99 181.17 327.26 179.66 328.1 180.95 329.45 180.22 328.96 181.68 330.38 182.28 328.93 182.81 329.34 184.29"/><path class="cls-3" d="M343.61,171"/><path class="cls-3" d="M343.61,171.68a.72.72,0,0,0,0-1.43.72.72,0,0,0,0,1.43Z"/><path class="cls-3" d="M338.76,176.19"/><path class="cls-3" d="M338.76,176.91a.72.72,0,0,0,0-1.43.72.72,0,0,0,0,1.43Z"/><polygon class="cls-4" points="345.63 175.05 346.02 176.22 346.98 177 345.81 177.38 345.03 178.34 344.64 177.17 343.69 176.4 344.86 176.01 345.63 175.05"/><path class="cls-3" d="M361,196.28a4.71,4.71,0,0,0,2.15-2.44,4.17,4.17,0,0,0-.13-2"/><path class="cls-3" d="M361.4,196.89a6.86,6.86,0,0,0,2.12-2,4.15,4.15,0,0,0,.23-3.19c-.21-.9-1.59-.52-1.38.38a2.62,2.62,0,0,1-.22,2.3,6.19,6.19,0,0,1-1.47,1.28c-.74.53,0,1.77.72,1.23Z"/><path class="cls-5" d="M353,203.36a12,12,0,0,0,4.3-9.35,12,12,0,0,0-24,0,12,12,0,0,0,4.1,9.18,8.86,8.86,0,0,1,1.28,1.32l6.4,8.42,6.58-8.24A8.87,8.87,0,0,1,353,203.36Z"/><circle class="cls-7" cx="345.32" cy="194.08" r="7.81"/><polygon class="cls-2" points="334.63 211.53 333.32 210.73 332.41 211.97 332.22 210.45 330.69 210.51 331.76 209.41 330.75 208.25 332.28 208.41 332.56 206.89 333.39 208.19 334.75 207.46 334.25 208.92 335.67 209.52 334.22 210.05 334.63 211.53"/><path class="cls-3" d="M325.85,204.34A4.62,4.62,0,0,0,328,201.9a4,4,0,0,0-.12-2"/><path class="cls-3" d="M326.21,205a7,7,0,0,0,2.11-2,4.18,4.18,0,0,0,.24-3.2c-.22-.9-1.59-.52-1.38.38a2.62,2.62,0,0,1-.23,2.3,6,6,0,0,1-1.46,1.28c-.75.53,0,1.77.72,1.24Z"/><path class="cls-3" d="M296.63,219.23a4.63,4.63,0,0,0,2.56,2,4,4,0,0,0,1.94-.24"/><path class="cls-3" d="M296.12,219.73a6.12,6.12,0,0,0,2.19,2,4.17,4.17,0,0,0,3,0c.88-.27.51-1.65-.38-1.38a2.64,2.64,0,0,1-2.39-.1,6.4,6.4,0,0,1-1.42-1.47c-.57-.71-1.58.3-1,1Z"/><polygon class="cls-2" points="301.44 211.47 300.13 210.67 299.23 211.91 299.04 210.39 297.5 210.46 298.57 209.35 297.56 208.19 299.09 208.35 299.37 206.84 300.2 208.13 301.56 207.4 301.07 208.86 302.48 209.46 301.03 209.99 301.44 211.47"/><path class="cls-3" d="M315.71,198.15"/><path class="cls-3" d="M315.71,198.86a.72.72,0,0,0,0-1.43.72.72,0,0,0,0,1.43Z"/><path class="cls-3" d="M310.86,203.37"/><path class="cls-3" d="M310.86,204.09a.72.72,0,0,0,0-1.43.72.72,0,0,0,0,1.43Z"/><polygon class="cls-4" points="317.74 202.23 318.12 203.4 319.08 204.18 317.91 204.56 317.13 205.52 316.75 204.35 315.79 203.58 316.96 203.19 317.74 202.23"/><path class="cls-3" d="M333.14,223.46a4.71,4.71,0,0,0,2.15-2.44,4,4,0,0,0-.13-2"/><path class="cls-3" d="M333.5,224.07a6.76,6.76,0,0,0,2.12-2,4.15,4.15,0,0,0,.23-3.19c-.21-.9-1.59-.52-1.38.38a2.59,2.59,0,0,1-.22,2.3,5.82,5.82,0,0,1-1.47,1.28c-.74.53,0,1.77.72,1.23Z"/><path class="cls-5" d="M325.14,230.54a12,12,0,0,0,4.31-9.35,12.14,12.14,0,0,0-11.52-11.86,12,12,0,0,0-8.39,21,9.32,9.32,0,0,1,1.27,1.32l6.4,8.41,6.59-8.23A8.8,8.8,0,0,1,325.14,230.54Z"/><circle class="cls-7" cx="317.42" cy="221.26" r="7.81"/><polygon class="cls-2" points="180 229.04 178.69 228.23 177.78 229.48 177.59 227.95 176.06 228.02 177.13 226.92 176.12 225.76 177.65 225.91 177.93 224.4 178.76 225.69 180.12 224.96 179.62 226.42 181.04 227.03 179.59 227.55 180 229.04"/><path class="cls-3" d="M171.22,221.84a4.63,4.63,0,0,0,2.14-2.43,4.08,4.08,0,0,0-.12-2"/><path class="cls-3" d="M171.58,222.46a7,7,0,0,0,2.11-2,4.18,4.18,0,0,0,.24-3.2c-.22-.89-1.59-.51-1.38.38a2.64,2.64,0,0,1-.23,2.31,6.17,6.17,0,0,1-1.46,1.28c-.75.52,0,1.76.72,1.23Z"/><path class="cls-3" d="M142,236.73a4.65,4.65,0,0,0,2.56,2,4,4,0,0,0,1.94-.25"/><path class="cls-3" d="M141.49,237.24a6.32,6.32,0,0,0,2.19,1.95,4.22,4.22,0,0,0,3,0,.72.72,0,0,0-.38-1.38,2.64,2.64,0,0,1-2.39-.09,6.83,6.83,0,0,1-1.42-1.47c-.57-.72-1.58.3-1,1Z"/><polygon class="cls-2" points="146.81 228.98 145.5 228.17 144.6 229.42 144.41 227.89 142.87 227.96 143.94 226.86 142.93 225.7 144.46 225.85 144.74 224.34 145.57 225.63 146.93 224.9 146.44 226.36 147.85 226.97 146.4 227.49 146.81 228.98"/><path class="cls-3" d="M161.08,215.65"/><path class="cls-3" d="M161.08,216.36a.71.71,0,0,0,0-1.42.71.71,0,0,0,0,1.42Z"/><path class="cls-3" d="M156.23,220.88"/><path class="cls-3" d="M156.23,221.59a.72.72,0,0,0,0-1.43.72.72,0,0,0,0,1.43Z"/><polygon class="cls-4" points="163.1 219.74 163.49 220.91 164.45 221.68 163.28 222.07 162.5 223.03 162.12 221.86 161.16 221.08 162.33 220.69 163.1 219.74"/><path class="cls-3" d="M178.51,241a4.69,4.69,0,0,0,2.15-2.43,4.08,4.08,0,0,0-.13-2"/><path class="cls-3" d="M178.87,241.58a6.87,6.87,0,0,0,2.12-2,4.18,4.18,0,0,0,.23-3.2c-.21-.89-1.59-.52-1.38.38a2.61,2.61,0,0,1-.22,2.31,6,6,0,0,1-1.47,1.28c-.74.52,0,1.76.72,1.23Z"/><path class="cls-5" d="M170.51,248a12,12,0,0,0,4.31-9.35,12.14,12.14,0,0,0-11.52-11.86,12,12,0,0,0-8.39,21,8.74,8.74,0,0,1,1.27,1.31l6.4,8.42,6.59-8.24A9.84,9.84,0,0,1,170.51,248Z"/><circle class="cls-7" cx="162.79" cy="238.77" r="7.81"/></g></g></svg>