<?xml version="1.0" encoding="utf-8"?>
<!-- Generator: Adobe Illustrator 22.0.1, SVG Export Plug-In . SVG Version: 6.00 Build 0)  -->
<svg version="1.1" id="Layer_1" xmlns="http://www.w3.org/2000/svg" xmlns:xlink="http://www.w3.org/1999/xlink" x="0px" y="0px"
	 viewBox="0 0 300 300" style="enable-background:new 0 0 300 300;" xml:space="preserve">
<style type="text/css">
	.st0{fill:#02B0C2;}
	.st1{fill:#FFFFFF;}
</style>
<g>
	<g>
		<circle class="st0" cx="150.4" cy="150.5" r="150"/>
	</g>
	<g>
		<path class="st1" d="M46.3,126.6c0-9.4,0-18.9,0-28.3c1-3,3.3-3.9,6.3-3.8c3.4,0.1,6.8,0,10.2,0c0.7,0,1-0.2,1.4-0.8
			c1-2,1.9-4,3.2-5.7c1.2-1.5,1.1-2.6,0.1-4.2C65.5,81,63.9,78,62.2,75c-1.3-2.2-0.8-4.8,1.4-6.3c1.9-1.3,4-2.4,6-3.6
			c5.7-3.4,11.5-6.7,17.3-10c2.9-1.7,5.6-1,7.3,1.9c1.9,3.2,3.7,6.4,5.6,9.6c0.3,0.5,0.5,0.9,1.3,0.9c2.7-0.1,5.4-0.1,8.1-0.1
			c0.7,0,1.1-0.2,1.4-0.7c1.9-3.4,3.9-6.7,5.8-10.1c1.5-2.6,4.6-3,6.8-1.7c0.9,0.5,1.8,1,2.7,1.6c6.7,3.8,13.3,7.7,20,11.4
			c2.4,1.3,3.9,4.2,2,7.3c-2,3.3-3.8,6.6-5.7,9.9c-0.2,0.3-0.2,0.8-0.1,1.1c1.4,2.4,2.8,4.7,4.1,7.2c0.4,0.7,0.8,0.9,1.5,0.9
			c3.8-0.1,7.7-0.1,11.5,0c2.3,0,4,1.3,4.7,3.3c0.1,0.4,0.2,0.8,0.4,1.3c0,9.4,0,18.9,0,28.3c-1,3-3.3,3.9-6.3,3.8
			c-3.4-0.1-6.9,0-10.3,0c-0.6,0-0.9,0.2-1.2,0.8c-1.3,2.4-2.7,4.9-4.2,7.3c-0.3,0.4-0.3,0.7,0,1.2c2,3.3,3.9,6.7,5.8,10
			c1.6,2.7,0.9,5.5-1.9,7.1c-7.6,4.4-15.1,8.8-22.7,13.2c-2.8,1.6-5.5,0.9-7.1-1.9c-1.9-3.2-3.8-6.5-5.6-9.7
			c-0.3-0.5-0.5-0.9-1.3-0.9c-2.7,0.1-5.4,0.1-8.1,0.1c-0.7,0-1.1,0.1-1.4,0.7c-1.9,3.4-3.8,6.8-5.9,10.2c-1.5,2.5-4.2,3.1-6.7,1.7
			c-3.1-1.7-6.1-3.5-9.2-5.2c-4.6-2.7-9.2-5.3-13.9-8c-2.4-1.4-3.3-4-2-6.4c1.9-3.6,4-7,6-10.6c0.2-0.3,0.2-0.8,0.1-1.1
			c-1.4-2.4-2.8-4.7-4.1-7.2c-0.4-0.7-0.8-0.9-1.5-0.9c-3.8,0-7.6,0.1-11.4,0c-2.7,0-4.4-1.5-5-4.1
			C46.4,126.9,46.3,126.8,46.3,126.6z M122.3,65.4c-0.2,0.2-0.3,0.4-0.4,0.6c-1.6,2.9-3.3,5.7-4.9,8.6c-1.4,2.4-3.1,3.2-5.9,2.8
			c-1.4-0.2-2.8-0.5-4.2-0.4c-2.9,0.1-5.8,0.4-8.6,0.6c-2,0.1-3.6-0.7-4.7-2.4c-1.1-1.7-2.1-3.5-3.1-5.3c-0.8-1.4-1.6-2.8-2.5-4.2
			c-5.1,3-10.1,5.9-15.2,8.9c1.8,3.2,3.6,6.2,5.4,9.2c1.2,2,1.2,4.2-0.2,5.8c-2.8,3.4-5,7.1-6.5,11.3c-0.9,2.4-2.6,3.4-5.1,3.4
			c-3.2,0-6.5,0-9.7,0c-0.7,0-0.9,0.2-0.9,0.9c0,5.3,0.1,10.6,0.1,15.8c0,0.7,0.2,0.9,0.9,0.9c3.4,0,6.7,0,10.1,0
			c2.2,0,3.8,1,4.6,3.1c1.6,4,3.7,7.8,6.4,11.1c1.5,1.8,1.8,3.8,0.6,5.9c-1.6,2.9-3.3,5.8-5,8.7c-0.4,0.6-0.3,0.9,0.4,1.3
			c3.6,2,7.2,4.1,10.8,6.2c1.2,0.7,2.4,1.4,3.7,2.1c1.8-3.1,3.5-6.1,5.3-9.2c1.3-2.3,3.1-3.2,5.7-2.8c1.4,0.2,2.8,0.5,4.2,0.5
			c2.9-0.1,5.8-0.3,8.6-0.6c2.2-0.2,3.8,0.6,4.9,2.5c1.4,2.4,2.8,4.8,4.2,7.2c0.4,0.7,0.9,1.5,1.4,2.3c5.1-3,10.1-5.9,15.1-8.8
			c-0.2-0.4-0.3-0.7-0.5-1c-1.6-2.8-3.2-5.5-4.9-8.3c-1.2-2-1.1-4.2,0.2-5.8c2.8-3.4,5-7.1,6.5-11.3c0.9-2.3,2.6-3.3,5-3.4
			c3.2,0,6.4,0,9.6,0c0.8,0,1.1-0.2,1.1-1.1c-0.1-5.2-0.1-10.4-0.1-15.6c0-0.8-0.2-1.1-1.1-1.1c-3.2,0.1-6.5,0-9.7,0.1
			c-2.4,0-4.1-1-4.9-3.2c-1.6-4.1-3.8-7.9-6.6-11.3c-1.3-1.6-1.5-3.5-0.5-5.3c1.6-2.9,3.2-5.7,4.9-8.6c0.7-1.2,0.7-1.2-0.5-1.8
			c-2.2-1.3-4.4-2.5-6.6-3.8C127.3,68.2,124.9,66.8,122.3,65.4z"/>
		<path class="st1" d="M131,112.7c-0.1,13.7-10.8,25.4-25.3,25.6c-13.9,0.2-26-10.6-26.1-25.7C79.5,98.9,90.4,87.2,105,87
			C118.8,86.8,130.8,97.5,131,112.7z M89.1,112.7c0.1,9,7.4,16.3,16.3,16.3c8.9-0.1,16.3-7.4,16.2-16.2c-0.1-9-7.4-16.3-16.3-16.3
			C96.4,96.5,89,103.9,89.1,112.7z"/>
		<path class="st1" d="M136.4,201.4c0-9.4,0-18.9,0-28.3c1-3,3.3-3.9,6.3-3.8c3.4,0.1,6.8,0,10.2,0c0.7,0,1-0.2,1.4-0.8
			c1-2,1.9-4,3.2-5.7c1.2-1.5,1.1-2.6,0.1-4.2c-1.8-2.8-3.5-5.8-5.1-8.8c-1.3-2.2-0.8-4.8,1.4-6.3c1.9-1.3,4-2.4,6-3.6
			c5.7-3.4,11.5-6.7,17.3-10c2.9-1.7,5.6-1,7.3,1.9c1.9,3.2,3.7,6.4,5.6,9.6c0.3,0.5,0.5,0.9,1.3,0.9c2.7-0.1,5.4-0.1,8.1-0.1
			c0.7,0,1.1-0.2,1.4-0.7c1.9-3.4,3.9-6.7,5.8-10.1c1.5-2.6,4.6-3,6.8-1.7c0.9,0.5,1.8,1,2.7,1.6c6.7,3.8,13.3,7.7,20,11.4
			c2.4,1.3,3.9,4.2,2,7.3c-2,3.3-3.8,6.6-5.7,9.9c-0.2,0.3-0.2,0.8-0.1,1.1c1.4,2.4,2.8,4.7,4.1,7.2c0.4,0.7,0.8,0.9,1.5,0.9
			c3.8-0.1,7.7-0.1,11.5,0c2.3,0,4,1.3,4.7,3.3c0.1,0.4,0.2,0.8,0.4,1.3c0,9.4,0,18.9,0,28.3c-1,3-3.3,3.9-6.3,3.8
			c-3.4-0.1-6.9,0-10.3,0c-0.6,0-0.9,0.2-1.2,0.8c-1.3,2.4-2.7,4.9-4.2,7.3c-0.3,0.4-0.3,0.7,0,1.2c2,3.3,3.9,6.7,5.8,10
			c1.6,2.7,0.9,5.5-1.9,7.1c-7.6,4.4-15.1,8.8-22.7,13.2c-2.8,1.6-5.5,0.9-7.1-1.9c-1.9-3.2-3.8-6.5-5.6-9.7
			c-0.3-0.5-0.5-0.9-1.3-0.9c-2.7,0.1-5.4,0.1-8.1,0.1c-0.7,0-1.1,0.1-1.4,0.7c-1.9,3.4-3.8,6.8-5.9,10.2c-1.5,2.5-4.2,3.1-6.7,1.7
			c-3.1-1.7-6.1-3.5-9.2-5.2c-4.6-2.7-9.2-5.3-13.9-8c-2.4-1.4-3.3-4-2-6.4c1.9-3.6,4-7,6-10.6c0.2-0.3,0.2-0.8,0.1-1.1
			c-1.4-2.4-2.8-4.7-4.1-7.2c-0.4-0.7-0.8-0.9-1.5-0.9c-3.8,0-7.6,0.1-11.4,0c-2.7,0-4.4-1.5-5-4.1
			C136.5,201.7,136.5,201.5,136.4,201.4z M212.4,140.1c-0.2,0.2-0.3,0.4-0.4,0.6c-1.6,2.9-3.3,5.7-4.9,8.6c-1.4,2.4-3.1,3.2-5.9,2.8
			c-1.4-0.2-2.8-0.5-4.2-0.4c-2.9,0.1-5.8,0.4-8.6,0.6c-2,0.1-3.6-0.7-4.7-2.4c-1.1-1.7-2.1-3.5-3.1-5.3c-0.8-1.4-1.6-2.8-2.5-4.2
			c-5.1,3-10.1,5.9-15.2,8.9c1.8,3.2,3.6,6.2,5.4,9.2c1.2,2,1.2,4.2-0.2,5.8c-2.8,3.4-5,7.1-6.5,11.3c-0.9,2.4-2.6,3.4-5.1,3.4
			c-3.2,0-6.5,0-9.7,0c-0.7,0-0.9,0.2-0.9,0.9c0,5.3,0.1,10.6,0.1,15.8c0,0.7,0.2,0.9,0.9,0.9c3.4,0,6.7,0,10.1,0
			c2.2,0,3.8,1,4.6,3.1c1.6,4,3.7,7.8,6.4,11.1c1.5,1.8,1.8,3.8,0.6,5.9c-1.6,2.9-3.3,5.8-5,8.7c-0.4,0.6-0.3,0.9,0.4,1.3
			c3.6,2,7.2,4.1,10.8,6.2c1.2,0.7,2.4,1.4,3.7,2.1c1.8-3.1,3.5-6.1,5.3-9.2c1.3-2.3,3.1-3.2,5.7-2.8c1.4,0.2,2.8,0.5,4.2,0.5
			c2.9-0.1,5.8-0.3,8.6-0.6c2.2-0.2,3.8,0.6,4.9,2.5c1.4,2.4,2.8,4.8,4.2,7.2c0.4,0.7,0.9,1.5,1.4,2.3c5.1-3,10.1-5.9,15.1-8.8
			c-0.2-0.4-0.3-0.7-0.5-1c-1.6-2.8-3.2-5.5-4.9-8.3c-1.2-2-1.1-4.2,0.2-5.8c2.8-3.4,5-7.1,6.5-11.3c0.9-2.3,2.6-3.3,5-3.4
			c3.2,0,6.4,0,9.6,0c0.8,0,1.1-0.2,1.1-1.1c-0.1-5.2-0.1-10.4-0.1-15.6c0-0.8-0.2-1.1-1.1-1.1c-3.2,0.1-6.5,0-9.7,0.1
			c-2.4,0-4.1-1-4.9-3.2c-1.6-4.1-3.8-7.9-6.6-11.3c-1.3-1.6-1.5-3.5-0.5-5.3c1.6-2.9,3.2-5.7,4.9-8.6c0.7-1.2,0.7-1.2-0.5-1.8
			c-2.2-1.3-4.4-2.5-6.6-3.8C217.5,143,215,141.6,212.4,140.1z"/>
		<path class="st1" d="M221.2,187.5c-0.1,13.7-10.8,25.4-25.3,25.6c-13.9,0.2-26-10.6-26.1-25.7c-0.1-13.7,10.7-25.4,25.3-25.7
			C209,161.5,221,172.2,221.2,187.5z M179.2,187.4c0.1,9,7.4,16.3,16.3,16.3c8.9-0.1,16.3-7.4,16.2-16.2c-0.1-9-7.4-16.3-16.3-16.3
			C186.5,171.2,179.1,178.6,179.2,187.4z"/>
	</g>
</g>
</svg>
