<?xml version="1.0" encoding="utf-8"?>
<!-- Generator: Adobe Illustrator 22.0.1, SVG Export Plug-In . SVG Version: 6.00 Build 0)  -->
<svg version="1.1" id="Layer_1" xmlns="http://www.w3.org/2000/svg" xmlns:xlink="http://www.w3.org/1999/xlink" x="0px" y="0px"
	 viewBox="0 0 300 300" style="enable-background:new 0 0 300 300;" xml:space="preserve">
<style type="text/css">
	.st0{fill:#02B0C2;}
	.st1{fill:#FFFFFF;}
</style>
<g>
	<circle class="st0" cx="149.6" cy="149.5" r="150"/>
	<g id="Layer_6_3_">
		<g>
			<path class="st1" d="M207.2,146.3c1.3-32-23.5-59-55.4-60.3c-32-1.3-59,23.5-60.3,55.4c-0.1,1.6-0.1,3.2,0,4.9
				c-0.1,4.7,0.5,9.3,1.7,13.8c1.6,6.6,4.3,12.8,8.2,18.3c0.7,1.5,1.7,3.1,2.8,4.8c1,1.7,2.3,4.1,3.6,5.8c5.2,6.7,8,14.8,8.2,23.2
				v23.9c0,6,4.3,11.1,10.2,12c1.5,12.8,13.1,22,25.9,20.5c10.8-1.2,19.3-9.7,20.5-20.5c5.9-1,10.2-6,10.2-12v-23.9
				c0.1-8.4,3-16.6,8.2-23.2c1-1.7,2.3-3.8,3.6-5.8c1.3-2,2.1-3.3,2.8-4.8c3.8-5.5,6.6-11.8,8.2-18.3
				C206.7,155.7,207.3,151,207.2,146.3z M172.8,218.5h-46.4v-5.8c0.1-1.1,0.1-2.2,0-3.3h46.7c0,1,0,2,0,3.3v5.8l0,0H172.8z
				 M170.6,239h-42.4c-1.1,0-2.1-0.9-2.1-2c0,0,0,0,0,0V229h46.4v7.3c0.3,1-0.3,2-1.2,2.3c-0.3,0.1-0.5,0.1-0.8,0.1L170.6,239z
				 M149.4,259.4c-6.3,0.5-11.9-4-12.8-10.2h25.8c-0.9,6.4-6.7,11-13.1,10.4L149.4,259.4z M195.5,157.9c-1.4,5.5-3.7,10.7-6.9,15.3
				c-1,1.5-1.7,3.1-2.8,4.8c-1,1.7-2.3,4.1-3.3,5.6c-3.1,4.7-5.7,9.8-7.7,15h-50.4c-1.9-5.3-4.5-10.4-7.7-15c-1-1.7-2.3-3.6-3.3-5.6
				l-2.8-4.8c-3.2-4.7-5.5-10-6.9-15.6c-1-3.7-1.5-7.6-1.5-11.5c0.2-26.3,21.6-47.6,48-47.4c26.1,0.2,47.2,21.3,47.4,47.4
				c-0.6,4-1.3,8-2.4,11.9L195.5,157.9z"/>
			<path class="st1" d="M254.4,141.2H233c-2.8,0-5.1,2.3-5.1,5.1c0,2.8,2.3,5.1,5.1,5.1h21.2c2.8,0.1,5.2-2.2,5.2-5
				C259.4,143.6,257.2,141.3,254.4,141.2z"/>
			<path class="st1" d="M208.5,92.3c1.4,0,2.6-0.6,3.6-1.5l15-15c2-2,2-5.2,0-7.2c-2-2-5.2-2-7.2,0l0,0l-15,15c-2,1.9-2.1,5-0.2,6.9
				c0.1,0.1,0.1,0.1,0.2,0.2C205.9,91.7,207.2,92.3,208.5,92.3z"/>
			<path class="st1" d="M149.3,67.5c2.8,0,5.1-2.3,5.1-5.1V41.2c0-2.8-2.3-5.1-5.1-5.1s-5.1,2.3-5.1,5.1v21.1
				c-0.1,2.8,2.2,5.2,5,5.2C149.2,67.5,149.2,67.5,149.3,67.5z"/>
			<path class="st1" d="M86.7,90.8c1.9,2,5,2.1,6.9,0.2c0.1-0.1,0.1-0.1,0.2-0.2c2-1.9,2.1-5,0.2-6.9c-0.1-0.1-0.1-0.2-0.2-0.2
				l-15-15c-2-2-5.2-2-7.2,0c-2,2-2,5.2,0,7.2L86.7,90.8z"/>
			<path class="st1" d="M65.7,141.2H44.5c-2.8,0-5.1,2.3-5.1,5.1c0,2.8,2.3,5.1,5.1,5.1h21.2c2.8,0,5.1-2.3,5.1-5.1
				C70.8,143.5,68.5,141.2,65.7,141.2z"/>
			<path class="st1" d="M86.7,201.9l-15,15c-2,1.9-2.1,5-0.2,6.9c0.1,0.1,0.1,0.1,0.2,0.2c1.9,2,5,2.1,6.9,0.2
				c0.1-0.1,0.2-0.1,0.2-0.2l15-15c2-2,2-5.2,0-7.2C91.8,199.9,88.6,199.9,86.7,201.9z"/>
			<path class="st1" d="M212.5,201.9c-2-2-5.2-2-7.2,0c-2,2-2,5.2,0,7.2l15,15c1.9,2,5,2.1,6.9,0.2c0.1-0.1,0.1-0.1,0.2-0.2
				c2-1.9,2.1-5,0.2-6.9c-0.1-0.1-0.1-0.2-0.2-0.2L212.5,201.9z"/>
		</g>
	</g>
</g>
</svg>
