<?xml version="1.0" encoding="utf-8"?>
<!-- Generator: Adobe Illustrator 22.0.1, SVG Export Plug-In . SVG Version: 6.00 Build 0)  -->
<svg version="1.1" id="Layer_1" xmlns="http://www.w3.org/2000/svg" xmlns:xlink="http://www.w3.org/1999/xlink" x="0px" y="0px"
	 viewBox="0 0 300 300" style="enable-background:new 0 0 300 300;" xml:space="preserve">
<style type="text/css">
	.st0{fill:#02B0C2;}
	.st1{fill:#FFFFFF;}
</style>
<g>
	<g>
		<circle class="st0" cx="150.4" cy="150.5" r="150"/>
	</g>
	<g>
		<path class="st1" d="M60.4,56.9v188.8h178.2V56.9H60.4z M231.6,64v148.8H67.4V64H231.6z M67.4,238.7v-23.5h164.1v23.5H67.4z"/>
		<path class="st1" d="M188.4,123.2c-3.2-13.2-15.2-22.7-28.9-22.7c-16.4,0-29.8,13.4-29.8,29.8c0,0,0,0.1,0,0.1l-15.3-13.5
			l-38.1,53.5H222L188.4,123.2z M134.3,130.3c0-13.9,11.3-25.2,25.2-25.2c9.6,0,18.1,5.5,22.3,13.7l-30.6,30.6l-16.5-14.6
			C134.4,133.4,134.3,131.8,134.3,130.3z M115.2,123.7l36.2,32l31.9-31.9l29.9,41.9H85.2L115.2,123.7z"/>
	</g>
</g>
</svg>
