<svg id="Background" xmlns="http://www.w3.org/2000/svg" xmlns:xlink="http://www.w3.org/1999/xlink" viewBox="0 0 1773.58 1137.34"><defs><style>.cls-1{fill:none;}.cls-2{clip-path:url(#clip-path);}.cls-3{fill:url(#linear-gradient);}.cls-4{opacity:0.51;}.cls-5,.cls-6{fill:#fff;}.cls-6{opacity:0.34;}</style><clipPath id="clip-path" transform="translate(297.26 158.26)"><rect class="cls-1" x="1.63" y="0.59" width="1278.37" height="719.41"/></clipPath><linearGradient id="linear-gradient" x1="334.32" y1="756.7" x2="336.68" y2="756.7" gradientTransform="matrix(540.91, 0, 0, -540.91, -180535.08, 409823.26)" gradientUnits="userSpaceOnUse"><stop offset="0" stop-color="#f15c31"/><stop offset="1" stop-color="#f15d5b"/></linearGradient></defs><title>aifc-pages-header-image</title><g class="cls-2"><rect class="cls-3" x="298.89" y="158.85" width="1278.37" height="719.41"/></g><g class="cls-4"><path class="cls-5" d="M645.63,816.27A10.32,10.32,0,0,0,660.51,802a10.69,10.69,0,0,0-1.82-1.49l26.92-60.58a10.23,10.23,0,0,0,6-1.93l65.71,57.55L812.87,752a10.3,10.3,0,0,0,9.75,2l15.82,83.47a11.28,11.28,0,0,0-2.35,1.71A11,11,0,1,0,853.56,852l59.49,10.14-17.84,44.93A10.32,10.32,0,1,0,900.4,910a10,10,0,0,0-2.16-1.71l18.1-45.58,69.93,11.92-40.95,83a11,11,0,1,0,4.58,2.85,11.59,11.59,0,0,0-1.66-1.41l41.7-84.49,105.42-57.18,47.86,17a10.31,10.31,0,1,0,3-5.57,10.53,10.53,0,0,0-1.91,2.49l-46.92-16.67,27.78-67.4a11,11,0,0,0,15.65-7.93l83.39,14.09,75.1-24a10.16,10.16,0,0,0,1.77,2.5,10.33,10.33,0,1,0-2.76-5.61l-73,23.34-14.95-75.07a10.3,10.3,0,0,0,3.31-16.6c-.17-.18-.36-.34-.54-.5L1244,605.7l41.83,16.16A10.31,10.31,0,1,0,1289,615a10.19,10.19,0,0,0-2.44,3.65l-40.84-15.79,24.43-41a11,11,0,0,0,14.43-9.32l82.33-24.23,8.54,65.18a10.36,10.36,0,1,0,3.24-.42l-8.65-66L1432.7,490c.16.19.32.39.49.57a10.32,10.32,0,1,0-2.16-3.37l-62.37,36.89-49.19-65.8a10.2,10.2,0,0,0,1.1-3.75l73-28.1c.13.15.25.3.39.45a11,11,0,1,0-2.16-3.27l-71.5,27.52a10.36,10.36,0,0,0-2.58-4.71l-.29-.27,5.59-59.5a10.3,10.3,0,0,0,7.56-16.5L1387,311.39l68.76-24.87-1.1-3.07-69.48,25.13-.27.27-56.69,59.06a10.3,10.3,0,0,0-16.13,7.41l-75.4,4.17a10.31,10.31,0,0,0-2.64-5,11,11,0,0,0-1.76-1.46l28.24-62.65a11,11,0,0,0,11.73-15l59.19-41.7,82-39.89a10.64,10.64,0,0,0,1,1.23,10.32,10.32,0,1,0-2.44-4.16l-82.25,40-.11.08-59.09,41.62c-.19-.23-.38-.46-.59-.68a11,11,0,1,0-12.63,17.56l-28.06,62.26a10.3,10.3,0,0,0-6.68.44L1175,295.45,1215.07,239a10.3,10.3,0,1,0-2.87-2.09l.21.2-41.31,58.23.57.92,48.22,77.64-.4.35a10.31,10.31,0,0,0-2.31,11.52l-57.26,36.41-.27-.31a10.29,10.29,0,0,0-10.65-2.64L1113.35,350a12.94,12.94,0,0,0,1.07-.89,10.32,10.32,0,1,0-17.29-9.27l-87.94-.72a11,11,0,1,0,0,3.26l87.86.72a10.31,10.31,0,0,0,13.38,8.38l35.66,69.24a10.54,10.54,0,0,0-1,.86,10.26,10.26,0,0,0-3.09,6.21l-68.11,2.67a11,11,0,1,0-19.58,8.15l-67.81,59.95a10.33,10.33,0,0,0-12.13,1.61,10.47,10.47,0,0,0-.89,1l-85.14-23.07a10.31,10.31,0,1,0-20.55-.61l-63,13.1a10.4,10.4,0,1,0,.65,3.2l63-13.1a10.43,10.43,0,0,0,2.21,3.48,10.31,10.31,0,0,0,16.84-2.92l84.34,22.85a10.37,10.37,0,0,0,0,6.93L915,557.68a10.31,10.31,0,0,0-17.11,8.49l-76.07,18.06a10.36,10.36,0,1,0,.24,3.3l76.59-18.18a10.09,10.09,0,0,0,2.09,3.21,9.2,9.2,0,0,0,1,.93l-49.09,87.57a10.3,10.3,0,0,0-13.83,10.67l-70.68,18.48-72.84,36a10.32,10.32,0,1,0-13.08,13.11l-26.58,59.81a10.31,10.31,0,0,0-10.08,17.12ZM827,737c-.25-.26-.51-.5-.78-.73l20.83-55.41a10.31,10.31,0,0,0,9.21-2.67,10,10,0,0,0,1-1.15l50,27.11,58.52,11.48a10.28,10.28,0,0,0,5.84,8.8l-31.11,68.64-57.21-18.12A11,11,0,0,0,865,764.54a10.37,10.37,0,0,0-1.12,1.28l-34-20.47A10.26,10.26,0,0,0,827,737Zm264.53,78.75-99.52,54L1023.21,797a10.28,10.28,0,0,0,10-8ZM944.13,793.06l30.67-67.72a10.27,10.27,0,0,0,11.29-7.6l51.1-.55a10.33,10.33,0,0,0,2.38,10.32l.28.26-12.8,49.37a10.3,10.3,0,0,0-14,7.29Zm97.56-261.18a10.31,10.31,0,0,0,2.48,10l0,0-29,38.45A11,11,0,0,0,999,585.85l-80.56-19.62a10.3,10.3,0,0,0-1.38-6l56.25-46.27c.22.28.46.55.71.82a10.33,10.33,0,0,0,14.59.28,10.22,10.22,0,0,0,2.63-4.18ZM929.21,632.42a10.3,10.3,0,0,0,8.8,2.08l32.82,71.76a10.72,10.72,0,0,0-1.86,1.41,10.36,10.36,0,0,0-2.79,4.71L908.43,701l-49.56-26.87a10.32,10.32,0,0,0,.11-6.52ZM1039,713.91l-52.55.56a10.27,10.27,0,0,0-2.86-6.51,9.92,9.92,0,0,0-2.12-1.68l27.39-105.66a10.86,10.86,0,0,0,9.81-5.11l88.3,36a10.31,10.31,0,0,0,2.07,8.87l-61.67,69.63a10.34,10.34,0,0,0-7.48,2.87A10.2,10.2,0,0,0,1039,713.91ZM1122.07,552l-5.85,71.6a10.28,10.28,0,0,0-6.39,2.85,10.54,10.54,0,0,0-1.66,2.08l-88.22-36a11,11,0,0,0-2.27-10.06l29.16-38.65a10.27,10.27,0,0,0,14.46-5.64Zm-121.28,44.53a8.8,8.8,0,0,0,.64.73,11,11,0,0,0,4.19,2.72L978.38,705.05a10.25,10.25,0,0,0-4.51,0l-32.82-71.77a10.25,10.25,0,0,0,5-9.3Zm-68.27,18.12L913.92,574a10.29,10.29,0,0,0,1.44-1.14,10.15,10.15,0,0,0,2.35-3.44l80.67,19.65a11,11,0,0,0,.76,4.66l-53.79,27a10.32,10.32,0,0,0-12.83-6Zm129.18-82.06,64.68-23.35a10.27,10.27,0,0,0,4.8,2.79l-8.57,36.78L1061.92,535A10.17,10.17,0,0,0,1061.7,532.59Zm79.52-37.69a10.17,10.17,0,0,0-2.29-1.78l12.56-53.83a10.27,10.27,0,0,0,7.87-2.84l.14-.15L1204.76,469a11,11,0,0,0-1.41,8.08l-59.61,22.22A10.3,10.3,0,0,0,1141.22,494.9Zm20.46-70,57.25-36.42c.1.11.18.22.28.32a10.33,10.33,0,0,0,4.55,2.75l-9,72.28a11,11,0,0,0-7.86,2.68l-45.47-32.89A10.35,10.35,0,0,0,1161.68,424.93Zm140.89,21.85a10.33,10.33,0,0,0-2.26,9.39L1224.41,471a11,11,0,0,0-6.45-6.47l9-72.56a10.26,10.26,0,0,0,6.43-2.55Zm6.85,17.09-32.77,77a11,11,0,0,0-10.09,2.12L1222.48,482a11,11,0,0,0,2.59-7.77l76.57-15a11.07,11.07,0,0,0,1.22,1.55A10.28,10.28,0,0,0,1309.42,463.87Zm-46.77,88.57-65.89-1.58,17-65a11,11,0,0,0,6.23-1.72l44.33,61.41A11,11,0,0,0,1262.65,552.44Zm-69.24-1.66-67.55-1.61,8.59-36.82a10.29,10.29,0,0,0,9.62-9.66l60.42-22.53a10.53,10.53,0,0,0,1.68,2.29,10.89,10.89,0,0,0,4.4,2.79Zm-.85,3.25-4.71,18a10.31,10.31,0,0,0-11,15.36l-52.63,39.13a10.3,10.3,0,0,0-4.76-2.66l5.87-71.45Zm-4.82,38.2,15.1,63.13a10.18,10.18,0,0,0-3.74,2.3,10,10,0,0,0-1.77,2.26l-70.2-24.25a10.3,10.3,0,0,0-1-6.55l52.79-39.21A10.31,10.31,0,0,0,1187.74,592.23Zm10,78.65-63,56.59a11,11,0,0,0-5.89-1l-9.14-82.61a10.35,10.35,0,0,0,6.36-5.08L1196.16,663A10.27,10.27,0,0,0,1197.72,670.88Zm-77.3,61.1-63.77-15.31a10.38,10.38,0,0,0-2.2-3.46,10.17,10.17,0,0,0-3.45-2.36l60.46-68.26a10.24,10.24,0,0,0,5,1.59l9.19,83.09a11.17,11.17,0,0,0-3.3,2.17A11,11,0,0,0,1120.42,732ZM904.65,575.08a10.39,10.39,0,0,0,6.31.27l18.66,40.8a9.2,9.2,0,0,0-1,.86A10.31,10.31,0,0,0,927,629.88l-69.47,34.83a10.82,10.82,0,0,0-.92-1.13,11.34,11.34,0,0,0-1-.93ZM1142.1,431a10.28,10.28,0,0,0,6.21,7.52L1135.86,492a10.31,10.31,0,0,0-11.4,14.51l-63.92,23.08a10.2,10.2,0,0,0-1.49-2,10.32,10.32,0,0,0-14.59-.29,10.42,10.42,0,0,0-1.4,1.67L991.8,507.55a10.26,10.26,0,0,0-2.73-6.95l67.59-59.74a11,11,0,0,0,13.92-1.09,10.88,10.88,0,0,0,3.2-6Zm172.27,13.08a10.31,10.31,0,0,0-9.22.56l-69.63-57.76a10.23,10.23,0,0,0,1.38-4.18l75.4-4.16a10.27,10.27,0,0,0,7.5,7.79Zm-30,105.07a10.9,10.9,0,0,0-4.73-7l33.49-78.71a10.14,10.14,0,0,0,4.34-2.49l0,0,48,64.33Zm-41.76,52.47-46.7-18a10.33,10.33,0,0,0-2.76-8.65,10.77,10.77,0,0,0-2.22-1.74l5-19.12,67.57,1.62a11,11,0,0,0,2.19,3.33,10.5,10.5,0,0,0,1.53,1.31Zm-32.17,54a10.33,10.33,0,0,0-4.36-.87l-15.24-63.72a10,10,0,0,0,2-1.51,10.15,10.15,0,0,0,2.07-2.82l46,17.77ZM1140.9,736a10.88,10.88,0,0,0-3-6.26c-.13-.14-.27-.26-.4-.38L1200,673.25a10.23,10.23,0,0,0,7.25,2.11L1222,749.72Zm-18.83,9c.11.12.24.22.35.33l-28.07,68.1-61-27.9a10.33,10.33,0,0,0-2.81-6c-.19-.2-.4-.38-.61-.57l12.76-49.22a10.3,10.3,0,0,0,14.61-9.55l61.93,14.87A11,11,0,0,0,1122.07,745Zm-204.5,114.6,25-63.05,70.26-8.8a10.27,10.27,0,0,0,7,8.73l-32.19,75.08Zm-76-23.27-15.9-83.84a10.41,10.41,0,0,0,1.1-.91,10.28,10.28,0,0,0,2.15-3l33.42,20.1a11,11,0,0,0,17.94,11.7,11.15,11.15,0,0,0,1.89-2.42l57.14,18.09-25,63-59.72-10.18a11,11,0,0,0-13-12.53ZM693.94,735.66a10.32,10.32,0,0,0,2-6.07l73.58-36.38,70.2-18.33a10.49,10.49,0,0,0,2,3,10.29,10.29,0,0,0,2.33,1.81l-20.63,54.87a10.31,10.31,0,0,0-12.65,14.89l-53.32,41.82Z" transform="translate(297.26 158.26)"/><circle class="cls-6" cx="1404.54" cy="499.92" r="21.07"/><circle class="cls-6" cx="1449.47" cy="587.27" r="21.07"/><circle class="cls-6" cx="1175.32" cy="635.26" r="21.07"/><circle class="cls-6" cx="1348.87" cy="692.95" r="21.07"/><circle class="cls-6" cx="1431.05" cy="660.32" r="21.07"/><circle class="cls-6" cx="1205.47" cy="723.67" r="21.07"/><circle class="cls-6" cx="1146.41" cy="828.99" r="21.07"/><circle class="cls-6" cx="1092.37" cy="652.5" r="21.07"/><circle class="cls-6" cx="1109.09" cy="744.89" r="21.07"/><circle class="cls-6" cx="982.88" cy="887.84" r="21.07"/><circle class="cls-6" cx="950.33" cy="967.38" r="21.07"/><circle class="cls-6" cx="1116.86" cy="902.4" r="21.07"/><circle class="cls-6" cx="1233.01" cy="782.7" r="21.07"/><circle class="cls-6" cx="1278.76" cy="665.86" r="21.07"/><circle class="cls-6" cx="1414.25" cy="792.15" r="21.07"/><circle class="cls-6" cx="1344.27" cy="878.62" r="21.07"/><circle class="cls-6" cx="1450.62" cy="994.52" r="21.07"/><circle class="cls-6" cx="1190.23" cy="1075.39" r="21.07"/><circle class="cls-6" cx="1320.39" cy="944.94" r="21.07"/><circle class="cls-6" cx="1605.77" cy="882.99" r="21.07"/><circle class="cls-6" cx="1503.51" cy="823.35" r="21.07"/><circle class="cls-6" cx="1593.36" cy="780.69" r="21.07"/><circle class="cls-6" cx="1482.95" cy="740.39" r="21.07"/><circle class="cls-6" cx="1675.61" cy="761.64" r="21.07"/><circle class="cls-6" cx="1737.89" cy="641.7" r="21.07"/><circle class="cls-6" cx="1752.5" cy="443.25" r="21.07"/><circle class="cls-5" cx="1752.5" cy="443.25" r="10.32"/><circle class="cls-6" cx="1719.21" cy="366.16" r="21.07"/><circle class="cls-6" cx="1516.9" cy="388.01" r="21.07"/><circle class="cls-6" cx="1523.91" cy="539.94" r="21.07"/><circle class="cls-6" cx="1607.57" cy="611.87" r="21.07"/><circle class="cls-6" cx="1273.39" cy="873.37" r="21.07"/><circle class="cls-6" cx="1619.64" cy="534.65" r="21.07"/></g><g class="cls-4"><path class="cls-5" d="M-284.67,422.91a9.53,9.53,0,0,0,13.47.26,9.53,9.53,0,0,0,.26-13.47,9.73,9.73,0,0,0-1.67-1.37l24.85-55.94a9.56,9.56,0,0,0,5.54-1.78l60.67,53.13,51.29-40.22a9.51,9.51,0,0,0,9,1.89l14.61,77.06a10.65,10.65,0,0,0-2.17,1.58,10.16,10.16,0,0,0-.28,14.36,10.16,10.16,0,0,0,14.36.28,10,10,0,0,0,2-2.8l54.94,9.36-16.48,41.49a9.49,9.49,0,0,0-8.67,2.43,9.54,9.54,0,0,0-.27,13.47,9.53,9.53,0,0,0,13.47.26,9.53,9.53,0,0,0,.27-13.47,9.29,9.29,0,0,0-2-1.57l16.71-42.09,64.57,11L-8,553.41a10.15,10.15,0,0,0-10.13,2.35,10.15,10.15,0,0,0-.28,14.36A10.14,10.14,0,0,0-4,570.4,10.15,10.15,0,0,0-3.75,556a9.71,9.71,0,0,0-1.52-1.29l38.5-78,97.34-52.79,44.19,15.7a9.51,9.51,0,1,0,2.75-5.14,9.6,9.6,0,0,0-1.75,2.3l-43.33-15.39,25.65-62.24a10.12,10.12,0,0,0,14.45-7.32l77,13,69.34-22.17a9.59,9.59,0,1,0-.91-2.88l-67.39,21.56-13.81-69.32a9.27,9.27,0,0,0,2.79-1.86,9.53,9.53,0,0,0,.27-13.47c-.16-.16-.33-.31-.5-.46l28.47-47.77,38.62,14.92a9.56,9.56,0,1,0,.65-3l-37.71-14.57L291.9,188a10.15,10.15,0,0,0,13.33-8.61l76-22.37,7.89,60.19a9.34,9.34,0,0,0-3.88,2.25,9.53,9.53,0,1,0,6.87-2.65l-8-60.89L442,121.68c.14.18.29.35.45.52a9.52,9.52,0,1,0-2-3.11l-57.58,34.06L337.49,92.41a9.55,9.55,0,0,0,1-3.47L405.92,63l.36.42a10.21,10.21,0,1,0-2-3l-66,25.41a9.46,9.46,0,0,0-2.38-4.35l-.27-.25,5.17-54.93a9.52,9.52,0,0,0,7-15.24l52.1-54.28,63.49-23-1-2.84-64.14,23.2-.25.26L345.6,8.93a9.53,9.53,0,0,0-14.9,6.85l-69.62,3.84A9.42,9.42,0,0,0,257,13.69l26.07-57.84a10.14,10.14,0,0,0,8.47-2.73A10.15,10.15,0,0,0,293.93-58l54.65-38.5,75.73-36.83a9.87,9.87,0,0,0,.93,1.14,9.53,9.53,0,0,0,13.47.26,9.53,9.53,0,0,0,.26-13.47,9.53,9.53,0,0,0-13.47-.26A9.51,9.51,0,0,0,423-136L347.05-99.11,347-99,292.39-60.61c-.18-.21-.35-.42-.55-.63a10.15,10.15,0,0,0-14.35-.28,10.16,10.16,0,0,0-.29,14.36,10,10,0,0,0,3,2.13L254.27,12.46a9.55,9.55,0,0,0-6.17.4L204.11-58l37-52.13a9.5,9.5,0,0,0,10.81-1.67,9.54,9.54,0,0,0,.27-13.47,9.53,9.53,0,0,0-13.47-.26,9.53,9.53,0,0,0-.27,13.47c.07.07.14.12.2.19L200.49-58.08l.53.85,44.53,71.69a3.68,3.68,0,0,0-.37.32A9.51,9.51,0,0,0,243,25.41L190.18,59c-.09-.1-.17-.2-.26-.29a9.51,9.51,0,0,0-9.83-2.45L147.17-7.62a8.53,8.53,0,0,0,1-.82,9.53,9.53,0,0,0,.26-13.47A9.53,9.53,0,0,0,135-22.17,9.49,9.49,0,0,0,132.2-17L51-17.66a10,10,0,0,0-2.71-5.49,10.15,10.15,0,0,0-14.36-.28,10.14,10.14,0,0,0-.28,14.35A10.15,10.15,0,0,0,48-8.8a10.11,10.11,0,0,0,3-5.84l81.13.66A9.48,9.48,0,0,0,134.7-8.7a9.52,9.52,0,0,0,9.79,2.45l32.92,63.93a12,12,0,0,0-1,.8,9.47,9.47,0,0,0-2.85,5.73l-62.89,2.47a10.15,10.15,0,1,0-18.07,7.53L30,129.56A9.52,9.52,0,0,0,18.83,131,9.91,9.91,0,0,0,18,132l-78.62-21.29a9.48,9.48,0,0,0-2.6-7.61,9.53,9.53,0,0,0-13.47-.26,9.48,9.48,0,0,0-2.9,7.3l-58.18,12.1a9.45,9.45,0,0,0-2-3.22,9.53,9.53,0,0,0-13.47-.26,9.53,9.53,0,0,0-.26,13.47,9.53,9.53,0,0,0,13.47.26,9.52,9.52,0,0,0,2.9-7.3L-79,113a9.45,9.45,0,0,0,2,3.22,9.53,9.53,0,0,0,13.47.26,9.73,9.73,0,0,0,2.08-3l77.87,21.09a9.56,9.56,0,0,0,0,6.4l-52.39,43.09a9.51,9.51,0,0,0-12.9.27,9.49,9.49,0,0,0-2.9,7.57L-122,208.67a9.46,9.46,0,0,0-2.39-4.39,9.54,9.54,0,0,0-13.47-.27,9.53,9.53,0,0,0-.27,13.47,9.53,9.53,0,0,0,13.47.27,9.48,9.48,0,0,0,2.88-6L-51,194.92a9.73,9.73,0,0,0,1.93,3,10.82,10.82,0,0,0,1,.85L-93.47,279.6a9.51,9.51,0,0,0-9.9,2.07,9.5,9.5,0,0,0-2.87,7.78l-65.26,17.07-67.26,33.25a9.5,9.5,0,0,0-2.13-3.51,9.53,9.53,0,0,0-13.47-.26,9.53,9.53,0,0,0-.26,13.47,9.54,9.54,0,0,0,3.79,2.41l-24.54,55.23a9.51,9.51,0,0,0-9,2.33A9.53,9.53,0,0,0-284.67,422.91Zm167.49-73.21a9.07,9.07,0,0,0-.72-.67l19.24-51.17a9.52,9.52,0,0,0,8.5-2.46,9.47,9.47,0,0,0,.94-1.07l46.16,25L11,330a9.47,9.47,0,0,0,5.39,8.12l-28.73,63.38-52.82-16.73a10.14,10.14,0,0,0-2.57-9.31,10.16,10.16,0,0,0-14.36-.28,11.55,11.55,0,0,0-1,1.18l-31.43-18.9A9.52,9.52,0,0,0-117.18,349.7Zm244.24,72.71L35.18,472.24,64,405.1a9.5,9.5,0,0,0,9.19-7.35ZM-9.07,401.48,19.25,339a9.46,9.46,0,0,0,10.42-7l47.19-.51a9.52,9.52,0,0,0,2.2,9.53l.25.24L67.5,386.78a9.52,9.52,0,0,0-12.93,6.73ZM81,160.33a9.52,9.52,0,0,0,2.29,9.2l0,0L56.56,205.08a10.11,10.11,0,0,0-14.93,5.08L-32.75,192A9.52,9.52,0,0,0-34,186.48l51.93-42.72c.21.25.42.51.66.75a9.52,9.52,0,0,0,15.9-3.6ZM-22.85,253.16a9.56,9.56,0,0,0,8.13,1.92l30.31,66.26a9.26,9.26,0,0,0-1.72,1.3A9.47,9.47,0,0,0,11.3,327L-42,316.5l-45.76-24.81a9.47,9.47,0,0,0,.1-6ZM78.5,328.4,30,328.92a9.49,9.49,0,0,0-2.64-6,9.6,9.6,0,0,0-2-1.56l25.29-97.56A10.11,10.11,0,0,0,58.19,221a9.87,9.87,0,0,0,1.54-1.9l81.53,33.27a9.52,9.52,0,0,0,1.91,8.2L86.23,324.84a9.51,9.51,0,0,0-6.91,2.65A8.75,8.75,0,0,0,78.5,328.4Zm76.73-149.5L149.82,245a9.5,9.5,0,0,0-5.89,2.64,9.29,9.29,0,0,0-1.53,1.92L60.94,216.33a10.14,10.14,0,0,0-2.09-9.28l26.92-35.69a9.5,9.5,0,0,0,13.35-5.2ZM43.24,220c.19.23.38.46.59.68a10.15,10.15,0,0,0,3.88,2.5l-25.15,97a9.62,9.62,0,0,0-4.17,0L-11.92,254a9.2,9.2,0,0,0,1.71-1.3,9.52,9.52,0,0,0,2.91-7.3Zm-63,16.73L-37,199.2a9.36,9.36,0,0,0,1.32-1A9.28,9.28,0,0,0-33.46,195L41,213.11a10.06,10.06,0,0,0,.7,4.3l-49.66,24.9a9.52,9.52,0,0,0-2-3.12A9.52,9.52,0,0,0-19.79,236.75ZM99.49,161l59.72-21.56a9.46,9.46,0,0,0,4.43,2.58l-7.92,34-56-12.76A9.76,9.76,0,0,0,99.49,161Zm73.42-34.79a9.25,9.25,0,0,0-2.12-1.65l11.6-49.7a9.51,9.51,0,0,0,7.27-2.62,1.79,1.79,0,0,1,.13-.14l41.79,30.22a10.17,10.17,0,0,0-1.31,7.46l-55,20.52A9.36,9.36,0,0,0,172.91,126.19Zm18.88-64.61L244.66,28c.09.09.16.19.25.29a9.45,9.45,0,0,0,4.21,2.53L240.8,97.53a10.14,10.14,0,0,0-7.26,2.47l-42-30.36A9.51,9.51,0,0,0,191.79,61.58Zm130.1,20.18a9.49,9.49,0,0,0-2.09,8.66l-70.08,13.71a10.06,10.06,0,0,0-2.21-3.51,9.83,9.83,0,0,0-3.75-2.46l8.35-67a9.44,9.44,0,0,0,5.94-2.35Zm6.32,15.78L298,168.64a10.13,10.13,0,0,0-9.33,2l-40.69-56.37a10.18,10.18,0,0,0,2.39-7.17L321,93.23a9.47,9.47,0,0,0,7.18,4.31ZM285,179.31l-60.84-1.45L239.9,117.8a10.18,10.18,0,0,0,5.76-1.58l40.93,56.69A10.08,10.08,0,0,0,285,179.31Zm-63.93-1.53-62.38-1.49,7.93-34a9.48,9.48,0,0,0,8.89-8.91l55.79-20.8a9.7,9.7,0,0,0,1.55,2.11,10.08,10.08,0,0,0,4.06,2.58Zm-.79,3L216,197.41a9.52,9.52,0,0,0-10.17,14.18l-48.6,36.13a9.4,9.4,0,0,0-4.39-2.45l5.42-66Zm-4.45,35.27,13.94,58.29a9.52,9.52,0,0,0-3.45,2.12,9.22,9.22,0,0,0-1.63,2.09L159.9,256.16a9.57,9.57,0,0,0-.92-6.05l48.74-36.2A9.53,9.53,0,0,0,215.86,216.05Zm9.22,72.62-58.14,52.25a10.17,10.17,0,0,0-5.44-.95l-8.44-76.27a9.54,9.54,0,0,0,5.87-4.7l64.7,22.36A9.5,9.5,0,0,0,225.08,288.67ZM153.7,345.08,94.82,330.94a9.54,9.54,0,0,0-5.21-5.37l55.82-63a9.47,9.47,0,0,0,4.64,1.47l8.48,76.72a10.14,10.14,0,0,0-3,2A10,10,0,0,0,153.7,345.08ZM-45.52,200.22a9.65,9.65,0,0,0,5.82.25l17.23,37.67a11.35,11.35,0,0,0-1,.79,9.52,9.52,0,0,0-1.48,11.89L-89,283a9.3,9.3,0,0,0-.86-1,8.67,8.67,0,0,0-1-.86Zm219.24-133A9.52,9.52,0,0,0,176.19,72a9.39,9.39,0,0,0,3.26,2.21L168,123.46a9.53,9.53,0,0,0-10.53,13.4l-59,21.31A9.79,9.79,0,0,0,97,156.32a9.53,9.53,0,0,0-13.47-.26,9,9,0,0,0-1.3,1.54L35,137.86a9.51,9.51,0,0,0-2.52-6.41L94.84,76.29a10.13,10.13,0,0,0,15.8-6.59ZM332.78,79.3a9.56,9.56,0,0,0-8.52.51L260,26.48a9.57,9.57,0,0,0,1.27-3.85l69.62-3.84A9.45,9.45,0,0,0,337.79,26Zm-27.72,97a10,10,0,0,0-2.61-5,10.37,10.37,0,0,0-1.75-1.45l30.92-72.68a9.41,9.41,0,0,0,4-2.3l0,0L380,154.3Zm-38.55,48.45L223.39,208.1a9.5,9.5,0,0,0-2.56-8,9.39,9.39,0,0,0-2-1.61l4.62-17.66,62.38,1.5a10,10,0,0,0,3.44,4.29ZM236.8,274.61a9.67,9.67,0,0,0-4-.8L218.7,215a9.26,9.26,0,0,0,1.87-1.39,9.37,9.37,0,0,0,1.91-2.61l42.46,16.41Zm-64.19,74.2a10.13,10.13,0,0,0-2.74-5.79l-.38-.35,57.65-51.81a9.48,9.48,0,0,0,6.7,1.94l13.67,68.66Zm-17.38,8.29c.1.11.21.2.32.3l-25.92,62.88L73.32,394.52A9.39,9.39,0,0,0,70.73,389c-.17-.18-.36-.35-.55-.52L82,343a9.51,9.51,0,0,0,13.49-8.82l57.18,13.73A10.14,10.14,0,0,0,155.23,357.1ZM-33.59,462.91l23.12-58.22,64.87-8.12a9.48,9.48,0,0,0,6.49,8.06L31.17,474Zm-70.19-21.48L-118.46,364a11.35,11.35,0,0,0,1-.84,9.57,9.57,0,0,0,2-2.75L-84.61,379A10.13,10.13,0,0,0-82.4,389.5a10.16,10.16,0,0,0,14.36.29,10.24,10.24,0,0,0,1.74-2.24l52.76,16.7-23.09,58.14L-91.77,453a10.13,10.13,0,0,0-2.69-8.66A10.15,10.15,0,0,0-103.78,441.43Zm-136.29-92.95a9.45,9.45,0,0,0,1.83-5.6l67.94-33.59,64.82-16.93a9.64,9.64,0,0,0,1.85,2.78,9.45,9.45,0,0,0,2.15,1.66l-19,50.66a9.54,9.54,0,0,0-10.12,2,9.52,9.52,0,0,0-1.56,11.77l-49.23,38.62Z" transform="translate(297.26 158.26)"/><circle class="cls-6" cx="438.83" cy="142.96" r="19.46"/><circle class="cls-6" cx="480.32" cy="223.61" r="19.46"/><circle class="cls-6" cx="227.19" cy="267.92" r="19.46"/><circle class="cls-6" cx="387.43" cy="321.18" r="19.46"/><circle class="cls-6" cx="463.31" cy="291.05" r="19.46"/><circle class="cls-6" cx="255.02" cy="349.54" r="19.46"/><circle class="cls-6" cx="200.5" cy="446.79" r="19.46"/><circle class="cls-6" cx="150.6" cy="283.84" r="19.46"/><circle class="cls-6" cx="166.03" cy="369.14" r="19.46"/><circle class="cls-6" cx="49.51" cy="501.13" r="19.46"/><circle class="cls-6" cx="19.46" cy="574.57" r="19.46"/><circle class="cls-6" cx="173.22" cy="514.57" r="19.46"/><circle class="cls-6" cx="280.45" cy="404.05" r="19.46"/><circle class="cls-6" cx="322.7" cy="296.17" r="19.46"/><circle class="cls-6" cx="447.79" cy="412.77" r="19.46"/><circle class="cls-6" cx="383.19" cy="492.62" r="19.46"/><circle class="cls-6" cx="481.38" cy="599.63" r="19.46"/><circle class="cls-6" cx="240.95" cy="674.3" r="19.46"/><circle class="cls-6" cx="361.13" cy="553.85" r="19.46"/><circle class="cls-6" cx="624.63" cy="496.65" r="19.46"/><circle class="cls-6" cx="530.22" cy="441.59" r="19.46"/><circle class="cls-6" cx="613.17" cy="402.19" r="19.46"/><circle class="cls-6" cx="511.23" cy="364.98" r="19.46"/><circle class="cls-6" cx="689.11" cy="384.6" r="19.46"/><circle class="cls-6" cx="746.62" cy="273.86" r="19.46"/><circle class="cls-6" cx="760.11" cy="90.63" r="19.46"/><circle class="cls-5" cx="760.11" cy="90.63" r="9.53"/><circle class="cls-6" cx="729.37" cy="19.46" r="19.46"/><circle class="cls-6" cx="542.57" cy="39.63" r="19.46"/><circle class="cls-6" cx="549.05" cy="179.91" r="19.46"/><circle class="cls-6" cx="626.29" cy="246.32" r="19.46"/><circle class="cls-6" cx="317.74" cy="487.77" r="19.46"/><circle class="cls-6" cx="637.43" cy="175.03" r="19.46"/></g></svg>