<svg id="Foundations_of_AI_r3" data-name="Foundations of AI r3" xmlns="http://www.w3.org/2000/svg" viewBox="0 0 126 126"><defs><style>.cls-1{fill:#04b0c2;}.cls-2{fill:#f15a33;}.cls-3{fill:#fff;}.cls-4{fill:#fffbf7;}.cls-5,.cls-6{fill:none;}.cls-5{stroke:#fffbf7;stroke-miterlimit:10;stroke-width:0.91px;}</style></defs><title>AIFC_FoundationsofAI</title><circle class="cls-1" cx="63" cy="63" r="63"/><circle class="cls-2" cx="63" cy="63" r="47.21"/><path class="cls-3" d="M63.5,111.17A47.67,47.67,0,1,1,111.17,63.5,47.73,47.73,0,0,1,63.5,111.17Zm0-94.43A46.76,46.76,0,1,0,110.26,63.5,46.82,46.82,0,0,0,63.5,16.74Z" transform="translate(-0.5 -0.5)"/><circle class="cls-1" cx="63" cy="63" r="30.38"/><path class="cls-4" d="M31.61,50.09l-.77,1.63L23,48l2.13-4.48,1.36.65L25.16,47l2,1,1.27-2.65,1.35.64-1.26,2.65Z" transform="translate(-0.5 -0.5)"/><path class="cls-4" d="M34.46,39.4A3.63,3.63,0,0,1,36,41.58,3.12,3.12,0,0,1,35.32,44,3.26,3.26,0,0,1,34,45.14a2.79,2.79,0,0,1-1.62.2,4,4,0,0,1-1.7-.77,3.46,3.46,0,0,1-1.53-2.17A3.08,3.08,0,0,1,29.81,40a3.24,3.24,0,0,1,1.33-1.11,2.71,2.71,0,0,1,1.62-.2A4.07,4.07,0,0,1,34.46,39.4Zm-2.71,3.69a2.78,2.78,0,0,0,1.38.62,1.17,1.17,0,0,0,1-.55A1.11,1.11,0,0,0,34.37,42,3.62,3.62,0,0,0,32,40.27a1.18,1.18,0,0,0-1,.56A1.13,1.13,0,0,0,30.75,42,2.71,2.71,0,0,0,31.75,43.09Z" transform="translate(-0.5 -0.5)"/><path class="cls-4" d="M41.39,37.49,40.65,37l-.07.06a1.94,1.94,0,0,1-.14,1.08,2.89,2.89,0,0,1-.75,1,2.32,2.32,0,0,1-1.73.69,2.48,2.48,0,0,1-1.63-1l-2.85-3.24,1.36-1.19,2.55,2.9a1.76,1.76,0,0,0,.9.64.92.92,0,0,0,.84-.26,1.22,1.22,0,0,0,.49-1.11,3.16,3.16,0,0,0-.85-1.48l-2.05-2.34,1.35-1.19,4.37,5Z" transform="translate(-0.5 -0.5)"/><path class="cls-4" d="M49,32.85l-1.59.86L45.6,30.3a1.87,1.87,0,0,0-.73-.82,1,1,0,0,0-.89.06,1.23,1.23,0,0,0-.72,1,3.22,3.22,0,0,0,.49,1.64l1.48,2.74-1.59.85-3.13-5.83,1.21-.65.62.63.09-.05a1.89,1.89,0,0,1,.38-1,3,3,0,0,1,.95-.79,2.32,2.32,0,0,1,1.84-.27A2.5,2.5,0,0,1,47,29.05Z" transform="translate(-0.5 -0.5)"/><path class="cls-4" d="M52.41,31.89a2.16,2.16,0,0,1-2-.38,4.15,4.15,0,0,1-1.32-2.23,4.15,4.15,0,0,1,0-2.63,2.23,2.23,0,0,1,1.55-1.38,2.19,2.19,0,0,1,2.1.42l.05,0a8,8,0,0,1-.49-1.23l-.57-2,1.74-.49,2.5,8.86-1.33.38L54,30.42l-.07,0A2.07,2.07,0,0,1,52.41,31.89Zm.22-1.56a1.21,1.21,0,0,0,.86-.66,2.26,2.26,0,0,0,0-1.41l-.05-.19a2.73,2.73,0,0,0-.73-1.38,1.24,1.24,0,0,0-1.16-.16,1.07,1.07,0,0,0-.76.75,2.83,2.83,0,0,0,.08,1.53,2.64,2.64,0,0,0,.72,1.31A1.13,1.13,0,0,0,52.63,30.33Z" transform="translate(-0.5 -0.5)"/><path class="cls-4" d="M61.61,30.18l-.42-.87h0a2.66,2.66,0,0,1-.87.87,3.06,3.06,0,0,1-1.23.32,2,2,0,0,1-1.54-.41,2.08,2.08,0,0,1-.68-1.5A1.75,1.75,0,0,1,57.43,27a4.2,4.2,0,0,1,2.17-.74l1.14-.13,0-.29a.9.9,0,0,0-1.11-.92,4.77,4.77,0,0,0-1.81.64l-.7-1.17a5.27,5.27,0,0,1,2.47-.8,3.18,3.18,0,0,1,2.09.4,2.16,2.16,0,0,1,.85,1.7l.37,4.4Zm-.79-3-.69.08a2.27,2.27,0,0,0-1.14.38.91.91,0,0,0-.32.83c0,.5.35.73.93.68a1.35,1.35,0,0,0,1-.44,1.25,1.25,0,0,0,.3-1Z" transform="translate(-0.5 -0.5)"/><path class="cls-4" d="M67.31,29a3.86,3.86,0,0,0,1.14-.13l-.08,1.34a4,4,0,0,1-1.68.19,2,2,0,0,1-1.53-.64,2.35,2.35,0,0,1-.39-1.67L65,24.9l-.86,0,0-.76,1-.54.6-1.36,1.15.07-.09,1.41,1.85.11-.08,1.36L66.77,25l-.2,3.18a.67.67,0,0,0,.18.58A.82.82,0,0,0,67.31,29Z" transform="translate(-0.5 -0.5)"/><path class="cls-4" d="M71.24,30.9l-1.78-.31,1.14-6.52,1.78.32Zm-.42-8.52c.1-.58.48-.82,1.12-.7s.92.46.82,1a.88.88,0,0,1-.36.6,1,1,0,0,1-.76.1C71,23.31,70.72,23,70.82,22.38Z" transform="translate(-0.5 -0.5)"/><path class="cls-4" d="M79.59,29.91A3.58,3.58,0,0,1,78,32a3.12,3.12,0,0,1-2.54.11A3.29,3.29,0,0,1,74,31.22a2.74,2.74,0,0,1-.68-1.49,4,4,0,0,1,.2-1.85,3.56,3.56,0,0,1,1.6-2.12,3.1,3.1,0,0,1,2.55-.1,3.36,3.36,0,0,1,1.46.92,2.77,2.77,0,0,1,.68,1.48A3.9,3.9,0,0,1,79.59,29.91Zm-4.34-1.45A2.72,2.72,0,0,0,75.09,30a1.34,1.34,0,0,0,2,.67,2.9,2.9,0,0,0,.77-1.31,2.69,2.69,0,0,0,.16-1.5,1.36,1.36,0,0,0-2-.67A2.81,2.81,0,0,0,75.25,28.46Z" transform="translate(-0.5 -0.5)"/><path class="cls-4" d="M84.74,36.65l-1.55-.93,2-3.31a1.86,1.86,0,0,0,.34-1.06,1,1,0,0,0-.52-.72,1.21,1.21,0,0,0-1.19-.13,3.24,3.24,0,0,0-1.16,1.27l-1.59,2.67-1.55-.93,3.39-5.68,1.19.71-.23.85.09.06a1.83,1.83,0,0,1,1.08-.2,2.8,2.8,0,0,1,1.16.41,2.32,2.32,0,0,1,1.19,1.43A2.53,2.53,0,0,1,87,33Z" transform="translate(-0.5 -0.5)"/><path class="cls-4" d="M90.59,39.27a1.82,1.82,0,0,1-1.57.67,3.51,3.51,0,0,1-1.92-1,6.08,6.08,0,0,1-.84-.91,4.17,4.17,0,0,1-.51-.85l1-1.1a6.84,6.84,0,0,0,.57,1.05A4.48,4.48,0,0,0,88,38c.49.44.86.52,1.11.25a.49.49,0,0,0,.14-.35,1.76,1.76,0,0,0-.13-.52q-.12-.35-.36-.87a5.34,5.34,0,0,1-.43-1.19,1.72,1.72,0,0,1,0-.82,2.21,2.21,0,0,1,.46-.75,1.58,1.58,0,0,1,1.43-.54,3.33,3.33,0,0,1,1.75,1,5.51,5.51,0,0,1,1.37,1.95l-1.28.6c-.15-.33-.3-.63-.45-.89a2.87,2.87,0,0,0-.56-.69c-.39-.36-.69-.43-.88-.22a.52.52,0,0,0-.1.48,7.55,7.55,0,0,0,.48,1.15,4.88,4.88,0,0,1,.44,1.2,1.61,1.61,0,0,1,0,.82A1.86,1.86,0,0,1,90.59,39.27Z" transform="translate(-0.5 -0.5)"/><path class="cls-4" d="M97.84,47.18a3.57,3.57,0,0,1-2.6.61,3.12,3.12,0,0,1-2-1.54,3.28,3.28,0,0,1-.53-1.65A2.72,2.72,0,0,1,93.12,43a3.9,3.9,0,0,1,1.35-1.29,3.48,3.48,0,0,1,2.58-.61,3.1,3.1,0,0,1,2,1.55,3.38,3.38,0,0,1,.53,1.65,2.77,2.77,0,0,1-.42,1.57A3.87,3.87,0,0,1,97.84,47.18Zm-2.41-3.89a2.84,2.84,0,0,0-1.09,1.06,1.15,1.15,0,0,0,.12,1.15,1.14,1.14,0,0,0,1,.62,2.73,2.73,0,0,0,1.43-.51,2.59,2.59,0,0,0,1.08-1,1.14,1.14,0,0,0-.13-1.15,1.15,1.15,0,0,0-1-.62A2.7,2.7,0,0,0,95.43,43.29Z" transform="translate(-0.5 -0.5)"/><path class="cls-4" d="M101.69,51.41l-.6-1.44-4.86,2-.69-1.67,4.85-2-.38-.92.81-.33.83.73.44-.19a2.25,2.25,0,0,1,1.74-.12A2.58,2.58,0,0,1,105,48.92a4.73,4.73,0,0,1,.38,1.64l-1.4.08a3.51,3.51,0,0,0-.23-1,.66.66,0,0,0-.43-.43,1,1,0,0,0-.6.07l-.38.16.6,1.44Z" transform="translate(-0.5 -0.5)"/><path class="cls-4" d="M63.28,53.58l-.88-2.89H58l-.88,2.89H54.33L58.61,41.4h3.15l4.3,12.18Zm-1.49-5c-.81-2.62-1.27-4.1-1.37-4.45a7.47,7.47,0,0,1-.22-.81q-.29,1.06-1.57,5.26Z" transform="translate(-0.5 -0.5)"/><path class="cls-4" d="M72.13,53.58H66.6V52.12l1.48-.68V43.59l-1.48-.68V41.45h5.53v1.46l-1.48.68v7.85l1.48.68Z" transform="translate(-0.5 -0.5)"/><circle class="cls-5" cx="63" cy="63" r="28.4"/><path class="cls-3" d="M34.84,67.17a1,1,0,0,0,.65,1q-.15-.86-.24-1.74A1,1,0,0,0,34.84,67.17Z" transform="translate(-0.5 -0.5)"/><path class="cls-3" d="M44.93,85.57a1,1,0,0,0,1,1,.93.93,0,0,0,.65-.26c-.53-.39-1-.81-1.54-1.23A1.06,1.06,0,0,0,44.93,85.57Z" transform="translate(-0.5 -0.5)"/><path class="cls-6" d="M87.87,68.23a1,1,0,1,1,1.35-.75l2.23,1.08a29,29,0,0,0,.45-5.06,28.4,28.4,0,1,0-56.65,2.93,1,1,0,0,1,.67-.21,1,1,0,0,1,.88.65L42,66.22a1,1,0,1,1,1.23,1.06l-.91,3.62a1,1,0,0,1,.61,1,1,1,0,1,1-2-.12,1,1,0,0,1,1-.94l.88-3.55a1,1,0,0,1-.74-.63l-5.19.65h0a1,1,0,0,1-1.08,1,.74.74,0,0,1-.3-.08,28.89,28.89,0,0,0,.87,3.73l1.84.47a.32.32,0,0,0,0-.09,1,1,0,0,1,1.39-.38A1,1,0,0,1,40,73.29a1,1,0,0,1-.17.19L41.4,75.9a1,1,0,0,1,1,0,1,1,0,1,1-1.39.39.43.43,0,0,1,.09-.1l-1.59-2.46a1,1,0,0,1-1.38-.94l-1.59-.4a27.51,27.51,0,0,0,1.27,3.19,1,1,0,0,1,.93.42,1,1,0,0,1-.09,1.24c.47.84,1,1.66,1.53,2.45l2.15.14a1.42,1.42,0,0,1,0-.22,1,1,0,1,1,.52,1.34,1,1,0,0,1-.56-.7l-1.84-.12c.45.63.92,1.23,1.42,1.81a1,1,0,0,1,1.08.71.73.73,0,0,1,0,.44c.68.71,1.39,1.38,2.13,2a1,1,0,0,1,.89-.55.8.8,0,0,1,.15,0l1.26-3.83a1,1,0,0,1-.53-.88,1,1,0,1,1,1,1h-.09L46.5,84.73a1,1,0,0,1,.47.84.44.44,0,0,1,0,.1l4.16.23a1,1,0,0,1,1-.72,1,1,0,1,1,0,2,1,1,0,0,1-1-.89l-4.26-.25a1.07,1.07,0,0,1-.22.25,28.29,28.29,0,0,0,14.67,5.48,1.07,1.07,0,0,1,.42-.34l-.47-2.57a1,1,0,0,1-1-.7,1,1,0,0,1,.68-1.28,1,1,0,0,1,.69,1.9l.48,2.57a1,1,0,0,1,.84.5h.55a28.29,28.29,0,0,0,11.82-2.57l-1.4-3a1,1,0,0,1-.92,0,1,1,0,0,1-.49-1.06l-2.33-1a1,1,0,0,1-1.73-1.06.77.77,0,0,1,.17-.19l-1.56-2.42a1,1,0,1,1,.4-.37l-.08.09L69,82.79a1,1,0,0,1,.87,0,1,1,0,0,1,.5,1l2.33,1a1,1,0,0,1,1.72,1.06.88.88,0,0,1-.12.15l1.43,3.06c.73-.34,1.44-.73,2.13-1.13a1,1,0,0,1,.1-.77,1,1,0,0,1,1.39-.38.88.88,0,0,1,.15.12q.82-.57,1.62-1.2l-.1-.08a1,1,0,0,1-1.06.05,1,1,0,0,1,.64-1.9l.79-1.16a1,1,0,0,1-.19-1.22,1,1,0,1,1,.55,1.45L81,84a1,1,0,0,1,.34,1.36l0,0,.14.12a28.8,28.8,0,0,0,6.68-7.85L83.26,79a1,1,0,1,1-1.7-.68,1,1,0,0,1,1.44.06.83.83,0,0,1,.14.22l5.2-1.42a1,1,0,0,1,.32-.7,1.19,1.19,0,0,1,.15-.09c.38-.75.73-1.52,1-2.3l-1.79-.29a1,1,0,0,1-1.06.74,1,1,0,1,1,.2-2,1,1,0,0,1,.89.87l1.91.31A28.52,28.52,0,0,0,91.37,69l-2.32-1.12A1,1,0,0,1,87.87,68.23Zm-11.53,2a1,1,0,0,1,.51-.16,1,1,0,1,1-.88,1.5L71.6,72.75s0,.06,0,.09a1,1,0,0,1-.1.43l4.65,2.43a1,1,0,0,1,.77-.36,1,1,0,1,1-1,1,1.47,1.47,0,0,1,0-.29l-4.72-2.46a1,1,0,0,1-.65.25,1,1,0,1,1,.88-1.51l4.38-1.19s0,0,0-.08a1,1,0,0,1,.2-.57l-2.88-2.79a1,1,0,0,1-.52.16,1,1,0,1,1,1-1,1,1,0,0,1-.19.57Zm-7.68-6A1,1,0,0,1,70,63.74h0l1.56-2a1,1,0,0,1-.13-1.1,1,1,0,0,1,.37-.39l-1.49-2.18a1,1,0,1,1,.55-.5,1.28,1.28,0,0,1-.2.26l1.54,2.27a.93.93,0,0,1,.59.08,1,1,0,1,1-.9,1.83h0l-1.57,2a1,1,0,1,1-1.7.19Zm-8.55-7.94a1,1,0,0,1,1,1s0,.05,0,.08l5.05,1.42a1,1,0,0,1,.84-.48,1,1,0,0,1,0,2,1,1,0,0,1-.25,0l-1,2.09a1,1,0,0,1,.42.8,1,1,0,0,1-.53.88l2.72,4.85a1.07,1.07,0,0,1,.31-.06,1,1,0,1,1-1,1,1,1,0,0,1,.34-.76l-2.76-4.92h-.08a1,1,0,1,1,0-2,.8.8,0,0,1,.21,0l1-2.11a1,1,0,0,1-.39-.79.8.8,0,0,1,0-.15l-5-1.41a1,1,0,1,1-.89-1.5Zm5,13.6a1,1,0,0,1-1-.71.91.91,0,0,1,.81-1,1,1,0,0,1,1.2.71.88.88,0,0,1-.64,1l.89,3a1,1,0,0,1,1,.71.91.91,0,0,1-.81,1,1,1,0,0,1-1.19-.71.86.86,0,0,1,.58-1Zm-3.53,6.77a1,1,0,0,1-2,0,1,1,0,0,1,1-1l.08,0L62,71.78a1,1,0,0,1-.47-.84s0-.06,0-.09l-4.15-.24a1,1,0,1,1-1-1.32,1,1,0,0,1,1,.9l4.26.24a1,1,0,0,1,.87-.51,1,1,0,1,1,0,2,.66.66,0,0,1-.15,0L61.1,75.76A1,1,0,0,1,61.63,76.64Zm-9.14-6.91a1,1,0,1,1-.25-2,1,1,0,0,1,1,1,1,1,0,0,1-.39.78l2.76,4.32a1,1,0,0,1,.33-.07,1,1,0,1,1-.69.28ZM63,66.55a1,1,0,0,1-.72-1l-3.47-.75a1,1,0,1,1-.59-1.47,1,1,0,0,1,.71,1.07l3.46.74a1,1,0,0,1,1.17-.53,1,1,0,0,1,.7,1.26A1,1,0,0,1,63,66.55Zm-7.26-9.9a1,1,0,0,1,1.37.47,1.08,1.08,0,0,1,0,.75l4.47,2.59A.94.94,0,0,1,62,60.1a1,1,0,1,1-.47,1.37,1.08,1.08,0,0,1-.07-.61l-4.52-2.62a.87.87,0,0,1-.32.24,1,1,0,0,1-.89-1.83Zm-2.91,2a1,1,0,0,1,1.3.63,1,1,0,0,1,0,.66l2.31.86a1,1,0,0,1,.6-.58,1,1,0,0,1,1.3.62,1,1,0,0,1-.63,1.3,1,1,0,0,1-1.3-.62,1,1,0,0,1,0-.3l-2.46-.91a1.14,1.14,0,0,1-.25.18l1.86,6a1,1,0,0,1,.8.66,1,1,0,1,1-1.3-.63H55l-1.83-5.91a1,1,0,0,1-1-.66A1,1,0,0,1,52.79,58.65Zm-6.72,4.49a1,1,0,0,1,1.22.57l2.93-.36a1,1,0,0,1,.71-.91,1,1,0,0,1,1.27.68,1,1,0,0,1-.67,1.27,1,1,0,0,1-1.25-.63l-2.9.36a1,1,0,0,1-.62.92l.48,2.57a1,1,0,0,1,.28,2,1,1,0,0,1-.69-1.9l-.48-2.57a1,1,0,0,1-1-.71A1,1,0,0,1,46.07,63.14Zm4.58,16.1a1,1,0,0,1,.76-1L51,73.46a.77.77,0,0,1-.25-.1L49,75.65a1,1,0,0,1,.2.57,1,1,0,0,1-2,0,1,1,0,0,1,.23-.63L45,72.74a1.07,1.07,0,0,1-.31.06,1,1,0,1,1,.69-.27l2.3,2.79a1,1,0,0,1,.46-.12,1.06,1.06,0,0,1,.52.16l1.77-2.28a1,1,0,0,1-.22-.59,1,1,0,0,1,2,0,1,1,0,0,1-.83,1l.4,4.78a1,1,0,0,1,.85,1,1,1,0,0,1-2,0Zm5.57,9.53a1,1,0,0,1-1-1,1,1,0,0,1,.39-.78l-2.76-4.31a1.28,1.28,0,0,1-.34.06,1,1,0,1,1,.7-.28L56,86.78a1,1,0,0,1,.25,0,1,1,0,1,1,0,2Zm6.51-4a1,1,0,0,1,.33-.75l-2.3-2.79a.91.91,0,0,1-.46.13.92.92,0,0,1-.52-.17L58,83.43a1,1,0,0,1,.22.59,1,1,0,0,1-2,0A1,1,0,0,1,57,83l-.4-4.78a1,1,0,0,1-.86-1,1,1,0,0,1,2,0,1,1,0,0,1-.76,1l.4,4.81a.82.82,0,0,1,.26.1l1.77-2.29a1,1,0,1,1,1.85-.56,1,1,0,0,1-.24.62l2.35,2.85a1.13,1.13,0,0,1,.32-.06,1,1,0,1,1-1,1Zm3.86-1.06a1,1,0,0,1,0,2l-.89,3.54a1,1,0,0,1,.72.58l3.81-.64v0a1,1,0,1,1,.95,1.08,1,1,0,0,1-.87-.64l-3.81.65v0a1,1,0,1,1-1.23-1l.91-3.62a1,1,0,0,1-.61-1A1,1,0,0,1,66.59,83.67Zm2.75-6.77-3.2-.21a.54.54,0,0,1,0,.22,1,1,0,0,1-1.86-.82,1,1,0,0,1,1.35-.52,1,1,0,0,1,.56.7l3.22.21s0-.1,0-.15a1,1,0,1,1,.52,1.35A1,1,0,0,1,69.34,76.9Zm5,5.24a.94.94,0,0,1-.16-.56l-2.67-1.2a.89.89,0,0,1-.32.4,1,1,0,0,1-1.42-.26,1,1,0,1,1,1.68-1.15,1,1,0,0,1,.16.59l2.65,1.2a1,1,0,0,1,.34-.44,1,1,0,1,1-.26,1.42Zm5.34-2.8a1,1,0,0,1-1,.76L77.6,83.49a1,1,0,0,1-.71,1.88,1,1,0,0,1,.3-2L78.25,80a1,1,0,0,1-.58-1.15,1,1,0,1,1,2,.48ZM79,60.8a1,1,0,0,1-.6,0h0L76.71,63.2a1,1,0,0,1-1.16,1.58,1,1,0,0,1,.75-1.9l.08,0,1.7-2.4a1,1,0,0,1-.22-1.08,1,1,0,0,1,1.32-.58,1,1,0,0,1,.58,1.32,1,1,0,0,1-.34.43l1.43,3.64a1,1,0,0,1,.46,0l1.93-2.94a1,1,0,0,1,1.08-1.68A1,1,0,0,1,84.9,61a1,1,0,0,1-1.3.58l-1.91,2.91A1,1,0,0,1,82,65.61a1,1,0,1,1-1.9-.74.93.93,0,0,1,.35-.43Zm6.83,10.09a1,1,0,0,1-1,.32l-3.25,4.2a1,1,0,0,1,.17.25h2a1,1,0,0,1,1.59-.38,1,1,0,1,1-1.33,1.55,1,1,0,0,1-.34-.75H81.9a1.05,1.05,0,0,1-.23.65,1,1,0,0,1-1.44.1,1,1,0,0,1,1.09-1.68L84.5,71l-.07,0a1,1,0,1,1,1.44-.11Zm-4.27-.8a1,1,0,0,1,.13.94,1,1,0,1,1-1.9-.75,1,1,0,0,1,1.32-.57.48.48,0,0,1,.14.09l5.88-6.15a1,1,0,0,1-.09-.89,1,1,0,0,1,1.32-.58,1,1,0,1,1-.75,1.9,1.13,1.13,0,0,1-.18-.12Z" transform="translate(-0.5 -0.5)"/><path class="cls-3" d="M52.69,79.24a1,1,0,0,0-.85-1l-.4-4.78a1,1,0,0,0,.83-1,1,1,0,0,0-2,0,1,1,0,0,0,.22.59l-1.77,2.28a1.06,1.06,0,0,0-.52-.16,1,1,0,0,0-.46.12l-2.3-2.79a1,1,0,1,0-.69.27,1.07,1.07,0,0,0,.31-.06l2.35,2.85a1,1,0,0,0-.23.63,1,1,0,0,0,2,0,1,1,0,0,0-.2-.57l1.78-2.29a.77.77,0,0,0,.25.1l.4,4.81a1,1,0,1,0,1.28,1Z" transform="translate(-0.5 -0.5)"/><path class="cls-3" d="M72.63,65.84a1,1,0,0,0,0,2,1,1,0,0,0,.52-.16L76,70.51a1,1,0,0,0-.2.57s0,0,0,.08l-4.38,1.19a1,1,0,1,0-.88,1.51,1,1,0,0,0,.65-.25L76,76.07a1.47,1.47,0,0,0,0,.29,1,1,0,1,0,1-1,1,1,0,0,0-.77.36l-4.65-2.43a1,1,0,0,0,.1-.43s0-.06,0-.09L76,71.56a1,1,0,1,0,.88-1.5,1,1,0,0,0-.51.16l-2.88-2.79a1,1,0,0,0,.19-.57A1,1,0,0,0,72.63,65.84Z" transform="translate(-0.5 -0.5)"/><path class="cls-3" d="M56.59,58.48a.87.87,0,0,0,.32-.24l4.52,2.62a1.08,1.08,0,0,0,.07.61A1,1,0,1,0,62,60.1a.94.94,0,0,0-.38.36l-4.47-2.59a1.08,1.08,0,0,0,0-.75,1,1,0,1,0-.48,1.36Z" transform="translate(-0.5 -0.5)"/><path class="cls-3" d="M62.51,72a1,1,0,1,0,0-2,1,1,0,0,0-.87.51l-4.26-.24a1,1,0,0,0-1-.9,1,1,0,1,0,1,1.32l4.15.24s0,.06,0,.09a1,1,0,0,0,.47.84l-1.27,3.86-.08,0a1,1,0,0,0,0,2,1,1,0,0,0,1-1,1,1,0,0,0-.53-.88l1.26-3.83A.66.66,0,0,0,62.51,72Z" transform="translate(-0.5 -0.5)"/><path class="cls-3" d="M56,75.83a1,1,0,1,0,0-2,1,1,0,0,0-.33.07l-2.76-4.32a1,1,0,0,0,.39-.78,1,1,0,1,0-1,1,1,1,0,0,0,.25,0l2.78,4.34A1,1,0,0,0,56,75.83Z" transform="translate(-0.5 -0.5)"/><path class="cls-3" d="M60.11,58.31a1,1,0,0,0,.89-.54l5,1.41a.8.8,0,0,0,0,.15,1,1,0,0,0,.39.79l-1,2.11a.8.8,0,0,0-.21,0,1,1,0,1,0,0,2h.08L68,69.13a1,1,0,0,0,.68,1.77,1,1,0,1,0,0-2,1.07,1.07,0,0,0-.31.06l-2.72-4.85a1,1,0,0,0,.53-.88,1,1,0,0,0-.42-.8l1-2.09a1,1,0,0,0,.25,0,1,1,0,0,0,0-2,1,1,0,0,0-.84.48l-5.05-1.42s0,0,0-.08a1,1,0,1,0-1,1Z" transform="translate(-0.5 -0.5)"/><path class="cls-3" d="M64.22,65.85a1,1,0,0,0-.7-1.26,1,1,0,0,0-1.17.53l-3.46-.74a1,1,0,0,0-.71-1.07,1,1,0,0,0-1.26.7,1,1,0,0,0,1.85.77l3.47.75a1,1,0,0,0,2,.32Z" transform="translate(-0.5 -0.5)"/><path class="cls-3" d="M53.21,60.61,55,66.52H55a1,1,0,1,0,1.3.63,1,1,0,0,0-.8-.66l-1.86-6a1.14,1.14,0,0,0,.25-.18l2.46.91a1,1,0,0,0,0,.3,1,1,0,0,0,1.3.62,1,1,0,0,0,.63-1.3,1,1,0,0,0-1.3-.62,1,1,0,0,0-.6.58l-2.31-.86a1,1,0,0,0,0-.66,1,1,0,1,0-1.92.67A1,1,0,0,0,53.21,60.61Z" transform="translate(-0.5 -0.5)"/><path class="cls-3" d="M65.48,73.87a1,1,0,0,0,1.19.71.91.91,0,0,0,.81-1,1,1,0,0,0-1-.71l-.89-3a.88.88,0,0,0,.64-1,1,1,0,0,0-1.2-.71.91.91,0,0,0-.81,1,1,1,0,0,0,1,.71l.9,3A.86.86,0,0,0,65.48,73.87Z" transform="translate(-0.5 -0.5)"/><path class="cls-3" d="M69.12,65.57A1,1,0,0,0,70.36,64l1.57-2h0a1,1,0,1,0,.9-1.83.93.93,0,0,0-.59-.08L70.7,57.82a1.28,1.28,0,0,0,.2-.26,1,1,0,0,0-1.83-.9,1,1,0,0,0,1.28,1.4l1.49,2.18a1,1,0,0,0-.37.39,1,1,0,0,0,.13,1.1l-1.56,2h0a1,1,0,0,0-.9,1.83Z" transform="translate(-0.5 -0.5)"/><path class="cls-3" d="M80.11,64.87a1,1,0,1,0,1.9.74,1,1,0,0,0-.32-1.15l1.91-2.91A1,1,0,0,0,84.9,61a1,1,0,0,0-.58-1.32,1,1,0,0,0-1.08,1.68l-1.93,2.94a1,1,0,0,0-.46,0l-1.43-3.64a1,1,0,0,0,.34-.43,1,1,0,0,0-.58-1.32,1,1,0,0,0-1.32.58,1,1,0,0,0,.22,1.08l-1.7,2.4-.08,0a1,1,0,0,0-.75,1.9,1,1,0,0,0,1.16-1.58l1.72-2.43h0a1,1,0,0,0,.6,0l1.42,3.64A.93.93,0,0,0,80.11,64.87Z" transform="translate(-0.5 -0.5)"/><path class="cls-3" d="M88.34,77.18l-5.2,1.42a.83.83,0,0,0-.14-.22,1,1,0,0,0-1.5,1.38A1,1,0,0,0,83.26,79l4.85-1.32c.24-.42.48-.85.7-1.29a1.19,1.19,0,0,0-.15.09A1,1,0,0,0,88.34,77.18Z" transform="translate(-0.5 -0.5)"/><path class="cls-3" d="M89.22,67.48a1,1,0,1,0-.17.39L91.37,69c0-.14,0-.29.08-.43Z" transform="translate(-0.5 -0.5)"/><path class="cls-3" d="M87.65,64.08a1,1,0,1,0,.75-1.9,1,1,0,0,0-1.32.58,1,1,0,0,0,.09.89L81.29,69.8a.48.48,0,0,0-.14-.09,1,1,0,0,0-1.32.57,1,1,0,1,0,1.9.75,1,1,0,0,0-.13-.94L87.47,64A1.13,1.13,0,0,0,87.65,64.08Z" transform="translate(-0.5 -0.5)"/><path class="cls-3" d="M87.21,72.51a1,1,0,1,0-.2,2,1,1,0,0,0,1.06-.74l1.79.29.15-.4-1.91-.31A1,1,0,0,0,87.21,72.51Z" transform="translate(-0.5 -0.5)"/><path class="cls-3" d="M84.32,69.56A1,1,0,0,0,84.43,71l.07,0-3.18,4.11a1,1,0,0,0-1.09,1.68,1,1,0,0,0,1.44-.1,1.05,1.05,0,0,0,.23-.65h1.83a1,1,0,0,0,.34.75A1,1,0,1,0,84,75.4a1,1,0,0,0-.15.27h-2a1,1,0,0,0-.17-.25l3.25-4.2a1,1,0,0,0,1-.32,1,1,0,0,0-1.55-1.33Z" transform="translate(-0.5 -0.5)"/><path class="cls-3" d="M69.91,77.68a1,1,0,1,0-.52-1.35s0,.1,0,.15l-3.22-.21a1,1,0,0,0-.56-.7,1,1,0,1,0-.83,1.86,1,1,0,0,0,1.34-.52.54.54,0,0,0,0-.22l3.2.21A1,1,0,0,0,69.91,77.68Z" transform="translate(-0.5 -0.5)"/><path class="cls-3" d="M46.35,65.12l.48,2.57a1,1,0,1,0,.41-.08L46.76,65a1,1,0,0,0,.62-.92l2.9-.36a1,1,0,0,0,1.25.63,1,1,0,0,0,.67-1.27,1,1,0,0,0-1.27-.68,1,1,0,0,0-.71.91l-2.93.36a1,1,0,0,0-1.22-.57,1,1,0,0,0-.67,1.27A1,1,0,0,0,46.35,65.12Z" transform="translate(-0.5 -0.5)"/><path class="cls-3" d="M38.72,76a1,1,0,0,0-.93-.42c.26.56.54,1.11.84,1.66A1,1,0,0,0,38.72,76Z" transform="translate(-0.5 -0.5)"/><path class="cls-3" d="M38.62,73.67a1,1,0,0,0,.87,0l1.59,2.46a.43.43,0,0,0-.09.1,1,1,0,1,0,1.39-.39,1,1,0,0,0-1,0l-1.56-2.42a1,1,0,0,0,.17-.19,1,1,0,0,0-.39-1.39,1,1,0,0,0-1.39.38.32.32,0,0,1,0,.09l-1.84-.47c0,.16.11.32.16.48l1.59.4A1,1,0,0,0,38.62,73.67Z" transform="translate(-0.5 -0.5)"/><path class="cls-3" d="M36.87,67.29h0l5.19-.65a1,1,0,0,0,.74.63l-.88,3.55a1,1,0,0,0-1,.94,1,1,0,1,0,1.42-.86l.91-3.62A1,1,0,1,0,42,66.22l-5.21.65a1,1,0,0,0-.88-.65,1,1,0,0,0-.67.21q.09.88.24,1.74a.74.74,0,0,0,.3.08A1,1,0,0,0,36.87,67.29Z" transform="translate(-0.5 -0.5)"/><path class="cls-3" d="M64.77,84.73a1,1,0,0,0-1-1,1.13,1.13,0,0,0-.32.06l-2.35-2.85a1,1,0,0,0,.24-.62,1,1,0,1,0-1.85.56L57.7,83.15a.82.82,0,0,0-.26-.1L57,78.24a1,1,0,0,0,.76-1,1,1,0,1,0-1.18,1L57,83a1,1,0,0,0,.19,2,1,1,0,0,0,1-1,1,1,0,0,0-.22-.59l1.77-2.28a.92.92,0,0,0,.52.17.91.91,0,0,0,.46-.13L63.06,84a1,1,0,1,0,1.71.75Z" transform="translate(-0.5 -0.5)"/><path class="cls-3" d="M46.82,86.08l4.26.25a1,1,0,0,0,1,.89,1,1,0,1,0-1-1.32L47,85.67a.44.44,0,0,0,0-.1,1,1,0,0,0-.47-.84l1.26-3.85h.09a1,1,0,1,0-1-1,1,1,0,0,0,.53.88L46.1,84.58a.8.8,0,0,0-.15,0,1,1,0,0,0-.89.55c.5.42,1,.84,1.54,1.23A1.07,1.07,0,0,0,46.82,86.08Z" transform="translate(-0.5 -0.5)"/><path class="cls-3" d="M56.22,86.73a1,1,0,0,0-.25,0l-2.78-4.34a1,1,0,0,0-.7-1.76,1,1,0,0,0,0,2,1.28,1.28,0,0,0,.34-.06L55.59,87a1,1,0,0,0-.39.78,1,1,0,1,0,1-1Z" transform="translate(-0.5 -0.5)"/><path class="cls-3" d="M43,82.64a1,1,0,0,0-1.08-.71c.33.39.68.77,1,1.15A.73.73,0,0,0,43,82.64Z" transform="translate(-0.5 -0.5)"/><path class="cls-3" d="M42.88,80.94a1,1,0,1,0-.52-1.34,1.42,1.42,0,0,0,0,.22l-2.15-.14c.1.15.21.3.32.44l1.84.12A1,1,0,0,0,42.88,80.94Z" transform="translate(-0.5 -0.5)"/><path class="cls-3" d="M62.11,91.39l-.48-2.57a1,1,0,0,0-.69-1.9,1,1,0,0,0-.68,1.28,1,1,0,0,0,1,.7l.47,2.57a1.07,1.07,0,0,0-.42.34c.56,0,1.12.07,1.68.08A1,1,0,0,0,62.11,91.39Z" transform="translate(-0.5 -0.5)"/><path class="cls-3" d="M76,81a1,1,0,0,0-1.42-.26,1,1,0,0,0-.34.44L71.58,80a1,1,0,0,0-.16-.59,1,1,0,1,0-.26,1.41.89.89,0,0,0,.32-.4l2.67,1.2a.94.94,0,0,0,.16.56A1,1,0,1,0,76,81Z" transform="translate(-0.5 -0.5)"/><path class="cls-3" d="M81.32,85.37A1,1,0,0,0,81,84l.74-1.08a1,1,0,0,0,1.22-.44,1,1,0,0,0-1.77-1,1,1,0,0,0,.19,1.22l-.79,1.16a1,1,0,0,0-.64,1.9A1,1,0,0,0,81,85.71l.1.08.34-.26-.14-.12Z" transform="translate(-0.5 -0.5)"/><path class="cls-3" d="M74.39,85.94a1,1,0,0,0-1.72-1.06l-2.33-1a1,1,0,0,0-.5-1,1,1,0,0,0-.87,0l-1.59-2.46.08-.09a1.07,1.07,0,1,0-.4.37L68.62,83a.77.77,0,0,0-.17.19,1,1,0,0,0,1.73,1.06l2.33,1A1,1,0,0,0,73,86.33a1,1,0,0,0,.92,0l1.4,3,.38-.18-1.43-3.06A.88.88,0,0,0,74.39,85.94Z" transform="translate(-0.5 -0.5)"/><path class="cls-3" d="M78.9,78.11a1,1,0,0,0-1.23.75A1,1,0,0,0,78.25,80l-1.06,3.37a1,1,0,1,0,.41.11l1.06-3.39a1,1,0,0,0,1-.76A1,1,0,0,0,78.9,78.11Z" transform="translate(-0.5 -0.5)"/><path class="cls-3" d="M66.13,85.61l-.91,3.62a1,1,0,1,0,1.23,1v0l3.81-.65a1,1,0,0,0,.87.64,1,1,0,1,0-.95-1.08v0l-3.81.64a1,1,0,0,0-.72-.58l.89-3.54a1,1,0,1,0-1-1.07A1,1,0,0,0,66.13,85.61Z" transform="translate(-0.5 -0.5)"/><path class="cls-3" d="M77.93,87.25a1,1,0,0,0-.1.77c.56-.33,1.11-.67,1.64-1a.88.88,0,0,0-.15-.12A1,1,0,0,0,77.93,87.25Z" transform="translate(-0.5 -0.5)"/><path class="cls-4" d="M63.5,105.51c-.9,0-1.86,0-3-.11l-.36,0L59,99.13a36.92,36.92,0,0,1-4.88-1l-3.5,5.31-.34-.12a41.92,41.92,0,0,1-5.54-2.29l-.32-.16,1.29-6.23a35.43,35.43,0,0,1-4.13-2.77l-5.26,3.57L36,95.25A42.63,42.63,0,0,1,31.75,91l-.23-.27,3.57-5.26a35.43,35.43,0,0,1-2.77-4.13l-6.23,1.29-.16-.32a41.92,41.92,0,0,1-2.29-5.54l-.12-.35,5.32-3.49a35.4,35.4,0,0,1-1-4.88l-6.24-1.19,0-.36c-.08-1.14-.11-2.1-.11-3s0-1.86.11-3l0-.36L27.87,59a35.37,35.37,0,0,1,1.06-5.21l.9.25a34.51,34.51,0,0,0-1.07,5.41l0,.34-6.2,1.19c-.07,1-.09,1.79-.09,2.57s0,1.61.09,2.57l6.2,1.19,0,.34A34.51,34.51,0,0,0,29.83,73l.1.33-5.29,3.47a41.26,41.26,0,0,0,2,4.75l6.19-1.28.17.3A34.53,34.53,0,0,0,36,85.16l.21.27L32.7,90.66a41.68,41.68,0,0,0,3.64,3.64l5.23-3.55.27.21A33.28,33.28,0,0,0,46.42,94l.3.17-1.28,6.19a41.26,41.26,0,0,0,4.75,2l3.47-5.28.33.09a34.51,34.51,0,0,0,5.41,1.07l.34,0,1.19,6.2a33.92,33.92,0,0,0,5.14,0l1.19-6.2.34,0A34.51,34.51,0,0,0,73,97.17l.33-.09,3.47,5.28a41.26,41.26,0,0,0,4.75-2L80.28,94.2l.3-.17A33.28,33.28,0,0,0,85.16,91l.27-.21,5.23,3.55a41.68,41.68,0,0,0,3.64-3.64l-3.55-5.23.21-.27A34.53,34.53,0,0,0,94,80.58l.17-.3,6.19,1.28a41.26,41.26,0,0,0,2-4.75l-5.29-3.47.1-.33a34.51,34.51,0,0,0,1.07-5.41l0-.34,6.2-1.19c.07-1,.09-1.78.09-2.57s0-1.61-.09-2.57l-6.2-1.19,0-.34A34.51,34.51,0,0,0,97.17,54l.9-.25A35.37,35.37,0,0,1,99.13,59l6.24,1.19,0,.36c.08,1.14.11,2.1.11,3s0,1.86-.11,3l0,.36-6.24,1.19a35.11,35.11,0,0,1-1,4.88l5.32,3.49-.12.35a41.92,41.92,0,0,1-2.29,5.54l-.16.32-6.23-1.29a35.43,35.43,0,0,1-2.77,4.13l3.57,5.26-.23.27A42.63,42.63,0,0,1,91,95.25l-.27.23-5.26-3.57a35.43,35.43,0,0,1-4.13,2.77l1.29,6.23-.32.16a41.92,41.92,0,0,1-5.54,2.29l-.34.12-3.5-5.31a36.92,36.92,0,0,1-4.88,1l-1.19,6.24-.36,0C65.36,105.48,64.4,105.51,63.5,105.51Z" transform="translate(-0.5 -0.5)"/></svg>