<?xml version="1.0" encoding="utf-8"?>
<!-- Generator: Adobe Illustrator 22.0.1, SVG Export Plug-In . SVG Version: 6.00 Build 0)  -->
<svg version="1.1" xmlns="http://www.w3.org/2000/svg" xmlns:xlink="http://www.w3.org/1999/xlink" x="0px" y="0px"
	 viewBox="0 0 127 127" style="enable-background:new 0 0 127 127;" xml:space="preserve">
<style type="text/css">
	.st0{fill:#04B0C2;}
	.st1{fill:#F15A33;}
	.st2{fill:#FFFFFF;}
	.st3{fill:none;stroke:#FFFBF7;stroke-width:0.9106;stroke-miterlimit:10;}
	.st4{fill:#FFFBF7;}
	.st5{display:none;}
	.st6{display:inline;}
	.st7{fill:none;stroke:#F15A33;stroke-width:0.9232;stroke-miterlimit:10;}
	.st8{display:inline;fill:none;stroke:#F15A33;stroke-miterlimit:10;stroke-dasharray:8;}
	.st9{fill:none;stroke:#FFFBF7;stroke-width:1.2974;stroke-miterlimit:10;}
	.st10{fill:none;stroke:#FFFBF7;stroke-linejoin:round;stroke-miterlimit:10;}
	.st11{fill:none;stroke:#FFFBF7;stroke-miterlimit:10;}
</style>
<g id="Foundations_of_AI_r3">
	<circle class="st0" cx="63.5" cy="63.5" r="63"/>
	<g>
		<circle class="st1" cx="63.5" cy="63.5" r="47.2"/>
		<path class="st2" d="M63.5,111.2c-26.3,0-47.7-21.4-47.7-47.7s21.4-47.7,47.7-47.7s47.7,21.4,47.7,47.7S89.8,111.2,63.5,111.2z
			 M63.5,16.7c-25.8,0-46.8,21-46.8,46.8c0,25.8,21,46.8,46.8,46.8c25.8,0,46.8-21,46.8-46.8C110.3,37.7,89.3,16.7,63.5,16.7z"/>
	</g>
	<g>
		<circle class="st0" cx="63.5" cy="63.5" r="30.4"/>
		<circle class="st3" cx="63.5" cy="63.5" r="28.4"/>
	</g>
	<g>
		<path class="st4" d="M43.2,36.1l-1.8-1.2l-2.5,2l0.8,2l-1.6,1.2l-3-8.7L37,30l7.8,4.9L43.2,36.1z M40.2,33.9
			c-1.6-1.1-2.5-1.7-2.7-1.9c-0.2-0.1-0.4-0.3-0.5-0.4c0.2,0.5,0.7,1.7,1.4,3.6L40.2,33.9z"/>
		<path class="st4" d="M48.4,33.2L44.9,35l-0.5-0.9l0.7-0.9l-2.6-5l-1.2,0.1l-0.5-0.9l3.5-1.8l0.5,0.9l-0.7,0.9l2.6,5l1.2-0.1
			L48.4,33.2z"/>
		<path class="st4" d="M49.9,23.8c-0.2-0.6,0.1-0.9,0.7-1.1c0.6-0.2,1,0,1.2,0.6c0.1,0.3,0.1,0.5-0.1,0.7c-0.1,0.2-0.3,0.3-0.6,0.4
			C50.4,24.6,50,24.4,49.9,23.8z M54,31.3l-1.7,0.5l-1.8-6.4l1.7-0.5L54,31.3z"/>
		<path class="st4" d="M61.6,30.1l-1.8,0.2l-0.5-3.8c-0.1-0.5-0.2-0.8-0.4-1c-0.2-0.2-0.5-0.3-0.8-0.3c-0.5,0.1-0.8,0.3-1,0.6
			c-0.2,0.4-0.2,0.9-0.1,1.7l0.4,3.1l-1.8,0.2l-0.8-6.6l1.4-0.2l0.3,0.8l0.1,0c0.2-0.3,0.4-0.6,0.7-0.8c0.3-0.2,0.7-0.3,1.2-0.4
			c0.8-0.1,1.4,0,1.8,0.4c0.4,0.4,0.7,0.9,0.8,1.7L61.6,30.1z"/>
		<path class="st4" d="M69.5,25.5l2.3-3.3l2,0.3l-3.5,4.9l-0.4,3.3L68,30.4l0.4-3.3l-2.1-5.7l2,0.3L69.5,25.5z"/>
		<path class="st4" d="M79.6,29.9c-0.3,1-0.9,1.7-1.6,2.1c-0.7,0.4-1.6,0.4-2.5,0.1c-0.6-0.2-1.1-0.5-1.5-0.9
			c-0.4-0.4-0.6-0.9-0.7-1.5c-0.1-0.6,0-1.2,0.2-1.9c0.3-1,0.9-1.7,1.6-2.1c0.7-0.4,1.6-0.4,2.5-0.1c0.6,0.2,1.1,0.5,1.5,0.9
			s0.6,0.9,0.7,1.5C79.9,28.7,79.9,29.3,79.6,29.9z M75.3,28.5c-0.2,0.6-0.3,1.1-0.2,1.5c0.1,0.4,0.4,0.7,0.8,0.8
			c0.5,0.2,0.8,0.1,1.1-0.1c0.3-0.2,0.6-0.7,0.8-1.3c0.2-0.6,0.3-1.1,0.2-1.5c-0.1-0.4-0.4-0.6-0.8-0.8c-0.5-0.2-0.8-0.1-1.1,0.1
			C75.8,27.4,75.5,27.9,75.3,28.5z"/>
		<path class="st4" d="M83.6,36l0.2-0.9l-0.1,0c-0.3,0.2-0.7,0.2-1.1,0.2c-0.4,0-0.8-0.2-1.2-0.4c-0.7-0.4-1.1-0.9-1.2-1.4
			c-0.1-0.6,0-1.2,0.4-1.8l2.2-3.7l1.5,0.9l-2,3.3c-0.2,0.4-0.4,0.8-0.3,1.1c0,0.3,0.2,0.5,0.5,0.7c0.4,0.3,0.8,0.3,1.2,0.1
			c0.4-0.2,0.8-0.6,1.2-1.3l1.6-2.7l1.5,0.9l-3.4,5.7L83.6,36z"/>
		<path class="st4" d="M93.2,35.1c0.2,0.2,0.3,0.3,0.4,0.4l-1.2,1.2c-0.1-0.1-0.2-0.3-0.4-0.4c-0.4-0.4-0.9-0.6-1.3-0.6
			c-0.4,0-0.8,0.2-1.2,0.6l-2.3,2.5l-1.3-1.2l4.4-4.9l1,0.9l-0.5,1l0.1,0.1c0.4-0.1,0.8-0.2,1.2-0.1S92.9,34.9,93.2,35.1z"/>
	</g>
	<path class="st4" d="M30.1,77.2c-0.6-1.7-1.2-3.4-1.5-5.1l-6.3-0.6l-0.1-0.3c-0.2-1.1-0.3-2.1-0.4-3c-0.1-0.9-0.1-1.9-0.2-3l0-0.4
		l6.1-1.8c0.1-1.7,0.2-3.3,0.5-5l-5.6-3l0.1-0.3c0.5-1.9,1.1-3.9,1.8-5.7l0.1-0.3l6.3,0.7l2.6-5l0.8,0.4l-2.9,5.6l-6.3-0.7
		c-0.6,1.6-1.1,3.3-1.5,4.9l5.6,3l-0.1,0.3c-0.3,1.8-0.5,3.7-0.6,5.5l0,0.3l-6.1,1.8c0,1,0.1,1.8,0.1,2.6c0.1,0.8,0.2,1.6,0.3,2.6
		l6.3,0.6l0.1,0.3c0.4,1.8,0.9,3.6,1.6,5.3L30.1,77.2z"/>
	<path class="st4" d="M96.2,77.2L95.4,77l1.9-6l6.3-0.4c0.3-1.7,0.5-3.4,0.6-5.1l-6-1.9l0-0.3c0-1.8-0.1-3.7-0.4-5.5l-0.1-0.3
		l5.7-2.8c-0.2-0.9-0.4-1.8-0.6-2.5c-0.2-0.8-0.5-1.5-0.8-2.5L95.7,50l-0.1-0.3c-0.7-1.7-1.5-3.4-2.5-4.9l0.8-0.5
		c0.9,1.5,1.7,3.1,2.4,4.7l6.3-0.5l0.1,0.3c0.4,1.1,0.7,2,0.9,2.9c0.2,0.9,0.5,1.8,0.7,2.9l0.1,0.3l-5.7,2.8c0.2,1.6,0.4,3.3,0.4,5
		l6.1,1.9l0,0.3c-0.1,2-0.3,4-0.7,5.9l-0.1,0.3l-6.4,0.4L96.2,77.2z"/>
	<g id="cut_line_4_" class="st5">
		<g class="st6">
			<circle class="st7" cx="112.5" cy="121.9" r="3.5"/>
			<line class="st7" x1="120.2" y1="106.9" x2="115.8" y2="123.3"/>
		</g>
		<g class="st6">
			<circle class="st7" cx="122.5" cy="121.9" r="3.5"/>
			<line class="st7" x1="114.9" y1="106.9" x2="119.3" y2="123.3"/>
		</g>
		<path class="st8" d="M111.9,87.4c-8.8,17.8-27.2,30.1-48.4,30.1c-29.8,0-54-24.2-54-54s24.2-54,54-54s54,24.2,54,54v44.9"/>
	</g>
	<g>
		<path class="st4" d="M36.6,83.9c-0.4-0.7-0.9-1.1-1.6-1.2c-0.7-0.1-1.5,0.1-2.4,0.6c-1.9,1-2.5,2.2-1.7,3.6
			c0.3,0.6,0.8,1.2,1.6,1.9l-1.5,0.8c-0.7-0.5-1.2-1.3-1.7-2.1c-0.6-1.2-0.8-2.4-0.4-3.4c0.4-1,1.3-1.9,2.7-2.7
			c0.9-0.5,1.7-0.7,2.6-0.7c0.8,0,1.6,0.2,2.3,0.6c0.7,0.4,1.2,1,1.6,1.8c0.4,0.8,0.7,1.8,0.7,2.8L37,86.1c0-0.4,0-0.8-0.1-1.2
			C36.8,84.5,36.7,84.2,36.6,83.9z"/>
		<path class="st4" d="M39.8,95.1c-0.9,0.8-1.8,1.2-2.7,1.2c-0.9,0-1.8-0.4-2.5-1.3c-0.5-0.5-0.8-1.1-0.9-1.7
			c-0.1-0.6-0.1-1.2,0.1-1.8c0.2-0.6,0.6-1.2,1.2-1.7c0.9-0.8,1.8-1.2,2.7-1.2c0.9,0,1.8,0.4,2.5,1.3c0.5,0.5,0.8,1.1,0.9,1.7
			c0.1,0.6,0.1,1.2-0.1,1.8C40.8,94,40.4,94.5,39.8,95.1z M36.4,91.3c-0.5,0.5-0.9,0.9-1,1.4c-0.1,0.4,0,0.8,0.4,1.2
			c0.4,0.4,0.8,0.6,1.2,0.5s0.9-0.4,1.5-0.9c0.5-0.5,0.9-0.9,1-1.4c0.1-0.4,0-0.8-0.4-1.2c-0.4-0.4-0.8-0.6-1.2-0.5
			S36.9,90.8,36.4,91.3z"/>
		<path class="st4" d="M45.9,103.2l-1.8-0.9l2-3.8c0.2-0.5,0.3-0.9,0.3-1.2c0-0.3-0.2-0.6-0.6-0.7c-0.5-0.2-0.9-0.2-1.2,0
			c-0.4,0.2-0.8,0.7-1.2,1.5l-1.6,3.1l-1.8-0.9l3.3-6.5l1.4,0.7l-0.2,1l0.1,0.1c0.3-0.2,0.7-0.3,1.1-0.3c0.4,0,0.8,0.1,1.3,0.3
			c1,0.5,1.5,1.2,1.5,2l0.2,0.1c0.3-0.2,0.7-0.3,1.1-0.3c0.4,0,0.9,0.1,1.3,0.3c0.7,0.4,1.2,0.9,1.4,1.4s0.1,1.3-0.4,2.1l-2.2,4.3
			l-1.8-0.9l2-3.8c0.2-0.5,0.3-0.9,0.3-1.2s-0.2-0.6-0.6-0.7c-0.4-0.2-0.8-0.2-1.2,0c-0.4,0.2-0.7,0.6-1.1,1.3L45.9,103.2z"/>
		<path class="st4" d="M60.9,107l-2-0.2l0.3-4.3c0-0.5,0-0.9-0.2-1.2c-0.2-0.3-0.4-0.4-0.8-0.5c-0.5,0-0.9,0.1-1.2,0.5
			c-0.3,0.4-0.4,1-0.5,1.8l-0.3,3.4l-2-0.2l0.6-7.3l1.5,0.1l0.2,1l0.1,0c0.2-0.3,0.5-0.6,0.9-0.7c0.4-0.2,0.8-0.2,1.3-0.2
			c1.1,0.1,1.8,0.5,2.1,1.2l0.2,0c0.2-0.3,0.5-0.6,0.9-0.7c0.4-0.2,0.8-0.2,1.3-0.2c0.8,0.1,1.4,0.3,1.8,0.8s0.5,1.2,0.5,2.1
			l-0.4,4.8l-2-0.2l0.3-4.3c0-0.5,0-0.9-0.2-1.2c-0.2-0.3-0.4-0.4-0.8-0.5c-0.5,0-0.9,0.1-1.1,0.4s-0.4,0.9-0.5,1.6L60.9,107z"/>
		<path class="st4" d="M74.4,105.7l-0.5-0.9l-0.1,0c-0.1,0.4-0.4,0.7-0.7,1c-0.3,0.3-0.8,0.5-1.3,0.6c-0.8,0.2-1.5,0.1-2.1-0.3
			c-0.5-0.4-0.9-1-1.1-1.8l-1-4.7l2-0.4l0.9,4.2c0.1,0.5,0.3,0.9,0.5,1.1s0.6,0.3,1,0.2c0.5-0.1,0.9-0.4,1.1-0.8
			c0.2-0.4,0.2-1.1,0-1.9l-0.7-3.4l2-0.4l1.6,7.2L74.4,105.7z"/>
		<path class="st4" d="M85.5,100.8l-1.8,0.9l-2-3.8c-0.2-0.5-0.5-0.8-0.8-0.9c-0.3-0.1-0.6-0.1-1,0.1c-0.5,0.3-0.8,0.6-0.8,1.1
			s0.1,1.1,0.5,1.8l1.6,3l-1.8,0.9l-3.5-6.5l1.3-0.7l0.7,0.7l0.1-0.1c0-0.4,0.2-0.8,0.4-1.1s0.6-0.6,1-0.9c0.8-0.4,1.4-0.5,2-0.3
			c0.6,0.2,1.1,0.7,1.5,1.4L85.5,100.8z"/>
		<path class="st4" d="M82.1,91.8c-0.4-0.5-0.4-1,0.2-1.5c0.6-0.5,1-0.5,1.5,0c0.2,0.2,0.3,0.5,0.3,0.7s-0.2,0.5-0.5,0.7
			C83.1,92.3,82.6,92.3,82.1,91.8z M89.7,97.4l-1.5,1.3l-4.8-5.6l1.5-1.3L89.7,97.4z"/>
		<path class="st4" d="M92.8,92c0.2-0.3,0.4-0.6,0.6-1.1l1.1,1c-0.2,0.5-0.5,1.1-0.9,1.6c-0.5,0.6-1.1,0.9-1.6,0.9s-1.1-0.2-1.7-0.8
			l-2.7-2.3L87,92.1l-0.6-0.5l0.2-1.3l-0.8-1.4l0.8-1l1.2,1l1.3-1.6l1.1,1l-1.3,1.6l2.7,2.3c0.2,0.2,0.4,0.3,0.6,0.2
			C92.5,92.3,92.7,92.2,92.8,92z"/>
		<path class="st4" d="M89.4,87.1l1-1.9l4.3,0.8c0.4,0.1,0.8,0.2,1.2,0.4l0,0c-0.4-0.3-0.7-0.5-1-0.9l-3-3.2l1-1.9l5.8,6.7
			c0.5,0.6,0.8,1.2,0.9,1.9c0.1,0.6,0,1.3-0.4,1.9c-0.2,0.3-0.4,0.6-0.6,0.8L97.4,91c0.2-0.2,0.3-0.4,0.5-0.7c0.2-0.3,0.2-0.6,0.2-1
			s-0.3-0.7-0.6-1l-0.3-0.3L89.4,87.1z"/>
	</g>
	<g>
		<g>
			<g>
				<polygon class="st9" points="55.5,57.8 71.5,67.1 63.5,53.2 63.5,71.8 				"/>
			</g>
			<g>
				<polygon class="st9" points="55.5,67.1 71.5,57.8 55.5,57.8 71.5,67.1 				"/>
			</g>
			<g>
				<polygon class="st9" points="63.5,71.8 63.5,53.2 55.5,67.1 71.5,57.8 				"/>
			</g>
		</g>
		<polygon class="st10" points="71.5,57.8 74.7,44.2 63.5,53.2 52.3,44.2 55.5,57.8 41.2,63.5 55.5,67.1 52.3,82.8 63.5,71.8 
			74.7,82.8 71.5,67.1 85.8,63.5 		"/>
		<polygon class="st10" points="82.8,52.3 71.5,57.8 63.5,41.2 63.5,53.2 44.2,52.3 55.5,57.8 44.2,74.7 55.5,67.1 63.5,85.8 
			63.5,71.8 82.8,74.7 71.5,67.1 		"/>
		<line class="st11" x1="63.5" y1="41.2" x2="55.5" y2="57.8"/>
		<line class="st11" x1="44.2" y1="52.3" x2="55.5" y2="67.1"/>
		<line class="st11" x1="44.2" y1="74.7" x2="63.5" y2="71.8"/>
		<line class="st11" x1="63.5" y1="85.8" x2="71.5" y2="67.1"/>
		<line class="st10" x1="83.4" y1="74.7" x2="71.5" y2="57.8"/>
		<line class="st11" x1="82.8" y1="52.3" x2="63.5" y2="53.2"/>
	</g>
</g>
<g id="Layer_3">
	<g>
		<g>
			<circle class="st1" cx="63.5" cy="71.8" r="2.4"/>
			<circle class="st1" cx="63.5" cy="53.2" r="2.4"/>
		</g>
		<g>
			<circle class="st1" cx="71.5" cy="67.1" r="2.4"/>
			<circle class="st1" cx="55.5" cy="57.8" r="2.4"/>
		</g>
		<g>
			<circle class="st1" cx="71.5" cy="57.8" r="2.4"/>
			<circle class="st1" cx="55.5" cy="67.1" r="2.4"/>
		</g>
		<g>
			<circle class="st1" cx="63.5" cy="41.2" r="2.4"/>
			<circle class="st1" cx="63.5" cy="85.8" r="2.4"/>
		</g>
		<g>
			<circle class="st1" cx="44.2" cy="52.3" r="2.4"/>
			<circle class="st1" cx="82.8" cy="74.7" r="2.4"/>
		</g>
		<g>
			<circle class="st1" cx="44.2" cy="74.7" r="2.4"/>
			<circle class="st1" cx="82.8" cy="52.3" r="2.4"/>
		</g>
		<g>
			<circle class="st1" cx="52.3" cy="44.2" r="2.4"/>
			<circle class="st1" cx="74.7" cy="82.8" r="2.4"/>
		</g>
		<g>
			<circle class="st1" cx="41.2" cy="63.5" r="2.4"/>
			<circle class="st1" cx="85.8" cy="63.5" r="2.4"/>
		</g>
		<g>
			<circle class="st1" cx="52.3" cy="82.8" r="2.4"/>
			<circle class="st1" cx="74.7" cy="44.2" r="2.4"/>
		</g>
	</g>
</g>
<g id="Foundations_of_AI_r2">
</g>
</svg>
