<svg xmlns="http://www.w3.org/2000/svg" xmlns:xlink="http://www.w3.org/1999/xlink" viewBox="0 0 298.06 298.06"><defs><style>.cls-1{fill:url(#linear-gradient);}.cls-2{opacity:0.92;}.cls-3{fill:#fff;}.cls-4{fill:none;}</style><linearGradient id="linear-gradient" y1="149.03" x2="298.06" y2="149.03" gradientUnits="userSpaceOnUse"><stop offset="0" stop-color="#f05b32"/><stop offset="1" stop-color="#f05b5b"/></linearGradient></defs><title>Asset 7</title><g id="Layer_2" data-name="Layer 2"><g id="Layer_2-2" data-name="Layer 2"><circle class="cls-1" cx="149.03" cy="149.03" r="149.03"/><g class="cls-2"><path class="cls-3" d="M239.53,83.85c-62.88,19.86-82.88-23.7-83.69-25.53l-6.3-14.7-7.15,14.31a62.9,62.9,0,0,1-18.9,20.39c-17.67,12.14-39.5,14-64.86,5.56L48.16,80.39l.72,11C49.35,98.65,61.47,269,149,269S248.69,98.65,249.17,91.4l.7-10.82ZM218.9,174.08c-11.11,36.53-32.26,80.06-69.88,80.06S90.33,210.72,79.21,174.3C70.4,145.42,66.34,116.19,64.68,101a99.2,99.2,0,0,0,23.11,2.84c31.93,0,51.47-17.51,60.94-29.16,8.89,11.77,27.55,29.17,60.19,29.16a108.42,108.42,0,0,0,24.46-3C231.74,116,227.71,145.15,218.9,174.08Z"/><path class="cls-4" d="M239.53,83.85c-62.88,19.86-82.88-23.7-83.69-25.53l-6.3-14.7-7.15,14.31a62.9,62.9,0,0,1-18.9,20.39c-17.67,12.14-39.5,14-64.86,5.56L48.16,80.39l.72,11C49.35,98.65,61.47,269,149,269S248.69,98.65,249.17,91.4l.7-10.82ZM218.9,174.08c-11.11,36.53-32.26,80.06-69.88,80.06S90.33,210.72,79.21,174.3C70.4,145.42,66.34,116.19,64.68,101a99.2,99.2,0,0,0,23.11,2.84c31.93,0,51.47-17.51,60.94-29.16,8.89,11.77,27.55,29.17,60.19,29.16a108.42,108.42,0,0,0,24.46-3C231.74,116,227.71,145.15,218.9,174.08Z"/><path class="cls-3" d="M217.63,173.69c.08.34.5.29.66-.51l-.47-.75Z"/><path class="cls-3" d="M220.35,168.77c0-1-.3-2.23-1-1.79.36,1.08,0,1.23.49,2.42-.16.81-.61,1.31-.8,1.11.08.33-.5,1.18-.23,1.72A5.28,5.28,0,0,0,220,168.6C220.17,168.35,220.26,168.67,220.35,168.77Z"/><path class="cls-3" d="M222.67,102h.52A1.77,1.77,0,0,0,222.67,102Z"/><path class="cls-3" d="M175,95c.34.15.51.15.56.11C175.27,95,175,94.91,175,95Z"/><path class="cls-3" d="M168.24,90.26l.39.3A.84.84,0,0,0,168.24,90.26Z"/><path class="cls-3" d="M222.67,102l-1.33,0C221.28,102.15,222,102,222.67,102Z"/><path class="cls-3" d="M221.65,157.74a2.57,2.57,0,0,0,0,.73c0-.22.06-.44.1-.67Z"/><path class="cls-3" d="M233.49,112.09l-.05.4a2,2,0,0,0,.22.37Z"/><path class="cls-3" d="M231.05,128.73c.08-.37-.45-.6-.66-.78a1.26,1.26,0,0,1,.23.88A.66.66,0,0,0,231.05,128.73Z"/><path class="cls-3" d="M224.74,154.63l0,.48Z"/><path class="cls-3" d="M233.88,99.17a.13.13,0,0,0,0-.19C233.77,99.06,233.81,99.12,233.88,99.17Z"/><path class="cls-3" d="M210.11,191.49l.09,0C210.19,191.41,210.16,191.37,210.11,191.49Z"/><path class="cls-3" d="M219,174.12l0,.27a1.08,1.08,0,0,0,.28.15Z"/><path class="cls-3" d="M157.13,80.24l0,.05C157.5,80.52,157.33,80.37,157.13,80.24Z"/><path class="cls-3" d="M68.33,140c.18-1.68,1.15,2.45,1.22,0C69.38,140.27,68.26,138,68.33,140Z"/><path class="cls-3" d="M221.82,157.34c.05-.23.1-.45.16-.67A4.08,4.08,0,0,0,221.82,157.34Z"/><path class="cls-3" d="M69.55,140h0v0Z"/><path class="cls-3" d="M128.29,89.84a.86.86,0,0,0,.43,0S128.58,89.81,128.29,89.84Z"/><path class="cls-3" d="M149.48,73.08l-.61-.89C149.11,72.58,149.31,72.85,149.48,73.08Z"/><path class="cls-3" d="M116.75,96.72a2.21,2.21,0,0,0-.9.3H116A1.28,1.28,0,0,1,116.75,96.72Z"/><path class="cls-3" d="M103.31,100.75c.08,0,.19,0,.28.07l.43-.11Z"/><path class="cls-3" d="M189.89,229.15a2.12,2.12,0,0,1,.79-.2C190.24,228.87,191.38,227.15,189.89,229.15Z"/><path class="cls-3" d="M222,157.81a.55.55,0,0,1-.13-.47l-.08.46C221.81,157.86,221.88,157.89,222,157.81Z"/><path class="cls-3" d="M117.86,101l-2.23.79C116.26,101.64,117.07,101.35,117.86,101Z"/><path class="cls-3" d="M107,227.71l.36.36A1.12,1.12,0,0,0,107,227.71Z"/><path class="cls-3" d="M109,104a5,5,0,0,0-1.39-.06,1.14,1.14,0,0,0-.23.2Z"/><path class="cls-3" d="M190.69,229h0Z"/><path class="cls-3" d="M197.8,216c-1.08,1.82.12,1.23.25,1.84-1.16,2.28-1.08.72-1.86,1.25-.65,1.46-.79,2.82-1.46,3.8-.15,0-.31.18-.29-.13-.44,1.73-2.82,4.08-3.45,6.07a.68.68,0,0,1-.3.09,1.13,1.13,0,0,1,1,.38c-.56.78-.75,1.7-1.35,1.68.39-.45.27-.61.32-.92l-.48.91c-1.11.26.7-1.21.29-1.53-1,1.65-2.08,3.79-3.26,4.76-.71-.22,2.17-2.76.38-1.67.59-.5,1.13-1.06,1.69-1.6-1.95.68,1-1-1-.51a26.14,26.14,0,0,0-2,2.45,11.55,11.55,0,0,1-2.11,2.37c-.21.75.55.23.35,1a5.58,5.58,0,0,1-1.69,1.7,3.9,3.9,0,0,1-1.31.51,3.1,3.1,0,0,0-2.32,1.61c-.33.86,0,1.77-2.11,2.75l.15-1.07c-2.35,1.68-.68,1.9-3.5,3.18.29-.56,1.76-1.48,1.34-1.31-2,.57-.89,1.16-2.2,1.95l-.62-.42a45.33,45.33,0,0,1-8.59,4.83c.11-.25.59-.63-.23-.58a28,28,0,0,1-12.91,1.89l-1.56.64c-.36,0-.67-.29-.27-.39-1.59-.28-.09.37-.87.57-.92,0-1.19-.38-.61-.53a15.19,15.19,0,0,1-2.51.2,20.15,20.15,0,0,1-3-.1,19.78,19.78,0,0,1-3-.52,14.72,14.72,0,0,1-2.44-.92l.61,0a5.12,5.12,0,0,0-2.48-.32,2.91,2.91,0,0,1-2.27-.63l.42.07c-1.15-.56-2.36-1-3.51-1.66-.58-.3-1.18-.57-1.75-.87l-1.67-1a20.83,20.83,0,0,1-5.35-4.31c-1.14.23-3.63-3.52-4.63-2.91a16.69,16.69,0,0,1-1.46-2.33,32.56,32.56,0,0,0-2.07-2.93c-.69-.86-1.67-.7-2.64-1.69l.45-.42-1.69-1c0-.41,0-.81,0-1.22l-.9-.93c.28.43.44,1,.26,1.09a10.67,10.67,0,0,1-1.84-2.65c-.42-.91-.64-1.66-.52-1.77-1.08-1.17-2.08-2.41-3.11-3.64.27,0,.78.57,1.26,1-1.92-1.78.27-.73-1.46-2.38,0,.34-.4.05-.53.07a10.66,10.66,0,0,0-1.1-2.36c-.51-.92-1.12-1.9-1.68-2.7l.55.11c-1.65-3.12-3.77-6.45-5.47-10.06.45,1.37-.36,1.4-.94.38l.39-.71c-.69-.51.3,1.22-.81,0-.56-1.39.25-1.23.8-.54l-1-1.55c.13-.18.4.16.67.16-.69-.5-.69-3.11-1.76-3.81l.14-.17c-1.58-3.67-2.45-5.27-3.66-8.29-.54.14-.88-1.1-1.64-1.85-.68-2.32-1.15-5-2.12-7.7-.9-1.85-.64-.42-1.24-1.18.44-.31-.5-3,.31-1.73-1.14-3.28-1.43-4.19-3.07-8.3-.07.52,0,1.06-.25.84-.31-.75-.31-1.81,0-1.76l.11.18c-2.09-4.56-1.55-11.38-3.47-14.95l.11.2c-.51-1.27-1-2.56-1.47-3.85-.33-1.85.62,1,.62-.41a20.84,20.84,0,0,1-1.52-5.38,26.26,26.26,0,0,0-1.12-4.88c.9-3-2-9.78-1.63-13.69l-.32.28c-.5-.91,0-1.2,0-1.93-.25.15-.14,1.1-.43.53a93.24,93.24,0,0,1-1.69-11.89c-.18-2-.32-4.06-.45-6.09l-.09-1.53a.23.23,0,0,1,.07-.11s.1,0,.16,0l.06.07a1.42,1.42,0,0,1,0-.25,2.38,2.38,0,0,1,.22-.51.76.76,0,0,1,.19-.21c.06,0,.06-.05.17-.06a1.92,1.92,0,0,1,.34,0,7.09,7.09,0,0,1,2.09.57l-1.24.45c3.26.19,6.52.64,9.81.94a41.29,41.29,0,0,0,9.75,0c-.37.16-.38.36-1,.38,1.35.44,5-.15,5-.54,1,0,.25.34.88.48,1.38.14,3.31-1,4.08-.56.13.06-.36.19-.6.25.86-.25,4.08-.53,3.16-.94a20.54,20.54,0,0,0,3.38-.57,17.45,17.45,0,0,1,3-.64,6,6,0,0,1,2.44-.8c.89-.23,1.66-.47,1.72-.95,0,.46,1.11.32,2.32-.05a11.27,11.27,0,0,0,3.15-1.53c-.38.44,1.33-.22.92.35,1.63-.61,3-1.48,2.52-1.77a8.74,8.74,0,0,0,4.21-1.88c1.17-.84,2.19-1.54,3.32-1.38a113,113,0,0,0,11.15-9.21c.23.39-.69,1.27-1.65,2s-1.86,1.52-1.5,1.84c.81-.74,1.51-1.44,2.16-2.09l1.78-2,1.78-1.93c.62-.66,1.35-1.3,2.13-2s-.15.74-.33,1.1c.72-.82,1.42-1.63,2.15-2.39.37-.37.72-.76,1.06-1.15l1-1.09a6.49,6.49,0,0,0,.62-.77l.16-.23c.05,0,.1.08.16.11a4.17,4.17,0,0,0,.38.26c0,.08-.17.06-.27,0,.18.18.28.57.5.2l-.23-.13c0-.5.25-.63.83-.37a6.39,6.39,0,0,1,1,.63c.34.23.6.38.68.35-.85-.1-.32.68.18,1.38s.91,1.36-.34,1.11c.4.32,1,.65,1.09.37.45.6.5.89-.24.55,2,1.83,1.71.79,3.44,2.54-.14.14-.55-.15-.89-.17a12.79,12.79,0,0,1,3.8,2.66c-.17,0-.09.28-.56-.13a30,30,0,0,0,4.09,2.7,28.2,28.2,0,0,1,4.29,2.79c-1.45.11,1,1,.75,1.7.64.3,1.26.65,1.92.92q-.28-.36-.54-.75c1.59,1,3.29,1.23,4.56,2.21L172,96.61c1,.54,2.1,1,3.16,1.41l-1.65-1.08c1.85.44.25-.93,2.35.29a27.07,27.07,0,0,1,2.35,1.55h0a7.31,7.31,0,0,1,3.08.88c.25.35-.55.67-.39.9a2.65,2.65,0,0,1,1.1.1c.46.09,1,.23,1.52.38a7.21,7.21,0,0,0,2.8.43c-.4,0-.53.41-.43.52l.85-.26c.78.37.89.47.67.74,2.47.69-.55-1.11,2.29,0-.24,0-.15.08-.65,0,2.91,1,5.82.87,8.54,1.57.36.4-.26.42-.85.33s-1.18-.15-.76.25a21.11,21.11,0,0,0,3.09.19l3.14,0c2.08,0,4.14-.16,6.08,0l-.72-.11c.54-1,2.9.6,4.87,0-.48.09-.62.61-.49.49,2.69.07,5.47-.52,9.42-1.34l-.46.33a49.91,49.91,0,0,0,5.82-.59c.45-.34,1.41-.48.76-.76a12.89,12.89,0,0,0,1.63.06,9.58,9.58,0,0,0,1,0,8.52,8.52,0,0,0,1.86-.48,14.6,14.6,0,0,1,.09,2.59c0,.21-.05.61-.09.94s-.1.68-.17,1a10.27,10.27,0,0,1-.61,2c.07-.55-.07-1.33-.12-.9L230.8,112c.5-.25.34-.47.81-1.24a6.26,6.26,0,0,1,.14,2.61c-.07-1.79-.74-.09-1.1.63.16-.11.28.17.43.13-1.1,1.91.87.47-.08,3.15l-.21-.18a15.32,15.32,0,0,1-.1,3.16c-.6.38-.07-1.14-.5-1.28-.21,1.57.53,3.24-.22,4.57,0-.68.1-1.64.06-2.33a6.87,6.87,0,0,0-1,2.77l0-.11-.72,2.59.28-.64c1.06,2.19-.43,4,0,6.79-.4-2.7-.42-.51-1-.81-.28.64-.66,1.62-.78,1.3.25,1.33-.76,2-.38,3.87-.21,0-.28,1.31-.71.94-.17,1.63.41-.31.62-.13.17,2.61-1.95,5.64-1.82,9.37-.33,3.13.21,3.84-.15,6.75-.54.88-.51-1-.51-1a12.19,12.19,0,0,0-1,4.14c-.09-.33-.3-.06-.62.33-.24,1.17.49.94-.18,2.4a4,4,0,0,1-.46-1.35c-.18,1.41-.17,2.84-.37,4.3-.42.29-.28-1-.36-1.54-.25,1.63-.81,4.18-.42,4.81l.47-1c-.14.58-.53.17-.51-.28,0-1.46.72-1.9.92-1.93l-.15,1c1.4-.73.87-4.09,1.46-6.09l.59,1.05-.15-2.25c.32-.39.84-.59.72.45.75-1.37,0-1.37.77-2.51.11-.13.13-.05.13.08l.11-1.48c.1.32.62-.11.3.74,1.08-2.46.33-4.28,1.18-5.11V149c.52-3.63-.51-.47-.64-3.3l1.86-1.5-.52-.47c.1-.37.3-1.09.51-.91-.12-1.46-.31.18-.53-.69.9-1.67.72-5,1.75-5.18-.33-.73-.67,1.64-.63-.33,1.13-.34.23-2.23,1-3.77.44.59-.13,2.09.65.54-.71-1.14.76-3.15.83-4.56-.69-.19.21-3.06.35-5.42.22.19,1.09-4.3,1.65-6.43l.12.08c-.67-.53-.21-2.74-.14-4.39.43.13.56.44.63,1.35l.21-1.53a3.86,3.86,0,0,1-.19-1.89l.49.46c.12-1,.09-2.08.12-3.19a18.81,18.81,0,0,1,.5-4.09c-.26,0-.7.75-1.07,1s-.65,0-.7-1.07c.3-.22.83-.62.85.16a3.59,3.59,0,0,1,.05-1.4,8,8,0,0,1,.35,1c.39-1.59-.33-.55-.16-1.64.43-.31.41-1.1.74-1.26,0,.29-.3,1.21-.18,1.56.13-.85.38-1.93.58-2.83a2.1,2.1,0,0,1-.94-.12c-.06.25-.49.66-1.53.94-1.32.3-1.51.22-1.57.09s.05-.34-.84-.26a2.71,2.71,0,0,1-.72.27l-.73.2c-.38.11-.69.24-.65.53a1.17,1.17,0,0,1-1-.26c-1,.46-4.82.84-3.56,1.29h.27l-.17,0h0c-3.35,1.08-7.16.53-10.55.92v-.2c-2,.33-4.54.23-6,.57-.6,0-1.41-.4-1.14-.63-.79,0-1.22.12-1.75.14a7.12,7.12,0,0,1-.89,0c-.36-.06-.79-.15-1.34-.29,1.58-.19-.51-.34,1.61-.11-2-.34-2.4-.72-4.62-.39.79-.44-1.42-.76-2.37-.82.44.19.88.41,1.33.59a22.12,22.12,0,0,1-2.92-.51l.61-.57a10.73,10.73,0,0,0-2.84-.64c-.92-.14-1.81-.21-2.68-.27a15.06,15.06,0,0,1-2.5-.35,5.72,5.72,0,0,1-2.14-1.15c-1.17.11,2,1,.94,1.21a21.2,21.2,0,0,1-3.87-2.38,4.06,4.06,0,0,0-2.44-.62,3.91,3.91,0,0,1-2.54-.66c.21.37.26,1.09-1.69.42-1.71-.9-1.68-1.89-.51-1.55.41.17.58.33.53.4.59.18,1.35.43.79-.12l-.33.11c-.36-.32-1.15-.71-1.72-1.11s-1-.71-.6-.73c-1.34-.49-.71,0,.15.66a18.78,18.78,0,0,0-2.63-1.63,20.43,20.43,0,0,1-2.63-1.72c.26.32.42.75.09.53-1.48-1.08-1.86-1.23-2.15-1.25s-.51.1-1.56-.59c-.93-1.12.91-.39-1.27-1.62-1-1.15.13-.7.72-.48A8.6,8.6,0,0,1,162,85.22c-.64-.68-1.07-1.41-1.53-1.86l1,.64A10.79,10.79,0,0,1,160,82.84l.18.8c-.46-.52-.9-.91-.75-1-.74-.25-.14,1-1.47.29-.5-.83-2.23-1.81-2-2.49,1.93,2.22.22-.66,2.05,1a5.94,5.94,0,0,1-1.24-1.23c0-.12.16,0,.32.09-1.51-2.39-1.4-.42-3.35-2.58.5,0,.07-1-.29-1.26.75.89-.09.82-1,.17a14.9,14.9,0,0,0-1.84-2.27,8.68,8.68,0,0,1-1.18-1.22l1,1.49c-.25,0-.56-.3-1-.72l-.65-.74-.09-.1s0-.05-.05,0l-.05.06-.19.26-.41.54c-.07-.13.19-.51.42-.83l.16-.22c0-.06.09-.15.11-.09s0,0,0,0l0-.07s0-.06-.06,0a8.27,8.27,0,0,1-2.3,2.67l-1.49,1.34a4.82,4.82,0,0,0-1,1.13c-.81.53-.54-.38-1.22.1-1.26,1.92-2,1.42-3.49,3.29.83-.12.84-.29-.07,1.2.87-1,1.77-1.93,2.59-3-.42.77-.85,1.52-1.32,2.26.89-.79,1.58-2,2.14-2.41-.57,1.13-.57,1,.11.83-1.62.67-2,2.55-3.74,3.49l-.75-.92a13.07,13.07,0,0,0-3,2.63,16.1,16.1,0,0,1-3.54,3l1.09-.5c-.13.66-1.82,1.34-2.68,2.18-.13-.4-.81-.08-1.38,0,.21.22-2.26,1.37-2.14,2.23-.55.14-1.11.25-1.67.36a6.74,6.74,0,0,0-2.54,1.9,6.62,6.62,0,0,1-2.55,1.78c.6-.75-.69-.46.9-1.54-.86.4-1.65.69-1.56.94a4.67,4.67,0,0,0-1.42.79A3.83,3.83,0,0,1,116,97c-.3.31-.28.74-1.29,1.1-.13,0-.06-.19-.06-.19.07.19-1.47.86-.45.93a16.11,16.11,0,0,0-5.44,1.15c-1.94.5-3.82,1.09-5.18.8a51.61,51.61,0,0,1-6.32,1.27c.1-.13,0-.2.34-.2-2.62-.11-1.48,1.33-4.48,1.16-1.56-.56,1.55-.42.59-.61-.49-1.26-3.56.3-5.57-.38l.48-.1c-1.5-.37-3.69.5-6.18.27,0,0,.13-.11,0-.19-1.74.56-5,.49-7.41.33.81-.4,1.12-.13.74-.7-1.08-.06.2.87-2,.71-.65-.38-2.15-.87-2.25-1.45l2,.3c-.9-.86-2.58-.4-3.6-.72l.19-.29-1.06-.15c-.39-.06-.74-.1-1.06-.13-.62,0-1.17-.1-1.65-.11a19,19,0,0,1-3-.26c0,.47.15,1.12.21,1.8l.21-.23c.56,1.5.48,1.77.39,2.2a3.15,3.15,0,0,0,.24,2.06,9.17,9.17,0,0,1-.71.69c.33,1.19,1.28,4.15,1.73,6.29-.76-1.15-1.38-3.65-1.92-5.18.14,1.2.57,4.08,1,4.65a4.26,4.26,0,0,1-.35-1.55A15.81,15.81,0,0,1,66,116c-1.59-.21.53,6.27-.35,8.18,1.24,4.12,1.17,8.4,2.19,13.28.84-2,.3,1.43,1.45.89a4.65,4.65,0,0,1,.32,1.67l0,3.59c-.18.89-.5-1-.74-.87.43,2.51-.29,1.15-.26,2.87.36-.43.8.73.94,2.19l.13-2.12c1.36,3.34-.35,3.22,1.06,6.58l-.62-1c.6,1.75,1.55,6.62,2.94,8.13-.06.35-.27.84-.56.08.94,4.31,3.49,9.19,3.9,12.63l-.38-.24c.32.76.94,1.21,1,2.28-.14,0-.38-.23-.29.14a10.73,10.73,0,0,1,1.29,3l-.6-.79c.91,4.23,2.8,6,4.18,9.35-.83.28,0,3.57.5,5.2l-.13,0c1.68,4.74,3.79,7.68,6,11.77.3,3,3.78,9,5.62,13.33-.21-.71.65-.23,1.13.45.39,1,2,2.29,1.26,2.55l-.19-.34c-.28,1.12,1.1,2.93,2,4.44l1-.33a13.29,13.29,0,0,0,1.66,3.54,37.75,37.75,0,0,0,2.55,3.34c1.78,2.12,3.53,3.9,3.81,5.32,1,.66,1.87,1.7,2.81,2.34l-.46.34a39.86,39.86,0,0,0,6.14,5.95l-.87-.21c1.67,1.46,3.14.54,4.75,1.69l0,1c3.05,2.21,6.08,4.88,9.88,5.77-.11.09-.32.28-.89,0,.8.42,2.39,1.2,3.74,1.75s2.51.69,2.37,0c-.09.36.84.73,2.09.9.62.1,1.3.19,2,.26s1.31,0,1.83.06l-.42.49A13,13,0,0,1,144,255c.55.13.45.5-.29.27,1.87.51,1.51-.33,3.79,0l-.88.33a4.12,4.12,0,0,0,2.88-.5c1.21-.26,3.68,0,4,.44a3.39,3.39,0,0,1,2.41-.84c.18.17-.22.33-.43.41a12.13,12.13,0,0,0,3.87-.78,8.63,8.63,0,0,1,3.07-.78.49.49,0,0,0,.47.22l-3.22.81a6.24,6.24,0,0,1-1.2.18c.09.51,2.23.2.7,1.21,1.64-.73,4.22-2.31,6.22-2.79a.84.84,0,0,1,.32.08l-.18.12a3.21,3.21,0,0,0,1.2-.53,14.42,14.42,0,0,0,1.65-.52c.19.14.79,0,1.44-.33l1.84-.95c-.33-.46.94-1-.43-.83.17,0-.15.15-.76.48-.13.09-.3.18-.38.25l.05-.07a22.12,22.12,0,0,1-2.37,1.1,5.31,5.31,0,0,1,2.51-1.37c.32-.57.67-1.16.88-1.46a10.35,10.35,0,0,0,2.79-.46,6.94,6.94,0,0,1,2-.37c2.58-1.95,6-4.64,6.82-6.73.58-.7,1-.47,1.32-.58a13.88,13.88,0,0,0-.89,1.14c.59-.69,1.54-1.64,2.33-2.49s1.35-1.69,1.24-2.09c1.81-1.39-.39,1.39,1.68-.93l-.12.46a17.48,17.48,0,0,0,5-6.37,25.83,25.83,0,0,1,4.93-7c-.33.34-.5.51-.65.52a57,57,0,0,0,6.1-10c1.8-3.5,3.48-7,5.53-10.23,1.09-1.86.74-2.27.94-3.61l.74-.18c.08-.78.17-1.55.23-2.33.74-3.11,3.47-4.53,4-8.64l-.56.34c.59-1.31,1.32-4.36,1.68-4a1.05,1.05,0,0,1,.15-1l.31.06.63-3.51c1.07-2.54,1.06.8,2.36-3,.33-1.46.38-4.32,0-3.85-.19.57-.64,1.4-1,1.35l.25-1.34c-.82-.51-1.43-1.77-3,1.19l-.15,2.36-.66.57.57-1.85a3.24,3.24,0,0,0-.59,2.51,1.48,1.48,0,0,0-.77.76l.12,2.42c-.44.14-.36-1.19-1,.17.05,1.13,1.1-.69.79,1-.76.9-1,.48-1.07,1.82-.29.09-.34-.22-.27-.74-.12,1.18-.9,2.9-.66,3.63-.88.89-1.24,3.67-2,3.24a9.56,9.56,0,0,1-.45,3.13c-.24-2.18-1.57,3.61-2.41,2.7a7.39,7.39,0,0,1-.79,3.38,29.36,29.36,0,0,0-1.48,4,1.11,1.11,0,0,1,.11-.65,11.59,11.59,0,0,1-1.68,2.22c.64.51-.18,2.57-.31,3.84-1.47,1.2-.34-1.36-1.23-1.2.6.21-.82,3-.09,2.68-1.05.94-.75.89-1.64,1.18.74.67-.43,1.17-.47,2.41-1.38,1.41-1,0-1.83,1.93C197.17,217.81,197.8,216,197.8,216Zm-34.08,34.13h0l.95-.35Zm-4,1.18c.49-.1,1.1-.26,1.74-.43.2.15.1.38-.31.48C161.38,251.21,160.4,251.35,159.76,251.34Zm9.88.66c-.62.37-.89.34-1,.28a10.49,10.49,0,0,0,1.1-.56s0-.07.05-.1A.82.82,0,0,1,169.64,252Z"/><path class="cls-3" d="M170.45,250.77a1.24,1.24,0,0,1,.24-.16,3,3,0,0,0-.43.07l-.14.27Z"/><path class="cls-3" d="M223.28,102h-.09a.53.53,0,0,1,.19,0C223.32,102,223.32,102,223.28,102Z"/><polygon class="cls-3" points="110.06 231.15 109.96 231.25 110.28 231.44 110.06 231.15"/><path class="cls-3" d="M230.65,114a.63.63,0,0,0-.18.28S230.57,114.14,230.65,114Z"/><path class="cls-3" d="M229,124l-.43,1.38A12.29,12.29,0,0,0,229,124Z"/><path class="cls-3" d="M227.43,131.61a.68.68,0,0,0,.21.19h0Z"/><path class="cls-3" d="M148.94,78.43a.1.1,0,0,0-.07,0C148.72,78.37,148.81,78.42,148.94,78.43Z"/><path class="cls-3" d="M178.17,98.78a6.3,6.3,0,0,1-1.21-.23C177.54,98.89,178,99.05,178.17,98.78Z"/><path class="cls-3" d="M118.11,101s0,0,0,0l-.25.09Z"/><path class="cls-3" d="M175.39,97.8a5.44,5.44,0,0,0,1.57.75A8.38,8.38,0,0,0,175.39,97.8Z"/><path class="cls-3" d="M219.84,164.42l-.12.36s.06,0,.08.06Z"/><path class="cls-3" d="M219.8,164.84l-.05.42A.76.76,0,0,0,219.8,164.84Z"/><path class="cls-3" d="M219.66,166.14l.09-.88A1.45,1.45,0,0,0,219.66,166.14Z"/><path class="cls-3" d="M222.64,154.52l-.17-.16A.25.25,0,0,0,222.64,154.52Z"/><path class="cls-3" d="M223.3,151.47a15.38,15.38,0,0,0-1,2.76l.14.13C222.28,153.81,223.49,152.24,223.3,151.47Z"/><path class="cls-3" d="M228.5,139.19l-.67,2.55c.3-.41.71-1,.52.24C229.64,138.85,227.74,142.56,228.5,139.19Z"/><path class="cls-3" d="M230.32,131.2c-.14,1.42.32,0,.42.14C230.71,130.42,230.69,130.19,230.32,131.2Z"/><path class="cls-3" d="M205.1,102.46l.16-.51C204.19,102,205.24,102.15,205.1,102.46Z"/><polygon class="cls-3" points="193.61 103.84 194.62 104.34 195.2 103.97 193.61 103.84"/><path class="cls-3" d="M188,98.86l.47,0c-.59-.07-1.17-.18-1.75-.3C187.11,98.68,187.53,98.81,188,98.86Z"/><path class="cls-3" d="M105.64,99.72l.46.54C106.77,100,106.75,99.26,105.64,99.72Z"/><path class="cls-3" d="M63.15,100.51a5.63,5.63,0,0,0,.18,3.42C63.21,102.47,63.32,101.27,63.15,100.51Z"/><polygon class="cls-3" points="99.25 225.12 98.58 224.5 99.64 225.79 99.25 225.12"/><path class="cls-3" d="M239.13,82.58c-.3.27,0,.58,1,.2l.5-.85Z"/><path class="cls-3" d="M246.13,81.65A20.38,20.38,0,0,0,248,80.38c.57-.45,1-.89.59-1.08a22.26,22.26,0,0,1-2,1.16,6.42,6.42,0,0,0-1.58,1.14c-1,.39-1.78.34-1.68.06-.3.27-1.57.34-2,.9a6.69,6.69,0,0,0,2.26-.29,12.24,12.24,0,0,0,2.51-1.1C246.61,81.19,246.2,81.5,246.13,81.65Z"/><path class="cls-3" d="M233.06,175.53l.26-.6A3.84,3.84,0,0,0,233.06,175.53Z"/><path class="cls-3" d="M207.7,231.88c.24-.4.3-.6.26-.65C207.76,231.61,207.59,231.94,207.7,231.88Z"/><path class="cls-3" d="M200.86,239.88l.43-.45A1.2,1.2,0,0,0,200.86,239.88Z"/><path class="cls-3" d="M233.06,175.53l-.68,1.53C232.56,177.24,232.78,176.29,233.06,175.53Z"/><path class="cls-3" d="M250.92,90.63a4.72,4.72,0,0,0-.11-.91v.85A.33.33,0,0,1,250.92,90.63Z"/><path class="cls-3" d="M239.28,148.84l.1-.49a2.64,2.64,0,0,0-.17-.47Z"/><path class="cls-3" d="M243.1,128.17c-.09.46.43.72.64.94a1.93,1.93,0,0,1-.21-1.09C243.43,128,243.29,128,243.1,128.17Z"/><path class="cls-3" d="M248.3,95.19l0-.6Z"/><path class="cls-3" d="M235.71,163.45a.45.45,0,0,0-.24.14C235.53,163.61,235.62,163.55,235.71,163.45Z"/><path class="cls-3" d="M215.4,86.08s0,.07,0,.1S215.56,86.07,215.4,86.08Z"/><path class="cls-3" d="M239.57,84l-.31.13a.85.85,0,0,0,0,.32Z"/><path class="cls-3" d="M187,252.74l.08,0C187.38,252.34,187.17,252.52,187,252.74Z"/><path class="cls-3" d="M66.16,174.56c.08,2.07-1.54-3-1.23.1C65.06,174.33,66.57,177.05,66.16,174.56Z"/><path class="cls-3" d="M250.81,91.17c0,.29,0,.58-.05.87A5,5,0,0,0,250.81,91.17Z"/><path class="cls-3" d="M64.93,174.66h0l0,.32Z"/><path class="cls-3" d="M147.09,266.52a1.38,1.38,0,0,0,.44.26C147.51,266.72,147.41,266.65,147.09,266.52Z"/><path class="cls-3" d="M178.38,259.84l-.74.34A6.72,6.72,0,0,0,178.38,259.84Z"/><path class="cls-3" d="M130.44,264.52a4.12,4.12,0,0,0-1.1-.44.67.67,0,0,0,.15.13A1.91,1.91,0,0,1,130.44,264.52Z"/><path class="cls-3" d="M114.67,256.78l.21.27.49.28Z"/><path class="cls-3" d="M167,70a2.51,2.51,0,0,1,.2.93C167.33,70.47,169.23,72.15,167,70Z"/><path class="cls-3" d="M250.61,90.62a.7.7,0,0,1,.2.55v-.6C250.74,90.51,250.67,90.5,250.61,90.62Z"/><path class="cls-3" d="M128.36,268.49l-2.8-1.09C126.33,267.73,127.35,268.13,128.36,268.49Z"/><path class="cls-3" d="M73,85.3l.65,0A1.87,1.87,0,0,0,73,85.3Z"/><path class="cls-3" d="M117.48,263.69a8.38,8.38,0,0,0-1.27-1.18,1.81,1.81,0,0,0-.38-.05Z"/><path class="cls-3" d="M167.23,70.94h0Z"/><path class="cls-3" d="M182.68,80.23c-2.32-1.14-1.42.11-2.11.25-2.86-1.34-1-1.18-1.75-2-1.75-.82-3.39-1.06-4.56-1.94,0-.17-.23-.37.13-.3A13.35,13.35,0,0,1,170.91,74c-.61-.51-1.24-1-1.83-1.48a10.67,10.67,0,0,0-1.75-1.17.74.74,0,0,1-.1-.36,1,1,0,0,1-.45,1c-.85-.85-1.91-1.29-1.86-2,.49.55.69.45,1,.6-.33-.26-.69-.5-1-.77-.12-.66.21-.38.62,0s.93.88,1.11.7c-1.86-1.56-4.16-3.39-5.11-5,.15-.36.85.48,1.41,1.1s.95,1,.39-.13c.54.79,1.08,1.59,1.67,2.36-.65-2.34,1.1,1.34.62-.92-1.16-1.45-1.86-2.21-2.56-3a16.55,16.55,0,0,1-2.32-3.17c-.77-.5-.33.54-1.09,0-1.7-2.1-1.79-3.3-1.76-4.17a4.62,4.62,0,0,0-1.15-3.46c-.83-.79-1.78-.83-2.5-3.68l1.09.61a8.49,8.49,0,0,0-.91-1.78l-.09-.14-.13-.2L154,48.6l-.43-.56a7.64,7.64,0,0,1-.82-1.3,28,28,0,0,1-1.21-3.11c.57.55,2,4.12,1.73,3.16-.64-2.27-1.06-3-1.38-3.27a3.25,3.25,0,0,1-1.22-1.72c0-.62-.06-1.28-.1-1.95L149.71,38c-1.43,3-2.85,6.2-4.18,9.16l-.92,2.06L144,50.59c-.39.92-.8,1.85-1.23,2.76-.07-.31.08-1.09-.57-.25-.55,1.28-1.19,2.66-1.81,3.9a30.53,30.53,0,0,1-2.3,3.51,48.68,48.68,0,0,1-5.58,6.18c-.31.61-.6,1.25-.93,1.86-.34.32-.8.42-.53,0-1.58,1.29.19.33-.34,1.2-.8.85-1.35.81-.93.19A36.89,36.89,0,0,1,125,75a28.82,28.82,0,0,1-3.09,2.28,22.3,22.3,0,0,1-2.93,1.55c.19-.16.36-.36.54-.54a7.82,7.82,0,0,0-2.5,1.93,6.41,6.41,0,0,1-1,.89,5.56,5.56,0,0,1-1.59.65l.43-.32c-.74.31-1.49.64-2.24,1l-2.31.9c-1.52.65-3.11,1.09-4.63,1.6s-3.07.77-4.51,1a24.52,24.52,0,0,1-4.07.26c-.4.47-2,.58-3.53.68s-3,.1-3.19.7A30.38,30.38,0,0,1,87,86.9c-.43-.1-.89-.15-1.58-.27s-1.58-.27-2.86-.44-2.12.53-3.86.48l0-.62c-.8.13-1.61.26-2.41.33l-1.12-.93-1.61-.11c.62.14,1.3.5,1.17.66a12.38,12.38,0,0,1-2-.3,20,20,0,0,1-1.93-.61c-1.17-.44-2-.89-2-1-2-.33-3.95-.63-5.91-1.05.19-.21,1.17,0,2,.06-3.25-.27-.38-.77-3.34-1.07.33.25-.31.28-.42.38a36.07,36.07,0,0,0-6.93-2.5l.59-.25-1.57-.54-2.67-.89-5.47-1.77q.3,3.89.63,7.94L45.93,87l.15,2.19c.08-1.84.85-1.47,1,0l-.61.64c.47.94.15-1.57.77.37,0,1.91-.66,1.33-.94.25l.38,2.31c-.18.16-.32-.39-.58-.51.46.93-.34,4.09.49,5.4l-.18.15c.48,5.12,1,7.4,1.5,11.55.57,0,.64,1.64,1.25,2.82.21,3.06.24,6.49.83,10.14.68,2.52.59.67,1.1,1.78-.48.26.15,3.9-.52,2.07a112.71,112.71,0,0,0,2.42,11c.1-.63.06-1.32.3-1,.27,1,.21,2.32-.06,2.22l-.1-.26c1.89,6,1.41,14.55,3.62,19.21l-.11-.26q.85,2.46,1.76,4.92c.49,2.34-.72-1.3-.6.5,2.21,5.22,2.13,8.61,4,12.91-.22,1.92.72,5,1.83,8.12s2.41,6.4,2.77,8.85l.24-.38c.76,1.06.33,1.49.57,2.39.22-.22-.17-1.39.28-.73,4,9.8,7.65,20.55,12.75,30.33,1.93,3.53,2.67,1.07,4.58,5.81l-1.31-.88c2.43,3.26,4.73,6.7,7.19,10a58.47,58.47,0,0,0,8.06,9.2c-.44-.24-.59-.11-1.13-.68a12,12,0,0,0,2.5,2.82c1,.88,2,1.52,2.16,1.39.86.9,0,.46.38,1.14,1.09,1.35,3.58,2.39,4,3.29.07.16-.48-.18-.74-.35a27.31,27.31,0,0,1,2.32,1.71c.81.62,1.48,1,1.21.46,2.27,2,4.85,3.12,6.77,4.6a10.87,10.87,0,0,1,2.92,1.41c1,.56,1.94,1,2.35.74-.63.79,4.57,2.85,6.54,3-.7,0,1.48.83.65.94,2.12.64,4.11,1,3.85.46a9.63,9.63,0,0,0,2.85,1c.49.1,1,.19,1.44.24l1.4.09a18.38,18.38,0,0,1,2.5.25,4.22,4.22,0,0,1,1.95.7,78.5,78.5,0,0,0,18.17-1.76c0,.46-1.61.73-3.14,1s-3,.36-2.86.83a47.48,47.48,0,0,0,7-1.66c1-.34,2.07-.66,3.18-.95s2.27-.71,3.59-1c.69-.16.53,0,.15.23s-1,.51-1.22.65c5.18-1.92,10.09-3.68,14.08-6.58,0,.08-.38.42-.78.73.83-.51,2-1,1.71-1.31l-.75.57c-.82.12-.14-.61.7-1.44a15.17,15.17,0,0,0,1.82-2c-.36.91.7.36,1.63-.18s1.81-1,1.19.38c.47-.43,1-1.06.72-1.19.8-.49,1.14-.54.56.27a9.77,9.77,0,0,0,2-2,9.38,9.38,0,0,1,1.8-1.79c.12.16-.29.63-.4,1,.49-.64.94-1.33,1.54-2a24.58,24.58,0,0,1,2.34-2.29c0,.2.3.1-.27.64.8-.8,1.5-1.57,2.15-2.34l1.79-2.36c.62-.77,1.18-1.6,1.84-2.41s1.4-1.65,2.23-2.55c-.24,1.67,1.26-1.12,2-.86.5-.73.94-1.5,1.42-2.24l-.92.63a27.3,27.3,0,0,0,1.77-2.78,14,14,0,0,1,1.69-2.52l-.72,1.58c.79-1.2,1.57-2.41,2.3-3.65-.53.62-1,1.27-1.58,1.87,1-2.14-.91-.31.93-2.74-.27.56,1.27-1.9,2.24-2.7h0a12.83,12.83,0,0,1,1.79-3.59c.42-.26.54.73.82.56a10.19,10.19,0,0,1,1.27-3.06,11.26,11.26,0,0,0,1.28-3.29c-.08.49.25.69.39.6V218.5c.63-.87.77-1,1-.68,1.53-2.81-1.31.48.78-2.72a4.91,4.91,0,0,1-.18.78c1.89-3.32,2.89-6.76,4.5-9.86,1.11-.65-1.05,2.88,0,2,1.93-4.69,3.22-10,5.06-14.49l-.39.83c-.76-1,1.75-3.23,2.07-5.73-.12.6.3.94.24.75,1.27-3.1,1.95-6.56,3.11-11.48l.08.68c.8-1.81,1.61-4.92,2.3-6.93-.08-.68.27-1.84-.3-1.24,3.24-5.91,2.35-12.26,4.88-17.61-.15.67-.13,1.66,0,1.12l.82-4.88c-.53.29-.41.58-1,1.51a9.71,9.71,0,0,1,.21-3.27c-.17,2.24.73.14,1.17-.75-.17.13-.25-.22-.41-.17,1.32-2.37-.82-.61.42-3.95l.2.23a28.65,28.65,0,0,1,.38-3.95c.64-.48,0,1.42.4,1.6.35-2-.26-4.06.58-5.74,0,.86-.22,2.06-.23,2.92a9.79,9.79,0,0,0,1.21-3.5l0,.14.87-3.28-.32.82c-1-2.7.6-5.06.21-8.53.35,3.36.41.61,1,1,.3-.82.68-2.09.8-1.7-.26-1.64.77-2.57.38-4.9.2-.07.25-1.69.69-1.26.12-2.08-.4.44-.63.23-.22-3.25,1.8-7.34,1.39-12,0-4-.53-4.77-.52-8.45.42-1.21.61,1.07.61,1.07a17.6,17.6,0,0,0,.45-5.37c.14.4.32,0,.57-.55.05-1.51-.64-1.05-.22-3a5.58,5.58,0,0,1,.68,1.56c0-.89-.11-1.78-.19-2.68l-.11-1.36,0-.34V84.9l0-.85c.19-.35.3,0,.38.52,0,.28.07.61.1.92s.08.46.12.62v-.68c0-.34,0-.69,0-1V82.27a14.86,14.86,0,0,0-.19-3,5.7,5.7,0,0,0-.9.54l.55-.09-.18,1c0-.83.53-1.08.59-.43a6.63,6.63,0,0,1-.13,2.58,2.33,2.33,0,0,1-.49,1.06l0-1.5a4.93,4.93,0,0,0-.57,1.79,11.74,11.74,0,0,0,0,2.07,32.59,32.59,0,0,1,.18,4.45l-.76-1.15.51,2.75c-.26.56-.75.91-.78-.39-.55,1.85.17,1.69-.42,3.27-.09.17-.12.09-.14-.08l.08,1.86c-.14-.38-.61.25-.39-.87-.77,3.25.11,5.38-.65,6.55l0-.28c-.22,4.6.57.51.89,4l-1.77,2.13.56.52c-.08.47-.24,1.39-.46,1.19.19,1.8.3-.26.56.8-.83,2.2-.57,6.28-1.61,6.65.34.88.66-2.11.64.35-1.13.54-.23,2.82-1,4.81-.43-.72.14-2.62-.64-.63.71,1.38-.82,4-.94,5.73.71.2-.32,3.82-.61,6.76-.2-.22-1.4,5.39-2.2,8l-.1-.1c.61.66-.08,3.41-.37,5.46-.41-.18-.5-.57-.47-1.7l-.4,1.89a5.77,5.77,0,0,1,0,2.35l-.43-.59c-.53,2.52-.51,5.2-1.64,8.34.46.31,2-2.24,1.51,1.26-.3.06-.79.08-.68-.84a5.19,5.19,0,0,1-.29,1.66l-.12-1.48c-.56,1.42.19.86-.14,2-.38-.12-.49.8-.75.55a6.83,6.83,0,0,0,.37-1.47,10.9,10.9,0,0,1-1.45,3.29c.25,0,.51.14.31,1.11-.62,2.5-.67.74-1.26,2.13.11.68-.6,2.18,0,2.38a1.7,1.7,0,0,1-.73,1c-.11,1.35-1.64,6-.63,4.73l.14-.32,0,.22h0c-.67,4.37-3,8.58-4.13,12.76l-.18-.07c-.62,2.52-1.8,5.46-2,7.35-.27.71-1,1.55-1.09,1.16a15.78,15.78,0,0,1-1.81,4.72c.43-2-.54.52.53-2-1.14,2.31-1.6,2.74-2.2,5.47-.1-1.06-1.33,1.52-1.7,2.69.36-.49.7-1,1-1.5a30.78,30.78,0,0,1-1.55,3.45l-.33-.88c-2.89,4.39-2.81,9.14-5.93,12-.25,1.44,1.64-2.33,1.53-1-1.21,2.09-3.28,3.79-3.66,4.43a6.92,6.92,0,0,0-1.35,2.91,6.88,6.88,0,0,1-1.41,3c.44-.24,1.21-.26,0,2-1.39,2-2.5,1.88-1.78.54.3-.49.51-.68.57-.61.35-.7.82-1.61.09-1l0,.4c-.83.88-2.73,3.56-2.59,2.71-.85,1.61-.13.86.74-.17-1,1.17-1.71,2.14-2.43,3.1a27.21,27.21,0,0,1-2.51,3.12c.41-.31.92-.5.6-.11-1.56,1.72-1.8,2.17-1.89,2.52s0,.59-1,1.81c-1.46,1.09-.18-1-2.11,1.49-1.5,1.23-.73-.14-.36-.82-1.6,2.42-3.93,3.59-5.16,4.63.34-.37.64-.78,1-1.17a11.57,11.57,0,0,1-1.65,1.69l.95-.22c-.71.52-1.27,1-1.38.85-.48.84,1,.13,0,1.66-1,.59-2.64,2.47-3.33,2.24,3-2.15-.71-.25,1.65-2.28a10.4,10.4,0,0,1-1.72,1.38c-.15,0,0-.18.17-.36-1.52.89-1.77,1.2-2,1.67s-.35,1-1.86,2c.19-.55-1.08-.11-1.53.28,1.22-.79.91.11-.08,1.08-2.12,1-2.09,1.46-3.16,2.07l1.28-.59a2.49,2.49,0,0,1-.9.87,19.26,19.26,0,0,1-1.79,1.09c-.26-.18,1.25-.83.66-.68a6.39,6.39,0,0,1-2.75,1.34,11.37,11.37,0,0,0-3.37,1.26c-1.18.21-.35-.57-1.36-.37a7.7,7.7,0,0,1-2.77,1,8.82,8.82,0,0,0-2.94.76c.93.21,1.07.1-.85,1.06.79-.21,1.55-.54,2.32-.8s1.54-.53,2.27-.88c-.9.59-1.85,1-2.8,1.58.72-.21,1.45-.5,2.11-.75a16,16,0,0,1,1.66-.67c-1.29.88-1.19.72-.39.85a7.86,7.86,0,0,0-3,.79c-.49.21-1,.44-1.51.61a6.64,6.64,0,0,1-1.7.26l-.19-1.17c-3.47.25-6,1.75-10.61,1.7.49.05,1,.13,1.48.15-.59.52-2.83.16-4.31.4.14-.39-.78-.57-1.4-.83.06.3-3.32-.12-3.79.56l-2-.7a11.54,11.54,0,0,0-4-.12,9.83,9.83,0,0,1-3.87-.3c1.15-.18-.35-.8,2-.59-1.15-.26-2.17-.55-2.25-.31a6.65,6.65,0,0,0-2-.44,4.86,4.86,0,0,1-2.23-.67,3.31,3.31,0,0,1-2.08-.15c-.11-.13.08-.19.08-.19s-.56,0-.94-.07-.65,0-.19.41a12.82,12.82,0,0,0-2.76-1.75c-1-.56-2.18-1.14-3.32-1.67s-2.2-1.2-3.15-1.79a10.69,10.69,0,0,1-2.25-1.95c-1.14-.63-2.3-1.48-3.48-2.25s-2.23-1.66-3.17-2.39c.19,0,.13-.15.46.17a4.19,4.19,0,0,0-2.29-1.49,4.31,4.31,0,0,1-2.48-1.82c-.92-1.79,1.67,1.14,1,.13.26-.65-.57-1.4-1.63-2.27a11.54,11.54,0,0,1-2.85-3.13l.47.39c-1-1.69-3.46-3.15-5.34-5.68,0,0,.19,0,.17-.11a21,21,0,0,1-3.16-3c-1.09-1.28-2.21-2.67-3.13-3.89.94.52,1,1,1.1.23-.81-1.09-.47.8-2.08-1.4-.27-.88-1.11-2.67-.76-3.19.45.72.91,1.44,1.39,2.14-.13-1.46-1.77-2.79-2.37-4h.35c-2-3.32-2.79-3-4.74-6.72v.5c-1.79-1.67-.51-1.92-2.08-3.71l.39-1a77.61,77.61,0,0,1-4.27-6.91,18.66,18.66,0,0,1,2,2.62c.71,1,1.41,2.13,2,2.95-.33-.68-.89-1.83-1.47-2.87a9.47,9.47,0,0,0-1.45-2.29,6.43,6.43,0,0,1,1,1.74,21.19,21.19,0,0,1-3.78-6.32c.8,0,.13-1.89-.68-4s-1.74-4.63-1.56-5.86c-2.38-4.78-3.31-10-5.2-15.89-.51,2.45-.56-1.72-1.62-1a7,7,0,0,1-.59-2l-.5-4.42c.06-1.09.63,1.25.86,1.05-.77-3.07.14-1.42-.1-3.52-.3.53-.9-.89-1.19-2.67l.11,2.59c-1.77-4.11,0-3.94-1.7-8.1l.71,1.27c-.79-2.15-2-8.18-3.39-10.16.05-.43.26-1,.56-.06-1-5.35-3.5-11.7-3.65-16L57,135c-.26-1-.86-1.65-.79-3,.13,0,.37.35.3-.12a15.57,15.57,0,0,1-1-3.94l.52,1.08c-.49-5.32-2.1-8-2.93-12.37.86-.11.58-4.3.47-6.4l.13.06c-.65-6.16-2-10.38-2.78-16.08a31.88,31.88,0,0,0,.16-6.13c-.05-1.06-.1-2.17-.15-3.3a7.9,7.9,0,0,1,0-.87,2.91,2.91,0,0,1,.8.5c-.11-.2-.16-.78.6-.62,1.22.6,3.74.61,3.28,1.3L55.16,85a4.9,4.9,0,0,0,2.23,1.36c1,.39,2.28.72,3.33,1.06l.66-.9c2.53,1.59,6.28,2.41,9.71,2.94s6.56.78,8.08,1.61c.71-.06,1.5,0,2.29,0s1.58,0,2.28-.13l-.1.56a46.6,46.6,0,0,0,5,.27h1.23l1.32-.08c.93-.07,2-.13,3.18-.25-.32.18-.64.31-1,.47a5.45,5.45,0,0,0,3-1.12,7.54,7.54,0,0,1,2.75-1.25l.88.7c4.67-.83,9.66-1.5,13.74-4.09,0,.15-.06.42-.77.74,1.08-.35,3.1-1.22,4.74-2s2.76-1.7,2.11-2c.45.67,4.32-2.44,6.15-4.27v.69c.68-.93,1-1.43,1.4-2a24.06,24.06,0,0,1,2-2.14c.58-.41.76-.07-.05.45,2-1.34,1.05-1.6,3.34-3.35l-.53,1a6.21,6.21,0,0,0,2.14-2.92c.89-1.26,3.18-3.33,3.78-3.32a5.31,5.31,0,0,1,1.46-2.8c.27,0,0,.45-.06.69a16.72,16.72,0,0,0,2.72-4.11c.31-.61.58-1.2.9-1.77a11.24,11.24,0,0,1,1.07-1.72.56.56,0,0,0,.5-.27l-.52,1-.25.49-.15.28-.14.25c-.36.63-.69,1.16-1,1.61a10.36,10.36,0,0,1-.86,1.24c.42.3,2-1.93,1.39.26.43-1,1-2.43,1.46-4a17.14,17.14,0,0,1,1.65-3.87,1.1,1.1,0,0,1,.31-.22l-.07.26a6.19,6.19,0,0,0,.63-1.45,18.65,18.65,0,0,0,1.07-1.78.45.45,0,0,0,.21-.14s.09-.1.11-.11l.06,0a.6.6,0,0,0,.16-.19c.08-.15.16-.4.23-.52a2.84,2.84,0,0,1-.09-1c0-.23,0-.45-.25-.46.06,0,0,.21-.21.61a1.92,1.92,0,0,0-.08.3v-.09l-.29.63-.56,1.15c.05-.25.1-.51.17-.77s0-.34.1-.52a1.59,1.59,0,0,1,.55-.83,11.75,11.75,0,0,1,.17-2.36,3.74,3.74,0,0,1,.89,0,9.36,9.36,0,0,1,.28,2.94,4,4,0,0,1,.51.73l.15.25.35.72.72,1.44a18,18,0,0,0,2.92,4.5c.57,1,.21,1.27.26,1.78a13.81,13.81,0,0,0-.93-1.55c.29.5.55,1.06.95,1.8s.77,1.37,1.16,2c.81,1.25,1.61,2.23,2.07,2.25,1.31,2.56-1.48-1,.85,2.23l-.5-.3a21.75,21.75,0,0,0,6.87,7.67,77.53,77.53,0,0,1,8.46,6.84c-.43-.42-.65-.62-.68-.79a42,42,0,0,0,13.16,6.87A147.75,147.75,0,0,0,200.36,90a9.1,9.1,0,0,0,4.72-.24l.56.62,2.86-.6a21.89,21.89,0,0,1,5.62.24,14.34,14.34,0,0,0,6.4-.56l-.7-.31c.91-.09,2.33-.33,3.49-.52s2.05-.36,1.94-.1a1.55,1.55,0,0,1,1.25-.45l.12.3c.71-.23,1.43-.44,2.14-.7l2.11-.78c1.7-.29,1.65,0,1.78.31s.18.25.59.27a8,8,0,0,0,2.33-.43c1.8-.64,4.9-2.38,4.15-2.38-.73.2-1.91.35-2.05.06l1.59-.63c0-1,1-2.24-3.18-1.72l-2.6,1.35c-.33,0-.67-.14-1-.21.78-.18,1.55-.44,2.32-.67a4,4,0,0,0-1.72.34,11.78,11.78,0,0,0-1.32.69,2.11,2.11,0,0,0-1.29-.2l-2.53,1.52c-.41-.29,1.07-1-.81-.79-1.2.65,1.41.57-.68,1.24-1.43-.16-1.09-.58-2.61.08-.26-.2,0-.41.65-.63-1.35.59-3.69.73-4.36,1.31a12,12,0,0,0-2.93.13c-1,.07-1.82.08-1.78-.37a11.83,11.83,0,0,1-3.75,1c2.34-1.11-4.89.07-4.24-1.16-1.77.92-6.32.18-9.43.12a1.52,1.52,0,0,1,.81-.06,12.92,12.92,0,0,1-3.21-1.1c-.37.71-3.08.36-4.62.37-1.86-1.31,1.5-.54,1-1.42,0,.32-1,.22-1.81.14s-1.62-.25-1.37.14c-1.39-1-1.26-.68-1.82-1.56-.63.85-1.46-.4-2.94-.36-2-1.38-.17-1.07-2.62-1.9C180.49,79.55,182.68,80.23,182.68,80.23ZM143,53.44h0l.56-1.2Zm-2.4,4.7c.16-.26.37-.6.51-.86l.55-1.1c.26-.08.35.19.1.67,0-.16-.16,0-.39.34S140.83,57.84,140.56,58.14Zm8.16-7.49c0,.25-.15.23-.28.23.05-.13.09-.25.16-.46l0-.09C148.62,50.44,148.68,50.56,148.72,50.65Z"/><path class="cls-3" d="M148.51,49.41c0-.07,0-.13.06-.21a.48.48,0,0,0-.18.08l0,.34Z"/><path class="cls-3" d="M233.36,174.83l0,.1a.86.86,0,0,1,.14-.2C233.42,174.79,233.4,174.79,233.36,174.83Z"/><polygon class="cls-3" points="78.75 85.91 78.73 86.05 79.2 85.98 78.75 85.91"/><path class="cls-3" d="M242.37,146.58a.73.73,0,0,0,.22-.35A1.14,1.14,0,0,0,242.37,146.58Z"/><path class="cls-3" d="M244.92,134l.52-1.75C245.19,133,245,133.58,244.92,134Z"/><path class="cls-3" d="M246.82,124.35a.6.6,0,0,0-.21-.23v0Z"/><path class="cls-3" d="M180.8,262.79c-.11.07-.23.14-.32.21C179.73,263.56,180.25,263.21,180.8,262.79Z"/><path class="cls-3" d="M212.5,228.35c-.17.47-.34.94-.56,1.42C212.41,229.08,212.76,228.53,212.5,228.35Z"/><path class="cls-3" d="M128.67,268.61h0l-.31-.11Z"/><path class="cls-3" d="M210.74,231.59a8,8,0,0,0,1.2-1.82A14.67,14.67,0,0,0,210.74,231.59Z"/><path class="cls-3" d="M251.67,80l.07-.75s-.07,0-.09,0Z"/><path class="cls-3" d="M251.65,79.25l0-.71C251.61,78.9,251.59,79.21,251.65,79.25Z"/><path class="cls-3" d="M250.15,78.94l1.47-.59v.19l0-.22A6.41,6.41,0,0,0,250.15,78.94Z"/><path class="cls-3" d="M250.4,94.88l.19.17A.24.24,0,0,0,250.4,94.88Z"/><path class="cls-3" d="M250.11,98.84a21.24,21.24,0,0,0,.63-3.66l-.15-.13C250.85,95.7,249.85,97.92,250.11,98.84Z"/><path class="cls-3" d="M245.69,115l.6-3.25c-.29.54-.68,1.26-.54-.24C244.57,115.51,246.35,110.67,245.69,115Z"/><path class="cls-3" d="M243.9,125.05c.17-1.77-.32,0-.42-.15C243.49,126.05,243.5,126.32,243.9,125.05Z"/><path class="cls-3" d="M225.57,196.56l-.42-.35C224.73,197.5,225.33,196.29,225.57,196.56Z"/><polygon class="cls-3" points="222.49 210.66 223.34 209.57 223.17 208.79 222.49 210.66"/><path class="cls-3" d="M215.55,216.57l.2-.56c-.29.7-.56,1.41-.87,2.09C215.11,217.6,215.33,217.09,215.55,216.57Z"/><path class="cls-3" d="M117.57,258.06l0,.74C118.44,259.15,119,258.63,117.57,258.06Z"/><path class="cls-3" d="M82.86,219a5,5,0,0,0-1.21-2.76A27.26,27.26,0,0,0,82.86,219Z"/><polygon class="cls-3" points="63.79 88.04 62.66 87.96 64.73 88.32 63.79 88.04"/><polygon class="cls-3" points="209.3 133.76 196.14 120.6 141.03 175.71 119.52 154.2 106.36 167.36 141.19 202.19 154.35 189.03 154.19 188.87 209.3 133.76"/><path class="cls-3" d="M210.24,134.7c0-.23-.35-.45-.59-.09l.25.68Z"/><path class="cls-3" d="M207.36,135.84c-.12.58-.13,1.39.53,1.59-.1-.8.17-.7,0-1.61.24-.35.67-.37.79-.15,0-.22.57-.36.44-.81a1.56,1.56,0,0,0-1.48,1.32C207.44,136.18,207.42,136,207.36,135.84Z"/><path class="cls-3" d="M177.39,164.35l.25-.13A.67.67,0,0,0,177.39,164.35Z"/><path class="cls-3" d="M159,182.22c.12-.15.13-.26.1-.31C159,182.07,158.94,182.21,159,182.22Z"/><path class="cls-3" d="M155.41,184.79l.21-.15C155.51,184.67,155.41,184.71,155.41,184.79Z"/><path class="cls-3" d="M177.39,164.35l-.63.34C176.88,164.88,177.12,164.56,177.39,164.35Z"/><path class="cls-3" d="M204.46,141a.93.93,0,0,0,.14-.38,3,3,0,0,1-.2.29Z"/><path class="cls-3" d="M185,156l.15-.15a2,2,0,0,0-.07-.31Z"/><path class="cls-3" d="M191.06,149.79c-.16.12.19.56.31.79a.62.62,0,0,1,0-.57A1,1,0,0,0,191.06,149.79Z"/><path class="cls-3" d="M201.47,140.77l.12-.23Z"/><path class="cls-3" d="M180.53,160.29a.56.56,0,0,0-.2-.09A.34.34,0,0,0,180.53,160.29Z"/><path class="cls-3" d="M204.06,124.78l-.07.08C204.07,124.85,204.11,124.83,204.06,124.78Z"/><path class="cls-3" d="M209.2,133.86l-.12-.08-.25.2Z"/><path class="cls-3" d="M149.56,189.94h0C149.7,189.73,149.62,189.83,149.56,189.94Z"/><path class="cls-3" d="M114.84,162.17c-.94.24.51-1.41-.78-.92C114.3,161.32,113.88,162.68,114.84,162.17Z"/><path class="cls-3" d="M204.25,141.11a3.07,3.07,0,0,1-.25.26A1.15,1.15,0,0,0,204.25,141.11Z"/><path class="cls-3" d="M114.06,161.25h0l-.13.05Z"/><path class="cls-3" d="M140.16,197.76a.51.51,0,0,0,0,.3A.48.48,0,0,0,140.16,197.76Z"/><path class="cls-3" d="M147,194.08l-.29.18A1.22,1.22,0,0,0,147,194.08Z"/><path class="cls-3" d="M134.55,193.27c-.1-.16-.09-.26-.32-.38a.33.33,0,0,0,0,.1C134.35,193,134.46,193.06,134.55,193.27Z"/><path class="cls-3" d="M129.3,188a1.09,1.09,0,0,0,0,.18l.19.14Z"/><path class="cls-3" d="M184.56,128.83a1.6,1.6,0,0,1,.6.12C184.8,128.74,185.47,127.87,184.56,128.83Z"/><path class="cls-3" d="M204.23,140.78a.31.31,0,0,1,0,.33l.15-.2C204.36,140.84,204.31,140.78,204.23,140.78Z"/><path class="cls-3" d="M131.2,196.19l-.78-.89A7.52,7.52,0,0,0,131.2,196.19Z"/><path class="cls-3" d="M146.94,166.56l.15-.24A.35.35,0,0,0,146.94,166.56Z"/><path class="cls-3" d="M127.89,192.88a1.72,1.72,0,0,0-.2-.74.61.61,0,0,0-.19,0Z"/><path class="cls-3" d="M185.17,129h0Z"/><path class="cls-3" d="M189.72,122.51c-.81.78.14.88.27,1.35-.8,1.1-.83.06-1.42.11-.45.73-.43,1.67-.89,2.09-.12,0-.23,0-.24-.21-.21,1-1.84,1.88-2.05,3.13a.45.45,0,0,1-.22,0,2,2,0,0,1,.83.6c-.35.37-.34,1-.81.79.23-.21.11-.37.1-.58l-.22.53c-.83-.16.34-.68,0-1-.57.89-1,2.15-1.71,2.56-.6-.36,1.14-1.46,0-1.14l1.05-.68c-1.42-.1.57-.48-.84-.68-1.28,1-1,1.52-2.3,2.51,0,.52.48.31.49.83-1.13,2.09-2.48.06-3,1.89,0,.62.5,1.35-.67,1.87l-.25-.83c-1.15,1.05.15,1.41-1.37,2.2,0-.42.69-1.05.46-1-1.18.32-.22.84-.8,1.41l-.6-.36c-1.09,1.25-2,2.89-3.24,4.27-.07-.21,0-.59-.45-.43a23.26,23.26,0,0,1-5.42,4.73l-.19,1c-.14.14-.44.08-.37-.16-.77.46.23.3.1.76-.32.38-.7.22-.61-.12-.73,1.43-2.33,3.84-3.92,4.54l.1-.34c-1.06.72-.15,1.85-1.36,2.29l.08-.23c-2.11,1.75-3.87,4.27-6,5.12.32.87-2.18,1.64-1.47,2.6-1.52.69-1.35.23-3.18,1.5-.45.38-.1,1.14-.52,1.74l-.45-.42-.24,1.15-.89-.15-.37.59c.21-.16.6-.21.7,0-.56.95-2.14,1.53-2.38,1.32L144,169.74c-.14-.22.1-.57.22-.92-.5,1.39-.63-.29-1.09,1,.22,0,.2.32.26.43a3.14,3.14,0,0,0-1.18.75c-.2.18-.41.39-.6.6s-.07.08-.07.1l0,.05,0,.11a3.61,3.61,0,0,0-.22-.39c-.1,0-.14.13-.23.3a.9.9,0,0,1-.19,0l-.12-.07-.06,0-.11-.1c.06.1,0,.11,0,.15l-.07.13a1.16,1.16,0,0,1-.18.27c-.16.15-.28.31-.51.13l.29-.63c-.57,0,.28.63-.65.4-.5-.61.15-.9.62-.73l-.83-.51c.1-.18.33-.09.54-.23-.56,0-.69-1.62-1.59-1.52l.1-.18c-1.48-1.48-2.31-2-3.53-3.18-.43.38-.81-.18-1.49-.22a22.61,22.61,0,0,0-2.53-3.34c-1-.56-.56.11-1.13,0,.31-.41-.79-1.45,0-1.15A25,25,0,0,0,126,158c0,.32.16.58-.07.6-.35-.23-.52-.82-.3-.95l.11,0a7.15,7.15,0,0,1-2.35-2.57,36,36,0,0,0-3.88-4.67,10.31,10.31,0,0,0-1.36,1.77l.13-.2c-.84,1.09-1.58,2.1-2.25,3a1.73,1.73,0,0,1-.25.2.12.12,0,0,1-.1,0s0-.13,0-.24.26-.65-.29-.33c-1,2.23-2.64,2.48-3.58,4.21-1,0-1.94.92-2.84,1.95-.45.51-.89,1.05-1.36,1.51a10.19,10.19,0,0,1-1.82,1.35l.44.07c-.35.84-1,.67-1.56,1.15.36,0,1-.57.81-.08-.76.85-1.53,1.67-2.36,2.51,1.13,1.12,2.2,2.24,3.3,3.44l.42.45.16.18.11.13.46.55.9,1.1c1.19,1.49,2.35,3,3.58,4.42,1.08,1.22,2-.65,2.79,1.39l-.87.06c2.87,1.75,4.7,4.74,7.44,6.53-.25,0-.39.11-.61-.11.14.81,1.75,1.78,2,1.51.32.38-.17.33-.1.69.28.68,1.64.77,1.56,1.36,0,.1-.25,0-.36-.08.47.14,1.41,1.49,1.5.8.66,1,1.8,1.45,2.24,2.36.88,0,1.25,1.66,2,1.18-.7.58,1,2,1.81,2.24-.38,0,.26.67-.22.73.62.6,1.3,1,1.53.61.36,1.89,2.88,1.65,2.53,3.27l1.22.84.59.42.15.11.23.19.45.38,3.2,2.68,1.83-2.07c.16.62-1,1.66-1.83,2.58-.52-.47-1-.76-1-.26.36.3.7.56,1,.76,1.13-1.41,1.94-2.56,2.71-3.57l.59-.74.47-.58a7.62,7.62,0,0,1,.95-.92c.48-.31.05.51,0,.75,1.29-1.81,3.06-2.94,4.09-4.67,0,.07,0,.28-.12.47.25-.29.72-.54.4-.8l-.18.34c-.86,0,.2-2,0-2.23.37,1.3,1.58-1.15,1.89.63.13-.23.21-.59,0-.74.32-.21.52-.18.47.31.82-1.14.16-1.1,1.05-2,.14.14,0,.37.09.63a3.07,3.07,0,0,1,1.21-2.07c0,.13.24.15,0,.37a5.37,5.37,0,0,0,.65-.83l1.06-1.61-1.06-.68-.2-.13V190a8.42,8.42,0,0,1,2.35-3c.2,1,.68-.28,1.28.17l.6-.91-.56.05c.67-.66.87-1.62,1.61-2l-.27.71,1.14-1.34-.9.5c.39-.94-.74-.6.28-1.33-.12.23.67-.66,1.33-.69h0a2.07,2.07,0,0,1,.94-1.36c.29,0,.48.68.67.71-.11-.76,1.43-1.67,1.37-2.55a.63.63,0,0,0,.35.54l-.09-.63c.42-.19.52-.18.69.09,1-.85-1-.37.42-1.18-.05.12,0,.13-.08.36,1.25-1,1.89-2.35,3.08-3.18.83.23-.75,1,0,1.12,1.36-1.56,2.38-3.66,3.91-4.94l-.32.2c-.56-.94,1.42-.68,1.78-1.74-.12.23.19.64.15.51,1.08-.84,1.79-2.16,3-3.85l0,.37a25.3,25.3,0,0,0,2.3-1.93c0-.37.37-.69-.13-.76,3-.8,3-4.2,5.63-5-.2.21-.32.65-.15.49l1.25-1.61c-.44-.21-.39,0-.94,0a2,2,0,0,1,.6-1.29c-.43.86.53.52,1,.43-.15-.06-.17-.26-.29-.34,1.33-.17-.53-.78.88-1.41l.12.22c.29-.47.42-1.05.88-1.41.55.21-.23.58.05.92.56-.6.43-1.86,1.33-2-.14.35-.49.7-.63,1.05a2,2,0,0,0,1.46-.66l-.05,0,1.18-.78-.37.13c-.26-1.71,1.29-1.66,1.62-3.28-.33,1.56.2.51.55,1,.37-.13.89-.38.9-.15.11-.8,1-.49,1.19-1.65.16.11.5-.48.74,0,.5-.71-.38-.1-.5-.32.45-1.4,2.74-1.6,3.43-3.58.88-1.41.62-2.09,1.46-3.38.58-.14.21.79.21.79a3.22,3.22,0,0,0,1.56-1.55c0,.23.23.22.55.21.4-.48-.21-.8.57-1.17a2.49,2.49,0,0,1,.12,1c.39-.65.64-1.41,1.05-2.07.38.1,0,.69,0,1,.49-.71,1.34-1.77,1.15-2.34l-.53.25c.21-.24.44.21.35.45a.68.68,0,0,1-1,.5l.29-.47c-1.2-.42-1.4,1.66-2.21,2.38l-.27-.91-.3,1.27c-.32,0-.76-.2-.47-.66-.84.25-.28.69-1.07.84-.11,0-.11,0-.09-.12l-.36.71c0-.23-.5-.33-.09-.57-1.3.62-1.11,2-1.92,1.91l.05-.12c-1.14,1.54.3.56-.2,2.07l-1.74-.39.3.57c-.15.12-.45.36-.58.13-.21.81.28.11.26.68-1.06.27-1.65,2-2.48,1.48.09.56.88-.38.4.55-.94-.53-.69,1-1.63,1.22-.2-.57.58-.94-.37-.68.28,1-1.32,1-1.71,1.68.49.53-.9,1.32-1.58,2.35-.12-.23-1.9,1.33-2.89,1.95l-.06-.11c.37.67-.56,1.4-1.05,2.1a.83.83,0,0,1-.11-1l-.56.57a1.38,1.38,0,0,1-.37,1l-.24-.53c-.73.77-1.06,2-2.28,2.67.31.42,1.78.24,1,1.51-.24-.16-.61-.46-.42-.81-.06.12-.15.48-.41.57l.08-.74c-.59.3,0,.51-.34.83-.27-.29-.46.06-.63-.21.06-.12.42-.19.45-.44a2.5,2.5,0,0,1-1.46.61.44.44,0,0,1,.12.7c-.73.77-.6-.08-1.18.22,0,.37-.66.65-.26,1.08-.22.22-.46.06-.65,0-.21.58-1.76,1.87-.88,1.88l.13-.07a.56.56,0,0,0-.05.08h0c-.86,1.69-2.88,2.41-4,3.85l-.14-.14c-.6.91-1.58,1.77-1.82,2.61-.23.22-.78.27-.85,0-.48.68-.38.9-1.45,1.5.34-.82-.41,0,.42-.77-.87.63-1.26.57-1.69,1.76-.08-.63-1,.11-1.26.57l.78-.26a7.1,7.1,0,0,1-1.11,1.09l-.28-.66c-2.11,1-1.79,3.73-3.92,3.94-.07.74,1.07-.6,1.09.15-.77.64-2.18.7-2.4.92-1.22.7-.21,1.59-1.4,2.42.3,0,.87.36.27,1.28-.77.64-1.57.16-1.26-.42.15-.18.29-.21.34-.15.17-.29.39-.66-.07-.56l.08.26c-.52.18-1.48,1.17-1.52.66-.38.7,0,.51.53.2-1.15.66-1.42,1.4-2.52,2.17.24,0,.58,0,.43.15-1.58,1.16-.29.92-1.14,1.92-.78.27-.42-.8-1.14.35-.74.39-.56-.33-.47-.69a2.4,2.4,0,0,1-.72.89l-1.48,1.13,1.48,2.09.13.19V187.4c-.53.34-1.11.52-1.43.77l.31-.58a3.16,3.16,0,0,1-.63.78l.59.08c-.32.21-.54.43-.68.28-.05.49.77.36.53,1.19-.52.18-.88,1.25-1.45.93,1.25-.95-.57-.33.29-1.33a1.82,1.82,0,0,1-.67.65c-.09,0,0-.13,0-.23-1.45.66,0,1-1.08,2.07-.11-.39-.73-.22-.85,0,.44-.43.63.21.42.81-.9.5-.62.9-1,1.25l.51-.33c.11.39-.27.71-.68,1.28-.24-.16.31-.58,0-.49-.1,1-1.68.76-2.14,1.82-.52.18-.51-.44-.93-.25-.52,1.17-1.26.57-1.88,1.73.61.07.53,0,.29.88l1.19-1.67-.44,1.43c.44-.44.72-1.14,1-1.35-.18.72-.21.59.28.66-.56.05-.78.42-1,.83a3.58,3.58,0,0,1-.36.59.7.7,0,0,1-.46.31l-.68-1c-.38-.08-.34.33-.64.93-.15,0-.39-.09-.58-.43,0,.13.08.27.14.42-.11.23-.25.11-.38,0s-.24-.35-.43-.41a.72.72,0,0,0,.24-.39c0-.17-.06-.36-.06-.54-.19.23-1-1-1.66-.58l-.25-1c-1-1.25-2.05-.46-3-1.61.62,0,.34-.66,1.27-.17-.36-.36-.62-.73-.82-.54,0-.38-1.36-.6-1.42-1.19-.27,0-.61.22-1-.2,0-.1.14-.14.14-.14s-.81-.43-.77.22c-.22-2-3.11-3-3.31-4.67-.86-.68-1.88-1.52-2.6-2.2.13,0,.14-.13.24,0-.7-1.23-1.39.21-2.2-1.18-.11-1,.83.34.65-.18.77-1.07-1.45-1.2-1.66-2.48l.24.13c-.25-.88-1.73-1-2.59-2,0,0,.13,0,.15-.14a9.51,9.51,0,0,1-3.47-2c.64-.08.59.21.79-.32-.45-.35-.47.7-1.37,0-.06-.45-.46-1.2-.15-1.66l.77.72c.13-.88-1-.95-1.29-1.43l.27-.17c-1.22-1.08-1.79-.54-3-1.81l0,.29c-1.22-.12-.25-.87-1.33-1.14l.35-.76a23,23,0,0,1-3-1.71,10.47,10.47,0,0,1,2.83,1.09c-.43-.45-1.54-1.46-2-1.41.23.12.59.21.68.47a3.79,3.79,0,0,1-1.43-.45,4,4,0,0,1-.68-.45c-.12-.08-.23-.18-.34-.27a3.19,3.19,0,0,1-.26-.26c.89-.61.09-1.08-.18-1.58a1.65,1.65,0,0,1,1.13-.31.62.62,0,0,1,.22-.5l.2-.2.31-.28.65-.54a24.25,24.25,0,0,0,2.72-2.37c-1.48-.2.51-.55-.47-1.31.37-.47.54-.62.64-.6l1.79-.76c.56-.06-.21.59,0,.74,1-.85.75,0,1.59-.4-.43-.18-.12-.76.53-1.17l-1.15.34a1.61,1.61,0,0,1,1.34-1.07,1.86,1.86,0,0,0,.69-.25,1.14,1.14,0,0,0,.3-.26.89.89,0,0,0,0-.19,1.23,1.23,0,0,0,.19.36c0-.17.05-.18.17-.68l.34-.53c0,.21-.07.6-.16.64a.4.4,0,0,0,.32.18l.06,0,.18.13.38.27.75.53a6.84,6.84,0,0,1,2.3,2.23l-.33.09c.35.24.91.12,1.07.71-.11.06-.33.09-.2.24a2.85,2.85,0,0,1,1.43.94l-.58-.1c1.28,1.83,3,1.81,4.42,3-.62.62.4,2.05.91,2.76l-.11.07c1.74,1.89,3.6,2.56,5.52,4a3.37,3.37,0,0,0,.46,1q.18.27.39.54l.22.28.11.14.17.18,3.86,4c.8-.75,1.59-1.44,2.35-2-.52.3-.17-.8.24-1.34a4.81,4.81,0,0,0,1-1.18c.16-.27.32-.43.58-.11l-.15.13c.85.26,1.51-.69,2.16-1.31l-.65-.85c2.74-.56,3.93-4.72,5.8-4.65.21-.59.71-1.08.92-1.66l.38.42a21.42,21.42,0,0,0,3.07-3v.57c.8-.75-.18-2.13.5-2.86l.82.38c1.33-1.35,3.21-2.18,4-4.05a.45.45,0,0,1,0,.56c.65-.61,2.85-2,1.8-2.63.55.52,1.44-1.33,1.93-2.29l.28.51a3.19,3.19,0,0,1,.7-2.27c.26-.15.5.14.13.31.88-.47.15-.9,1.18-1.51L168,151c.73-.66.54-.74.63-1.41.27-.6,1.41-1.22,1.87-1a1.17,1.17,0,0,1,.48-1.29c.19.08.12.32.09.43,1.43-.89,1.27-2.18,2.45-2.59a.45.45,0,0,0,.37.1,16.32,16.32,0,0,1-1.65,1.53c.36.37,1.17-.32,1.08.78.32-.87.75-2.49,1.65-3a.58.58,0,0,1,.22,0l0,.12a1,1,0,0,0,.4-.52,2.88,2.88,0,0,0,.71-.49c.39.21,1-.69,1.41-1-.43-.37.12-.79-.67-.66.09,0,0,.12-.25.38a1.51,1.51,0,0,0-.12.2v-.06l-.89.95a1.24,1.24,0,0,1,.86-1.16c-.07-.45-.12-.92-.13-1.16,1.07,0,2.35-.64,2.82-.43.92-1.36,2.53-2.82,2.5-4.28.22-.42.58-.16.82-.16-.11.26-.35.47-.34.68.45-.84,1.84-2,1.47-2.66,1.05-.58,0,.94,1.05-.26v.31c3-1.37,2.24-4.91,5.75-6.27-.24.1-.35.16-.47.1,2.51-1.76,4.75-5,6-6a5.39,5.39,0,0,1,.91,1.45c.22.52.79.43,1.49.62l-.26.59,1.3.32c1.52.8.95,3,3.09,3.82l.1-.47c.47.58,1.83,1.49,1.41,1.73.11,0,.47-.13.53.23l-.21.24,1.67.9c.84,1.16-1,.73.37,2.23.63.46,2.19.89,2.14.54-.21-.23-.42-.7-.21-.94l.61.38c.75-.57,1.8-.86,1-2.54l-1.25-.44,0-.59.74.69c-.11-.7-.63-.69-1.1-.8a.88.88,0,0,0,0-.71l-1.46-.2c.16-.36.88-.14.47-.84-.68-.09-.21,1-1,.5-.11-.7.25-.83-.48-1,.1-.23.31-.24.58-.13-.63-.22-1.21-1-1.78-.9,0-.79-1.52-1.33-.86-1.91a3.5,3.5,0,0,1-1.65-.62c1.46,0-1.41-1.5-.42-2.11a2.38,2.38,0,0,1-1.71-.82l-1.36-1.25a8.14,8.14,0,0,0-1.36-1,.44.44,0,0,1,.44.19,21.68,21.68,0,0,1-1.7-2.48.34.34,0,0,1-.09.22c-.33,1.19-1.41,2.54-1.8,3.55-.61.08-.62-.25-.45-.74s.47-1.1.16-1.3c.23.66-1.72,2.61-1,2.65-.26.1-.45.19-.6.26a1.16,1.16,0,0,1-.26.08,1.67,1.67,0,0,1-.6-.11c.6.77-.34.57-.32,1.4-1.06.37-.84-.46-1.41.53C189.27,123.45,189.72,122.51,189.72,122.51Zm-17.37,19.77h0l.36-.41Zm-1.56,1.56c.21-.17.45-.41.7-.66.19.08.27.28.11.43C171.59,143.44,171.14,143.73,170.79,143.84Zm6.06-.54c-.19.3-.35.3-.47.26l.39-.48,0-.08A.88.88,0,0,1,176.85,143.3Z"/><path class="cls-3" d="M176.77,142.33s0-.08.07-.13a1.55,1.55,0,0,0-.23.06l0,.21Z"/><path class="cls-3" d="M177.68,164.2l0,0a.25.25,0,0,1,.12,0Z"/><polygon class="cls-3" points="148.48 164.63 148.59 164.73 148.64 164.5 148.48 164.63"/><path class="cls-3" d="M187.64,157a.31.31,0,0,0,.21,0A.38.38,0,0,0,187.64,157Z"/><path class="cls-3" d="M191.44,153.34l.66-.38A4.71,4.71,0,0,0,191.44,153.34Z"/><path class="cls-3" d="M194.49,150.69a.7.7,0,0,0-.12-.23h0Z"/><path class="cls-3" d="M149.9,196.54a.38.38,0,0,0-.09.13C149.62,197,149.77,196.8,149.9,196.54Z"/><path class="cls-3" d="M162.15,182.1a3.45,3.45,0,0,1-.25.63C162.17,182.52,162.37,182.34,162.15,182.1Z"/><path class="cls-3" d="M131.28,196.29h0l-.09-.1Z"/><path class="cls-3" d="M161.27,183.35a1.4,1.4,0,0,0,.63-.62A2.19,2.19,0,0,0,161.27,183.35Z"/><path class="cls-3" d="M207,138.5l.16-.13a.1.1,0,0,1,0-.08Z"/><path class="cls-3" d="M207.15,138.29l.1-.2C207.18,138.16,207.13,138.23,207.15,138.29Z"/><path class="cls-3" d="M207.48,137.67l-.23.42C207.37,138,207.52,137.86,207.48,137.67Z"/><path class="cls-3" d="M203.08,142.09l.1.19A.39.39,0,0,0,203.08,142.09Z"/><path class="cls-3" d="M202,143.28c.31-.24,1-.38,1.29-.85l-.08-.15C203.21,142.67,202,142.78,202,143.28Z"/><path class="cls-3" d="M195.4,146.29l1.07-.85c-.32,0-.74,0-.34-.44C194.46,145.75,196.72,145.09,195.4,146.29Z"/><path class="cls-3" d="M192.19,149.05c.45-.59-.23-.21-.29-.33C191.71,149.19,191.67,149.3,192.19,149.05Z"/><path class="cls-3" d="M170.63,170.61l-.31-.41C170,170.65,170.45,170.34,170.63,170.61Z"/><polygon class="cls-3" points="168.38 176.6 168.99 176.44 168.84 175.93 168.38 176.6"/><polygon class="cls-3" points="163.37 176.46 163.49 176.24 162.95 177.03 163.37 176.46"/><path class="cls-3" d="M130.58,188.61l-.32.56C130.61,189.36,131.16,188.92,130.58,188.61Z"/><path class="cls-3" d="M114.49,173.43a.94.94,0,0,0-.73-1C114.08,172.78,114.26,173.3,114.49,173.43Z"/><polygon class="cls-3" points="147.91 172.35 147.75 172.81 148.21 172.09 147.91 172.35"/></g></g></g></svg>