<svg xmlns="http://www.w3.org/2000/svg" xmlns:xlink="http://www.w3.org/1999/xlink" viewBox="0 0 298.06 298.06"><defs><style>.cls-1{fill:url(#linear-gradient);}.cls-2{opacity:0.92;}.cls-3{fill:#fff;}.cls-4{fill:none;}</style><linearGradient id="linear-gradient" y1="149.03" x2="298.06" y2="149.03" gradientUnits="userSpaceOnUse"><stop offset="0" stop-color="#f05b32"/><stop offset="1" stop-color="#f05b5b"/></linearGradient></defs><title>Asset 8</title><g id="Layer_2" data-name="Layer 2"><g id="Layer_2-2" data-name="Layer 2"><circle class="cls-1" cx="149.03" cy="149.03" r="149.03"/><g class="cls-2"><path class="cls-3" d="M233.35,219.75a112.61,112.61,0,1,0-2.21,2.55l1,.46C232.28,222.36,232.78,221.27,233.35,219.75Zm12-72.54a97.47,97.47,0,0,1-13,48.64,15.57,15.57,0,0,0-1.36-1.6c-6-6.06-14.62-.73-22.18,4-3.18,2-9.83,6-11.6,5.73,0,0-.64-.64-1-3.13-1.2-7.2,2.59-16.31,6.26-25.13,5.64-13.52,13.35-32.05-5.75-40.73l-2.15-1c6.7-1.76,14-5.32,19-12.84,4.87-7.3,6-13.86,3.46-19.48-5.67-12.38-27.66-15.12-50.93-18-5-.63-8.62-2.7-11.13-6.35-5.05-7.35-4.69-19.87-3.55-28.12A98.26,98.26,0,0,1,245.36,147.21Zm-196.29,0a97.48,97.48,0,0,1,12.8-48.36C69.72,95.5,79.6,93,83,95.57c1.68,1.29,2,5.11.76,10.48-2,9-3.08,17.89,2.55,21.81s12.52-.49,18.61-4.4c1.53-1,3.64-2.33,5-3,2.38,4.14,5,17.07,2,24.82-1.32,3.34-3,3.8-4.62,3.8-6.48,0-12,3.71-15.5,10.44a41.18,41.18,0,0,0-4.08,18.64c0,14.7,6,24.73,15.16,25.42.07,2.63-1.44,8.43-2.48,12.44a101,101,0,0,0-3.17,15.62A98.17,98.17,0,0,1,49.07,147.21Zm98.14,98.15a97.66,97.66,0,0,1-39.12-8.16c-.86-4.38,1.26-12.59,2.8-18.48,2.52-9.72,4.52-17.4.6-22.48a9.49,9.49,0,0,0-7.9-3.59c-2,0-5-5.66-5-14.54a30.78,30.78,0,0,1,2.84-13.6c2.39-4.57,5-4.57,5.83-4.57a15,15,0,0,0,13.67-8.36c2.64-4.87,3.19-10.86,3.19-15,0-9-3.23-27.51-13.23-27.51-3.7,0-7.48,2.42-11.86,5.24-1.57,1-4.11,2.63-6,3.54a45.27,45.27,0,0,1,1.34-9.42c2.24-10.11.64-17.34-4.77-21.49C84.92,83.31,78.33,83.14,72,84.29a98,98,0,0,1,68.42-35c-1.12,9.32-1.41,24,5.55,34.12,4.31,6.29,10.62,10,18.77,11,16.56,2.07,39.24,4.91,42.37,11.76,1.12,2.43-.8,6.18-2.61,8.89-5.78,8.67-17.33,9.44-23.54,9.85-3.68.24-8.25.55-9.1,5.22-.92,5,.28,5.59,20.38,14.73,8.24,3.74,7.39,9.33.2,26.61-4.27,10.24-8.67,20.82-7,31.11,1,5.71,3.38,9.48,7.21,11.21,6.82,3.07,14.52-1.71,22-6.35,2.74-1.71,7.14-4.45,9.19-4.94a8,8,0,0,1,1.1,4.5A98,98,0,0,1,147.21,245.36Z"/><path class="cls-4" d="M233.35,219.75a112.61,112.61,0,1,0-2.21,2.55l1,.46C232.28,222.36,232.78,221.27,233.35,219.75Zm12-72.54a97.47,97.47,0,0,1-13,48.64,15.57,15.57,0,0,0-1.36-1.6c-6-6.06-14.62-.73-22.18,4-3.18,2-9.83,6-11.6,5.73,0,0-.64-.64-1-3.13-1.2-7.2,2.59-16.31,6.26-25.13,5.64-13.52,13.35-32.05-5.75-40.73l-2.15-1c6.7-1.76,14-5.32,19-12.84,4.87-7.3,6-13.86,3.46-19.48-5.67-12.38-27.66-15.12-50.93-18-5-.63-8.62-2.7-11.13-6.35-5.05-7.35-4.69-19.87-3.55-28.12A98.26,98.26,0,0,1,245.36,147.21Zm-196.29,0a97.48,97.48,0,0,1,12.8-48.36C69.72,95.5,79.6,93,83,95.57c1.68,1.29,2,5.11.76,10.48-2,9-3.08,17.89,2.55,21.81s12.52-.49,18.61-4.4c1.53-1,3.64-2.33,5-3,2.38,4.14,5,17.07,2,24.82-1.32,3.34-3,3.8-4.62,3.8-6.48,0-12,3.71-15.5,10.44a41.18,41.18,0,0,0-4.08,18.64c0,14.7,6,24.73,15.16,25.42.07,2.63-1.44,8.43-2.48,12.44a101,101,0,0,0-3.17,15.62A98.17,98.17,0,0,1,49.07,147.21Zm98.14,98.15a97.66,97.66,0,0,1-39.12-8.16c-.86-4.38,1.26-12.59,2.8-18.48,2.52-9.72,4.52-17.4.6-22.48a9.49,9.49,0,0,0-7.9-3.59c-2,0-5-5.66-5-14.54a30.78,30.78,0,0,1,2.84-13.6c2.39-4.57,5-4.57,5.83-4.57a15,15,0,0,0,13.67-8.36c2.64-4.87,3.19-10.86,3.19-15,0-9-3.23-27.51-13.23-27.51-3.7,0-7.48,2.42-11.86,5.24-1.57,1-4.11,2.63-6,3.54a45.27,45.27,0,0,1,1.34-9.42c2.24-10.11.64-17.34-4.77-21.49C84.92,83.31,78.33,83.14,72,84.29a98,98,0,0,1,68.42-35c-1.12,9.32-1.41,24,5.55,34.12,4.31,6.29,10.62,10,18.77,11,16.56,2.07,39.24,4.91,42.37,11.76,1.12,2.43-.8,6.18-2.61,8.89-5.78,8.67-17.33,9.44-23.54,9.85-3.68.24-8.25.55-9.1,5.22-.92,5,.28,5.59,20.38,14.73,8.24,3.74,7.39,9.33.2,26.61-4.27,10.24-8.67,20.82-7,31.11,1,5.71,3.38,9.48,7.21,11.21,6.82,3.07,14.52-1.71,22-6.35,2.74-1.71,7.14-4.45,9.19-4.94a8,8,0,0,1,1.1,4.5A98,98,0,0,1,147.21,245.36Z"/><path class="cls-3" d="M147.21,244c-.38.17-.16.58.88.46l.73-.68Z"/><path class="cls-3" d="M154.3,245c1.21-.43,2.56-1.12,1.72-1.65-1.15.74-1.46.5-2.72,1.37-1.05.14-1.85-.15-1.68-.39-.36.18-1.63-.1-2.18.33a6.77,6.77,0,0,0,2.3.34,9.32,9.32,0,0,0,1.28-.1,9.2,9.2,0,0,0,1.32-.35C154.74,244.63,154.38,244.84,154.3,245Z"/><path class="cls-3" d="M209.6,209.47l.61-.27A3.82,3.82,0,0,0,209.6,209.47Z"/><path class="cls-3" d="M193.29,172.75c-.17.45-.18.67-.14.71C193.28,173,193.39,172.67,193.29,172.75Z"/><path class="cls-3" d="M198,162.75l-.26.61A1.52,1.52,0,0,0,198,162.75Z"/><path class="cls-3" d="M209.6,209.47c-.52.21-1,.44-1.57.64C208,210.36,208.87,209.84,209.6,209.47Z"/><path class="cls-3" d="M168,241.36a4,4,0,0,0-.85.36l.82-.25Z"/><path class="cls-3" d="M221.07,213.89l-.36.39a4,4,0,0,0-.09.5Z"/><path class="cls-3" d="M204.78,228.52c.42-.26.23-.82.24-1.12a2,2,0,0,1-.66.93C204.42,228.42,204.54,228.48,204.78,228.52Z"/><path class="cls-3" d="M173.21,242.41l-.57.24Z"/><path class="cls-3" d="M220.61,202.17a.38.38,0,0,0-.31-.07C220.32,202.17,220.44,202.18,220.61,202.17Z"/><path class="cls-3" d="M123.1,239.61s0,.07,0,.1C123.2,239.69,123.25,239.66,123.1,239.61Z"/><path class="cls-3" d="M147.21,245.5l-.34,0a.89.89,0,0,0-.08.31Z"/><path class="cls-3" d="M193.46,142.47l.08.05C194.11,142.73,193.8,142.59,193.46,142.47Z"/><path class="cls-3" d="M134.12,47.64c2.16.19-3.31,1.14-.1,1.23-.16-.08.53-.41.92-.7.17-.15.45-.28.31-.38A2.18,2.18,0,0,0,134.12,47.64Z"/><path class="cls-3" d="M168.55,241.32l.85-.19A6,6,0,0,0,168.55,241.32Z"/><path class="cls-3" d="M134,48.87h0Z"/><path class="cls-3" d="M188.74,126.54a1.86,1.86,0,0,0-.53-.16C188.23,126.44,188.35,126.49,188.74,126.54Z"/><path class="cls-3" d="M182.34,138.6l-.73-.43A7.11,7.11,0,0,0,182.34,138.6Z"/><path class="cls-3" d="M205,117.1a4.86,4.86,0,0,0,.85-1.07l-.18.13A2.49,2.49,0,0,1,205,117.1Z"/><path class="cls-3" d="M201.77,100.17a3.7,3.7,0,0,0,.29.24l.57.24C202.35,100.48,202.06,100.32,201.77,100.17Z"/><path class="cls-3" d="M114,195.76a2.4,2.4,0,0,1,.07,1.16c.1-.25.58.34.75.58S115.07,197.53,114,195.76Z"/><path class="cls-3" d="M168.07,241.67a.72.72,0,0,1,.48-.35l-.59.15C167.93,241.56,167.93,241.64,168.07,241.67Z"/><path class="cls-3" d="M201.86,113.88a19.2,19.2,0,0,0,1.47-2.17C202.94,112.3,202.4,113.17,201.86,113.88Z"/><path class="cls-3" d="M96,113.43l.23-.21A.62.62,0,0,0,96,113.43Z"/><path class="cls-3" d="M204.1,106.79a2.37,2.37,0,0,0-.2-.54,4.49,4.49,0,0,0-.38-.51.88.88,0,0,0-.31,0A5.54,5.54,0,0,1,204.1,106.79Z"/><path class="cls-3" d="M114.09,196.93h0Z"/><path class="cls-3" d="M114.49,217.53c.72-2.75-.37-1.47-.64-2.16.6-3.34.9-1.4,1.54-2.45.28-2.15-.08-3.93.17-5.54.13-.11.21-.43.32,0-.15-1.21,0-3-.11-4.85a9.49,9.49,0,0,0-1.66-5.14,1.09,1.09,0,0,1,0-.43c-.1.61-.42.81-.7.84a9.12,9.12,0,0,0-.51-.83c-.18-.25-.4-.46-.56-.66a1.88,1.88,0,0,1-.58-1.07,3.07,3.07,0,0,0,1.06.85,7.86,7.86,0,0,0-1-1c-.21-.72.19-.42.67.09s.92,1.24,1.15,1.1a10.08,10.08,0,0,0-3.5-3,18.77,18.77,0,0,0-3.72-1.39c-.16-.39,1.14-.19,2.11.19s1.62.68.32-.28a10.76,10.76,0,0,1,2.91,2.22c-.7-1.33-.32-1,.15-.55s.92.88.3-.49a9.52,9.52,0,0,0-2.66-1.79,9.91,9.91,0,0,0-2.2-.7,19.37,19.37,0,0,0-2.2-.28l-.59,0h-.24A.28.28,0,0,1,104,190a.77.77,0,0,0-.34.33c-.07.12-.12.28-.39.26a1.73,1.73,0,0,1-.46-.45,3.54,3.54,0,0,1-.39-.59,4,4,0,0,1-.47-2.72,5,5,0,0,0-.47-3.4,10.56,10.56,0,0,1-1-1.31,4.66,4.66,0,0,1-.29-2.79c.26.31.53.62.81.92a6.69,6.69,0,0,0-.52-2.88c-.19-.55-.38-1.15.07-3,.21.71,0,2.9.17,2.35.76-2.43-.32-1.78-.09-3.71l.73-.28a33,33,0,0,1,1.21-5.82c.61-1.89,1.6-3.82,3-4.73-.07.27-.32.72.34.53a2.09,2.09,0,0,1,1-.45c.12,0,.63,0,1,0s.85-.06,1.27-.1a19.5,19.5,0,0,0,5.09-1.23,18.76,18.76,0,0,0,8-6.24,18.15,18.15,0,0,0,.7-2.37c.26-.49.7-.81.54-.22,1.21-2.11-.29-.27,0-1.41.46-1.25,1-1.54.82-.67a46.58,46.58,0,0,0,1.2-7.84c.22-2.87.26-5.74.46-7.86l.21.81c.06-3.31-1.43-3.56-1.28-6.58l.18.56a44.52,44.52,0,0,0-2.45-10.44,30.9,30.9,0,0,0-4.79-8.86c-.72-.07-2.17-1.52-4.17-2.16a7.37,7.37,0,0,0-2.76-.43c-.76.06-1.28.27-1.36.58a16.42,16.42,0,0,0-2.5.16,14.26,14.26,0,0,0-1.55.26,19,19,0,0,0-4.74,1.89c-1.33.74-1.52,1.81-3,2.89l-.37-.5a.29.29,0,0,0-.1.16l0,.12a1.83,1.83,0,0,1-.11.26,6.09,6.09,0,0,1-.39.63,1.1,1.1,0,0,1-.19-.76c-.14.15-.29.3-.47.46.11,0,.19.23.08.5a2.39,2.39,0,0,1-.93.55c-.06,0,0-.08,0-.14l0-.21c0-.14.07-.28.12-.42a4.63,4.63,0,0,1,.28-.7,1.74,1.74,0,0,1,.53-.68,1,1,0,0,1-.1-.25,1.78,1.78,0,0,1,0-.59c.1-1,.24-2,.37-3.09.11.09.13.42.12.82s0,.84,0,1.25c0-1.64.22-1.81.41-1.89s.4-.14.4-1.79c-.21.41-.32-.29-.44-.39a18.56,18.56,0,0,0,.66-8.1l.45.52a19.08,19.08,0,0,0-2.07-8.11,17.14,17.14,0,0,0-6.27-6.64c.9.67,1.08,1.14.89,1.26s-.74-.06-1.5-.46c-.08-.3-.17-.61-.27-.92-1.18-.18,1.45,1.1-.78.44-.94-.53-1.23-.79-1.09-1s.69-.19,1.32,0a16.83,16.83,0,0,0-2.62-.81c-.09-.23.55-.13.79-.31a18.13,18.13,0,0,1-2.87-.87,5.66,5.66,0,0,0-3.27-.3l-.14-.2H79.7l-.2,0-.53.15s-.19.07-.17,0a.16.16,0,0,1,0-.09,1.58,1.58,0,0,1,.17-.25c-.48.09-.59,0-.61-.09a2.71,2.71,0,0,0,0-.58c.25-.13,1.82-1.55,3.09-2.52.66-.53,1.33-1.07,2-1.65s1.4-1.11,2.09-1.72c1.79-1.88.27-.85,1-1.86.45.25,3.36-2,2.07-.56l2.21-1.76c.64-.51,1.25-.93,1.87-1.4l2-1.57,2.84-2.06c-.62.14-1.26.43-1.05.09.83-.61,2.09-1,2.09-.75l-.2.19a25.72,25.72,0,0,1,4.31-2.53c1.59-.71,3.27-1.31,4.89-1.92s3.27-1,4.73-1.59a17.61,17.61,0,0,0,3.9-1.73l-.25.15c1.57-.74,3.17-1.39,4.77-2.1,1.17-.28.85-.08.46.14s-.83.55,0,.44a27.22,27.22,0,0,1,6.8-2l3-.51a27.61,27.61,0,0,0,3.19-.67,6.67,6.67,0,0,0,1.26.19c.27.06.4.12.59.15a3.77,3.77,0,0,0,1.16,0,2,2,0,0,0,0,.4V53l0,.75q0,.79-.06,1.56a49.08,49.08,0,0,1-.41,5.52l.35-.3c.37,1.3-.15,1.6-.19,2.58.27-.15.25-1.45.48-.64a60.87,60.87,0,0,0,3.42,17,32.2,32.2,0,0,0,4.43,8,26.57,26.57,0,0,0,6.91,6.29,6.66,6.66,0,0,0,2.24.92,5,5,0,0,0,1.39,0c.87-.05,1.74.1,4.26,1.22-.56.1-1.11.14-1.69.2a53.27,53.27,0,0,0,6.58,1c2.05.22,4.11.48,6.15.76,4.09.56,8.13,1.17,12.07,1.51-.49.07-.54.26-1.3.13,1.57.73,6,1.1,6.14.75,1.19.29.21.4.9.75,1.55.6,4.17.32,4.89,1,.12.11-.48,0-.78,0a18.26,18.26,0,0,1,2.67.61c.92.26,1.62.42,1.23,0,1.31.57,2.58,1,3.73,1.45a7.56,7.56,0,0,1,2.82,1.69,2.35,2.35,0,0,1,1.52,1.41c.11.33.09.95.48,1.2-.44-.12-.69.7-1.23,1.92s-1.27,2.73-1.58,3.58c.09-.59-1.09,1-1,.25-.5.76-1.11,1.38-1.44,1.91s-.55.83-.27.9a41.39,41.39,0,0,0-4.36,2.67c-1.37.85-2.75,1.46-3.93,1.07a39.91,39.91,0,0,1-8.58,2.07l-4.47.57a14,14,0,0,0-4.78,1.46c-.06-.22.38-.6,1.07-.91a9.39,9.39,0,0,1,2.44-.7c1.72-.3,3.2-.38,3-.86a24.54,24.54,0,0,0-4,.84,10.26,10.26,0,0,0-3.72,2,7.55,7.55,0,0,0-2.33,3.75c-.08.35-.15.7-.23,1.07s-.1.65-.14,1a7.69,7.69,0,0,0,0,2.56c.07.52.16.7.1.69a1,1,0,0,1-.33-.53,8.46,8.46,0,0,1-.47-1.95,6.34,6.34,0,0,0,0,.74,4.29,4.29,0,0,0,.1.76l.21.8c.1.25.22.5.34.75a7.15,7.15,0,0,0,.86,1.28c.31.34.63.63.95.93a24.81,24.81,0,0,0,3.64,2.41,46.91,46.91,0,0,0,7,3.17,2.69,2.69,0,0,1-1-.22c.88.39,2,1.06,2,.65l-.9-.3c-1.14-1.18,4,.49,4.27.26-2,.39,4.26,2.27,1.29,2.55.6.19,1.41.34,1.39,0,.82.46,1,.73,0,.62a16.36,16.36,0,0,0,1.76.58,6.67,6.67,0,0,0,.86.19,4.08,4.08,0,0,1,2,1c-.11.14-.59-.1-1,0a4.83,4.83,0,0,1,1,.34,3.46,3.46,0,0,1,.92.55l.44.37a4.89,4.89,0,0,1,.35.5,3.66,3.66,0,0,1,.53,1.3c-.14-.09-.22.17-.43-.38a12,12,0,0,1,.59,5.26,18.52,18.52,0,0,1-1.54,6.11c-.35-1.64-.8,1.48-1.62,1.46-.23.84-.46,1.69-.72,2.53l.72-.85c-.84,2.15-1.12,4.25-2.11,6l.37-1.72-1.53,4.1,1.21-2.19c-.55,2.34,1,.13-.41,2.93.16-.62-.9,2.15-1.75,3.13h0a13.13,13.13,0,0,1-1.17,3.93c-.37.35-.65-.62-.9-.39a11.46,11.46,0,0,1-.7,3.34,10.15,10.15,0,0,0-.58,3.6c0-.51-.4-.64-.52-.5l.25,1.07c-.43,1-.51,1.17-.78.93-.4,1.62-.11,1.41.12,1.26s.38-.23-.14,1.68a4.72,4.72,0,0,1-.06-.83,23.69,23.69,0,0,0-.56,5.76c0,1.9.24,3.73.38,5.57-.61,1.21-.58-3.2-1.06-1.89a22.12,22.12,0,0,0,2.53,8,14.53,14.53,0,0,0,5.94,5.87,8.32,8.32,0,0,1-.85-.56c.59-.24,1.35.31,2.46.91a6.23,6.23,0,0,0,4,.8c-.66.08-.9.58-.71.47a13.24,13.24,0,0,0,5.77-1A36.23,36.23,0,0,0,208.7,212l-.44.55a66,66,0,0,0,6.62-3.59c.41-.58,1.48-1.19.63-1.13a27.25,27.25,0,0,0,4.46-2l.93-.53.63-.38a9.8,9.8,0,0,1,1.41-.77c.07,0,.17-.11.2,0l.13.14a3,3,0,0,1,.57,1.08,5.9,5.9,0,0,1,.25,1.76l.18-.52a18.93,18.93,0,0,1-2.86,2.87c.44-.54.87-1.44.51-1l-1.48,2-1.58,1.92c.61,0,.65-.29,1.63-.83a10.14,10.14,0,0,1-1.87,2.76c1.3-1.88-.56-.49-1.4.05.21,0,.1.33.26.37-2.43,1.28.36,1-2.6,3.09l0-.3c-.44.51-.82,1-1.23,1.57a12.57,12.57,0,0,1-1.47,1.44c-.81,0,.91-1.13.68-1.52-1.51,1.33-2.32,3.45-4.11,4.18.6-.63,1.51-1.48,2.07-2.15a10.16,10.16,0,0,0-1.85,1c-.42.26-.75.54-1.36.95l.12-.07-2.86,1.87.79-.4a6.85,6.85,0,0,1-2.75,2.94,23.88,23.88,0,0,0-3.64,2.9c2.37-2.47.2-.71.09-1.35-.83.31-2.05.84-1.82.5-1.11,1.25-2.44,1.09-4.09,2.76-.18-.12-1.52.8-1.43.19-1.75,1.12.59.07.55.37a9.7,9.7,0,0,1-2.22,1.37c-.86.37-1.8.7-2.77,1.07a31.88,31.88,0,0,0-6,2.71l-2.22,1.15c-.62.33-1.13.64-1.64.94a18.07,18.07,0,0,1-3.77,1.85c-1.3,0,.8-.95.8-.95a22,22,0,0,0-5.29,1.39c.34-.25-.08-.31-.7-.4-1.48.36-.85.9-2.89,1a5.48,5.48,0,0,1,1.34-1.08c-.86.27-1.71.59-2.56.9s-1.75.54-2.66.77c-.54-.26,1-.67,1.64-1-2,.45-5.3,1.15-5.9,1.67.46,0,.92.06,1.37.06-.76.11-.44-.4.1-.58,1.72-.68,2.59-.2,2.72,0l-1.3.32c.75.47,2.09.22,3.55-.18a43.48,43.48,0,0,1,4.34-1.36l-.92,1.05,2.55-1.25c.62,0,1.13.42-.14.86,2-.08,1.58-.73,3.31-.72.2,0,.13.08,0,.16l1.77-.74c-.31.27.47.48-.69.68a12.1,12.1,0,0,0,4-1.3,4.84,4.84,0,0,1,2.49-.77l-.26.14c4.34-1.95.23-.73,3.26-2.69l2.8.5.17-.76c.45-.18,1.35-.55,1.29-.25,1.47-1.16-.39-.11.4-.92a15,15,0,0,0,3.84-1.65c1.22-.67,2.26-1.19,2.73-.89.51-.81-2.15.75-.1-.72,1.17.61,2.42-1.6,4.48-2.31-.27.8-2.17,1.63-.07.91.31-.74,1.24-1.22,2.24-1.72a16.53,16.53,0,0,0,2.8-1.59c-.18-.33.61-.93,1.69-1.76s2.45-1.87,3.57-2.91c0,.18,1.18-.67,2.6-1.8l2.27-1.77c.72-.63,1.41-1.22,2-1.67l0,.15c-.12-.92,2.1-2.84,3.38-4.55.27.36.14.76-.5,1.75l1.35-1.49a6.29,6.29,0,0,1,1.3-2.07l.07.73c1.33-1.52,2.3-3.36,3.77-5.17l.25-.31v-.41a16.58,16.58,0,0,0-.33-3.28c-.24.07-.33,1.11-.63,1.53-.14.22-.28.29-.45.13a4.47,4.47,0,0,1-.65-1.17,1.41,1.41,0,0,1,.39-.55c.14-.08.33,0,.52.44-.13-.31-.52-.92-.8-1.59a6.36,6.36,0,0,1,1,1c-.25-.91-.47-1-.61-1.08a.6.6,0,0,1-.25-.11.78.78,0,0,1-.17-.16c0-.12-.17-.09-.31-.07h0c.23-.49-.88,0-.58-.42a5.89,5.89,0,0,1,.89-.23l.19.06c.07,0,.1.12.15.17a1.33,1.33,0,0,0,.27.33c-.16-.24-.29-.68-.56-.67l-2,.45c-.62.14-1.18.28-1.51.32.22.14.07.54-1,1.19-2.33,1.35-1,0-2.5.66-.42.56-2,1.21-1.75,1.74a1.76,1.76,0,0,1-1.27.27c-1,1-5.37,3.38-3.75,3.12l.32-.14-.17.14h0a25.88,25.88,0,0,1-12.38,4.78v-.2a10.13,10.13,0,0,1-3.83-.2,21.53,21.53,0,0,1-3.18-1.19c-.63-.45-1.08-1.42-.69-1.37a9.19,9.19,0,0,1-1.47-1.46,7.05,7.05,0,0,1-1.16-2.48c.55.8.55.61.54.53s-.05,0,.55,1.08a17.07,17.07,0,0,1-.92-2.54,23.39,23.39,0,0,0-1.06-2.72c.35.39.4-.1.35-.83a16.26,16.26,0,0,0-.29-2.28c-.09.59-.1,1.18-.16,1.78a16.42,16.42,0,0,1-.28-3.7c.21.21.44.42.68.62.31-2.51.21-4.78.31-7a10.9,10.9,0,0,1,1.64-6c-.06-1.47-1.11,2.65-1.29,1.31.73-2.34,2.49-4.43,2.74-5.14,1.5-3,.17-3.27,1.73-6.46-.39.33-1.14.49-.34-2.06,1-2.26,2.09-2.44,1.67-.92-.21.56-.39.8-.46.74-.23.78-.53,1.79.08,1l-.1-.39c.7-1,2-4.23,2-3.34.51-1.83-.06-.89-.7.36,1.54-2.84,1.89-4.65,3.25-7.71-.29.46-.73.82-.55.33,1-2.28,1-2.83.94-3.22s-.2-.57.18-2.2c.4-.88.57-.67.71-.65s.28-.14.41-1.91c.56-2.12.71-.38.74.53.11-1.63.23-3.25.26-4.79a9.21,9.21,0,0,0-1-4.15,9,9,0,0,1,1.1,2,12.58,12.58,0,0,0-1.77-3.07,6.08,6.08,0,0,1,.31,1.29c-.15-.28-.28-.56-.43-.78l-.44-.58c-.24-.33-.38-.56-.3-.62-.56-.34-.52,0-.61.19s-.3.31-1.27-.22c-1-1.12-3.71-1.87-3.78-2.56a11.06,11.06,0,0,0,1.54.73c.21.05.18-.06.14-.2s-.25-.67,1.44.25c-.34-.19-.7-.36-1.1-.56s-.84-.46-1.24-.68c-.09-.12.16-.08.44,0-3.17-2.07-1.86-.06-5.36-1.68.59-.12-.53-1-1.13-1.17,1.41.65.43.84-1,.5-2.11-1.29-2.51-.94-3.65-1.52l1.27.74c-.6.11-1.7-.45-3.28-1.1,0-.3,1.48.51,1,.14-2-.28-3.59-2.44-5.85-3.41-.41-.4-.31-.56-.23-.69s.17-.25-.11-.57c-1.05-.56-1.05-1-1-1.21,0-.09,0-.12,0-.23a2.69,2.69,0,0,0,.06-.36c0-.18,0-.34.06-.59s.05-.62.07-.84a1.34,1.34,0,0,0-.34.33c-.08.08-.13.1-.16,0a3.38,3.38,0,0,1-.06-1.35,4.41,4.41,0,0,0-.19.92,8.43,8.43,0,0,0-.09,1.1c0,.16,0,.35,0,.49s0,.26.06.38a1.9,1.9,0,0,1,.1.28c0,.09.11.15.15.24-.08-.09-.23-.16-.29-.29a1.24,1.24,0,0,1-.23-.43,2.09,2.09,0,0,1-.15-.62,4.19,4.19,0,0,1-.08-.74,3.51,3.51,0,0,0,.07,1.81,2.62,2.62,0,0,0,.28.53,2.6,2.6,0,0,1,.3.43c-.48-.3-.61-.49-.69-.5s-.1.15-.13.5c0-.23,0-.43-.08-.6a5,5,0,0,0-.06-.56c0-.39-.07-.84-.07-1.36,0-.25,0-.53,0-.78s.06-.5.12-.74a2.37,2.37,0,0,1,.78-1.26l.91.75a9.11,9.11,0,0,1,1.31-.89,10.13,10.13,0,0,1,1.87-.78,21.47,21.47,0,0,1,5.85-.77l-1.58-.09c.61-.51,3-.29,4.57-.69-.1.41.91.41,1.64.55-.07-.13.84-.29,1.8-.52s2-.62,2.08-1.07c.77,0,1.54-.07,2.32-.16a9.37,9.37,0,0,0,2.35-1,13.21,13.21,0,0,0,1.51-1.16c.44-.4.86-.83,1.38-1.26s1.1-.93,1.87-1.53c-.66,1.09,1,.2-1.05,2,.55-.39,1.1-.75,1.47-1.06s.56-.57.48-.68a2.86,2.86,0,0,0,.73-.61,12.53,12.53,0,0,0,.86-1.12,12.94,12.94,0,0,1,1.65-2.11,4.51,4.51,0,0,1,.7-2.14c.15-.1.17.1.17.1-.15-.1.85-2.14-.13-1.22a7.6,7.6,0,0,0,1.79-3.09,6.88,6.88,0,0,0,.31-2.18l-.06-.61-.13-.61c-.07-.21-.15-.41-.23-.61s-.2-.36-.3-.53a10.06,10.06,0,0,0-3-3,31.61,31.61,0,0,1-2.68-1.91A65.15,65.15,0,0,0,193.71,98c.19-.08.06-.19.51,0-3.28-1.18-2.32.58-6-.62-1.83-1,2.1.07.93-.41-.27-1.4-4.66-.74-7.12-1.89l.64,0c-1.91-.77-4.91-.28-8.13-.81,0,0,.17-.1,0-.2-2.3.35-6.51,0-9.64-.17,1-.38,1.44-.09.92-.68-1.4-.11.28.9-2.48.64-.84-.41-2.7-1.1-2.79-1.71.81.2,1.63.39,2.46.53-1.13-.91-3.16-.69-4.37-1.29l.26-.23c-1.78-.61-2.72-.83-3.7-1.14a9.59,9.59,0,0,1-3.61-2l.19.46a2.78,2.78,0,0,1-1.7-1.26,3.93,3.93,0,0,0-1.47-1.53c0-.35.08-.68.14-1a22.59,22.59,0,0,1-2.44-2.56,15,15,0,0,1-1.37-1.85,14.22,14.22,0,0,1-1.12-1.92c.55.62,1.32,1.56,2,2.55a29.53,29.53,0,0,0,2.33,2.57c-.22-.29-.5-.69-.82-1.13s-.63-1-1-1.42a12.9,12.9,0,0,0-1.55-2.15,7.3,7.3,0,0,1,1,1.66A13.63,13.63,0,0,1,142.3,74c.41,0,.5-.45.41-1.19s-.26-1.79-.45-2.92c-.41-2.26-.61-4.92-.11-6a28.84,28.84,0,0,1-.28-6.9c.08-1.17.2-2.36.35-3.57.26-2.16.54-4.36.82-6.64-1.3.1-2.67.23-4.06.38.73.23.83.37.7.46a3.54,3.54,0,0,1-1.05.19c-1,.11-2.33.25-2.13.84l-1.19.16-.68.1a1.51,1.51,0,0,1-.6,0c-1.53,0-3.09-.07-4.64,0-1.13-.15,1.37-.54,1.2-.76-3.31.49-1.47-.26-3.72-.15.54.35-1,.8-2.91,1.1.9-.06,1.83,0,2.74,0a11.61,11.61,0,0,1-4.28.8,8.33,8.33,0,0,0-4.28,1l1.32-.81c-1.12.48-3.28,1.09-5.35,1.92s-4.1,1.76-5,2.72c-.44,0-1.09,0-.15-.55a40.2,40.2,0,0,0-4.1,1.89c-1.35.76-2.72,1.53-4,2.31s-2.54,1.62-3.73,2.3a28.25,28.25,0,0,1-3.31,1.83l.22-.48c-.87.64-1.3,1.44-2.57,2,0-.14.2-.49-.22-.22a20.71,20.71,0,0,1-3.31,2.74c.25-.34.51-.68.79-1a24.57,24.57,0,0,0-3.06,2.25c-.44.38-.85.75-1.24,1.11s-.73.77-1.07,1.16c-.69.76-1.35,1.51-2,2.29s-1.37,1.6-2.2,2.43c-.29-.33-1.31.2-2.44,1l-.84.68a2.59,2.59,0,0,0-.3.27l-.36.33-.72.67c-1,.9-1.8,1.77-2.48,2.49L71.9,80c-1.39,1.54-2.73,3.09-3.92,4.49l-1.71,2c-.26.32-.58.68-.75.93l-.44.69,6-1.2L74,86.41,76.51,86c.78-.07,1.54-.15,2.28-.2l1,0c.2,0,.41,0,.61,0a15.3,15.3,0,0,1,2.51.15c1.54.79,4.08,1.69,6.09,3.68A11.11,11.11,0,0,1,92.37,97c0-.8.73,0,.9,1,0,1.24.71,3.56-.09,3.33l0-.46c-.79.94-.78,3.54-1.23,5.61l1,.54q-.25.51-.48,1.08c-.16.39-.31.81-.45,1.23s-.25.84-.37,1.36c-.07.35-.15.69-.22,1l-.2,1.16a26.54,26.54,0,0,0-.38,4.47c0,.68,0,1.35,0,2,0,.34,0,.67,0,1l0,.5a1.11,1.11,0,0,0,0,.44c2.36-1.29,4.3-2.31,6.13-3.39.91-.52,1.75-1,2.53-1.41l.29-.15.2-.09.34-.13c.23-.07.44-.12.64-.16,1-1,2.47-1.87,3.49-2.75l.22.53a21.86,21.86,0,0,1,4-1.66,6.59,6.59,0,0,1,3.87,0,4.44,4.44,0,0,0-.7.2,8.7,8.7,0,0,0,2.16.15,2.9,2.9,0,0,1,2.34,1c-.07.35-.15.69-.25,1a19.15,19.15,0,0,1,2.67,5.82c.66,2.11,1.22,4.27,2,6.41-.14,0-.4-.14-.58-.85.22,1,.43,3.1.64,4.78s.44,3,1,2.57c-.38.05-.29,1.22-.15,2.67s.34,3.23.39,4.46l-.52-.42a17.24,17.24,0,0,1,.5,2.25A10.38,10.38,0,0,1,122,145c-.22.65-.56.48-.23-.37a5.31,5.31,0,0,0-.39,2,4.69,4.69,0,0,1-.68,2.33c0-.36,0-.71,0-1.07a8.9,8.9,0,0,0-.85,3.32,6.78,6.78,0,0,1-1.57,2.28c-.69.67-1.41,1.07-1.7,1a3.23,3.23,0,0,1-1.84,2.2c-.25-.06.08-.43.25-.6a43.46,43.46,0,0,1-4,2,6.22,6.22,0,0,1-3.58.47c-.08-.18-.19-.26-.49-.32a17.27,17.27,0,0,0,5-.72c-.08-.23-.68-.21-1-.28s-.5-.23.19-.83a10.45,10.45,0,0,1-3.12,1.3,7.48,7.48,0,0,1-1,.18,8.5,8.5,0,0,0-1.56.33,9.72,9.72,0,0,0-2.54,1.28,1.66,1.66,0,0,1-.45.14l.23-.27a5,5,0,0,0-1.4,1.51,9.59,9.59,0,0,0-1.54,2c-.27,0-.76.78-1.16,1.69a26.58,26.58,0,0,0-1,2.65c.56.06,0,1.79.89.28-.09.2,0-.27.3-1.16a5.3,5.3,0,0,0,.16-.58v.11a18.43,18.43,0,0,1,1.54-3.21A13.89,13.89,0,0,1,99,166.19c.09.77.2,1.62.26,2.1a13.06,13.06,0,0,0-1.72,3.16,11.12,11.12,0,0,1-1.07,2.38,42.17,42.17,0,0,0,.22,6.88,12.62,12.62,0,0,0,1.73,5.46,2.7,2.7,0,0,1,0,1.89c-.32-.64-.52-1.45-.75-1.78a26.5,26.5,0,0,0,1.78,4.3,7.91,7.91,0,0,0,1.38,1.81c.55.51,1,.71,1.28.64.71.59,1.09.59,1.12.71s-.2.11-.4.13-.35,0-.12.1.37.08.7.13l1.24.06-.49.18a14.78,14.78,0,0,1,4.1,1.52,8.7,8.7,0,0,1,3,2.7c1.64,2.33,2.08,5.94.62,9.9.18-.55.27-.83.41-.93-1,4.66-2.33,9.51-3.44,14.45-.56,2.47-1.08,4.94-1.54,7.43-.22,1.25-.43,2.5-.59,3.77-.07.66-.14,1.25-.17,2a23.24,23.24,0,0,0,.09,2.61l0,.37c0,.12.17.11.24.17l.54.25c.33.16.64.29.92.4a10.4,10.4,0,0,0,1.43.48c.64.1,1.18.09,2,.24l.35.78c1,.11,2,.24,3,.32a24.54,24.54,0,0,1,5.35,2.11,15.29,15.29,0,0,0,6.37,1.66l-.57-.54c1.8.49,5.84.85,5.46,1.25a1.64,1.64,0,0,1,1.36,0v.32c1.54.05,3.08.05,4.61,0,3.52.53-.67,1.25,4.54,1.65,2,0,5.55-.8,4.82-1-.78,0-2-.23-2-.54l1.76-.14c.33-.94,1.61-1.86-2.56-2.58-1,.14-2,.32-2.94.43l-.92-.51c.82,0,1.64.1,2.46.11a5.35,5.35,0,0,0-3.28,0,2.13,2.13,0,0,0-1.17-.61c-1,.22-2,.4-3,.58-.3-.4,1.36-.57-.52-1-1.38.23,1.18,1-1.07,1-1.33-.63-.87-.88-2.55-.8-.18-.28.18-.37.84-.37-1.49.06-3.82-.55-4.65-.23a12.26,12.26,0,0,0-2.88-.89c-1-.26-1.79-.52-1.61-.93a13.16,13.16,0,0,1-4-.37c1.33-.15.13-.52-1.27-1s-3-1.08-2.49-1.51a5.47,5.47,0,0,1-1.88-.18c-.36-.1-.75-.21-1.15-.34l-1.14-.39-.56-.2-.3-.11c-.11,0-.06-.11-.1-.17l-.11-.39s0-.26-.07-.45-.05-.39-.07-.58a1.65,1.65,0,0,1,.16.75,10.87,10.87,0,0,1,.79-3.2c-.77-.3-.51-3.08-.65-4.68,1.2-2,.62,1.51,1.48,1-.66,0,.2-3.88-.47-3.27.85-1.55.57-1.37,1.41-2.07-.88-.53.23-1.59,0-3.13,1.09-2.31,1-.38,1.45-3.15C114.77,215,114.49,217.53,114.49,217.53Zm-9-55.61h0a4.55,4.55,0,0,0-.79.65A5.38,5.38,0,0,1,105.45,161.92Zm4.84-.76a22.46,22.46,0,0,1-2.59.23c-.21-.19,0-.4.59-.4C108,161.13,109.37,161.18,110.29,161.16Zm-11.51,3.27c.34-.93.61-1.18.78-1.24a11.68,11.68,0,0,0-.7,1.57s0,.09,0,.13A.9.9,0,0,1,98.78,164.43Z"/><path class="cls-3" d="M98.81,166.29a2.53,2.53,0,0,1-.09.38c.11-.16.21-.32.31-.48l0-.37C98.92,166,98.86,166.14,98.81,166.29Z"/><path class="cls-3" d="M210.31,209.15l-.1,0a.85.85,0,0,1,.25,0Z"/><polygon class="cls-3" points="97.44 112.23 97.53 112.35 97.86 111.99 97.44 112.23"/><path class="cls-3" d="M217.22,214.31a.83.83,0,0,0-.37.19A1.22,1.22,0,0,0,217.22,214.31Z"/><path class="cls-3" d="M207.58,222.92l-1.56,1C206.71,223.5,207.19,223.18,207.58,222.92Z"/><path class="cls-3" d="M199.37,228.5a.63.63,0,0,0,0,.31h0Z"/><path class="cls-3" d="M181.36,142.3l-.37-.15C180.11,141.85,180.7,142.08,181.36,142.3Z"/><path class="cls-3" d="M189.16,177.24c.09-.51.18-1,.32-1.53C189.12,176.49,188.87,177.1,189.16,177.24Z"/><path class="cls-3" d="M201.69,114.09h0l.16-.22Z"/><path class="cls-3" d="M190.33,173.66a8.14,8.14,0,0,0-.85,2.05A14.74,14.74,0,0,0,190.33,173.66Z"/><path class="cls-3" d="M159.3,242.83l-.47,0a.1.1,0,0,1-.05.1Z"/><path class="cls-3" d="M158.78,243l-.51.11A1,1,0,0,0,158.78,243Z"/><path class="cls-3" d="M157.17,243.33l1.1-.24A2.52,2.52,0,0,0,157.17,243.33Z"/><path class="cls-3" d="M172.2,240.54l.09-.23A.25.25,0,0,0,172.2,240.54Z"/><path class="cls-3" d="M176,239.39a34.85,34.85,0,0,0-3.64.73l-.08.19C172.8,239.83,175.27,240.06,176,239.39Z"/><path class="cls-3" d="M192.53,235.3c-1,.52-2.1.92-3.15,1.36.64-.06,1.48-.13.09.58C193.67,236,188.48,237.24,192.53,235.3Z"/><path class="cls-3" d="M201.87,230.2c-1.49,1.1.2.26.18.41C202.91,229.77,203.11,229.57,201.87,230.2Z"/><path class="cls-3" d="M190.05,210.34l.49-.23C189.7,209.26,190.37,210.24,190.05,210.34Z"/><path class="cls-3" d="M183.73,197.52c-.1.47-.22.95-.31,1.44l.51.66C183.82,198.92,183.78,198.22,183.73,197.52Z"/><path class="cls-3" d="M188.41,189.56l0,.58c.08-.74.24-1.48.35-2.22Z"/><path class="cls-3" d="M205.19,101.38c0,.26,0,.52.05.79C206.17,102.7,206.82,102.26,205.19,101.38Z"/><path class="cls-3" d="M152.18,88a5.54,5.54,0,0,0-2-2.09A13.14,13.14,0,0,0,152.18,88Z"/><polygon class="cls-3" points="91.6 109.51 91.63 108.35 91.37 110.5 91.6 109.51"/><path class="cls-3" d="M50.4,147.21c-.17-.19-.57-.08-.47.45l.68.37Z"/><path class="cls-3" d="M49.3,150.78c.34.62.92,1.3,1.52.87-.66-.58-.4-.74-1.18-1.37-.09-.53.19-.93.43-.85-.17-.18.12-.82-.31-1.09a2.33,2.33,0,0,0,0,2.47C49.6,151,49.42,150.82,49.3,150.78Z"/><path class="cls-3" d="M63.67,200.3l-.12-.33A1.1,1.1,0,0,0,63.67,200.3Z"/><path class="cls-3" d="M85,224.68c-.2-.15-.32-.16-.37-.12C84.86,224.67,85,224.76,85,224.68Z"/><path class="cls-3" d="M89,228.63l-.24-.23C88.86,228.52,89,228.63,89,228.63Z"/><path class="cls-3" d="M63.67,200.3l.28.85C64.17,201.09,63.85,200.69,63.67,200.3Z"/><path class="cls-3" d="M51.4,157.75a1.3,1.3,0,0,0-.22-.44c0,.14.08.28.11.42Z"/><path class="cls-3" d="M56.37,187.93l-.11-.24a1.53,1.53,0,0,0-.34-.09Z"/><path class="cls-3" d="M52.31,177.65c0,.25.61.16.87.17a.76.76,0,0,1-.53-.4A.85.85,0,0,0,52.31,177.65Z"/><path class="cls-3" d="M49.38,160.44l-.11-.3C49.3,160.22,49.34,160.35,49.38,160.44Z"/><path class="cls-3" d="M59.8,195.07a.41.41,0,0,0-.13.18A.31.31,0,0,0,59.8,195.07Z"/><path class="cls-3" d="M52.5,135h-.1C52.45,135,52.49,135,52.5,135Z"/><path class="cls-3" d="M48.93,147.21l0-.17a1.75,1.75,0,0,0-.32,0Z"/><path class="cls-3" d="M99.76,233.19l0,.08C99.74,233.86,99.76,233.55,99.76,233.19Z"/><path class="cls-3" d="M102.2,152.31c-.5-.05-.24-.35,0-.62s.45-.52-.34-.54C102,151.31,101,152.46,102.2,152.31Z"/><path class="cls-3" d="M51.35,158c0,.14,0,.29,0,.44A1.56,1.56,0,0,0,51.35,158Z"/><path class="cls-3" d="M101.86,151.15h0l-.15,0Z"/><path class="cls-3" d="M104.75,207.69a.8.8,0,0,0-.29.2C104.52,207.89,104.6,207.85,104.75,207.69Z"/><path class="cls-3" d="M99.93,224.38l.16-.39A1.89,1.89,0,0,0,99.93,224.38Z"/><path class="cls-3" d="M98.59,200.67c-.15-.14-.17-.25-.45-.32a.3.3,0,0,0,0,.1A.43.43,0,0,1,98.59,200.67Z"/><path class="cls-3" d="M92.86,194.69c0,.06,0,.13,0,.19l.16.23Z"/><path class="cls-3" d="M59.7,108.38a1.59,1.59,0,0,1-.63.18C59.49,108.59,59.09,109.88,59.7,108.38Z"/><path class="cls-3" d="M51.08,157.79a.31.31,0,0,1,.27.24l-.06-.3C51.2,157.71,51.13,157.71,51.08,157.79Z"/><path class="cls-3" d="M96.12,204.36a12.81,12.81,0,0,1-1.46-1A7.32,7.32,0,0,0,96.12,204.36Z"/><path class="cls-3" d="M86.32,130.55l-.4-.16A.73.73,0,0,0,86.32,130.55Z"/><path class="cls-3" d="M90.91,199.76a4.5,4.5,0,0,0-.26-1,.7.7,0,0,0-.23-.08A8,8,0,0,0,90.91,199.76Z"/><path class="cls-3" d="M59.07,108.56Z"/><path class="cls-3" d="M56.92,117.92c.43-1.29-.49-.84-.81-1.25.35-1.63.77-.54,1.31-1,.17-1-.22-2,.1-2.71.13,0,.23-.13.31.09a5.2,5.2,0,0,1,.49-2.15,5.07,5.07,0,0,0,.51-2.31.45.45,0,0,1,.24-.08,1.6,1.6,0,0,1-1-.23c.23-.58,0-1.26.58-1.27-.17.34,0,.45.06.68l.08-.68c.88-.25-.16.91.32,1.12.31-1.25.43-2.85,1-3.64.68.11-.77,2.16.32,1.24L59.59,107c1.46-.59-.46.79,1,.32,1-1.69.62-2.14,1.69-3.8-.13-.57-.56-.12-.69-.69a2.24,2.24,0,0,1,1.57-1.9c.26-.06.41.06.51,0s.08,0,.07-.26a3.14,3.14,0,0,1-.08-.38c0-.13.09-.34.16-.48a1.5,1.5,0,0,1,1.32-.61l-.19.89c1.79-.59.63-1.42,2.69-1.59-.24.39-1.33.73-1,.72,1.41.14.72-.71,1.66-1l.4.58a46.91,46.91,0,0,1,6-2.27c-.09.22-.41.48.12.61a10.08,10.08,0,0,1,4.06-.41,5.57,5.57,0,0,1,1.7.42,4.54,4.54,0,0,1,.53.33c.09.15.08.13.08.23a1,1,0,0,1,.61-.15c0,.1-.16.3-.32.23,0,.58.36-.13.68.08.16.41-.19.63-.42.41a5.89,5.89,0,0,1,.81,3,7,7,0,0,1-.69,3.47l-.1-.39c-.51,1.38.82,2,0,3.27l0-.3a38.83,38.83,0,0,0-1,5.27,28.59,28.59,0,0,1-.91,4.81c.44.28.31,1.18.35,2.08s.14,1.77.74,1.79c-.12,1.11-.15,1.56-.21,2.11a6.61,6.61,0,0,0,.1,1,7.68,7.68,0,0,0,.57,1.85,1.79,1.79,0,0,0,1,.81l.59.3a2.88,2.88,0,0,1,.63.42l-.43.44c.26.12.51.24.77.34l.79.23c.06.36.12.74.21,1.1l1,.43c-.36-.25-.64-.7-.48-.82a7.11,7.11,0,0,1,1.14.62,11.49,11.49,0,0,1,1.14.69c.72.4,1.29.79,1.28,1a11.73,11.73,0,0,0,3.94-.45c0,.24-.66.44-1.19.61,1-.38,1.11-.27,1.21-.1s.21.36,1.05-.13c-.26-.08.06-.38.07-.51a7.34,7.34,0,0,0,4.13-1.18l-.08.5c2.45-.94,4.64-2.63,6.89-4-.92.34-1.12-.4-.5-.88l.61.39c.21-.61-.81.23-.21-.74.87-.47,1,.26.59.75l.89-.83c.16.13,0,.36.06.6.09-.29.6-.41,1.11-.58l.38-.14.21-.09s0-.09,0-.27l.07.18c.09,0,.17-.2.28-.27s.17.06.24.22c.24-.17.36-.19.47-.14a1.18,1.18,0,0,1,.19.1c.08.05.22.24.37.34.24,1.49.18,3.2.52,5,.45,1.21.52.3.93.82-.47.16-.23,1.95-.7,1.06.31,2.14.4,2.73.79,5.45.22-.29.32-.63.49-.45.07.5-.25,1.13-.5,1l0-.13a7.58,7.58,0,0,1-1,4.73,10.81,10.81,0,0,1-.54,1l-.49.92a3.47,3.47,0,0,0-.51,1.45v-.1a2.07,2.07,0,0,1-.7,1.15c-.34,0-.25-.09-.16-.23a.28.28,0,0,0-.07-.43,1,1,0,0,1-.53.28,8.51,8.51,0,0,1-1,.15l-1.91.17a7.88,7.88,0,0,0-3.57,1.07c-1.24-.33-3,.54-4.58,1.81s-2.83,2.81-4.09,3.6l.38.1c-.17.78-.72.54-1.09.93.26.09.72-.43.6,0a58.58,58.58,0,0,0-4.33,7.94,40.33,40.33,0,0,0-2.78,8.6c-.35,2.16,1.65,1.41.61,4l-.61-.81c.22,2.2.24,4.38.3,6.57a21.34,21.34,0,0,0,1.06,6.43c-.2-.22-.4-.19-.48-.6a3.93,3.93,0,0,0,.26,2c.28.69.65,1.23.84,1.19.13.66-.3.24-.38.7,0,1,1.31,2,1,2.64,0,.1-.24-.2-.33-.34.38.5,1.06,2.65,1.31,1.89.45,1.63,1.67,2.7,2.17,4,1,.34,1.6,2.5,2.48,2.07-.36.26,0,1,.73,1.57a8.44,8.44,0,0,0,1.18.8,3.92,3.92,0,0,0,1.12.4c-.47,0,.7.74.13.85,1.18.63,2.4.87,2.33.37a2.4,2.4,0,0,0,.76.52l.1.05,0,0s0,0,0,0l.08,0a1.77,1.77,0,0,0,.49-.11.89.89,0,0,1,.3-.06.23.23,0,0,1,0,.17c0,.14-.2.33-.57.48.11.13.23.13.15,1.1,0,.75-.1,1.5-.18,2.24-.16,1.48-.38,2.93-.64,4.36-.84-.33.69-3.11-.27-3.21-.27,2.71.06,4.44-.83,7-.3.66-.28-.49-.37-.76-.33,2.77-1.4,5.21-1.42,7.77-.08,0-.12-.31-.13-.57-.08.49-.36,1.1,0,1.12v-.49c.73-.66.83,2.19,1.15,2.25-.51-.45-.67,0-.83.27s-.16.26-.3.22-.33-.25-.65-.58a1.49,1.49,0,0,0,.45.63c-.11.18-.25,0-.5-.39.12.76.49,1.14.41,1.91h0a.05.05,0,0,1,0,0c-.14-.31-.19-.58-.36-1,.05.17.11.35.15.53a1.27,1.27,0,0,0,0,.14l0,0a.24.24,0,0,1-.06.08.24.24,0,0,1-.18.06,1.48,1.48,0,0,1-.71-.42c0-.14-.11-.4.07-.28a6.1,6.1,0,0,0-1.61-.44l-.5-.16-.27-.11-.34-.2a7.4,7.4,0,0,1-1.34-1.06c1.09-.27-.51-.73-.17-1.41l-1.2-.6.21.61c-.91-.71-2.11-.84-2.7-1.7l.85.31L86,222l.77,1c-1.15-.46-.49.82-1.56-.34.29.14-.89-.76-1.08-1.49h0a3.18,3.18,0,0,1-1.76-1.08c0-.33.68-.5.68-.71-.83.07-2.09-1.74-3.07-1.76a.53.53,0,0,0,.56-.33l-.7,0c-.28-.49-.28-.6,0-.76-1.11-1.18-.29,1-1.4-.59.14.08.14,0,.42.13-1.24-1.48-2.8-2.49-3.85-3.94.21-.89,1.2,1,1.26.14-1.89-1.71-4.13-3.41-5.59-5.43l.23.41c-.52.2-.72-.24-.92-.81a2.93,2.93,0,0,0-.94-1.67c.24.21.71,0,.56,0A11.13,11.13,0,0,0,68,202.7c-.66-.73-1.49-1.47-2.29-2.49l.4.12c-.33-1-1.28-2.31-1.74-3.28-.41-.13-.7-.68-.84-.16a7.61,7.61,0,0,0-.74-2.39,13.94,13.94,0,0,0-1.31-2,17.88,17.88,0,0,1-1.32-1.89,4.93,4.93,0,0,1-.58-2.2c.15.32.56.66.45.41l-1.28-2.18c-.34.37-.12.42-.22,1a2.92,2.92,0,0,1-1.14-1.32c.76.92.67-.31.71-.85-.1.13-.31,0-.43.13.22-1.52-1,.18-1.12-1.72h.26a7.17,7.17,0,0,1-1.08-1.76c.39-.48.49.58.92.46-.39-.93-1.67-1.53-1.51-2.58.3.36.53.94.82,1.3a3,3,0,0,0-.13-1.94v.07c-.13-.56-.21-1.14-.29-1.72l0,.48c-1.7-.78-1-2.4-2.39-3.78,1.32,1.36.56.12,1.18.07,0-.46,0-1.15.24-1-.73-.64,0-1.39-1-2.31.18-.1-.18-.85.34-.79-.4-1-.28.32-.53.3a5.29,5.29,0,0,1-.61-2.74,13.42,13.42,0,0,0-.21-1.61,4.8,4.8,0,0,0-.59-1.63c-.71-1.91-1.42-2.18-2.06-4,.2-.67.79.42.79.42a5.83,5.83,0,0,0-.33-2.74c.19.17.32,0,.5-.36-.12-.76-.75-.44-.57-1.48a3,3,0,0,1,.86.69c-.27-.88-.73-1.74-1-2.66.32-.28.58.52.83.83-.13-.52-.28-1.19-.45-1.77a2.06,2.06,0,0,0-.61-1.22l-.17.69c0-.39.45-.23.56,0,.44.88-.07,1.31-.28,1.38l-.19-.66c-1.08.77.45,2.68.52,4l-.88-.47.82,1.31c-.18.32-.62.58-.81-.08-.31,1,.38.83,0,1.72-.06.1-.11.07-.15,0l.4.91c-.2-.16-.55.24-.53-.36-.19,1.78,1.08,2.64.56,3.39l-.07-.14c.67,2.31.64.13,1.64,1.75-.43.49-.86,1-1.25,1.48l.65.1c0,.24.11.73-.15.69.62.8.22-.21.73.22-.27,1.28,1,3.11.13,3.61.55.29.08-1.19.69-.05-.47.31-.34.66-.12,1.07a2.41,2.41,0,0,1,.51,1.46c-.62-.17-.65-1.23-.79-.06,1.07.37.43,2.08.87,2.91.36-.09.58.37.79,1l.35,1.07a9.82,9.82,0,0,0,.5,1.09c-.26,0,.66,2.84.94,4.28H55.1c.75,0,1.22,1.39,1.82,2.3-.42.14-.66,0-1.09-.42l.43.92c.32.12.56.36.91.92h-.6a14.54,14.54,0,0,0,1.13,1.77,9.31,9.31,0,0,1,.57,1,5.44,5.44,0,0,1,.48,1.15c.5-.16.62-1.85,1.79-.42-.22.19-.61.47-.93.1.1.12.47.38.51.72l-.76-.43c.19.79.54.18.8.75-.35.18,0,.55-.35.61-.11-.12-.11-.56-.36-.7a3.81,3.81,0,0,1,.35,1.93c.17-.17.46-.26.76.18.66,1.17-.2.63,0,1.43.38.16.58,1,1.11.76.21.33,0,.54-.05.75.6.46,1.8,2.73,1.91,1.73l-.06-.18.09.09h0a11.59,11.59,0,0,1,2,2.89,16.5,16.5,0,0,0,1.91,2.94l-.17.11c.49.48.95,1.08,1.41,1.61a6.25,6.25,0,0,0,1.45,1.2c.25.31.31.95,0,1a4.88,4.88,0,0,1,1.71,2c-.92-.58,0,.48-.87-.66.74,1.14.65,1.63,2.06,2.32-.72,0,.22,1.17.77,1.54l-.38-.94a11.29,11.29,0,0,1,1.34,1.47l-.72.2a6.37,6.37,0,0,0,2.79,2.6,4,4,0,0,1,2.27,2.42c.85.16-.87-1.28,0-1.22.85.93,1.18,2.55,1.47,2.83,1.1,1.41,1.89.32,3.12,1.67,0-.33.22-1,1.39-.26.91.87.57,1.77-.16,1.4-.25-.18-.32-.33-.26-.38-.37-.2-.85-.47-.62.06l.28-.08c.33.59,1.7,1.7,1.14,1.74.92.39.56-.05.08-.6,1.09,1.27,2,1.53,3.27,2.72-.14-.26-.18-.64,0-.48,1.82,1.7,1.11.27,2.55,1.18.84,1-.81.5,1.25,1.47,1.16,1,.17.85-.47.67A10,10,0,0,1,95,233c.86.72,1.71,1.51,2.35,2l-1.08-.46a13.1,13.1,0,0,1,1.8,1l-.89-1.13c.67.53,1.22.88,1.34,1.19.24,0,0-.44-.22-.81a1.23,1.23,0,0,1-.17-.5.14.14,0,0,1,.06-.15.16.16,0,0,1,.08,0s.07,0,.09-.08l0,0a8.08,8.08,0,0,0,.21-1.73c.05-.64.14-1.12.44-1-.27,1.44-.12,1.56.07,1.68s.42.16.3,1.78a10,10,0,0,1,.24-2.18c.07,0,.1.27.11.56.89-3.08-.5-2.41,0-5.47.14.26.33.13.49-.15a3.63,3.63,0,0,0,.21-.47.58.58,0,0,0,.06-.27c-.07.32-.25.55-.4.35a1.88,1.88,0,0,1-.39-.84c.5-1.14.06-1.34.22-2l-.28.69c-.29-.31-.13-.91-.05-1.77.29,0,0,.8.21.53-.41-1.07,1.1-2,1-3.33.38-.54.66.1,1-.39-.08-1.55.86-1.44.89-3.06-.57.32-.48.43-.65-.76l-.33,2.59-.25-1.78c-.21.75-.12,1.67-.32,2.1-.18-.86-.08-.75-.56-.49,1-.86.13-2.16.91-3.24l1.13.33c1-1.68.25-3.37,1.08-5.7l-.37.72c-.38-.42.27-1.49.24-2.32.38.15.62-.31.92-.61-.07,0-.08-.12-.08-.29s0-.47.07-.75c.07-.72,0-1.51-.36-1.59a14.89,14.89,0,0,0,.62-1.75,6,6,0,0,0,0-1c0-.13,0-.32-.07-.38l-.43,0a8.6,8.6,0,0,0-1.54,0c-.47,0-.9.11-1.39.12A3.55,3.55,0,0,1,100,202c.31-.13.3-.32.36-.47a.39.39,0,0,1,.19-.19c.07-.07.37,0,.88,0a5.36,5.36,0,0,1-.67-.19l-.32-.08c-.19,0-.32,0-.37.1-.17-.36-1.63-.08-1.88-.73-.28,0-.58.35-1.11,0,0-.11.12-.16.12-.16-.11.17-1-.41-.78.29a5.07,5.07,0,0,0-.88-1.42c-.37-.46-.83-.87-1.22-1.36l-.6-.69a7.59,7.59,0,0,1-.47-.74,2.46,2.46,0,0,1-.4-1.46,16.59,16.59,0,0,1-1.92-3.55c.14,0,.19-.06.22.16-.17-1.66-1.45-.58-1.55-2.56.37-1.09.59.89.67.24.59-.3.4-.82.13-1.46a3.09,3.09,0,0,1-.33-2.09l.13.28a3,3,0,0,0-.32-1.7,5.46,5.46,0,0,1-.56-2.15s.12.07.19,0c-.77-1-1-3.11-1.23-4.67.51.49.26.71.78.42-.06-.69-.83.2-1-1.2.29-.45.58-1.44,1.15-1.53,0,.43,0,.86,0,1.29.74-.63.06-1.66.25-2.34l.3.12c.09-2-.69-2.09-.29-4.2l-.27.18c-.56-1.31.61-.89.28-2.15l.85-.16a18,18,0,0,1,.27-4.17,24.61,24.61,0,0,1,.2,3.59c.18-.73.64-2.45.41-2.95a1.83,1.83,0,0,1-.17,1,5.46,5.46,0,0,1,.43-3.76c.65.43,1.12-.43,1.68-1.4S94.43,158,95.22,158a7,7,0,0,1,2.36-2.91,29.73,29.73,0,0,1,3.31-2.1c-1.45-.58.7-.41,0-1.43.61-.34.87-.43,1-.39H103l1.08.09c.53.23-.54.42-.41.67,1.36-.26.69.37,1.6.51-.25-.41.38-.69,1.17-.58-.38-.18-.76-.3-1.17-.46a1.71,1.71,0,0,1,1.85.06l.17.09.27.08a2.91,2.91,0,0,0,.65.09,3.76,3.76,0,0,0,2.09-.69,6.59,6.59,0,0,1-1.09.79,8.72,8.72,0,0,0,2-1,6.8,6.8,0,0,0,1.8-1.83,4.49,4.49,0,0,0,.92-3.43c.21-.17.63-.37.51.23a13,13,0,0,0,.78-5,19.15,19.15,0,0,1,.2-4.3l.31.23c-.1-.56-.58-1-.29-1.67.12,0,.3.21.31,0a5.18,5.18,0,0,1-.49-2.19c.14.2.26.4.38.6.15-3-1.32-4.34-2-6.62.43-.09.62-.71.62-1.46a9.11,9.11,0,0,0-.06-1.16l-.08-.56,0-.27-.09-.39.14,0a17,17,0,0,0-.76-2l-.41-.92c-.14-.29-.3-.54-.45-.81-.3-.51-.59-1-.89-1.47l-.45-.69s0-.16-.12-.11l-.19.12-.39.25a33.75,33.75,0,0,0-2.89,2c-.9.7-2,1.51-2.44,1.89-2.16.18-5.49,3.11-8.21,3.78.45-.05.25.66-.17.93-.65.12-1.42,1.25-1.6.46l.21-.07c-.72-.54-1.79,0-2.67.15l0,1.06a37.17,37.17,0,0,0-3.93-.85c-1.27-.34-2.37-1.18-2.2-2a2.83,2.83,0,0,1-.69-.53,8.08,8.08,0,0,0-.65-.66l.52-.21a13.11,13.11,0,0,1-.48-1.89c-.13-.63-.26-1.33-.4-2.38l.44.39a2.07,2.07,0,0,0-.87-1.31,1.8,1.8,0,0,1-.85-1.36l.86-.33c.09-2.24,1.16-4.4.84-6.78a.49.49,0,0,1,.31.55c.21-1.08,1.41-4,.2-3.91.75.14.61-2.55.37-4l.54.27a6.44,6.44,0,0,1-1-2.91c.05-.4.43-.37.31.17a1.46,1.46,0,0,0-.21-1.22,2.88,2.88,0,0,1-.39-1.45l.5.55c-.33-1.47-.55-1.36-1.33-1.93a10.54,10.54,0,0,0-1.38-1.38l-.36-.34-.3-.27a1,1,0,0,1-.32-.48,2.58,2.58,0,0,1-.79.26,3.13,3.13,0,0,1-1.13-.08c-.09-.2.22-.29.38-.33a5.16,5.16,0,0,0-2.75,0,4.31,4.31,0,0,1-2.11.18.43.43,0,0,0-.3-.3,13.07,13.07,0,0,1,3-.15c0-.54-1.5-.55-.33-1.32-1.26.42-3.07,1.48-4.43,1.5a.7.7,0,0,1-.21-.14l.13-.09a1.85,1.85,0,0,0-.83.26,4.67,4.67,0,0,0-1.13.09c-.25-.38-1.6.15-2.27.33.21.53-.67.68.26.9-.12,0,.1-.1.53-.24a1.13,1.13,0,0,0,.27-.13l0,.06c.43-.14,1-.28,1.64-.45a2,2,0,0,1-1.74.66c-.25.44-.51.9-.67,1.12-1.09-.51-2.93-.36-3.32-.73-.94.47-2.07.94-3.06,1.48l-.72.42-.33.23-.46.3a5.46,5.46,0,0,0-.74.58c-.12.07-.13.24-.15.39a2.13,2.13,0,0,0,0,.43.9.9,0,0,1-.47.6,3.74,3.74,0,0,1-.47.14,5.25,5.25,0,0,1,.23-.65,1.8,1.8,0,0,0,.18-.61c-.08.22-.17.45-.28.69l-.27.62c-.16.35-.32.72-.47,1.07-.3.69-.44,1.34-.18,1.63-1,1.15-.23-1-1,.8l-.08-.34a5.91,5.91,0,0,0-1.41,2.38,14.24,14.24,0,0,0-.56,2.51,9.61,9.61,0,0,1-2,5.18c.18-.26.29-.38.42-.4A30.6,30.6,0,0,0,52,119.36c-.3,1.24-.62,2.48-1,3.71a27.86,27.86,0,0,1-1.26,3.56c-.51,1.33,0,1.58.14,2.48l-.65.19.42,1.56c.19,2.1-2,3.34-1.34,6.07l.45-.29c-.21.93,0,3-.49,2.79.07.1.4.34.16.69h-.32c.11.79.27,1.57.41,2.34-.31,1.78-1.27-.34-1.4,2.29.1,1,.87,2.8,1.09,2.43,0-.39.21-1,.53-1l.15.89c.93.17,1.87.81,2.56-1.29l-.55-1.49.47-.45c0,.41,0,.82,0,1.23.43-.69.06-1.14-.16-1.65a1,1,0,0,0,.52-.59l-.81-1.49c.37-.16.69.68.94-.27-.38-.7-.86.6-1.06-.54.48-.68.81-.44.52-1.3.25-.09.38.1.46.43-.22-.76,0-1.95-.41-2.37.61-.68.16-2.5,1-2.31a4.43,4.43,0,0,1-.44-2c.86,1.37.44-2.5,1.53-2a3.28,3.28,0,0,1-.23-2.26,11.79,11.79,0,0,0,.26-2.73c0,.11.17.31.09.44a4.87,4.87,0,0,1,.92-1.58c-.73-.3-.56-1.72-.83-2.59,1-.88.71.89,1.51.74-.65-.11-.09-2-.71-1.81.69-.69.42-.64,1.17-.88-.9-.42,0-.81-.3-1.66.84-1,1,0,1.1-1.4C57,116.67,56.92,117.92,56.92,117.92ZM74.7,96.4h0c-.26,0-.49.11-.63.15Zm2.6-.35a8.53,8.53,0,0,0-1.13.1.26.26,0,0,1,.23-.42C76.27,95.89,76.91,95.9,77.3,96.05Zm-6.47-2.8c.43-.19.6-.12.69,0l-.76.25,0,.08A.68.68,0,0,1,70.83,93.25Z"/><path class="cls-3" d="M70.22,94.17a1.31,1.31,0,0,1-.17.09l.3,0,.1-.21Z"/><path class="cls-3" d="M63.53,199.92l0,.05a.32.32,0,0,1,0-.14S63.54,199.88,63.53,199.92Z"/><polygon class="cls-3" points="83.03 128.39 83.13 128.29 82.83 128.14 83.03 128.39"/><path class="cls-3" d="M58.1,185.56a.45.45,0,0,0,0-.24A.38.38,0,0,0,58.1,185.56Z"/><path class="cls-3" d="M55.83,179.45c0-.31-.11-.61-.13-.93A3.81,3.81,0,0,0,55.83,179.45Z"/><path class="cls-3" d="M54.57,174.6a.9.9,0,0,0-.26,0h0Z"/><path class="cls-3" d="M96.18,224a1.5,1.5,0,0,0,0-.2C96.19,223.26,96.16,223.59,96.18,224Z"/><path class="cls-3" d="M84.17,221.19a5.34,5.34,0,0,1,.76.28C84.63,221.17,84.39,221,84.17,221.19Z"/><path class="cls-3" d="M96.29,204.47h0l-.17-.1Z"/><path class="cls-3" d="M85.77,222.19a2.22,2.22,0,0,0-.84-.72A3.41,3.41,0,0,0,85.77,222.19Z"/><path class="cls-3" d="M51,153.32l0-.24a.17.17,0,0,1-.1,0Z"/><path class="cls-3" d="M51,153.05l-.07-.26C50.88,152.91,50.89,153,51,153.05Z"/><path class="cls-3" d="M50.72,152.24l.16.55C50.87,152.6,50.88,152.36,50.72,152.24Z"/><path class="cls-3" d="M51.41,159.92l.21.05A.28.28,0,0,0,51.41,159.92Z"/><path class="cls-3" d="M51.78,161.89a6.21,6.21,0,0,0,0-1.88l-.16,0C51.94,160.24,51.37,161.49,51.78,161.89Z"/><path class="cls-3" d="M51,170.7,50.73,169c-.14.34-.33.79-.57,0C50,171.3,50.53,168.48,51,170.7Z"/><path class="cls-3" d="M52.08,176c-.37-.86-.3.1-.43.09C52,176.56,52.1,176.68,52.08,176Z"/><path class="cls-3" d="M70.23,210l-.45.25C70.29,210.74,69.94,210.11,70.23,210Z"/><polygon class="cls-3" points="77.05 213.73 76.82 213.01 76.26 213.09 77.05 213.73"/><polygon class="cls-3" points="77.52 219.38 77.24 219.21 78.25 219.91 77.52 219.38"/><path class="cls-3" d="M94.07,195.72l-.41.51C94,196.54,94.62,196.2,94.07,195.72Z"/><path class="cls-3" d="M89.78,170.23a1.38,1.38,0,0,0,.49-1.44A7,7,0,0,0,89.78,170.23Z"/><path class="cls-3" d="M91.42,126.89a4.23,4.23,0,0,0,.41-.23c-.27.09-.51.12-.78.2Z"/><path class="cls-3" d="M244,147.21c.18.25.57.11.48-.56l-.68-.46Z"/><path class="cls-3" d="M245.14,142.71c-.34-.77-1-1.63-1.56-1.09.7.73.43.93,1.21,1.73.09.67-.18,1.17-.43,1.06.18.24-.12,1,.3,1.39a3.55,3.55,0,0,0,0-3.11C244.84,142.43,245,142.66,245.14,142.71Z"/><path class="cls-3" d="M222.1,82.45l.22.38A1.53,1.53,0,0,0,222.1,82.45Z"/><path class="cls-3" d="M189.94,57.48c.29.12.43.12.47.07C190.13,57.46,189.9,57.4,189.94,57.48Z"/><path class="cls-3" d="M183.78,54l.37.18A.52.52,0,0,0,183.78,54Z"/><path class="cls-3" d="M222.1,82.45c-.17-.33-.36-.65-.56-1C221.32,81.58,221.81,82,222.1,82.45Z"/><path class="cls-3" d="M242.73,134a1.73,1.73,0,0,0,.24.55c-.05-.18-.1-.35-.14-.53Z"/><path class="cls-3" d="M233.09,96.81l.17.29a2,2,0,0,0,.37.11Z"/><path class="cls-3" d="M239.4,109.22c-.11-.3-.67-.18-1-.19a1,1,0,0,1,.63.47A.62.62,0,0,0,239.4,109.22Z"/><path class="cls-3" d="M244.5,130.59l.15.37Z"/><path class="cls-3" d="M227.7,88.42a.35.35,0,0,0,.09-.22A.28.28,0,0,0,227.7,88.42Z"/><path class="cls-3" d="M241.46,162.62s.07,0,.1,0S241.48,162.52,241.46,162.62Z"/><path class="cls-3" d="M245.5,147.21l0,.22a1.12,1.12,0,0,0,.31,0Z"/><path class="cls-3" d="M171.64,49.35l.06,0C172,49.41,171.85,49.37,171.64,49.35Z"/><path class="cls-3" d="M214.26,101.47c-.08-.6.29-.31.65,0s.66.5.46-.44C215.25,101.21,213.79,100.1,214.26,101.47Z"/><path class="cls-3" d="M242.76,133.6c0-.18-.06-.36-.08-.55A2.08,2.08,0,0,0,242.76,133.6Z"/><path class="cls-3" d="M215.37,101h0l-.06-.18Z"/><path class="cls-3" d="M148.29,58.49a.82.82,0,0,0,.24-.3C148.48,58.19,148.41,58.26,148.29,58.49Z"/><path class="cls-3" d="M164,48.92l-.53-.16A3.32,3.32,0,0,0,164,48.92Z"/><path class="cls-3" d="M150.22,70.1a1.91,1.91,0,0,0,.16.82.74.74,0,0,0,0-.14A.93.93,0,0,1,150.22,70.1Z"/><path class="cls-3" d="M156.18,81.13a2.72,2.72,0,0,0-.11-.25c-.1-.07-.21-.18-.31-.26Q156,80.88,156.18,81.13Z"/><path class="cls-3" d="M231.69,191.8l.18.81,0,.11a3.49,3.49,0,0,1,0-.64c0-.09,0-.14,0-.16s0,.07-.08,0Z"/><path class="cls-3" d="M243,133.91a.4.4,0,0,1-.28-.31c0,.13.05.26.07.38S243,134,243,133.91Z"/><path class="cls-3" d="M154.64,69.49a16.37,16.37,0,0,0,.39,1.64C154.94,70.67,154.77,70.09,154.64,69.49Z"/><path class="cls-3" d="M210,161.3l-.05.45A.81.81,0,0,0,210,161.3Z"/><path class="cls-3" d="M157.12,75.44a2,2,0,0,0,.17,1,.49.49,0,0,0,.23.06A8.84,8.84,0,0,1,157.12,75.44Z"/><path class="cls-3" d="M231.9,192.73h0Z"/><path class="cls-3" d="M234.82,183.75c-.7,1.57.34,1,.59,1.53-.64,2-.88.67-1.51,1.15-.38,1.24-.18,2.44-.64,3.29-.14,0-.26.16-.3-.1a3.92,3.92,0,0,1-.33,1.22l-.07.16,0,.07,0,.12-.11.26a4.18,4.18,0,0,0-.39,1.63,1.24,1.24,0,0,1-.1-.35c.15.74.27,1.18.32,1.68,0,0,0,.05,0,.05l0,0-.07-.06c-.28-.21-.61-.21-.7-.88.23.29.25.05.34,0a2.05,2.05,0,0,1-.37-.15c-.21-1.19.49.25.43-.52-.22-.11-.54-.23-1-.41l-.41-.18-.56-.28c-.37-.19-.67-.4-1-.57.13-.84,2.86,1.47,1.61,0l.43.34a1.72,1.72,0,0,1,.15.2l.29.42c-.11-.79,0-.65.07-.6s.1.11.13-.62l-.07-.12,0,0-.34-.2c-.44-.25-.81-.43-1.2-.61l-1.42-.48c-.52-.17-1.15-.29-1.95-.53-.76.31.14.58-.59.89a14.55,14.55,0,0,1-2.32,0,6.21,6.21,0,0,1-1.31-.36,2.46,2.46,0,0,0-2.72.32c-.59.69-.57,1.54-2.57,1.9l.34-1c-2.46,1-.92,1.59-3.53,2.36.28-.49,1.67-1.16,1.28-1.06-1.83.27-.9,1-2.05,1.59l-.57-.45c-2.32,1.43-4.48,3.43-6.87,5,0-.25.34-.69-.34-.52a24.35,24.35,0,0,1-4.23,2.49l-1.11.48a1.94,1.94,0,0,1-.43.09.53.53,0,0,1-.45-.15.65.65,0,0,1,0-.31.82.82,0,0,1-.59.13c0-.12.22-.27.34-.25.08-.17,0-.14-.15-.09s-.34.18-.47.08,0-.47.12-.54.24-.05.35.14a10.91,10.91,0,0,1-.62-4.17,10.31,10.31,0,0,1,1-4.4l.06.5c.68-1.77-.61-2.41.44-4v.36c1.51-3.93,2.86-8.5,4.94-11.21-.54-.9,2-3.83,1-4.54,1.46-2.11,1.42-1.34,3-4.56.37-.89-.23-1.59,0-2.75l.6.16c-.05-.58-.09-1.15-.15-1.73l.94-.63.13-1.13c-.14.43-.5.86-.65.74.2-1.73,1.36-4.07,1.67-4.08a34.29,34.29,0,0,0,0-4.3c.23.1.3.84.39,1.42-.47-2.35.71-.38.21-2.55-.15.29-.37-.16-.49-.21a10,10,0,0,0-.34-5.32c.17.09.34.17.49.26a18.69,18.69,0,0,0-5.26-9.57c.78,1.14,0,1.37-.77.65.06-.25.12-.52.16-.77-.77-.19.63.95-.73.33-.93-1-.18-1.18.56-.78a14.63,14.63,0,0,0-1.42-.95c0-.21.42,0,.66-.17-.4-.06-.86-.64-1.41-1.21-.86-.73-.42-.54-.85-.4l.16-.12a7.35,7.35,0,0,0-.9-.25s0-.05.13-.08c-1.07-.19-.6-.22-.94-.56a14.4,14.4,0,0,1,1.44-.18s0,0,.06,0l.2-.08.43-.15c.28-.11.56-.22.84-.35a13.37,13.37,0,0,0,1.67-.88c1.4-1.17.2-.68.7-1.39.19.18.82-.08,1.27-.28s.75-.33.32.21a21.73,21.73,0,0,0,2.75-2.37,23.7,23.7,0,0,0,2.67-3.28c-.44.18-.82.47-.79.17.41-.56,1.17-1.07,1.31-.84l-.08.18a65.51,65.51,0,0,1,4.12-5.71c1.42-1.95,2.57-4.13,2.5-6v.21a19.89,19.89,0,0,0,.09-3.78c.22-1.72.31,1.08.72-.19-.29-2.11-.46-3.72-.75-5.26a9.69,9.69,0,0,0-1.84-4.34c0-1.52-1.46-3.6-3.37-5.13s-4.06-2.73-5.33-4v.41c-.93-.1-.83-.69-1.38-1,0,.29.7.7.13.64-3.35-1.43-6.76-2.75-10.23-3.93a104.05,104.05,0,0,0-10.46-3c-2.56-.54-1.76,1.55-4.85.2l1-.51c-5.28,0-10.55-1.54-15.66-1.5.32-.12.35-.31.84-.25a5.39,5.39,0,0,0-2.34-.44c-.82,0-1.45.11-1.5.29-.68-.18-.1-.37-.46-.66-.81-.45-2.38-.06-2.65-.71,0-.1.29,0,.46,0a4.07,4.07,0,0,1-1.38-.51c-.47-.23-.83-.38-.74,0-1.16-1-2.53-1.69-3.07-2.94-.5-.14-.82-.8-1.11-1.36s-.5-1.1-1-1c.79-.25-.47-3-1.13-4,.36.28,0-1,.52-.68-.33-1.2-.66-2.34-1.09-2a6.54,6.54,0,0,0-.31-3.46c-.26-1.06-.46-2,.21-2.72a45,45,0,0,1-.54-5.69c0-.93,0-1.85,0-2.76,0-.47,0-1,0-1.44a1.41,1.41,0,0,1,.37,1.18,2.62,2.62,0,0,0,0,.28,3.66,3.66,0,0,0,0,.59c0,.35.15.56.39.54l0-.61,0-.3a.82.82,0,0,0,0-.22l-.14-.4a6,6,0,0,1-.22-1,1.91,1.91,0,0,1,.72-.19h.24a2.45,2.45,0,0,1,.36,0q.57,0,1.2.12c.86.18-.53.35-.83.49,3.42-.1,6.5.78,9.55.83,0,.08-.36.11-.67.13.59.07,1.34.36,1.35-.05h-.6c-.42-.37.22-.58,1-.73a7.15,7.15,0,0,0,1.75-.31c-1.24.93,2.88.93,1,2,.4,0,.92-.07.9-.36.55.2.69.4,0,.58,2.13.26,1.5-.31,3.37.19-.06.19-.45.16-.71.34a6.23,6.23,0,0,1,3.64.4c-.13.08,0,.29-.46.14a26.76,26.76,0,0,0,3.82.71,13,13,0,0,1,3.87,1.27c-1.17.48.89.62.75,1.4l1.6.45-.47-.6c1.33.61,2.76.57,3.78,1.37-.37-.06-.73-.14-1.11-.19l2.52,1.06-1.27-.93c1.5.3.27-.93,1.94.12-.4-.1,1.33.64,1.8,1.41h0a4.88,4.88,0,0,1,2.39,1c.14.35-.6.61-.51.84a3.91,3.91,0,0,1,2,.68,5,5,0,0,0,2.14.8c-.34,0-.56.3-.52.42l.78-.12c.5.49.54.61.28.82,1.67,1.15,0-1.18,1.78.51-.18-.08-.15,0-.52-.12a24.33,24.33,0,0,0,3,2,15.88,15.88,0,0,1,2.75,2c.08,1-1.67-1-1.44-.06,1.32.89,2.79,1.71,4.17,2.64.7.45,1.39.91,2,1.39a21.32,21.32,0,0,1,1.79,1.59l-.37-.45c1-.48,1.41,1.91,2.84,2.68-.33-.22-.77.06-.61,0a18.6,18.6,0,0,0,2.48,2.31c.94.79,2,1.68,3.22,2.76l-.48-.12c.7,1.07,2,2.62,2.83,3.72.47.14.94.77.94.16a9.83,9.83,0,0,0,1.45,2.77c.59.81,1.28,1.52,1.92,2.26s1.29,1.45,1.85,2.22a7.23,7.23,0,0,1,1.16,2.59c-.23-.37-.76-.77-.57-.47.62.85,1.26,1.7,1.87,2.56.28-.46,0-.5,0-1.25a3.8,3.8,0,0,1,1.48,1.56c-1-1.1-.64.39-.56,1,.07-.16.31,0,.41-.17.09,1.85,1-.21,1.57,2h-.27a10,10,0,0,1,1.48,2.11c-.3.58-.62-.7-1-.55.59,1.13,2.06,1.82,2.06,3.12-.34-.45-.72-1.14-1.09-1.57a5.17,5.17,0,0,0,.5,2.37l0-.09.61,2.09-.06-.57a3.38,3.38,0,0,1,1.7,2,6.9,6.9,0,0,0,1.43,2.6c-1.57-1.66-.59-.14-1.22-.08,0,.57.16,1.41-.08,1.25.84.78.18,1.72,1.32,2.85-.17.12.32,1-.22,1,.56,1.21.23-.4.5-.37a4.43,4.43,0,0,1,.67,1.53c.13.58.21,1.21.3,1.86a11.16,11.16,0,0,0,1.19,4c.93,2.39,1.7,2.72,2.41,5-.17.84-.81-.52-.81-.52a8.3,8.3,0,0,0,.57,3.42c-.2-.22-.31.06-.48.45.17,1,.78.55.66,1.86a3.23,3.23,0,0,1-.9-.86c.31,1.11.83,2.18,1.12,3.35-.3.34-.57-.67-.85-1.05.33,1.29.58,3.39,1.16,3.76l.13-.87c.06.49-.44.29-.56-.06-.51-1.1.06-1.66.25-1.74l.19.83c1.12-1-.55-3.37-.69-5.06l.91.6-.9-1.65c.15-.39.57-.72.83.1.2-1.28-.48-1-.21-2.15.05-.12.1-.08.15,0l-.45-1.14c.21.2.54-.31.55.45.13-2.25-1.28-3.31-.84-4.24l.09.16c-.93-2.87-.66-.15-1.85-2.17.38-.61.71-1.22,1.07-1.84l-.67-.12c-.06-.31-.18-.91.08-.87-.71-1-.2.26-.76-.28.18-1.6-1.45-3.84-.63-4.46-.6-.36.11,1.47-.69.06.83-.76-.72-1.7-.78-3.12.66.2.85,1.52.82.07-1.16-.45-.77-2.56-1.36-3.59-.69.23-1.29-2.18-2.29-3.85.29,0-1.23-3.45-1.85-5.17h.13c-.82,0-1.6-1.65-2.39-2.75.41-.18.68,0,1.21.49l-.63-1.11A3.08,3.08,0,0,1,232.09,96h.63c-.94-1.43-2.3-2.6-3.27-4.58-.49.19-.21,2.21-1.78.53.18-.23.52-.57,1-.14a2.33,2.33,0,0,1-.71-.83l.9.49c-.39-.94-.61-.21-1-.89.33-.21-.11-.64.21-.73.15.15.26.67.56.83a6.14,6.14,0,0,1-.86-2.27c-.13.2-.43.32-.86-.18-1.05-1.33,0-.74-.42-1.66-.46-.16-.9-1.2-1.38-.86-.29-.4-.15-.63-.15-.88-.76-.51-2.69-3.11-2.53-1.94l.11.2-.11-.1h0c-2.31-1.78-3.73-4.67-6-6.48l.14-.14a23.74,23.74,0,0,0-4-3c-.37-.34-.64-1.07-.33-1.1a8,8,0,0,1-2.59-2.09c1.23.56-.16-.53,1.19.66-1.21-1.2-1.28-1.75-3.07-2.41.81,0-.64-1.27-1.38-1.64l.74,1a18.35,18.35,0,0,1-2-1.52l.74-.28a10.64,10.64,0,0,0-4.08-2.54c-1.38-.58-2.66-1.07-3.44-2.36-1-.08,1.45,1.27.46,1.3a8.86,8.86,0,0,1-1.68-1.67A8.11,8.11,0,0,0,196,59.6c-1.78-1.36-2.24-.18-4.18-1.41.15.35.11,1-1.51.48-1.39-.77-1.34-1.76-.34-1.48.35.15.48.3.43.36.51.15,1.16.36.71-.15l-.3.12c-.6-.57-2.61-1.51-2-1.63-1.22-.28-.64.14.13.62-1.75-1.14-2.94-1.31-4.82-2.33.27.24.46.61.14.49-2.8-1.37-1.44-.06-3.44-.7-1-.75.7-.68-1.4-1.1-1.15-.62-.06-.68.5-.7-2-.16-3.36-1.41-4.41-1.81.35,0,.69.08,1,.12a13.24,13.24,0,0,1-1.6-.36l.43.61c-.56-.24-1-.37-1-.56-.68.14.25.88-1,1-.7-.44-2.4-.38-2.51-1.06,2.37.86-.12-.69,2-.23a5.08,5.08,0,0,1-1.47-.41c-.07-.09.12-.1.28-.1-2.22-1.12-1.25.44-3.68-.11.39-.28-.42-.79-.84-.8,1,.22.35.68-.6.75-1.52-.57-1.75-.09-2.56-.27l.92.29c-.38.29-1.16.12-2.26,0-.06-.29,1,0,.65-.21a3,3,0,0,1-2-.38,5,5,0,0,0-2.39-.47c-.76-.33,0-.67-.68-.91a4.13,4.13,0,0,1-2-.24,4.68,4.68,0,0,0-.86-.22,4.15,4.15,0,0,0-.55,0H153.6c1.08.55,1,.43-1,.76h2.35l1.68,0c-.76.17-1.4.37-2.24.54,1.11.08,2.17-.17,2.78,0-1,.27-.93.17-.49.62a2.88,2.88,0,0,0-2.05-.28,7.08,7.08,0,0,1-2.83-.13L151.15,47c-.52-.1-1-.16-1.52-.21-.34-.14-.23.26-.3.45l-.08.7c-.09,1-.13,1.92-.14,2.82,0,.45,0,.91,0,1.38s0,.65,0,1a13.73,13.73,0,0,1-.15,2.13l.27-1c.44.45-.06,1.92.11,2.94-.39-.1-.57.52-.81,1,.29-.06,0,2.31.78,2.57-.16.47-.33,1-.47,1.42a4.73,4.73,0,0,0,.67,2.67,5.89,5.89,0,0,1,.86,2.54c-.53-.66-.65.49-1.18-1.11.11.82.14,1.57.42,1.54-.15.53,1,2.14.81,3,.25.29.66.3.91,1.18-.05.12-.19.06-.19.06.19,0,.69,1.28.86.38a5.14,5.14,0,0,0,.3,2.24,9.88,9.88,0,0,0,.51,1.17,7.66,7.66,0,0,0,.66,1.14c.91,1.52,2.1,2.76,2.6,3.93a17.89,17.89,0,0,0,5.14,2.82c-.15.07-.08.18-.36,0a1.85,1.85,0,0,0,1.92.26,2.67,2.67,0,0,1,2.12.13c1.18.86-1.41.1-.65.48,0,.67.88.78,1.82.79a5.36,5.36,0,0,1,2.77.43l-.4,0c1.19.59,3.12-.11,5.15.25,0,0-.11.11,0,.2,1.49-.48,4.16-.34,6.15-.23-.68.41-.93.14-.63.7.89.06-.14-.86,1.64-.74.53.36,1.76.8,1.84,1.37l-1.66-.23c.74.84,2.14.3,3,.57l-.16.29c2.53.32,2.7-.45,5.39.11l-.24-.28c1.63-.47,1.15.66,2.73.41l.28.86a35.76,35.76,0,0,1,5.29.35,27.59,27.59,0,0,1-4.51.15c.94.22,3.21.71,3.8.48a3.16,3.16,0,0,1-1.27-.18,9,9,0,0,1,4.78.4c-.39.69.78,1.14,2.13,1.69s2.89,1.22,3.25,2.06a11.72,11.72,0,0,1,4.31,2.32,27.25,27.25,0,0,1,3.54,3.58c.06-.85.23-.67.5-.37s.57.73,1,.29c.56.68.7,1,.68,1.09.11.44.19.9.28,1.33s.12.87.12,1.31c-.14.67-.5-.64-.75-.46.29.82.16,1,.06,1.19a1,1,0,0,0-.31.79c.37-.33.77.42.7,1.4a11.19,11.19,0,0,0,.34-1.44,2.33,2.33,0,0,1,.1,2.28,3.37,3.37,0,0,0-.32,2.28,6.08,6.08,0,0,0-.3-.81,11.11,11.11,0,0,1-.32,3,9.5,9.5,0,0,0-.31,3.21c-.24.17-.67.32-.51-.26-1.37,2.87-2.76,7.07-5,8.55l-.06-.39c-.33.52-.33,1.17-1.08,1.51-.06-.12,0-.39-.25-.21a4.93,4.93,0,0,1-1.61,1.87l.33-.7c-2.71,1.69-3.49,3.53-6.05,5-.17-.38-1.33-.23-2.93.19-.85.18-1.83.4-2.76.63l-2.71.63-.13-.09c-1.07.29-2.07.57-3,.85s-1.73.52-2.5.77c2.71,1.14,5.41,2.14,7.89,3.09,1.26.45,2.37.94,3.49,1.39a13.13,13.13,0,0,1,1.55.73l.35.2.23.12.43.23c.57,1,1.87,2.19,3,3.69a10.4,10.4,0,0,1,2.17,4.88c0-.52.69-.13.92.44,0,.77,1,2.06.17,2.05l0-.29c-.7.69-.35,2.22-.42,3.5l1,.25c-.82,1.69-1,3.89-1.32,6s-.73,4-1.68,4.73c0,.9-.37,1.91-.42,2.82l-.52-.24c-1,2.21-1.48,3.3-2.51,6.15l-.14-.73c-.68,1.57.68,2.63.1,4.11l-1,.12c-1.14,2.78-3,5.39-3.28,8.54-.1-.09-.3-.26-.16-.74-.26.68-.85,2-1.19,3.1s-.42,2.08.21,2c-.77-.18-.9,3.15-.77,4.89L194,194c.24.77.43,1.17.55,1.63a13.1,13.1,0,0,1,.25,2c-.09.48-.46.43-.3-.22a2,2,0,0,0,.13,1.48,3.94,3.94,0,0,1,.27,1.76c-.15-.28-.29-.47-.44-.72,0,.21,0,.39.06.55l.08.52a3.28,3.28,0,0,0,.23.71,5,5,0,0,0,.7.95,15.34,15.34,0,0,0,1.24,2.46c.56.16,1,.27,1,.47a9.32,9.32,0,0,1,2.58-1.33c.21.12-.18.41-.41.56a8.71,8.71,0,0,0,3.26-1.69,5.73,5.73,0,0,1,2.24-1.24.42.42,0,0,0,.43.13,28.39,28.39,0,0,1-3.23,1.7c.23.46,1.81-.28.92,1,1.08-1,2.67-2.89,4.2-3.54a.63.63,0,0,1,.27,0l-.11.14a2.59,2.59,0,0,0,.84-.62,7.84,7.84,0,0,0,1.24-.58c.39.26,1.74-.82,2.44-1.22-.35-.44.62-.93-.48-.8.13,0-.1.14-.56.45a1.51,1.51,0,0,0-.26.23l0-.07-1.73,1.12a2.84,2.84,0,0,1,1.8-1.37c.17-.53.38-1.09.51-1.38,1.38.07,3.45-.61,3.93-.33a33.68,33.68,0,0,1,3.37-2,11.1,11.1,0,0,0,2.75-1.87c.64-.3.82.16,1.08.27-.35.16-.78.22-1,.43a8.38,8.38,0,0,1,2.33-.56c.41-.09.77-.08,1.07-.16a1,1,0,0,0,.64-.34c.76.35.48.46.32.54s-.23.09.78.32a1.85,1.85,0,0,0-.33.12c.21.13.39.3.58.42s.37.19.57.36.39.28.58.4l.3.18.47.44c1.31,1.16,2.36,2.12,3.27,2.87l.14-.12c.05,0,.09-.19.13-.27l.25-.62.47-1.17c.32-.75.62-1.45,1-2.13.16-.34.33-.67.51-1l.27-.5.25-.41a15.38,15.38,0,0,1,1.24-1.64c-.25.3-.37.46-.51.47a43,43,0,0,0,3.88-8.78,86.3,86.3,0,0,1,3.27-9c.65-1.66.24-2,.15-3.09l.67-.23-.28-2c0-2.62,2.33-4.18,1.83-7.61l-.45.37c.22-1.17.2-3.75.64-3.51a.75.75,0,0,1-.14-.87h.32c-.11-1-.18-2-.32-2.94.33-2.24,1.24.43,1.45-2.89-.1-1.25-.86-3.52-1.08-3.05,0,.49-.22,1.25-.54,1.29l-.14-1.12c-.93-.21-1.87-1-2.57,1.62.18.62.38,1.25.53,1.88l-.48.57c0-.51,0-1,0-1.55a2.24,2.24,0,0,0,.12,2.08,1.16,1.16,0,0,0-.54.74c.28.63.53,1.25.77,1.88-.38.19-.65-.87-1,.33.34.88.89-.75,1,.68-.5.86-.8.56-.56,1.63-.26.12-.38-.11-.44-.53.18,1-.16,2.44.27,3-.63.85-.33,3.13-1.18,2.9a6.38,6.38,0,0,1,.28,2.57c-.38-.87-.54-.09-.73.83s-.49,2-1,1.63a4.55,4.55,0,0,1,0,2.82,24.14,24.14,0,0,0-.59,3.39c0-.13-.13-.38,0-.54a7.65,7.65,0,0,1-1.15,2c.71.37.33,2.13.48,3.21-1.19,1.08-.59-1.11-1.43-.93.65.14-.22,2.5.45,2.23-.81.86-.53.8-1.33,1.09.85.52-.21,1,0,2-1,1.26-1,0-1.38,1.71C234.54,185.27,234.82,183.75,234.82,183.75Zm-29.17,14.7h0l.71-.47Zm-3,1.73c.38-.18.83-.43,1.31-.71.2.1.19.34-.12.51C204,199.77,203.21,200.08,202.68,200.18Zm8.33-.45c-.42.36-.64.36-.76.31l.78-.57s0-.06,0-.09A.7.7,0,0,1,211,199.73Z"/><path class="cls-3" d="M211.46,198.59a1,1,0,0,1,.18-.16l-.35.07-.07.25Z"/><path class="cls-3" d="M222.36,82.9l0-.07a.59.59,0,0,1,0,.17A.33.33,0,0,1,222.36,82.9Z"/><polygon class="cls-3" points="209.2 165.28 209.06 165.24 209.08 165.58 209.2 165.28"/><path class="cls-3" d="M231.79,99.71a.43.43,0,0,0,0,.29S231.8,99.85,231.79,99.71Z"/><path class="cls-3" d="M235.41,107.08l.28,1.14A10,10,0,0,0,235.41,107.08Z"/><path class="cls-3" d="M237.57,113a.71.71,0,0,0,.27,0v0Z"/><path class="cls-3" d="M163.76,52.7a1.07,1.07,0,0,0-.25,0C162.94,52.7,163.32,52.72,163.76,52.7Z"/><path class="cls-3" d="M192.24,61c-.32-.06-.65-.11-1-.2C191.73,61.06,192.08,61.28,192.24,61Z"/><path class="cls-3" d="M154.61,69.31h0l0,.18Z"/><path class="cls-3" d="M190,60.18a3.32,3.32,0,0,0,1.25.62A5.83,5.83,0,0,0,190,60.18Z"/><path class="cls-3" d="M243.27,139.53v.3a.09.09,0,0,1,.09,0Z"/><path class="cls-3" d="M243.36,139.86l.09.33C243.44,140,243.43,139.9,243.36,139.86Z"/><path class="cls-3" d="M243.65,140.89l-.2-.7C243.47,140.43,243.47,140.74,243.65,140.89Z"/><path class="cls-3" d="M242.52,131.24l-.22-.06A.25.25,0,0,0,242.52,131.24Z"/><path class="cls-3" d="M242,128.76a9.3,9.3,0,0,0,.1,2.37l.18.05C241.93,130.85,242.46,129.27,242,128.76Z"/><path class="cls-3" d="M241.85,117.78c.18.7.31,1.42.45,2.13.11-.42.26-1,.57,0C242.74,117,242.59,120.53,241.85,117.78Z"/><path class="cls-3" d="M239.9,111.31c.52,1.06.29-.13.43-.12C239.87,110.57,239.76,110.42,239.9,111.31Z"/><path class="cls-3" d="M211.93,71.81l.42-.31C211.6,71,212.22,71.64,211.93,71.81Z"/><path class="cls-3" d="M203,68.22c.17.24.34.5.5.76l.6-.14C203.77,68.63,203.42,68.41,203,68.22Z"/><polygon class="cls-3" points="200.5 62.16 200.88 62.3 199.48 61.67 200.5 62.16"/><path class="cls-3" d="M154.18,79.77l.3-.63C154,78.69,153.31,79,154.18,79.77Z"/><path class="cls-3" d="M188.72,88.42a2.16,2.16,0,0,0,1.88.59A14.72,14.72,0,0,0,188.72,88.42Z"/><path class="cls-3" d="M206.26,155.21c0-.22-.09-.44-.15-.66,0,.4,0,.82.06,1.23Z"/><path class="cls-3" d="M234.6,220.21c0-.4-.46-.35-.8.65l.32.95Z"/><path class="cls-3" d="M229.44,224.26c-.6,1.1-1.16,2.52-.18,2.37.37-1.33.77-1.36,1.1-2.82.65-.8,1.39-1.17,1.46-.88v0l-1.09.22a3.85,3.85,0,0,1,1,.42l.83.41.35-.82a1.93,1.93,0,0,0,.22-1.11,6.1,6.1,0,0,0-.69.88l-.23.36-.25-.19a8,8,0,0,0-.9-.55l.3-.06a10.12,10.12,0,0,0-1.63,2.15C229.34,224.8,229.46,224.41,229.44,224.26Z"/><path class="cls-3" d="M138.91,258.63l.63.12A4.17,4.17,0,0,0,138.91,258.63Z"/><path class="cls-3" d="M81.88,237.35c.39.26.59.32.65.29C82.15,237.42,81.83,237.25,81.88,237.35Z"/><path class="cls-3" d="M74.17,230.24l.43.43A1.16,1.16,0,0,0,74.17,230.24Z"/><path class="cls-3" d="M138.91,258.63l-1.63-.34C137.15,258.5,138.11,258.52,138.91,258.63Z"/><path class="cls-3" d="M220.39,235a4.44,4.44,0,0,0,.58-.74l-.6.62A.43.43,0,0,1,220.39,235Z"/><path class="cls-3" d="M166,256.84l.49-.1a2.9,2.9,0,0,0,.36-.34Z"/><path class="cls-3" d="M186,251.32c-.45.14-.41.72-.49,1a1.83,1.83,0,0,1,.83-.71C186.26,251.52,186.16,251.42,186,251.32Z"/><path class="cls-3" d="M215.25,236.19l.42-.42Z"/><path class="cls-3" d="M151.15,258.2a.46.46,0,0,0-.2-.19C151,258.08,151,258.14,151.15,258.2Z"/><path class="cls-3" d="M249.31,200.76s-.06,0-.09,0C249.21,200.85,249.23,200.91,249.31,200.76Z"/><path class="cls-3" d="M233.24,219.65l.19-.28a1,1,0,0,0-.19-.26Z"/><path class="cls-3" d="M61.53,216l0,.07C61.94,216.42,61.75,216.2,61.53,216Z"/><path class="cls-3" d="M79.47,60.2c-1.88.83,2.15-2.52-.55-1.1C79.27,59.1,77.32,61.47,79.47,60.2Z"/><path class="cls-3" d="M219.92,235.32a6,6,0,0,1-.67.56A3.64,3.64,0,0,0,219.92,235.32Z"/><path class="cls-3" d="M78.92,59.1h0l-.28.15Z"/><path class="cls-3" d="M41.2,177.52a1.28,1.28,0,0,0-.11.5S41.18,177.87,41.2,177.52Z"/><path class="cls-3" d="M54,207.58l-.37-.73A6.11,6.11,0,0,0,54,207.58Z"/><path class="cls-3" d="M37,161a4.13,4.13,0,0,0-.11-1.2,1.06,1.06,0,0,0,0,.19A2.05,2.05,0,0,1,37,161Z"/><path class="cls-3" d="M36.24,143.25a3,3,0,0,0-.12.32v.57Z"/><path class="cls-3" d="M262.25,146.76a2.21,2.21,0,0,1-.5.85C262.15,147.33,262.26,150,262.25,146.76Z"/><path class="cls-3" d="M220.18,234.78a.69.69,0,0,1-.26.54l.45-.42C220.35,234.8,220.31,234.73,220.18,234.78Z"/><path class="cls-3" d="M32.53,160.81c-.1-1-.2-1.95-.23-2.93A21.71,21.71,0,0,0,32.53,160.81Z"/><path class="cls-3" d="M193.8,42.14l.64.22A1.74,1.74,0,0,0,193.8,42.14Z"/><path class="cls-3" d="M31.75,149.18a7.11,7.11,0,0,0,.35-1.66,1.34,1.34,0,0,0-.15-.34Z"/><path class="cls-3" d="M261.74,147.62h0Z"/><path class="cls-3" d="M261.38,167c.46-2.77-.5-1.42-.83-2.07.31-3.31.8-1.44,1.31-2.52,0-2.1-.43-3.75-.27-5.29.12-.1.19-.4.32,0a20.54,20.54,0,0,1,0-4.41,18.4,18.4,0,0,0-.33-4.67.87.87,0,0,1,.19-.33,1,1,0,0,1-1,.38c0-1.23-.5-2.28,0-2.75a1.88,1.88,0,0,0,.37,1.17l-.25-1.29c.67-1.18.29,1.76.8,1.76-.31-2.54-.87-5.46-.89-7.4.33-.23.47.9.58,1.76s.13,1.45.4.14l-.18,3c1-2.34,0,1.84,1.06-.31a19.35,19.35,0,0,0-.25-4.23,30.07,30.07,0,0,1-.4-4.21c-.46-.85-.51.35-1-.5-1.39-5.47,1.19-4.65-.45-8.61-.32-.49-.71-.79-1-1.35a6.69,6.69,0,0,1-.7-2.83l1,.82a6.23,6.23,0,0,0-1.14-2.87c-.36-.5-.58-1.06-.91-3,.52.6,1,2.86,1,2.28,0-2.7-.9-1.68-1.43-3.61l.54-.59a116.29,116.29,0,0,0-5-12.17c.27.16.76.8.56-.27-2.54-5.15-5.14-11.1-7.71-16.06L244,85.38c-.26-.42-.27-.91.11-.52-1-2-.37.1-1.12-.64-.7-1-.6-1.55,0-1a143.9,143.9,0,0,1-9.4-11.49l.64.48c-1.86-2.54-3.21-1.84-4.8-4.29l.46.33-1.72-1.89-1.86-1.8-1.88-1.78c-.62-.58-1.28-1.12-1.91-1.67-2.49-2.25-5-4.21-6.72-6.15-1.29.11-5.24-4.21-6.31-3.4-1.45-1.28-1.93-1.82-2.59-2.45a32.18,32.18,0,0,0-3.81-2.8c-1.23-.8-2.27-.38-3.91-1.1l.24-.57-2.45-.53L196,42.91l-1.6-.55c.6.31,1.18.84,1,1a18.92,18.92,0,0,1-3.77-1.87c-1.12-.63-1.93-1.23-1.9-1.39l-3-.9-3-.76c.21-.19,1.23.07,2.07.18-3.37-.47-.37-.81-3.46-1.24.35.26-.32.27-.42.37a14.51,14.51,0,0,0-3.16-1.25,31.45,31.45,0,0,0-4.05-1l.59-.3a66.83,66.83,0,0,0-7.15-1.47c-1.24-.18-2.5-.4-3.78-.56l-3.86-.45c1.83.43,1.3,1.11-.21,1l-.53-.73c-1,.28,1.55.45-.5.68-1.91-.26-1.22-.86-.09-1-.79,0-1.58,0-2.37,0-.12-.2.44-.26.6-.5a6.89,6.89,0,0,1-2.57-.28,5,5,0,0,0-2.91,0l-.12-.2c-2.61-.05-4.51-.11-6.28,0l-2.64.16c-.9,0-1.84.08-2.9.19,0,.57-1.71.57-2.92,1.12-1.55,0-3.19.09-4.91.17-.86,0-1.74.09-2.64.19s-1.79.26-2.72.44c-2.53.74-.66.6-1.76,1.14-.3-.53-3.93.39-2.12-.41a63.57,63.57,0,0,0-10.88,3.46c.65,0,1.33-.14,1,.15-.94.4-2.27.54-2.21.26l.24-.14a94.17,94.17,0,0,1-9.8,3.41,49,49,0,0,0-4.77,1.79,18,18,0,0,0-3.74,2.23l.22-.18c-1.47,1-2.87,2.06-4.3,3.08-2.14,1.13,1.06-1.06-.65-.44-4.38,3.71-7.64,4.77-11,8.09a11.31,11.31,0,0,0-3.24,1.74c-1.16.89-2.39,2-3.63,3.14a83.36,83.36,0,0,1-6.88,6.4l.46,0c-.62,1.16-1.21,1-1.92,1.59.3.09,1.19-.77.79-.07C59.23,73.37,55.6,77.53,52.29,82a110.39,110.39,0,0,0-9.07,14.06,4.83,4.83,0,0,0-.7,3.31c.06.8-.08,1.64-1.45,3.8,0-.53,0-1.06,0-1.58-.64,1.94-1.25,3.9-2,5.83s-1.31,3.92-2,5.88-1.19,4-1.64,5.94a52,52,0,0,0-1,6c-.06-.5-.26-.55-.11-1.31-.78,1.56-1.14,6.11-.73,6.2-.2,1.21-.38.23-.68,1-.48,1.64,0,4.26-.48,5.1-.08.15-.12-.48-.12-.8.14,1.12-.46,5.11.18,4.1a19.94,19.94,0,0,0-.22,4.25,26,26,0,0,1-.15,3.81c.66,1.54-.17,5.11.72,5.56-.89-.17-.39,5.27.3,7.08-.35-.59-.08,1.66-.55,1,.29,2.14.7,4.08,1.12,3.63a15.52,15.52,0,0,0,.87,5.67c.58,1.7,1.07,3.17.64,4.42a164,164,0,0,0,6.63,16.76c-.9.15-2.43-5.84-3.17-5.3,2.28,5,4.18,7.56,6.4,12.45.53,1.29-.71-.53-1.06-.88.7,1.16,1.35,2.33,2,3.5s1.29,2.26,1.91,3.37A45.39,45.39,0,0,0,52,210.94c-.08,0-.44-.36-.76-.73.52.79,1.11,1.92,1.4,1.6-.21-.24-.43-.46-.62-.7-.38-1.56,3.18,2.37,3.54,2.31-.94-.31-.32.69.21,1.63s1,1.75-.36,1.2c.45.44,1.09.94,1.22.66.51.78.56,1.11-.26.56a12,12,0,0,0,2,1.92,10.87,10.87,0,0,1,1.8,1.77c-.16.12-.63-.3-1-.39a18.66,18.66,0,0,1,4.25,3.89c-.2,0-.1.3-.64-.27,3.12,3.23,6,4.77,9.39,8.26-1.66-.3,1.07,1.3.78,2,.72.52,1.42,1.05,2.17,1.52l-.6-.94c1.82,1.43,3.72,2.3,5.16,3.66-.53-.24-1-.51-1.55-.79,1.15.87,2.39,1.62,3.58,2.43l-1.82-1.65c2.11,1,.35-.9,2.71,1-.55-.29,1.84,1.34,2.63,2.32h0a12,12,0,0,1,3.53,1.89c.25.42-.74.52-.57.8a10.18,10.18,0,0,1,3.06,1.3c.61.32,1.23.65,1.79.9a4.83,4.83,0,0,0,1.49.4c-.49-.07-.7.26-.6.4l1.07,0c.87.63,1,.77.68,1,2.82,1.54-.49-1.29,2.72.77-.28-.09-.19.06-.78-.16a49.89,49.89,0,0,0,5.07,2.26,52.48,52.48,0,0,1,5,1.95c.7,1.08-2.92-1-2,.07a75,75,0,0,0,7.48,2.16c1.27.29,2.54.55,3.78.85l3.64.93-.87-.29c.46-.44,1.31-.11,2.36.35a8.74,8.74,0,0,0,3.6,1c-.61,0-.9.44-.71.35a42.61,42.61,0,0,0,5.27.82c1.93.09,4.08.26,6.62.29l-.66.23a67.57,67.57,0,0,0,7.31.71c.65-.25,1.86-.18,1.13-.59a19.61,19.61,0,0,0,2.43.47,19.22,19.22,0,0,0,2.39.08,39.07,39.07,0,0,0,4.64-.37,40.05,40.05,0,0,1,8.88-.77c-.69.1-1.62.46-1.07.39,1.63-.34,3.27-.57,4.89-1-.47-.39-.69-.12-1.78-.35a11.87,11.87,0,0,1,3.11-1.05c-2.12.72.15.72,1.15.79-.18-.1.11-.32,0-.45,1.35.16,1.42-.09,1.58-.39s.45-.63,2.21-.8l-.12.28a26.58,26.58,0,0,1,3.74-1.32c.71.38-1.3.58-1.28,1,2-.47,3.53-2,5.41-2-.77.39-1.93.75-2.7,1.14a10.44,10.44,0,0,0,3.67-.53l-.14,0,1.67-.37c.56-.13,1.1-.29,1.65-.44l-.87.14c1.89-2.2,4.76-1.93,7.49-4.16-2.68,2.08-.31.67-.3,1.33.86-.19,2.15-.53,1.87-.23,1.29-1,2.62-.75,4.35-2.39.18.13,1.55-.74,1.45-.15,1.81-1.06-.6-.08-.55-.38a28,28,0,0,1,4.92-2.59,19,19,0,0,0,5.59-3.55,15.37,15.37,0,0,0,1.89-1.63c.49-.49.89-.93,1.29-1.36s.77-.85,1.24-1.31l1.66-1.61c1.16-.51-.37,1.19-.37,1.19a19.22,19.22,0,0,0,4.26-3.3c-.2.36.22.25.79,0,1.12-1,.31-1.2,2-2.29a5.17,5.17,0,0,1-.64,1.58c.62-.65,1.21-1.34,1.8-2l.89-1c.29-.36.58-.72.88-1.07.59-.1-.44,1.16-.79,1.76,1.43-1.54,3.71-4,3.79-4.79l-1.09.79c.52-.54.6.06.27.52-1,1.54-2,1.64-2.2,1.57l.87-1c-.9,0-1.78,1-2.77,2.12a32.19,32.19,0,0,1-3.06,3.26l.3-1.36c-.54.76-1.05,1.55-1.64,2.27-.59.19-1.19.06-.24-.83-1.74.83-1.13,1.26-2.69,1.89-.19.05-.15,0,0-.16l-1.3,1.33c.18-.36-.59-.28.37-.88-2.91,1.58-4,3.58-5.33,3.79l.2-.2c-3.69,2.7,0,.75-2.56,3.19l-2.74-.06-.08.75c-.42.21-1.26.63-1.23.33-1.33,1.22.39.09-.31.93a21.33,21.33,0,0,0-3.65,1.77c-1.21.6-2.24,1.07-2.68.74-.53.78,2.11-.63.07.72-.54-.31-1.15,0-1.88.52a7.5,7.5,0,0,1-2.69,1.24c.37-.75,2.29-1.25.19-.88-.79,1.32-3.76,1.44-5.34,2.14.17.68-3.43,1.67-6.18,2.68a11.93,11.93,0,0,0-3,.58c-1.71.33-3.77.73-5.12.93l.05-.14c-.33.9-3.13,1.25-5.11,1.8,0-.45.33-.69,1.37-1.09l-1.87.36a4.9,4.9,0,0,1-2.19.81l.39-.61c-2.51.35-5,1.42-8.31,1.25-.15.53,2.75,1.21-.73,1.84-.15-.27-.31-.73.59-.92a5.27,5.27,0,0,1-1.66.25l1.36-.58c-1.51-.08-.75.45-2,.51,0-.39-.9-.22-.75-.55a5.75,5.75,0,0,0,1.5-.1,9.48,9.48,0,0,1-3.53-.44c.12.22,0,.53-1,.61-2.56.1-.89-.45-2.37-.61-.62.32-2.24-.05-2.29.55a1.63,1.63,0,0,1-1.16-.47,27.92,27.92,0,0,1-3.39.1c-1.19,0-2,0-1.32.39l.34.07h-.22a26.36,26.36,0,0,1-3.32-.05,31.7,31.7,0,0,1-3.34-.51l-3.31-.62c-1.08-.24-2.16-.44-3.23-.57l0-.19c-.64-.06-1.32-.14-2-.24l-2-.38a21.63,21.63,0,0,0-3.5-.45c-.74-.21-1.64-.84-1.26-1a15,15,0,0,1-4.82-1.38c2,.28-.57-.47,2,.36-2.39-.89-2.8-1.44-5.57-1.79.52-.09.12-.38-.55-.71a12.2,12.2,0,0,0-2.19-.86l1.52,1c-1.29-.43-2.38-.91-3.48-1.39l.85-.38a24.48,24.48,0,0,0-3.33-1.59c-1.1-.43-2.2-.74-3.25-1.08-2-.77-4-1.45-5.38-3-.7-.14-.13.28.45.72s1.21.85.53.81c-2.07-1.23-3.72-3.33-4.37-3.69-2.54-2.05-3.1-.78-5.81-2.9.22.45.21,1.22-2-.1-1.92-1.47-1.82-2.51-.48-1.79.48.31.66.54.6.59.68.38,1.56.88.94.12h-.39c-.41-.44-1.29-1.13-2-1.69s-1.08-1.05-.66-1c-1.55-.93-.85-.17.13.76-2.19-2.17-3.79-2.92-6-5.2.29.43.46.94.09.61-3.3-3.25-1.85-1-4.22-3.07-1-1.49,1.06-.18-1.44-2.14-1.18-1.54.14-.72.84-.34a11.82,11.82,0,0,1-2.76-2.82l-1.76-2.48c.37.34.75.67,1.14,1a12,12,0,0,1-1.66-1.7l.21,1c-.52-.73-1-1.29-.84-1.41-.84-.48-.14,1-1.65-.05-.62-1-2.51-2.62-2.26-3.34,2.14,3.05.22-.7,2.27,1.67a8.71,8.71,0,0,1-1.38-1.74c0-.15.18,0,.35.18-.87-1.56-1.26-1.77-1.71-2s-1-.32-2.06-1.83c.55.17.05-1.09-.36-1.53.85,1.2-.07.92-1.08,0-1.16-2.07-1.62-2-2.28-3.06l.66,1.26c-.56-.2-1.16-1.23-2.15-2.57.16-.27,1,1.17.76.6a5.83,5.83,0,0,1-1.61-2.63A10.58,10.58,0,0,0,50.05,201c-.37-1.15.52-.42.16-1.4-1.69-2.34-1-2.95-2.64-5.47-.07,1,.1,1.08-1.2-.65.76,1.47,1.62,2.88,2.47,4.29-.68-.84-1.38-1.67-2.06-2.52.66,1.34,1.71,2.68,2,3.51-1-1.17-.86-1.09-.89-.26a6.52,6.52,0,0,0-1.31-2.82,10,10,0,0,1-1.43-3l1.11-.42a16.21,16.21,0,0,0-.92-2.37c-.33-.76-.7-1.49-1.1-2.25s-.82-1.55-1.22-2.43a25.87,25.87,0,0,1-1-3l.29,1.47c-.63-.44-1-2.67-1.61-4,.41,0,.3-.93.36-1.6-.25.15-.92-3.24-1.75-3.46l0-2.13c-.67-3.65-2-3.93-2.51-7.51.62,1,.61-.65,1.33,1.66-.2-1.18-.32-2.24-.6-2.22.13-.72-1-3.22-.72-4.36a3,3,0,0,1-.78-1.94c.07-.16.19,0,.19,0-.19,0-.42-2.08-.77-.87.48-1.9.21-4.47.16-7a34.7,34.7,0,0,1-.06-3.65,11,11,0,0,1,.5-3c0-.65,0-1.34,0-2s0-1.42.08-2.12c.06-1.41.1-2.8.21-4,.1.16.2,0,.1.47.78-3.21-.87-2.14,0-5.81.48-.9.48-.39.41.19s-.13,1.25.06.68c.66-.16.8-1.27.94-2.64a10.92,10.92,0,0,1,.87-4.15l-.06.61a10.56,10.56,0,0,0,.71-3.36c.07-.66.12-1.37.23-2.09a21.49,21.49,0,0,1,.54-2.21s.07.18.19.07c-.11-2.25,1-6.19,1.84-9.11.11,1-.21,1.39.45,1,.41-1.29-.93.09-.07-2.5.58-.72,1.53-2.45,2.13-2.47l-.91,2.38a4,4,0,0,0,1.1-2,11.6,11.6,0,0,1,.78-2.19l.21.28a22.92,22.92,0,0,0,1.22-3.79,17.66,17.66,0,0,1,1.59-3.89l-.41.28c.36-2.43,1.32-1.48,1.93-3.77l1-.2c.29-.71.78-2,1.44-3.28a40.3,40.3,0,0,1,2.09-4,26.6,26.6,0,0,1-1.17,3c-.5,1.15-1.08,2.29-1.42,3.23C53,88.92,54.88,85.9,55,85A6.57,6.57,0,0,1,54,86.74a19.55,19.55,0,0,1,3.39-6.49c.45.67,1.73-.8,3.18-2.56a28.51,28.51,0,0,1,2.29-2.56A6.92,6.92,0,0,1,65,73.57c3.13-4.27,7.37-7.37,12-11.33-1.2.25-.87-.05-.37-.5s1.21-1,.68-1.35c1.08-1,1.52-1.28,1.67-1.29l1.94-1.05,2-1c1-.31-1,1-.68,1.15,2.59-1.73,1.36-.34,3.22-1.26-.6-.12.51-1.16,2.11-1.95-.8.3-1.62.56-2.4.9a7.88,7.88,0,0,1,3.5-2,10,10,0,0,0,3.59-2l-1,1c.92-.63,2.68-1.72,4.46-2.75a20,20,0,0,0,4.33-3c.42,0,1,.05.18.53,4.85-2.21,10.67-5.56,14.87-6.23l-.3.39c.93-.35,1.52-1,2.81-1.07,0,.14-.31.4.14.29a12,12,0,0,1,3.78-1.34l-1,.58a37.67,37.67,0,0,0,6.33-1.67A33.78,33.78,0,0,1,132.48,37c.11.87,4.22.6,6.28.66l-.06.13c3-.24,5.6-.39,8.13-.72,1.27-.12,2.52-.2,3.82-.3l2-.13c.68,0,1.36,0,2.07,0a19.08,19.08,0,0,0,3.39.73c1.35.22,2.88.48,4.49.7s3.25.57,4.85.87a31.71,31.71,0,0,1,4.46,1.18c-.8-.35.29-.64,1.29-.5,1.26.43,3.72.33,3.3,1.06l-.45-.15a4.73,4.73,0,0,0,2.24,1.25c.51.17,1,.33,1.6.48l1.57.53.67-.89c2.41,1.57,5.84,2.74,9,3.91,1.55.61,3,1.18,4.26,1.78A8.84,8.84,0,0,1,198,49.49a16.27,16.27,0,0,1,2.05.77c.68.31,1.36.63,2,.85l-.34.45c1.57,1,2.75,1.72,4,2.57s2.65,1.62,4.53,2.93l-1-.21a5.5,5.5,0,0,0,2.83,1,5,5,0,0,1,2.73,1l.05,1.11c.89.7,1.76,1.43,2.61,2.18l2.46,2.36,2.49,2.29a24.85,24.85,0,0,0,2.67,2.09c-.15,0-.41.12-1-.36,1.55,1.47,5.27,6.29,5.59,5-.55.56,3.05,3.53,4.77,5.31l-.67,0a11.19,11.19,0,0,1,3.91,3.35c.34.6,0,.75-.43-.08,1.07,2.05,1.5,1.13,2.8,3.61-.29-.22-.56-.45-.86-.66a6.63,6.63,0,0,0,2.35,2.6c1,1.11,2.21,3.91,1.94,4.46a4.6,4.6,0,0,1,2,2.33c-.09.26-.41-.14-.59-.33,1.47,3.66,3.28,4.91,3.87,7.63a.56.56,0,0,0-.11.56c-.65-1.42-1.19-2.73-1.63-3.61a9.63,9.63,0,0,1-.61-1.31c-.46.24.6,2.5-.94,1.05a37.37,37.37,0,0,1,2.28,3.09,13.8,13.8,0,0,1,1.88,3.68,1.08,1.08,0,0,1,0,.36l-.15-.21a5.55,5.55,0,0,0,.65,1.41,16.26,16.26,0,0,0,.6,1.94c-.25.4.72,2.79,1.11,4,.5-.27.95,1.31.89-.29,0,.2-.14-.2-.43-1a3.81,3.81,0,0,0-.23-.49l.08.07c-.29-.78-.61-1.8-1.09-2.93a5.69,5.69,0,0,1,1.35,3.15c.55.5,1.13,1.06,1.43,1.39a12.07,12.07,0,0,0,0,1.61c0,.59,0,1.2.06,1.76a7.36,7.36,0,0,1-.09,2.39,24.84,24.84,0,0,1,.93,2.91c.29,1,.58,2.07.89,3.07a19.27,19.27,0,0,0,1.84,5c.34,1.06-.09,1.29-.2,1.72a8,8,0,0,0-.51-1.67,38.91,38.91,0,0,1,.82,4.05c.25,1.39.57,2.57.94,2.79-.13,2.79-.8-1.48-.39,2.29l-.26-.49a42.82,42.82,0,0,0,.71,9.86,39.94,39.94,0,0,1,.34,4.89,22.32,22.32,0,0,1-.84,5.6c.16-.56.24-.85.37-.95-.81,4.67-1.35,9.49-2.31,14.25a55.86,55.86,0,0,1-4.38,13.63c-1.12,2.4-.83,2.82-1.08,4.47l-.77.3c-.13.94-.32,1.86-.48,2.8a10.44,10.44,0,0,1-1.16,2.55c-.5.77-1.05,1.48-1.6,2.22a18.93,18.93,0,0,0-3.06,5.47l.67-.36c-.93,1.52-2.75,5-3,4.46a1.42,1.42,0,0,1-.52,1.19l-.3-.13c-.67,1.31-1.32,2.64-2,3.93-2.21,2.6-.7-1.15-3.68,2.76-1.05,1.49-2.57,4.64-2,4.24.48-.56,1.35-1.35,1.63-1.2l-.94,1.43c.53.83.4,2.5,3.59-.4.47-.89,1-1.77,1.38-2.69l.92-.49c-.49.67-.95,1.36-1.48,2a5.1,5.1,0,0,0,1.83-2.78,2.19,2.19,0,0,0,1.14-.71c.36-.94.63-1.93.93-2.9.5-.08-.13,1.5,1.13,0,.42-1.36-1.41.62-.37-1.39,1.14-.94,1.22-.41,1.78-2,.33-.07.27.31,0,.93.53-1.42,2-3.4,1.92-4.32,1.17-1,2.32-4.42,3-3.89a16.14,16.14,0,0,1,1.13-3.87c-.09,1.33.54.22,1.17-1.15s1.39-2.93,1.77-2.4c-.1-2.06,2.17-6.34,2.69-9.62a1.69,1.69,0,0,1-.1.84c.69-1.7,1.13-2.12,1.63-3.21-.7-.47,0-3.23-.11-4.85,1.28-2,.56,1.56,1.43,1.07-.64-.06.35-4-.35-3.34.88-1.56.58-1.39,1.39-2.11-.89-.51.16-1.62-.14-3.13,1-2.35,1-.47,1.19-3.22C261.43,164.47,261.38,167,261.38,167Zm-8.8-63.7h0l.52,1.23C253,104.22,252.85,103.86,252.58,103.25Zm-2.23-5c.25.61.59,1.36,1,2.16-.1.25-.36.14-.58-.36C251,100.31,250.54,99.1,250.35,98.29Zm.73,11.93c-.33-.77-.33-1.06-.26-1.21.16.36.3.8.54,1.35a.61.61,0,0,0,.1.07A.85.85,0,0,1,251.08,110.22Z"/><path class="cls-3" d="M252.26,111.39a2.44,2.44,0,0,1,.15.32c0-.18,0-.35,0-.52l-.26-.22Z"/><path class="cls-3" d="M139.65,258.77l-.11,0a.83.83,0,0,1,.23.1C139.7,258.82,139.7,258.8,139.65,258.77Z"/><polygon class="cls-3" points="199.42 44.52 199.37 44.65 199.85 44.76 199.42 44.52"/><path class="cls-3" d="M169.2,258.81a.85.85,0,0,0,.41.07A1.23,1.23,0,0,0,169.2,258.81Z"/><path class="cls-3" d="M181.71,255.74l1.81-.35C182.73,255.52,182.16,255.63,181.71,255.74Z"/><path class="cls-3" d="M191.12,252.57a.56.56,0,0,0,.09-.3h0Z"/><path class="cls-3" d="M51.26,210.21a2.49,2.49,0,0,0-.23-.31C50.45,209.19,50.82,209.69,51.26,210.21Z"/><path class="cls-3" d="M85.25,242.27c-.47-.18-.94-.37-1.41-.59C84.51,242.16,85.06,242.52,85.25,242.27Z"/><path class="cls-3" d="M32.56,161.13h0l0-.32Z"/><path class="cls-3" d="M82.06,240.41a7.58,7.58,0,0,0,1.78,1.27A16,16,0,0,0,82.06,240.41Z"/><path class="cls-3" d="M227,229.1l.36-.32s0-.06,0-.1Z"/><path class="cls-3" d="M227.35,228.68l.34-.42C227.51,228.43,227.36,228.58,227.35,228.68Z"/><path class="cls-3" d="M228.38,227.38c-.21.31-.46.59-.69.88C228,228,228.33,227.68,228.38,227.38Z"/><path class="cls-3" d="M216.9,237.54v.25A.28.28,0,0,0,216.9,237.54Z"/><path class="cls-3" d="M213.73,240a15.87,15.87,0,0,0,3.18-2v-.21C216.59,238.42,214.29,239.22,213.73,240Z"/><path class="cls-3" d="M198.37,246.49c1-.44,2-1,2.95-1.43-.61.09-1.4.2-.13-.57C197.28,245.91,202.18,244.52,198.37,246.49Z"/><path class="cls-3" d="M189,250.44c1.58-.78-.14-.28-.1-.43C188,250.63,187.73,250.78,189,250.44Z"/><path class="cls-3" d="M117.18,254.46l.31-.44C116.17,253.72,117.42,254.21,117.18,254.46Z"/><polygon class="cls-3" points="102.93 252.31 104.07 253.09 104.84 252.9 102.93 252.31"/><polygon class="cls-3" points="96.94 245.45 97.5 245.65 95.42 244.79 96.94 245.45"/><path class="cls-3" d="M36.65,146.42l-.64.4c0,.46.27.73.43.71S36.72,147.17,36.65,146.42Z"/><path class="cls-3" d="M48.81,95.47a3.82,3.82,0,0,0,.92-1A4.17,4.17,0,0,0,50.42,93c-.31.51-.68,1-1,1.41A5.87,5.87,0,0,0,48.81,95.47Z"/><path class="cls-3" d="M184.35,43.48l-1.07-.14c.65.16,1.3.3,1.94.48C184.94,43.69,184.64,43.59,184.35,43.48Z"/></g></g></g></svg>