<svg xmlns="http://www.w3.org/2000/svg" xmlns:xlink="http://www.w3.org/1999/xlink" viewBox="0 0 298.06 298.06"><defs><style>.cls-1{fill:url(#linear-gradient);}.cls-2{opacity:0.92;}.cls-3{fill:#fff;}.cls-4{fill:url(#linear-gradient-2);}</style><linearGradient id="linear-gradient" y1="149.03" x2="298.06" y2="149.03" gradientUnits="userSpaceOnUse"><stop offset="0" stop-color="#f05b32"/><stop offset="1" stop-color="#f05b5b"/></linearGradient><linearGradient id="linear-gradient-2" x1="82.7" y1="149.12" x2="236.79" y2="149.12" xlink:href="#linear-gradient"/></defs><title>Asset 5</title><g id="Layer_2" data-name="Layer 2"><g id="Layer_2-2" data-name="Layer 2"><circle class="cls-1" cx="149.03" cy="149.03" r="149.03"/><g class="cls-2"><path class="cls-3" d="M162.74,120.36l2.41-4.69,2.81,4.56,16.67,27.07L198.46,170c7.39-9.58,14.78-19.15,22.27-28.65l2.5-3.19,2.84,2.85c3.59,3.61,7.14,7.26,10.72,10.87,8-20.31,2.84-44.17-14.57-57.86-36.34-28.55-63.68,1.64-71.83,12.58-8.15-10.94-35.48-41.13-71.82-12.58-19.13,15-23.48,42.36-11.9,63.75l16,17.45q26.28-.31,52.56-.65Q148.79,147.37,162.74,120.36Z"/><path class="cls-3" d="M165.11,121.57a.62.62,0,0,0-1.18.18l.92,1.12Z"/><path class="cls-3" d="M160.43,125.38c.14,1.16.64,2.67,2,2.66-.7-1.43-.12-1.4-1-3,.23-.81,1-1.09,1.39-.74-.17-.42.84-1,.3-1.78a2.94,2.94,0,0,0-1.93,3.32C160.79,126,160.62,125.56,160.43,125.38Z"/><path class="cls-3" d="M110.2,173.06l.52.15A1.32,1.32,0,0,0,110.2,173.06Z"/><path class="cls-3" d="M69.56,157.14c.28.26.49.29.59.22C69.84,157.16,69.59,157,69.56,157.14Z"/><path class="cls-3" d="M67.56,150c0,.18.06.32.09.47C67.7,150.22,67.7,150,67.56,150Z"/><path class="cls-3" d="M110.2,173.06l-1.33-.4C108.78,173.1,109.55,173,110.2,173.06Z"/><path class="cls-3" d="M158.27,136.71a2,2,0,0,0,0-.8c-.06.23-.11.45-.18.67Z"/><path class="cls-3" d="M131.75,171.72H132a2.21,2.21,0,0,0,.05-.54A3.4,3.4,0,0,1,131.75,171.72Z"/><path class="cls-3" d="M138.67,161c-.22.31.73.94,1.1,1.29a1.22,1.22,0,0,1-.31-1.09A2.05,2.05,0,0,0,138.67,161Z"/><path class="cls-3" d="M152.5,138l.08-.49C152.57,137.65,152.51,137.86,152.5,138Z"/><path class="cls-3" d="M120.07,171.62a.88.88,0,0,0-.16-.39A.67.67,0,0,0,120.07,171.62Z"/><path class="cls-3" d="M168.12,130.56a.71.71,0,0,0,.17-.11C168.14,130.43,168.06,130.45,168.12,130.56Z"/><path class="cls-3" d="M162.48,120.23l.07-.27a3,3,0,0,0-.53-.34Z"/><path class="cls-3" d="M65.9,135.9l0,.06C66,136.32,66,136.12,65.9,135.9Z"/><path class="cls-3" d="M161.39,101.1c-.89.18-.69-.49-.54-1.1s.22-1.17-1-.76C160.28,99.42,159.58,102,161.39,101.1Z"/><path class="cls-3" d="M157.94,137a5,5,0,0,1-.3.62A1.63,1.63,0,0,0,157.94,137Z"/><path class="cls-3" d="M159.83,99.24h0l-.25.1Z"/><path class="cls-3" d="M74.05,105.52a1.31,1.31,0,0,0-.59,0A.87.87,0,0,0,74.05,105.52Z"/><path class="cls-3" d="M63.8,127.49l.24-.59A1.92,1.92,0,0,0,63.8,127.49Z"/><path class="cls-3" d="M82,95.53c.33-.14.51-.08.8-.49a.65.65,0,0,0-.19,0C82.56,95.24,82.42,95.44,82,95.53Z"/><path class="cls-3" d="M93.74,88.62a3,3,0,0,0-.32-.12l-.37.22Z"/><path class="cls-3" d="M192.87,170a6.33,6.33,0,0,1,0-1.91C192.62,169.14,190.51,166.24,192.87,170Z"/><path class="cls-3" d="M157.7,136.43a.59.59,0,0,1,.24.6,4.13,4.13,0,0,0,.17-.45A.47.47,0,0,0,157.7,136.43Z"/><path class="cls-3" d="M77.21,88c.7-.44,1.36-.91,2.1-1.31A11.53,11.53,0,0,0,77.21,88Z"/><path class="cls-3" d="M241.45,113l.32.5A.74.74,0,0,0,241.45,113Z"/><path class="cls-3" d="M85.54,82.73a4.23,4.23,0,0,0,1.62,0,1.22,1.22,0,0,0,.13-.38C86.71,82.5,86.1,82.58,85.54,82.73Z"/><path class="cls-3" d="M192.89,168v0Z"/><path class="cls-3" d="M181.86,155c1.11,1.89,1.77.13,2.73.08,1.72,2-.3,1.6-.48,2.75,1.18,1.18,3,1.54,3.57,2.61-.17.2-.12.45-.52.37a6.87,6.87,0,0,1,2.35,2.61l.59.86c.3.45.61.88.92,1.27a6.45,6.45,0,0,0,1.88,1.76,2.08,2.08,0,0,1,0,.68,4.17,4.17,0,0,1,1-2.2,5.18,5.18,0,0,0,1.06,1,1.33,1.33,0,0,1,.36,1.34c-.38-.67-.61-.3-1-.31.32.25.63.49.92.7,0,2.74-1.22-1.08-1.8-.05a38.27,38.27,0,0,0,2.77,2.78,10.93,10.93,0,0,1,1.14,1.23,8,8,0,0,1,.47.71c.07.12.15.26.22.4l.1.21s0,.09.05.09l.06,0c0,1.65-.64.66-1.19-.05s-1-1.25-.26,1.06L195.08,171a7.15,7.15,0,0,1,.11,2c-.06.12-.22-.16-.38-.44s-.33-.57-.43-.46-.14.59,0,2a26.44,26.44,0,0,0,3.21,5l.16.2.08.1s0,.11.08,0l.38-.59c.26-.39.52-.79.81-1.19a28.45,28.45,0,0,1,2.12-2.62,2,2,0,0,0,.07-1.61,2.14,2.14,0,0,1,0-1.56,8.24,8.24,0,0,1,2.27-3,4.62,4.62,0,0,1,1.86-.71,3.9,3.9,0,0,0,1.82-.78,4.87,4.87,0,0,0,.91-1.05l.22-.36.09-.25a4,4,0,0,0,.13-.61c-.2-1.21-1.35-2.53.78-3.8l.73,1.57c2-2.29-.68-2.72,2.07-4.58.13.82-1.05,2.19-.63,1.94,2.21-.87.2-1.68,1.17-2.92l1.27.58c1.8-2.67,3.2-6.07,5.19-9,.2.41.16,1.15,1,.75a23.93,23.93,0,0,1,1.9-2.85,3,3,0,0,1,.81-.75.89.89,0,0,1,.7-.15l0,0,0,.08.07.17.11.32a3.91,3.91,0,0,1,.14.57,2.45,2.45,0,0,1,.67-1c.09.12-.12.64-.29.79,0,.32.1.16.26-.11s.31-.7.55-.78c.35.23-.13.82-.47,1a1.6,1.6,0,0,1,.23,0s.15.06.24.1l.3.17c.07,0,.25.17.41.28l.47.35.95.72c1.28,1,2.55,2,3.76,3,.6.5,1.21,1.11,1.76,1.56s1.11,1,1.64,1.51a31.42,31.42,0,0,1,3.06,3.52L237,158a3.87,3.87,0,0,0,1.64,1.28c.12.13.12-.24.14-.45l.06-.71.06-1.38c.08-1.81.09-3.2.94-4l-.08.87a54.76,54.76,0,0,0,1.91-5.43l.43-1.42c.12-.49.21-1,.31-1.5.21-1,.41-2,.61-3l.31-1.44c.08-.41.11-.7.17-1.05.1-.67.22-1.32.37-2a23.67,23.67,0,0,1,1.08-3.54c-.86-.44-.54-1.83-.54-3.2s0-2.67-1.18-2.75c.44-1.64.73-2.27,1-3.06a8.31,8.31,0,0,0,.33-1.48,19.5,19.5,0,0,0,0-2.66c-.15-1.27-1.78-1.52-2.45-2.9l1.17-.36-1.8-1.63c.37-.5.74-1,1.07-1.51l-.81-1.25c.14.56-.09,1.33-.46,1.36a6.86,6.86,0,0,1-1-3.45c-.13-1.13,0-2.1.26-2.26-.55-.74-1.05-1.49-1.63-2.19l-1.78-2.08c.48-.15,1.08.55,1.71,1-2.52-1.87.87-1.12-1.46-2.83,0,.44-.73.23-1,.32-.11-1.47-1.76-4-3.49-5.48l.93-.21a17.93,17.93,0,0,0-2-2.39c-.76-.75-1.56-1.49-2.38-2.22s-1.74-1.37-2.62-2.07L225.58,90l-1.32-1c1,1.25-.19,2.19-1.27,1.57l.38-1.35c-1.13.17.76,1.18-1.16,1-1.18-1.06,0-1.84,1-1.63l-1.85-.8c.13-.38.63-.28,1-.61-1.1.19-2.18-3-3.93-2.48l.11-.39a32.91,32.91,0,0,0-4.83-2.4L211.59,81l-2.36-.87c-.49,1-1.7.22-3,.78-1.19-.58-2.42-1.33-3.82-1.89a15.2,15.2,0,0,0-4.52-1.3c-2.35.27-.78.86-1.87,1.42,0-.52-.84-.83-1.45-1.08s-1-.41-.13-.74a28,28,0,0,0-4.62.26A26.12,26.12,0,0,0,184.56,79c.59.3,1.2.43.95.81-.82.29-2-.06-2-.57l.21-.15a14.93,14.93,0,0,1-4.17,1.22c-1.47.29-3.06.42-4.58.71-3,.5-6,1.36-7.31,3.41l.16-.22c-1.12,1.07-2.15,2.2-3.15,3.33-1.75,1,.56-1.34-1-1a17.05,17.05,0,0,1-4.41,4.23,11.93,11.93,0,0,0-3.82,3.77,4.47,4.47,0,0,0-2.62.94,10.62,10.62,0,0,0-1.22,1.06l-.29.3-.24.26-.07.12a6.54,6.54,0,0,1-.23.64c-.1.22-.25.43-.35.32a3.3,3.3,0,0,1-.08-1l-.1,1c-.11.4-.15.19-.13-.11s.09-.71.09-.83c-.19.63-.06.91-.26,1.27a2.51,2.51,0,0,1-.65-.47l-.17-.16-.3-.33-1.14-1.26c-1.54-1.69-3.06-3.43-4.68-5.13A57.33,57.33,0,0,0,132.1,81.8a2.84,2.84,0,0,0-3.26.08c-.89.43-1.67.56-3.38-1l1.67-.76c-3.59-.68-7-1.74-10.62-2.4a24.34,24.34,0,0,0-10.71,0c.39-.33.37-.76,1.06-.78a4.91,4.91,0,0,0-3.33,0c-1.16.36-2.07,1-2,1.35-1.08.09-.37-.66-1.11-.94a3.72,3.72,0,0,0-2.39.84c-.76.45-1.43.82-1.93.5-.17-.1.3-.44.55-.57-.79.71-4.31,1.27-3.07,2a10.92,10.92,0,0,0-3.41,1.32,8.84,8.84,0,0,1-3,1.28c-.33.83-1.33,1.22-2.2,1.62s-1.64.81-1.36,1.66c-.4-.83-1.51-.55-2.64.15a10.18,10.18,0,0,0-1.59,1.25,5.41,5.41,0,0,0-1,1.37c.1-.75-1.43.36-1.38-.62a8.07,8.07,0,0,0-1.72,1.66c-.35.56-.41,1,0,1.29a4.3,4.3,0,0,0-2.37,1.14,7.62,7.62,0,0,0-1.5,1.92c-.8,1.37-1.48,2.49-3.19,2.28a78.17,78.17,0,0,0-6.56,14,1,1,0,0,1-.38-1.17,9.31,9.31,0,0,1,.67-1.7c.56-1.19,1.09-2.33.22-2.71a30.44,30.44,0,0,0-1.44,6,23.83,23.83,0,0,1-.61,2.73,20.54,20.54,0,0,1-1,3c-.59,1.06-.55-.86-.72-1.35-.16,1.17-.47,2.27-.69,3.36s-.47,2.18-.71,3.24a19.21,19.21,0,0,0-.45,3.17,12.15,12.15,0,0,0,.08,3.13c-.16,0-.34-.48-.42-.91,0,.81-.38,1.86.44,1.82l-.18-.8c.63-.59,1.2.26,1.71,1.24s.93,2.08,1.24,2.15c-1.12-.67-1.39.28-1.55,1.17s-.48,1.7-2,.64c.17.53.58,1.18,1.13,1-.14.78-.45,1.06-1.1.28.54,2.88,1.38,1.77,1.64,4.33-.39,0-.61-.46-1.1-.68a10.89,10.89,0,0,1,1.25,1.94,7.31,7.31,0,0,1,.64,2.64c-.26-.08-.51.22-.64-.42a15.65,15.65,0,0,0,2.09,4.73,15.8,15.8,0,0,1,2,4.9c-2-.5,0,1.49-1.34,2.27a18.33,18.33,0,0,0,1.31,1.86l.27-1.1a10.81,10.81,0,0,0,1.61,2.26c.55.58,1.07,1.67,1.71,2.51l-.89-.51a4.23,4.23,0,0,1-.72-.67,3.19,3.19,0,0,0,.7,1l.45.44.38.35,1.25,1.16-.88-1.8c1.81.83,1.26-1.43,2.59.64-.45-.26,1.21,1.35,1.2,2.64h0A3.93,3.93,0,0,1,72,165.24c-.12.58-1.41.91-1.49,1.29,1.52-.19,3.13,2.9,4.87,2.83a1.24,1.24,0,0,0-1.1.65l1.25-.14c.33.84.29,1-.26,1.36,1.58,2,.85-1.87,2.28.89-.22-.12-.25.07-.7-.19a14.44,14.44,0,0,0,2.19,2.41l1.45,1.34c.49.45,1,.9,1.42,1.36a16.44,16.44,0,0,1,2.81.09c1,1.49-3.42.41-2.45,1.66.79,0,1.57-.1,2.35-.18.37,0,.84-.08,1.1-.12l.77-.14,3.07-.61a23.26,23.26,0,0,1,6-.56l-.73-.16c.51-2.12,2.9,1,4.84,0-.47.16-.61,1.19-.48,1,2.65.31,5.41-.59,9.42-1.31l-.49.55c1.57.47,4.12.23,5.81.46.49-.55,1.46-.47.86-1.26,5.25,3,9.91-1.79,14.56.74-.55,0-1.31.5-.87.49l2-.27,1-.14,1.35-.14a1.49,1.49,0,0,0-.73-.71,3.3,3.3,0,0,1-1-.55,3.07,3.07,0,0,1,1.17-.71,4.38,4.38,0,0,1,1.47-.3c-.8.32-.77.69-.28,1a9.89,9.89,0,0,0,2.07.94c-.31-.28-.13-.59-.36-.88a5.78,5.78,0,0,0,1,.38c.28.13.28-.11.32-.22a2,2,0,0,0-.21-.92,2.79,2.79,0,0,1-.23-1.08,1.84,1.84,0,0,1,.76-1.24l.31.47a17.35,17.35,0,0,0,.35-1.84,3.62,3.62,0,0,1,.52-1.54c1.17.05-.06,1.21.7,1.67.66-1.44-.4-3.7,1.21-4.51,0,.74-.47,1.6-.51,2.34,1.83-.84,1.62-1.14,2.33-2.09l-.08.09,1.72-2.15-.61.46c-1.59-3,1.38-3.84.95-7,.37,3.1.7.83,1.7,1.56.61-.46,1.41-1.22,1.58-.8-.3-1.57,1.65-1.54,1.18-3.78.38.1.64-1.19,1.39-.5.47-1.6-.78.05-1.16-.3,0-2.86,4.14-4.59,4.16-8.67.75-3.15-.16-4.26.58-7.16,1-.6.9,1.36.9,1.36a6.13,6.13,0,0,0,1.95-3.81c.17.42.57.27,1.17.06.45-1.11-.91-1.36.32-2.51a5.37,5.37,0,0,1,.86,1.78c.32-1.43.3-3,.65-4.47.78,0,.52,1.25.68,1.92.47-1.61,1.38-4.09.66-5l-.82.77c.22-.56,1,.15.93.63a1.3,1.3,0,0,1-1.64,1.54l.25-1c-2.52-.09-1.57,3.91-2.64,5.72l-1.08-1.53.25,2.55c-.59.21-1.56.07-1.31-1-1.42,1-.08,1.46-1.48,2.2-.19.06-.24,0-.24-.18l-.22,1.54c-.18-.41-1.16-.31-.53-1-2.06,1.93-.82,4.37-2.4,4.69V143c-1.15,3.53.93.86,1,4l-3.53.29.93.88c-.21.31-.63.94-1,.6.11,1.63.59,0,.92,1.11-1.82,1.12-1.81,4.71-3.73,4.21.53,1,1.43-1.24,1.12.79-2.12-.45-.69,2.17-2.3,3.22-.74-.94.49-2.09-1.13-1,1.18,1.72-1.82,2.72-2.14,4.13,1.27.71-.84,3-1.47,5.32-.19-.18-.87.72-1.69,1.88L135,170.16a6.78,6.78,0,0,1-.85.89l-.17-.21a2.1,2.1,0,0,1,.32,2c0,.23-.18.22-.34.25l-.48.07a7.7,7.7,0,0,0-1,.16,1.69,1.69,0,0,1,.29-1.62l-.85,0a1,1,0,0,1-.32.56,1.59,1.59,0,0,1-.32.19,3.8,3.8,0,0,1-.64.15l.37-1.1c-2.06.08-4.13,1.34-6.79.64-.14,1,2.15,2.83-.65,3.55-.11-.56-.23-1.5.5-1.74-.23.08-.85.47-1.33.24l1.1-.94c-1.21-.4-.62.78-1.58.71,0-.79-.73-.56-.6-1.18.25-.08.85.31,1.22,0a4.76,4.76,0,0,1-2.86-1.18.88.88,0,0,1-.78,1.18c-2.06.08-.72-.94-1.92-1.33-.5.55-1.82,0-1.84,1.18-.6,0-.72-.55-1-.86-1.06.53-5,.21-3.76,1.45l.28.08-.18.05h0c-3.48,1.22-7.26-.58-10.73,0V173c-2.06.47-4.6.32-6.07,1.19-.61,0-1.45-.7-1.2-1.18-1.57.32-1.75.76-4,.14,1.58-.71-.56-.6,1.62-.52-2.06-.32-2.53-1-4.72.16a.48.48,0,0,0,0-.62.84.84,0,0,0-.27-.21,1.15,1.15,0,0,0-.19-.14.93.93,0,0,0-.9,0,3.36,3.36,0,0,0,.59.71,3.8,3.8,0,0,1-1.19.07l-.36-.51a8.56,8.56,0,0,0,.85-1,1.73,1.73,0,0,0-.16-.69.45.45,0,0,0-.15-.18l-.21-.2-.27-.23a18.54,18.54,0,0,0-2.41-1.55c-1.6-.93-3-1.86-3.11-4-1.44-.19,1.07,2.13-.41,2.13-1.18-1.54-1.13-4.32-1.54-4.77-1.25-2.45-3.11-.51-4.61-2.89-.11.58-.82,1.68-2.55.46-1.22-1.59,0-2.95,1-2.46.35.32.39.58.26.68.55.34,1.25.81,1.11-.1l-.52.13a3.87,3.87,0,0,0-.44-.9L70,156a2.25,2.25,0,0,1-.08-.24c-.07-.28,0-.67.41-.7l-.25-.14a1,1,0,0,0-.24-.14c-.13,0-.21,0-.25.1a3.85,3.85,0,0,0,0,.91,2.07,2.07,0,0,0,0-.55,6.07,6.07,0,0,0-.24-.72,9.72,9.72,0,0,0-.59-1.26,13.39,13.39,0,0,1-.61-1.26,9.93,9.93,0,0,1-.41-1.57c-.11.44-.5,1-.63.63-.36-1.75-.71-2-1.11-2.16s-.83-.09-1.27-1.23c.31-1.54,1.79,0,.53-2.18.07-1.52,1.14-.6,1.67-.17a3.4,3.4,0,0,1-.7-2.84,19.64,19.64,0,0,0,.33-2.32l.6,1a3.63,3.63,0,0,1-.52-1.67l-.86.77c.08-.67,0-1.22.42-1.26-.7-.6-1.51.74-2.51-.53a3.59,3.59,0,0,0-.13-1.75c-.11-.61,0-1.16.59-1.35-.18,1.42.2,1.32.56,1.16s.83-.38,1.07.76a2.44,2.44,0,0,1-.13-1.64c.14-.1.27.08.34.25,1.06-2.64-1.47-1.12-1.5-3.89.69.35,1.38-.61,1.25-1-.07,1.08-1.21.51-1.7-.55.66-1.75-.36-2-.15-2.92-.13.35-.27.7-.37,1-.72-.43-.46-1.33-.52-2.63.56,0,.22,1.2.52.78-.52-.78-.09-1.54.39-2.33s1.16-1.59.95-2.63c.66-.76,1.31.22,1.8-.45a1.93,1.93,0,0,1,.08-1.3,3,3,0,0,1,.56-.81,2.59,2.59,0,0,0,.84-2.11c-.54.14-.77.26-.91.12a3.41,3.41,0,0,1-.34-1.45,16.19,16.19,0,0,0-.29,1.87l-.24,1.86-.6-2.71c-.36,1.1-.15,2.48-.51,3.08-.4-1.31-.21-1.15-1.14-.83a2.2,2.2,0,0,0,1-2.23,2.75,2.75,0,0,1,.81-2.46l2.17.93c1-1,1.11-2.2,1.42-3.47a7.34,7.34,0,0,1,1.75-4l-1,.72c-.54-.88,1.07-1.88,1.36-3,.57.53,1.24.14,1.93.07-.5-.31,1.57-1.91.56-3.19.59-.19,1.24-.31,1.83-.45A3.78,3.78,0,0,0,77.26,99a3.87,3.87,0,0,1,1.55-2.73c-.07,1.2,1.21.82.26,2.46.68-.57,1.37-1,1-1.42.64,0,1.36-2.4,2.5-2.32.11-.51-.28-1.27.62-1.84.19.07.22.33.22.33-.22-.32,1.08-1.35-.18-1.56a5,5,0,0,0,2.7-.52A22.23,22.23,0,0,0,88.51,90,11.83,11.83,0,0,1,91,88.69a3.56,3.56,0,0,1,2.41-.19c.88-.47,1.83-1.06,2.82-1.5a26.82,26.82,0,0,1,2.84-1.1c0,.25.1.38-.25.38a1.6,1.6,0,0,0,1.82-1.22,2,2,0,0,1,.63-.89,2.32,2.32,0,0,1,1.55-.24c1.65,1-1.39.93-.4,1.26.43,1.25,1.21,1,2.19.64s2.18-.84,3.13-.06l-.44.16c.72.44,1.55.15,2.53-.17a6.55,6.55,0,0,1,3.26-.41.45.45,0,0,0-.06.38c1.73-1.2,4.94-1,7.31-.62-1,.73-1.17.23-1,1.32,1,.17.17-1.69,2.28-1.3.5.72,1.72,1.76,1.48,2.85-.61-.21-1.2-.47-1.81-.64a1.47,1.47,0,0,0,1.42,1.13,3.45,3.45,0,0,1,1.74.36l-.37.52a6,6,0,0,0,1.73.4,12.82,12.82,0,0,0,1.36.06,5.12,5.12,0,0,1,3.15,1l0-.58c2.37-.36.8,1.53,2.93,1.56l-.47,1.61a24.29,24.29,0,0,1,6,2.44,8.61,8.61,0,0,1-2.81-.53c-1-.29-2-.64-2.77-.8a21.8,21.8,0,0,0,2,1.37,3.54,3.54,0,0,0,2.06.73c-.46-.18-1.16-.26-1.36-.74a7.38,7.38,0,0,1,5.45,2.41c-1.21,1-.25,2.14.89,3.5.28.34.59.68.87,1l.56.72c.21.27.41.56.6.84a9.78,9.78,0,0,1,1.55,3.58,33.51,33.51,0,0,1,4.58,5.35c1.42-1.76,3-3.44,4.65-5.35l2.65-2.9,1.21-1.28c.26-.28.53-.55.78-.84-2.88-.42.89-1-1.06-2.54.69-.9,1-1.18,1.2-1.14,1.16-.43,2.31-.86,3.47-1.22,1.05,0-.42,1.09,0,1.43,1.9-1.42,1.42.1,3-.39-.8-.45-.19-1.5,1.07-2-.73.07-1.45.19-2.17.3a2.58,2.58,0,0,1,2.64-1.61,2.75,2.75,0,0,0,2.71-1.44c-.14.4-.29.79-.41,1.21a23,23,0,0,1,3-2.42,16,16,0,0,0,1.67-1.46,4.43,4.43,0,0,0,1-1.71c.39.13,1,.58.44,1a57.63,57.63,0,0,0,5.5-3c1.88-.94,3.81-1.68,5.41-1.24l-.21.62c.67-.24,1.12-1.3,2.08-.76,0,.25-.24.61.1.63.34-.2,1.86-1.21,2.83-.79l-.81.65a6.8,6.8,0,0,0,2.51.12,9.62,9.62,0,0,0,2.21-.44c.72-.21,1.44-.37,2.19-.53a6.74,6.74,0,0,1,2.38-.11c-.21.86.4,1.59,1.19,2.22a15.54,15.54,0,0,0,2.42,1.59l-.14.21c4,1.73,7.51,1.76,11.57,3.59A7.91,7.91,0,0,0,217.17,96c.71.78,1.7,1.51,2.55,2.33s1.83,1.59,2.6,2.49a15,15,0,0,1,2,2.75c-.16-.7,1.09-.84,1.7-.36.34,1,2.72,1.37,1.32,2.23-.06-.11-.13-.2-.19-.3a2.24,2.24,0,0,0,.09,2.19c.34.7,1,1.33,1.31,2l1.93-.87a7.28,7.28,0,0,0,.67,3.62,12.46,12.46,0,0,0,.81,1.69c.32.55.66,1.09.93,1.65a15.51,15.51,0,0,1,1.42,3.14,3,3,0,0,1-.29,2.59c.8.82,1,2,1.7,2.92l-1.12.15.09,1,0,.89c0,.56,0,1.09.09,1.64.15,1.09.15,2.27.39,3.94l-.84-.66c0,.93.85,1.51,1.64,2.12s1.65,1.21,1.65,2.14l-1.7.45a14.26,14.26,0,0,1-.45,2.5l-.3,1.24a1.73,1.73,0,0,1-.23.37,1,1,0,0,0-.17.64,7.61,7.61,0,0,0,.34,1.36,5.76,5.76,0,0,1-.57-1.08c-.07.17-.36.09-.42.28a2.1,2.1,0,0,0,.07.83c.05.24.11.56.2,1s.2.82.37,1.4c-.41-1.49-.56-1.7-.74-1.54a2.24,2.24,0,0,1-.89.63c.08-.45.14-.92.19-1.39a2.37,2.37,0,0,1-.78,1.32c-.29.18-.6.14-1.23-.21-.17-.38.3-1,.42-.45-.19-.61-.45-.5-.81-.48s-.84-.11-1.77-1.47c.41.08.85.18,1.3.3-1.93-2.08-2-1.65-3.37-1.81a7,7,0,0,1-2.13-2.27,11.13,11.13,0,0,1-1.56-3.26.8.8,0,0,1-.32.36l0,0s0,0-.06.09l-.1.32-.24.63a5,5,0,0,1-1.25,2c-.24-.31,0-1.06.21-1.46a15.81,15.81,0,0,0-3.32,4.59c-.74,1.41-1.41,2.66-2.42,3.08a.84.84,0,0,0-.75-.12l2.56-3.19c.77-.94,1.22-1.45,1.15-1.3-.26-.5-.92-.15-1.45,0s-.94,0-.39-1.86c-.38.79-.79,1.71-1.18,2.64l-.6,1.4-.15.35c0,.11,0,.16-.07.24l-.12.45a5.83,5.83,0,0,1-1.66,3,1.1,1.1,0,0,1-.44,0l0-.23a2,2,0,0,0-.65,1.1,6.43,6.43,0,0,0-1.25,1.11c-.82-.33-1.81,1.58-2.47,2.36.94.62,0,1.57,1.48,1.15-.16.08,0-.24.39-.8a1.47,1.47,0,0,0,.18-.42l0,.12c.39-.55.9-1.26,1.5-2.05a2.38,2.38,0,0,1-1.37,2.46c.25.86.48,1.77.56,2.24-2.1.14-4.42,1.74-5.41,1.44-.71,1.43-1.75,2.94-2.56,4.46a11.76,11.76,0,0,0-1,2.25A4.59,4.59,0,0,0,202,161c0,.26.11.56.19.88-.2.7-.81.06-1.11-.1,0-.4.25-.62.12-.94a7.22,7.22,0,0,1-.76,1.77,5.91,5.91,0,0,0-.56,2.68c-.55.16-.41-.57-.37-1s.07-.64-.44.21l.12-.9c-.23-.23-.4,0-.53-.59a1.06,1.06,0,0,0-.44-.6c-.34-.17-.84-.13-1.49-.38-1.15-.25-3.51-2.63-3.89-6.17.08.49.13.74,0,1-2.82-7.22-9.24-12.78-11.39-20.28-.76-2.05-1.69-1.75-3-2.49l.78-1-2.35-1.17c-2.53-2.16-.35-6.22-4.1-8.62l-.42.87c-.62-1.31-2.8-3.63-1.88-3.92-.2,0-1,0-.9-.66l.52-.37-2.78-2.44c-.84-2.08,1.22-1.42,1-3l-.66-4-5.8,4.21a4,4,0,0,0-.94,1.26c-.46,1.43-.29,4.61.34,4.3.3-.52,1.05-1.18,1.63-.93l-.33,1.36c1.55,1.07,2.77,2.87,5.45.49l.05-2.58,1-.22-7.56.29-.06.18-.06-.1,7.81-.3-.79,1.66a1.45,1.45,0,0,0,.93-1.59l-8.08.31c.27.14.56.25.84.38a1.66,1.66,0,0,0-.34,1.35l2.72,1c-.48.62-1.77-.11-1.31,1.4,1.26.48.85-1.73,2.24-.5-.13,1.39-.89,1.47.41,2.21-.31.4-.72.33-1.17,0,1.1.69,1.82,2.49,3,2.48-.29,1.53,2.28,3.2.72,4a6.54,6.54,0,0,1,2.88,1.89c-2.82-.55,2,3.47-.21,4.21,2.37.24,3.45,4,5.68,5.63-.2-.05-.61-.13-.64-.37.62,1.31.35,2,.53,2.94,1.43-.66,2.91,1.06,4.37,1.58-.36,2.29-2.13,0-3.08,1.28,1-.74,2.69,1.95,3.28.88-.09,1.64.22,1.23-.53,2.5,1.79-.82.94.9,2.54,1.23.19,2.17-1.3,1.39.32,2.91C183.45,156.31,181.86,155,181.86,155ZM219,148.56h0l-.6.87Zm2.38-3.09a3.82,3.82,0,0,0-.33.35l-.61.78c-.4-.12-.61-.49-.33-.82,0,.17.24.09.53-.06a1,1,0,0,1,.39-.17A1.59,1.59,0,0,1,221.33,145.47Zm-11.46,2.05c.29-.64.6-.68.84-.61a11.1,11.1,0,0,0-.62,1,1.56,1.56,0,0,0,.06.15A1.63,1.63,0,0,1,209.87,147.52Z"/><path class="cls-3" d="M210.28,149.39a1.4,1.4,0,0,1-.11.27,3.9,3.9,0,0,0,.45-.16l-.13-.41Z"/><path class="cls-3" d="M110.81,173.24l-.09,0a.51.51,0,0,1,.19.16C110.85,173.32,110.85,173.28,110.81,173.24Z"/><polygon class="cls-3" points="243.59 117.8 243.31 117.89 243.67 118.22 243.59 117.8"/><path class="cls-3" d="M135.52,176.79a1.36,1.36,0,0,0,.57.28A2.24,2.24,0,0,0,135.52,176.79Z"/><path class="cls-3" d="M141.68,167.33l1-1.11A8,8,0,0,0,141.68,167.33Z"/><path class="cls-3" d="M145.72,160.59a1.44,1.44,0,0,0-.36-.35h0Z"/><path class="cls-3" d="M56.25,127.28c0-.12,0-.23,0-.33C56.12,126.16,56.14,126.69,56.25,127.28Z"/><path class="cls-3" d="M69.43,163.31a6.79,6.79,0,0,1-1.2-.52C68.61,163.34,68.94,163.73,69.43,163.31Z"/><path class="cls-3" d="M77,88.18v0l.22-.16Z"/><path class="cls-3" d="M67.08,161.51a2.65,2.65,0,0,0,1.15,1.28A4,4,0,0,0,67.08,161.51Z"/><path class="cls-3" d="M161.52,130.53l.21-.32a.28.28,0,0,1-.14-.12Z"/><path class="cls-3" d="M161.59,130.09l.07-.43C161.58,129.83,161.51,130,161.59,130.09Z"/><path class="cls-3" d="M161.81,128.74l-.15.92C161.8,129.39,162,129.07,161.81,128.74Z"/><path class="cls-3" d="M156.37,139.54l.31.3A.81.81,0,0,0,156.37,139.54Z"/><path class="cls-3" d="M155.05,142.41c.42-.63,1.63-1.29,1.87-2.34l-.24-.23C157,140.55,154.76,141.46,155.05,142.41Z"/><path class="cls-3" d="M144.6,151.88l1.49-2.21c-.6.21-1.39.49-.94-.63C142.48,151.43,146.33,148.87,144.6,151.88Z"/><path class="cls-3" d="M140.33,158.91c.47-1.36-.57-.27-.75-.45C139.52,159.44,139.51,159.68,140.33,158.91Z"/><path class="cls-3" d="M92.31,172.57l.13-1C91.35,171.71,92.44,171.94,92.31,172.57Z"/><path class="cls-3" d="M79.91,176.25c.21.54.45,1.11.71,1.71a7.83,7.83,0,0,0,.93-.37Z"/><polygon class="cls-3" points="80.41 166.01 80.84 166.27 79.33 165.17 80.41 166.01"/><path class="cls-3" d="M92,90.52l-.83-1C90.63,90,91.15,91.35,92,90.52Z"/><path class="cls-3" d="M129.6,91.2c.07.74.78,1.71,1.71,1.57C130.59,92.21,130.1,91.28,129.6,91.2Z"/><polygon class="cls-3" points="230.06 110.97 229.31 110.51 230.33 111.6 230.06 110.97"/><path class="cls-3" d="M200.91,178.47l-3.22,4.1-2.63-4.45-16.2-27.36-13.41-22.94c-9.13,16.47-18.3,32.91-27.64,49.27l-.52.91h-1q-25.84-.36-51.7-.64L150.39,249l83.14-90.55c-3.2-3.17-6.44-6.32-9.63-9.5Q212.47,163.76,200.91,178.47Z"/><path class="cls-3" d="M198.81,176.83c.13.4.82.78,1.1.16l-.75-1.18Z"/><path class="cls-3" d="M203.44,174.88c0-1-.38-2.4-1.64-2.76.53,1.39,0,1.21.69,2.79a.82.82,0,0,1-1.35.25c.13.39-.85.62-.41,1.41,1.33,0,2-.86,2-2.27C203.15,174.29,203.28,174.68,203.44,174.88Z"/><path class="cls-3" d="M220.48,169.91l.4-.2A1,1,0,0,0,220.48,169.91Z"/><path class="cls-3" d="M193.2,198.55c.18-.24.17-.43.09-.52C193.17,198.3,193.07,198.52,193.2,198.55Z"/><path class="cls-3" d="M187.56,202.54c.13-.08.22-.16.33-.24C187.7,202.33,187.55,202.4,187.56,202.54Z"/><path class="cls-3" d="M220.48,169.91l-1,.5C219.73,170.75,220.07,170.22,220.48,169.91Z"/><path class="cls-3" d="M206.33,166a1.34,1.34,0,0,0-.08.66c.07-.17.14-.34.22-.51Z"/><path class="cls-3" d="M229.4,158.48l-.13-.12a6.65,6.65,0,0,0-.81,0C228.76,158.36,229.07,158.41,229.4,158.48Z"/><path class="cls-3" d="M224.2,153.65a12.71,12.71,0,0,0,.12-2.09,2.58,2.58,0,0,1-.12.62.42.42,0,0,1-.07.15s0,.15-.06.19C224.09,152.84,224.13,153.2,224.2,153.65Z"/><path class="cls-3" d="M211.76,166.4l-.11.4A3.84,3.84,0,0,0,211.76,166.4Z"/><path class="cls-3" d="M224.83,163.23a1.06,1.06,0,0,0-.38-.18A.84.84,0,0,0,224.83,163.23Z"/><path class="cls-3" d="M197,171c-.07,0-.11.07-.17.1C197,171.13,197,171.11,197,171Z"/><path class="cls-3" d="M201.13,178.65l-.08.21a3.72,3.72,0,0,0,.47.42Z"/><path class="cls-3" d="M178.14,210.67l.05,0C178.32,210.31,178.21,210.46,178.14,210.67Z"/><path class="cls-3" d="M108.88,196.9c.13,1.62-2.37-.67-1.88,1.51C107.2,198,109.48,198.52,108.88,196.9Z"/><path class="cls-3" d="M206.66,165.79a2.41,2.41,0,0,1,.33-.44A1,1,0,0,0,206.66,165.79Z"/><path class="cls-3" d="M107,198.41h0l.06.22Z"/><path class="cls-3" d="M159.38,232.1a1.41,1.41,0,0,0,.56.12C159.85,232.14,159.7,232.1,159.38,232.1Z"/><path class="cls-3" d="M174.91,217.55l-.47.29A1.52,1.52,0,0,0,174.91,217.55Z"/><path class="cls-3" d="M153.1,241.28c-.24.14-.49.18-.48.39a.42.42,0,0,0,.14.06C152.67,241.59,152.74,241.41,153.1,241.28Z"/><path class="cls-3" d="M149.05,242.77a1.77,1.77,0,0,0,0,.32l.15.08Z"/><path class="cls-3" d="M178.82,141.3a3.61,3.61,0,0,1-.6,1C178.82,141.71,179.91,143,178.82,141.3Z"/><path class="cls-3" d="M206.83,166.35c-.18-.23-.23-.39-.17-.56-.07.11-.13.22-.19.33C206.58,166.25,206.7,166.36,206.83,166.35Z"/><path class="cls-3" d="M159.32,247.63l-2.4,2.36A30.6,30.6,0,0,0,159.32,247.63Z"/><path class="cls-3" d="M131.05,173.35l.42-.13A.42.42,0,0,0,131.05,173.35Z"/><path class="cls-3" d="M150.16,257.09a15.57,15.57,0,0,0-1.2-2.45c-.1,0-.22,0-.3.1Z"/><path class="cls-3" d="M178.21,142.28h0Z"/><path class="cls-3" d="M186.58,151.27c-.86-1.51-1.66,0-2.58.14-1.42-1.57.45-1.37.74-2.36-1-.92-2.66-1.08-3.1-2,.17-.18.16-.39.53-.35-1.7-.59-2.1-3.48-4.17-4.1a.86.86,0,0,1,.21-.37,5,5,0,0,1-1.63,1.24c-.41-.66-1.53-.78-.85-1.52.22.43.58.27,1,.31l-.77-.5c.82-1.33,1,.72,1.86.2-1.19-1.14-3.12-2.16-3.4-3.41,1-.91,1.84,2.23,2.06.21l.5,1.89c1.12-2.32.45,1.07,1.76-1.23-.91-2.34-2-2.05-2.9-4.38-1-.16-.82.81-1.85.54a5.19,5.19,0,0,1-1.55-2.52,9.37,9.37,0,0,1-.18-2.36,7.63,7.63,0,0,0-.24-2.3,3.08,3.08,0,0,0-1.45-1.85c-.5.05-1,.57-1.4.66s-.86-.22-1.45-2.13a12.53,12.53,0,0,1,.89-1.53c-1.05-1.95-1.45-1.53-1.78-1.23-.17.15-.33.26-.56,0a2.93,2.93,0,0,1-.42-.69l-.28-.65-.07-.19s-.06-.19-.09-.13l-.17.13c0-.22.09-.45.15-.67,0,0,0-.15,0-.13h.06l.11.07a2.92,2.92,0,0,1,.49.5c.31.38.54.73.39.3a8.33,8.33,0,0,0-.74-2c-.09-.13-.16-.17-.23-.15a.16.16,0,0,0-.08.06,1.64,1.64,0,0,0-.08.36,10.88,10.88,0,0,1-.78,3.2c-.11-.73-.23-1.44-.36-2.14-1.08,2.15-2.14,4.65-3.11,7s-1.86,4.57-2.82,6.53c-.19-.48-.09-1.54-.94-.86-.32.73-.64,1.43-1,2.13l-.4.82-.33.61a22.43,22.43,0,0,1-1.54,2.38,49.89,49.89,0,0,1-3.59,4.27l.38,1.72c-.16.26-.74.24-.78-.16-1,.95.62.42.71,1.21-.31.71-1.09.55-1.16-.05-.29,2.55-1.43,6.94-3.74,8.49l-.07-.59c-1.36,1.46,1,3.09-.81,4.12v-.4c-2.51,3.43-3.85,8-7,9.95,1.17,1.37-2.69,3.26-.78,4.67a6.62,6.62,0,0,1-1.28.75,3.33,3.33,0,0,1-.65,0,6.19,6.19,0,0,1-1.1-.19h0c-.1,0,0,.32.09.73s.05.87-.18,1l-.25-1.24a3,3,0,0,1-.14.65c0,.1-.08.21-.13.32l-.08.16-.18.16-.79-1.49-1.06.31c.42.08.88.56.81.92-1.64.53-4-.91-4-1.54l-3.89,1c.09-.49.74-.66,1.26-1-2.09,1.24-.36-1.3-2.27-.17.25.28-.15.73-.2,1-.93-.76-3.09-.79-4.69-.49l.32-.85c-2.88-.25-6.08.33-9.31.28a1,1,0,0,1-.08,2l-.36-1.31c-.63.8,1,.5-.29,1.47-1.2-.16-.79-1.49-.09-1.91l-1.48.44c-.08-.39.27-.59.37-1.09-.62.8-2.52-1.34-3.41.06l-.08-.39a32.93,32.93,0,0,0-3.89.17l-.41,0h-.29l-.38,0-1.53.06c-1,0-2.09.07-3.29.07.41,1.13-1.53.86-2.13,1.76-1.64-.2-3.57-.54-5.68-.82a46.47,46.47,0,0,0-6.33-.48c-.93.27-.66.51-.21.77s1.11.53,1.19.86c-2.07-1.05-5.83-1-5.34-1.73-.92,0-1.69,0-2.1.07,1.26,1.28,2.28,2.28,3.54,3.45s2.77,2.51,4.86,4.3c.3-.3.2-.67,1-.28.89.73.71,1.41-.16,1.19l-.35-.23a17.16,17.16,0,0,1,3.69,3.71c.93,1.27,1.74,2.67,2.68,4.2,2.41,3.62,2.86,5,4.82,5.54l-.2-.06,3,1.66c.89,1.24-1.18-.14-.89,1.11,3.65,1.45,3.59,4.28,6.4,5.66-.7,3.7,5.57,5.75,6.21,9.29l.4-.61c1,.11.35,1,.62,1.52.35-.44-.11-1.06.51-1,5.14,4.33,8.53,10.84,12.68,16.3,1.55,2,3.67-1.44,4.55,2l-1.58.23c4.58,2.64,6.93,7.63,11.26,10.36-.42,0-.72.25-1-.11,0,1.42,2.57,2.87,3.16,2.36.45.62-.4.61-.37,1.22.29,1.16,2.67,1.11,2.35,2.16,0,.18-.43,0-.62-.09.42.11.89.66,1.41,1.16.83.82,1.46,1.32,1.43.47a19.14,19.14,0,0,0,3.09,3.41,13.83,13.83,0,0,1,2.76,3.2c.41-.14.9.27,1.43.87,1.08-1.13,2.48-2,2.42-3.65.17,2.49,4.45-2.7,5.13-4.69,0,.44.35.23.77,0s.61-.13.75.29c.88-1,1.46-2.14.62-2.59,3.26-.35,2.06-4.83,5-4a89.56,89.56,0,0,1,6.07-9.65c1.24,1.31-2.54,3-1,4.19,1.74-3,1.92-5.48,4.52-7.66.77-.48.24.89.27,1.32,1.74-3,4.55-4.71,5.86-7.6.12.12,0,.49-.07.81.36-.48,1.13-.84.48-1.35l-.23.58c-1.52-.11-.24-3.42-.63-3.92,1,2.33,2.45-1.79,3.55,1.39a1.09,1.09,0,0,0-.27-1.32c.51-.32.87-.24.94.62,1.11-1.87-.05-1.9,1.27-3.31.29.27.14.66.35,1.13.09-1.24.18-2.49,1.53-3.46.11.23.46.3.13.66,1.8-2.14,1.71-4.91,4.33-6.66.66,1.83,1.12-.39,2.33.5l.79-1.51h-1c1-1.05,1.06-2.73,2.26-3.31l-.27,1.2,1.62-2.18-1.46.74c.43-1.59-1.49-1.16.11-2.29-.15.39,1-1.06,2.15-1h0a2.63,2.63,0,0,1,1.26-2.26c.54.12,1.07,1.28,1.42,1.36-.44-1.36,2-2.73,1.66-4.28a1.53,1.53,0,0,0,.78,1l-.35-1.13c.69-.27.88-.24,1.26.27,1.5-1.36-1.83-.81.39-2-.06.19.11.23,0,.62,1.93-1.48,2.66-3.85,4.52-5.14,1.54.54-1,1.67.4,2,2-2.53,3.13-6.07,5.47-8.09l-.51.31c-1.27-1.75,2.32-1,2.64-2.81-.14.39.53,1.17.42.93,1.68-1.32,2.53-3.52,4.2-6.33l.13.66c1.2-.58,2.42-2.22,3.51-3-.13-.66.45-1.16-.44-1.35,2.54-.48,3.56-2.21,4.5-4,.24-.43.47-.86.72-1.28a14.25,14.25,0,0,1,1-1.43,9.78,9.78,0,0,1,3.3-2.41c-.39.44-.46,1.21-.12.84l1.22-1.7.57-.81.29-.4a3.45,3.45,0,0,0-.44-.38c-.51.15-.59.25-.63.39a8.83,8.83,0,0,1-1.33.62.71.71,0,0,1-.22-.33c-.06-.13,0-.26-.34-.39a5.43,5.43,0,0,1-1.24-.83c.9.45,1.42.44,1.67.18s.21-.78.22-1.13c-.24.16-.79.05-1.08.17.23-.93-.4-.89-1.06-.8s-1.42.19-1.75-.91l.53-.16c-.93-.57-2-.7-2.54-1.45.38-1.13,1,.3,1.72-.25a4.53,4.53,0,0,0-2.15-.84,1.58,1.58,0,0,1-1.43-1.33c.53.1,1.17.72,1.78.91a5.59,5.59,0,0,0-.71-2.06c-.26-.39-.53-.62-1-1.18l.08.12-2.06-2.83.53,1c-.48.51-.84.69-1.19.64a1.27,1.27,0,0,1-.52-.24l-.06,0,0,0,0,0-.12.17-.23.32a7,7,0,0,0-1.73,3.54c.33-1.83.39-2.32.19-2.37s-.53.19-.7-.58c-.58.19-1.52.79-1.47.18a2.78,2.78,0,0,1-1.24,1.84,3.19,3.19,0,0,0-1.21,2.37c-.09-.05-.22,0-.31.09l-.29.21c-.21.13-.45.19-.77-.2-.56,1.22.73.17,1.05.56-.19,2.41-4.19,2.75-4.53,6.16-.94,2.43-.18,3.61-1.09,5.84-1,.24-.73-1.38-.73-1.38a4,4,0,0,0-2.11,2.68c-.12-.4-.5-.38-1.07-.37-.51.82.73,1.38-.5,2a5.36,5.36,0,0,1-.65-1.72c-.41,1.11-.52,2.44-1,3.58-.72-.18-.38-1.19-.47-1.79-.57,1.22-1.6,3.06-1,4l.82-.43c-.25.41-.88-.37-.81-.77,0-1.41,1.29-1,1.63-.86l-.31.81c2.33.74,1.76-2.86,2.89-4.1l.89,1.58,0-2.2c.57,0,1.45.35,1.14,1.15,1.39-.44.19-1.2,1.54-1.45.18,0,.22.09.2.21l.33-1.23c.14.4,1,.57.42,1,2.05-1.07,1.1-3.44,2.58-3.29l0,.2c1.35-2.65-.79-1-.58-3.58l3.29.69-.79-1c.22-.21.66-.62,1-.24,0-1.39-.53-.17-.76-1.17.89-.23,1.4-1.1,1.9-1.79s1-1.23,1.81-.65a.53.53,0,0,0-.75-.32c-.22.06-.38.08-.17-.72.9.56,1,.25,1.17-.32s.36-1.45.94-1.41c.25,1.45-.52,1.5.5,1.75-.26-1.14.15-1.5.53-1.53s.76.25.95-.28c-.1-1.32.23-1.11.7-.72a6.86,6.86,0,0,0,1.63,1.36c-.2.49,1.57,2.67,1.79,3.63l-.25.09c1.5-.58,2.25.55,3.35,1.2a7.19,7.19,0,0,1-2.51-.19l.49.47a3.1,3.1,0,0,1,.94.19.45.45,0,0,1,0,.46c-.43-.08-.86-.15-1.31-.2-.24.3-.14.67-.27,1.15a1.78,1.78,0,0,1-1.19,1.26,5.77,5.77,0,0,0,1.74.91c.65.29,1.09.74.54,1.84-.47-.31-1.22-.89-1-1.47-.08.19-.13.81-.56.93l-.08-1.28c-1,.43.23.89-.35,1.4-.57-.54-.8,0-1.19-.47.08-.19.69-.27.67-.7a3.46,3.46,0,0,1-2.42.85c.38.25.78.72.43,1.26-1.07,1.24-1.08-.23-2,.19.13.67-1,1-.14,1.87-.33.35-.8,0-1.16,0-.19,1-2.57,3-1,3.17l.2-.11c0,.05,0,.08-.05.14h0c-1,2.84-4.4,3.8-5.89,6.17l-.29-.27c-.78,1.52-2.28,2.88-2.45,4.32-.33.36-1.3.36-1.51-.12-.63,1.13-.4,1.54-2.11,2.43.35-1.39-.74-.09.5-1.29-1.35,1-2.07.82-2.46,2.84-.34-1.13-1.77,0-2.07.82l1.31-.35a8.44,8.44,0,0,1-1.66,1.75l-.69-1.21c-3.46,1.37-2.05,6.31-5.77,6.35.09,1.28,1.71-.89,2,.43-1.18,1-3.67.9-4,1.25-2,1,.11,2.76-1.76,4a1.43,1.43,0,0,1,.87,2.29c-1.17,1-2.75,0-2.37-.93.22-.3.45-.33.56-.21.21-.48.5-1.1-.29-1l.22.47c-.88.24-2.27,1.83-2.51.94-.45,1.16.24.89,1,.42-1.84,1-2.1,2.26-3.82,3.44.42-.06,1,.1.81.33-2.45,1.8-.23,1.58-1.44,3.21-1.31.36-1-1.47-1.92.44-1.2.58-1.11-.66-1.06-1.29-.58,2-2.78,2.15-3.62,2.81l.37-1a3.71,3.71,0,0,1-.88,1.29l1.07.23c-.51.31-.84.67-1.12.39.06.86,1.47.74,1.3,2.18-.87.23-1.19,2.06-2.29,1.4,1.93-1.48-1.12-.66.11-2.29a2.26,2.26,0,0,1-1,1c-.16,0-.13-.24-.08-.4-2.38.93.34,1.74-1.3,3.47a.91.91,0,0,0-1.51-.11c.66-.7,1.18.46,1,1.48-1.44.75-.82,1.5-1.4,2l.8-.49c.32.7-.27,1.2-.82,2.14-.47-.31.37-1-.07-.85.12,1.71-2.75,1.09-3.25,2.87-.87.24-1-.85-1.73-.57-.57,2-2.07.81-2.82,2.76,1.08.23,1,0,.74,1.64l1.66-2.81-.36,2.45c.66-.7.93-1.9,1.44-2.22-.09,1.25-.19,1,.7,1.21-1.94,0-1.15,2.49-2.89,3L166.6,225c-2.33,1-1.86,3.81-4.31,5.6l1-.42c.42.93-1.15,1.44-1.52,2.41-.52-.6-1.14-.36-1.78-.38.46.36-1.51,1.56-.53,2.83l-1.67.27c-1.94,1.49-.2,3.55-2,5.06-.16-1.09-1.28-.69-.69-2.25-.52.56-1.1,1-.7,1.36-.34,0-.5.57-.71,1.14a4,4,0,0,1-.38.8c-.15.21-.38.39-.54.3.14.36.65,1,.19,1.42a.84.84,0,0,1-.22-.33c.11.16,0,.44,0,.74a.73.73,0,0,0,.46.82,1.7,1.7,0,0,0-1.61.15,6.64,6.64,0,0,0-1.21,1.33,3.49,3.49,0,0,1-1.36-2.77,9.88,9.88,0,0,1-1.22-.79,3.44,3.44,0,0,1-.34-.26l-.49-.44c-.32-.3-.62-.58-.89-.85.24-.09.3-.27.43,0-.88-2.05-2.55.58-3.56-1.74.11-1.77,1.37.47,1.21-.42,1.69-2-2.22-1.89-2.2-4.11l.38.19c-.18-1.51-2.76-1.55-4-3.16,0,0,.24-.09.3-.26-1.91-.12-4-1.74-5.58-2.92,1.16-.25,1,.28,1.51-.69-.7-.54-1.05,1.31-2.44.23,0-.79-.46-2,.24-2.91l1.15,1.16c.49-1.58-1.47-1.52-1.87-2.33l.54-.34c-1.85-1.71-3-.67-4.77-2.73l-.16.52c-2.14,0-.19-1.5-2-1.8l.87-1.39a29.76,29.76,0,0,1-4.83-2.56c1.53-.07,3.35,1,4.72,1.49-.64-.72-2.3-2.33-3.21-2.17.37.18,1,.28,1.07.72a6,6,0,0,1-4.5-2.19c2.49-1.82-2.81-4.21-2-6.84-3.13-1.74-4.2-5.29-7-8.08-.81,2.64-.83-.81-2.47,1-.74-.57-.95-.85-.89-1l-.81-3c.08-1,1,.28,1.34-.15-1.23-1.61.19-1.33-.24-2.75-.46.8-1.39.33-1.92-.74l.26,2c-2.87-1.2-.14-3.19-3-4.41l1.18.14c-1.32-.77-3.63-4-6.05-3.7,0-.2.2-.34.35-.51a2.19,2.19,0,0,1,.25-.2l.11-.06s.08,0,.15,0a.94.94,0,0,1-.09-.13.1.1,0,0,0,0-.05l-.12-.09a2.43,2.43,0,0,0-.37-.14,11.7,11.7,0,0,1-1.23-.45c-.91-.39-2-1.18-1.27-1.24l1.13.35-1.19-.48c-.42-.18-.68-.35-.18-.24a10.15,10.15,0,0,0,1.26.43c-.24-.1-.84-.37-1.36-.65s-.93-.55-.64-.49c.57.29,1.12.55,1.65.8.12,0,.18,0,.17,0,.42.07-.33-.4-.83-.93s-.84-1.11-.35-1.28a29.8,29.8,0,0,0,2.67,1.89c.62.41.93.63,1.12.77l.14.25c.14.06.19,0,.28-.14s.06-.16.22-.25l1.25-.32a51.16,51.16,0,0,1,5.1-1.35c2.25,1.94,7.7.89,11.34,2-.55-.33.11-1.37.76-1.54.86.37,2.39-1.19,2.23.42l-.3,0c.62,1.59,2.39,1.19,3.77,1.25l.26-2.11c1.78,1.56,4.14,1.31,6.3,1a16.42,16.42,0,0,1,3-.25l.44,0,.5.05a9.59,9.59,0,0,1,1,.19,5.62,5.62,0,0,1,1.72.76,18.28,18.28,0,0,1,2.9-.62,11.17,11.17,0,0,0,.54-1.74l.69,1.07,1.58-2.39c.24-.38.47-.74.69-1.11l.62-1a25.83,25.83,0,0,0,1.61-3.13l.41.93c.88-1.43-1.8-3.46-1.1-4.85l1.7.43c1.41-2.57,4.15-4.43,4.24-7.71.19.16.57.48.4.93.71-1.18,3.61-4.1,1.34-4.8,1.34.71,1.61-2.57,1.81-4.27l.85.76c-.59-1.87-.91-2.09-.34-3.92.34-.31,1,.1.43.48,1.23-1-.36-1.52,1-2.79l.29.93c.82-1.28.43-1.36.11-2.5.08-1.05,1.65-2.37,2.64-2.07a1.7,1.7,0,0,1-.06-2.24c.4.08.44.48.46.68,1.91-1.84.72-3.92,2.53-4.91a1.82,1.82,0,0,0,.68.14l-.67,1.15-.6,1c-.33.54-.54.84-.54.76.9.5,1.85-.84,2.45,1,0-.76-.12-1.83-.07-2.86l0-.38c0-.13,0-.26,0-.29a1.1,1.1,0,0,1-.05-.35.43.43,0,0,1,.25-.44,1.47,1.47,0,0,1,.29.22l.05.14c.13,0,.11-.18,0-.44.2,0,.31,0,.39-.05.48.88.43.16.56,0-.41-1.57-.1-1.74-.62-2.72.06.06,0,.27-.11.56a1.39,1.39,0,0,0,0,.3l0-.16c-.11.27-.26.59-.43.93-.19-.84-.16-1.87.34-1.48a24.43,24.43,0,0,1-.26-3.25,16.29,16.29,0,0,1,1.12,1.93,6.31,6.31,0,0,1,.43,2.23l0-.17a.16.16,0,0,1,0-.06l.08,0a.4.4,0,0,1,.19,0,3.48,3.48,0,0,0,.46.11c.35,0,.82-.11,1.66-.77.4.15-.07,1.08-.21,1.5-.24,0-.35-.24-.56,0,.31,0,.61.42,1,.72a1.86,1.86,0,0,0,1.61.38c.32,1.87-1.68-.18-.24,1.81l-.55-.06c.38,5.33,7.18,4.82,7.25,11,0-.41,0-.62.13-.81,1.93,5.9,7.44,10.12,8.66,16.34.5,1.68,1.4,1.36,2.55,1.89l-.85.93,2.1.82c2.16,1.64-.33,5.26,3,7l.49-.76c.45,1.06,2.26,2.87,1.36,3.18.19,0,.92-.11.78.5l-.53.35,2.37,1.86a1.77,1.77,0,0,1,.1.63l-.07,1.07,2.65-.9c1.2-.41,1.47,1.85,3.28-.29.54-1.07.63-3.78,0-3.69a1.31,1.31,0,0,1-1.58.35l.41-1c-1.34-1.31-2.33-3.14-5-1.85l-.25,2.15-1.08-.09.92-1.26c-1.21.17-1,1.08-1,1.89a1.61,1.61,0,0,0-.82-.12l8,.52a1,1,0,0,0,.06-.45l-2.46-.66c.52-.56,1.66,0,1.39-1.28-1.15-.31-1,1.53-2.18.6.28-1.2,1-1.33-.14-1.85a.77.77,0,0,1,1.1-.09c-1-.5-1.45-2-2.55-1.89.43-1.32-1.82-2.54-.26-3.36a4.69,4.69,0,0,1-2.51-1.39c2.6.26-1.51-2.79.64-3.59-2.21,0-2.83-3.14-4.77-4.35.19,0,.56.06.57.26-.45-1.06-.12-1.64-.19-2.45-1.42.67-2.64-.68-4-1,.59-2,2-.2,3-1.32-1.06.71-2.34-1.45-3-.5.26-1.4-.08-1,.76-2.16-1.78.83-.79-.69-2.28-.84,0-1.83,1.38-1.28,0-2.44C185.21,150.32,186.58,151.27,186.58,151.27Zm-28.06-17.22h0l.56-1.13Zm-2,3.67a13.29,13.29,0,0,0,.76-1.27c.4.09.69.39.5.68C157.6,136.84,157,137.43,156.48,137.72Zm8.33,1.08c0,.31-.12.08-.25-.15a2.6,2.6,0,0,0,.08-.42l0-.19Z"/><path class="cls-3" d="M164.36,136.58a1.33,1.33,0,0,1,0-.21,1.28,1.28,0,0,0-.18-.2l.09.55Z"/><path class="cls-3" d="M221,169.68l-.07,0a.54.54,0,0,1,.22,0C221,169.71,221,169.68,221,169.68Z"/><path class="cls-3" d="M133.79,172.83l.06.28a2,2,0,0,0,0-.25Z"/><path class="cls-3" d="M234.68,156.51a.26.26,0,0,0,.1-.31C234.7,156.23,234.69,156.36,234.68,156.51Z"/><path class="cls-3" d="M227,148.61,226,147A16,16,0,0,0,227,148.61Z"/><path class="cls-3" d="M221.1,147.65a3.7,3.7,0,0,0,.07.7h0Z"/><path class="cls-3" d="M180.74,222.33a.74.74,0,0,0-.13.21C180.39,223.1,180.59,222.76,180.74,222.33Z"/><path class="cls-3" d="M198.74,198.83a5.13,5.13,0,0,1-.25,1.06C198.91,199.56,199.2,199.28,198.74,198.83Z"/><path class="cls-3" d="M159.47,247.49a0,0,0,0,0,0,0l-.14.15Z"/><path class="cls-3" d="M197.55,200.89a1.75,1.75,0,0,0,.94-1A2.66,2.66,0,0,0,197.55,200.89Z"/><path class="cls-3" d="M202.84,170.28l-.22.21a.5.5,0,0,1,.12.14Z"/><path class="cls-3" d="M202.74,170.63l-.1.35C202.73,170.86,202.8,170.75,202.74,170.63Z"/><path class="cls-3" d="M202.43,171.7l.21-.72C202.48,171.17,202.27,171.38,202.43,171.7Z"/><path class="cls-3" d="M208.31,164.1l-.26-.32A.75.75,0,0,0,208.31,164.1Z"/><path class="cls-3" d="M209.75,162.05c-.44.42-1.6.65-1.91,1.46l.21.27C207.81,163.09,210,162.92,209.75,162.05Z"/><path class="cls-3" d="M220.16,156.89l-1.55,1.46c.57,0,1.33,0,.83.77C222.09,157.82,218.33,159,220.16,156.89Z"/><path class="cls-3" d="M223.39,153.77c-.35.77.21.76.24,1.11C223.72,154.13,223.8,153.85,223.39,153.77Z"/><path class="cls-3" d="M210.35,179.89l-.68-.77C209.19,179.86,210,179.39,210.35,179.89Z"/><polygon class="cls-3" points="208.16 190.1 209.2 189.91 208.78 188.97 208.16 190.1"/><polygon class="cls-3" points="199.19 189.08 199.34 188.71 198.63 190.03 199.19 189.08"/><path class="cls-3" d="M149.94,242.28c-.06.55-.12,1.11-.16,1.69C150.05,243.92,150.2,242,149.94,242.28Z"/><path class="cls-3" d="M128.17,220.47c.21-.7-.14-1.69-1-1.7C127.63,219.39,127.79,220.29,128.17,220.47Z"/><polygon class="cls-3" points="125.67 182.83 124.97 183.25 126.27 182.91 125.67 182.83"/><path class="cls-3" d="M278.07,175.06c-2.42-.38-4.85-.72-7.27-.94q-6.54-.69-13.09-1c-6.93-7.11-13.93-14.15-20.92-21.2a51,51,0,0,1-2.68,5.89l-.58.63c6.79,6.74,13.57,13.48,20.42,20.16l1,1,1.27,0c4.85-.19,9.69-.57,14.54-1.08,2.42-.23,4.85-.57,7.27-.95s4.85-.69,7.27-1.23C282.92,175.76,280.49,175.42,278.07,175.06Z"/><path class="cls-3" d="M278.26,173.75c-.09.16-.11.55.08.5l.23-.63Z"/><path class="cls-3" d="M279.29,175.16a1.92,1.92,0,0,0,.56-1.42c-.31.6-.32.33-.67,1-.19,0-.28-.27-.21-.5-.09.15-.26-.19-.42.2.16.55.45.62.83.25A.74.74,0,0,1,279.29,175.16Z"/><path class="cls-3" d="M273.7,177.15l.12.07A.25.25,0,0,0,273.7,177.15Z"/><path class="cls-3" d="M262.73,177.89a.15.15,0,0,0,.11-.15C262.77,177.79,262.71,177.84,262.73,177.89Z"/><path class="cls-3" d="M260.82,177.29l.11,0C260.88,177.27,260.84,177.24,260.82,177.29Z"/><path class="cls-3" d="M273.7,177.15l-.32-.16C273.39,177.2,273.55,177.13,273.7,177.15Z"/><path class="cls-3" d="M282,174a.44.44,0,0,0-.19.15l.16-.05Z"/><path class="cls-3" d="M278.4,176l.09,0c0-.07,0-.17,0-.27Z"/><path class="cls-3" d="M282,175.27c-.09,0,0,.54,0,.79a.55.55,0,0,1,.11-.41A2.11,2.11,0,0,0,282,175.27Z"/><path class="cls-3" d="M282.42,176.38l-.12.06Z"/><path class="cls-3" d="M275.77,176.22a1.08,1.08,0,0,0-.06-.19A.6.6,0,0,0,275.77,176.22Z"/><path class="cls-3" d="M274.1,171.89v.1C274.12,171.93,274.13,171.89,274.1,171.89Z"/><path class="cls-3" d="M278.05,175.21l-.07,0-.06.31Z"/><path class="cls-3" d="M257.37,176.76h0C257.48,176.7,257.43,176.72,257.37,176.76Z"/><path class="cls-3" d="M235.87,157.48c-.1.61-.87.05-.88.83C235.11,158.12,236,158,235.87,157.48Z"/><path class="cls-3" d="M282.09,174.09l.16,0A.24.24,0,0,0,282.09,174.09Z"/><path class="cls-3" d="M235,158.31h0v0Z"/><path class="cls-3" d="M252.79,174.08a.61.61,0,0,0-.11.23A.61.61,0,0,0,252.79,174.08Z"/><path class="cls-3" d="M255.86,178l-.05-.07C255.82,177.94,255.84,178,255.86,178Z"/><path class="cls-3" d="M250.05,172.49c0-.09,0-.17-.12-.19l0,.07C250,172.35,250.05,172.36,250.05,172.49Z"/><path class="cls-3" d="M247.77,170.24s0,.08,0,.12l.1,0Z"/><path class="cls-3" d="M264.27,171.24a2.29,2.29,0,0,1,.11.52C264.36,171.36,264.84,171.25,264.27,171.24Z"/><path class="cls-3" d="M282,174.32c.05-.14.09-.21.14-.23H282A.64.64,0,0,0,282,174.32Z"/><path class="cls-3" d="M246.86,175.56l-.31-.41A1.48,1.48,0,0,0,246.86,175.56Z"/><path class="cls-3" d="M247.72,159.73l.13,0A.11.11,0,0,0,247.72,159.73Z"/><path class="cls-3" d="M245.42,174.15a1,1,0,0,0,.07-.48.36.36,0,0,0-.15.06Z"/><path class="cls-3" d="M264.38,171.76Z"/><path class="cls-3" d="M267.86,170.69c-.49-.05-.29.7-.43,1.12-.6.16-.23-.56-.39-1-.38.17-.72.83-1,.78,0-.13-.06-.17,0-.32-.43.55-1.14-.06-1.64.64a.49.49,0,0,1-.05-.19,3.8,3.8,0,0,1,0,1c-.21,0-.43.43-.48-.05.13,0,.16-.17.23-.32l-.24.19c-.16-.7.33-.21.36-.72-.46.19-1,.72-1.34.5,0-.68.81-.17.4-.81l.51.3c-.33-1.1.31.1,0-1.07-.68-.25-.8.29-1.48,0-.18.36,0,.56-.17.92-1,.6-.67-1.76-1.45-.91-.22.43-.34,1.29-.83.79l.22-.75c-.67-.13-.45,1.07-1.11.5.12-.29.53-.21.44-.31-.42-.64-.41.4-.55.39l.09-.67a1.26,1.26,0,0,1-.42.27,1.32,1.32,0,0,1-.28,0,.5.5,0,0,1-.36-.15c.17-.11.42-.17.44-.44a4.58,4.58,0,0,1-1.83-2.54l-.67.15c-.06-.07.07-.3.22-.32-.1-.42-.28.25-.57.28-.18-.12,0-.43.26-.46-.82-.12-2.09-.59-2.13-1.53l.22,0c-.21-.56-1.29.4-1.25-.34h.14c-.64-1-1.94-1.57-1.94-2.83-.72.47-.55-1.09-1.44-.32-.06-.89.23-.9-.16-1.85-.14-.22-.79.25-1.1.11l.44-.44-.76.15.36-.67-.31-.1a.51.51,0,0,1-.17.48c-.52-.13-.47-1.1-.26-1.33l-1.13-.4c.19-.16.38-.09.59-.1-.85,0,.39-.53-.39-.5-.05.15-.29.23-.39.31.08-.45-.34-.88-.76-1.09l.36-.24a24.5,24.5,0,0,0-2-1.71c.08.37-.49.84-.73.7l.39-.54c-.41.16,0,.37-.58.47-.18-.29.37-.68.66-.69L243,155c.12-.15.26-.15.45-.31-.4.16,0-1-.7-.64l.12-.16a3.89,3.89,0,0,0-.44-.4l-.2-.15-.31-.26a16.24,16.24,0,0,1-1.34-1.15c-.27.52-.57,0-1,.27a15.41,15.41,0,0,0-2-2.83c-.53-.14-.13.55-.32.83-.08-.81-.85-1.52-.52-1.71a5,5,0,0,0-.87-.7,26.85,26.85,0,0,0-.59,2.65c.17.13.28.11.33.45s-.34.26-.46-.1v-.15a3.58,3.58,0,0,1-1.36,2.48,7.14,7.14,0,0,0-.93,1.17,2.56,2.56,0,0,0-.29.66.59.59,0,0,0,.06.46l0-.06.1,1c-.27.32-.23-.39-.65-.27,0,.08,0,.2.06.23l.07.11a.14.14,0,0,1,0,.14,2.78,2.78,0,0,1-.41.34l-1.43,1,1.51,2.12a1.1,1.1,0,0,0,.75.53c-.61,1.51,1.67,1.49,1.6,2.78l.21-.29c.4-.1,0,.33.11.5.17-.21.05-.39.28-.44,1.63,1,2.37,3.07,3.51,4.64.43.56,1.57-1,1.6.19l-.64.3c1.56.42,2,2,3.48,2.53-.16,0-.3.19-.4.09-.13.55.75.78,1,.5.12.18-.21.29-.26.52,0,.41,1,.08.73.53,0,.07-.17.05-.23,0,.3,0,.59.67.85.14.18.56.87.52.94,1,.62-.26.42.83,1.09.27-.66.62.14,1.16.67,1.08-.27.12,0,.4-.35.58.27.26.63.38.91,0-.27,1.26,1.59.35.9,1.61a15.91,15.91,0,0,1,2.95,1.47c-.66.62-.85-.71-1.48,0,.93.39,1.86.22,2.38,1,.08.26-.37.18-.54.23a2.41,2.41,0,0,1,.72.5c.29.25.55.51.81.77l.39.38.19.18a.84.84,0,0,0,.27,0,4.13,4.13,0,0,0,1.09-.26c0,.08-.17.18-.33.26.28,0,.63.11.64-.31l-.28.13c-.16-.29.16-.62.44-.91s.55-.54.55-.69c-.24,1.18.84.26.46,1.76a.63.63,0,0,0,.2-.55c.16.07.22.23.07.54.59-.25.36-.67.9-.69,0,.2-.1.28-.15.52.26-.4.52-.8,1-.66,0,.12,0,.27-.09.28.78-.1,1.27-1.1,2.15-.79-.19.88.32.27.41,1l.45-.25-.21-.35c.41,0,.72-.58,1.09-.36l-.28.32.75-.19-.45-.25c.38-.42-.11-.94.44-.77-.1.08.4,0,.65.4h0c.18-.25.36-.52.67-.36a9.55,9.55,0,0,1,.07,1c.15-.64.93-.25,1.13-.94a1.35,1.35,0,0,0,0,.63l.12-.52c.2.15.24.23.23.54.58,0-.26-.93.45-.58-.05,0,0,.12-.12.2.69.16,1.26-.43,1.9-.24.25.73-.52.23-.25.84.87-.22,1.75-1.07,2.62-1l-.17-.06c0-1.07.69.45,1.07-.11-.1.09-.08.61-.06.49.61.09,1.18-.42,2-.87l-.08.29c.38.19.93,0,1.32.09.08-.28.3-.27.12-.64,1.36,1.39,2.08-1.11,3.28,0-.12,0-.25.28-.16.27l.84-.39c-.14-.44-.16-.26-.4-.58a.76.76,0,0,1,.49-.58c-.34.37.12.74.33,1a3.12,3.12,0,0,1-.05-.44c.58.74-.08-.93.63-.49v.25c.21-.16.36-.51.62-.49.2.51-.2.29-.14.73.35-.09.51-1.12.92-.65-.12.17-.33.21-.46.38.46.56.47.4.75.45h0l.65.18-.19-.14c.18-1.44.85-.4,1.26-1.4-.4,1,0,.51.08,1.11.19.14.46.29.42.47.19-.53.55.29.8-.47.06.18.31,0,.35.45.33-.21-.16-.31-.18-.56.2-.35.53-.25.9-.15l6,1.65-6-4.35c-.34-.24-.73-.51-1.26-.1-.77.25-1,.87-1.73,1.09-.16-.35.31-.67.31-.67a.7.7,0,0,0-.94-.17c.1-.16.06-.31,0-.54-.27,0-.3.67-.6.32a3.49,3.49,0,0,1,.41-.72c-.35.12-.72.43-1.08.55,0-.35.29-.48.44-.68-.39.09-1,.15-1.2.66l.2.23c-.14,0,0-.47.12-.55.39-.36.42.26.41.45l-.25.09c0,1.17,1,0,1.4.12l-.34.78.6-.6c.06.23,0,.7-.21.79.26.46.35-.24.55.25,0,.08,0,.12,0,.14l.37-.19c-.1.17-.06.59-.24.44.48.57,1.05-.46,1.14.2l-.05,0c.85-.14.19-.59.95-1.19l.08,1.55.21-.59a.24.24,0,0,1,.15.34c.4-.35,0-.26.27-.62l0,0v-.2c-.51-.42-1,.45-1.31-.47,0,.48.46.29.1.67-.34-1-.46.26-.92-.15,0-.55.41-.32-.05-.73,0,.93-.74-.08-1,.14.12.72-.61.41-1.07.74,0-.25-1-.24-1.56-.41v-.13c0,.74-.49.69-.82.9a1,1,0,0,1,.14-.85l-.33.06a.64.64,0,0,1-.33.51v-.56c-.44.12-.81.77-1.44.48,0,.52.67,1.36.1,1.77-.06-.27-.15-.73,0-.87-.05.05-.15.26-.28.15l.18-.49c-.29-.17-.08.4-.3.39-.05-.39-.19-.26-.21-.57.05-.05.21.13.27,0a1,1,0,0,1-.7-.52c.05.22.07.53-.1.6-.44.09-.22-.45-.5-.62-.08.29-.4,0-.33.63-.13,0-.19-.25-.26-.41-.2.29-1.08.22-.74.81l.06,0,0,0h0c-.7.68-1.63-.12-2.36.23l0-.2c-.42.29-1,.26-1.28.72-.13,0-.35-.33-.32-.57-.33.18-.35.41-.88.13.31-.37-.15-.29.33-.28-.47-.13-.6-.43-1,.15a.39.39,0,0,0-.61-.43l.36.33a1.29,1.29,0,0,1-.67,0l.05-.67c-1-.72-1.54,1.52-2.36.23-.21.48.53.28.35.84-.43,0-.95-1-1.08-1-.61-.32-.47,1-1.1.81.1.23.22.86-.22,1.11-.44-.05-.6-.95-.34-1.16.1,0,.15,0,.15.12.14-.09.31-.21.12-.45l0,.24c-.23-.23-.81-.16-.7-.56-.3.25-.11.4.14.51-.57-.31-.85,0-1.43-.15.1.13.2.4.11.4-.84-.24-.34.47-.89.61-.34-.34.06-.87-.48-.53-.36-.23-.11-.63,0-.83-.48.49-1-.24-1.26-.31l.26-.21a.62.62,0,0,1-.42.13l.18.47c-.17-.08-.3-.07-.31-.27-.14.32.17.78-.14,1.23-.22-.23-.63.29-.73-.34.67.18-.1-.63.45-.76a.34.34,0,0,1-.39,0,.15.15,0,0,1,.05-.17c-.65-.53-.25.73-.91.74a.59.59,0,0,0-.21-.59c.11,0,.07.59,0,.87-.16-.27-.23.21-.35.18l.11.13c-.11.36-.24.32-.47.44.08-.28.23-.2.2-.32-.1.16-.17.2-.22.18s0-.19,0-.31c0-.27,0-.52-.16-.42.07-.27.38-.56.44-.73-.1.06-.14.06-.15,0a.6.6,0,0,1,0-.25c0-.2,0-.4-.35-.46-.22.45-.12.39-.71.46l.87.38-.9.1c.18.18.65.21.65.32-.41.15-.35,0-.52.43.24-.77-.81-.22-.78-.86l.84-.84c-.09-.82-1.23-.36-1.62-1.16l.05.34c-.41.25-.41-.32-.74-.37.3-.26.28-.48.37-.74-.2.22-.42-.45-1,.06l.1-.63c-.33-.62-1.33.27-1.7-.28.44-.17.43-.58.95-.49-.15-.16-.24-.34-.43-.15.08-.27-.8,0-.68-.45-.18.06-.49.34-.64.15a.42.42,0,0,1,.14-.14c-.14.14-.46-.08-.61.38.39-1.34-1.39-1.23-1.06-2.4a8.08,8.08,0,0,1-1.24-.82c.1-.06.14-.14.17,0-.16-.68-1,.56-1.24-.21.2-.69.49,0,.51-.32.85-1-.7-.44-.49-1.29l.13,0c.07-.56-.94-.24-1.27-.7a.57.57,0,0,0,.14-.14,2.75,2.75,0,0,1-1.93-.4c.48-.25.37,0,.66-.46-.23-.12-.54.64-1,.4a2.1,2.1,0,0,1,.36-1.15l.34.3c.34-.67-.43-.4-.52-.66l.24-.2c-.57-.41-1.13.14-1.62-.43l-.11.22c-.84.27.06-.55-.64-.43l.47-.65a6,6,0,0,1-1.66-.36,4.5,4.5,0,0,1,1.71,0c-.18-.2-.69-.6-1.06-.42.13,0,.36,0,.35.14a1.41,1.41,0,0,1-1.56-.27c1.14-1-.73-1.25-.17-2.37-1.07-.26-1.16-1.49-2-2.2-.56,1.12-.26-.2-1.07.71-.24-.12-.29-.21-.25-.28l0-1.06c.12-.39.36,0,.54-.24a.38.38,0,0,1,0-.53l.09,3.84a.79.79,0,0,0,.49.15c-.34-.27-.41-.47.18-.88a2.25,2.25,0,0,1-.89.14.74.74,0,0,1,.34-.56,4.48,4.48,0,0,1,.53-.21,1.37,1.37,0,0,0,.5-.28c.11-.08.17-.22.12-.48l.22.41a6.66,6.66,0,0,1,.28-1c0-.08.06-.25,0-.26l-.1-.12-.39-.42a1.86,1.86,0,0,1,.45.37c.09,0-.06-.33-.11-.71s0-.81.15-.49l.13.45c0-.15-.2-.94-.05-.54,0,.2.11.49.12.5a5.68,5.68,0,0,1-.08-.7c0-.14,0-.09.06,0l.06.55c.13.4.11.09.18-.24s.18-.71.36-.68c-.11,1.15-.06,1.6-.09,1.77l-.05.13c0,.1.11-.07.4-.12a11.06,11.06,0,0,1,1.5.51c-.24,1.12,1.22,1.81,1.56,2.92,0-.23.5-.47.69-.4,0,.29.9,0,.3.58l0-.07c-.44.68.06.89.31,1.18l.8-.7c-.39,1.79,2.25,1.48,1.66,2.83.36,0,.57.21.92.19l-.41.39a3.9,3.9,0,0,0,1.23,1.36l-.41.17c.31.36,1.59-.72,1.91-.44l-.51.68c.58.58.64,1.69,1.75,1.72-.1.08-.29.23-.41.16.26.29.64,1.46,1.37.55-.53.54.54.65,1.09.74l-.45.34c.77-.24.92-.36,1.43-.13,0,.14-.25.39-.26.17.08.5.6-.14.74.42l-.38.12c.26.33.37.17.83.05.35,0,.47.67.15,1.06.26-.17.72-.29.79,0a.46.46,0,0,1-.34.18c.23.77,1.21.3,1.16,1a.61.61,0,0,0-.18.29c-.39-.41-.69-.75-.63-.75-.36.36-.11.75-.87,1,.53,0,1.57-.16,1.71.32a.71.71,0,0,1-.09.17h-.07a.5.5,0,0,0,.35.24,2,2,0,0,0,.34.56c-.09.21,0,.43.23.63s.39.45.62.4c.22-.55.63-.43.39-.91,0,0,0,0-.06,0a.23.23,0,0,1-.24,0s-.09-.06-.13-.05l0,0c-.16-.15-.38-.34-.62-.58.37,0,.66-.08.76.47a5.54,5.54,0,0,0,.77-.75c0,.79.94,1.28,1.08,1.78.72-.26,1.63-.08,2.13-1.11.2-.12.2.32.27.5-.12.09-.26.07-.33.21.41-.24,1.16,0,1.31-.74.46.37-.33.65.36.58l-.11.22c1.24,1.28,2.3-1.71,3.66-.09-.1-.1-.15-.15-.16-.27,1.62.8,3.53-.38,5.08.84.44.27.54-.19.86-.51l0,.61.56-.63c.76-.41,1,1.63,2,.79l-.06-.42c.3.12,1-.11.91.35,0-.07.16-.41.25-.18l0,.31.85-.43c.56.3-.28,1.23.58,1.4.34-.08,1.06-.79,1-1a.51.51,0,0,1-.26-.56l.32-.12c.2-.91.59-1.82-.06-2.56l-.61.49-.1-.47.45,0c-.19-.45-.4-.1-.62.13a.79.79,0,0,0-.14-.52l-.64.81c0-.36.33-.68,0-.92-.29.37.12.83-.31,1.05-.19-.45-.07-.78-.41-.46a.5.5,0,0,1,.2-.48c-.3.25-.71,0-.9.51-.2-.56-.9,0-.76-.85-.11.19-.55.62-.79.63.56-1-.88-.18-.64-1.29-.43.91-1.22.26-1.84.73,0-.07.11-.22.16-.17-.31-.1-.38-.39-.57-.59-.12.78-.63.92-1,1.38-.32-.78.33-.9.27-1.63,0,.63-.74.58-.66,1.11-.25-.48-.23-.24-.33-.9-.14,1-.3.14-.6.72-.39-.51,0-.92-.54-.66C267.4,171,267.86,170.69,267.86,170.69Zm-10.07.38h0l.17.13Zm-.67-.67a2.28,2.28,0,0,0,.27.31c-.12.15-.28.27-.34.19C257.18,170.85,257.1,170.61,257.12,170.4ZM256.2,175a.29.29,0,0,1-.19-.39,3.28,3.28,0,0,0,.35.25l.06,0A.83.83,0,0,1,256.2,175Z"/><path class="cls-3" d="M256.87,174.65s.06,0,.09,0a1.09,1.09,0,0,0,0-.22l-.14.11Z"/><path class="cls-3" d="M273.84,177.23h0a.18.18,0,0,1,.05.07S273.85,177.25,273.84,177.23Z"/><polygon class="cls-3" points="248.66 160.29 248.56 160.39 248.7 160.37 248.66 160.29"/><path class="cls-3" d="M279.3,178.42a.3.3,0,0,0,.09.13S279.35,178.47,279.3,178.42Z"/><path class="cls-3" d="M281.58,178.16l.35.15A1.42,1.42,0,0,0,281.58,178.16Z"/><path class="cls-3" d="M283.37,178.14a1.54,1.54,0,0,0,0-.24h0Z"/><path class="cls-3" d="M255.16,181.76l-.12,0C254.75,181.91,254.94,181.86,255.16,181.76Z"/><path class="cls-3" d="M263.88,180a1.45,1.45,0,0,1-.25.29C263.78,180.27,263.9,180.27,263.88,180Z"/><polygon class="cls-3" points="246.89 175.61 246.9 175.6 246.86 175.56 246.89 175.61"/><path class="cls-3" d="M263.25,180.25a.29.29,0,0,0,.38,0C263.51,180.21,263.36,180.16,263.25,180.25Z"/><path class="cls-3" d="M280.46,173.69l-.08,0a.2.2,0,0,1,0,.09Z"/><path class="cls-3" d="M280.36,173.74l-.11,0C280.3,173.8,280.33,173.8,280.36,173.74Z"/><path class="cls-3" d="M280,173.9l.22-.11A.17.17,0,0,0,280,173.9Z"/><path class="cls-3" d="M282.72,174.34l.07-.2A.5.5,0,0,0,282.72,174.34Z"/><path class="cls-3" d="M283.43,174.4c-.15-.08-.33-.5-.59-.42l0,.16C283,173.86,283.21,174.71,283.43,174.4Z"/><path class="cls-3" d="M284.46,175.46l.61.06c-.15-.19-.34-.46-.09-.55C284.12,174.46,285.23,175.42,284.46,175.46Z"/><path class="cls-3" d="M282.63,175.45c.28-.15-.07-.31-.08-.43C282.4,175.25,282.36,175.3,282.63,175.45Z"/><path class="cls-3" d="M269.74,177.29l0-.52C269.49,176.87,269.74,177,269.74,177.29Z"/><polygon class="cls-3" points="267.5 180.16 267.76 180.45 267.83 179.98 267.5 180.16"/><polygon class="cls-3" points="265.7 176.66 265.8 176.58 265.41 176.8 265.7 176.66"/><path class="cls-3" d="M248.52,170.29l-.38.5C248.33,170.82,248.85,170.34,248.52,170.29Z"/><path class="cls-3" d="M241.3,164.06c.15-.3.1-.63-.24-.53C241.18,163.71,241.16,164,241.3,164.06Z"/><polygon class="cls-3" points="243.28 162.04 243 162.05 243.37 162.18 243.28 162.04"/><path class="cls-3" d="M12.72,176.29c24,.46,47.93.77,71.89,1.06l-1.91-2.09Q47.71,175.68,12.72,176.29Z"/><path class="cls-3" d="M12.7,175c-.08.18,0,.56.18.48l.14-.66Z"/><path class="cls-3" d="M14.13,176.17a1.79,1.79,0,0,0,.35-1.5c-.24.64-.3.37-.55,1.13-.21.09-.37-.2-.34-.45-.07.17-.33-.14-.43.28.28.51.63.52,1,.1C14.22,175.87,14.15,176,14.13,176.17Z"/><path class="cls-3" d="M34.67,176.9l-.13-.08A.22.22,0,0,0,34.67,176.9Z"/><path class="cls-3" d="M47.39,177.07a.16.16,0,0,0-.14.15C47.34,177.17,47.41,177.13,47.39,177.07Z"/><path class="cls-3" d="M49.57,177.77l-.13,0C49.49,177.79,49.54,177.82,49.57,177.77Z"/><path class="cls-3" d="M34.67,176.9l.34.2C35,176.88,34.84,176.94,34.67,176.9Z"/><path class="cls-3" d="M16.93,174.53a.39.39,0,0,0-.18.18l.17-.08Z"/><path class="cls-3" d="M29.07,177.52H29c0,.07,0,.17-.08.27Z"/><path class="cls-3" d="M24.78,177.68c.09,0,.12-.54.15-.79-.05.24-.12.35-.2.39A1.61,1.61,0,0,0,24.78,177.68Z"/><path class="cls-3" d="M17.94,176.79l-.12.08Z"/><path class="cls-3" d="M32.15,177.59a.72.72,0,0,0,.05.2A.46.46,0,0,0,32.15,177.59Z"/><path class="cls-3" d="M17.66,179v-.1C17.63,179,17.63,179,17.66,179Z"/><path class="cls-3" d="M12.72,176.15l.07,0,0-.32Z"/><path class="cls-3" d="M53.55,178.43h0C53.43,178.49,53.49,178.47,53.55,178.43Z"/><path class="cls-3" d="M80.19,175c.41.5-.68.63-.07,1.2C80.07,175.94,80.7,175.29,80.19,175Z"/><path class="cls-3" d="M17.05,174.6h.17A.3.3,0,0,0,17.05,174.6Z"/><path class="cls-3" d="M80.12,176.16h0l.07.06Z"/><path class="cls-3" d="M62.7,178a.82.82,0,0,0-.1-.25A.7.7,0,0,0,62.7,178Z"/><path class="cls-3" d="M55.87,177.26l.17.07A.29.29,0,0,0,55.87,177.26Z"/><path class="cls-3" d="M66.23,177.11c.09,0,.12.12.25,0l0-.06C66.39,177.16,66.33,177.2,66.23,177.11Z"/><path class="cls-3" d="M69.91,177.05l-.07-.11-.11,0Z"/><path class="cls-3" d="M28.87,178.9a2.35,2.35,0,0,1-.17-.51C28.75,178.79,28.21,178.93,28.87,178.9Z"/><path class="cls-3" d="M16.94,174.84c0-.14,0-.21.11-.24l-.13,0A.33.33,0,0,0,16.94,174.84Z"/><path class="cls-3" d="M66.32,172.68l.58.07A1.78,1.78,0,0,0,66.32,172.68Z"/><path class="cls-3" d="M55.31,179.21l-.13.06A.11.11,0,0,0,55.31,179.21Z"/><path class="cls-3" d="M68.64,172.64A1.12,1.12,0,0,0,69,173a.41.41,0,0,0,.07-.15Z"/><path class="cls-3" d="M28.7,178.38h0Z"/><path class="cls-3" d="M24.82,179.66c.56,0,.28-.72.4-1.14.67-.2.3.55.52.93.42-.19.75-.86,1.06-.83,0,.12.08.17,0,.32.45-.58,1.3,0,1.83-.74a.38.38,0,0,1,.06.18,4.06,4.06,0,0,1-.06-1c.25,0,.47-.46.56,0-.15,0-.17.18-.24.33l.26-.2c.23.69-.36.23-.37.74.52-.21,1.12-.78,1.51-.58.07.68-.92.22-.41.83l-.6-.27c.45,1.08-.37-.08,0,1.07.79.21.9-.33,1.69-.12.19-.38,0-.56.14-.93,1.14-.67.86,1.72,1.7.82.23-.45.32-1.3.91-.84l-.22.76c.78.09.46-1.09,1.26-.56-.15.3-.61.24-.49.33.51.62.38-.43.78-.42l.07.68c.82-.09,1.74-.57,2.65-.68-.05.2-.21.41,0,.62a6,6,0,0,1,3.55.54l.43-.58c.1,0,.18.27.07.38.43.23,0-.37.24-.6.25,0,.32.34.16.52.77-.49,2.19-1,3-.4l-.16.17c.62.24.72-1.2,1.3-.64l-.12.1c1.36.28,2.86-.24,3.88.66.21-.84,1.34.4,1.45-.78.76.6.54.81,1.62,1.21.29.06.45-.73.81-.84v.61l.5-.64.25.74.34-.15a.47.47,0,0,1-.26-.46c.53-.27,1.28.45,1.29.77l1.25-.51c0,.25-.24.33-.41.49.68-.62.11.65.73.08-.08-.14,0-.36.07-.49a1.48,1.48,0,0,0,1.5.24l-.1.43c.92.12,2-.18,3-.16-.37-.2-.27-.93,0-1l.11.65c.2-.4-.32-.25.09-.74.39.09.26.75,0,1l.47-.22c0,.19-.08.3-.12.54.2-.4.81.67,1.1,0l0,.19c1,0,1.52-.19,2.36-.21,0-.57.36-.44.62-.89a6.12,6.12,0,0,0,2.05.61c.53-.27.16-.48.4-.81,0,.52.78.48.39.84a6.66,6.66,0,0,0,2.29-.48c-.12-.21-.26-.31-.18-.48s.46.22.43.47l0,.05c1.28-.75,2.92,1.53,3.95.48l0,0,1.06-.54c.48.1-.3.38.06.71,1.14-.84,1.79.15,2.74-.41.7,1.52,2.57-.07,3.54.91l-.06-.36c.26-.34.31.21.49.3,0-.28-.27-.33-.11-.52a4.91,4.91,0,0,1,.67-.08l5.5-.33-3.77-3.53a7.57,7.57,0,0,1-.94-1.07c-.51-.64-1-1.32-1.56-2.05l-2.71-.32c-.52-.11-1-.21-1.56-.28-.8-.08-.43,1.85-1.45,1l.27-.66c-1.61.82-3.31,0-4.89.72.09-.16.09-.36.25-.36-.34-.47-1.24,0-1.24.39-.25,0-.06-.35-.22-.55-.34-.28-.83.63-1,.15,0-.08.09-.16.15-.19-.21.23-1-.05-.8.5-.6-.25-1.14.27-1.62-.05-.3.62-1-.29-1.11.59,0-.91-1-.71-1.42-.28.12-.28-.33-.28-.19-.66-.43,0-.82.19-.74.65-.81-1.07-1.58.9-2-.48a21,21,0,0,1-3.6,1.08c0-.91,1.27-.11,1.21-1.06-1.08.39-1.7,1.17-2.79,1-.28-.12.16-.39.25-.55-1.08.39-2.11,0-3.07.46,0-.09.11-.18.21-.25-.2,0-.45-.13-.42.28l.18-.11c.31.59-.74,1.25-.77,1.57.31-1.18-1-.28-.47-1.77A.54.54,0,0,0,54,174c-.19-.07-.25-.23-.07-.55-.68.24-.43.67-1,.67,0-.2.13-.28.19-.51-.31.39-.62.78-1.15.62,0-.12,0-.27.13-.27-.9.07-1.52,1.05-2.51.69.28-.87-.34-.28-.41-1l-.52.23.22.36c-.47,0-.87.54-1.27.3l.34-.31-.87.15.49.28c-.46.39.07.94-.55.74.12-.07-.47,0-.72-.44h0c-.23.24-.46.5-.81.32-.09-.24.06-.83,0-1-.22.63-1.09.19-1.36.86a1.2,1.2,0,0,0,.06-.63l-.19.51c-.21-.16-.25-.24-.22-.55-.64-.08.23.95-.55.55.06,0,0-.12.15-.2-.77-.2-1.48.35-2.19.11-.23-.75.61-.2.36-.83-1,.16-2.1.94-3.09.77l.18.08c-.12,1.07-.74-.51-1.23,0,.12-.08.15-.59.12-.47-.68-.16-1.38.28-2.4.63l.12-.28c-.41-.24-1.06-.12-1.49-.24-.12.27-.37.23-.21.63-1.36-1.54-2.53.87-3.73-.41.14,0,.34-.24.22-.24l-1,.26c.09.46.14.28.36.64a.83.83,0,0,1-.66.49c.45-.31,0-.74-.21-1,0,.14,0,.3,0,.44-.54-.82-.07.93-.8.39l0-.25c-.26.13-.5.46-.79.39-.13-.53.28-.25.29-.69-.41,0-.79,1-1.16.49.17-.15.42-.15.59-.3-.42-.63-.46-.47-.76-.56h0l-.69-.27.18.17c-.49,1.4-1,.27-1.7,1.19.65-.87.1-.5.14-1.11-.18-.16-.45-.35-.38-.52-.31.49-.54-.38-1,.34,0-.19-.34,0-.28-.5-.42.16.11.34.07.58-.63.68-1.54-.78-2.45.14-.8.39-.94,1.05-1.68,1.39-.25-.31.2-.71.2-.71a.89.89,0,0,0-1.1,0c.08-.17,0-.31-.13-.53-.3.06-.19.71-.6.43a3.09,3.09,0,0,1,.29-.78c-.36.18-.71.55-1.08.73-.11-.34.22-.52.34-.74-.41.16-1.08.32-1.2.86l.27.19c-.15,0-.09-.46,0-.56.35-.43.52.18.54.37l-.26.13c.29,1.14,1.07-.2,1.61-.14l-.21.84.54-.7c.12.21.21.68-.06.8.4.41.34-.3.68.16a.1.1,0,0,1,0,.14l.37-.25c-.07.17.07.59-.16.47.69.47,1.08-.64,1.34,0l0,.06c.93-.3.08-.62.77-1.34l.5,1.5.08-.61c.1,0,.29.06.26.3.35-.42-.07-.26.14-.66.47.55,1.27-.28,1.4.69.16-.46-.45-.35,0-.68.16,1.05.57-.19,1,.29-.12.54-.53.26-.09.74.24-.92.83.18,1.19,0,0-.72.77-.31,1.37-.56,0,.24,1.14.38,1.7.63v.13c.09-.74.67-.61,1.09-.77a1,1,0,0,1-.3.82H29a.67.67,0,0,1,.47-.45l-.09.55c.52,0,1-.66,1.73-.31,0-.51-.56-1.42.15-1.77,0,.28.06.75-.12.87.06,0,.21-.24.34-.12l-.28.47c.31.2.15-.39.4-.35,0,.39.19.28.16.59-.06,0-.22-.16-.31,0a1.08,1.08,0,0,1,.73.59c0-.22,0-.53.2-.58.52,0,.19.47.5.67.12-.28.46,0,.46-.59.15,0,.19.27.25.43.27-.26,1.27-.09.95-.71l-.07,0s0,0,.05,0h0c.88-.6,1.86.31,2.74,0v.2c.53-.23,1.18-.15,1.55-.58.15,0,.37.35.31.59.4-.15.44-.38,1-.06-.4.35.15.3-.41.26.53.16.65.48,1.21-.07-.19.51.4.63.65.47l-.38-.35a1.71,1.71,0,0,1,.78,0l-.12.67c1.08.79,1.91-1.41,2.75-.07.28-.47-.59-.31-.34-.86.5.08,1,1,1.18,1,.68.36.62-1,1.33-.74-.09-.24-.19-.87.34-1.1.49.08.62,1,.31,1.18-.12,0-.18,0-.17-.13-.16.08-.37.19-.17.44l.06-.23c.25.23.93.2.78.59.37-.23.15-.39-.13-.51.64.33,1,0,1.65.22-.11-.13-.21-.41-.1-.41,1,.28.41-.46,1.06-.57.38.36-.12.87.53.55.4.24.09.63-.06.83.59-.47,1.12.28,1.46.36l-.31.2a.79.79,0,0,1,.49-.12l-.18-.47c.18.08.34.08.34.28.18-.32-.16-.79.21-1.22.25.24.74-.27.84.36-.78-.21.09.63-.56.74a.49.49,0,0,1,.47,0,.17.17,0,0,1-.08.17c.75.55.33-.72,1.1-.71-.1.35.18.67.31.59-.31,0-.16-.59.12-.87.5.27.53-.21.79-.18l-.3-.13c.1-.35.34-.31.68-.43,0,.28-.3.2-.18.32.37-.63.87.63,1.39.2.25.24,0,.67.25.83.59-.47.65.48,1.27.09-.18-.48-.21-.36.22-.83l-1,.35.65-.7c-.31,0-.65.3-.84.23.31-.4.28-.28.12-.67.44.71.84-.43,1.33,0v1.19c.74.51,1.3-.63,2.26-.35l-.31-.2c.12-.47.59-.07.89-.27,0,.4.18.54.31.78,0-.29.7,0,.78-.77l.43.51c.78.21.87-1.13,1.61-1-.22.43.12.71-.37,1,.25,0,.47.07.47-.2.15.24.68-.55.92-.17.1-.18.13-.59.41-.56a.37.37,0,0,1,0,.19c0-.19.43-.27.18-.7.78,1.22,2.13-.13,2.81.92a10.91,10.91,0,0,1,1.68-.31c0,.12,0,.2-.09.16.68.35.4-1.14,1.18-.74.4.63-.41.35-.16.59.12,1.29.93-.2,1.46.55l-.13.08c.4.44,1-.5,1.61-.42a.41.41,0,0,0,0,.2,3.3,3.3,0,0,1,1.89-1.1c-.19.51-.28.28-.15.79.28-.08-.1-.83.46-1,.19.28.59.51.65,1.06l-.52,0c.27.71.68,0,1,.09l0,.31c.81-.12.81-.9,1.68-.86l-.1-.23c.47-.79.41.43.87-.16l.15.79a3.36,3.36,0,0,1,1.17-.87l.12,0a1.37,1.37,0,0,1-.21.15,6.15,6.15,0,0,0-.94,1,.91.91,0,0,0,.7-.43l0,0h0c-.11.09-.24.26-.26.14a1.93,1.93,0,0,1,.41-.48.63.63,0,0,1,.79.22,1.64,1.64,0,0,0-.38.55.81.81,0,0,0,0,.19.86.86,0,0,0,.11.24,3,3,0,0,1,.58,1l1.32-3a.86.86,0,0,1-.33-.44c-1.1.55-2.16-.27-3.43-.2.43,1.2-.37,0-.31,1.25-.3.07-.41.05-.44,0l-.88-.74c-.21-.36.28-.27.26-.54-.65-.1-.27-.52-.69-.85.08.43-.24.62-.6.45l.51.57c-.92.64-.77-1-1.69-.41l.29-.38c-.47.22-1.73,0-2.2.94-.08-.14-.19-.48,0-.56-1.12-.16-2.51,1-3.37.39l.09-.3c-.21.09-.37.56-.63.25,0-.12.09-.29,0-.31s-.56.51-.83.34l.24-.34c-1.09-.4-1.69.8-2.61,1,0-.88-.84-1.18-1.27-1.33l0-.12c-1.27-.13-2.17.69-3.36,1-.71-1-2.47-.43-3.64-1,.18.17,0,.69-.25.77-.27-.18-.77.6-.71-.2h.1c-.2-.79-.77-.59-1.21-.62l-.09,1.06c-1.14-1.55-3,.52-3.65-.87-.29.26-.63.25-.91.51l0-.56a5.22,5.22,0,0,0-2.12-.11l.2-.4c-.53-.05-.7,1.62-1.2,1.64l-.14-.84c-.94,0-1.88-.76-2.82,0,0-.12,0-.36.2-.4-.44,0-1.71-.59-1.56.57,0-.76-1-.09-1.49.24l.09-.56c-.44.71-.46.9-1.06,1.09-.14-.08-.12-.45.07-.3-.47-.3-.38.52-1,.21l.22-.35c-.48-.05-.45.14-.72.55-.31.22-.92-.15-1-.66-.07.31-.34.72-.63.57a.41.41,0,0,1,.13-.37c-.81-.39-1.22.63-1.78.08a.57.57,0,0,0-.08-.34,4.55,4.55,0,0,1,1.11.1c0-.51-.51-.61-.08-1.31-.43.38-1.16,1.21-1.66,1a.61.61,0,0,1-.07-.18l0-.05a.28.28,0,0,0-.32.07,1,1,0,0,0-.42-.16c0-.42-.59-.23-.85-.26,0,.56-.33.47,0,.94,0,0,0-.07.22-.09s.09,0,.12-.06l0,.05.65,0c-.21.29-.43.52-.72.21-.14.36-.29.73-.37.9-.35-.79-1-1.22-1.12-1.71-.8.31-1.87.18-2.39,1.23-.23.13-.26-.31-.34-.47.13-.11.29-.09.36-.24-.45.27-1.34.09-1.46.82-.57-.34.33-.67-.45-.56l.11-.23c-1.52-1.2-2.54,1.85-4.22.31.11.1.17.14.19.26-1.93-.69-4,.57-5.93-.52-.54-.22-.61.25-.95.61l-.1-.61-.59.69c-.81.5-1.37-1.5-2.41-.55l.12.41c-.36-.09-1.16.22-1.09-.25,0,.07-.13.42-.27.21v-.32l-.91.53c-.7-.24.13-1.25-.89-1.33-.38.12-1.1.91-1,1.12a.51.51,0,0,1,.39.52l-.35.16c-.08.93-.36,1.88.48,2.54l.6-.56.19.45-.5,0c.27.42.46,0,.67-.2a.81.81,0,0,0,.23.5l.61-.88c.06.36-.28.72.11.92.28-.41-.25-.82.21-1.08.27.42.19.77.53.41a.49.49,0,0,1-.17.5c.3-.29.79-.11.95-.61.29.53,1-.12,1,.76.1-.21.54-.68.81-.71-.52,1,1,.07.87,1.2.38-.94,1.34-.4,2-.92,0,.08-.11.23-.17.18.37.09.47.37.7.56.06-.79.64-1,1-1.44.43.77-.29.92-.16,1.65,0-.64.79-.62.65-1.16.33.48.29.24.45.89.08-1,.33-.16.63-.76.49.49.11.92.66.63C25.32,179.32,24.82,179.66,24.82,179.66Zm13.07-1.5h0l-.26,0Zm1.09,0a2.27,2.27,0,0,0-.47,0c0-.2,0-.4.12-.38C38.56,177.89,38.82,178,39,178.17Zm-2.25-3.93c.17-.08.23,0,.25.15a1.43,1.43,0,0,0-.3.06l0,.07A.72.72,0,0,1,36.73,174.24Z"/><path class="cls-3" d="M36.4,175s0,0-.07,0l.1.13.07-.18Z"/><path class="cls-3" d="M34.51,176.81h0a.16.16,0,0,1,0-.08Z"/><polygon class="cls-3" points="54.09 179.47 54.09 179.32 53.99 179.45 54.09 179.47"/><path class="cls-3" d="M28.45,175a.37.37,0,0,0-.08-.15A.37.37,0,0,0,28.45,175Z"/><path class="cls-3" d="M25.84,174.88l-.37-.2A1.25,1.25,0,0,0,25.84,174.88Z"/><path class="cls-3" d="M23.83,174.63a1.2,1.2,0,0,0,0,.24h0Z"/><path class="cls-3" d="M55.68,173.5a.11.11,0,0,0,.07,0C55.93,173.36,55.81,173.41,55.68,173.5Z"/><path class="cls-3" d="M46.22,175a1.88,1.88,0,0,1,.3-.27C46.35,174.64,46.22,174.63,46.22,175Z"/><path class="cls-3" d="M66.25,172.67h0Z"/><path class="cls-3" d="M47,174.69a.38.38,0,0,0-.44,0A.56.56,0,0,0,47,174.69Z"/><path class="cls-3" d="M15.15,174.5l-.1,0a.22.22,0,0,1,0,.09Z"/><path class="cls-3" d="M15,174.57l-.11.07A.1.1,0,0,0,15,174.57Z"/><path class="cls-3" d="M14.71,174.78l.22-.14C14.85,174.64,14.76,174.62,14.71,174.78Z"/><path class="cls-3" d="M17.8,174.72l0-.2A.49.49,0,0,0,17.8,174.72Z"/><path class="cls-3" d="M18.61,174.65c-.2,0-.49-.43-.76-.29l0,.16C18,174.21,18.43,175,18.61,174.65Z"/><path class="cls-3" d="M22,177.12l-.68-.15c.12.22.28.5,0,.56C22.18,178.17,21.13,177.05,22,177.12Z"/><path class="cls-3" d="M24.12,177.41c-.37.1,0,.31,0,.44C24.33,177.64,24.39,177.59,24.12,177.41Z"/><path class="cls-3" d="M39.24,177.19l0,.51C39.49,177.62,39.21,177.5,39.24,177.19Z"/><polygon class="cls-3" points="42.09 174.5 41.81 174.19 41.69 174.66 42.09 174.5"/><polygon class="cls-3" points="43.86 178.12 43.74 178.19 44.2 178 43.86 178.12"/><path class="cls-3" d="M69.26,177.56l-.09-.63C69,177.05,69,177.76,69.26,177.56Z"/><path class="cls-3" d="M80.22,176.76c.13.31.44.51.62.2C80.6,176.92,80.35,176.68,80.22,176.76Z"/><polygon class="cls-3" points="57.07 174.46 57.3 174.25 56.88 174.42 57.07 174.46"/><path class="cls-4" d="M236.79,151.92c-3.58-3.61-7.13-7.26-10.72-10.87l-2.84-2.85-2.5,3.19c-7.49,9.5-14.88,19.07-22.27,28.65L184.63,147.3,168,120.23l-2.81-4.56-2.41,4.69q-13.89,27-27.48,54.25-26.28.36-52.56.65l1.91,2.09q25.85.32,51.7.64h1l.52-.91c9.34-16.36,18.51-32.8,27.64-49.27l13.41,22.94,16.2,27.36,2.63,4.45,3.22-4.1q11.55-14.72,23-29.53c3.19,3.18,6.43,6.33,9.63,9.5l.58-.63A51,51,0,0,0,236.79,151.92Z"/><path class="cls-3" d="M237.26,152.1c0-.26-.15-.18-.39.49l0,.55Z"/><path class="cls-3" d="M235,156.25c-.13.41-.23.81-.31,1.15s-.07.57.2.32l.11-.39.07-.23.12-.4a5,5,0,0,0,.22-1c.27-.64.58-1.08.62-.93a7.94,7.94,0,0,0,.49-1.39,12.45,12.45,0,0,0-1.39,3C234.92,156.58,235,156.33,235,156.25Z"/><path class="cls-3" d="M193.11,174.15l.2.39C193.26,174.43,193.19,174.3,193.11,174.15Z"/><path class="cls-3" d="M171.72,137.58a1.67,1.67,0,0,0,.28.39C171.84,137.72,171.7,137.51,171.72,137.58Z"/><path class="cls-3" d="M168.31,131.2l.2.38A2.56,2.56,0,0,0,168.31,131.2Z"/><path class="cls-3" d="M193.11,174.15l-.51-1C192.49,173.11,192.84,173.67,193.11,174.15Z"/><path class="cls-3" d="M228.24,154.12c.18.16.33.28.48.39l-.43-.39Z"/><path class="cls-3" d="M202.86,175.07l.21-.28a1.57,1.57,0,0,0,.1-.28Z"/><path class="cls-3" d="M211.64,163.73c-.21.25-.11.47-.12.63a2.05,2.05,0,0,1,.32-.65S211.75,163.69,211.64,163.73Z"/><path class="cls-3" d="M226.56,151.26l.3.26Z"/><path class="cls-3" d="M197.46,181a.53.53,0,0,0,0-.12S197.45,181,197.46,181Z"/><path class="cls-3" d="M225.82,139.4s0,0,0,0S225.9,139.48,225.82,139.4Z"/><path class="cls-3" d="M236.76,152l-.17-.16c-.05,0-.09,0-.12,0Z"/><path class="cls-3" d="M160.21,135.06l0-.05C160.39,134.69,160.3,134.87,160.21,135.06Z"/><path class="cls-3" d="M100,175.92c-1.38-.17,2.24-.27.16-.46C100.4,175.54,98.33,175.82,100,175.92Z"/><path class="cls-3" d="M228,153.84l-.42-.41A5,5,0,0,0,228,153.84Z"/><path class="cls-3" d="M100.2,175.46Z"/><path class="cls-3" d="M145.4,161.72a1.23,1.23,0,0,0,.23-.23S145.55,161.54,145.4,161.72Z"/><path class="cls-3" d="M156.78,142.05l-.3.48C156.6,142.34,156.7,142.19,156.78,142.05Z"/><path class="cls-3" d="M139.89,172.15a4.29,4.29,0,0,0-.42.71l.08-.1A2.68,2.68,0,0,1,139.89,172.15Z"/><path class="cls-3" d="M131.39,177.33l.23,0H132Z"/><path class="cls-3" d="M201.25,165a2.3,2.3,0,0,1,.5-.33C201.52,164.72,202.58,163.27,201.25,165Z"/><path class="cls-3" d="M228.32,154a.58.58,0,0,1-.32-.19l.29.28C228.34,154.12,228.37,154.11,228.32,154Z"/><path class="cls-3" d="M141.09,173.41l-1,1.68C140.39,174.63,140.75,174,141.09,173.41Z"/><path class="cls-3" d="M155.94,131.88l.18-.41A2.24,2.24,0,0,0,155.94,131.88Z"/><path class="cls-3" d="M135.41,179a7.66,7.66,0,0,0-1.1-.16l-.23.05Z"/><path class="cls-3" d="M201.76,164.66h0Z"/><path class="cls-3" d="M209.25,154.21c-1.15,1.46-.32.85-.44,1.26-1.3,1.8-.79.69-1.37,1.2-.79,1.14-1.24,2.13-1.88,2.94-.09,0-.22.18-.12,0-.73,1.29-2.66,3.44-3.49,5a.6.6,0,0,1-.19.13c.28-.13.41-.08.46,0-.51.66-.81,1.33-1.15,1.47a1.88,1.88,0,0,0,.39-.71l-.47.74c-.69.46.66-1,.5-1.11L200,167.27l-.73,1a5.35,5.35,0,0,1-.46.59s0-.17.07-.3l.12-.2.08-.11.13-.18c.34-.46.57-.79-.05-.17l1.31-1.53c-1.26,1,.78-1-.43-.1-.43.52-.74.92-1,1.28l-.33.45,0,.09a.59.59,0,0,1-.12.2,1.15,1.15,0,0,1-.16-.28c-.37-.34-.06.3-.48-.11-2.17-3.09-1-2.87-2.72-5.06a5.63,5.63,0,0,1-1.81-2.37l.59.43c-1.31-2.22-1.12-1-2.35-3.45.35.36,1.13,1.68,1,1.33-.71-1.61-.78-1-1.48-2.11l.07-.37c-1.45-2.32-3.18-4.8-4.79-7.37.15.1.49.5.18-.14-2.09-3.21-4.25-7-6.05-10.2l-.92-1.09c-.17-.28-.24-.57,0-.29-.69-1.27-.16,0-.6-.53-.44-.69-.46-1-.13-.58a76.61,76.61,0,0,1-5.33-8.35l.33.41c-1-1.82-1.62-1.76-2.46-3.51l.23.29c-1-1.66-2-3.36-3.06-5l-1.47-2.42-2-3.38c-.43.78-.85,1.53-1.29,2.26a14.21,14.21,0,0,1-1.22,2.61c-.51.94-1,1.86-.84,2.09-1.37,2.2-1.1,1.51-2.88,4.68-.45.86-.4,1.42-.91,2.51l-.21-.08-.52,1.56-.64.65-.46,1c.22-.39.52-.8.55-.71a17.64,17.64,0,0,1-2.2,3.74l-1.71,3.79a6.32,6.32,0,0,1,.44-1.27c-.79,2.08-.4.25-1.12,2.16.17-.22,0,.19.07.25a40.67,40.67,0,0,0-2.34,4.46v-.37c-1.43,2.73-2.87,5.84-4.44,8.93.63-1.08.75-.7.31.22l-.4.25c-.16.65.56-.9.12.38-.61,1.14-.64.65-.38-.05l-.63,1.44c-.11.05,0-.29,0-.42-.15.64-1.44,2.31-1.63,3.26l-.1,0c-1.57,3.09-2.2,4.53-3.47,7.05.17.14-.37,1.11-.6,1.93-1,1.82-2.19,3.8-3.3,6-.35.81-.37.94-.33,1s.06,0,.07,0a.14.14,0,0,1,0,.09.39.39,0,0,1,0,.11c-.06,0-.13.05-.2.12-.08-.08-1.35-.08-.38-.19-3,.07-3.82.09-7.61.29.41.07.88.1.64.17-.69,0-1.57-.06-1.47-.16l.18,0c-4.25.34-9.82-.44-13.2,0l.19,0-3.51.26c-1.62,0,1-.16-.23-.26-3.79.36-6,0-9.11.28-2.42-.54-8.56.14-11.83-.18l.19.13a5.25,5.25,0,0,1-1.64-.08c.09.1.92.1.39.18l-2.58.07-4.08.06q1.72,1.88,3.46,3.8l4,.12,3.63.13,7.23.26c2.68.07,1.53-.67,4.9-.31l-1,.24c5.4-.23,11,.14,16.33,0a3.08,3.08,0,0,1-.84.12,15.27,15.27,0,0,0,4.15-.09c.82,0,.19.14.69.22,1.12.12,2.82-.2,3.41,0,.1,0-.32,0-.52.06.73-.07,3.4.07,2.7-.15,2,.13,3.8,0,5.38.1a6.88,6.88,0,0,1,1.43-.07l.81,0,1.22,0a3.29,3.29,0,0,0,.5-1.17c.23.29,1.94-2.9,2.42-4.07-.12.41.62-.9.5-.4.7-1.25,1.29-2.43,1-2.3,1.64-2.1,2.31-4.78,3.49-5.82,1.92-3.8,3.74-7.3,5.54-10.67.23.28-2,3.7-1.65,3.73,1.65-3.23,2.43-5.2,4.26-8.3.49-.79-.13.54-.24.84,1.66-3.23,3.46-6.1,4.88-9a3,3,0,0,1-.26.65c.31-.56.77-1.27.6-1.28l-.26.56c-.7.78.82-2.43.78-2.59-.15,1.16,1.65-2.72,1.3-1,.18-.38.37-.87.24-.83.33-.53.48-.67.27-.07,1-2,.5-1.4,1.51-3.2.07,0-.11.42-.14.65a19.11,19.11,0,0,1,1.68-3.46c0,.12.14,0-.12.42l.5-.92.23-.45.11-.22,0-.13.48-1.08c.21.27.45.63.72,1.05.37.6.76,1.28,1.16,2-.77-.67.47,1,.32,1.31l1,1.48-.24-.68c.78,1.34,1.64,2.42,2.24,3.61l-.68-.93,1.51,2.48-.74-1.47c.91,1.27.22-.33,1.19,1.49-.23-.35.78,1.34,1,2.12h0a13.82,13.82,0,0,1,1.46,2.27c.07.31-.39,0-.34.15.58.54,1.89,3.1,2.58,3.8-.21-.25-.34-.19-.32-.08l.49.45c.31.65.33.75.17.71,1.06,1.88,0-.77,1.12,1.52-.11-.17-.09-.07-.32-.42,1.22,2.27,2.63,4.22,3.75,6.3.11.74-1.11-1.74-.91-.93,1.78,2.9,3.88,5.9,5.5,8.76l-.28-.54c.57.19,1.08,2.21,2.09,3.55-.24-.33-.46-.35-.37-.27,1.09,2,2.43,3.92,4.28,6.8l-.3-.32c.6,1.19,1.74,3,2.43,4.31.31.31.71,1,.58.52a38.15,38.15,0,0,0,3.09,5.51l2.4-3.26a24.83,24.83,0,0,1,2.15-2.52c-.28.37-.61.94-.38.64l2-2.7c-.3.11-.35.29-.89.76a11.51,11.51,0,0,1,1.21-1.85c-.84,1.26.22.16.7-.29-.11.05,0-.16-.1-.15,1.32-1.19-.09-.45,1.54-2.2v.15c.52-.73.93-1.46,1.54-2.2.4-.19-.51.81-.42,1a24.67,24.67,0,0,1,2.25-3.19c-.31.49-.81,1.14-1.12,1.63a13.14,13.14,0,0,0,1.69-1.82l-.07.07,1.5-1.74-.41.42c.63-1.66,2-2.78,3.17-4.79-1.1,1.95-.07.4,0,.67.41-.42,1-1.07.9-.83.52-1,1.22-1.34,1.95-2.7.1,0,.71-.91.71-.6.81-1.15-.31.18-.31,0,1.13-1.86,3.36-3.82,5-6.49l.48-.69c.13-.21.28-.43.34-.54l.48-.82c.24.17.5.35.84.62s.77.64,1.28,1.09c.51.67-.68-.3-.68-.3a23.31,23.31,0,0,0,2.6,2.57c-.23-.14-.08.09.14.42.74.71.67.29,1.56,1.32a5.48,5.48,0,0,1-.94-.51l2.79,2.37c.15.32-.67-.39-1-.64l1.8,1.63a10.8,10.8,0,0,0,1,.87c.28.38.45-.14.52-.24l-.18.17-.09.09-.1-.09-.37-.39c.42.37.23.43-.15.14a9.74,9.74,0,0,1-.77-.67,5.18,5.18,0,0,1-.36-.42.89.89,0,0,1-.22-.44l.66.59c-.35-.95-2.59-2.46-3.85-3.74l.75.3-1.49-1.1c-.22-.33-.29-.65.38-.06-.81-1-.89-.72-1.56-1.61-.06-.11,0-.08.08,0l-1-.82c.22.13,0-.3.52.28a13.81,13.81,0,0,0-1.11-1.16c-.44-.42-.82-.75-1.14-1-.26.38-.48.69-.68.95a2.59,2.59,0,0,1-.55.58l.1-.16c-1.83,2.53,0,.38-1.23,2.39l-1.41.9v.38c-.21.25-.61.75-.61.6-.61,1,.2-.1-.11.54-1.12,1.09-2.55,3.43-3.05,3.48-.21.55,1-1.08.09.3-.6.13-1.12,1.55-2.13,2.56.11-.47,1-1.46,0-.46-.25.89-1.75,2.14-2.44,3.12.18.21-1.5,2.12-2.67,3.76,0-.16-2.43,2.89-3.66,4.3v-.07c0,.45-1.23,1.94-2,3.08-.1-.14,0-.38.41-1l-.81,1a6.59,6.59,0,0,1-.83,1.35l0-.39c-1.07,1.39-2,2.94-3.49,4.63.08.22,1.53-1.08.16.87-.14,0-.33,0,0-.55a5.44,5.44,0,0,1-.64.88l.42-.81a3.68,3.68,0,0,0-.3.36.71.71,0,0,0-.08.19,1,1,0,0,1-.28.49c0-.19-.32.24-.26,0a3.77,3.77,0,0,0,.44-.56c-.18.21-.38.43-.53.57a2.77,2.77,0,0,1-.28-.79c0,.11-.1.22-.38-.22-.91-1.5-.16-.6-.61-1.52-.31-.31-.79-1.33-1-1.24a1.82,1.82,0,0,1-.27-.78c-.55-.73-2.18-3.64-1.87-2.64l.11.21-.08-.12h0c-1.71-2.45-3.05-5.38-4.63-7.88l.07,0c-1-1.47-2.05-3.35-2.82-4.35-.27-.45-.51-1.13-.32-1a20.25,20.25,0,0,1-1.77-3c.8,1.1-.14-.46.78,1.15a20.21,20.21,0,0,0-2.06-3.46c.49.46-.47-1.25-.94-1.94l.51,1.12c-.5-.79-.91-1.5-1.32-2.22l.45.26c-1.57-3.24-3.72-5.31-4.66-7.92-.63-.73.87,1.74.27,1.11-.8-1.44-1.36-3.1-1.62-3.55-1-2-1.38-1.63-2.49-3.72.08.31,0,.68-.94-.81-.81-1.44-.71-1.93-.12-1.07.21.34.28.52.24.52.3.44.69,1,.44.41l-.18-.14c-.34-.75-1.49-2.7-1.1-2.32-.7-1-.39-.38,0,.44-.95-1.89-1.66-2.86-2.68-4.78.13.32.2.65,0,.35a8.31,8.31,0,0,0-1.14-1.85,2.49,2.49,0,0,1-.27-.28l-.23-.3-.44-.7c-.35-.74-.28-.77-.26-.84s0-.23-.76-1.35l-.14.28c-.48.75-.58.82-.48.53s.39-.91.62-1.4l0,.06,0-.06c-.42.82-.8,1.53-1.18,2.2-.2.33-.39.66-.57,1l-.35.55c-.44.68-.86,1.26-1.15,1.74l.45-.94c-.27.56-.52,1-.77,1.46l.45-.43c-.33.52-.59,1-.65.92-.2.61.5-.27,0,.9-.47.67-1.13,2.22-1.47,2.35,1.33-2.21-.35.13.68-1.79a12.79,12.79,0,0,1-.76,1.35c-.07.07,0-.1.07-.25-1.39,2-.32,1.12-1.57,3.34,0-.35-.51.39-.69.77.5-.9.43-.32.06.55a20.39,20.39,0,0,0-1.23,2.33l.52-.83a11.47,11.47,0,0,1-1,2.07c-.14,0,.44-.93.2-.6-.41,1.22-1.61,2.38-2.34,4-.47.67-.25-.05-.66.55-.82,1.81-1.21,1.78-2.1,3.66.45-.44.46-.55-.1.81l1.56-3-.84,2c.5-.9,1-1.95,1.29-2.48-.38,1-.37.87,0,.51-.92,1.1-1.23,2.52-2.19,3.86l-.36-.26c-1.37,2-1.93,3.91-3.59,6.63l.57-.85a23,23,0,0,1-1.39,2.66c-.08-.16-.44.38-.74.72.12,0-1.15,2-1,2.43l-.87,1.14c-1.33,2.21-1.07,2.77-2.32,4.9.22-.73-.42.2.29-1.3-.4.72-.79,1.35-.71,1.42-.31.37-.94,2.09-1.44,2.68a3.53,3.53,0,0,1-.5,1.32c-.07.07-.06,0-.06,0s-.62,1.31-.08.69a13.28,13.28,0,0,0-1,1.39c-.32.51-.71,1.17-.88,1.47l-2.88,0a16.08,16.08,0,0,1-2.55-.2c-1.81,0-4,0-5.62,0,.11,0,0-.07.32,0-2.26-.17-1.39.4-4,.22-1.31-.26,1.37-.11.55-.22-.35-.49-3.1,0-4.83-.27l.42,0c-1.32-.18-3.22.15-5.38.09,0,0,.1-.05,0-.08a61,61,0,0,1-6.35.32c.65-.18.94-.09.55-.28-.93,0,.27.31-1.59.34a8.47,8.47,0,0,1-2.12-.43h1.76a14.77,14.77,0,0,0-3.19-.07l.12-.12c-2.69,0-2.73.3-5.62.24l.3.09c-1.58.28-1.32-.18-2.9,0l-.47-.3c-1,.06-3.65.24-5.52.27,1.06-.2,3.25-.29,4.6-.4a30.93,30.93,0,0,0-4,.12,7.62,7.62,0,0,1,1.35,0,29,29,0,0,1-5,.28c.06-.11-.05-.19-.22-.24a6.3,6.3,0,0,0-.81-1,10.61,10.61,0,0,1,2.31.21c3.64-.26,7.22,0,11.46-.08-1.51-.43,1.23,0,1-.49a8.62,8.62,0,0,1,1.45,0l3,.24c.71.12-.94.11-.85.21,2.16,0,.91.19,2.34.29-.29-.16.75-.24,2-.2l-1.74-.19c3-.28,2.62.36,5.66.08l-1,.15c1.56-.1,5.76-.07,7.29-.45.28,0,.64.17,0,.21,3.73,0,8.3-.5,11.21-.31l-.29.12a9.12,9.12,0,0,1,2.09-.12s-.28.11,0,.11a19.11,19.11,0,0,1,2.77-.16l-.79.13c.65,0,1.24,0,1.8,0l2.1-.08.49-1.06.27-.64.48-1.18c.32-.79.66-1.6,1.08-2.49.29.16,1.68-2.35,2.38-3.6l0,.06c1.95-3.76,3-6.54,4.67-10.11,1.42-2,3.86-7.29,5.81-10.7-.32.51-.18-.2.1-.83.48-.79.94-2.38,1.15-2.11l-.15.29a16.25,16.25,0,0,0,2-3.52l-.24-.39c2.25-3.18,4.38-9.12,5.79-10.76.33-.87.85-1.9,1.18-2.77l.17.14c1.22-2.27,1.81-3.42,3.22-6.28l-.16.65a6.32,6.32,0,0,0,.65-1.93,2.9,2.9,0,0,0,.07-.38,1.09,1.09,0,0,1,0-.25A2.32,2.32,0,0,1,165,117a.8.8,0,0,1,.16.37l0,0,.19.33.08.17.15.26,1.17,2a41.43,41.43,0,0,0,2.54,3.9c-.06,0-.19-.05-.47-.47.77,1.26,2.81,5,2.9,4.29-.22.18,1.68,2.77,2.67,4.15l-.31-.12a15.83,15.83,0,0,1,2.17,2.75c.23.41.08.44-.21-.13.73,1.4.81,1,1.72,2.63l-.49-.53a7.85,7.85,0,0,0,1.44,1.92,10.94,10.94,0,0,1,1.53,2.95,5.64,5.64,0,0,1,1.27,1.65c0,.14-.22-.13-.33-.27,1.3,2.39,2.33,3.31,3.13,5,0,.07,0,.19,0,.33-1.12-1.84-2-3.32-1.92-3.19-.17.1.72,1.6-.23.56a36.75,36.75,0,0,1,3.17,4.49.66.66,0,0,1,.06.22l-.11-.14a6.68,6.68,0,0,0,.59.9c.25.48.41.79.68,1.24a15.05,15.05,0,0,0,1.41,2.49c.14-.17.7.82.3-.18.06.12-.11-.13-.42-.62a3,3,0,0,0-.21-.3l0,0-1.13-1.84a8.27,8.27,0,0,1,1.29,2c.35.31.72.66.92.86.37,1.17,1.42,3.21,1.43,3.57,1.48,2.21,3.32,5.3,4.52,6.52a2.35,2.35,0,0,1,.45,1.07c-.26-.35-.53-.8-.7-1,.88,1.26,2.33,3.76,2.8,4,.59,1.09.41.91.24.72s-.23-.26.76,1.32l-.29-.31.19.35c.06.09.12.31.2.13l.45-.53.89-1.09.65-.83.5-.68c.66-.9,1.24-1.79,1.84-2.69a39.1,39.1,0,0,1,4.42-5.72,2.46,2.46,0,0,1-.49.47c4.18-5,8-10.71,12.26-15.52a11.91,11.91,0,0,0,1.74-2.61l.42-.18,1-1.65a10.46,10.46,0,0,1,1.14-1.42c.24.28.45.55.62.79s.57.69.88,1.05a19.8,19.8,0,0,0,2.3,2.24l-.2-.42c.84.89,2.79,2.7,2.52,2.68a1.7,1.7,0,0,1,.67.57l-.05.11,2.25,2c1.58,1.72-.59.07,1.79,2.51.92.87,2.77,2.32,2.5,1.93s-.87-1-.81-1.1l.86.78c.39-.09,1.27.29-.55-1.9l-1.54-1.26-.33-.58,1.18,1.18a6.26,6.26,0,0,0-1.62-1.52,1.91,1.91,0,0,0-.45-.72l-1.6-1.15c-.07-.26.81.43-.06-.55-.74-.54.4.83-.73-.17-.55-.78-.27-.68-1.14-1.37-.05-.18.16,0,.49.24a28,28,0,0,0-2.36-2.07c-.55-.84-2.38-2.34-2.08-2.5a11,11,0,0,1-.89-.67l-.16-.12-.23-.21-.47-.43c-.31-.28-.6-.54-.85-.79.57.4.47.22,0-.32l-1.83,2.26c-.42.51-.78.87-.8.66-.48,1.19-2.6,3.61-3.78,5.44a1.86,1.86,0,0,1,.28-.47c-.77.95-1.08,1.16-1.61,1.74.13.31-1,1.85-1.47,2.78-1.15,1,.28-.93-.22-.73.23.09-1.41,2.21-.94,1.93-.85.79-.68.72-1.23,1,.16.39-.61.89-1,1.78-1.16,1.2-.53.12-1.56,1.63C208.35,155.57,209.25,154.21,209.25,154.21ZM186.31,149h0l.47.76Zm-1.9-3.11.82,1.35c0,.15-.13.07-.32-.25C185.06,147.13,184.64,146.37,184.41,145.88Zm2.77,7.35a2,2,0,0,1-.4-.75l.55.85.06,0A.59.59,0,0,1,187.18,153.23Z"/><path class="cls-3" d="M188,154l.14.2-.14-.32-.16-.14Z"/><path class="cls-3" d="M193.34,174.61l0-.07c0,.06.05.12.06.16A.47.47,0,0,1,193.34,174.61Z"/><polygon class="cls-3" points="157.69 128.21 157.74 128.23 157.84 127.92 157.69 128.21"/><path class="cls-3" d="M204.81,174.13a.83.83,0,0,0,.2-.18Z"/><path class="cls-3" d="M210.18,167.31l.81-.93C210.63,166.78,210.38,167.07,210.18,167.31Z"/><path class="cls-3" d="M214.36,162.1a.31.31,0,0,0,0-.16h0Z"/><path class="cls-3" d="M158.23,142.34l-.11.23C157.86,143.11,158,142.75,158.23,142.34Z"/><path class="cls-3" d="M172.94,141.26c-.2-.27-.4-.53-.6-.82C172.61,140.93,172.83,141.31,172.94,141.26Z"/><path class="cls-3" d="M141.2,173.22h0l-.1.19Z"/><path class="cls-3" d="M171.61,139.17a10.23,10.23,0,0,0,.73,1.27A14.42,14.42,0,0,0,171.61,139.17Z"/><path class="cls-3" d="M232.68,158.53c.12.12.23.23.35.33s0,0,.05,0A3.87,3.87,0,0,1,232.68,158.53Z"/><path class="cls-3" d="M233.08,158.86l.38.29A2.86,2.86,0,0,0,233.08,158.86Z"/><path class="cls-3" d="M234.18,158.55l-.35.43c-.12.12-.24.38-.37.17.14.25.28-.07.41-.18A3,3,0,0,0,234.18,158.55Z"/><path class="cls-3" d="M226.24,152l-.12,0S226.21,152.06,226.24,152Z"/><path class="cls-3" d="M224.38,150.24l.7.8a10.6,10.6,0,0,0,.93,1h.11a4.79,4.79,0,0,1-.85-.88c-.17-.19-.34-.4-.51-.57A1.39,1.39,0,0,0,224.38,150.24Z"/><path class="cls-3" d="M217.44,156.64l1.43-1.73c-.31.26-.71.6-.1-.22C216.84,156.78,219.28,154.34,217.44,156.64Z"/><path class="cls-3" d="M213.06,162.08c.71-1-.1-.07-.1-.15C212.55,162.59,212.45,162.74,213.06,162.08Z"/><path class="cls-3" d="M185.47,161h.23C185.2,160.2,185.63,161,185.47,161Z"/><polygon class="cls-3" points="179.71 153.19 180.07 154.03 180.44 154.31 179.71 153.19"/><polygon class="cls-3" points="178 147.59 178.23 147.93 177.38 146.62 178 147.59"/><path class="cls-3" d="M133.58,177.17l.27.24C134.48,177.37,134.62,177.11,133.58,177.17Z"/><path class="cls-3" d="M97,177a5.88,5.88,0,0,0-2.06-.1C95.78,176.88,96.6,177,97,177Z"/><polygon class="cls-3" points="154.99 137.72 154.73 138.41 155.3 137.15 154.99 137.72"/></g></g></g></svg>