<?xml version="1.0" encoding="utf-8"?>
<!-- Generator: Adobe Illustrator 22.0.1, SVG Export Plug-In . SVG Version: 6.00 Build 0)  -->
<svg version="1.1" xmlns="http://www.w3.org/2000/svg" xmlns:xlink="http://www.w3.org/1999/xlink" x="0px" y="0px"
	 viewBox="0 0 700 700" style="enable-background:new 0 0 700 700;" xml:space="preserve">
<style type="text/css">
	.st0{fill:url(#SVGID_1_);}
	.st1{fill:url(#SVGID_2_);}
	.st2{fill:#FFFFFF;}
	.st3{fill:url(#SVGID_3_);}
	.st4{fill:url(#SVGID_4_);}
	.st5{fill:url(#SVGID_5_);}
	.st6{fill:url(#SVGID_6_);}
	.st7{fill:url(#SVGID_7_);}
	.st8{fill:url(#SVGID_8_);}
	.st9{fill:url(#SVGID_9_);}
	.st10{fill:url(#SVGID_10_);}
	.st11{fill:url(#SVGID_11_);}
	.st12{fill:url(#SVGID_12_);}
	.st13{fill:url(#SVGID_13_);}
	.st14{fill:url(#SVGID_14_);}
	.st15{fill:url(#SVGID_15_);}
	.st16{fill:url(#SVGID_16_);}
	.st17{fill:url(#SVGID_17_);}
	.st18{fill:url(#SVGID_18_);}
	.st19{fill:url(#SVGID_19_);}
	.st20{fill:url(#SVGID_20_);}
	.st21{fill:url(#SVGID_21_);}
	.st22{fill:url(#SVGID_22_);}
	.st23{fill:url(#SVGID_23_);}
	.st24{fill:url(#SVGID_24_);}
	.st25{fill:url(#SVGID_25_);}
	.st26{fill:url(#SVGID_26_);}
	.st27{fill:url(#SVGID_27_);}
	.st28{fill:url(#SVGID_28_);}
	.st29{fill:url(#SVGID_29_);}
	.st30{fill:none;stroke:url(#SVGID_30_);stroke-width:4.327;stroke-linecap:round;stroke-linejoin:round;}
	.st31{fill:none;stroke:url(#SVGID_31_);stroke-width:4.327;stroke-linecap:round;stroke-linejoin:round;}
	.st32{fill:none;stroke:url(#SVGID_32_);stroke-width:4.327;stroke-linecap:round;stroke-linejoin:round;}
	.st33{fill:none;stroke:url(#SVGID_33_);stroke-width:4.327;stroke-linecap:round;stroke-linejoin:round;}
	.st34{fill:none;stroke:url(#SVGID_34_);stroke-width:2.1635;stroke-linecap:round;stroke-linejoin:round;}
	.st35{fill:none;stroke:url(#SVGID_35_);stroke-width:2.1635;stroke-linecap:round;stroke-linejoin:round;}
	.st36{fill:none;stroke:url(#SVGID_36_);stroke-width:2.1635;stroke-linecap:round;stroke-linejoin:round;}
	.st37{fill:none;stroke:url(#SVGID_37_);stroke-width:4.327;stroke-linecap:round;stroke-linejoin:round;}
	.st38{fill:none;stroke:url(#SVGID_38_);stroke-width:2.1635;stroke-linecap:round;stroke-linejoin:round;}
	.st39{fill:none;stroke:url(#SVGID_39_);stroke-width:2.1635;stroke-linecap:round;stroke-linejoin:round;}
	.st40{fill:none;stroke:url(#SVGID_40_);stroke-width:2.1635;stroke-linecap:round;stroke-linejoin:round;}
	.st41{fill:none;stroke:url(#SVGID_41_);stroke-width:2.1635;stroke-linecap:round;stroke-linejoin:round;}
	.st42{fill:none;stroke:url(#SVGID_42_);stroke-width:2.1635;stroke-linecap:round;stroke-linejoin:round;}
	.st43{fill:none;stroke:url(#SVGID_43_);stroke-width:2.1635;stroke-linecap:round;stroke-linejoin:round;}
	.st44{fill:none;stroke:url(#SVGID_44_);stroke-width:2.1635;stroke-linecap:round;stroke-linejoin:round;}
	.st45{fill:none;stroke:url(#SVGID_45_);stroke-width:2.1635;stroke-linecap:round;stroke-linejoin:round;}
	.st46{fill:none;stroke:url(#SVGID_46_);stroke-width:2.1635;stroke-linecap:round;stroke-linejoin:round;}
	.st47{fill:none;stroke:url(#SVGID_47_);stroke-width:2.1635;stroke-linecap:round;stroke-linejoin:round;}
	.st48{fill:none;stroke:url(#SVGID_48_);stroke-width:4.327;stroke-linecap:round;stroke-linejoin:round;}
	.st49{fill:none;stroke:url(#SVGID_49_);stroke-width:4.327;stroke-linecap:round;stroke-linejoin:round;}
	.st50{fill:none;stroke:url(#SVGID_50_);stroke-width:2.1635;stroke-linecap:round;stroke-linejoin:round;}
	.st51{fill:none;stroke:url(#SVGID_51_);stroke-width:2.1635;stroke-linecap:round;stroke-linejoin:round;}
	.st52{fill:none;stroke:url(#SVGID_52_);stroke-width:2.1635;stroke-linecap:round;stroke-linejoin:round;}
	.st53{fill:none;stroke:url(#SVGID_53_);stroke-width:2.1635;stroke-linecap:round;stroke-linejoin:round;}
	.st54{fill:none;stroke:url(#SVGID_54_);stroke-width:2.1635;stroke-linecap:round;stroke-linejoin:round;}
	.st55{fill:none;stroke:url(#SVGID_55_);stroke-width:2.1635;stroke-linecap:round;stroke-linejoin:round;}
	.st56{fill:none;stroke:url(#SVGID_56_);stroke-width:4.327;stroke-linecap:round;stroke-linejoin:round;}
	.st57{fill:none;stroke:url(#SVGID_57_);stroke-width:2.1635;stroke-linecap:round;stroke-linejoin:round;}
	.st58{fill:none;stroke:url(#SVGID_58_);stroke-width:2.1635;stroke-linecap:round;stroke-linejoin:round;}
	.st59{fill:none;stroke:url(#SVGID_59_);stroke-width:2.1635;stroke-linecap:round;stroke-linejoin:round;}
	.st60{fill:none;stroke:url(#SVGID_60_);stroke-width:2.1635;stroke-linecap:round;stroke-linejoin:round;}
	.st61{fill:none;stroke:url(#SVGID_61_);stroke-width:2.1635;stroke-linecap:round;stroke-linejoin:round;}
	.st62{fill:none;stroke:url(#SVGID_62_);stroke-width:2.1635;stroke-linecap:round;stroke-linejoin:round;}
	.st63{fill:none;stroke:url(#SVGID_63_);stroke-width:2.1635;stroke-linecap:round;stroke-linejoin:round;}
	.st64{fill:none;stroke:url(#SVGID_64_);stroke-width:2.1635;stroke-linecap:round;stroke-linejoin:round;}
	.st65{fill:none;stroke:url(#SVGID_65_);stroke-width:2.1635;stroke-linecap:round;stroke-linejoin:round;}
	.st66{fill:none;stroke:url(#SVGID_66_);stroke-width:2.1635;stroke-linecap:round;stroke-linejoin:round;}
	.st67{fill:none;stroke:url(#SVGID_67_);stroke-width:2.1635;stroke-linecap:round;stroke-linejoin:round;}
	.st68{fill:none;stroke:url(#SVGID_68_);stroke-width:2.1635;stroke-linecap:round;stroke-linejoin:round;}
	.st69{fill:none;stroke:url(#SVGID_69_);stroke-width:2.1635;stroke-linecap:round;stroke-linejoin:round;}
	.st70{fill:none;stroke:url(#SVGID_70_);stroke-width:2.1635;stroke-linecap:round;stroke-linejoin:round;}
	.st71{fill:none;stroke:url(#SVGID_71_);stroke-width:2.1635;stroke-linecap:round;stroke-linejoin:round;}
	.st72{fill:none;stroke:url(#SVGID_72_);stroke-width:2.1635;stroke-linecap:round;stroke-linejoin:round;}
	.st73{fill:none;stroke:url(#SVGID_73_);stroke-width:2.1635;stroke-linecap:round;stroke-linejoin:round;}
	.st74{fill:none;stroke:url(#SVGID_74_);stroke-width:2.1635;stroke-linecap:round;stroke-linejoin:round;}
	.st75{fill:none;stroke:url(#SVGID_75_);stroke-width:2.1635;stroke-linecap:round;stroke-linejoin:round;}
	.st76{fill:none;stroke:url(#SVGID_76_);stroke-width:2.1635;stroke-linecap:round;stroke-linejoin:round;}
	.st77{fill:none;stroke:url(#SVGID_77_);stroke-width:4.327;stroke-linecap:round;stroke-linejoin:round;}
	.st78{fill:none;stroke:url(#SVGID_78_);stroke-width:4.327;stroke-linecap:round;stroke-linejoin:round;}
	.st79{fill:none;stroke:url(#SVGID_79_);stroke-width:4.327;stroke-linecap:round;stroke-linejoin:round;}
	.st80{fill:none;stroke:url(#SVGID_80_);stroke-width:4.327;stroke-linecap:round;stroke-linejoin:round;}
	.st81{fill:none;stroke:url(#SVGID_81_);stroke-width:4.327;stroke-linecap:round;stroke-linejoin:round;}
	.st82{fill:none;stroke:url(#SVGID_82_);stroke-width:4.327;stroke-linecap:round;stroke-linejoin:round;}
	.st83{fill:none;stroke:url(#SVGID_83_);stroke-width:4.327;stroke-linecap:round;stroke-linejoin:round;}
	.st84{fill:none;stroke:url(#SVGID_84_);stroke-width:2.1635;stroke-linecap:round;stroke-linejoin:round;}
	.st85{fill:none;stroke:url(#SVGID_85_);stroke-width:2.1635;stroke-linecap:round;stroke-linejoin:round;}
	.st86{fill:none;stroke:url(#SVGID_86_);stroke-width:2.1635;stroke-linecap:round;stroke-linejoin:round;}
	.st87{display:none;}
</style>
<g id="Icons">
	<g>
		<g>
			<g id="XMLID_17_">
				<g>
					<linearGradient id="SVGID_1_" gradientUnits="userSpaceOnUse" x1="590.985" y1="456.3028" x2="687.6063" y2="456.3028">
						<stop  offset="0" style="stop-color:#C7EDF2"/>
						<stop  offset="0.9987" style="stop-color:#C4DEEF"/>
					</linearGradient>
					<path class="st0" d="M663.6,463.3v33.1v19.8H591v-81.8l12.6-12.4H616l-6.4-6.4l15.5-19.1l62.5,66.8H663.6z M638.6,483.5v-19.2
						h-26.9v19.2H638.6z M638.6,448.9v-19.2h-26.9v19.2H638.6z"/>
					<linearGradient id="SVGID_2_" gradientUnits="userSpaceOnUse" x1="16.9477" y1="520.0499" x2="680.4019" y2="520.0499">
						<stop  offset="0" style="stop-color:#00BDCD"/>
						<stop  offset="0.9987" style="stop-color:#0085C7"/>
					</linearGradient>
					<path class="st1" d="M680.4,520v3.8c0,13.8-11.2,20.7-25,20.7H42c-13.8,0-25-6.9-25-20.7V520c0-12,8.4-22,19.7-24.5v20.6h76.9
						h76.9l0.5,0.3l64.8-0.2v7.6h76.9h76.9v-7.7h0h103.8H591h72.6v-19.8h0C673.4,499.8,680.4,509.1,680.4,520z"/>
					<rect x="611.6" y="464.2" class="st2" width="26.9" height="19.2"/>
					<rect x="611.6" y="429.6" class="st2" width="26.9" height="19.2"/>
					<path class="st2" d="M625.1,396.4l-15.5,19.1l-18.4-18.4c0-0.2-0.1-0.5-0.1-0.7H625.1z"/>
					<linearGradient id="SVGID_3_" gradientUnits="userSpaceOnUse" x1="590.985" y1="409.4309" x2="615.9733" y2="409.4309">
						<stop  offset="0" style="stop-color:#C7EDF2"/>
						<stop  offset="0.9987" style="stop-color:#C4DEEF"/>
					</linearGradient>
					<polygon class="st3" points="603.6,421.9 591,421.9 591,396.9 591.2,397.1 609.6,415.6 616,421.9 					"/>
					<polygon class="st2" points="603.6,421.9 591,434.4 591,421.9 					"/>
					<linearGradient id="SVGID_4_" gradientUnits="userSpaceOnUse" x1="199.7838" y1="295.3828" x2="591.0499" y2="295.3828">
						<stop  offset="0" style="stop-color:#C7EDF2"/>
						<stop  offset="0.9987" style="stop-color:#C4DEEF"/>
					</linearGradient>
					<path class="st4" d="M591,396.4h-0.6l-36-36H419.3v-0.5l-0.3-98.8c0-10.2-8.4-18.5-18.6-18.5l-55.7,0.2c0,0-0.1,0-0.1,0
						l-144.8,0.5c41.3-30.8,92.5-49,147.9-49C468.9,194.3,569.7,281.4,591,396.4z"/>
					<path class="st2" d="M590.5,396.4l0.5,0.5v25v12.4v81.8h-77.4V398.6l40.9-38.2L590.5,396.4z M561.6,477.7v-19.2h-26.9v19.2
						H561.6z M561.6,443.1v-19.2h-26.9v19.2H561.6z M561.6,406.5v-19.2h-26.9v19.2H561.6z"/>
					<rect x="534.7" y="458.5" class="st2" width="26.9" height="19.2"/>
					<rect x="534.7" y="423.9" class="st2" width="26.9" height="19.2"/>
					<rect x="534.7" y="387.3" class="st2" width="26.9" height="19.2"/>
					<linearGradient id="SVGID_5_" gradientUnits="userSpaceOnUse" x1="346.2733" y1="391.1711" x2="554.4438" y2="391.1711">
						<stop  offset="0" style="stop-color:#C7EDF2"/>
						<stop  offset="0.9987" style="stop-color:#C4DEEF"/>
					</linearGradient>
					<polygon class="st5" points="554.4,360.4 513.6,398.6 488.6,421.9 427,421.9 384.7,421.9 384.7,421.9 371.3,408.5 346.3,408.5 
						364.5,391.8 371.8,385.1 386.5,371.6 396.5,362.4 398.7,360.4 411.6,360.4 419.3,360.4 					"/>
					<path class="st2" d="M513.6,398.6v117.6H409.7h0V471h1.9v24H427v-24h6.7l-18.3-18.3H427v-26.9v-3.9h61.6L513.6,398.6z
						 M490.5,495v-26.9h-15.4V495H490.5z M490.5,452.7v-26.9h-15.4v26.9H490.5z M459.7,495v-26.9h-15.4V495H459.7z M459.7,452.7
						v-26.9h-15.4v26.9H459.7z"/>
					<rect x="475.1" y="468.1" class="st2" width="15.4" height="26.9"/>
					<rect x="475.1" y="425.8" class="st2" width="15.4" height="26.9"/>
					<rect x="444.3" y="468.1" class="st2" width="15.4" height="26.9"/>
					<rect x="444.3" y="425.8" class="st2" width="15.4" height="26.9"/>
					<polygon class="st2" points="415.5,452.7 433.8,471 427,471 411.7,471 409.7,471 409.7,446.9 411.7,448.9 					"/>
					<rect x="411.7" y="471" class="st2" width="15.4" height="24"/>
					<polygon class="st2" points="427,425.8 427,452.7 415.5,452.7 411.7,448.9 411.7,448.8 411.7,425.8 					"/>
					<polygon class="st2" points="427,421.9 427,425.8 411.7,425.8 411.7,448.8 411.7,448.9 409.7,446.9 384.7,421.9 384.7,421.9 
											"/>
					<path class="st2" d="M419.3,359.9v0.5h-7.7v-0.5l0-13.5l-42.3,0.2l-5.8,0l-0.3-85.3c0-10.2-8.3-18.5-18.5-18.5l55.7-0.2
						c10.2,0,18.6,8.2,18.6,18.5L419.3,359.9z M411.5,336.9l0-13.5l-42.3,0.2l0,13.5L411.5,336.9z M411.4,309.9l0-13.5l-42.3,0.2
						l0,13.5L411.4,309.9z M411.3,281.1l0-13.5l-42.3,0.2l0,13.5L411.3,281.1z"/>
					<linearGradient id="SVGID_6_" gradientUnits="userSpaceOnUse" x1="369.2279" y1="354.446" x2="411.5889" y2="354.446">
						<stop  offset="0" style="stop-color:#C7EDF2"/>
						<stop  offset="0.9987" style="stop-color:#C4DEEF"/>
					</linearGradient>
					<polygon class="st6" points="411.6,359.9 411.6,360.4 398.7,360.4 396.5,362.4 394.3,360 369.3,360.1 369.2,346.6 411.5,346.5 
											"/>
					<linearGradient id="SVGID_7_" gradientUnits="userSpaceOnUse" x1="369.163" y1="330.2041" x2="411.5023" y2="330.2041">
						<stop  offset="0" style="stop-color:#C7EDF2"/>
						<stop  offset="0.9987" style="stop-color:#C4DEEF"/>
					</linearGradient>
					<polygon class="st7" points="411.5,323.4 411.5,336.9 369.2,337 369.2,323.6 					"/>
					<linearGradient id="SVGID_8_" gradientUnits="userSpaceOnUse" x1="369.0548" y1="303.2904" x2="411.4158" y2="303.2904">
						<stop  offset="0" style="stop-color:#C7EDF2"/>
						<stop  offset="0.9987" style="stop-color:#C4DEEF"/>
					</linearGradient>
					<polygon class="st8" points="411.4,296.5 411.4,309.9 369.1,310.1 369.1,296.6 					"/>
					<linearGradient id="SVGID_9_" gradientUnits="userSpaceOnUse" x1="368.9683" y1="274.4295" x2="411.3076" y2="274.4295">
						<stop  offset="0" style="stop-color:#C7EDF2"/>
						<stop  offset="0.9987" style="stop-color:#C4DEEF"/>
					</linearGradient>
					<polygon class="st9" points="411.3,267.6 411.3,281.1 369,281.2 369,267.8 					"/>
					<path class="st2" d="M409.7,516.2v7.7h-76.9v-77.5l38.4-37.9l13.5,13.5l25,25v24V516.2z M384.7,491.2v-19.2h-26.9v19.2H384.7z
						 M384.7,456.5v-19.2h-26.9v19.2H384.7z"/>
					<polygon class="st2" points="394.3,360 396.5,362.4 386.5,371.6 382.8,371.6 369.3,371.6 369.4,385.1 371.8,385.1 364.5,391.8 
						363.6,390.9 363.5,346.7 369.2,346.6 369.3,360.1 					"/>
					<linearGradient id="SVGID_10_" gradientUnits="userSpaceOnUse" x1="369.3144" y1="378.3308" x2="386.4708" y2="378.3308">
						<stop  offset="0" style="stop-color:#C7EDF2"/>
						<stop  offset="0.9987" style="stop-color:#C4DEEF"/>
					</linearGradient>
					<polygon class="st10" points="386.5,371.6 371.8,385.1 369.4,385.1 369.3,371.6 382.8,371.6 					"/>
					<linearGradient id="SVGID_11_" gradientUnits="userSpaceOnUse" x1="357.8047" y1="481.5399" x2="384.7401" y2="481.5399">
						<stop  offset="0" style="stop-color:#C7EDF2"/>
						<stop  offset="0.9987" style="stop-color:#C4DEEF"/>
					</linearGradient>
					<rect x="357.8" y="471.9" class="st11" width="26.9" height="19.2"/>
					<linearGradient id="SVGID_12_" gradientUnits="userSpaceOnUse" x1="357.8047" y1="446.9241" x2="384.7401" y2="446.9241">
						<stop  offset="0" style="stop-color:#C7EDF2"/>
						<stop  offset="0.9987" style="stop-color:#C4DEEF"/>
					</linearGradient>
					<rect x="357.8" y="437.3" class="st12" width="26.9" height="19.2"/>
					<polygon class="st2" points="255.9,469 231.8,469 242.3,458.6 257.7,443.2 271.2,429.7 282.8,418.1 292.4,408.5 344.5,408.5 
						346.3,408.5 371.3,408.5 332.8,446.3 309.7,469 					"/>
					<path class="st2" d="M199.8,243.4l144.8-0.5c0,0,0,0,0.1,0c10.2,0,18.5,8.2,18.5,18.5l0.3,85.3l0.2,44.2l0.8,0.9l-18.2,16.7
						h-1.8V408l0-3.6L165.6,405l0,9.3L152,400.8h-5.7v-0.2L146,298.6l-0.1-36.5c0-10.2,8.2-18.6,18.5-18.6L199.8,243.4z
						 M344.4,390.9l0-13.5l-178.9,0.6l0,13.5L344.4,390.9z M344.3,362.1l0-13.5l-178.9,0.6l0.1,13.5L344.3,362.1z M344.2,337.1
						l0-13.5l-178.9,0.6l0.1,13.5L344.2,337.1z M344.1,310.2l0-13.5l-178.9,0.6l0,13.5L344.1,310.2z M344,281.3l0-13.5l-178.8,0.6
						l0,13.5L344,281.3z"/>
					<linearGradient id="SVGID_13_" gradientUnits="userSpaceOnUse" x1="165.5791" y1="411.443" x2="344.456" y2="411.443">
						<stop  offset="0" style="stop-color:#C7EDF2"/>
						<stop  offset="0.9987" style="stop-color:#C4DEEF"/>
					</linearGradient>
					<polygon class="st13" points="344.5,408 344.5,408.5 292.4,408.5 282.8,418.1 169.8,418.5 165.6,414.4 165.6,405 344.4,404.4 
											"/>
					<linearGradient id="SVGID_14_" gradientUnits="userSpaceOnUse" x1="165.4925" y1="384.5292" x2="344.3911" y2="384.5292">
						<stop  offset="0" style="stop-color:#C7EDF2"/>
						<stop  offset="0.9987" style="stop-color:#C4DEEF"/>
					</linearGradient>
					<polygon class="st14" points="344.3,377.5 344.4,390.9 165.5,391.6 165.5,378.1 					"/>
					<linearGradient id="SVGID_15_" gradientUnits="userSpaceOnUse" x1="165.3844" y1="355.6792" x2="344.2829" y2="355.6792">
						<stop  offset="0" style="stop-color:#C7EDF2"/>
						<stop  offset="0.9987" style="stop-color:#C4DEEF"/>
					</linearGradient>
					<polygon class="st15" points="344.2,348.6 344.3,362.1 165.4,362.7 165.4,349.3 					"/>
					<linearGradient id="SVGID_16_" gradientUnits="userSpaceOnUse" x1="165.2978" y1="330.6801" x2="344.1964" y2="330.6801">
						<stop  offset="0" style="stop-color:#C7EDF2"/>
						<stop  offset="0.9987" style="stop-color:#C4DEEF"/>
					</linearGradient>
					<polygon class="st16" points="344.2,323.6 344.2,337.1 165.4,337.7 165.3,324.3 					"/>
					<linearGradient id="SVGID_17_" gradientUnits="userSpaceOnUse" x1="165.2113" y1="303.7555" x2="344.1098" y2="303.7555">
						<stop  offset="0" style="stop-color:#C7EDF2"/>
						<stop  offset="0.9987" style="stop-color:#C4DEEF"/>
					</linearGradient>
					<polygon class="st17" points="344.1,296.7 344.1,310.2 165.3,310.8 165.2,297.3 					"/>
					<linearGradient id="SVGID_18_" gradientUnits="userSpaceOnUse" x1="165.1247" y1="274.9055" x2="344.0016" y2="274.9055">
						<stop  offset="0" style="stop-color:#C7EDF2"/>
						<stop  offset="0.9987" style="stop-color:#C4DEEF"/>
					</linearGradient>
					<polygon class="st18" points="344,267.9 344,281.3 165.2,281.9 165.1,268.5 					"/>
					<path class="st2" d="M255.9,472v-3h53.8l23.1-22.7v77.5h-76.9v-7.6v-17.3v-13.5V472z M323.2,510.4v-26.9H304v26.9H323.2z
						 M288.6,510.4v-26.9h-19.2v26.9H288.6z"/>
					<linearGradient id="SVGID_19_" gradientUnits="userSpaceOnUse" x1="303.9555" y1="496.9331" x2="323.1889" y2="496.9331">
						<stop  offset="0" style="stop-color:#C7EDF2"/>
						<stop  offset="0.9987" style="stop-color:#C4DEEF"/>
					</linearGradient>
					<rect x="304" y="483.5" class="st19" width="19.2" height="26.9"/>
					<linearGradient id="SVGID_20_" gradientUnits="userSpaceOnUse" x1="269.3398" y1="496.9331" x2="288.5732" y2="496.9331">
						<stop  offset="0" style="stop-color:#C7EDF2"/>
						<stop  offset="0.9987" style="stop-color:#C4DEEF"/>
					</linearGradient>
					<rect x="269.3" y="483.5" class="st20" width="19.2" height="26.9"/>
					<polygon class="st2" points="282.8,418.1 271.2,429.7 181.2,430 169.8,418.5 					"/>
					<linearGradient id="SVGID_21_" gradientUnits="userSpaceOnUse" x1="181.2427" y1="436.5286" x2="271.222" y2="436.5286">
						<stop  offset="0" style="stop-color:#C7EDF2"/>
						<stop  offset="0.9987" style="stop-color:#C4DEEF"/>
					</linearGradient>
					<polygon class="st21" points="271.2,429.7 257.7,443.2 194.7,443.4 190.5,439.2 181.2,430 					"/>
					<polygon class="st2" points="257.7,443.2 242.3,458.6 210.1,458.7 210.1,458.8 194.7,443.4 					"/>
					<polygon class="st2" points="255.9,498.9 255.9,516.3 191,516.5 190.5,516.2 190.5,499.2 190.7,499.2 					"/>
					<linearGradient id="SVGID_22_" gradientUnits="userSpaceOnUse" x1="190.5024" y1="492.3249" x2="255.8829" y2="492.3249">
						<stop  offset="0" style="stop-color:#C7EDF2"/>
						<stop  offset="0.9987" style="stop-color:#C4DEEF"/>
					</linearGradient>
					<polygon class="st22" points="255.9,485.5 255.9,498.9 190.7,499.2 190.5,499.2 190.5,485.7 190.9,485.7 					"/>
					<polygon class="st2" points="255.9,472 255.9,485.5 190.9,485.7 190.5,485.7 190.5,472.2 190.6,472.2 					"/>
					<linearGradient id="SVGID_23_" gradientUnits="userSpaceOnUse" x1="190.5024" y1="465.4219" x2="255.8829" y2="465.4219">
						<stop  offset="0" style="stop-color:#C7EDF2"/>
						<stop  offset="0.9987" style="stop-color:#C4DEEF"/>
					</linearGradient>
					<polygon class="st23" points="255.9,469 255.9,472 190.6,472.2 190.5,472.2 190.5,463.3 214.5,463.3 210.1,458.8 210.1,458.7 
						242.3,458.6 231.8,469 					"/>
					<polygon class="st2" points="194.7,443.4 210.1,458.8 214.5,463.3 190.5,463.3 190.5,439.2 					"/>
					<linearGradient id="SVGID_24_" gradientUnits="userSpaceOnUse" x1="113.5689" y1="458.4663" x2="190.5024" y2="458.4663">
						<stop  offset="0" style="stop-color:#C7EDF2"/>
						<stop  offset="0.9987" style="stop-color:#C4DEEF"/>
					</linearGradient>
					<path class="st24" d="M165.6,414.4l4.1,4.1l11.5,11.5l9.3,9.3v24v9v13.5v13.5v17h-76.9v-77.5l38.5-37.9L165.6,414.4z
						 M165.5,483.5v-19.2h-26.9v19.2H165.5z M165.5,448.9v-19.2h-26.9v19.2H165.5z"/>
					<rect x="138.6" y="464.2" class="st2" width="26.9" height="19.2"/>
					<rect x="138.6" y="429.6" class="st2" width="26.9" height="19.2"/>
					<polygon class="st2" points="36.7,461.3 12.6,461.3 73.2,400.8 103.6,400.8 146.3,400.8 152,400.8 113.6,438.6 90.5,461.3 
											"/>
					<linearGradient id="SVGID_25_" gradientUnits="userSpaceOnUse" x1="103.6385" y1="349.6755" x2="146.3457" y2="349.6755">
						<stop  offset="0" style="stop-color:#C7EDF2"/>
						<stop  offset="0.9987" style="stop-color:#C4DEEF"/>
					</linearGradient>
					<path class="st25" d="M146.3,400.5v0.2h-42.7v0c6.3-37.6,21-72.3,42.2-102.1h0.1L146.3,400.5z"/>
					<linearGradient id="SVGID_26_" gradientUnits="userSpaceOnUse" x1="36.657" y1="477.3968" x2="113.5689" y2="477.3968">
						<stop  offset="0" style="stop-color:#C7EDF2"/>
						<stop  offset="0.9987" style="stop-color:#C4DEEF"/>
					</linearGradient>
					<path class="st26" d="M113.6,438.6v77.5H36.7v-20.6v-34.2h53.8L113.6,438.6z M104,502.7v-26.9H84.7v26.9H104z M69.3,502.7
						v-26.9H50.1v26.9H69.3z"/>
					<rect x="84.7" y="475.8" class="st2" width="19.2" height="26.9"/>
					<rect x="50.1" y="475.8" class="st2" width="19.2" height="26.9"/>
				</g>
				<g>
				</g>
			</g>
		</g>
		<g>
			<linearGradient id="SVGID_27_" gradientUnits="userSpaceOnUse" x1="196.399" y1="294.312" x2="594.4242" y2="294.312">
				<stop  offset="0" style="stop-color:#00BDCD"/>
				<stop  offset="0.9987" style="stop-color:#0085C7"/>
			</linearGradient>
			<path class="st27" d="M199.6,243.5c16.4-13,34.6-24,53.9-32.3c4.8-2.2,9.8-3.9,14.7-5.8l7.5-2.5c2.5-0.8,5.1-1.5,7.6-2.3
				c1.3-0.4,2.5-0.8,3.8-1.1l3.8-0.9c2.6-0.6,5.1-1.3,7.7-1.8l7.8-1.5l7.8-1.2c20.9-3.1,42.3-3.3,63.3-0.9l4,0.4l3.9,0.6
				c2.6,0.4,5.2,0.8,7.9,1.3c5.2,1.1,10.4,2,15.5,3.4c5.2,1.2,10.2,2.8,15.3,4.3c2.5,0.8,5,1.7,7.5,2.6c1.3,0.4,2.5,0.8,3.8,1.3
				l3.7,1.5l3.7,1.5c1.2,0.5,2.5,1,3.7,1.5l7.3,3.3c2.4,1.1,4.7,2.4,7.1,3.5l3.6,1.8l3.5,1.9c9.3,5.1,18.2,10.9,26.8,17.1
				c8.6,6.2,16.6,13.2,24.3,20.4c7.7,7.2,14.8,15.2,21.5,23.4l4.9,6.2l4.6,6.4c1.6,2.1,3,4.4,4.5,6.6c1.4,2.2,2.9,4.4,4.2,6.7l4,6.8
				l3.8,7c1.3,2.3,2.4,4.7,3.6,7.1l1.7,3.6l0.9,1.8l0.8,1.8l3.1,7.3c1,2.4,1.9,4.9,2.8,7.4l1.4,3.7l1.2,3.8c0.8,2.5,1.7,5,2.4,7.5
				c3,10.1,5.1,20.4,6.8,30.7l-1.8-7.6c-0.3-1.3-0.6-2.6-0.9-3.8l-1.1-3.8l-1.1-3.8c-0.3-1.3-0.7-2.5-1.1-3.8l-2.4-7.4
				c-0.8-2.5-1.8-4.9-2.7-7.3l-1.4-3.7l-1.5-3.6c-1-2.4-2-4.8-3.1-7.2l-3.4-7c-9.1-18.7-20.6-36.2-34-52
				c-13.4-15.8-28.6-30-45.5-42.1c-8.4-6-17.1-11.7-26.2-16.5l-3.4-1.9l-3.5-1.7c-2.3-1.1-4.6-2.4-7-3.4l-7.1-3.2
				c-1.2-0.5-2.4-1-3.6-1.5l-3.6-1.4l-3.6-1.4c-1.2-0.5-2.4-0.9-3.6-1.3c-2.4-0.8-4.9-1.7-7.3-2.5c-5-1.5-9.9-3.1-14.9-4.2
				c-5-1.4-10.1-2.3-15.1-3.4c-2.5-0.5-5.1-0.8-7.6-1.3l-3.8-0.6l-3.8-0.5c-10.2-1.4-20.6-1.9-31-2l-7.8,0.1
				c-2.6,0.1-5.2,0.3-7.8,0.4c-1.3,0.1-2.6,0.1-3.9,0.2l-3.9,0.4c-2.6,0.3-5.2,0.4-7.7,0.8l-7.7,1l-7.7,1.3c-2.6,0.4-5.1,1-7.6,1.6
				l-3.8,0.8c-1.3,0.3-2.5,0.6-3.8,0.9c-2.5,0.7-5,1.2-7.5,2l-7.5,2.2c-4.9,1.7-9.9,3.3-14.7,5.2
				C235.3,221.5,216.9,231.6,199.6,243.5z"/>
		</g>
		<g>
			<linearGradient id="SVGID_28_" gradientUnits="userSpaceOnUse" x1="102.547" y1="349.653" x2="146.9429" y2="349.653">
				<stop  offset="0" style="stop-color:#00BDCD"/>
				<stop  offset="0.9987" style="stop-color:#0085C7"/>
			</linearGradient>
			<path class="st28" d="M103.5,400.7c1.4-9.2,3.3-18.3,5.7-27.3c2.5-9,5.4-17.8,8.9-26.5c3.5-8.7,7.3-17.2,11.9-25.3l3.6-6
				c1.3-2,2.5-3.9,3.8-5.9l4-5.7c1.4-1.8,2.8-3.7,4.3-5.5c0,0,0.1-0.1,0.2,0c0,0,0.1,0.1,0,0.1c-1.2,2-2.4,4-3.6,5.9l-3.6,6
				c-1.1,2-2.3,4-3.4,6l-3.3,6.1c-4.4,8.2-8.6,16.4-12.2,24.9c-3.6,8.5-6.8,17.2-9.5,26.1c-2.7,8.9-4.9,17.9-6.6,27
				c0,0.1-0.1,0.1-0.1,0.1C103.6,400.8,103.5,400.8,103.5,400.7z"/>
		</g>
		<g>
			<linearGradient id="SVGID_29_" gradientUnits="userSpaceOnUse" x1="12.6162" y1="522.2114" x2="684.7317" y2="522.2114">
				<stop  offset="0" style="stop-color:#00BDCD"/>
				<stop  offset="0.9987" style="stop-color:#0085C7"/>
			</linearGradient>
			<path class="st29" d="M663.6,496.4c3.8,1.2,7.3,3.3,10.1,6.1c2.8,2.8,5,6.3,6.3,10.2c0.6,1.9,1,3.9,1.2,6c0.1,1,0.1,2,0.1,3
				c0,1,0.1,2,0,3c0,4.1-1.2,8.3-3.7,11.8c-2.5,3.5-6.1,5.9-10,7.5c-3.9,1.5-8,2.2-12.1,2.3l-23.7,0.4l-47.4,0.7l-47.4,0.5
				c-31.6,0.4-63.3,0.5-94.9,0.7l-94.9,0.2l-94.9-0.2l-47.4-0.3l-23.7-0.2l-23.7-0.3l-47.4-0.5l-47.4-0.7l-11.9-0.2l-5.9-0.1l-3-0.1
				c-1,0-2.1-0.1-3.1-0.2c-4.1-0.4-8.2-1.4-11.9-3.4c-3.7-2-6.9-5.1-8.8-8.9c-0.9-1.9-1.5-3.9-1.8-6c-0.3-2.1-0.2-4.1-0.2-6.1
				c0-1,0-2,0.1-3c0.1-1,0.2-2,0.4-3c0.4-2,1-4,1.9-5.8c1.7-3.7,4.3-6.9,7.5-9.4c3.2-2.5,6.9-4.1,10.8-4.9
				c-3.8,0.9-7.4,2.8-10.4,5.4c-3,2.6-5.3,5.8-6.7,9.4c-0.7,1.8-1.2,3.7-1.5,5.5c-0.3,1.9-0.3,3.8-0.2,5.8c0,2,0.1,3.9,0.4,5.7
				c0.4,1.8,1,3.6,1.8,5.2c1.7,3.3,4.6,5.8,8,7.4c3.3,1.6,7.1,2.5,10.8,2.7c0.9,0.1,1.9,0.1,2.8,0.1l3-0.1l5.9-0.1l11.9-0.2
				l47.4-0.7l47.4-0.5l23.7-0.3l23.7-0.2l47.4-0.3l94.9-0.2l94.9,0.2c31.6,0.2,63.3,0.3,94.9,0.7l47.4,0.5l47.4,0.7l23.7,0.4
				c3.8,0.1,7.6-0.4,11.1-1.7c3.5-1.2,6.8-3.3,9.1-6.2c2.3-2.9,3.5-6.6,3.7-10.4c0.1-1.9,0.1-4,0.1-5.9c-0.1-1.9-0.3-3.8-0.8-5.7
				c-1-3.7-2.9-7.2-5.5-10.1C670.6,500.1,667.3,497.8,663.6,496.4z"/>
		</g>
		<g>
			<linearGradient id="SVGID_30_" gradientUnits="userSpaceOnUse" x1="34.4913" y1="488.7009" x2="38.8183" y2="488.7009">
				<stop  offset="0" style="stop-color:#00BDCD"/>
				<stop  offset="0.9987" style="stop-color:#0085C7"/>
			</linearGradient>
			<line class="st30" x1="36.7" y1="461.2" x2="36.7" y2="516.2"/>
			<linearGradient id="SVGID_31_" gradientUnits="userSpaceOnUse" x1="607.4449" y1="406.0012" x2="627.2798" y2="406.0012">
				<stop  offset="0" style="stop-color:#00BDCD"/>
				<stop  offset="0.9987" style="stop-color:#0085C7"/>
			</linearGradient>
			<line class="st31" x1="609.6" y1="415.6" x2="625.1" y2="396.4"/>
			<linearGradient id="SVGID_32_" gradientUnits="userSpaceOnUse" x1="588.8182" y1="428.1403" x2="605.8138" y2="428.1403">
				<stop  offset="0" style="stop-color:#00BDCD"/>
				<stop  offset="0.9987" style="stop-color:#0085C7"/>
			</linearGradient>
			<line class="st32" x1="591" y1="434.4" x2="603.7" y2="421.9"/>
			<linearGradient id="SVGID_33_" gradientUnits="userSpaceOnUse" x1="588.2039" y1="429.8609" x2="689.7798" y2="429.8609">
				<stop  offset="0" style="stop-color:#00BDCD"/>
				<stop  offset="0.9987" style="stop-color:#0085C7"/>
			</linearGradient>
			<polyline class="st33" points="663.6,463.3 687.6,463.3 625.1,396.4 590.4,396.4 			"/>
			<linearGradient id="SVGID_34_" gradientUnits="userSpaceOnUse" x1="589.9" y1="477.6975" x2="664.6596" y2="477.6975">
				<stop  offset="0" style="stop-color:#00BDCD"/>
				<stop  offset="0.9987" style="stop-color:#0085C7"/>
			</linearGradient>
			<polyline class="st34" points="591,516.2 663.6,516.2 663.6,439.2 			"/>
			<linearGradient id="SVGID_35_" gradientUnits="userSpaceOnUse" x1="610.573" y1="439.236" x2="639.6596" y2="439.236">
				<stop  offset="0" style="stop-color:#00BDCD"/>
				<stop  offset="0.9987" style="stop-color:#0085C7"/>
			</linearGradient>
			<rect x="611.7" y="429.6" class="st35" width="26.9" height="19.2"/>
			<linearGradient id="SVGID_36_" gradientUnits="userSpaceOnUse" x1="610.573" y1="473.8513" x2="639.6596" y2="473.8513">
				<stop  offset="0" style="stop-color:#00BDCD"/>
				<stop  offset="0.9987" style="stop-color:#0085C7"/>
			</linearGradient>
			<rect x="611.7" y="464.2" class="st36" width="26.9" height="19.2"/>
			<linearGradient id="SVGID_37_" gradientUnits="userSpaceOnUse" x1="407.5858" y1="456.5436" x2="593.1452" y2="456.5436">
				<stop  offset="0" style="stop-color:#00BDCD"/>
				<stop  offset="0.9987" style="stop-color:#0085C7"/>
			</linearGradient>
			<polyline class="st37" points="409.7,516.2 591,516.2 591,396.9 			"/>
			<linearGradient id="SVGID_38_" gradientUnits="userSpaceOnUse" x1="512.4961" y1="457.3648" x2="514.6596" y2="457.3648">
				<stop  offset="0" style="stop-color:#00BDCD"/>
				<stop  offset="0.9987" style="stop-color:#0085C7"/>
			</linearGradient>
			<line class="st38" x1="513.6" y1="398.6" x2="513.6" y2="516.2"/>
			<linearGradient id="SVGID_39_" gradientUnits="userSpaceOnUse" x1="533.65" y1="396.9283" x2="562.7365" y2="396.9283">
				<stop  offset="0" style="stop-color:#00BDCD"/>
				<stop  offset="0.9987" style="stop-color:#0085C7"/>
			</linearGradient>
			<rect x="534.7" y="387.3" class="st39" width="26.9" height="19.2"/>
			<linearGradient id="SVGID_40_" gradientUnits="userSpaceOnUse" x1="533.65" y1="433.4667" x2="562.7365" y2="433.4667">
				<stop  offset="0" style="stop-color:#00BDCD"/>
				<stop  offset="0.9987" style="stop-color:#0085C7"/>
			</linearGradient>
			<rect x="534.7" y="423.9" class="st40" width="26.9" height="19.2"/>
			<linearGradient id="SVGID_41_" gradientUnits="userSpaceOnUse" x1="533.65" y1="468.0821" x2="562.7365" y2="468.0821">
				<stop  offset="0" style="stop-color:#00BDCD"/>
				<stop  offset="0.9987" style="stop-color:#0085C7"/>
			</linearGradient>
			<rect x="534.7" y="458.5" class="st41" width="26.9" height="19.2"/>
			<linearGradient id="SVGID_42_" gradientUnits="userSpaceOnUse" x1="474.0346" y1="439.236" x2="491.5827" y2="439.236">
				<stop  offset="0" style="stop-color:#00BDCD"/>
				<stop  offset="0.9987" style="stop-color:#0085C7"/>
			</linearGradient>
			<rect x="475.1" y="425.8" class="st42" width="15.4" height="26.9"/>
			<linearGradient id="SVGID_43_" gradientUnits="userSpaceOnUse" x1="474.0346" y1="481.5436" x2="491.5827" y2="481.5436">
				<stop  offset="0" style="stop-color:#00BDCD"/>
				<stop  offset="0.9987" style="stop-color:#0085C7"/>
			</linearGradient>
			<rect x="475.1" y="468.1" class="st43" width="15.4" height="26.9"/>
			<linearGradient id="SVGID_44_" gradientUnits="userSpaceOnUse" x1="443.2653" y1="439.236" x2="460.8134" y2="439.236">
				<stop  offset="0" style="stop-color:#00BDCD"/>
				<stop  offset="0.9987" style="stop-color:#0085C7"/>
			</linearGradient>
			<rect x="444.3" y="425.8" class="st44" width="15.4" height="26.9"/>
			<linearGradient id="SVGID_45_" gradientUnits="userSpaceOnUse" x1="443.2653" y1="481.5436" x2="460.8134" y2="481.5436">
				<stop  offset="0" style="stop-color:#00BDCD"/>
				<stop  offset="0.9987" style="stop-color:#0085C7"/>
			</linearGradient>
			<rect x="444.3" y="468.1" class="st45" width="15.4" height="26.9"/>
			<linearGradient id="SVGID_46_" gradientUnits="userSpaceOnUse" x1="410.573" y1="439.236" x2="428.1211" y2="439.236">
				<stop  offset="0" style="stop-color:#00BDCD"/>
				<stop  offset="0.9987" style="stop-color:#0085C7"/>
			</linearGradient>
			<polyline class="st46" points="411.7,448.8 411.7,425.8 427,425.8 427,452.7 415.4,452.7 			"/>
			<linearGradient id="SVGID_47_" gradientUnits="userSpaceOnUse" x1="410.573" y1="482.8896" x2="428.1211" y2="482.8896">
				<stop  offset="0" style="stop-color:#00BDCD"/>
				<stop  offset="0.9987" style="stop-color:#0085C7"/>
			</linearGradient>
			<polyline class="st47" points="427,470.8 427,495 411.7,495 411.7,471 			"/>
			<linearGradient id="SVGID_48_" gradientUnits="userSpaceOnUse" x1="330.6451" y1="485.0893" x2="411.8952" y2="485.0893">
				<stop  offset="0" style="stop-color:#00BDCD"/>
				<stop  offset="0.9987" style="stop-color:#0085C7"/>
			</linearGradient>
			<polyline class="st48" points="332.8,446.3 332.8,523.9 409.7,523.9 409.7,446.9 			"/>
			<linearGradient id="SVGID_49_" gradientUnits="userSpaceOnUse" x1="253.722" y1="496.3072" x2="334.9721" y2="496.3072">
				<stop  offset="0" style="stop-color:#00BDCD"/>
				<stop  offset="0.9987" style="stop-color:#0085C7"/>
			</linearGradient>
			<polyline class="st49" points="255.9,468.8 255.9,523.9 332.8,523.9 			"/>
			<linearGradient id="SVGID_50_" gradientUnits="userSpaceOnUse" x1="356.7269" y1="446.9283" x2="385.8134" y2="446.9283">
				<stop  offset="0" style="stop-color:#00BDCD"/>
				<stop  offset="0.9987" style="stop-color:#0085C7"/>
			</linearGradient>
			<rect x="357.8" y="437.3" class="st50" width="26.9" height="19.2"/>
			<linearGradient id="SVGID_51_" gradientUnits="userSpaceOnUse" x1="112.4961" y1="477.397" x2="114.6596" y2="477.397">
				<stop  offset="0" style="stop-color:#00BDCD"/>
				<stop  offset="0.9987" style="stop-color:#0085C7"/>
			</linearGradient>
			<line class="st51" x1="113.6" y1="438.6" x2="113.6" y2="516.2"/>
			<linearGradient id="SVGID_52_" gradientUnits="userSpaceOnUse" x1="137.4961" y1="439.236" x2="166.5827" y2="439.236">
				<stop  offset="0" style="stop-color:#00BDCD"/>
				<stop  offset="0.9987" style="stop-color:#0085C7"/>
			</linearGradient>
			<rect x="138.6" y="429.6" class="st52" width="26.9" height="19.2"/>
			<linearGradient id="SVGID_53_" gradientUnits="userSpaceOnUse" x1="137.4961" y1="473.8513" x2="166.5827" y2="473.8513">
				<stop  offset="0" style="stop-color:#00BDCD"/>
				<stop  offset="0.9987" style="stop-color:#0085C7"/>
			</linearGradient>
			<rect x="138.6" y="464.2" class="st53" width="26.9" height="19.2"/>
			<linearGradient id="SVGID_54_" gradientUnits="userSpaceOnUse" x1="83.6499" y1="489.236" x2="105.0442" y2="489.236">
				<stop  offset="0" style="stop-color:#00BDCD"/>
				<stop  offset="0.9987" style="stop-color:#0085C7"/>
			</linearGradient>
			
				<rect x="80.9" y="479.6" transform="matrix(-1.836970e-16 1 -1 -1.836970e-16 583.583 394.8889)" class="st54" width="26.9" height="19.2"/>
			<linearGradient id="SVGID_55_" gradientUnits="userSpaceOnUse" x1="49.0346" y1="489.236" x2="70.4288" y2="489.236">
				<stop  offset="0" style="stop-color:#00BDCD"/>
				<stop  offset="0.9987" style="stop-color:#0085C7"/>
			</linearGradient>
			
				<rect x="46.3" y="479.6" transform="matrix(-1.836970e-16 1 -1 -1.836970e-16 548.9677 429.5043)" class="st55" width="26.9" height="19.2"/>
			<g>
				
					<linearGradient id="SVGID_56_" gradientUnits="userSpaceOnUse" x1="144.371" y1="305.4716" x2="421.7748" y2="305.4716" gradientTransform="matrix(1 -3.468033e-03 3.468033e-03 1 -1.5233 17.0793)">
					<stop  offset="0" style="stop-color:#00BDCD"/>
					<stop  offset="0.9987" style="stop-color:#0085C7"/>
				</linearGradient>
				<path class="st56" d="M146.3,400.5l-0.5-138.4c0-10.2,8.2-18.6,18.5-18.6l236-0.8c10.2,0,18.6,8.2,18.6,18.5l0.3,98.8"/>
				
					<linearGradient id="SVGID_57_" gradientUnits="userSpaceOnUse" x1="189.7595" y1="500.0636" x2="257.1452" y2="500.0636" gradientTransform="matrix(1 -3.468033e-03 3.468033e-03 1 -1.5233 17.0793)">
					<stop  offset="0" style="stop-color:#00BDCD"/>
					<stop  offset="0.9987" style="stop-color:#0085C7"/>
				</linearGradient>
				<line class="st57" x1="256.3" y1="516.3" x2="191.1" y2="516.5"/>
				
					<linearGradient id="SVGID_58_" gradientUnits="userSpaceOnUse" x1="344.2301" y1="301.0251" x2="364.9239" y2="301.0251" gradientTransform="matrix(1 -3.468033e-03 3.468033e-03 1 -1.5233 17.0793)">
					<stop  offset="0" style="stop-color:#00BDCD"/>
					<stop  offset="0.9987" style="stop-color:#0085C7"/>
				</linearGradient>
				<path class="st58" d="M344.6,242.9c10.2,0,18.6,8.2,18.6,18.5l0.4,129.5"/>
				
					<linearGradient id="SVGID_59_" gradientUnits="userSpaceOnUse" x1="368.5296" y1="258.7175" x2="413.0008" y2="258.7175" gradientTransform="matrix(1 -3.468033e-03 3.468033e-03 1 -1.5233 17.0793)">
					<stop  offset="0" style="stop-color:#00BDCD"/>
					<stop  offset="0.9987" style="stop-color:#0085C7"/>
				</linearGradient>
				
					<rect x="369" y="267.7" transform="matrix(1 -3.468033e-03 3.468033e-03 1 -0.9494 1.3547)" class="st59" width="42.3" height="13.5"/>
				
					<linearGradient id="SVGID_60_" gradientUnits="userSpaceOnUse" x1="368.5296" y1="287.5636" x2="413.0008" y2="287.5636" gradientTransform="matrix(1 -3.468033e-03 3.468033e-03 1 -1.5233 17.0793)">
					<stop  offset="0" style="stop-color:#00BDCD"/>
					<stop  offset="0.9987" style="stop-color:#0085C7"/>
				</linearGradient>
				
					<rect x="369.1" y="296.6" transform="matrix(1 -3.468033e-03 3.468033e-03 1 -1.0495 1.3552)" class="st60" width="42.3" height="13.5"/>
				
					<linearGradient id="SVGID_61_" gradientUnits="userSpaceOnUse" x1="368.5296" y1="314.4867" x2="413.0008" y2="314.4867" gradientTransform="matrix(1 -3.468033e-03 3.468033e-03 1 -1.5233 17.0793)">
					<stop  offset="0" style="stop-color:#00BDCD"/>
					<stop  offset="0.9987" style="stop-color:#0085C7"/>
				</linearGradient>
				
					<rect x="369.2" y="323.5" transform="matrix(1 -3.468033e-03 3.468033e-03 1 -1.1428 1.3557)" class="st61" width="42.3" height="13.5"/>
				
					<linearGradient id="SVGID_62_" gradientUnits="userSpaceOnUse" x1="368.5296" y1="337.5636" x2="413.0008" y2="337.5636" gradientTransform="matrix(1 -3.468033e-03 3.468033e-03 1 -1.5233 17.0793)">
					<stop  offset="0" style="stop-color:#00BDCD"/>
					<stop  offset="0.9987" style="stop-color:#0085C7"/>
				</linearGradient>
				<polyline class="st62" points="394.3,360 369.3,360.1 369.2,346.6 411.5,346.5 411.6,359.9 				"/>
				
					<linearGradient id="SVGID_63_" gradientUnits="userSpaceOnUse" x1="368.5296" y1="362.5636" x2="384.1546" y2="362.5636" gradientTransform="matrix(1 -3.468033e-03 3.468033e-03 1 -1.5233 17.0793)">
					<stop  offset="0" style="stop-color:#00BDCD"/>
					<stop  offset="0.9987" style="stop-color:#0085C7"/>
				</linearGradient>
				<polyline class="st63" points="369.4,385.1 369.3,371.6 382.8,371.6 				"/>
				
					<linearGradient id="SVGID_64_" gradientUnits="userSpaceOnUse" x1="164.6835" y1="258.7175" x2="345.6931" y2="258.7175" gradientTransform="matrix(1 -3.468033e-03 3.468033e-03 1 -1.5233 17.0793)">
					<stop  offset="0" style="stop-color:#00BDCD"/>
					<stop  offset="0.9987" style="stop-color:#0085C7"/>
				</linearGradient>
				
					<rect x="165.1" y="268.2" transform="matrix(1 -3.468033e-03 3.468033e-03 1 -0.9519 0.8845)" class="st64" width="178.8" height="13.5"/>
				
					<linearGradient id="SVGID_65_" gradientUnits="userSpaceOnUse" x1="164.6835" y1="287.5636" x2="345.6931" y2="287.5636" gradientTransform="matrix(1 -3.468033e-03 3.468033e-03 1 -1.5233 17.0793)">
					<stop  offset="0" style="stop-color:#00BDCD"/>
					<stop  offset="0.9987" style="stop-color:#0085C7"/>
				</linearGradient>
				
					<rect x="165.2" y="297" transform="matrix(1 -3.468033e-03 3.468033e-03 1 -1.0519 0.885)" class="st65" width="178.8" height="13.5"/>
				
					<linearGradient id="SVGID_66_" gradientUnits="userSpaceOnUse" x1="164.6835" y1="314.4867" x2="345.6931" y2="314.4867" gradientTransform="matrix(1 -3.468033e-03 3.468033e-03 1 -1.5233 17.0793)">
					<stop  offset="0" style="stop-color:#00BDCD"/>
					<stop  offset="0.9987" style="stop-color:#0085C7"/>
				</linearGradient>
				
					<rect x="165.3" y="323.9" transform="matrix(1 -3.468033e-03 3.468033e-03 1 -1.1453 0.8855)" class="st66" width="178.8" height="13.5"/>
				
					<linearGradient id="SVGID_67_" gradientUnits="userSpaceOnUse" x1="164.6835" y1="339.4867" x2="345.6931" y2="339.4867" gradientTransform="matrix(1 -3.468033e-03 3.468033e-03 1 -1.5233 17.0793)">
					<stop  offset="0" style="stop-color:#00BDCD"/>
					<stop  offset="0.9987" style="stop-color:#0085C7"/>
				</linearGradient>
				
					<rect x="165.4" y="348.9" transform="matrix(1 -3.468033e-03 3.468033e-03 1 -1.232 0.8859)" class="st67" width="178.8" height="13.5"/>
				
					<linearGradient id="SVGID_68_" gradientUnits="userSpaceOnUse" x1="164.6835" y1="368.3329" x2="345.6931" y2="368.3329" gradientTransform="matrix(1 -3.468033e-03 3.468033e-03 1 -1.5233 17.0793)">
					<stop  offset="0" style="stop-color:#00BDCD"/>
					<stop  offset="0.9987" style="stop-color:#0085C7"/>
				</linearGradient>
				
					<rect x="165.5" y="377.8" transform="matrix(1 -3.468033e-03 3.468033e-03 1 -1.332 0.8865)" class="st68" width="178.8" height="13.5"/>
				
					<linearGradient id="SVGID_69_" gradientUnits="userSpaceOnUse" x1="164.6835" y1="393.3105" x2="345.6931" y2="393.3105" gradientTransform="matrix(1 -3.468033e-03 3.468033e-03 1 -1.5233 17.0793)">
					<stop  offset="0" style="stop-color:#00BDCD"/>
					<stop  offset="0.9987" style="stop-color:#0085C7"/>
				</linearGradient>
				<polyline class="st69" points="165.6,414.6 165.6,405 344.4,404.4 344.4,408 				"/>
				
					<linearGradient id="SVGID_70_" gradientUnits="userSpaceOnUse" x1="168.4719" y1="401.9867" x2="284.386" y2="401.9867" gradientTransform="matrix(1 -3.468033e-03 3.468033e-03 1 -1.5233 17.0793)">
					<stop  offset="0" style="stop-color:#00BDCD"/>
					<stop  offset="0.9987" style="stop-color:#0085C7"/>
				</linearGradient>
				<line class="st70" x1="283.2" y1="418.1" x2="169.4" y2="418.5"/>
				
					<linearGradient id="SVGID_71_" gradientUnits="userSpaceOnUse" x1="193.3827" y1="426.9867" x2="259.2405" y2="426.9867" gradientTransform="matrix(1 -3.468033e-03 3.468033e-03 1 -1.5233 17.0793)">
					<stop  offset="0" style="stop-color:#00BDCD"/>
					<stop  offset="0.9987" style="stop-color:#0085C7"/>
				</linearGradient>
				<line class="st71" x1="258.1" y1="443.2" x2="194.4" y2="443.4"/>
				
					<linearGradient id="SVGID_72_" gradientUnits="userSpaceOnUse" x1="179.9408" y1="413.5251" x2="272.5993" y2="413.5251" gradientTransform="matrix(1 -3.468033e-03 3.468033e-03 1 -1.5233 17.0793)">
					<stop  offset="0" style="stop-color:#00BDCD"/>
					<stop  offset="0.9987" style="stop-color:#0085C7"/>
				</linearGradient>
				<line class="st72" x1="180.9" y1="430" x2="271.4" y2="429.7"/>
				
					<linearGradient id="SVGID_73_" gradientUnits="userSpaceOnUse" x1="189.5021" y1="455.8329" x2="257.407" y2="455.8329" gradientTransform="matrix(1 -3.468033e-03 3.468033e-03 1 -1.5233 17.0793)">
					<stop  offset="0" style="stop-color:#00BDCD"/>
					<stop  offset="0.9987" style="stop-color:#0085C7"/>
				</linearGradient>
				<line class="st73" x1="256.4" y1="472" x2="190.6" y2="472.2"/>
				
					<linearGradient id="SVGID_74_" gradientUnits="userSpaceOnUse" x1="209.018" y1="442.3713" x2="243.7866" y2="442.3713" gradientTransform="matrix(1 -3.468033e-03 3.468033e-03 1 -1.5233 17.0793)">
					<stop  offset="0" style="stop-color:#00BDCD"/>
					<stop  offset="0.9987" style="stop-color:#0085C7"/>
				</linearGradient>
				<line class="st74" x1="210.1" y1="458.7" x2="242.7" y2="458.6"/>
				
					<linearGradient id="SVGID_75_" gradientUnits="userSpaceOnUse" x1="189.5021" y1="482.7559" x2="256.8833" y2="482.7559" gradientTransform="matrix(1 -3.468033e-03 3.468033e-03 1 -1.5233 17.0793)">
					<stop  offset="0" style="stop-color:#00BDCD"/>
					<stop  offset="0.9987" style="stop-color:#0085C7"/>
				</linearGradient>
				<line class="st75" x1="256" y1="498.9" x2="190.7" y2="499.2"/>
				
					<linearGradient id="SVGID_76_" gradientUnits="userSpaceOnUse" x1="189.6796" y1="469.2944" x2="257.1453" y2="469.2944" gradientTransform="matrix(1 -3.468033e-03 3.468033e-03 1 -1.5233 17.0793)">
					<stop  offset="0" style="stop-color:#00BDCD"/>
					<stop  offset="0.9987" style="stop-color:#0085C7"/>
				</linearGradient>
				<line class="st76" x1="190.9" y1="485.7" x2="256.2" y2="485.5"/>
			</g>
			<linearGradient id="SVGID_77_" gradientUnits="userSpaceOnUse" x1="188.3374" y1="477.6975" x2="192.6644" y2="477.6975">
				<stop  offset="0" style="stop-color:#00BDCD"/>
				<stop  offset="0.9987" style="stop-color:#0085C7"/>
			</linearGradient>
			<line class="st77" x1="190.5" y1="516.2" x2="190.5" y2="439.2"/>
			<linearGradient id="SVGID_78_" gradientUnits="userSpaceOnUse" x1="34.4913" y1="516.1591" x2="192.6644" y2="516.1591">
				<stop  offset="0" style="stop-color:#00BDCD"/>
				<stop  offset="0.9987" style="stop-color:#0085C7"/>
			</linearGradient>
			<polyline class="st78" points="36.7,516.2 113.6,516.2 190.5,516.2 			"/>
			<linearGradient id="SVGID_79_" gradientUnits="userSpaceOnUse" x1="344.0698" y1="391.159" x2="618.1452" y2="391.159">
				<stop  offset="0" style="stop-color:#00BDCD"/>
				<stop  offset="0.9987" style="stop-color:#0085C7"/>
			</linearGradient>
			<polyline class="st79" points="591,421.9 616,421.9 554.4,360.4 398.7,360.4 346.2,408.5 			"/>
			<linearGradient id="SVGID_80_" gradientUnits="userSpaceOnUse" x1="511.4144" y1="379.4802" x2="556.6068" y2="379.4802">
				<stop  offset="0" style="stop-color:#00BDCD"/>
				<stop  offset="0.9987" style="stop-color:#0085C7"/>
			</linearGradient>
			<line class="st80" x1="513.6" y1="398.6" x2="554.4" y2="360.4"/>
			<linearGradient id="SVGID_81_" gradientUnits="userSpaceOnUse" x1="382.5762" y1="410.2495" x2="515.7413" y2="410.2495">
				<stop  offset="0" style="stop-color:#00BDCD"/>
				<stop  offset="0.9987" style="stop-color:#0085C7"/>
			</linearGradient>
			<polyline class="st81" points="384.7,421.9 488.6,421.9 513.6,398.6 			"/>
			<linearGradient id="SVGID_82_" gradientUnits="userSpaceOnUse" x1="229.6836" y1="439.7167" x2="435.9336" y2="439.7167">
				<stop  offset="0" style="stop-color:#00BDCD"/>
				<stop  offset="0.9987" style="stop-color:#0085C7"/>
			</linearGradient>
			<polyline class="st82" points="409.7,471 433.8,471 371.3,408.5 292.4,408.5 231.8,469 309.7,469 371.3,408.5 			"/>
			<linearGradient id="SVGID_83_" gradientUnits="userSpaceOnUse" x1="10.4528" y1="432.0244" x2="216.7029" y2="432.0244">
				<stop  offset="0" style="stop-color:#00BDCD"/>
				<stop  offset="0.9987" style="stop-color:#0085C7"/>
			</linearGradient>
			<polyline class="st83" points="190.5,463.3 214.5,463.3 152,400.8 73.2,400.8 12.6,461.4 90.5,461.4 152,400.8 			"/>
			<linearGradient id="SVGID_84_" gradientUnits="userSpaceOnUse" x1="356.7269" y1="481.5436" x2="385.8134" y2="481.5436">
				<stop  offset="0" style="stop-color:#00BDCD"/>
				<stop  offset="0.9987" style="stop-color:#0085C7"/>
			</linearGradient>
			<rect x="357.8" y="471.9" class="st84" width="26.9" height="19.2"/>
			<linearGradient id="SVGID_85_" gradientUnits="userSpaceOnUse" x1="302.8807" y1="496.9283" x2="324.275" y2="496.9283">
				<stop  offset="0" style="stop-color:#00BDCD"/>
				<stop  offset="0.9987" style="stop-color:#0085C7"/>
			</linearGradient>
			
				<rect x="300.1" y="487.3" transform="matrix(-1.836970e-16 1 -1 -1.836970e-16 810.5061 183.3504)" class="st85" width="26.9" height="19.2"/>
			<linearGradient id="SVGID_86_" gradientUnits="userSpaceOnUse" x1="268.2653" y1="496.9283" x2="289.6596" y2="496.9283">
				<stop  offset="0" style="stop-color:#00BDCD"/>
				<stop  offset="0.9987" style="stop-color:#0085C7"/>
			</linearGradient>
			
				<rect x="265.5" y="487.3" transform="matrix(-1.836970e-16 1 -1 -1.836970e-16 775.8907 217.9658)" class="st86" width="26.9" height="19.2"/>
		</g>
	</g>
</g>
<g id="Guides" class="st87">
</g>
<g id="Layer_2">
</g>
</svg>
