<?xml version="1.0" encoding="utf-8"?>
<!-- Generator: Adobe Illustrator 22.0.1, SVG Export Plug-In . SVG Version: 6.00 Build 0)  -->
<svg version="1.1" id="Layer_1" xmlns="http://www.w3.org/2000/svg" xmlns:xlink="http://www.w3.org/1999/xlink" x="0px" y="0px"
	 viewBox="0 0 352.2 345.9" style="enable-background:new 0 0 352.2 345.9;" xml:space="preserve">
<style type="text/css">
	.st0{fill:#73F2DA;}
	.st1{fill:#00BDCD;}
	.st2{fill:#0094A2;}
	.st3{fill:#C35933;}
	.st4{fill:#F67143;}
	.st5{fill:#403165;}
	.st6{fill:#5D478D;}
	.st7{fill:#9791E2;}
	.st8{fill:#6059AB;}
	.st9{fill:#756DD9;}
	.st10{fill:#1F6558;}
	.st11{fill:#3F38A3;}
</style>
<g id="XMLID_19_">
	<g>
		<path class="st0" d="M336.5,297.6l0.7,0c-17.7,7.8-47.8,12.9-81.8,12.9c-32.9,0-62.1-4.8-80-12.1l0-0.7l70.1-65.4h21L336.5,297.6z
			"/>
		<path class="st1" d="M280.3,96.7c1.8-0.8,3.6-1.2,5.4-1.2c22.2,0,40.3,28,40.3,62.5c0,1.6,0,3.1-0.1,4.6
			c-25.6,33.7-55.2,13.4-68.1,1.6c-0.1-2-0.1-4.1-0.1-6.2C257.7,127.7,267.4,102.4,280.3,96.7z"/>
		<path class="st2" d="M280.3,219.4c-0.1,0-0.2-0.1-0.3-0.1c-11.9-5.5-21-27.6-22.2-55c12.9,11.9,42.5,32.1,68.1-1.6
			c-1.5,32.3-18.9,57.9-40.2,57.9C283.9,220.5,282.1,220.1,280.3,219.4z"/>
		<path class="st3" d="M280,219.2c0.1,0,0.2,0.1,0.3,0.1c-0.2,0-0.5,0-0.7,0C279.8,219.3,279.9,219.3,280,219.2z"/>
		<path class="st4" d="M279.7,96.8c0.2,0,0.4,0,0.7,0c-12.9,5.6-22.6,30.9-22.6,61.3c0,2.1,0,4.1,0.1,6.2c-3-2.7-5-5-6-6.1
			c0,0,0-0.1,0-0.1C251.9,124.2,264.5,97.7,279.7,96.8z"/>
		<path class="st3" d="M280,219.2c-0.1,0-0.3,0.1-0.4,0.1c-15.1-1-27.7-27.4-27.7-61.2c0.9,1.1,3,3.4,6,6.1
			C259.1,191.6,268.2,213.8,280,219.2z"/>
		<path class="st5" d="M272.3,226.4v0.5c0,2.9-2.4,5.3-5.3,5.3h-0.5h-21h-0.5c-2.9,0-5.3-2.4-5.3-5.3v-0.5
			C239.6,226.4,266.5,226.4,272.3,226.4z"/>
		<path class="st6" d="M272.3,225.9v0.5c-5.8,0-32.7,0-32.7,0v-0.5c0-2.9,2.4-5.3,5.3-5.3h22C269.9,220.5,272.3,222.9,272.3,225.9z"
			/>
		<path class="st7" d="M232.1,159.4c-2.1-9.1-10.1-15.8-19.8-15.9c-9.7-0.1-17.8,6.6-20,15.6v0c-0.4,1.5-0.5,3.1-0.6,4.7
			c0,1.9,0.2,3.7,0.7,5.4l-0.1,0c-16.9,0.5-38-1.7-53.1-8.3c-5.2-2.3-10.4-3.8-15.6-4.9c-3.1-7.4-10.4-12.6-18.9-12.6
			c-9,0-16.6,5.8-19.3,13.8h0c-16.1,3.8-30.2,11.9-36.8,16.1c-0.2-2.1-0.4-4.4-0.6-6.6c-0.3-3.7-0.6-7.3-0.8-10.8
			c-0.2-2.5-0.3-4.9-0.4-7c-0.1-3.5-0.1-6.3,0.1-7.9l0.1-0.2c1.2-25.3,22.1-45.4,47.6-45.4H134h83.7H269c3.7,0,7.2,0.4,10.7,1.2
			c-15.1,0.9-27.8,27.4-27.8,61.3c0,0,0,0.1,0,0.1c-0.4-0.4-0.6-0.7-0.6-0.7s-7.3,2.5-18.6,5.2l-0.1,0
			C232.5,161.6,232.3,160.4,232.1,159.4z"/>
		<path class="st1" d="M212.3,147c9.4,0,16.9,7.7,16.8,17c0,0.8-0.1,1.6-0.2,2.3c-3.7,5.3-9.9,8.7-16.8,8.7c-6.9,0-13-3.5-16.7-8.9
			c-0.1-0.8-0.2-1.6-0.2-2.3C195.3,154.5,202.9,146.9,212.3,147z"/>
		<path class="st8" d="M217.7,95.6L217.7,95.6l-83.7,0c0.6-2.2,1.6-4.3,2.9-6.1l0,0h76.3l0.3-0.3C215.2,91.1,216.6,93.2,217.7,95.6z
			"/>
		<path class="st2" d="M228.9,166.3c-1.2,8.2-8.3,14.6-16.9,14.5c-8.6-0.1-15.6-6.4-16.7-14.7c3.7,5.3,9.8,8.8,16.7,8.9
			C219,175,225.2,171.6,228.9,166.3z"/>
		<path class="st9" d="M213.4,89.2l-0.3,0.3h-76.3l0,0c3.4-4.8,9-7.9,15.3-7.9h14.9h8.7h13.8h6.4C202.9,81.6,209.1,84.5,213.4,89.2z
			"/>
		<path class="st10" d="M215.1,55.5c0.3,3.2-1.3,6-3.5,6.2c-0.6,0.1-1.2-0.1-1.8-0.4c6.3-1.6,1.8-11.2,1.8-11.2
			C213.4,50.7,214.8,52.8,215.1,55.5z"/>
		<path class="st8" d="M209.7,61.3c0.6,0.3,1.2,0.5,1.8,0.4v0l-25.9,6.8c0.9,5.3,4,13.1,4,13.1h-13.8l3.1-19.9L209,50.6
			c-1.4,1-2.3,3.2-2.1,5.7C207.1,58.6,208.3,60.5,209.7,61.3z"/>
		<path class="st0" d="M209.1,50.5l1.4-0.5c0,0,0,0,0.1,0c0.4,0,0.7,0,1.1,0.1c0,0,4.5,9.6-1.8,11.2c-1.5-0.8-2.6-2.7-2.8-5.1
			C206.7,53.8,207.6,51.5,209.1,50.5L209.1,50.5z"/>
		<path class="st4" d="M212.3,147c-9.4-0.1-17,7.5-17,16.8c0,0.8,0,1.6,0.2,2.3c-1.4-2.1-2.5-4.5-3.1-7v0c2.2-9,10.3-15.7,20-15.6
			c9.7,0,17.8,6.8,19.8,15.9c-0.6,2.5-1.7,4.9-3.2,7c0.1-0.8,0.2-1.5,0.2-2.3C229.1,154.6,221.6,147,212.3,147z"/>
		<path class="st9" d="M210,50.1c-0.4,0.1-0.7,0.2-1,0.4l0,0l-30.2,11.2l-3.1,19.9h-8.7c0,0,3.6-24.5,7.1-25.7
			C177.5,54.8,206.4,50.6,210,50.1z"/>
		<path class="st3" d="M195.4,166.1c1.1,8.2,8.1,14.6,16.7,14.7c8.5,0,15.7-6.3,16.9-14.5c1.5-2.1,2.5-4.4,3.2-7
			c0.3,1.1,0.4,2.2,0.5,3.4c0,0.4,0,0.9,0,1.3c-0.1,11.3-9.3,20.4-20.6,20.3c-9.4-0.1-17.3-6.5-19.6-15.1c-0.5-1.7-0.7-3.6-0.7-5.4
			c0-1.6,0.2-3.2,0.6-4.7C192.9,161.7,193.9,164,195.4,166.1z"/>
		<path class="st8" d="M148.7,220.5l-0.2,8.2c0,0-42,38.5-72.4,33.9c30.4-3.5,58.4-36.2,58.4-36.2h-35l0.1-5.8H148.7z"/>
		<path class="st9" d="M99.6,226.4h35c0,0-28,32.7-58.4,36.2l-10.5-7c21-3.5,33.9-24.5,33.9-24.5L99.6,226.4z"/>
		<path class="st9" d="M124.6,159.2c-0.2-1.1-0.6-2.1-1-3.1c5.2,1,10.4,2.6,15.6,4.9c15.1,6.6,36.2,8.7,53.1,8.3l0.1,0
			c2.3,8.7,10.2,15.1,19.6,15.1c11.3,0.1,20.5-9,20.6-20.3c0-0.4,0-0.9,0-1.3l0.1,0c11.4-2.7,18.6-5.2,18.6-5.2s0.2,0.2,0.6,0.7
			c0,33.8,12.7,60.2,27.7,61.2c-3.4,0.8-7,1.2-10.6,1.2h-2h-22h-96.2h-49h-5.1c-20.1,0-37.2-12.4-44.3-29.9v0
			c-0.2-1.5-0.6-5.1-1-9.8c-0.2-2.3-0.5-4.8-0.7-7.4c6.6-4.2,20.6-12.3,36.8-16.1h0c-0.2,0.6-0.4,1.3-0.6,1.9
			c-0.4,1.5-0.5,3.1-0.5,4.7c0,11.3,9.1,20.4,20.4,20.4c11.3,0,20.4-9.2,20.4-20.4C125.2,162.3,125,160.7,124.6,159.2z"/>
		<path class="st1" d="M104.7,147c9.4,0,16.9,7.6,16.9,16.9c0,0.8-0.1,1.6-0.2,2.3c-3.7,5.3-9.8,8.8-16.8,8.8
			c-6.9,0-13.1-3.5-16.8-8.7c-0.1-0.8-0.2-1.6-0.2-2.3C87.8,154.5,95.4,147,104.7,147z"/>
		<path class="st2" d="M121.5,166.2c-1.1,8.2-8.2,14.6-16.8,14.6s-15.6-6.4-16.8-14.6c3.7,5.3,9.8,8.7,16.8,8.7
			C111.7,175,117.8,171.5,121.5,166.2z"/>
		<path class="st4" d="M123.6,156.1c0.4,1,0.7,2,1,3.1c-0.6,2.6-1.7,4.9-3.1,7c0.1-0.8,0.2-1.5,0.2-2.3c0-9.4-7.6-16.9-16.9-16.9
			s-16.9,7.6-16.9,16.9c0,0.8,0.1,1.6,0.2,2.3c-1.4-2.1-2.5-4.4-3.1-7c0.2-0.7,0.3-1.3,0.6-1.9c2.7-8.1,10.4-13.8,19.3-13.8
			C113.3,143.5,120.6,148.7,123.6,156.1z"/>
		<path class="st3" d="M125.2,163.9c0,11.3-9.2,20.4-20.4,20.4c-11.3,0-20.4-9.2-20.4-20.4c0-1.6,0.2-3.2,0.5-4.7
			c0.6,2.6,1.7,4.9,3.1,7c1.1,8.2,8.2,14.6,16.8,14.6s15.6-6.4,16.8-14.6c1.4-2.1,2.5-4.5,3.1-7C125,160.7,125.2,162.3,125.2,163.9z
			"/>
		<path class="st9" d="M50.3,190.6c-0.1-0.3-0.3-0.6-0.4-0.9l-32.2,16.7l4.6-12.7l26.9-12.8C49.8,185.5,50.2,189.1,50.3,190.6z"/>
		<path class="st11" d="M47,176c0-0.5-0.1-1-0.1-1.5c0.5-0.3,1-0.7,1.6-1.1c0.2,2.6,0.5,5.1,0.7,7.4l-26.9,12.8l-4.6,12.7l-0.1,0.1
			L15,188.3L47,176z"/>
		<path class="st9" d="M46.9,158.9v-2.9l0.3,0c0.2,3.4,0.5,7.1,0.8,10.8H22.4l-7-10.5l0-0.1L46.9,158.9z"/>
		<path class="st11" d="M47.2,156.1l-0.3,0l-32-12.2l2.7-17.9l0.1,0l4.7,15.2l24.4,7.9C46.9,151.1,47,153.5,47.2,156.1z"/>
		<path class="st9" d="M17.7,125.9L17.7,125.9l-0.1-0.2L47,140.9l-0.1,0.2c-0.2,1.6-0.2,4.4-0.1,7.9l-24.4-7.9L17.7,125.9z"/>
		<path class="st11" d="M15.4,156.3l7,10.5H48c0.2,2.2,0.4,4.5,0.6,6.6c-0.6,0.4-1.2,0.8-1.6,1.1c0,0,0-0.1,0-0.2l-31.8,2.8v-21
			l0.2,0L15.4,156.3z"/>
	</g>
	<g>
	</g>
</g>
</svg>
