<?xml version="1.0" encoding="utf-8"?>
<!-- Generator: Adobe Illustrator 22.0.1, SVG Export Plug-In . SVG Version: 6.00 Build 0)  -->
<svg version="1.1" xmlns="http://www.w3.org/2000/svg" xmlns:xlink="http://www.w3.org/1999/xlink" x="0px" y="0px"
	 viewBox="0 0 700 700" style="enable-background:new 0 0 700 700;" xml:space="preserve">
<style type="text/css">
	.st0{fill:url(#SVGID_1_);}
	.st1{fill:#FFFFFF;}
	.st2{fill:url(#SVGID_2_);}
	.st3{fill:url(#SVGID_3_);}
	.st4{fill:url(#SVGID_4_);}
	.st5{fill:url(#SVGID_5_);}
	.st6{fill:url(#SVGID_6_);}
	.st7{fill:url(#SVGID_7_);}
	.st8{fill:url(#SVGID_8_);}
	.st9{fill:url(#SVGID_9_);}
	.st10{fill:url(#SVGID_10_);}
	.st11{fill:url(#SVGID_11_);}
	.st12{fill:url(#SVGID_12_);}
	.st13{fill:url(#SVGID_13_);}
	.st14{fill:url(#SVGID_14_);}
	.st15{fill:url(#SVGID_15_);}
	.st16{fill:url(#SVGID_16_);}
	.st17{fill:url(#SVGID_17_);}
	.st18{fill:url(#SVGID_18_);}
	.st19{fill:url(#SVGID_19_);}
	.st20{fill:url(#SVGID_20_);}
	.st21{fill:url(#SVGID_21_);}
	.st22{fill:url(#SVGID_22_);}
	.st23{fill:url(#SVGID_23_);}
	.st24{fill:url(#SVGID_24_);}
	.st25{fill:url(#SVGID_25_);}
	.st26{fill:url(#SVGID_26_);}
	.st27{fill:url(#SVGID_27_);}
	.st28{fill:url(#SVGID_28_);}
	.st29{fill:url(#SVGID_29_);}
	.st30{fill:url(#SVGID_30_);}
	.st31{fill:url(#SVGID_31_);}
	.st32{fill:url(#SVGID_32_);}
	.st33{fill:url(#SVGID_33_);}
	.st34{fill:url(#SVGID_34_);}
	.st35{fill:url(#SVGID_35_);}
	.st36{fill:url(#SVGID_36_);}
	.st37{fill:url(#SVGID_37_);}
	.st38{fill:url(#SVGID_38_);}
	.st39{display:none;}
</style>
<g id="Icons">
	<g id="XMLID_7_">
		<g>
			<linearGradient id="SVGID_1_" gradientUnits="userSpaceOnUse" x1="358.9032" y1="552.619" x2="673.8802" y2="552.619">
				<stop  offset="0" style="stop-color:#C7EDF2"/>
				<stop  offset="0.9987" style="stop-color:#C4DEEF"/>
			</linearGradient>
			<path class="st0" d="M643.9,579.5l30,28.9c-23.1,8.3-47.8,13.1-72.5,16.4c-27.8,3.7-55.8,5.4-83.9,5.4c-28,0.1-56.1-1.3-83.9-4.9
				c-25.4-3.2-50.8-7.9-74.7-16.2l30.7-29.6l35.4-34.5l35.2-34.8l17.5-17.5l13.5-13.6l0.3-0.3c0.6,0.1,1.1,0.1,1.7,0.1
				c1.3,0,1.9-0.2,2.8-0.3l2.6-0.3c13.3-1.8,26.7-3.1,40-3.1l17.4,17.6l17.5,17.5l35.2,34.8L643.9,579.5z"/>
			<path class="st1" d="M654.9,322.1c0,5.6-0.3,11.3-0.7,16.9c-0.4,0.4-0.8,0.8-1.2,1.2c-8,7.9-16.7,14.8-26.5,19.8
				c-13.3,6.5-28.4,9.1-43,6.4c-14.6-2.4-28.5-8.8-41.2-16.8c-6.2-3.9-12.1-8.3-17.8-12.9c-0.2-4.9-0.4-9.7-0.4-14.5
				c-0.1-12.5,0.7-25,2.3-37.4c1.5-12.4,4-24.7,7.5-36.6c3.6-11.9,8.2-23.6,15-34c3.4-5.2,7.4-10,12.2-13.9c4.8-3.8,10.7-6.6,17-7
				c7,0.8,13.7,2.7,19.9,5.6c6.1,3,11.7,6.9,16.7,11.5c5,4.5,9.5,9.7,13.3,15.2c3.8,5.5,7.3,11.4,10.2,17.5
				C649.9,267.5,654.9,294.9,654.9,322.1z"/>
			<linearGradient id="SVGID_2_" gradientUnits="userSpaceOnUse" x1="524.6485" y1="395.5725" x2="654.0386" y2="395.5725">
				<stop  offset="0" style="stop-color:#C7EDF2"/>
				<stop  offset="0.9987" style="stop-color:#C4DEEF"/>
			</linearGradient>
			<path class="st2" d="M654,341.2c-1.9,20.7-6.9,41.2-15.8,59.9c-2.9,6.1-6.4,11.9-10.2,17.5c-3.8,5.6-8.3,10.7-13.3,15.2
				c-5,4.6-10.5,8.5-16.7,11.5c-6.2,2.9-12.9,4.9-19.9,5.6c-6.4-0.5-12.2-3.2-17-7c-4.8-3.9-8.9-8.6-12.2-13.8
				c-6.8-10.4-11.4-22.1-15-34c-3.5-12-6-24.2-7.5-36.6c-0.8-6.4-1.4-12.9-1.8-19.3c4.9,4.5,10,8.7,15.5,12.6
				c12.6,8.9,27,15.9,42.5,18.5c7.8,1.3,15.8,1.4,23.6,0c7.8-1.4,15.3-4.1,22.2-7.9C638.4,357.7,646.9,349.9,654,341.2z"/>
			<linearGradient id="SVGID_3_" gradientUnits="userSpaceOnUse" x1="2.5593" y1="322.0617" x2="701.5822" y2="322.0617">
				<stop  offset="0" style="stop-color:#00BDCD"/>
				<stop  offset="0.9987" style="stop-color:#0085C7"/>
			</linearGradient>
			<path class="st3" d="M618.7,205.5c11.8,8.7,21.2,20.3,28.3,33c7.3,12.6,12.3,26.4,15.6,40.5c3.4,14.1,4.9,28.6,5,43.1
				c-0.1,14.5-1.5,29-5,43.1c-3.4,14.1-8.4,27.9-15.6,40.5c-7.2,12.7-16.5,24.3-28.3,33c-5.9,4.2-12.4,7.8-19.3,10
				c-6.9,2.2-14.2,3-21.2,2.4c7-0.8,13.7-2.7,19.9-5.6c6.1-3,11.7-6.9,16.7-11.5c5-4.5,9.5-9.7,13.3-15.2
				c3.8-5.6,7.3-11.4,10.2-17.5c8.9-18.7,13.9-39.2,15.8-59.9l-1-1c0.4-0.4,0.8-0.8,1.2-1.2c0.5-5.6,0.7-11.3,0.7-16.9
				c-0.1-27.2-5-54.5-16.7-79.1c-2.9-6.1-6.4-11.9-10.2-17.5c-3.8-5.6-8.3-10.7-13.3-15.2c-5-4.6-10.5-8.5-16.7-11.5
				c-6.2-2.9-12.9-4.9-19.9-5.6c7-0.7,14.3,0.2,21.2,2.4C606.3,197.7,612.8,201.2,618.7,205.5z"/>
			<linearGradient id="SVGID_4_" gradientUnits="userSpaceOnUse" x1="2.5814" y1="558.9678" x2="701.6046" y2="558.9678">
				<stop  offset="0" style="stop-color:#00BDCD"/>
				<stop  offset="0.9987" style="stop-color:#0085C7"/>
			</linearGradient>
			<path class="st4" d="M573.3,510.2l-17.5-17.5l-17.4-17.6l18.7,16.1l18.6,16.2l37.1,32.7l36.9,32.9l35.1,31.7
				c2.5,0.3,4.5,2.3,4.7,4.8c0.1,2.2-1.1,4.1-3,5l-0.2,0.1c-13.3,6-27.2,10.2-41.1,13.8c-13.9,3.5-28.1,6.2-42.2,8.3
				c-28.4,4-57,5.8-85.5,6c-28.6-0.1-57.2-1.7-85.5-5.5c-14.2-2-28.3-4.6-42.3-7.9c-14-3.4-27.9-7.4-41.3-13.1l-0.2-0.1
				c-2-0.9-3.2-2.9-3.1-5l0.1-1.5l0-0.2c0.1-1.3,0.7-2.5,1.6-3.4l36.7-33.2l36.9-33l37.1-32.7l18.6-16.2l14.5-12.5l0.3,0.3
				l-13.5,13.6l-17.5,17.5L425,544.9l-35.4,34.5l-30.7,29.6c23.9,8.3,49.3,13.1,74.7,16.2c27.8,3.6,55.9,5,83.9,4.9
				c28,0,56.1-1.7,83.9-5.4c24.7-3.3,49.4-8.1,72.5-16.4l-30-28.9l-35.4-34.5L573.3,510.2z"/>
			<linearGradient id="SVGID_5_" gradientUnits="userSpaceOnUse" x1="93.4414" y1="384.356" x2="565.1194" y2="384.356">
				<stop  offset="0" style="stop-color:#00BDCD"/>
				<stop  offset="0.9987" style="stop-color:#0085C7"/>
			</linearGradient>
			<path class="st5" d="M549.1,443.6c2.8,1.6,5.7,3,8.8,3.9c2.1,0.6,4.3,0.9,6.5,1c0.2,0,0.5,0,0.7,0c-4.7,1-9.5,1.6-14.2,1.9
				c-1.8,0.1-3.5,0.1-5.3,0.1c-1.5-1.1-3.4-1.8-5.3-2.1l-5.3-0.7c-13.7-1.9-27.4-3.2-41.1-3.2c-4.5,0-9,1.9-12.1,5.2l-1.9,0
				l-38.9-0.5c-41.8-0.5-83.7-1-125.5-1.2l-125.5-0.9c-5.3,0-10.3-0.1-15.3-0.6c-5-0.5-10-1.4-14.8-2.7c-9.7-2.6-18.9-6.8-27.3-12.3
				c-16.8-10.9-29.9-27.3-36.9-46c-0.1-0.2-0.2-0.3-0.2-0.5c-0.5-1-1.3-1.7-2.2-2.1c0.9-6.7,1.2-13.3,1.3-19.9
				c0.1-3.9,0-7.8-0.1-11.7c3.5-1.7,7-3.4,10.4-5.1c6.5-3.2,13-6.3,19.6-9.2c3.3-1.5,6.6-2.9,9.9-4.4l5-2.2c1.7-0.7,3.3-1.3,5-2.1
				l13-5.2c-0.9,3.5-1.3,7.1-1.3,10.7c-0.1,12.7,5.6,25.3,14.8,33.7c4.6,4.2,10.1,7.4,15.9,9.4c5.8,2,11.9,2.7,17.8,2.3
				c11.9-0.9,22.9-6.5,30.4-14.9c7.1-7.8,11.2-17.9,11.7-28.1v0c0-0.7,0.1-1.3,0.1-2v0c0-0.1,0-0.1,0-0.2s0-0.1,0-0.2
				c0-0.3,0-0.7,0-1c0-0.4,0-0.7,0-1.1c-0.2-4.7-1.2-9.3-2.9-13.7c11.6,3.4,22.7,7.6,33.6,12.8c11.2,5.1,23.1,8.4,35.1,10.9
				c12,2.4,24.2,3.8,36.3,4.4c10.1,0.5,20.3,0.3,30.4-0.5c0.1,0,0.1,0,0.2,0c2.2,8.4,6.8,16.1,13.1,21.9c4.6,4.2,10,7.4,15.8,9.5
				c5.8,2,11.9,2.8,17.8,2.4c11.9-0.8,23-6.4,30.5-14.7c7.6-8.3,11.9-19.3,11.9-30.4c0-0.1,0-0.2,0-0.3c0-0.8,0-1.5-0.1-2.3l0.2,0
				c3.5,0.2,6.9,0,10.2-0.5c3.3-0.5,6.6-1.2,9.8-2.1c3.2-0.9,6.4-2,9.5-3.3c2.2-0.9,4.3-2,6.3-3.2c0.2,25.2,3.5,50.7,12.2,74.5
				c4.4,12,10.1,23.6,18.2,33.7C538.9,435.7,543.6,440.3,549.1,443.6z"/>
			<path class="st1" d="M564.4,195.9c-1.5,0.7-3.1,1.6-4.5,2.5c-5.5,3.6-10.1,8.3-14,13.4c-7.9,10.4-13.4,22.2-17.6,34.4
				c-8.4,24.4-11.6,50.2-11.8,75.9c0,2.6,0.1,5.3,0.2,7.9c-1.3-1.2-2.6-2.3-3.9-3.6c-0.2-0.2-0.4-0.4-0.7-0.6c0-1.2-0.1-2.5-0.1-3.7
				c-0.1-12.4,0.7-24.8,2.4-37c1.6-12.2,4.2-24.4,7.8-36.2c3.7-11.7,8.5-23.2,15.5-33.3c3.5-5.1,7.6-9.7,12.5-13.4
				C554.4,199.1,559.2,196.9,564.4,195.9z"/>
			<path class="st1" d="M559.9,445.7c1.5,0.9,3,1.8,4.6,2.5c-5.2-0.9-10-3.2-14.2-6.3c-4.9-3.7-9-8.3-12.5-13.4
				c-7-10.1-11.8-21.6-15.5-33.3c-3.6-11.8-6.2-23.9-7.8-36.2c-1.4-10.6-2.1-21.2-2.3-31.9c1.5,1.8,3,3.5,4.6,5.2
				c0.9,22.2,4.3,44.5,11.6,65.6c4.2,12.2,9.7,24,17.6,34.4C549.8,437.4,554.4,442.1,559.9,445.7z"/>
			<linearGradient id="SVGID_6_" gradientUnits="userSpaceOnUse" x1="2.468" y1="322.058" x2="701.616" y2="322.058">
				<stop  offset="0" style="stop-color:#C7EDF2"/>
				<stop  offset="0.9987" style="stop-color:#C4DEEF"/>
			</linearGradient>
			<path class="st6" d="M654,341.2c-7.1,8.7-15.6,16.5-25.6,22.2c-6.9,3.8-14.4,6.5-22.2,7.9c-7.8,1.4-15.8,1.3-23.6,0
				c-15.6-2.6-29.9-9.6-42.5-18.5c-5.5-3.9-10.6-8.1-15.5-12.6c0.4,6.5,1,12.9,1.8,19.3c1.5,12.4,4,24.7,7.5,36.6
				c3.6,11.9,8.2,23.6,15,34c3.3,5.2,7.4,10,12.2,13.8c4.8,3.8,10.7,6.6,17,7c-3.2,0.1-6.4-0.3-9.5-1.1c-1.1-0.3-2.2-0.8-3.3-1.3
				c0,0,0,0,0,0c-0.1,0-0.1,0-0.2,0v0c-0.2,0-0.5,0-0.7,0l0-0.4c-1.6-0.7-3.1-1.6-4.6-2.5c-5.5-3.6-10.1-8.3-14-13.4
				c-7.8-10.4-13.4-22.2-17.6-34.4c-7.3-21.1-10.7-43.4-11.6-65.6c-1.6-1.7-3.1-3.4-4.6-5.2l0.7-0.7c1.3,1.2,2.6,2.4,3.9,3.6
				c-0.1-2.6-0.2-5.3-0.2-7.9c0.1-25.6,3.4-51.5,11.8-75.9c4.2-12.2,9.7-24,17.6-34.4c4-5.1,8.6-9.8,14-13.4c1.5-0.9,3-1.8,4.5-2.5
				l0-0.3c0.2-0.1,0.5-0.1,0.7-0.1v-0.1l0.2,0.1c1.1-0.5,2.2-0.9,3.4-1.3c3.1-0.9,6.3-1.3,9.5-1.1c-6.4,0.5-12.2,3.2-17,7
				c-4.8,3.9-8.8,8.6-12.2,13.9c-6.8,10.4-11.4,22.1-15,34c-3.5,12-6,24.2-7.5,36.6c-1.6,12.4-2.4,24.9-2.3,37.4
				c0,4.8,0.1,9.7,0.4,14.5c5.7,4.6,11.7,9,17.8,12.9c12.7,8,26.5,14.4,41.2,16.8c14.6,2.7,29.7,0.1,43-6.4
				c9.8-5,18.5-11.9,26.5-19.8L654,341.2z"/>
			<linearGradient id="SVGID_7_" gradientUnits="userSpaceOnUse" x1="211.8184" y1="322.0744" x2="650.5156" y2="322.0744">
				<stop  offset="0" style="stop-color:#00BDCD"/>
				<stop  offset="0.9987" style="stop-color:#0085C7"/>
			</linearGradient>
			<path class="st7" d="M550.3,441.9c4.1,3.1,9,5.4,14.2,6.3l0,0.4c-2.2-0.1-4.4-0.4-6.5-1c-3.1-0.9-6-2.3-8.8-3.9
				c-5.5-3.4-10.2-7.9-14.3-12.9c-8.1-10.1-13.8-21.7-18.2-33.7c-8.7-23.9-12-49.3-12.2-74.5l-0.1-1.5c0.1,0,0.1,0,0.2,0
				c0.2-25.1,3.6-50.3,12.2-74.1c4.3-12,10.1-23.6,18.2-33.7c4-5,8.8-9.5,14.3-12.9c2.8-1.6,5.7-3,8.8-3.9c2.1-0.6,4.3-0.9,6.5-1
				l0,0.3c-5.2,0.9-10,3.2-14.2,6.3c-4.9,3.7-9,8.3-12.5,13.4c-7,10.1-11.8,21.6-15.5,33.3c-3.6,11.8-6.2,23.9-7.8,36.2
				c-1.7,12.2-2.4,24.6-2.4,37c0,1.2,0,2.5,0.1,3.7c0.2,0.2,0.4,0.4,0.7,0.6l-0.7,0.7c0.2,10.7,0.9,21.4,2.3,31.9
				c1.6,12.2,4.2,24.4,7.8,36.2c3.7,11.7,8.5,23.2,15.5,33.3C541.3,433.6,545.4,438.2,550.3,441.9z"/>
			<linearGradient id="SVGID_8_" gradientUnits="userSpaceOnUse" x1="488.776" y1="458.1761" x2="549.7237" y2="458.1761">
				<stop  offset="0" style="stop-color:#00BDCD"/>
				<stop  offset="0.9987" style="stop-color:#0085C7"/>
			</linearGradient>
			<path class="st8" d="M535,454.2l5-0.6c1.3-0.1,2.7,0,4.1,0.6c2.6,1,4.9,3.6,5.5,6.7c0.1,0.6,0.2,1.3,0.2,2
				c-5.4-1.5-10.8-2.2-16.1-2.8c-5.6-0.6-11.3-0.8-16.9-0.8c-5.6,0-11.3,0.3-16.9,0.8c-3.7,0.4-7.4,0.9-11.1,1.7
				c0-0.2,0.1-0.4,0.1-0.6c0.2-0.8,0.7-1.4,1.2-2c1-1.2,2.4-1.8,3.9-1.8C507.7,457.4,521.3,456,535,454.2z"/>
			<linearGradient id="SVGID_9_" gradientUnits="userSpaceOnUse" x1="488.4613" y1="469.1347" x2="549.8569" y2="469.1347">
				<stop  offset="0" style="stop-color:#00BDCD"/>
				<stop  offset="0.9987" style="stop-color:#0085C7"/>
			</linearGradient>
			<path class="st9" d="M549.8,463.4c0.1,0.9,0.1,1.7,0,2.5c-0.2,1.6-0.7,3.3-1.7,4.6c-1.6,2.5-4.3,4.1-7.3,4.5
				c-0.4,0.1-0.9,0.1-1.3,0.1c-13.7,0.1-27.4-1.3-41.1-3.2l-2.6-0.3c-0.8-0.1-1.9-0.2-2.3-0.4c-1.1-0.3-2.1-0.8-2.8-1.5
				c-1.6-1.4-2.3-3.4-2.2-5.1c0-0.1,0-0.2,0.1-0.3c3.8,0.8,7.5,1.3,11.3,1.7c5.6,0.6,11.2,0.8,16.9,0.8c5.6,0,11.2-0.3,16.9-0.8
				c5.4-0.6,10.8-1.4,16.2-2.8C549.8,463.3,549.8,463.3,549.8,463.4z"/>
			<linearGradient id="SVGID_10_" gradientUnits="userSpaceOnUse" x1="2.422" y1="461.8284" x2="701.647" y2="461.8284">
				<stop  offset="0" style="stop-color:#00BDCD"/>
				<stop  offset="0.9987" style="stop-color:#0085C7"/>
			</linearGradient>
			<path class="st10" d="M565.1,448.6c-4.7,1.1-9.4,1.9-14.2,2.4c-1.5,0.1-3,0.2-4.5,0.3c3,2.4,4.7,6,4.8,9.5c0,1-0.1,1.8-0.1,2.7
				s-0.1,1.8-0.4,2.6c-0.4,1.8-1.2,3.4-2.3,4.7c-1.9,2.4-4.7,3.9-7.6,4.2c2.9-0.4,5.7-2.1,7.3-4.5c1-1.4,1.5-3,1.7-4.6
				c0.1-0.8,0.1-1.6,0-2.5c0-0.1,0-0.1,0-0.2l0-0.4c-0.1-0.7-0.1-1.3-0.2-2c-0.6-3.1-2.8-5.7-5.5-6.7c-1.3-0.6-2.7-0.7-4.1-0.6
				l-5,0.6c-13.7,1.9-27.4,3.2-41.1,3.2c-1.5,0-2.9,0.6-3.9,1.8c-0.5,0.6-1,1.2-1.2,2c-0.1,0.2-0.1,0.4-0.1,0.6l-0.3,2.6
				c0,0.1,0,0.2-0.1,0.3c-0.1,1.7,0.6,3.7,2.2,5.1c0.8,0.7,1.7,1.2,2.8,1.5c0.4,0.2,1.5,0.3,2.3,0.4l2.6,0.3
				c13.7,1.8,27.4,3.2,41.1,3.2c-0.4,0-0.7,0-1,0c-13.3,0-26.7,1.3-40,3.1l-2.6,0.3c-0.9,0.1-1.5,0.3-2.8,0.3c-0.5,0-1.1,0-1.7-0.1
				l-0.3,0.3l-0.3-0.3c-1.6-0.2-3.2-0.6-4.6-1.3c-4.4-2-7.7-6.5-8.6-11.6l-0.2-1.9l-0.1-1.3l-0.1-0.6l0-1c0-0.6,0.1-1.3,0.2-1.9
				c0.3-2.5,1.2-4.9,2.6-7l0-2.4l1.9,0c3.1-3.2,7.6-5.2,12.1-5.2c13.7-0.1,27.4,1.3,41.1,3.2l5.3,0.7c1.9,0.3,3.8,1.1,5.3,2.1
				c1.8,0,3.5,0,5.3-0.1C555.7,450.2,560.4,449.5,565.1,448.6L565.1,448.6z"/>
			<linearGradient id="SVGID_11_" gradientUnits="userSpaceOnUse" x1="2.7862" y1="463.024" x2="701.5192" y2="463.024">
				<stop  offset="0" style="stop-color:#00BDCD"/>
				<stop  offset="0.9987" style="stop-color:#0085C7"/>
			</linearGradient>
			<path class="st11" d="M533.6,460c5.4,0.6,10.7,1.3,16.1,2.8l0,0.4c-5.4,1.4-10.8,2.2-16.2,2.8c-5.6,0.6-11.3,0.8-16.9,0.8
				c-5.6,0-11.3-0.3-16.9-0.8c-3.8-0.4-7.6-0.9-11.3-1.7l0.3-2.6c3.7-0.7,7.4-1.2,11.1-1.7c5.6-0.6,11.2-0.8,16.9-0.8
				C522.3,459.2,528,459.5,533.6,460z"/>
			<linearGradient id="SVGID_12_" gradientUnits="userSpaceOnUse" x1="408.0309" y1="326.4106" x2="684.0734" y2="326.4106">
				<stop  offset="0" style="stop-color:#00BDCD"/>
				<stop  offset="0.9987" style="stop-color:#0085C7"/>
			</linearGradient>
			<path class="st12" d="M487.3,324.2c3.2-0.9,6.4-1.6,9.7-2.2c2.4-0.5,4.8-0.8,7.3-0.9l0.1,1.5c-2,1.2-4.2,2.3-6.3,3.2
				c-3.1,1.3-6.2,2.4-9.5,3.3c-3.2,0.9-6.5,1.6-9.8,2.1c-3.3,0.5-6.7,0.7-10.2,0.5c3-1.8,6.1-3.1,9.2-4.3
				C481,326.2,484.1,325.1,487.3,324.2z"/>
			<linearGradient id="SVGID_13_" gradientUnits="userSpaceOnUse" x1="86.3279" y1="271.1388" x2="565.0941" y2="271.1388">
				<stop  offset="0" style="stop-color:#C7EDF2"/>
				<stop  offset="0.9987" style="stop-color:#C4DEEF"/>
			</linearGradient>
			<path class="st13" d="M477.9,327.4c-3.1,1.2-6.2,2.5-9.2,4.3l-0.2,0c0,0,0-0.1,0-0.1c-0.5-10.1-4.5-20.1-11.5-27.8
				c-7.4-8.5-18.5-14.2-30.4-15.1c-5.9-0.4-12,0.2-17.9,2.2c-5.8,2-11.3,5.1-15.9,9.3c-9.3,8.3-15,20.9-15,33.6
				c0,3.7,0.5,7.3,1.3,10.9c-10.1-0.7-20-1.4-30-2.5c-6-0.7-12-1.4-17.9-2.3l-8.9-1.4c-2.9-0.6-5.9-1.1-8.8-1.7
				c-11.8-2.3-23.4-5.4-34.6-9.6c-11.2-4.5-23-7.9-35.1-9.2h0c-2-5.2-4.9-10.2-8.8-14.4c-7.5-8.4-18.5-14.1-30.4-14.9
				c-5.9-0.4-12,0.3-17.8,2.3c-5.8,2-11.3,5.2-15.9,9.4c-6.1,5.5-10.6,13-13,21c-0.3,0.1-0.6,0.1-0.9,0.2c-4.7,0.8-9.4,1.9-14,3.3
				c-7.1,2-13.9,4.8-20.6,7.7c-6.7,3.1-13.2,6.5-19.4,10.4c-2.9,1.8-5.8,3.8-8.7,5.8c-0.2-3.7-0.4-7.4-0.7-11.1
				c-0.7-8.5-1.8-16.9-3.2-25.3c-1.2-7.1-2.7-14-4.3-21.2c2.1-0.4,3.7-2.1,3.8-4.3c1-21.2,9.3-41.8,23.3-57.8
				c14-16,33.5-27,54.5-30.7c2.6-0.4,5.3-1,7.9-1.1l8-0.5l16.6-0.1l33.3-0.3l66.6-0.5l66.6-0.5l66.6-0.8l66.6-0.8l33.3-0.5
				c5.5-0.1,11.1-0.3,16.6-0.1c5.1,0.2,10.2,0.9,15.1,1.9c-0.2,0-0.5,0-0.7,0.1c-2.2,0.1-4.4,0.4-6.5,1c-3.1,0.8-6,2.3-8.8,3.9
				c-5.5,3.4-10.2,7.9-14.3,12.9c-8.1,10-13.8,21.7-18.2,33.7c-8.6,23.7-12,49-12.2,74.1c-0.1,0-0.1,0-0.2,0c-2.5,0.2-5,0.5-7.3,0.9
				c-3.3,0.6-6.5,1.3-9.7,2.2C484.1,325.1,481,326.2,477.9,327.4z"/>
			<linearGradient id="SVGID_14_" gradientUnits="userSpaceOnUse" x1="397.7729" y1="334.1468" x2="461.2873" y2="334.1468">
				<stop  offset="0" style="stop-color:#C7EDF2"/>
				<stop  offset="0.9987" style="stop-color:#C4DEEF"/>
			</linearGradient>
			<path class="st14" d="M461.3,334c0,0.1,0,0.2,0,0.3c0,0.6,0,1.1-0.1,1.7c-0.5,8.6-4.6,16.8-10.9,22.3c-3.4,2.9-7.4,5.1-11.5,6.4
				c-4.2,1.3-8.5,1.6-12.7,1.2c-8.4-0.9-15.8-5.1-20.8-11.1c-5-5.9-7.7-13.4-7.6-20.9c0-7.5,2.8-14.9,7.9-20.8
				c5.1-5.9,12.5-10,20.9-10.8c4.2-0.4,8.5,0,12.6,1.3c4.1,1.3,8.1,3.5,11.4,6.5c6.2,5.5,10.2,13.6,10.7,22
				C461.3,332.8,461.3,333.4,461.3,334z"/>
			<linearGradient id="SVGID_15_" gradientUnits="userSpaceOnUse" x1="419.2623" y1="111.1364" x2="432.4012" y2="111.1364">
				<stop  offset="0" style="stop-color:#00BDCD"/>
				<stop  offset="0.9987" style="stop-color:#0085C7"/>
			</linearGradient>
			<path class="st15" d="M432.4,110.5c0,0.4,0.1,0.9,0.1,1.3c0,2.3-0.6,4.6-1.8,6.5c-0.7,1.1-1.7,2-2.7,2.6c-1,0.6-2.1,0.8-3.1,0.6
				c-1.9-0.4-3.1-1.9-4-3.7c-0.9-1.8-1.3-3.9-1.5-6c-0.2-2.1-0.1-4.2,0.5-6.2c0.5-2,1.5-3.7,3.2-4.4c0.9-0.3,2-0.4,3.1,0.1
				c1.1,0.4,2.2,1.1,3.1,2.1c1.6,1.7,2.6,3.9,3,6.2C432.3,109.8,432.3,110.1,432.4,110.5z"/>
			<linearGradient id="SVGID_16_" gradientUnits="userSpaceOnUse" x1="420.8163" y1="334.1454" x2="468.5278" y2="334.1454">
				<stop  offset="0" style="stop-color:#00BDCD"/>
				<stop  offset="0.9987" style="stop-color:#0085C7"/>
			</linearGradient>
			<path class="st16" d="M468.5,334c0,0.1,0,0.2,0,0.3c0,11.1-5,22-13.1,29.1c-4,3.6-8.8,6.2-13.8,7.9c-5,1.7-10.3,2.2-15.4,1.7
				c-1.8-0.2-3.6-0.5-5.3-0.9c1.8,0.1,3.6,0.2,5.3,0c10-0.8,19.2-5.6,25.4-12.6c5.9-6.6,9.3-15,9.7-23.6c0-0.6,0.1-1.1,0.1-1.7
				c0-0.1,0-0.2,0-0.3c0-0.6,0-1.2-0.1-1.8c-0.4-8.4-3.7-16.7-9.4-23.2c-6.1-7.1-15.2-12-25.2-13c-1.6-0.2-3.3-0.2-4.9-0.1
				c1.6-0.3,3.3-0.6,4.9-0.7c5.1-0.4,10.4,0.2,15.4,1.9c5,1.7,9.8,4.4,13.8,8.1c7.4,6.7,12.1,16.4,12.7,26.6c0,0,0,0,0,0.1
				C468.5,332.5,468.5,333.3,468.5,334z"/>
			<linearGradient id="SVGID_17_" gradientUnits="userSpaceOnUse" x1="352.6534" y1="130.5934" x2="418.4028" y2="130.5934">
				<stop  offset="0" style="stop-color:#00BDCD"/>
				<stop  offset="0.9987" style="stop-color:#0085C7"/>
			</linearGradient>
			<path class="st17" d="M413.7,103c-1.6,2.9-2.2,6.2-1.9,9.3c0.3,3.3,1.5,6.5,3.8,9.1c0.8,0.9,1.8,1.7,2.8,2.3
				c-2.4,0.3-4.8,0.7-7.2,1.1c-4.5,0.8-9.1,1.8-13.5,2.9c-4.5,1.2-8.9,2.5-13.3,4.1c-3.5,1.2-6.9,2.5-10.2,4.1l-1.3-3.4
				c-0.5-1.4-1.1-2.7-0.8-4.4c-0.9,0.3-1.5,1.1-2,1.9c-0.5,0.8-0.7,1.7-1,2.6c-0.4,1.7-0.6,3.5-0.6,5.2c0,3.4,0.6,6.6,1.5,9.7
				c0.9,3.1,2.1,6.1,3.7,8.9c0.3,0.6,0.7,1.2,1.1,1.9c-7.4-0.2-14.8-0.3-22.2-0.3c0.9-4.7,1.8-9.3,2.7-14c1.2-6.6,2.3-13.1,3.4-19.7
				c10.6-3.9,21.3-7.8,31.9-11.9c5.4-2.1,10.7-4.3,16.1-6.4C409.1,104.9,411.4,103.9,413.7,103z"/>
			<linearGradient id="SVGID_18_" gradientUnits="userSpaceOnUse" x1="335.2507" y1="129.7169" x2="414.7698" y2="129.7169">
				<stop  offset="0" style="stop-color:#C7EDF2"/>
				<stop  offset="0.9987" style="stop-color:#C4DEEF"/>
			</linearGradient>
			<path class="st18" d="M358.5,112.9c10.7-1.9,21.5-3.8,32.2-6c8-1.7,16.1-3.4,24.1-5.5c-0.1,0.2-0.3,0.3-0.4,0.5
				c-2.7,0.9-5.5,1.7-8.2,2.6c-5.5,1.9-11,3.7-16.4,5.7c-10.9,3.8-21.7,7.9-32.5,12h0c-0.4,0.2-0.7,0.5-0.8,0.9
				c-1,6.8-1.9,13.7-2.7,20.5c-0.6,4.8-1.2,9.5-1.7,14.3c-0.5,0-1.1,0-1.6,0c-5.1,0-10.1,0.1-15.2,0.2c2.5-8.5,4.7-17,7.2-25.4
				c1.6-5.1,3-10.4,5.2-14.9c0.5-1.1,1.1-2.2,1.6-2.8c0.1-0.1,0.2-0.2,0.2-0.3l0.4-0.1l0.8-0.2C353.1,113.9,355.8,113.4,358.5,112.9
				z"/>
			<linearGradient id="SVGID_19_" gradientUnits="userSpaceOnUse" x1="2.2436" y1="334.0753" x2="701.8544" y2="334.0753">
				<stop  offset="0" style="stop-color:#00BDCD"/>
				<stop  offset="0.9987" style="stop-color:#0085C7"/>
			</linearGradient>
			<path class="st19" d="M379.2,344.8c-0.9-3.6-1.4-7.2-1.3-10.9c0-12.7,5.7-25.3,15-33.6c4.6-4.2,10.1-7.3,15.9-9.3
				c5.8-2,11.9-2.6,17.9-2.2c11.9,0.9,22.9,6.6,30.4,15.1c6.9,7.7,11,17.7,11.5,27.8c-0.6-10.1-5.3-19.9-12.7-26.6
				c-4-3.7-8.8-6.4-13.8-8.1c-5-1.7-10.3-2.3-15.4-1.9c-1.7,0.1-3.3,0.4-4.9,0.7c1.7-0.1,3.3-0.1,4.9,0.1c10,0.9,19.1,5.8,25.2,13
				c5.7,6.5,9,14.8,9.4,23.2c-0.5-8.4-4.5-16.5-10.7-22c-3.3-3-7.3-5.1-11.4-6.5c-4.1-1.3-8.5-1.7-12.6-1.3
				c-8.4,0.8-15.8,5-20.9,10.8c-5.1,5.8-7.9,13.3-7.9,20.8c-0.1,7.5,2.6,15,7.6,20.9c5,5.9,12.4,10.1,20.8,11.1
				c4.2,0.4,8.5,0.1,12.7-1.2c4.1-1.3,8.1-3.4,11.5-6.4c6.4-5.5,10.4-13.7,10.9-22.3c-0.4,8.6-3.8,17-9.7,23.6
				c-6.2,7-15.4,11.8-25.4,12.6c-1.8,0.2-3.6,0.1-5.3,0c1.7,0.4,3.5,0.8,5.3,0.9c5.1,0.4,10.4-0.1,15.4-1.7c5-1.7,9.8-4.3,13.8-7.9
				c8.2-7.2,13.1-18.1,13.1-29.1c0,11.1-4.3,22.1-11.9,30.4c-7.5,8.4-18.6,13.9-30.5,14.7c-5.9,0.4-12-0.4-17.8-2.4
				c-5.8-2.1-11.2-5.2-15.8-9.5c-6.3-5.8-10.8-13.5-13.1-21.9c-0.1,0-0.1,0-0.2,0L379.2,344.8z"/>
			<linearGradient id="SVGID_20_" gradientUnits="userSpaceOnUse" x1="266.6305" y1="186.1043" x2="436.4915" y2="186.1043">
				<stop  offset="0" style="stop-color:#00BDCD"/>
				<stop  offset="0.9987" style="stop-color:#0085C7"/>
			</linearGradient>
			<path class="st20" d="M349.7,183.2c13.1,0,26.2-0.2,39.3-0.5c12.4-0.4,24.8-0.9,37.1-1.8c0.1,0,0.2,0,0.3,0
				c3.7,3,7.1,6.6,10,10.7l-3,0l-66.6-0.8l-66.6-0.5l-33.7-0.2c1.9-3.4,4.2-6.5,6.8-9.1c0.1,0,0.3,0,0.4,0
				c12.2,0.9,24.3,1.4,36.5,1.8C323.4,183,336.5,183.1,349.7,183.2z"/>
			<linearGradient id="SVGID_21_" gradientUnits="userSpaceOnUse" x1="2.6883" y1="128.7134" x2="701.4924" y2="128.7134">
				<stop  offset="0" style="stop-color:#00BDCD"/>
				<stop  offset="0.9987" style="stop-color:#0085C7"/>
			</linearGradient>
			<path class="st21" d="M357.2,105.4c10.9-1.9,21.7-3.3,32.6-4.4c8.3-0.8,16.6-1.5,24.9-1.7l0.1,2.1c-8,2.1-16,3.9-24.1,5.5
				c-10.7,2.2-21.5,4.2-32.2,6c-2.7,0.5-5.4,0.9-7.9,1.4l-0.8,0.2l-0.4,0.1c-0.1,0-0.1,0.2-0.2,0.3c-0.5,0.6-1.1,1.7-1.6,2.8
				c-2.2,4.5-3.6,9.8-5.2,14.9c-2.4,8.4-4.7,16.8-7.2,25.4l-1.6,0.1c0.4-9,1.4-17.9,3-26.8c1-5.5,2.2-10.8,4.4-16.4
				c0.5-1.4,1.2-2.8,2.4-4.4c0.3-0.4,0.6-0.8,1.1-1.2l0.7-0.6c0.4-0.2,0.7-0.4,1.1-0.6l0.6-0.3l0.3-0.1l0.6-0.2l1.2-0.3
				C351.8,106.5,354.4,106,357.2,105.4z"/>
			<linearGradient id="SVGID_22_" gradientUnits="userSpaceOnUse" x1="2.6299" y1="180.6295" x2="701.5362" y2="180.6295">
				<stop  offset="0" style="stop-color:#00BDCD"/>
				<stop  offset="0.9987" style="stop-color:#0085C7"/>
			</linearGradient>
			<path class="st22" d="M349.7,178.1c13.1,0,26.2,0.2,39.3,0.5c12.4,0.4,24.7,0.9,37.1,1.8l0,0.3c-12.4,0.9-24.7,1.5-37.1,1.8
				c-13.1,0.4-26.2,0.5-39.3,0.5c-13.1-0.1-26.2-0.2-39.4-0.6c-12.1-0.4-24.3-0.9-36.5-1.8l0-0.4c12.1-0.9,24.3-1.4,36.5-1.8
				C323.4,178.3,336.5,178.2,349.7,178.1z"/>
			<linearGradient id="SVGID_23_" gradientUnits="userSpaceOnUse" x1="273.8457" y1="174.8613" x2="426.1007" y2="174.8613">
				<stop  offset="0" style="stop-color:#C7EDF2"/>
				<stop  offset="0.9987" style="stop-color:#C4DEEF"/>
			</linearGradient>
			<path class="st23" d="M350.4,170.6c8.3,0,16.5-0.1,24.7-0.3c4.1-0.1,8.2-0.2,12.3-0.4l6.1-0.3l2.8-0.1l2.8,0.2
				c7.3,0.6,14.8,2.8,21.4,6.9c1.9,1.1,3.8,2.5,5.6,3.9c-12.4-0.9-24.7-1.5-37.1-1.8c-13.1-0.4-26.2-0.5-39.3-0.5
				c-13.1,0.1-26.2,0.2-39.4,0.6c-12.1,0.3-24.3,0.9-36.5,1.8c7.6-7.4,17.6-11.5,27.4-11.1h1.3l1.5,0.1l3.1,0.2l6.2,0.3l12.3,0.4
				C334,170.5,342.2,170.6,350.4,170.6z"/>
			<linearGradient id="SVGID_24_" gradientUnits="userSpaceOnUse" x1="2.5847" y1="332.2768" x2="701.6075" y2="332.2768">
				<stop  offset="0" style="stop-color:#00BDCD"/>
				<stop  offset="0.9987" style="stop-color:#0085C7"/>
			</linearGradient>
			<path class="st24" d="M349.2,342.2c9.9,1.1,19.9,1.9,30,2.5l0.1,0.9c-10.1,0.8-20.2,1-30.4,0.5c-12.2-0.6-24.3-2-36.3-4.4
				c-12-2.5-23.9-5.8-35.1-10.9c-10.9-5.2-21.9-9.4-33.6-12.8v-0.1c12,1.3,23.9,4.7,35.1,9.2c11.2,4.2,22.8,7.2,34.6,9.6
				c2.9,0.6,5.9,1.1,8.8,1.7l8.9,1.4C337.2,340.9,343.2,341.5,349.2,342.2z"/>
			<linearGradient id="SVGID_25_" gradientUnits="userSpaceOnUse" x1="2.5593" y1="144.3447" x2="701.5822" y2="144.3447">
				<stop  offset="0" style="stop-color:#00BDCD"/>
				<stop  offset="0.9987" style="stop-color:#0085C7"/>
			</linearGradient>
			<path class="st25" d="M353.7,143.6c0.8-6.9,1.8-13.7,2.7-20.5c0.1-0.5,0.4-0.8,0.8-0.9h0c10.8-4.1,21.6-8.1,32.5-12
				c5.4-2,10.9-3.8,16.4-5.7c2.7-0.9,5.4-1.8,8.2-2.6c0.1-0.2,0.2-0.3,0.4-0.5l-0.1-2.1c0.7-0.1,1.4-0.1,2.2-0.1
				c0.2-0.2,0.4-0.4,0.6-0.5c1.5-1,3.4-1.6,5.2-1.5c1.8,0.1,3.4,0.9,4.6,1.9c1.2,1,2.1,2.2,2.8,3.5c1.2,2.2,1.8,4.5,2.1,6.9
				c-0.4-2.3-1.4-4.6-3-6.2c-0.9-1-2-1.7-3.1-2.1c-1.1-0.4-2.2-0.4-3.1-0.1c-1.8,0.7-2.7,2.4-3.2,4.4c-0.5,1.9-0.6,4.1-0.5,6.2
				c0.2,2.1,0.7,4.2,1.5,6c0.9,1.8,2.1,3.3,4,3.7c0.9,0.2,2.1,0,3.1-0.6c1-0.6,2-1.5,2.7-2.6c1.2-1.9,1.8-4.1,1.8-6.5
				c0.1,2.3-0.1,4.6-0.9,6.9c-0.5,1.3-1.1,2.7-2.1,3.9c-1,1.2-2.5,2.2-4.2,2.7c-1.2,0.3-2.6,0.2-3.9-0.1c-3,1.3-6,2.5-9.1,3.6
				c-4.4,1.5-8.8,2.9-13.3,4c-4.5,1.2-9,2.1-13.5,2.9c-3.6,0.6-7.2,1.1-10.8,1.4c1,2.7,2,5.4,2.8,8.3c0.9,2.9,1.5,5.9,2,9.1
				c0.2,1.3,0.3,2.6,0.4,3.9c2.6,0.1,5.1,0.2,7.7,0.3c2.1,0.1,4,0.2,6.2,0.3l3.4,0.3l3.4,0.6c8.9,1.7,17.2,5.9,23.8,11.8
				c5.9,5.5,10.5,12.3,12.8,19.6l-0.6,0.2c-3-4-6.3-7.6-10-10.7c-0.1,0-0.2,0-0.3,0l0-0.3c-1.8-1.4-3.6-2.7-5.6-3.9
				c-6.6-4.1-14-6.3-21.4-6.9l-2.8-0.2l-2.8,0.1l-6.1,0.3c-4.1,0.2-8.2,0.3-12.3,0.4c-8.2,0.2-16.5,0.3-24.7,0.3
				c-8.2,0-16.5-0.1-24.7-0.3l-12.3-0.4l-6.2-0.3l-3.1-0.2l-1.5-0.1h-1.3c-9.8-0.4-19.8,3.7-27.4,11.1l0,0.4c-0.1,0-0.3,0-0.4,0
				c-2.6,2.7-4.9,5.7-6.8,9.1l-1.1,0c1.4-7.2,5.3-14.1,10.9-19.5c6.4-6.1,15.2-10.3,24.5-11.1l1.8-0.2l1.5-0.1l3.1-0.2l6.2-0.3
				l12.3-0.4c2.6-0.1,5.3-0.1,7.9-0.2l1.6-0.1c5.1-0.1,10.1-0.1,15.2-0.2c0.5,0,1.1,0,1.6,0C352.6,153.1,353.1,148.4,353.7,143.6z
				 M358.8,124.2c-1.1,6.6-2.2,13.2-3.4,19.7c-0.8,4.7-1.8,9.3-2.7,14c7.4,0,14.8,0.1,22.2,0.3c-0.4-0.6-0.8-1.2-1.1-1.9
				c-1.6-2.8-2.8-5.8-3.7-8.9c-0.9-3.1-1.4-6.3-1.5-9.7c0-1.7,0.2-3.4,0.6-5.2c0.3-0.9,0.5-1.8,1-2.6c0.5-0.8,1.1-1.7,2-1.9
				c-0.3,1.7,0.3,3,0.8,4.4l1.3,3.4c3.4-1.6,6.8-2.9,10.2-4.1c4.4-1.5,8.8-2.9,13.3-4.1c4.5-1.2,9-2.1,13.5-2.9
				c2.4-0.4,4.8-0.8,7.2-1.1c-1.1-0.7-2.1-1.4-2.8-2.3c-2.3-2.6-3.5-5.9-3.8-9.1c-0.3-3.2,0.3-6.5,1.9-9.3c-2.3,1-4.6,2-7,2.9
				c-5.4,2.1-10.7,4.3-16.1,6.4C380,116.4,369.4,120.3,358.8,124.2z"/>
			<linearGradient id="SVGID_26_" gradientUnits="userSpaceOnUse" x1="137.8756" y1="497.6032" x2="263.5818" y2="497.6032">
				<stop  offset="0" style="stop-color:#C7EDF2"/>
				<stop  offset="0.9987" style="stop-color:#C4DEEF"/>
			</linearGradient>
			<path class="st26" d="M230.1,463.8c11.2,0.1,22.3,0.3,33.5,0.4c-7.5,8.2-15.6,16-24,23.3c-9,7.9-18.4,15.4-28.3,22.2
				c-10,6.6-20.3,12.8-31.2,17.8c-2.9,1.2-5.8,2.4-8.8,3.5c-7.9,1.3-15.8,1.7-23.4,0.9c-3.3-2.2-6.6-4.2-9.9-6.4
				c1.3-0.5,2.7-0.9,4-1.5l5.3-2.5c6.9-3.6,13.5-7.8,19.3-12.8c5.9-5,11.2-10.4,16.1-16.2c4.8-5.9,9.1-12,12.8-18.7l0.1-0.2
				c0.1-0.2,0.2-0.5,0.2-0.7c-0.2-3.2-0.4-6.5-0.6-9.7C206.8,463.4,218.4,463.6,230.1,463.8z"/>
			<linearGradient id="SVGID_27_" gradientUnits="userSpaceOnUse" x1="176.0854" y1="334.1291" x2="239.6245" y2="334.1291">
				<stop  offset="0" style="stop-color:#C7EDF2"/>
				<stop  offset="0.9987" style="stop-color:#C4DEEF"/>
			</linearGradient>
			<path class="st27" d="M239.6,334.2L239.6,334.2c0,0.6,0,1.1-0.1,1.7c0,0,0,0,0,0c-0.5,8.6-4.5,16.8-10.8,22.3
				c-3.4,3-7.3,5.1-11.5,6.4c-4.1,1.3-8.5,1.7-12.7,1.3c-8.3-0.9-15.8-5-20.8-10.9c-5.1-5.9-7.7-13.3-7.7-20.8
				c0-7.5,2.7-14.9,7.8-20.8c5-5.9,12.5-10,20.8-10.9c4.2-0.4,8.5-0.1,12.7,1.2c4.1,1.3,8.1,3.5,11.5,6.4
				c6.3,5.5,10.3,13.7,10.8,22.3c0,0.6,0.1,1.1,0.1,1.7C239.6,334.1,239.6,334.1,239.6,334.2C239.6,334.1,239.6,334.2,239.6,334.2z"
				/>
			<linearGradient id="SVGID_28_" gradientUnits="userSpaceOnUse" x1="199.3568" y1="334.1242" x2="246.8396" y2="334.1242">
				<stop  offset="0" style="stop-color:#C7EDF2"/>
				<stop  offset="0.9987" style="stop-color:#C4DEEF"/>
			</linearGradient>
			<path class="st28" d="M239.6,332.3c-0.4-8.6-3.7-16.9-9.6-23.5c-6.1-7.1-15.3-11.9-25.3-12.8c-1.6-0.1-3.3-0.1-4.9-0.1
				c1.6-0.3,3.3-0.6,4.9-0.8c5.1-0.4,10.4,0.1,15.4,1.8c5,1.7,9.8,4.4,13.8,8c7.5,6.7,12.3,16.6,12.9,26.9c0,0.4,0,0.7,0,1.1
				c0,0.3,0,0.7,0,1c0,0.1,0,0.1,0,0.2s0,0.1,0,0.2v0c0,0.7,0,1.3-0.1,2v0c-0.6,10.3-5.4,20.2-12.9,26.9c-4,3.6-8.8,6.3-13.8,8
				c-5,1.7-10.3,2.2-15.4,1.8c-1.8-0.2-3.6-0.5-5.3-0.9c1.8,0.1,3.6,0.1,5.3-0.1c10-0.9,19.2-5.7,25.3-12.8c5.8-6.6,9.2-15,9.6-23.5
				c0,0,0,0,0,0c0-0.6,0.1-1.1,0.1-1.7v0c0,0,0-0.1,0-0.1c0,0,0-0.1,0-0.1C239.6,333.5,239.6,332.9,239.6,332.3z"/>
			<linearGradient id="SVGID_29_" gradientUnits="userSpaceOnUse" x1="2.6261" y1="334.0912" x2="701.4578" y2="334.0912">
				<stop  offset="0" style="stop-color:#00BDCD"/>
				<stop  offset="0.9987" style="stop-color:#0085C7"/>
			</linearGradient>
			<path class="st29" d="M239.6,335.9c-0.4,8.5-3.7,16.9-9.6,23.5c-6.2,7.1-15.3,11.9-25.3,12.8c-1.8,0.2-3.5,0.1-5.3,0.1
				c1.7,0.4,3.5,0.7,5.3,0.9c5.1,0.4,10.4-0.1,15.4-1.8c5-1.7,9.8-4.4,13.8-8c7.5-6.7,12.3-16.7,12.9-26.9
				c-0.5,10.3-4.6,20.3-11.7,28.1c-7.5,8.4-18.5,14-30.4,14.9c-5.9,0.4-12-0.3-17.8-2.3c-5.8-2-11.3-5.2-15.9-9.4
				c-9.3-8.4-14.9-21-14.8-33.7c0-3.6,0.5-7.2,1.3-10.7l-0.3-1.9c0.3-0.1,0.6-0.1,0.9-0.2c2.3-8,6.8-15.4,13-21
				c4.6-4.2,10.1-7.3,15.9-9.4c5.8-2,11.9-2.7,17.8-2.3c11.9,0.9,22.9,6.5,30.4,14.9c3.9,4.2,6.8,9.1,8.8,14.4h0v0.1
				c1.7,4.4,2.6,9,2.9,13.7c-0.6-10.3-5.4-20.2-12.9-26.9c-4-3.6-8.8-6.3-13.8-8c-5-1.7-10.3-2.2-15.4-1.8c-1.7,0.1-3.3,0.4-4.9,0.8
				c1.7-0.1,3.3-0.1,4.9,0.1c10,0.9,19.2,5.7,25.3,12.8c5.8,6.6,9.2,15,9.6,23.5c-0.5-8.6-4.5-16.8-10.8-22.3
				c-3.4-3-7.3-5.1-11.5-6.4c-4.1-1.3-8.5-1.7-12.7-1.2c-8.3,0.9-15.8,5-20.8,10.9c-5.1,5.9-7.8,13.3-7.8,20.8
				c0,7.5,2.7,14.9,7.7,20.8c5,5.9,12.5,10.1,20.8,10.9c4.2,0.4,8.5,0.1,12.7-1.3c4.1-1.3,8.1-3.5,11.5-6.4
				C235.1,352.7,239.1,344.5,239.6,335.9z"/>
			<linearGradient id="SVGID_30_" gradientUnits="userSpaceOnUse" x1="179.5914" y1="491.5417" x2="295.0847" y2="491.5417">
				<stop  offset="0" style="stop-color:#00BDCD"/>
				<stop  offset="0.9987" style="stop-color:#0085C7"/>
			</linearGradient>
			<path class="st30" d="M241.8,501.8c-6,3.5-12.1,6.8-18.2,10c-12.3,6.2-24.9,11.8-37.9,15.6c-2,0.6-4,1.1-6,1.6
				c0.3-0.1,0.7-0.3,1-0.4c11.1-4.8,21.8-10.6,31.9-17.3c10.1-6.7,19.6-14.2,28.8-22.1c9-8,17.7-16.5,25.7-25.6
				c0.2-0.2,0.3-0.4,0.3-0.7c0-0.6-0.5-1.1-1.1-1.1h0c-12,0-24,0.3-36.1,0.4c-11.7,0.1-23.3,0.4-35,0.7c-0.2-2.8-0.4-5.5-0.6-8.3
				l100.6-0.7c-0.5,4.3-1,8.7-1.5,13c-11.1,8.4-22.5,16.3-34.1,23.8C253.6,494.6,247.8,498.4,241.8,501.8z"/>
			<linearGradient id="SVGID_31_" gradientUnits="userSpaceOnUse" x1="2.5727" y1="499.3923" x2="701.5646" y2="499.3923">
				<stop  offset="0" style="stop-color:#00BDCD"/>
				<stop  offset="0.9987" style="stop-color:#0085C7"/>
			</linearGradient>
			<path class="st31" d="M263.6,464.1c-11.2,0-22.3-0.2-33.5-0.4c-11.7-0.1-23.3-0.4-35-0.7c0.2,3.2,0.4,6.4,0.6,9.7
				c0,0.3-0.1,0.5-0.2,0.7l-0.1,0.2c-3.7,6.7-8,12.8-12.8,18.7c-4.9,5.8-10.2,11.2-16.1,16.2c-5.8,5-12.4,9.1-19.3,12.8l-5.3,2.5
				c-1.3,0.6-2.7,1-4,1.5c3.3,2.1,6.6,4.2,9.9,6.4c7.7,0.9,15.6,0.5,23.4-0.9c3-1.1,5.9-2.3,8.8-3.5c10.9-5,21.2-11.2,31.2-17.8
				c9.9-6.8,19.3-14.2,28.3-22.2C248,480.1,256.1,472.3,263.6,464.1z M230.1,462.3c12-0.1,24-0.4,36.1-0.4h0c0.6,0,1.1,0.5,1.1,1.1
				c0,0.3-0.1,0.5-0.3,0.7c-8,9.1-16.7,17.6-25.7,25.6c-9.1,7.9-18.7,15.4-28.8,22.1c-10.1,6.7-20.8,12.5-31.9,17.3
				c-0.3,0.2-0.7,0.3-1,0.4c2-0.5,4-1,6-1.6c13-3.8,25.6-9.3,37.9-15.6c6.1-3.2,12.2-6.5,18.2-10c6-3.5,11.9-7.3,17.8-11
				c11.6-7.5,23-15.4,34.1-23.8c0.5-4.3,1-8.7,1.5-13h0.6c0.3,4.6,0.7,9.2,0.9,13.9c0,0.4-0.1,0.7-0.3,0.9l-0.2,0.2
				c-9.9,10.3-20.6,19.7-31.7,28.6c-11.2,8.8-23,17-35.4,24.2c-12.5,7.2-25.6,13.4-39.7,17.8c-14,4.3-29.2,6.7-44.5,4.3l-0.1,0
				c-0.9-0.1-1.8-0.5-2.5-1c-7.2-4.9-14.3-9.8-21.5-14.8l0,0c-2.6-1.8-3.3-5.5-1.5-8.1c0.9-1.3,2.3-2.1,3.8-2.4
				c6.7-1.2,13.4-2.8,19.8-5.7c6.4-2.8,12.6-6.1,18.4-10.3c5.8-4.1,11.4-8.6,16.6-13.7c5.1-4.9,10-10.2,14.3-15.9
				c0.5-5.7,1.1-11.5,1.8-17.2h0.7c0.2,2.8,0.4,5.5,0.6,8.3C206.8,462.7,218.4,462.4,230.1,462.3z"/>
			<linearGradient id="SVGID_32_" gradientUnits="userSpaceOnUse" x1="28.9369" y1="392.9811" x2="90.0625" y2="392.9811">
				<stop  offset="0" style="stop-color:#00BDCD"/>
				<stop  offset="0.9987" style="stop-color:#0085C7"/>
			</linearGradient>
			<path class="st32" d="M86.6,371.4c1,3.9,2.1,7.8,3.5,11.6c-0.1,0.1-0.3,0.1-0.4,0.2h0l-60.7,31.3c0.8-1.7,1.6-3.5,2.4-5.2
				c1.8-4,3.5-8,5.2-12.1c4.5-1.9,8.9-4,13.3-6c4.6-2.2,9.2-4.4,13.8-6.8C71.4,380.4,79.1,376.1,86.6,371.4z"/>
			<linearGradient id="SVGID_33_" gradientUnits="userSpaceOnUse" x1="28.6828" y1="282.226" x2="83.9651" y2="282.226">
				<stop  offset="0" style="stop-color:#C7EDF2"/>
				<stop  offset="0.9987" style="stop-color:#C4DEEF"/>
			</linearGradient>
			<path class="st33" d="M84,291c-0.2,0.8-0.4,1.6-0.7,2.5c-0.6,2.2-0.9,4.3-1.3,6.5c-0.1,0.6-0.2,1.2-0.2,1.8
				c-2.8-1.3-5.6-2.5-8.5-3.7c-4.1-1.7-8.3-3.3-12.4-4.8c-4.2-1.5-8.4-3-12.6-4.4c-3.8-1.3-7.7-2.5-11.6-3.7l-2.2-6.5l-2.9-7.7
				c-0.9-2.4-1.9-4.8-2.9-7.2l0.2-1l54.6,28.1C83.6,290.9,83.8,291,84,291z"/>
			<linearGradient id="SVGID_34_" gradientUnits="userSpaceOnUse" x1="24.9482" y1="341.8018" x2="82.5933" y2="341.8018">
				<stop  offset="0" style="stop-color:#00BDCD"/>
				<stop  offset="0.9987" style="stop-color:#0085C7"/>
			</linearGradient>
			<path class="st34" d="M82.6,351l-57.6,5l0-28.4c0.5,0.8,0.9,1.7,1.3,2.5c2.1,3.8,4.3,7.6,6.6,11.3c0.4,0.6,1,1,1.7,1h0.2
				c4.4,0.2,8.8,0.2,13.2,0.3c4.4-0.1,8.8-0.1,13.2-0.3c4.4-0.1,8.8-0.4,13.2-0.8c2.3-0.2,4.6-0.4,6.9-0.7
				C81.7,344.3,82.1,347.7,82.6,351z"/>
			<linearGradient id="SVGID_35_" gradientUnits="userSpaceOnUse" x1="24.9736" y1="331.4491" x2="81.2468" y2="331.4491">
				<stop  offset="0" style="stop-color:#C7EDF2"/>
				<stop  offset="0.9987" style="stop-color:#C4DEEF"/>
			</linearGradient>
			<path class="st35" d="M81.2,338.8c0,0.2,0,0.3,0.1,0.5c-2.3-0.3-4.5-0.5-6.8-0.6c-4.4-0.4-8.8-0.6-13.2-0.8
				c-4.4-0.2-8.8-0.2-13.2-0.3c-4,0.1-8.1,0.1-12.1,0.2c-2.3-3.2-4.6-6.3-7.1-9.4c-1.3-1.6-2.5-3.2-3.9-4.8v-0.1l55.6,4.8
				C80.7,331.9,80.9,335.3,81.2,338.8z"/>
			<linearGradient id="SVGID_36_" gradientUnits="userSpaceOnUse" x1="24.872" y1="387.3792" x2="86.3279" y2="387.3792">
				<stop  offset="0" style="stop-color:#C7EDF2"/>
				<stop  offset="0.9987" style="stop-color:#C4DEEF"/>
			</linearGradient>
			<path class="st36" d="M24.9,387.5L85,364.7c0.4,1.9,0.8,3.8,1.3,5.7c-8.4,2.9-16.6,6.2-24.7,9.8c-4.7,2-9.3,4.3-14,6.5
				c-4.6,2.2-9.2,4.5-13.8,6.9l-0.2,0.1c-0.4,0.3-0.8,0.7-1,1.2c-1.4,4.5-2.8,9-4.1,13.5c-0.2,0.6-0.3,1.2-0.5,1.8L24.9,387.5z"/>
			<linearGradient id="SVGID_37_" gradientUnits="userSpaceOnUse" x1="24.8974" y1="290.2033" x2="81.6278" y2="290.2033">
				<stop  offset="0" style="stop-color:#00BDCD"/>
				<stop  offset="0.9987" style="stop-color:#0085C7"/>
			</linearGradient>
			<path class="st37" d="M59.5,297.4c4.3,1.2,8.6,2.3,12.9,3.4c3,0.7,6.1,1.4,9.2,2c-0.4,2.7-0.6,5.4-0.8,8.1l-55.9-21.3l2.9-20.1
				c0.2,0.8,0.4,1.6,0.5,2.4l2,8l2.1,7.9c0.2,0.7,0.7,1.3,1.5,1.6l0.1,0c4.2,1.4,8.4,2.9,12.6,4.2C50.9,294.9,55.2,296.2,59.5,297.4
				z"/>
			<linearGradient id="SVGID_38_" gradientUnits="userSpaceOnUse" x1="2.5661" y1="322.0658" x2="701.5804" y2="322.0658">
				<stop  offset="0" style="stop-color:#00BDCD"/>
				<stop  offset="0.9987" style="stop-color:#0085C7"/>
			</linearGradient>
			<path class="st38" d="M60.8,293.2c4.2,1.5,8.3,3.1,12.4,4.8c2.8,1.2,5.7,2.4,8.5,3.7c0.1-0.6,0.1-1.2,0.2-1.8
				c0.4-2.2,0.7-4.3,1.3-6.5c0.2-0.8,0.4-1.7,0.7-2.5c-0.2-0.1-0.4-0.1-0.6-0.2l-54.6-28.1l-0.2,1c1,2.4,2,4.8,2.9,7.2l2.9,7.7
				l2.2,6.5c3.9,1.2,7.7,2.3,11.6,3.7C52.5,290.2,56.7,291.7,60.8,293.2z M61.6,380.2c8.1-3.5,16.3-6.9,24.7-9.8
				c-0.5-1.9-0.9-3.8-1.3-5.7l-60.1,22.9l3.3,22.5c0.2-0.6,0.3-1.2,0.5-1.8c1.3-4.5,2.7-9,4.1-13.5c0.2-0.5,0.5-0.9,1-1.2l0.2-0.1
				c4.5-2.4,9.1-4.6,13.8-6.9C52.3,384.5,56.9,382.2,61.6,380.2z M81.4,341c-2.3,0.3-4.6,0.5-6.9,0.7c-4.4,0.4-8.8,0.6-13.2,0.8
				c-4.4,0.2-8.8,0.2-13.2,0.3c-4.4-0.1-8.8-0.1-13.2-0.3h-0.2c-0.7,0-1.3-0.4-1.7-1c-2.3-3.7-4.5-7.4-6.6-11.3
				c-0.5-0.8-0.9-1.7-1.3-2.5l0,28.4l57.6-5C82.1,347.7,81.7,344.3,81.4,341z M90.1,383.1c-1.4-3.8-2.5-7.7-3.5-11.6
				c-7.5,4.7-15.2,8.9-23,13c-4.5,2.4-9.2,4.6-13.8,6.8c-4.4,2.1-8.8,4.1-13.3,6c-1.6,4.1-3.3,8.1-5.2,12.1
				c-0.8,1.8-1.6,3.5-2.4,5.2l60.7-31.3h0C89.8,383.2,89.9,383.1,90.1,383.1z M74.5,338.6c2.3,0.2,4.5,0.4,6.8,0.6
				c0-0.2-0.1-0.3-0.1-0.5c-0.3-3.4-0.5-6.9-0.6-10.3L25,323.6v0.1c1.3,1.6,2.6,3.2,3.9,4.8c2.4,3.1,4.8,6.2,7.1,9.4
				c4-0.2,8.1-0.2,12.1-0.2c4.4,0.1,8.8,0.1,13.2,0.3C65.6,338,70,338.2,74.5,338.6z M81.6,302.8c-3.1-0.6-6.2-1.3-9.2-2
				c-4.3-1-8.6-2.2-12.9-3.4c-4.3-1.2-8.5-2.5-12.8-3.8c-4.2-1.3-8.4-2.8-12.6-4.2l-0.1,0c-0.7-0.3-1.3-0.9-1.5-1.6l-2.1-7.9l-2-8
				c-0.2-0.8-0.4-1.6-0.5-2.4l-2.9,20.1l55.9,21.3C81,308.2,81.3,305.5,81.6,302.8z M550,193.1c5.1,0.4,10,1.2,15.1,2.4v0.1
				c-5-1-10.1-1.7-15.1-1.9c-5.5-0.3-11.1,0-16.6,0.1l-33.3,0.5l-66.6,0.8l-66.6,0.8l-66.6,0.5l-66.6,0.5l-33.3,0.3l-16.6,0.1
				l-8,0.5c-2.7,0.1-5.3,0.7-7.9,1.1c-21,3.7-40.5,14.7-54.5,30.7c-14,16-22.3,36.6-23.3,57.8c-0.1,2.2-1.7,3.9-3.8,4.3
				c1.6,7.1,3.2,14.1,4.3,21.2c1.4,8.4,2.5,16.8,3.2,25.3c0.3,3.7,0.5,7.4,0.7,11.1c2.8-2,5.7-4,8.7-5.8c6.2-3.9,12.7-7.3,19.4-10.4
				c6.7-3,13.5-5.7,20.6-7.7c4.6-1.3,9.2-2.5,14-3.3l0.3,1.9l-13,5.2c-1.7,0.7-3.3,1.4-5,2.1l-5,2.2c-3.3,1.4-6.6,2.8-9.9,4.4
				c-6.6,2.9-13.1,6.1-19.6,9.2c-3.5,1.7-7,3.4-10.4,5.1c0.1,3.9,0.2,7.8,0.1,11.7c-0.1,6.6-0.4,13.2-1.3,19.9
				c0.9,0.4,1.8,1.1,2.2,2.1c0.1,0.2,0.2,0.3,0.2,0.5c7,18.7,20.1,35,36.9,46c8.4,5.5,17.6,9.7,27.3,12.3c4.8,1.3,9.8,2.2,14.8,2.7
				c5,0.5,10,0.6,15.3,0.6l125.5,0.9c41.8,0.2,83.6,0.7,125.5,1.2l38.9,0.5l0,2.4l-38.8,0.5c-41.8,0.5-83.7,1-125.5,1.2l-20,0.2
				h-0.6l-100.6,0.7h-0.7l-3.7,0c-5.1,0.1-10.6,0.1-16-0.4c-5.4-0.5-10.8-1.4-16.1-2.7c-10.6-2.6-20.7-7-29.9-12.9
				c-17-10.8-30.6-26.8-38.7-45.2l-62.2,32.6c-2.3,1.2-5.2,0.3-6.4-2c-0.2-0.5-0.4-1-0.5-1.5v-0.1l-5.7-37.5c-0.4-2.3,1-4.4,3-5.3h0
				l44.6-17.1l-41.9,3.8c-2.8,0.3-5.2-1.8-5.5-4.6c0-0.2,0-0.3,0-0.5l0-43.4c0-2.8,2.3-5.1,5.1-5.1c0.2,0,0.3,0,0.5,0l50,4.5
				l-52.6-20.1l0,0c-2.2-0.8-3.4-3.1-3.1-5.3l5.6-37.5v0c0.4-2.6,2.8-4.4,5.5-4c0.5,0.1,1.1,0.3,1.5,0.5l54.3,28.5
				c2.6-20.7,11.5-40.6,25.4-56.1c15.3-17.4,36.9-28.9,59.7-32.6c2.8-0.3,5.7-0.9,8.6-1l8.6-0.4l16.6,0.1l33.3,0.2l31.7,0.2l1.1,0
				l33.7,0.2l66.6,0.5l66.6,0.8l3,0l0.6-0.2c0,0.1,0.1,0.2,0.1,0.2l62.9,0.7l33.3,0.5C538.9,192.8,544.4,192.7,550,193.1z"/>
		</g>
		<g>
		</g>
	</g>
</g>
<g id="Guides" class="st39">
</g>
<g id="Layer_2">
</g>
</svg>
