<?xml version="1.0" encoding="utf-8"?>
<!-- Generator: Adobe Illustrator 22.0.1, SVG Export Plug-In . SVG Version: 6.00 Build 0)  -->
<svg version="1.1" xmlns="http://www.w3.org/2000/svg" xmlns:xlink="http://www.w3.org/1999/xlink" x="0px" y="0px"
	 viewBox="0 0 700 700" style="enable-background:new 0 0 700 700;" xml:space="preserve">
<style type="text/css">
	.st0{fill:#FFFFFF;stroke:url(#SVGID_1_);stroke-width:10.147;stroke-miterlimit:10;}
	.st1{fill:url(#SVGID_2_);}
	.st2{fill:url(#SVGID_3_);}
	.st3{fill:url(#SVGID_4_);}
	.st4{fill:url(#SVGID_5_);}
	.st5{fill:url(#SVGID_6_);}
	.st6{fill:url(#SVGID_7_);}
	.st7{fill:#909090;}
	.st8{fill:#AFAFAF;}
	.st9{fill:#FFFFFF;}
	.st10{fill:url(#SVGID_8_);}
	.st11{fill:url(#SVGID_9_);}
	.st12{fill:url(#SVGID_10_);}
	.st13{fill:url(#SVGID_11_);}
	.st14{fill:url(#SVGID_12_);}
	.st15{fill:url(#SVGID_13_);}
	.st16{fill:url(#SVGID_14_);}
	.st17{fill:url(#SVGID_15_);}
	.st18{fill:url(#SVGID_16_);}
	.st19{fill:url(#SVGID_17_);}
	.st20{fill:url(#SVGID_18_);}
	.st21{fill:url(#SVGID_19_);}
	.st22{fill:url(#SVGID_20_);}
	.st23{display:none;}
</style>
<g id="Icons">
	<g>
		<g>
			<g>
				<linearGradient id="SVGID_1_" gradientUnits="userSpaceOnUse" x1="123.0536" y1="359.0992" x2="638.8589" y2="359.0992">
					<stop  offset="0" style="stop-color:#00BDCD"/>
					<stop  offset="0.9987" style="stop-color:#0085C7"/>
				</linearGradient>
				<path class="st0" d="M561.1,431.8H200.8c-40.2,0-72.7-32.6-72.7-72.7v0c0-40.2,32.6-72.7,72.7-72.7h360.2
					c40.2,0,72.7,32.6,72.7,72.7v0C633.8,399.3,601.2,431.8,561.1,431.8z"/>
			</g>
			<g>
				<linearGradient id="SVGID_2_" gradientUnits="userSpaceOnUse" x1="238.1393" y1="321.3688" x2="238.1393" y2="436.4855">
					<stop  offset="0" style="stop-color:#00BDCD"/>
					<stop  offset="0.9987" style="stop-color:#0085C7"/>
				</linearGradient>
				<path class="st1" d="M254.8,348.5c-1.8-1.1-3.6-2-5.5-2.8c-1.6-0.7-3.4-1.4-5.3-2c-2-0.6-3.9-0.9-5.8-0.9
					c-1.5,0-2.7,0.2-3.7,0.7c-0.9,0.5-1.4,1.3-1.4,2.4c0,0.8,0.3,1.5,0.8,2c0.5,0.5,1.3,1,2.3,1.5c1,0.4,2.2,0.9,3.7,1.3
					c1.4,0.4,3.1,0.9,4.9,1.5c2.9,0.9,5.5,1.9,7.8,2.9c2.3,1.1,4.3,2.3,5.9,3.7c1.6,1.4,2.9,3.2,3.8,5.2c0.9,2.1,1.3,4.6,1.3,7.5
					c0,3.8-0.7,6.9-2.1,9.5c-1.4,2.6-3.2,4.6-5.5,6.1c-2.3,1.5-4.8,2.6-7.7,3.3c-2.9,0.7-5.7,1-8.6,1c-2.3,0-4.6-0.2-7.1-0.5
					c-2.4-0.4-4.8-0.9-7.2-1.5c-2.4-0.6-4.7-1.4-6.9-2.3c-2.2-0.9-4.2-1.9-6.1-3L220,369c2.1,1.3,4.2,2.4,6.4,3.4
					c1.9,0.9,4,1.7,6.4,2.4c2.4,0.7,4.8,1.1,7.3,1.1c1.9,0,3.2-0.2,3.9-0.7c0.7-0.5,1.1-1.2,1.1-2c0-0.9-0.4-1.6-1.1-2.2
					c-0.7-0.6-1.7-1.2-3-1.6c-1.3-0.5-2.8-0.9-4.5-1.4c-1.7-0.5-3.5-1-5.3-1.7c-2.8-0.9-5.1-2-7.1-3c-2-1.1-3.6-2.3-4.9-3.7
					c-1.3-1.4-2.2-3-2.9-4.7c-0.6-1.8-0.9-3.8-0.9-6.1c0-3.5,0.6-6.5,1.9-9.2c1.3-2.6,3-4.8,5.2-6.6c2.2-1.8,4.7-3.1,7.4-4
					c2.8-0.9,5.7-1.4,8.9-1.4c2.3,0,4.5,0.2,6.7,0.7c2.2,0.4,4.3,1,6.3,1.7c2,0.7,3.9,1.4,5.7,2.2c1.8,0.8,3.3,1.5,4.8,2.2
					L254.8,348.5z"/>
				<linearGradient id="SVGID_3_" gradientUnits="userSpaceOnUse" x1="298.5976" y1="321.3688" x2="298.5976" y2="436.4855">
					<stop  offset="0" style="stop-color:#00BDCD"/>
					<stop  offset="0.9987" style="stop-color:#0085C7"/>
				</linearGradient>
				<path class="st2" d="M298.6,375.9c2,0,3.7-0.4,5.1-1.3c1.4-0.9,2.6-2,3.4-3.5c0.9-1.4,1.5-3.1,1.9-5c0.4-1.9,0.6-3.8,0.6-5.9
					V328h17.2v32.2c0,4.3-0.6,8.4-1.7,12.2c-1.1,3.8-2.9,7.1-5.2,9.8c-2.4,2.8-5.3,4.9-8.9,6.5c-3.6,1.6-7.7,2.4-12.6,2.4
					c-5,0-9.3-0.8-12.8-2.5c-3.6-1.7-6.5-3.9-8.8-6.7c-2.3-2.8-4-6.1-5-9.8c-1.1-3.7-1.6-7.7-1.6-11.9V328h17.2v32.2
					c0,2.1,0.2,4,0.6,5.9c0.4,1.9,1.1,3.6,1.9,5c0.9,1.4,2,2.6,3.4,3.4C294.9,375.4,296.6,375.9,298.6,375.9z"/>
				<linearGradient id="SVGID_4_" gradientUnits="userSpaceOnUse" x1="363.3305" y1="321.3688" x2="363.3305" y2="436.4855">
					<stop  offset="0" style="stop-color:#00BDCD"/>
					<stop  offset="0.9987" style="stop-color:#0085C7"/>
				</linearGradient>
				<path class="st3" d="M389.9,374.5c0,2.8-0.6,5.2-1.8,7.3c-1.2,2-2.8,3.7-4.8,5s-4.5,2.2-7.2,2.9c-2.7,0.6-5.6,0.9-8.7,0.9h-30.8
					V328H373c2.2,0,4.1,0.5,5.9,1.4c1.8,0.9,3.3,2.2,4.5,3.7c1.2,1.5,2.2,3.2,2.9,5.1c0.7,1.9,1,3.9,1,5.9c0,2.9-0.7,5.7-2.2,8.4
					c-1.5,2.7-3.7,4.7-6.7,6c3.6,1.1,6.4,2.9,8.5,5.5C388.9,366.6,389.9,370.1,389.9,374.5z M353.9,342.6v9.6h11.7
					c1.2,0,2.2-0.3,3.2-1s1.5-1.9,1.5-3.9c0-1.7-0.4-2.9-1.2-3.7c-0.8-0.7-1.8-1.1-2.9-1.1H353.9z M372.5,371c0-1.5-0.4-2.8-1.2-3.8
					c-0.8-1-1.9-1.5-3.2-1.5h-14.2v10.5h13.6c1.4,0,2.6-0.4,3.6-1.3C372,373.9,372.5,372.7,372.5,371z"/>
				<linearGradient id="SVGID_5_" gradientUnits="userSpaceOnUse" x1="429.7821" y1="321.3688" x2="429.7821" y2="436.4855">
					<stop  offset="0" style="stop-color:#00BDCD"/>
					<stop  offset="0.9987" style="stop-color:#0085C7"/>
				</linearGradient>
				<path class="st4" d="M444.9,390.6v-33l-10.5,23.2h-9.2l-10.5-23.2v33h-17.2V328h18.8l13.5,29.4l13.6-29.4H462v62.6H444.9z"/>
				<linearGradient id="SVGID_6_" gradientUnits="userSpaceOnUse" x1="481.3806" y1="321.3688" x2="481.3806" y2="436.4855">
					<stop  offset="0" style="stop-color:#00BDCD"/>
					<stop  offset="0.9987" style="stop-color:#0085C7"/>
				</linearGradient>
				<path class="st5" d="M472.8,390.6V328H490v62.6H472.8z"/>
				<linearGradient id="SVGID_7_" gradientUnits="userSpaceOnUse" x1="522.8472" y1="321.3688" x2="522.8472" y2="436.4855">
					<stop  offset="0" style="stop-color:#00BDCD"/>
					<stop  offset="0.9987" style="stop-color:#0085C7"/>
				</linearGradient>
				<path class="st6" d="M549.5,343h-18v47.6h-17.2V343h-18.1v-15h53.2V343z"/>
			</g>
		</g>
		<g>
			
				<image style="overflow:visible;opacity:0.75;" width="134" height="133" xlink:href="2045153F898D30E4.png"  transform="matrix(1 0 0 1 396.1923 350.1923)">
			</image>
			<g>
				<g>
					<g>
						<path class="st7" d="M462.8,369.7c0.7,2.1,1,4.2,1.3,6.2c0.2,2.1,0.4,4.2,0.4,6.2c0,2.1-0.1,4.2-0.4,6.2
							c-0.3,2.1-0.6,4.2-1.3,6.2c-0.7-2.1-1.1-4.2-1.3-6.2c-0.2-2.1-0.4-4.2-0.4-6.2c0-2.1,0.1-4.2,0.4-6.2
							C461.7,373.8,462.1,371.8,462.8,369.7z"/>
					</g>
					<g>
						<path class="st7" d="M431.8,381c1.9,1.1,3.5,2.5,5,3.9c1.5,1.4,2.9,3,4.3,4.5c1.3,1.6,2.6,3.3,3.7,5c1.1,1.8,2.2,3.6,3,5.6
							c-1.9-1.1-3.5-2.5-5-3.9c-1.5-1.4-2.9-3-4.3-4.5c-1.3-1.6-2.6-3.3-3.7-5C433.7,384.8,432.6,383,431.8,381z"/>
					</g>
					<g>
						<path class="st7" d="M415.3,409.5c2.2-0.3,4.3-0.3,6.4-0.2c2.1,0.1,4.2,0.4,6.2,0.7c2,0.4,4.1,0.8,6.1,1.4
							c2,0.6,4,1.3,5.9,2.4c-2.2,0.3-4.3,0.3-6.4,0.2c-2.1-0.1-4.2-0.4-6.2-0.7c-2-0.4-4.1-0.8-6.1-1.4
							C419.2,411.3,417.3,410.6,415.3,409.5z"/>
					</g>
					<g>
						<path class="st7" d="M421.1,442c1.5-1.6,3.1-3,4.7-4.2c1.7-1.2,3.4-2.4,5.2-3.4c1.8-1,3.7-2,5.6-2.8c1.9-0.8,3.9-1.5,6.1-2
							c-1.5,1.6-3.1,3-4.7,4.2c-1.7,1.2-3.4,2.4-5.2,3.4c-1.8,1-3.7,2-5.6,2.8C425.2,440.8,423.2,441.5,421.1,442z"/>
					</g>
					<g>
						<path class="st7" d="M446.3,463.2c0.1-2.2,0.4-4.3,0.9-6.3c0.5-2,1.1-4,1.8-6c0.7-2,1.5-3.9,2.5-5.7c1-1.9,2-3.7,3.4-5.4
							c-0.1,2.2-0.4,4.3-0.9,6.3c-0.5,2-1.1,4-1.8,6c-0.7,2-1.5,3.9-2.5,5.7C448.7,459.6,447.7,461.5,446.3,463.2z"/>
					</g>
					<g>
						<path class="st7" d="M479.3,463.2c-1.4-1.7-2.4-3.5-3.4-5.4c-0.9-1.9-1.8-3.8-2.5-5.7c-0.7-2-1.3-3.9-1.8-6
							c-0.5-2-0.8-4.1-0.9-6.3c1.4,1.7,2.4,3.5,3.4,5.4c0.9,1.9,1.8,3.8,2.5,5.7c0.7,2,1.3,3.9,1.8,6
							C478.8,458.9,479.2,461,479.3,463.2z"/>
					</g>
					<g>
						<path class="st7" d="M504.5,442c-2.1-0.4-4.1-1.2-6-2c-1.9-0.8-3.8-1.8-5.6-2.8c-1.8-1-3.5-2.2-5.2-3.4
							c-1.7-1.3-3.3-2.6-4.7-4.2c2.1,0.4,4.1,1.2,6.1,2c1.9,0.8,3.8,1.8,5.6,2.8c1.8,1,3.5,2.2,5.2,3.4
							C501.5,439,503.1,440.4,504.5,442z"/>
					</g>
					<g>
						<path class="st7" d="M510.3,409.5c-1.9,1-3.9,1.8-5.9,2.4c-2,0.6-4,1.1-6.1,1.4c-2,0.4-4.1,0.6-6.2,0.7
							c-2.1,0.1-4.2,0.1-6.4-0.2c1.9-1,3.9-1.8,5.9-2.4c2-0.6,4-1.1,6.1-1.4c2-0.4,4.1-0.6,6.2-0.7
							C506,409.2,508.1,409.2,510.3,409.5z"/>
					</g>
					<g>
						<path class="st7" d="M493.8,381c-0.8,2-1.9,3.9-3,5.6c-1.1,1.7-2.4,3.4-3.7,5c-1.3,1.6-2.8,3.1-4.3,4.5
							c-1.5,1.4-3.1,2.8-5,3.9c0.8-2,1.9-3.9,3-5.6c1.1-1.7,2.4-3.4,3.7-5c1.3-1.6,2.8-3.1,4.3-4.5
							C490.3,383.5,491.9,382.1,493.8,381z"/>
					</g>
				</g>
			</g>
		</g>
		<g>
			
				<image style="overflow:visible;opacity:0.1;" width="188" height="200" xlink:href="2045153F898D30E5.png"  transform="matrix(1 0 0 1 442.6667 386.6667)">
			</image>
			<g>
				<g>
					<g>
						<g>
							<polygon class="st8" points="566,436.1 588.9,483.9 581.9,487.3 559,439.5 560.4,438.8 							"/>
							<polygon class="st8" points="557,431.8 560.4,438.8 559,439.5 553.3,442.2 550.3,435.9 550,435.2 							"/>
							
								<rect x="579.4" y="487.9" transform="matrix(0.9015 -0.4328 0.4328 0.9015 -158.5826 301.6093)" class="st8" width="7.8" height="22.6"/>
							<polygon class="st9" points="559,439.5 581.9,487.3 574.9,490.7 584.7,511.1 577.6,514.4 584.2,528.1 528.7,554.8 
								522.1,541.1 517.2,543.5 510.8,530.1 504.4,533.1 497.7,519.1 491.4,522.1 485,508.8 477.9,512.1 474.6,505.1 467.5,508.5 
								461.1,495.1 473.8,489.1 477.1,496.1 484.2,492.7 487.5,499.7 494.6,496.4 491.2,489.3 487.8,482.3 458.5,421.1 471.1,415.1 
								500.5,476.2 507.5,472.9 495,446.8 509.1,440.1 521.6,466.1 528.6,462.7 519.1,443 533.2,436.3 536.2,442.6 545.7,462.3 
								552.7,458.9 543.3,439.2 550.3,435.9 553.3,442.2 							"/>
							<polygon class="st8" points="550,435.2 550.3,435.9 543.3,439.2 539.9,432.2 546.9,428.8 							"/>
							<polygon class="st8" points="594.5,531.4 594.6,531.8 526.1,564.7 525.9,564.4 531.9,561.5 528.7,554.8 584.2,528.1 
								587.4,534.8 							"/>
							
								<rect x="585.4" y="526.1" transform="matrix(0.9015 -0.4328 0.4328 0.9015 -171.2364 307.2421)" class="st8" width="7.8" height="7.4"/>
							
								<rect x="580.5" y="512" transform="matrix(0.9015 -0.4328 0.4328 0.9015 -167.307 304.1203)" class="st8" width="7.8" height="15.2"/>
							
								<rect x="540.6" y="439.9" transform="matrix(0.9015 -0.4328 0.4328 0.9015 -141.4562 280.046)" class="st8" width="7.8" height="21.8"/>
							<polygon class="st8" points="539.9,432.2 543.3,439.2 536.2,442.6 533.2,436.3 532.9,435.6 							"/>
							<polygon class="st8" points="532.9,435.6 533.2,436.3 519.1,443 515.8,436 529.8,429.3 							"/>
							<polygon class="st8" points="519.1,443 528.6,462.7 521.6,466.1 509.1,440.1 508.7,439.4 515.8,436 							"/>
							<polygon class="st8" points="508.7,439.4 509.1,440.1 495,446.8 491.6,439.8 505.7,433.1 							"/>
							<polygon class="st8" points="495,446.8 507.5,472.9 500.5,476.2 471.1,415.1 470.8,414.4 477.8,411 491.6,439.8 							"/>
							<polygon class="st8" points="470.8,414.4 471.1,415.1 458.5,421.1 458.1,420.4 456.7,421.1 453.7,414.8 467.7,408 							"/>
							
								<rect x="524" y="555.9" transform="matrix(0.9015 -0.4328 0.4328 0.9015 -190.2363 283.3272)" class="st8" width="6.6" height="7.4"/>
							<polygon class="st8" points="522.1,541.1 528.7,554.8 522.7,557.7 525.9,564.4 524.9,564.9 515.4,545.2 517.5,544.2 
								517.2,543.5 							"/>
							
								<rect x="515.1" y="543.9" transform="matrix(0.9015 -0.4328 0.4328 0.9015 -184.7153 277.0622)" class="st8" width="2.3" height="0.8"/>
							<polygon class="st8" points="510.8,530.1 517.2,543.5 515.1,544.5 515.4,545.2 510.5,547.5 503.7,533.5 504.4,533.1 							
								"/>
							
								<rect x="482.1" y="483.6" transform="matrix(0.9015 -0.4328 0.4328 0.9015 -163.1121 258.3518)" class="st8" width="7.8" height="7.8"/>
							
								<rect x="485.5" y="490.6" transform="matrix(0.9015 -0.4328 0.4328 0.9015 -165.822 260.5048)" class="st8" width="7.8" height="7.8"/>
							<polygon class="st8" points="458.5,421.1 487.8,482.3 480.8,485.7 451.1,423.8 456.7,421.1 457.1,421.8 							"/>
							
								<rect x="456.8" y="420.7" transform="matrix(0.9015 -0.4328 0.4328 0.9015 -137.1844 239.5209)" class="st8" width="1.6" height="0.8"/>
							<polygon class="st8" points="497.7,519.1 504.4,533.1 503.7,533.5 497.4,536.5 491,523.2 491.7,522.8 491.4,522.1 							"/>
							<polygon class="st8" points="480.8,485.7 484.2,492.7 477.1,496.1 473.8,489.1 475.2,488.4 							"/>
							
								<rect x="490.8" y="522.3" transform="matrix(0.9015 -0.4328 0.4328 0.9015 -177.8067 264.0588)" class="st8" width="0.8" height="0.8"/>
							<polygon class="st8" points="485,508.8 491.4,522.1 490.7,522.5 491,523.2 484.7,526.2 478.3,512.8 477.9,512.1 							"/>
							<polygon class="st8" points="471.8,481.3 475.2,488.4 473.8,489.1 461.1,495.1 460.8,494.4 453.7,497.8 450.7,491.5 							
								"/>
							<polygon class="st8" points="477.9,512.1 478.3,512.8 471.2,516.2 467.5,508.5 474.6,505.1 							"/>
							
								<rect x="456.9" y="496.1" transform="matrix(0.9015 -0.4328 0.4328 0.9015 -172.5128 249.023)" class="st8" width="7.8" height="14.8"/>
							
								<rect x="453.5" y="496.1" transform="matrix(0.9015 -0.4328 0.4328 0.9015 -169.8029 246.8701)" class="st8" width="7.8" height="0.8"/>
						</g>
					</g>
				</g>
			</g>
		</g>
		
			<linearGradient id="SVGID_8_" gradientUnits="userSpaceOnUse" x1="1067.8433" y1="1753.6217" x2="1092.8405" y2="1753.6217" gradientTransform="matrix(0.8237 0.567 -0.567 0.8237 271.1723 -1852.6306)">
			<stop  offset="0" style="stop-color:#0184C6"/>
			<stop  offset="0.9987" style="stop-color:#7F82C3"/>
		</linearGradient>
		<path class="st10" d="M164,224l-14.4-9.9c-1.7-1.2-2.1-3.5-1-5.2l15.9-23.1c1.2-1.7,3.5-2.1,5.2-1l14.4,9.9c1.7,1.2,2.1,3.5,1,5.2
			L169.2,223C168,224.7,165.7,225.2,164,224z"/>
		
			<linearGradient id="SVGID_9_" gradientUnits="userSpaceOnUse" x1="903.3531" y1="-2223.239" x2="928.3503" y2="-2223.239" gradientTransform="matrix(0.4217 -0.9068 0.9068 0.4217 1670.3798 2154.8904)">
			<stop  offset="0" style="stop-color:#0184C6"/>
			<stop  offset="0.9987" style="stop-color:#7F82C3"/>
		</linearGradient>
		<path class="st11" d="M60.4,386.5L53,402.4c-0.9,1.9-3.1,2.7-5,1.8l-25.4-11.8c-1.9-0.9-2.7-3.1-1.8-5l7.4-15.9
			c0.9-1.9,3.1-2.7,5-1.8l25.4,11.8C60.5,382.4,61.3,384.7,60.4,386.5z"/>
		
			<linearGradient id="SVGID_10_" gradientUnits="userSpaceOnUse" x1="612.5219" y1="-1401.7095" x2="629.4645" y2="-1401.7095" gradientTransform="matrix(0.766 -0.6428 0.6428 0.766 967.0996 1683.2717)">
			<stop  offset="0" style="stop-color:#00BDCD"/>
			<stop  offset="0.9987" style="stop-color:#0184C6"/>
		</linearGradient>
		<path class="st12" d="M554.4,216.2l-9,7.5c-1.1,0.9-2.7,0.8-3.7-0.3l-12.9-15.3c-0.9-1.1-0.8-2.7,0.3-3.7l9-7.5
			c1.1-0.9,2.7-0.8,3.7,0.3l12.9,15.3C555.7,213.7,555.5,215.3,554.4,216.2z"/>
		
			<linearGradient id="SVGID_11_" gradientUnits="userSpaceOnUse" x1="168.3705" y1="-1390.6857" x2="179.6906" y2="-1390.6857" gradientTransform="matrix(0.766 -0.6428 0.6428 0.766 888.2423 1616.6133)">
			<stop  offset="0" style="stop-color:#00BDCD"/>
			<stop  offset="0.9987" style="stop-color:#0184C6"/>
		</linearGradient>
		<path class="st13" d="M136.1,443.4l-6,5c-0.7,0.6-1.8,0.5-2.4-0.2l-8.6-10.3c-0.6-0.7-0.5-1.8,0.2-2.4l6-5
			c0.7-0.6,1.8-0.5,2.4,0.2l8.6,10.3C136.9,441.6,136.8,442.7,136.1,443.4z"/>
		
			<linearGradient id="SVGID_12_" gradientUnits="userSpaceOnUse" x1="124.0651" y1="-1494.9258" x2="143.0332" y2="-1494.9258" gradientTransform="matrix(0.7975 -0.6034 0.6034 0.7975 822.0627 1559.8516)">
			<stop  offset="0" style="stop-color:#FF6492"/>
			<stop  offset="1" style="stop-color:#FF6962"/>
		</linearGradient>
		<path class="st14" d="M40,293.8l-10.6,8c-1.3,0.9-3,0.7-4-0.6l-12.8-16.9c-0.9-1.3-0.7-3,0.6-4l10.6-8c1.3-0.9,3-0.7,4,0.6
			l12.8,16.9C41.5,291.1,41.3,292.9,40,293.8z"/>
		
			<linearGradient id="SVGID_13_" gradientUnits="userSpaceOnUse" x1="898.613" y1="811.0989" x2="918.1465" y2="811.0989" gradientTransform="matrix(0.9769 0.2135 -0.2135 0.9769 -39.1898 -644.8982)">
			<stop  offset="0" style="stop-color:#FABA4B"/>
			<stop  offset="1" style="stop-color:#FF6962"/>
		</linearGradient>
		<path class="st15" d="M678.8,356.4l-13.4-2.9c-1.6-0.3-2.6-1.9-2.2-3.5l4.7-21.4c0.3-1.6,1.9-2.6,3.5-2.2l13.4,2.9
			c1.6,0.3,2.6,1.9,2.2,3.5l-4.7,21.4C682,355.8,680.4,356.8,678.8,356.4z"/>
		<linearGradient id="SVGID_14_" gradientUnits="userSpaceOnUse" x1="182.3684" y1="225.2933" x2="201.9019" y2="225.2933">
			<stop  offset="0" style="stop-color:#FABA4B"/>
			<stop  offset="1" style="stop-color:#1FBC84"/>
		</linearGradient>
		<path class="st16" d="M199,239.2h-13.7c-1.6,0-2.9-1.3-2.9-2.9v-21.9c0-1.6,1.3-2.9,2.9-2.9H199c1.6,0,2.9,1.3,2.9,2.9v21.9
			C201.9,237.8,200.6,239.2,199,239.2z"/>
		
			<linearGradient id="SVGID_15_" gradientUnits="userSpaceOnUse" x1="1030.9645" y1="1076.0751" x2="1055.3654" y2="1076.0751" gradientTransform="matrix(0.9397 0.342 -0.342 0.9397 -11.5678 -1116.8958)">
			<stop  offset="0" style="stop-color:#42BC5C"/>
			<stop  offset="0.9987" style="stop-color:#00BDCD"/>
		</linearGradient>
		<path class="st17" d="M603.8,268.2l-16.5-6c-1.8-0.6-2.7-2.6-2-4.4l7.9-21.8c0.6-1.8,2.6-2.7,4.4-2l16.5,6c1.8,0.6,2.7,2.6,2,4.4
			l-7.9,21.8C607.5,267.9,605.6,268.8,603.8,268.2z"/>
		
			<linearGradient id="SVGID_16_" gradientUnits="userSpaceOnUse" x1="549.064" y1="-1480.6873" x2="566.0067" y2="-1480.6873" gradientTransform="matrix(0.766 -0.6428 0.6428 0.766 967.0996 1683.2717)">
			<stop  offset="0" style="stop-color:#00BDCD"/>
			<stop  offset="0.9987" style="stop-color:#0184C6"/>
		</linearGradient>
		<path class="st18" d="M455,196.5l-9,7.5c-1.1,0.9-2.7,0.8-3.7-0.3l-12.9-15.3c-0.9-1.1-0.8-2.7,0.3-3.7l9-7.5
			c1.1-0.9,2.7-0.8,3.7,0.3l12.9,15.3C456.3,194,456.1,195.6,455,196.5z"/>
		
			<linearGradient id="SVGID_17_" gradientUnits="userSpaceOnUse" x1="362.5338" y1="-1373.7737" x2="381.502" y2="-1373.7737" gradientTransform="matrix(0.7975 -0.6034 0.6034 0.7975 822.0627 1559.8516)">
			<stop  offset="0" style="stop-color:#FF6492"/>
			<stop  offset="1" style="stop-color:#FF6962"/>
		</linearGradient>
		<path class="st19" d="M303.3,246.6l-10.6,8c-1.3,0.9-3,0.7-4-0.6l-12.8-16.9c-0.9-1.3-0.7-3,0.6-4l10.6-8c1.3-0.9,3-0.7,4,0.6
			l12.8,16.9C304.8,243.8,304.5,245.6,303.3,246.6z"/>
		
			<linearGradient id="SVGID_18_" gradientUnits="userSpaceOnUse" x1="634.0599" y1="926.3923" x2="653.5934" y2="926.3923" gradientTransform="matrix(0.9747 0.213 -0.1891 0.8652 -20.2186 -699.9731)">
			<stop  offset="0" style="stop-color:#FABA4B"/>
			<stop  offset="1" style="stop-color:#FF6962"/>
		</linearGradient>
		<path class="st20" d="M436.4,252.2l-13.7-3c-1.5-0.3-2.4-1.8-2.1-3.3l4.1-18.6c0.3-1.5,1.8-2.4,3.3-2.1l13.7,3
			c1.5,0.3,2.4,1.8,2.1,3.3l-4.1,18.6C439.3,251.5,437.9,252.5,436.4,252.2z"/>
		
			<linearGradient id="SVGID_19_" gradientUnits="userSpaceOnUse" x1="1408.5132" y1="1391.6166" x2="1428.0466" y2="1391.6166" gradientTransform="matrix(0.866 0.5 -0.5 0.866 133.8454 -1656.7053)">
			<stop  offset="0" style="stop-color:#FABA4B"/>
			<stop  offset="1" style="stop-color:#1FBC84"/>
		</linearGradient>
		<path class="st21" d="M665.3,273l-11.8-6.8c-1.4-0.8-1.9-2.6-1.1-4l10.9-18.9c0.8-1.4,2.6-1.9,4-1.1l11.8,6.8
			c1.4,0.8,1.9,2.6,1.1,4L669.3,272C668.5,273.4,666.7,273.8,665.3,273z"/>
		
			<linearGradient id="SVGID_20_" gradientUnits="userSpaceOnUse" x1="566.1416" y1="1305.262" x2="590.5425" y2="1305.262" gradientTransform="matrix(0.9397 0.342 -0.342 0.9397 -11.5678 -1116.8958)">
			<stop  offset="0" style="stop-color:#42BC5C"/>
			<stop  offset="0.9987" style="stop-color:#00BDCD"/>
		</linearGradient>
		<path class="st22" d="M88.6,324.5l-16.5-6c-1.8-0.6-2.7-2.6-2-4.4l7.9-21.8c0.6-1.8,2.6-2.7,4.4-2l16.5,6c1.8,0.6,2.7,2.6,2,4.4
			L93,322.5C92.3,324.3,90.4,325.2,88.6,324.5z"/>
	</g>
</g>
<g id="Guides" class="st23">
</g>
<g id="Layer_2">
</g>
</svg>
