<?xml version="1.0" encoding="utf-8"?>
<!-- Generator: Adobe Illustrator 22.0.1, SVG Export Plug-In . SVG Version: 6.00 Build 0)  -->
<svg version="1.1" id="Layer_1" xmlns="http://www.w3.org/2000/svg" xmlns:xlink="http://www.w3.org/1999/xlink" x="0px" y="0px"
	 viewBox="0 0 352.2 228.2" style="enable-background:new 0 0 352.2 228.2;" xml:space="preserve">
<style type="text/css">
	.st0{fill:#42BD5C;}
	.st1{fill:#FFFFFF;}
	.st2{font-family:'Raleway-Black';}
	.st3{font-size:46.9175px;}
	.st4{fill:#919191;}
	.st5{fill:#B1B1B1;}
	.st6{fill:url(#SVGID_1_);}
	.st7{fill:url(#SVGID_2_);}
	.st8{fill:url(#SVGID_3_);}
	.st9{fill:url(#SVGID_4_);}
	.st10{fill:url(#SVGID_5_);}
	.st11{fill:url(#SVGID_6_);}
	.st12{fill:url(#SVGID_7_);}
	.st13{fill:url(#SVGID_8_);}
	.st14{fill:url(#SVGID_9_);}
	.st15{fill:url(#SVGID_10_);}
	.st16{fill:url(#SVGID_11_);}
	.st17{fill:url(#SVGID_12_);}
	.st18{fill:url(#SVGID_13_);}
</style>
<g>
	<g>
		
			<image style="overflow:visible;opacity:0.25;" width="1109" height="430" xlink:href="F3227378D71419FC.png"  transform="matrix(0.24 0 0 0.24 55.0277 74.7287)">
		</image>
		<g>
			<path class="st0" d="M264.8,163H102c-22.9,0-41.4-18.5-41.4-41.4v0c0-22.9,18.5-41.4,41.4-41.4h162.9c22.9,0,41.4,18.5,41.4,41.4
				v0C306.2,144.4,287.7,163,264.8,163z"/>
		</g>
	</g>
	<text transform="matrix(1 0 0 1 93.9565 136.9942)" class="st1 st2 st3">SUBMIT</text>
	<g>
		
			<image style="overflow:visible;opacity:0.75;" width="296" height="292" xlink:href="F3227378D71419FD.png"  transform="matrix(0.24 0 0 0.24 222.0677 103.5287)">
		</image>
		<g>
			<g>
				<g>
					<path class="st4" d="M257.5,113.6c0.4,1.1,0.6,2.2,0.7,3.3c0.1,1.1,0.2,2.2,0.2,3.3c0,1.1-0.1,2.2-0.2,3.3
						c-0.1,1.1-0.3,2.2-0.7,3.3c-0.4-1.1-0.6-2.2-0.7-3.3c-0.1-1.1-0.2-2.2-0.2-3.3c0-1.1,0.1-2.2,0.2-3.3
						C257,115.8,257.2,114.7,257.5,113.6z"/>
				</g>
				<g>
					<path class="st4" d="M241,119.6c1,0.6,1.8,1.3,2.7,2.1c0.8,0.8,1.6,1.6,2.3,2.4c0.7,0.8,1.4,1.7,2,2.7c0.6,0.9,1.2,1.9,1.6,3
						c-1-0.6-1.8-1.3-2.7-2.1c-0.8-0.8-1.6-1.6-2.3-2.4c-0.7-0.8-1.4-1.7-2-2.7C242,121.6,241.5,120.7,241,119.6z"/>
				</g>
				<g>
					<path class="st4" d="M232.3,134.8c1.2-0.2,2.3-0.2,3.4-0.1c1.1,0.1,2.2,0.2,3.3,0.4c1.1,0.2,2.2,0.4,3.2,0.8
						c1.1,0.3,2.1,0.7,3.1,1.3c-1.2,0.2-2.3,0.2-3.4,0.1c-1.1-0.1-2.2-0.2-3.3-0.4c-1.1-0.2-2.2-0.4-3.2-0.8
						C234.4,135.7,233.3,135.3,232.3,134.8z"/>
				</g>
				<g>
					<path class="st4" d="M235.3,152.1c0.8-0.9,1.6-1.6,2.5-2.3c0.9-0.7,1.8-1.3,2.8-1.8c1-0.6,1.9-1.1,3-1.5c1-0.4,2.1-0.8,3.2-1.1
						c-0.8,0.9-1.6,1.6-2.5,2.3c-0.9,0.7-1.8,1.3-2.8,1.8c-1,0.6-1.9,1.1-3,1.5C237.5,151.4,236.5,151.8,235.3,152.1z"/>
				</g>
				<g>
					<path class="st4" d="M248.8,163.3c0-1.2,0.2-2.3,0.5-3.4c0.3-1.1,0.6-2.1,1-3.2c0.4-1,0.8-2.1,1.3-3.1c0.5-1,1.1-2,1.8-2.9
						c0,1.2-0.2,2.3-0.5,3.4c-0.3,1.1-0.6,2.1-1,3.2c-0.4,1-0.8,2.1-1.3,3.1C250,161.4,249.5,162.4,248.8,163.3z"/>
				</g>
				<g>
					<path class="st4" d="M266.3,163.3c-0.7-0.9-1.3-1.9-1.8-2.9c-0.5-1-0.9-2-1.3-3.1c-0.4-1-0.7-2.1-1-3.2
						c-0.2-1.1-0.5-2.2-0.5-3.4c0.7,0.9,1.3,1.9,1.8,2.9c0.5,1,0.9,2,1.3,3.1c0.4,1,0.7,2.1,1,3.2
						C266.1,161.1,266.3,162.2,266.3,163.3z"/>
				</g>
				<g>
					<path class="st4" d="M279.8,152.1c-1.1-0.2-2.2-0.6-3.2-1.1c-1-0.4-2-0.9-3-1.5c-1-0.6-1.9-1.2-2.8-1.8
						c-0.9-0.7-1.8-1.4-2.5-2.3c1.1,0.2,2.2,0.6,3.2,1.1c1,0.4,2,0.9,3,1.5c1,0.6,1.9,1.2,2.8,1.8
						C278.1,150.5,279,151.2,279.8,152.1z"/>
				</g>
				<g>
					<path class="st4" d="M282.8,134.8c-1,0.6-2.1,0.9-3.1,1.3c-1.1,0.3-2.1,0.6-3.2,0.8c-1.1,0.2-2.2,0.3-3.3,0.4
						c-1.1,0.1-2.2,0.1-3.4-0.1c1-0.6,2.1-0.9,3.1-1.3c1.1-0.3,2.1-0.6,3.2-0.8c1.1-0.2,2.2-0.3,3.3-0.4
						C280.5,134.6,281.7,134.6,282.8,134.8z"/>
				</g>
				<g>
					<path class="st4" d="M274,119.6c-0.4,1.1-1,2-1.6,3c-0.6,0.9-1.3,1.8-2,2.7c-0.7,0.8-1.5,1.7-2.3,2.4c-0.8,0.8-1.7,1.5-2.7,2.1
						c0.4-1.1,1-2.1,1.6-3c0.6-0.9,1.3-1.8,2-2.7c0.7-0.8,1.5-1.7,2.3-2.4C272.2,120.9,273,120.2,274,119.6z"/>
				</g>
			</g>
		</g>
	</g>
	<g>
		
			<image style="overflow:visible;opacity:0.1;" width="415" height="444" xlink:href="F3227378D71419FB.png"  transform="matrix(0.24 0 0 0.24 245.4431 123.3041)">
		</image>
		<g>
			<g>
				<g>
					<g>
						<polygon class="st5" points="310.7,149.8 322.9,175.3 319.2,177.1 306.9,151.6 307.7,151.3 						"/>
						<polygon class="st5" points="305.9,147.5 307.7,151.3 306.9,151.6 303.9,153.1 302.3,149.7 302.1,149.3 						"/>
						
							<rect x="317.8" y="177.4" transform="matrix(0.9015 -0.4328 0.4328 0.9015 -47.8616 156.5081)" class="st5" width="4.2" height="12"/>
						<polygon class="st1" points="306.9,151.6 319.2,177.1 315.4,178.9 320.6,189.7 316.9,191.5 320.4,198.8 290.8,213 
							287.3,205.7 284.7,207 281.3,199.9 277.9,201.5 274.3,194 271,195.6 267.5,188.5 263.8,190.3 262,186.6 258.3,188.3 
							254.8,181.2 261.6,178 263.4,181.7 267.1,180 268.9,183.7 272.7,181.9 270.9,178.2 269.1,174.4 253.4,141.9 260.2,138.6 
							275.8,171.2 279.5,169.4 272.9,155.5 280.4,151.9 287,165.8 290.8,164 285.7,153.5 293.2,149.9 294.8,153.3 299.9,163.8 
							303.6,162 298.6,151.5 302.3,149.7 303.9,153.1 						"/>
						<polygon class="st5" points="302.1,149.3 302.3,149.7 298.6,151.5 296.8,147.7 300.5,146 						"/>
						<polygon class="st5" points="325.8,200.6 325.9,200.8 289.4,218.3 289.3,218.1 292.5,216.6 290.8,213 320.4,198.8 
							322.1,202.4 						"/>
						
							<rect x="321" y="197.7" transform="matrix(0.9015 -0.4328 0.4328 0.9015 -54.5979 159.5067)" class="st5" width="4.2" height="3.9"/>
						
							<rect x="318.4" y="190.2" transform="matrix(0.9015 -0.4328 0.4328 0.9015 -52.5061 157.8448)" class="st5" width="4.2" height="8.1"/>
						
							<rect x="297.2" y="151.8" transform="matrix(0.9015 -0.4328 0.4328 0.9015 -38.7443 145.0288)" class="st5" width="4.2" height="11.6"/>
						<polygon class="st5" points="296.8,147.7 298.6,151.5 294.8,153.3 293.2,149.9 293,149.5 						"/>
						<polygon class="st5" points="293,149.5 293.2,149.9 285.7,153.5 283.9,149.8 291.4,146.2 						"/>
						<polygon class="st5" points="285.7,153.5 290.8,164 287,165.8 280.4,151.9 280.2,151.6 283.9,149.8 						"/>
						<polygon class="st5" points="280.2,151.6 280.4,151.9 272.9,155.5 271.1,151.8 278.6,148.2 						"/>
						<polygon class="st5" points="272.9,155.5 279.5,169.4 275.8,171.2 260.2,138.6 260,138.2 263.7,136.4 271.1,151.8 						"/>
						<polygon class="st5" points="260,138.2 260.2,138.6 253.4,141.9 253.3,141.5 252.5,141.8 250.9,138.5 258.4,134.9 						"/>
						
							<rect x="288.3" y="213.6" transform="matrix(0.9015 -0.4328 0.4328 0.9015 -64.7126 146.7756)" class="st5" width="3.5" height="3.9"/>
						<polygon class="st5" points="287.3,205.7 290.8,213 287.6,214.5 289.3,218.1 288.8,218.4 283.8,207.9 284.9,207.3 284.7,207 
													"/>
						
							<rect x="283.6" y="207.2" transform="matrix(0.9015 -0.4328 0.4328 0.9015 -61.7734 143.4404)" class="st5" width="1.2" height="0.4"/>
						<polygon class="st5" points="281.3,199.9 284.7,207 283.6,207.5 283.8,207.9 281.1,209.1 277.5,201.7 277.9,201.5 						"/>
						
							<rect x="266" y="175.1" transform="matrix(0.9015 -0.4328 0.4328 0.9015 -50.2729 133.4799)" class="st5" width="4.2" height="4.2"/>
						
							<rect x="267.8" y="178.8" transform="matrix(0.9015 -0.4328 0.4328 0.9015 -51.7156 134.626)" class="st5" width="4.2" height="4.2"/>
						<polygon class="st5" points="253.4,141.9 269.1,174.4 265.3,176.2 249.5,143.3 252.5,141.8 252.7,142.2 						"/>
						
							<rect x="252.6" y="141.6" transform="matrix(0.9015 -0.4328 0.4328 0.9015 -36.4702 123.4552)" class="st5" width="0.8" height="0.4"/>
						<polygon class="st5" points="274.3,194 277.9,201.5 277.5,201.7 274.2,203.3 270.8,196.2 271.1,196 271,195.6 						"/>
						<polygon class="st5" points="265.3,176.2 267.1,180 263.4,181.7 261.6,178 262.3,177.6 						"/>
						
							<rect x="270.7" y="195.7" transform="matrix(0.9015 -0.4328 0.4328 0.9015 -58.0956 136.518)" class="st5" width="0.4" height="0.4"/>
						<polygon class="st5" points="267.5,188.5 271,195.6 270.6,195.8 270.8,196.2 267.4,197.8 264,190.7 263.8,190.3 						"/>
						<polygon class="st5" points="260.5,173.9 262.3,177.6 261.6,178 254.8,181.2 254.7,180.9 250.9,182.7 249.3,179.3 						"/>
						<polygon class="st5" points="263.8,190.3 264,190.7 260.2,192.5 258.3,188.3 262,186.6 						"/>
						
							<rect x="252.6" y="181.7" transform="matrix(0.9015 -0.4328 0.4328 0.9015 -55.2774 128.5137)" class="st5" width="4.2" height="7.9"/>
						
							<rect x="250.8" y="181.7" transform="matrix(0.9015 -0.4328 0.4328 0.9015 -53.8348 127.3675)" class="st5" width="4.2" height="0.4"/>
					</g>
				</g>
			</g>
		</g>
	</g>
	
		<linearGradient id="SVGID_1_" gradientUnits="userSpaceOnUse" x1="1261.8638" y1="1614.2782" x2="1274.0139" y2="1614.2782" gradientTransform="matrix(0.8237 0.567 -0.567 0.8237 213.7955 -1899.0698)">
		<stop  offset="0" style="stop-color:#0085C7"/>
		<stop  offset="0.9987" style="stop-color:#7F82C3"/>
	</linearGradient>
	<path class="st6" d="M341.6,159.1l-7-4.8c-0.8-0.6-1-1.7-0.5-2.5l7.7-11.2c0.6-0.8,1.7-1,2.5-0.5l7,4.8c0.8,0.6,1,1.7,0.5,2.5
		l-7.7,11.2C343.6,159.4,342.4,159.6,341.6,159.1z"/>
	
		<linearGradient id="SVGID_2_" gradientUnits="userSpaceOnUse" x1="1062.0116" y1="-2458.0234" x2="1074.1617" y2="-2458.0234" gradientTransform="matrix(0.4217 -0.9068 0.9068 0.4217 1801.7125 2129.8035)">
		<stop  offset="0" style="stop-color:#0085C7"/>
		<stop  offset="0.9987" style="stop-color:#7F82C3"/>
	</linearGradient>
	<path class="st7" d="M32.9,124.6l-3.6,7.7c-0.4,0.9-1.5,1.3-2.4,0.9l-12.3-5.7c-0.9-0.4-1.3-1.5-0.9-2.4l3.6-7.7
		c0.4-0.9,1.5-1.3,2.4-0.9l12.3,5.7C32.9,122.6,33.3,123.7,32.9,124.6z"/>
	
		<linearGradient id="SVGID_3_" gradientUnits="userSpaceOnUse" x1="491.2716" y1="-1758.7733" x2="499.5067" y2="-1758.7733" gradientTransform="matrix(0.766 -0.6428 0.6428 0.766 1052.1029 1685.8184)">
		<stop  offset="0" style="stop-color:#00BDCD"/>
		<stop  offset="0.9987" style="stop-color:#0085C7"/>
	</linearGradient>
	<path class="st8" d="M307.2,23l-4.4,3.7c-0.5,0.4-1.3,0.4-1.8-0.2l-6.3-7.5c-0.4-0.5-0.4-1.3,0.2-1.8l4.4-3.7
		c0.5-0.4,1.3-0.4,1.8,0.2l6.3,7.5C307.8,21.7,307.7,22.5,307.2,23z"/>
	
		<linearGradient id="SVGID_4_" gradientUnits="userSpaceOnUse" x1="188.3098" y1="-1711.245" x2="193.8121" y2="-1711.245" gradientTransform="matrix(0.766 -0.6428 0.6428 0.766 973.2456 1619.1599)">
		<stop  offset="0" style="stop-color:#00BDCD"/>
		<stop  offset="0.9987" style="stop-color:#0085C7"/>
	</linearGradient>
	<path class="st9" d="M23.7,187.4l-2.9,2.5c-0.4,0.3-0.9,0.3-1.2-0.1l-4.2-5c-0.3-0.4-0.3-0.9,0.1-1.2l2.9-2.5
		c0.4-0.3,0.9-0.3,1.2,0.1l4.2,5C24.1,186.5,24.1,187.1,23.7,187.4z"/>
	
		<linearGradient id="SVGID_5_" gradientUnits="userSpaceOnUse" x1="195.15" y1="-1745.1191" x2="204.3696" y2="-1745.1191" gradientTransform="matrix(0.7975 -0.6034 0.6034 0.7975 901.0668 1564.2139)">
		<stop  offset="0" style="stop-color:#FF6492"/>
		<stop  offset="1" style="stop-color:#FF6962"/>
	</linearGradient>
	<path class="st10" d="M14,55.3l-5.2,3.9c-0.6,0.5-1.5,0.3-1.9-0.3l-6.2-8.2c-0.5-0.6-0.3-1.5,0.3-1.9l5.2-3.9
		c0.6-0.5,1.5-0.3,1.9,0.3l6.2,8.2C14.7,54,14.6,54.8,14,55.3z"/>
	
		<linearGradient id="SVGID_6_" gradientUnits="userSpaceOnUse" x1="510.1639" y1="626.8089" x2="519.6584" y2="626.8089" gradientTransform="matrix(0.9769 0.2135 -0.2135 0.9769 -62.7865 -657.381)">
		<stop  offset="0" style="stop-color:#FCBC4B"/>
		<stop  offset="1" style="stop-color:#FF6962"/>
	</linearGradient>
	<path class="st11" d="M308.3,72.2l-6.5-1.4c-0.8-0.2-1.3-0.9-1.1-1.7l2.3-10.4c0.2-0.8,0.9-1.3,1.7-1.1l6.5,1.4
		c0.8,0.2,1.3,0.9,1.1,1.7l-2.3,10.4C309.8,71.9,309,72.4,308.3,72.2z"/>
	<linearGradient id="SVGID_7_" gradientUnits="userSpaceOnUse" x1="56.1434" y1="65.1738" x2="65.6379" y2="65.1738">
		<stop  offset="0" style="stop-color:#FCBC4B"/>
		<stop  offset="1" style="stop-color:#1EBE85"/>
	</linearGradient>
	<path class="st12" d="M64.2,71.9h-6.7c-0.8,0-1.4-0.6-1.4-1.4V59.9c0-0.8,0.6-1.4,1.4-1.4h6.7c0.8,0,1.4,0.6,1.4,1.4v10.6
		C65.6,71.3,65,71.9,64.2,71.9z"/>
	
		<linearGradient id="SVGID_8_" gradientUnits="userSpaceOnUse" x1="697.7453" y1="1012.476" x2="709.6057" y2="1012.476" gradientTransform="matrix(0.9397 0.342 -0.342 0.9397 -48.2966 -1139.5941)">
		<stop  offset="0" style="stop-color:#42BD5C"/>
		<stop  offset="0.9987" style="stop-color:#00BDCD"/>
	</linearGradient>
	<path class="st13" d="M268.2,60.8l-8-2.9c-0.9-0.3-1.3-1.3-1-2.1l3.8-10.6c0.3-0.9,1.3-1.3,2.1-1l8,2.9c0.9,0.3,1.3,1.3,1,2.1
		l-3.8,10.6C270,60.7,269,61.1,268.2,60.8z"/>
	
		<linearGradient id="SVGID_9_" gradientUnits="userSpaceOnUse" x1="436.7089" y1="-1805.3108" x2="444.9441" y2="-1805.3108" gradientTransform="matrix(0.766 -0.6428 0.6428 0.766 1052.1029 1685.8184)">
		<stop  offset="0" style="stop-color:#00BDCD"/>
		<stop  offset="0.9987" style="stop-color:#0085C7"/>
	</linearGradient>
	<path class="st14" d="M235.5,22.4l-4.4,3.7c-0.5,0.4-1.3,0.4-1.8-0.2l-6.3-7.5c-0.4-0.5-0.4-1.3,0.2-1.8l4.4-3.7
		c0.5-0.4,1.3-0.4,1.8,0.2l6.3,7.5C236.1,21.1,236,21.9,235.5,22.4z"/>
	
		<linearGradient id="SVGID_10_" gradientUnits="userSpaceOnUse" x1="285.4497" y1="-1676.2562" x2="294.6694" y2="-1676.2562" gradientTransform="matrix(0.7975 -0.6034 0.6034 0.7975 901.0668 1564.2139)">
		<stop  offset="0" style="stop-color:#FF6492"/>
		<stop  offset="1" style="stop-color:#FF6962"/>
	</linearGradient>
	<path class="st15" d="M127.5,55.7l-5.2,3.9c-0.6,0.5-1.5,0.3-1.9-0.3l-6.2-8.2c-0.5-0.6-0.3-1.5,0.3-1.9l5.2-3.9
		c0.6-0.5,1.5-0.3,1.9,0.3l6.2,8.2C128.2,54.4,128.1,55.3,127.5,55.7z"/>
	
		<linearGradient id="SVGID_11_" gradientUnits="userSpaceOnUse" x1="409.1591" y1="797.4495" x2="418.6535" y2="797.4495" gradientTransform="matrix(0.9747 0.213 -0.1891 0.8652 -40.8915 -725.3405)">
		<stop  offset="0" style="stop-color:#FCBC4B"/>
		<stop  offset="1" style="stop-color:#FF6962"/>
	</linearGradient>
	<path class="st16" d="M213.8,59.3l-6.6-1.5c-0.7-0.2-1.2-0.9-1-1.6l2-9c0.2-0.7,0.9-1.2,1.6-1l6.6,1.5c0.7,0.2,1.2,0.9,1,1.6l-2,9
		C215.3,59,214.5,59.5,213.8,59.3z"/>
	
		<linearGradient id="SVGID_12_" gradientUnits="userSpaceOnUse" x1="1053.0802" y1="1379.7864" x2="1062.5747" y2="1379.7864" gradientTransform="matrix(0.866 0.5 -0.5 0.866 82.2587 -1695.1793)">
		<stop  offset="0" style="stop-color:#FCBC4B"/>
		<stop  offset="1" style="stop-color:#1EBE85"/>
	</linearGradient>
	<path class="st17" d="M308,36.2l-5.8-3.3c-0.7-0.4-0.9-1.3-0.5-1.9l5.3-9.2c0.4-0.7,1.3-0.9,1.9-0.5l5.8,3.3
		c0.7,0.4,0.9,1.3,0.5,1.9l-5.3,9.2C309.5,36.3,308.7,36.6,308,36.2z"/>
	
		<linearGradient id="SVGID_13_" gradientUnits="userSpaceOnUse" x1="519.8765" y1="1090.094" x2="531.7368" y2="1090.094" gradientTransform="matrix(0.9397 0.342 -0.342 0.9397 -48.2966 -1139.5941)">
		<stop  offset="0" style="stop-color:#42BD5C"/>
		<stop  offset="0.9987" style="stop-color:#00BDCD"/>
	</linearGradient>
	<path class="st18" d="M74.5,72.9l-8-2.9c-0.9-0.3-1.3-1.3-1-2.1l3.8-10.6c0.3-0.9,1.3-1.3,2.1-1l8,2.9c0.9,0.3,1.3,1.3,1,2.1
		l-3.8,10.6C76.3,72.8,75.4,73.2,74.5,72.9z"/>
</g>
</svg>
