<?xml version="1.0" encoding="utf-8"?>
<!-- Generator: Adobe Illustrator 22.0.1, SVG Export Plug-In . SVG Version: 6.00 Build 0)  -->
<svg version="1.1" xmlns="http://www.w3.org/2000/svg" xmlns:xlink="http://www.w3.org/1999/xlink" x="0px" y="0px"
	 viewBox="0 0 700 700" style="enable-background:new 0 0 700 700;" xml:space="preserve">
<style type="text/css">
	.st0{opacity:0.1;fill:url(#SVGID_1_);enable-background:new    ;}
	.st1{opacity:0.1;fill:url(#SVGID_2_);enable-background:new    ;}
	.st2{fill:#FFFFFF;}
	.st3{fill:url(#SVGID_3_);}
	.st4{fill:url(#SVGID_4_);}
	.st5{fill:url(#SVGID_5_);}
	.st6{fill:url(#SVGID_6_);}
	.st7{fill:url(#SVGID_7_);}
	.st8{fill:url(#SVGID_8_);}
	.st9{fill:url(#SVGID_9_);}
	.st10{fill:url(#SVGID_10_);}
	.st11{fill:url(#SVGID_11_);}
	.st12{fill:url(#SVGID_12_);}
	.st13{fill:url(#SVGID_13_);}
	.st14{fill:url(#SVGID_14_);}
	.st15{fill:url(#SVGID_15_);}
	.st16{fill:#00BDCD;}
	.st17{fill:url(#SVGID_16_);}
	.st18{fill:url(#SVGID_17_);}
	.st19{fill:url(#SVGID_18_);}
	.st20{fill:url(#SVGID_19_);}
	.st21{fill:url(#SVGID_20_);}
	.st22{fill:url(#SVGID_21_);}
	.st23{fill:url(#SVGID_22_);}
	.st24{fill:url(#SVGID_23_);}
	.st25{fill:url(#SVGID_24_);}
	.st26{fill:url(#SVGID_25_);}
	.st27{fill:url(#SVGID_26_);}
	.st28{fill:url(#SVGID_27_);}
	.st29{fill:url(#SVGID_28_);}
	.st30{fill:url(#SVGID_29_);}
	.st31{fill:url(#SVGID_30_);}
	.st32{fill:url(#SVGID_31_);}
	.st33{fill:url(#SVGID_32_);}
	.st34{fill:url(#SVGID_33_);}
	.st35{fill:url(#SVGID_34_);}
	.st36{fill:url(#SVGID_35_);}
	.st37{fill:url(#SVGID_36_);}
	.st38{fill:url(#SVGID_37_);}
	.st39{fill:none;stroke:url(#SVGID_38_);stroke-width:3;stroke-linecap:round;stroke-linejoin:round;}
	.st40{fill:none;stroke:url(#SVGID_39_);stroke-width:3;stroke-linecap:round;stroke-linejoin:round;}
	.st41{fill:none;stroke:url(#SVGID_40_);stroke-width:3;stroke-linecap:round;stroke-linejoin:round;}
	.st42{display:none;}
</style>
<g id="Icons">
	
		<linearGradient id="SVGID_1_" gradientUnits="userSpaceOnUse" x1="392.0154" y1="340.1669" x2="427.9546" y2="340.1669" gradientTransform="matrix(1 0 0 -1 0 702)">
		<stop  offset="0" style="stop-color:#00BDCD"/>
		<stop  offset="0.9987" style="stop-color:#0085C7"/>
	</linearGradient>
	<ellipse class="st0" cx="410" cy="361.8" rx="17.9" ry="4.9"/>
	
		<linearGradient id="SVGID_2_" gradientUnits="userSpaceOnUse" x1="272.5535" y1="340.1669" x2="308.4927" y2="340.1669" gradientTransform="matrix(1 0 0 -1 0 702)">
		<stop  offset="0" style="stop-color:#00BDCD"/>
		<stop  offset="0.9987" style="stop-color:#0085C7"/>
	</linearGradient>
	<ellipse class="st1" cx="290.5" cy="361.8" rx="17.9" ry="4.9"/>
	<g id="XMLID_4_">
		<g>
			<path class="st2" d="M450.8,432.6c-3.9,3.7-8.4,7.1-13.2,9.9c-5,2.9-10.5,5.1-16.3,5.9c-5.7,0.8-11.7-0.2-16.8-3
				c-4.5-2.4-8.3-6.1-11.6-10.2c1-0.3,1.9-0.8,2.8-1.2c2.2-1,4.5-1.9,6.6-2.9l6.4-3.5c2.2-1.1,4.1-2.6,6.1-3.9
				c8-5.5,15.3-12,21.2-19.7c5.9-7.7,10.7-16.2,13.9-25.3c3.1-9.2,4.4-18.8,4.4-28.5c-0.6-18.8-8-37.1-20.2-51.1
				c2.2-1.1,4.2-2.6,5.5-4.5c-2.6,1.8-5.5,2.6-8.4,2.9c-3,0.3-6,0.3-8.9,0c-6-0.5-11.9-1.8-17.6-3.4c-5.8-1.6-11.5-3.5-16.8-6
				c-2.6-1.2-5.2-2.6-7.2-4c-1-0.7-1.9-1.5-2.3-2.1c-0.6-0.8-1.2-1.5-1.8-2.3c-0.7-0.7-1.4-1.4-2.1-2c-3.1-2.5-6.7-4-10.2-4.8
				c-3.5-0.8-7-0.9-10.3-0.8c-6.6,0.3-12.9,1.5-19,3c-1.5,0.4-3.1,0.8-4.6,1.2l-4.2,1c-2.8,0.4-5.6,0.8-8.4,0.3
				c-2.7-0.3-5.4-1.4-7.6-3.1c-2.2-1.8-4-4.3-5.1-7.3c0,1.8,0.5,3.7,1.2,5.5c-17.2,7.6-32.4,20.3-42.5,36.4
				c-10,16.4-14.4,36.5-11.1,55.7c0.6,4.8,2.1,9.5,3.5,14.1l2.7,6.8c1,2.2,2.3,4.3,3.4,6.5c4.8,8.4,10.8,16.2,18,22.7
				c7.2,6.5,15.3,12,24,16.4c2.9,1.4,5.9,2.6,8.9,3.8c-3.2,4.1-7.1,7.8-11.6,10.2c-5.2,2.8-11.1,3.7-16.8,3
				c-5.8-0.8-11.2-3-16.2-5.9c-4.8-2.8-9.3-6.2-13.2-10c-0.3-0.6-0.9-1.1-1.7-1.2h-0.1c-8.6-0.3-17-2.1-24.4-5.9
				c-7.4-3.8-13.3-9.8-17.1-17.1l-1.4-2.8c-0.5-0.9-0.8-1.9-1.2-2.9c-0.8-1.9-1.3-3.9-1.8-5.9c-0.6-2-0.9-4-1.3-6.1
				c-0.2-2-0.4-4.1-0.4-6.1c0-4,0.7-7.9,2.2-11.4c0.8-1.7,1.7-3.4,2.8-4.9c0.6-0.7,1.2-1.4,1.8-2.1c0.3-0.3,0.6-0.6,1-0.9
				c0.3-0.3,0.7-0.6,0.8-0.6c0.2-0.1,0.3-0.2,0.5-0.3c1.7-1.4,1.9-3.8,0.6-5.5l-0.1-0.2c-3.5-4.3-6.4-9.1-7.7-13.9
				c-1.3-4.9-0.7-9.6,1.9-13.7c2.6-4.1,6.8-7.6,11.4-10.4c4.6-2.8,10.1-5,15.1-6.5l0.1,0c2.5-0.7,4-3.3,3.4-5.8
				c-1.5-6.4-2.2-12.9-1.7-19.1c0.6-6.1,2.6-11.7,6.6-15.8c3.9-4.1,9.4-6.8,15.5-8.2c6-1.4,12.6-1.7,18.9-1.2c0.1,0,0.2,0,0.3,0
				c3,0.1,5.6-2.3,5.7-5.3v-0.1c0-0.6-0.1-1.1-0.2-1.6c-0.8-2.7-1.2-5.5-1.2-7.9c0-0.9,0-1.7,0.2-2.5c0.5-3.1,1.8-5.5,4.3-7.3
				c2.4-1.9,5.9-3.1,9.6-3.8c1.8-0.3,3.8-0.6,5.7-0.7c1.9-0.1,4-0.1,5.7,0c1.2,0.1,2.4-0.2,3.5-0.9l0.1,0c4-2.5,8.1-4.9,12.4-6.5
				c4.3-1.7,8.8-2.9,13.3-3.5c4.5-0.6,9-0.5,13.5,0.3c4.4,0.7,8.8,2.1,12.5,4.1l0.1,0.1c2,1.1,4.4,0.8,6.1-0.5
				c1.9-1.2,3.9-2.2,5.9-2.9c2.1-0.8,4.1-1.2,5.7-1.1c1.6,0.1,2.4,0.5,3.4,1.6c0.9,1.1,1.7,3,2.3,5.1l0,0.2c0.8,2.5,3.2,4.3,5.9,4.1
				c1.6-0.1,3.8-0.1,5.6,0c1.9,0.1,3.8,0.3,5.7,0.7c3.7,0.7,7.1,2,9.5,3.8c2.5,1.9,3.8,4.3,4.3,7.3c0.4,3.1,0,6.8-1.1,10.4
				c-0.1,0.5-0.2,0.9-0.2,1.4c0,0,0,0.1,0,0.2v0.1c0,2.3,1.6,4.4,3.9,5.1c0.8,0.2,1.6,0.3,2.4,0.1c6.2-0.5,12.6-0.2,18.5,1.2
				c6,1.4,11.5,4,15.3,8.2c3.9,4.1,5.9,9.7,6.5,15.8c0.5,6.1-0.2,12.6-1.6,19.1c0,0,0,0.1,0,0.1c-0.5,2.6,1.2,5.2,3.9,5.8l0,0
				c1.5,0.3,3.6,0.9,5.3,1.6c1.7,0.7,3.4,1.6,4.9,2.6c3,2,5.3,4.7,6.5,7.9c0.6,1.6,0.9,3.3,1,5c0,1.8-0.1,3.7-0.5,5.5
				c-0.7,3.8-2.3,7.6-4.2,11.3l3.5,6.2c0,0,0.6,0.1,1,0.2c0.4,0.2,0.9,0.3,1.3,0.5c0.9,0.4,1.7,0.9,2.6,1.4c1.7,1.1,3.1,2.8,4.4,4.5
				c2.6,3.6,4.2,8.1,5.2,12.7c0.6,2.3,0.8,4.8,1.2,7.2c0.3,2.4,0.4,4.9,0.5,7.4l0,7.5l-0.3,3.6c-0.1,0.6-0.1,1.2-0.2,1.8l-0.4,1.7
				c-1.7,9.4-8,17.1-16.5,21.7c-8.6,4.6-18.7,6.4-28.8,6.8h-0.1C451.8,431.5,451.1,431.9,450.8,432.6z"/>
			<linearGradient id="SVGID_3_" gradientUnits="userSpaceOnUse" x1="368.0078" y1="614.8282" x2="447.7289" y2="614.8282">
				<stop  offset="0" style="stop-color:#00BDCD"/>
				<stop  offset="0.9987" style="stop-color:#0085C7"/>
			</linearGradient>
			<path class="st3" d="M444.1,613.6c0.1,0.9,0.1,1.8,0.2,2.8c-0.2-1-0.4-2-0.6-3L444.1,613.6z"/>
			<linearGradient id="SVGID_4_" gradientUnits="userSpaceOnUse" x1="300.4888" y1="298.6145" x2="443.0419" y2="298.6145">
				<stop  offset="0" style="stop-color:#00BDCD"/>
				<stop  offset="0.9987" style="stop-color:#0085C7"/>
			</linearGradient>
			<path class="st4" d="M433.3,298.1c0.3,0.3,0.6,0.7,0.9,1c0,0,0,0-0.1,0C433.8,298.8,433.5,298.4,433.3,298.1z"/>
			<path class="st2" d="M416.1,558.9c3.3,0,5.9,2.7,5.9,5.9c0,3.3-2.7,5.9-5.9,5.9s-5.9-2.6-5.9-5.9
				C410.2,561.5,412.8,558.9,416.1,558.9z"/>
			<linearGradient id="SVGID_5_" gradientUnits="userSpaceOnUse" x1="368.0078" y1="534.328" x2="447.7289" y2="534.328">
				<stop  offset="0" style="stop-color:#00BDCD"/>
				<stop  offset="0.9987" style="stop-color:#0085C7"/>
			</linearGradient>
			<path class="st5" d="M429.4,530l-2.4-17.3c-1.6-11-2.9-21.9-4.3-32.9l-12.1-5.2l-13.9-6.2c-9.2-4.2-18.4-8.6-27.3-13.3
				c9.8,2.7,19.4,5.8,29,9.1l14.3,5l14.2,5.2l1.7,0.6l0.3,2c1.6,11.6,3.3,23.1,4.8,34.7l2.2,17.4l2,17.4c1.3,11.6,2.6,23.2,3.6,34.9
				c1,10.7,1.9,21.5,2.5,32.2l-0.4-0.3c-2.2-10.4-4.2-20.9-6-31.5c-2-11.5-3.9-23-5.7-34.6L429.4,530z"/>
			<path class="st2" d="M406,508.1c3.3,0,5.9,2.6,5.9,5.9s-2.6,5.9-5.9,5.9s-5.9-2.6-5.9-5.9S402.7,508.1,406,508.1z"/>
			<linearGradient id="SVGID_6_" gradientUnits="userSpaceOnUse" x1="408.4974" y1="564.7931" x2="423.7299" y2="564.7931">
				<stop  offset="0" style="stop-color:#00BDCD"/>
				<stop  offset="0.9987" style="stop-color:#0085C7"/>
			</linearGradient>
			<path class="st6" d="M423.7,564.8c0,4.2-3.4,7.6-7.6,7.6c-4.2,0-7.6-3.4-7.6-7.6c0-4.2,3.4-7.6,7.6-7.6
				C420.3,557.2,423.7,560.6,423.7,564.8z M410.2,564.8c0,3.3,2.6,5.9,5.9,5.9s5.9-2.6,5.9-5.9c0-3.3-2.7-5.9-5.9-5.9
				S410.2,561.5,410.2,564.8z"/>
			<linearGradient id="SVGID_7_" gradientUnits="userSpaceOnUse" x1="398.6667" y1="556.498" x2="413.0969" y2="556.498">
				<stop  offset="0" style="stop-color:#00BDCD"/>
				<stop  offset="0.9987" style="stop-color:#0085C7"/>
			</linearGradient>
			<path class="st7" d="M401.6,572.3c0.5-5.4,1.2-10.8,2-16.1c0.9-5.4,1.8-10.7,3-16c1.2-5.3,2.5-10.6,4.2-15.8
				c0.1,5.5-0.2,10.9-0.7,16.3c-0.5,5.4-1.2,10.8-2,16.1c-0.9,5.3-1.8,10.7-3,16c-1.2,5.3-2.5,10.6-4.2,15.8
				C400.8,583.1,401.2,577.7,401.6,572.3z"/>
			<linearGradient id="SVGID_8_" gradientUnits="userSpaceOnUse" x1="398.35" y1="514.0103" x2="413.5826" y2="514.0103">
				<stop  offset="0" style="stop-color:#00BDCD"/>
				<stop  offset="0.9987" style="stop-color:#0085C7"/>
			</linearGradient>
			<path class="st8" d="M406,508.1c-3.3,0-5.9,2.6-5.9,5.9s2.7,5.9,5.9,5.9s5.9-2.6,5.9-5.9S409.2,508.1,406,508.1z M413.6,514
				c0,4.2-3.4,7.6-7.6,7.6c-4.2,0-7.6-3.4-7.6-7.6c0-4.2,3.4-7.6,7.6-7.6C410.2,506.4,413.6,509.8,413.6,514z"/>
			<linearGradient id="SVGID_9_" gradientUnits="userSpaceOnUse" x1="11.9907" y1="352.4922" x2="687.0093" y2="352.4922">
				<stop  offset="0" style="stop-color:#C7EDF2"/>
				<stop  offset="0.9987" style="stop-color:#C4DEEF"/>
			</linearGradient>
			<path class="st9" d="M465.1,266.5c-5.5-6.2-13.1-9.8-20.5-11.6c-5-1.3-10.1-1.9-15.1-1.9c0.3-2.6,0.3-5.2,0-8
				c-0.4-2.7-1.3-5.5-2.8-8c-1.4-2.6-3.4-4.8-5.6-6.5c-4.4-3.4-9.4-5.1-14.2-6.1c-2.4-0.5-4.8-0.8-7.2-0.9c-1-0.1-1.9-0.1-2.8-0.1
				c-0.8-1.8-1.8-3.6-3.2-5.4c-0.7-0.8-1.5-1.5-2.3-2.2c-0.9-0.6-1.8-1.2-2.8-1.7c-1-0.4-2-0.9-3-1.1c-1-0.2-2-0.5-3-0.5
				c-4-0.3-7.4,0.6-10.5,1.7c-2,0.7-3.8,1.7-5.6,2.6c-4.3-1.9-8.6-3.2-13.2-4c-5.6-0.9-11.3-1-16.8-0.3c-5.5,0.7-11,2.2-16,4.3
				c-4.6,1.7-8.7,4.1-12.8,6.6c-1.9-0.1-3.5,0-5.4,0.1c-2.4,0.2-4.8,0.4-7.2,0.9c-4.8,0.9-9.8,2.6-14.2,6c-2.2,1.7-4.2,3.9-5.7,6.4
				c-1.5,2.6-2.4,5.3-2.8,8.1c-0.4,2.8-0.3,5.4,0,8c-5.1,0.1-10.1,0.7-15.2,1.9c-7.4,1.8-15,5.4-20.6,11.5c-2.8,3-5,6.6-6.4,10.4
				c-1.5,3.8-2.2,7.7-2.6,11.6c-0.4,6.2,0.1,12.1,1.3,17.9c-1.6,0.6-3.1,1.2-4.6,1.9c-2.9,1.3-5.7,2.8-8.4,4.5
				c-5.4,3.4-10.6,7.7-14.2,13.8c-1.8,3-3,6.5-3.4,10.1c-0.4,3.6,0,7.2,1,10.5c1.6,5.2,4.3,9.8,7.3,13.9c-0.8,0.9-1.6,1.8-2.3,2.8
				c-1.5,2.1-2.6,4.3-3.5,6.6c-1.7,4.7-2.4,9.6-2.2,14.4c0,2.4,0.4,4.7,0.7,7c0.5,2.3,0.9,4.6,1.6,6.8c0.7,2.2,1.3,4.4,2.3,6.5
				c0.5,1.1,0.9,2.2,1.4,3.2l1.7,3.1c4.5,8.2,11.8,14.9,20.3,18.8c8.2,3.8,17.1,5.2,25.7,5.2c4.5,3.9,9.3,7.2,14.5,9.9
				c5.5,2.8,11.4,4.8,17.5,5.3c6.1,0.5,12.5-0.9,17.6-4.2c4.6-2.9,8.2-6.8,11.1-11.2c6,2.3,12.2,4.1,18.5,5.4c1.5,0.3,3,0.5,4.5,0.7
				c-0.4,1.9-0.6,3.8-0.6,5.8c0,2.6,0.2,5.3,1.2,7.9v0h-0.1c-9.8,2.7-19.4,5.8-29,9.1l-14.3,5l-14.2,5.2l-1.8,0.6l-0.3,2
				c-1.6,11.6-3.3,23.1-4.8,34.7l-2.2,17.4l-2,17.4c-1.3,11.6-2.6,23.2-3.6,34.9c-0.9,9.5-1.7,18.9-2.3,28.4l-121.2,63.7l39.8-232.3
				L12,276.7l233.2-33.9L349.5,31.5l104.3,211.3L687,276.7L518.3,441.2l39.8,232.3l-114-59.9c-0.6-10.8-1.5-21.5-2.5-32.2
				c-1.1-11.6-2.3-23.2-3.6-34.9l-2-17.4l-2.2-17.4c-1.5-11.6-3.2-23.1-4.8-34.7l-0.3-2l-1.7-0.6l-14.2-5.2l-14.3-5
				c-9.6-3.2-19.2-6.4-29-9.1h-0.4c0.9-2.6,1.1-5.2,1.2-7.9c0-2-0.2-3.9-0.6-5.8c6.6-0.9,13.2-2.5,19.5-4.7l3.5-1.2
				c0.1,0,0.3-0.1,0.4-0.2c2.9,4.3,6.6,8.3,11.1,11.1c5.2,3.3,11.5,4.7,17.6,4.2c6.2-0.5,12.1-2.6,17.5-5.3c5.2-2.7,10-5.9,14.5-9.9
				c10.1-0.1,20.6-1.4,30.2-6c4.9-2.4,9.5-5.7,13.1-10.1c3.6-4.3,6.2-9.5,7.4-15l0.5-2c0.1-0.7,0.2-1.4,0.3-2l0.5-4.1l0.3-7.9
				c-0.1-2.7-0.1-5.3-0.3-8c-0.3-2.7-0.4-5.4-1.1-8.1c-1-5.4-2.7-10.8-6-15.8c-1.7-2.4-3.7-4.8-6.2-6.6c-1.1-0.8-2.3-1.5-3.5-2.1
				c1.3-2.8,2.4-5.8,3.1-8.9c0.6-2.4,0.9-5,0.9-7.6c-0.1-2.6-0.5-5.3-1.4-7.9c-1.7-5.2-5.5-9.6-9.7-12.5c-2.1-1.5-4.3-2.7-6.6-3.7
				c-0.8-0.4-1.7-0.7-2.5-1c1.1-5.7,1.6-11.6,1.2-17.6c-0.3-3.8-1.1-7.7-2.5-11.5C470,273.1,467.8,269.5,465.1,266.5z"/>
			<path class="st2" d="M307.3,329.4c-0.7-1-1.4-2-2-3c-0.6-0.9-1-1.9-1.3-2.9c-0.3-1-0.4-2.2-0.9-3.5c-0.9,1-1.3,2.3-1.3,3.8
				c0,1.4,0.3,2.9,1,4.1c0.4,0.9,1,1.4,1.6,2c-1.4,0.4-2.8,0.9-3.9,1.6c-1-1.2-2-2.3-2.9-3.2c-0.7-0.9-1.4-1.7-2.2-2.6
				c-0.7-0.9-1.4-1.7-2.2-2.9c-0.4,1.2-0.3,2.6,0.1,3.9c0.4,1.2,1.2,2.3,2,3.3c0.9,1,1.9,1.9,3,2.5c0.1,0,0.1,0.2,0.3,0.2
				c-0.7,0.4-1.3,1-2,1.4c-1.7,1.3-3.2,2.9-4.3,4.5c-1.4-1.7-3-3-4.5-4.5c-0.9-0.9-1.7-1.6-2.5-2.6c-0.9-1-1.4-2-2-3.3
				c-0.6,1.3-0.4,2.9,0,4.3c0.4,1.4,1.3,2.6,2.3,3.6c1,1,2.2,1.9,3.5,2.5c0.9,0.4,1.6,0.7,2.5,0.9c-1,1.6-2,3.3-2.6,5.1
				c3.5-2.6,6.6-5.1,10.1-6.8c1.6-0.9,3.3-1.6,5.1-2c1.7-0.6,3.5-0.7,5.2-0.7c3.5,0,7,1.2,10.4,2.9c3.5,1.7,6.8,4.1,10.1,6.7
				c-1.6-4-4.3-7.5-7.7-10.4c-3.5-2.8-8.1-4.8-12.9-4.8C308.8,329.2,308,329.2,307.3,329.4z M395,326.5c-0.6,0.9-1.2,1.9-1.9,2.8
				c-0.7,0-1.4-0.2-2.2,0c-4.9,0-9.4,2-12.9,4.8c-3.5,2.9-6.1,6.4-7.7,10.4c3.5-2.6,6.8-4.9,10.3-6.7c3.5-1.7,7-2.9,10.4-2.9
				c1.7,0,3.5,0.3,5.2,0.7c1.6,0.4,3.3,1.2,5.1,2c3.5,1.9,6.7,4.3,10.1,6.8c-0.7-1.7-1.6-3.5-2.8-5.1c0.9-0.2,1.6-0.6,2.5-0.9
				c1.3-0.6,2.5-1.4,3.5-2.5c0.9-1,1.9-2.2,2.3-3.6c0.6-1.4,0.6-3,0-4.3c-0.7,1.4-1.3,2.3-2,3.3c-0.7,0.9-1.6,1.7-2.5,2.6
				c-1.3,1.4-2.9,2.9-4.3,4.5c-1.3-1.6-2.6-3.2-4.3-4.5c-0.7-0.6-1.3-1.2-2-1.6l0.1-0.1c1.2-0.7,2.2-1.4,3-2.5c0.9-0.9,1.6-2,2-3.3
				c0.4-1.2,0.6-2.6,0.2-3.9c-0.9,1.2-1.4,2-2.2,2.9c-0.7,0.9-1.4,1.7-2.2,2.6c-0.9,1-1.9,2-2.9,3.3c-1.3-0.6-2.6-1.2-3.9-1.6
				c0.6-0.6,1-1.2,1.4-1.9c0.7-1.3,1-2.6,1-4c0-1.3-0.4-2.8-1.3-3.8c-0.3,1.3-0.4,2.5-0.9,3.5C396,324.6,395.6,325.6,395,326.5z
				 M447.2,322.7c3.3,8.8,4.9,18.2,4.9,27.6c-0.2,9.4-1.7,18.7-4.8,27.5c-3.3,8.8-8.1,16.8-13.9,24.1c-5.8,7.3-13,13.4-20.6,18.6
				c-2,1.2-3.8,2.7-5.9,3.7l-6.1,3.3c-2.1,1-4.3,1.9-6.4,2.8c-1.1,0.4-2.1,0.9-3.2,1.3l-3.3,1.1c-17.7,6-36.9,6.8-55.1,3.5
				c-9.2-1.7-18-4.7-26.5-8.6c-8.3-4.1-16.1-9.3-23.1-15.5c-6.9-6.2-12.7-13.6-17.4-21.6c-4.7-8-7.9-16.9-9.5-26
				c-3.6-18.3,0.2-37.7,9.5-53.9c9.2-16.2,23.8-29.1,40.6-37.6c0.5,1.2,1.2,2.4,2,3.5c2.1,2.7,5.1,4.6,8.4,5.8
				c3.3,1.2,6.7,1.2,10.1,1.2c1.6-0.1,3.4-0.3,4.9-0.5l4.5-0.6c6-0.8,12.1-1.5,17.8-1.4c5.8,0,11.1,1.1,14.6,3.9
				c0.4,0.3,0.8,0.8,1.2,1.2l1.1,1.3c1.5,2,3,3.2,4.5,4.2c3,2,6,3.5,9.1,4.7c6.1,2.4,12.3,4,18.7,5c6.3,1,12.7,1.4,19.2,0.8
				c3.2-0.4,6.4-0.9,9.5-2c0.8-0.3,1.5-0.6,2.2-0.9C439.7,306.3,444.1,314.2,447.2,322.7z M384.2,380.7c-0.4,0-0.9,0.1-1.3,0.2
				c-5.2,1-10.4,1.3-15.5,1.4c-5.5,0-10.9-0.4-16.2-1.1v-0.1c0,0,0,0-0.1,0l-0.3,0h0c0,0,0,0,0,0c-5.3,0.7-10.7,1.1-16.2,1.1
				c-5.2,0-10.4-0.4-15.5-1.3c-0.4-0.1-0.9-0.2-1.3-0.2c0.8,0.4,1.6,0.8,2.4,1.2c0.7,0.5,1.3,1.2,1.9,1.8c0.9,1.2,1.6,2.5,2.1,3.9
				c1.2,3,1.9,6.3,2.5,9.5c0.5,3.3,0.8,6.6,1.1,9.8c0.2,3.3,0.3,6.6,0.3,9.9l0,1.1l0.8,0.6c1.8,1.4,3.5,2.4,5.4,3.3
				c1.8,0.9,3.8,1.7,5.7,2.3c2,0.6,4,1.1,6,1.4c1.3,0.3,2.7,0.4,4,0.6l0,0.2h2.2v-0.2c1.3-0.1,2.7-0.3,4-0.6c2-0.3,4-0.9,6-1.5
				c2-0.6,3.9-1.4,5.7-2.3c1.9-0.9,3.6-1.9,5.4-3.3l0.8-0.6l0-1.1c0-3.2,0-6.6,0.3-9.9c0.2-3.3,0.5-6.6,1.1-9.8
				c0.6-3.2,1.2-6.5,2.5-9.5c0.6-1.3,1.2-2.7,2.1-3.9c0.6-0.7,1.2-1.3,1.9-1.9C382.6,381.5,383.4,381.1,384.2,380.7z M359,362.1
				c1-1.1,1.4-2.6,1.2-4.2c-0.2-1.6-1-3-2.1-4.1c-2.3-2.2-5.5-3.2-8.5-3.1c-3,0.1-6.2,1.2-8.3,3.5c-1.1,1.2-1.7,2.7-1.8,4.3
				c0,1.6,0.6,3.1,1.7,4.1c-1.3-2.7-0.4-5.5,1.5-7c1.9-1.6,4.5-2.4,7-2.4c2.6-0.1,5.2,0.6,7.2,2.1C358.8,356.6,360,359.3,359,362.1z
				"/>
			<linearGradient id="SVGID_10_" gradientUnits="userSpaceOnUse" x1="250.8698" y1="434.3845" x2="455.5766" y2="434.3845">
				<stop  offset="0" style="stop-color:#00BDCD"/>
				<stop  offset="0.9987" style="stop-color:#0085C7"/>
			</linearGradient>
			<path class="st10" d="M391.7,433.5c0.4,0.6,0.9,1.2,1.4,1.8c0,0-0.1,0-0.1,0C392.5,434.7,392,434.1,391.7,433.5z"/>
			<linearGradient id="SVGID_11_" gradientUnits="userSpaceOnUse" x1="367.5655" y1="332.278" x2="421.8523" y2="332.278">
				<stop  offset="0" style="stop-color:#00BDCD"/>
				<stop  offset="0.9987" style="stop-color:#0085C7"/>
			</linearGradient>
			<path class="st11" d="M393.1,329.2c0.7-0.9,1.3-1.9,1.9-2.8c0.6-0.9,1-1.9,1.3-2.9c0.4-1,0.6-2.2,0.9-3.5c0.9,1,1.3,2.5,1.3,3.8
				c0,1.4-0.3,2.7-1,4c-0.4,0.7-0.9,1.3-1.4,1.9c1.3,0.4,2.6,1,3.9,1.6c1-1.3,2-2.3,2.9-3.3c0.7-0.9,1.4-1.7,2.2-2.6
				c0.7-0.9,1.3-1.7,2.2-2.9c0.4,1.3,0.3,2.8-0.2,3.9c-0.4,1.3-1.2,2.5-2,3.3c-0.9,1-1.9,1.7-3,2.5l-0.1,0.1c0.7,0.4,1.3,1,2,1.6
				c1.7,1.3,3,2.9,4.3,4.5c1.4-1.6,3-3,4.3-4.5c0.9-0.9,1.7-1.7,2.5-2.6c0.7-1,1.3-1.9,2-3.3c0.6,1.3,0.6,2.9,0,4.3
				c-0.4,1.4-1.4,2.6-2.3,3.6c-1,1-2.2,1.9-3.5,2.5c-0.9,0.3-1.6,0.7-2.5,0.9c1.2,1.6,2,3.3,2.8,5.1c-3.5-2.5-6.7-4.9-10.1-6.8
				c-1.7-0.9-3.5-1.6-5.1-2c-1.7-0.4-3.5-0.7-5.2-0.7c-3.5,0-6.9,1.2-10.4,2.9c-3.5,1.7-6.8,4.1-10.3,6.7c1.6-4,4.2-7.5,7.7-10.4
				c3.5-2.8,8-4.8,12.9-4.8C391.7,329.1,392.4,329.2,393.1,329.2z"/>
			<path class="st2" d="M378.9,481c3.3,0,5.9,2.6,5.9,5.9c0,3.3-2.6,5.9-5.9,5.9c-3.3,0-5.9-2.7-5.9-5.9
				C373,483.7,375.6,481,378.9,481z"/>
			<path class="st2" d="M378.9,545.3c3.3,0,5.9,2.6,5.9,5.9s-2.6,5.9-5.9,5.9c-3.3,0-5.9-2.7-5.9-5.9S375.6,545.3,378.9,545.3z"/>
			<path class="st2" d="M368.1,387.1c3.8-1.2,7.6-2.5,11.2-4.1c0,0,0,0-0.1,0.1c-1.2,1.1-2.2,2.4-2.9,3.8c-1.7,3-2.9,6.3-3.8,9.6
				c-0.1,0.5-0.2,1.1-0.4,1.6h-42.4c-0.1-0.5-0.2-1-0.4-1.6c-0.9-3.3-2-6.6-3.8-9.6c-0.8-1.4-1.8-2.6-2.9-3.8c0,0,0,0,0,0
				c3.6,1.6,7.4,2.9,11.2,4.1c5.6,1.7,11.3,2.9,17.2,3.8h0.1v-0.1C356.9,390,362.5,388.7,368.1,387.1z"/>
			<linearGradient id="SVGID_12_" gradientUnits="userSpaceOnUse" x1="371.2674" y1="486.9276" x2="386.4999" y2="486.9276">
				<stop  offset="0" style="stop-color:#00BDCD"/>
				<stop  offset="0.9987" style="stop-color:#0085C7"/>
			</linearGradient>
			<path class="st12" d="M378.9,479.3c4.2,0,7.6,3.4,7.6,7.6c0,4.2-3.4,7.6-7.6,7.6c-4.2,0-7.6-3.4-7.6-7.6
				C371.3,482.7,374.7,479.3,378.9,479.3z M378.9,492.9c3.3,0,5.9-2.7,5.9-5.9c0-3.3-2.6-5.9-5.9-5.9c-3.3,0-5.9,2.6-5.9,5.9
				C373,490.2,375.6,492.9,378.9,492.9z"/>
			<linearGradient id="SVGID_13_" gradientUnits="userSpaceOnUse" x1="371.2674" y1="551.2403" x2="386.4999" y2="551.2403">
				<stop  offset="0" style="stop-color:#00BDCD"/>
				<stop  offset="0.9987" style="stop-color:#0085C7"/>
			</linearGradient>
			<path class="st13" d="M378.9,543.6c4.2,0,7.6,3.4,7.6,7.6c0,4.2-3.4,7.6-7.6,7.6c-4.2,0-7.6-3.4-7.6-7.6
				C371.3,547.1,374.7,543.6,378.9,543.6z M378.9,557.2c3.3,0,5.9-2.7,5.9-5.9s-2.6-5.9-5.9-5.9c-3.3,0-5.9,2.6-5.9,5.9
				S375.6,557.2,378.9,557.2z"/>
			<path class="st2" d="M330.1,399.8h41.6c-0.5,2.3-0.9,4.5-1.2,6.8c-0.4,3-0.7,6-0.8,9c-1.1,0.7-2.3,1.3-3.5,1.9
				c-13.7-9.7-26.4-3.2-30.9-0.2c-1.1-0.5-2.2-1.1-3.1-1.7c-0.1-3.1-0.4-6.1-0.8-9C331.1,404.3,330.7,402,330.1,399.8z"/>
			<linearGradient id="SVGID_14_" gradientUnits="userSpaceOnUse" x1="367.7652" y1="448.2134" x2="370.0662" y2="448.2134">
				<stop  offset="0" style="stop-color:#00BDCD"/>
				<stop  offset="0.9987" style="stop-color:#0085C7"/>
			</linearGradient>
			<path class="st14" d="M369.5,441.3c0.4,2,0.6,3.9,0.6,5.8c0,2.6-0.3,5.3-1.2,7.9c-0.9-2.6-1.1-5.2-1.2-7.9c0-1.9,0.1-3.8,0.5-5.7
				C368.7,441.5,369.1,441.4,369.5,441.3z"/>
			<linearGradient id="SVGID_15_" gradientUnits="userSpaceOnUse" x1="367.7652" y1="440.4131" x2="370.0651" y2="440.4131">
				<stop  offset="0" style="stop-color:#00BDCD"/>
				<stop  offset="0.9987" style="stop-color:#0085C7"/>
			</linearGradient>
			<path class="st15" d="M368.9,439.3c0.2,0.7,0.4,1.4,0.6,2c-0.4,0.1-0.8,0.1-1.2,0.2C368.5,440.8,368.7,440.1,368.9,439.3z"/>
			<path class="st2" d="M368.9,455.1C368.9,455.1,368.9,455.1,368.9,455.1c-0.2,1.7-0.4,3.3-0.6,4.9c-2.9,5.3-5.5,10.8-8,16.2
				l-3.7,8.3l-1.7,4c-2.4-4.2-4.7-8.4-7.2-12.5c-1.7-2.7-3.3-5.5-5.1-8.1c-1.7-2.7-3.5-5.3-5.3-7.9c-0.2-1.6-0.3-3.2-0.6-4.8v0v0
				c0.9-2.6,1.1-5.3,1.2-7.9c0-1.9-0.1-3.7-0.5-5.6c10.2,1.3,20.7,1.4,30.9,0c-0.4,1.9-0.5,3.8-0.5,5.7
				C367.8,449.8,368,452.5,368.9,455.1z"/>
			<path class="st16" d="M364.3,418.3c-1.2,0.5-2.4,0.9-3.7,1.3c-1.8,0.5-3.6,0.9-5.4,1.2c-1.4,0.2-2.9,0.4-4.3,0.5
				c-1.4-0.1-2.9-0.3-4.3-0.5c-1.8-0.3-3.6-0.7-5.4-1.2c-1.4-0.4-2.8-0.9-4.1-1.5C341.9,415.3,352.6,410.6,364.3,418.3z"/>
			<path class="st2" d="M345,521.6c3.3,0,5.9,2.7,5.9,5.9c0,3.3-2.6,5.9-5.9,5.9c-3.3,0-5.9-2.6-5.9-5.9
				C339.1,524.3,341.8,521.6,345,521.6z"/>
			<linearGradient id="SVGID_16_" gradientUnits="userSpaceOnUse" x1="338.7395" y1="356.6208" x2="360.9734" y2="356.6208">
				<stop  offset="0" style="stop-color:#00BDCD"/>
				<stop  offset="0.9987" style="stop-color:#0085C7"/>
			</linearGradient>
			<path class="st17" d="M359,362.1c1-2.8-0.2-5.4-2.2-6.9c-2-1.5-4.6-2.2-7.2-2.1c-2.5,0-5.1,0.8-7,2.4c-1.9,1.6-2.8,4.3-1.5,7
				c-1-1-1.7-2.5-1.7-4.1c0-1.6,0.7-3.1,1.8-4.3c2.1-2.4,5.3-3.5,8.3-3.5c3.1-0.1,6.2,0.9,8.5,3.1c1.1,1.1,2,2.6,2.1,4.1
				C360.4,359.4,359.9,361,359,362.1z"/>
			<linearGradient id="SVGID_17_" gradientUnits="userSpaceOnUse" x1="336.1773" y1="477.0909" x2="369.5416" y2="477.0909">
				<stop  offset="0" style="stop-color:#00BDCD"/>
				<stop  offset="0.9987" style="stop-color:#0085C7"/>
			</linearGradient>
			<path class="st18" d="M354.9,488.5l1.7-4l3.7-8.3c2.6-5.5,5.2-10.9,8-16.2c0.2-1.6,0.4-3.2,0.6-4.9c0.2,1.7,0.4,3.4,0.6,5v0.1
				l0,0.2c-1.7,5.8-3.7,11.6-5.7,17.3l-3.2,8.5l-3.4,8.4l-1.8,4.5l-2.3-4.3c-3.1-5.6-6-11.3-8.9-17c-1.4-2.9-2.8-5.7-4.1-8.6
				c-1.4-2.9-2.6-5.8-3.9-8.8l-0.1-0.2l0-0.1c0.2-1.7,0.4-3.3,0.6-5c0.2,1.6,0.4,3.2,0.6,4.8c1.8,2.6,3.6,5.2,5.3,7.9
				c1.7,2.7,3.4,5.4,5.1,8.1C350.2,480.1,352.5,484.3,354.9,488.5z"/>
			<linearGradient id="SVGID_18_" gradientUnits="userSpaceOnUse" x1="337.4198" y1="527.5516" x2="352.6523" y2="527.5516">
				<stop  offset="0" style="stop-color:#00BDCD"/>
				<stop  offset="0.9987" style="stop-color:#0085C7"/>
			</linearGradient>
			<path class="st19" d="M339.1,527.6c0,3.3,2.7,5.9,5.9,5.9c3.3,0,5.9-2.6,5.9-5.9c0-3.3-2.6-5.9-5.9-5.9
				C341.8,521.6,339.1,524.3,339.1,527.6z M352.7,527.6c0,4.2-3.4,7.6-7.6,7.6c-4.2,0-7.6-3.4-7.6-7.6c0-4.2,3.4-7.6,7.6-7.6
				C349.2,519.9,352.7,523.4,352.7,527.6z"/>
			<linearGradient id="SVGID_19_" gradientUnits="userSpaceOnUse" x1="335.648" y1="448.2019" x2="337.949" y2="448.2019">
				<stop  offset="0" style="stop-color:#00BDCD"/>
				<stop  offset="0.9987" style="stop-color:#0085C7"/>
			</linearGradient>
			<path class="st20" d="M336.8,455.1c-0.9-2.6-1.1-5.3-1.2-7.9c0-1.9,0.2-3.8,0.6-5.8c0.4,0,0.8,0.1,1.2,0.2
				c0.4,1.9,0.5,3.8,0.5,5.6C337.9,449.8,337.7,452.4,336.8,455.1z"/>
			<linearGradient id="SVGID_20_" gradientUnits="userSpaceOnUse" x1="335.6497" y1="440.3326" x2="337.9496" y2="440.3326">
				<stop  offset="0" style="stop-color:#00BDCD"/>
				<stop  offset="0.9987" style="stop-color:#0085C7"/>
			</linearGradient>
			<path class="st21" d="M336.8,439.2c0.3,0.8,0.5,1.6,0.6,2.3c-0.4,0-0.8-0.1-1.2-0.2C336.4,440.6,336.5,439.9,336.8,439.2z"/>
			<path class="st2" d="M323.5,551.8c3.3,0,5.9,2.6,5.9,5.9s-2.7,5.9-5.9,5.9s-5.9-2.6-5.9-5.9S320.2,551.8,323.5,551.8z"/>
			<linearGradient id="SVGID_21_" gradientUnits="userSpaceOnUse" x1="317.3443" y1="404.7477" x2="384.5594" y2="404.7477">
				<stop  offset="0" style="stop-color:#00BDCD"/>
				<stop  offset="0.9987" style="stop-color:#0085C7"/>
			</linearGradient>
			<path class="st22" d="M370.5,406.6c0.3-2.3,0.7-4.6,1.2-6.8h-41.6c0.5,2.3,0.9,4.5,1.2,6.8c0.4,3,0.7,6,0.8,9
				c0.9,0.6,2,1.2,3.1,1.7c4.6-3,17.2-9.5,30.9,0.2c1.2-0.6,2.4-1.2,3.5-1.9C369.9,412.6,370.1,409.6,370.5,406.6z M356.1,425.7
				c-1.3,0.3-2.7,0.4-4,0.6v0.2h-2.2l0-0.2c-1.3-0.1-2.7-0.3-4-0.6c-2-0.3-4-0.9-6-1.4c-2-0.6-3.9-1.4-5.7-2.3
				c-1.9-0.9-3.6-1.9-5.4-3.3l-0.8-0.6l0-1.1c0-3.2,0-6.6-0.3-9.9c-0.2-3.3-0.5-6.6-1.1-9.8c-0.6-3.2-1.2-6.5-2.5-9.5
				c-0.6-1.3-1.2-2.7-2.1-3.9l0.7-0.6c1.2,1.1,2.1,2.4,2.9,3.8c1.7,3,2.9,6.3,3.8,9.6c0.2,0.5,0.3,1.1,0.4,1.6h42.4
				c0.1-0.5,0.2-1,0.4-1.6c0.9-3.3,2-6.6,3.8-9.6c0.8-1.4,1.8-2.7,2.9-3.8l0.7,0.6c-0.9,1.2-1.6,2.5-2.1,3.9c-1.2,3-1.9,6.3-2.5,9.5
				c-0.5,3.3-0.8,6.6-1.1,9.8c-0.2,3.3-0.3,6.6-0.3,9.9l0,1.1l-0.8,0.6c-1.8,1.4-3.5,2.4-5.4,3.3c-1.8,0.9-3.8,1.7-5.7,2.3
				C360.1,424.8,358.1,425.3,356.1,425.7z M355.3,420.9c1.8-0.3,3.6-0.7,5.4-1.2c1.3-0.4,2.5-0.8,3.7-1.3
				c-11.7-7.7-22.5-3.1-27.2-0.2c1.3,0.6,2.7,1,4.1,1.5c1.8,0.5,3.6,0.9,5.4,1.2c1.4,0.3,2.9,0.4,4.3,0.5
				C352.4,421.3,353.8,421.1,355.3,420.9z"/>
			<linearGradient id="SVGID_22_" gradientUnits="userSpaceOnUse" x1="317.3443" y1="385.8336" x2="384.5594" y2="385.8336">
				<stop  offset="0" style="stop-color:#00BDCD"/>
				<stop  offset="0.9987" style="stop-color:#0085C7"/>
			</linearGradient>
			<path class="st23" d="M379.3,383c-3.6,1.6-7.4,2.9-11.2,4.1c-5.5,1.6-11.2,2.9-17,3.8v0.1H351c-5.8-0.9-11.6-2.2-17.2-3.8
				c-3.8-1.2-7.6-2.5-11.2-4.1c0,0,0,0,0,0l-0.7,0.6c-0.6-0.7-1.2-1.3-1.9-1.8c-0.8-0.4-1.6-0.8-2.4-1.2c0.4,0,0.9,0.1,1.3,0.2
				c5.2,1,10.4,1.3,15.5,1.3c5.5,0,10.9-0.4,16.2-1.1c0,0,0,0,0,0h0l0.3,0c0,0,0,0,0.1,0v0.1c5.3,0.7,10.7,1.1,16.2,1.1
				c5.2-0.1,10.4-0.4,15.5-1.4c0.4-0.1,0.9-0.2,1.3-0.2c-0.8,0.4-1.6,0.8-2.4,1.2c-0.7,0.5-1.3,1.2-1.9,1.9L379.3,383
				C379.2,383.1,379.3,383.1,379.3,383z"/>
			<path class="st2" d="M314.6,487.8c3.3,0,5.9,2.6,5.9,5.9c0,3.3-2.6,5.9-5.9,5.9c-3.3,0-5.9-2.7-5.9-5.9
				C308.6,490.4,311.3,487.8,314.6,487.8z"/>
			<linearGradient id="SVGID_23_" gradientUnits="userSpaceOnUse" x1="315.8825" y1="557.7521" x2="331.1151" y2="557.7521">
				<stop  offset="0" style="stop-color:#00BDCD"/>
				<stop  offset="0.9987" style="stop-color:#0085C7"/>
			</linearGradient>
			<path class="st24" d="M323.5,551.8c-3.3,0-5.9,2.6-5.9,5.9s2.6,5.9,5.9,5.9s5.9-2.6,5.9-5.9S326.8,551.8,323.5,551.8z
				 M323.5,565.4c-4.2,0-7.6-3.4-7.6-7.6c0-4.2,3.4-7.6,7.6-7.6c4.2,0,7.6,3.4,7.6,7.6C331.1,562,327.7,565.4,323.5,565.4z"/>
			<linearGradient id="SVGID_24_" gradientUnits="userSpaceOnUse" x1="250.8698" y1="434.3615" x2="455.5766" y2="434.3615">
				<stop  offset="0" style="stop-color:#00BDCD"/>
				<stop  offset="0.9987" style="stop-color:#0085C7"/>
			</linearGradient>
			<path class="st25" d="M313.2,435.3c0,0-0.1,0-0.1,0c0.4-0.6,0.9-1.2,1.3-1.8C314,434.1,313.6,434.7,313.2,435.3z"/>
			<linearGradient id="SVGID_25_" gradientUnits="userSpaceOnUse" x1="306.9547" y1="493.6925" x2="322.1873" y2="493.6925">
				<stop  offset="0" style="stop-color:#00BDCD"/>
				<stop  offset="0.9987" style="stop-color:#0085C7"/>
			</linearGradient>
			<path class="st26" d="M314.6,499.6c3.3,0,5.9-2.7,5.9-5.9c0-3.3-2.6-5.9-5.9-5.9c-3.3,0-5.9,2.6-5.9,5.9
				C308.6,497,311.3,499.6,314.6,499.6z M314.6,486.1c4.2,0,7.6,3.4,7.6,7.6c0,4.2-3.4,7.6-7.6,7.6c-4.2,0-7.6-3.4-7.6-7.6
				C307,489.5,310.4,486.1,314.6,486.1z"/>
			<linearGradient id="SVGID_26_" gradientUnits="userSpaceOnUse" x1="300.4888" y1="284.8936" x2="443.0419" y2="284.8936">
				<stop  offset="0" style="stop-color:#00BDCD"/>
				<stop  offset="0.9987" style="stop-color:#0085C7"/>
			</linearGradient>
			<path class="st27" d="M422.3,302.1c-6.4,0.6-12.9,0.2-19.2-0.8c-6.3-1-12.6-2.6-18.7-5c-3.1-1.2-6.1-2.6-9.1-4.7
				c-1.5-1.1-3-2.2-4.5-4.2l-1.1-1.3c-0.4-0.4-0.8-0.8-1.2-1.2c-3.4-2.9-8.8-3.9-14.6-3.9c-5.7-0.1-11.8,0.6-17.8,1.4l-4.5,0.6
				c-1.6,0.2-3.3,0.3-4.9,0.5c-3.4,0-6.8-0.1-10.1-1.2c-3.2-1.1-6.3-3.1-8.4-5.8c-0.8-1.1-1.5-2.3-2-3.5c0.2-0.1,0.3-0.2,0.5-0.3
				c-0.2,0.1-0.3,0.1-0.5,0.2c-0.8-1.8-1.2-3.6-1.2-5.5c1.1,2.9,2.9,5.5,5.1,7.3c2.3,1.8,4.9,2.8,7.6,3.1c2.7,0.5,5.6,0.1,8.4-0.3
				l4.2-1c1.5-0.4,3-0.9,4.6-1.2c6.1-1.5,12.4-2.8,19-3c3.3-0.2,6.8,0,10.3,0.8c3.5,0.8,7.2,2.3,10.2,4.8c0.8,0.6,1.4,1.4,2.1,2
				c0.6,0.7,1.2,1.5,1.8,2.3c0.4,0.5,1.3,1.3,2.3,2.1c2.1,1.5,4.6,2.9,7.2,4c5.3,2.4,11,4.3,16.8,6c5.8,1.6,11.7,2.9,17.6,3.4
				c3,0.3,6,0.3,8.9,0c2.9-0.3,5.9-1.1,8.4-2.9c-1.4,1.9-3.4,3.4-5.5,4.5c-0.3-0.3-0.6-0.7-0.9-1c0.3,0.3,0.6,0.7,0.8,1.1
				c-0.7,0.3-1.5,0.7-2.2,0.9C428.8,301.2,425.5,301.7,422.3,302.1z"/>
			<linearGradient id="SVGID_27_" gradientUnits="userSpaceOnUse" x1="300.4888" y1="272.8089" x2="443.0419" y2="272.8089">
				<stop  offset="0" style="stop-color:#00BDCD"/>
				<stop  offset="0.9987" style="stop-color:#0085C7"/>
			</linearGradient>
			<path class="st28" d="M306.7,272.7c-0.2,0.1-0.3,0.2-0.5,0.3c0,0,0,0,0,0C306.4,272.8,306.6,272.8,306.7,272.7z"/>
			<linearGradient id="SVGID_28_" gradientUnits="userSpaceOnUse" x1="292.8939" y1="587.8951" x2="307.3241" y2="587.8951">
				<stop  offset="0" style="stop-color:#00BDCD"/>
				<stop  offset="0.9987" style="stop-color:#0085C7"/>
			</linearGradient>
			<path class="st29" d="M305.1,587.2c0,0.5,0,0.9,0,1.4c-0.1-0.4-0.3-0.8-0.4-1.2L305.1,587.2z"/>
			<linearGradient id="SVGID_29_" gradientUnits="userSpaceOnUse" x1="292.8939" y1="555.8883" x2="307.3241" y2="555.8883">
				<stop  offset="0" style="stop-color:#00BDCD"/>
				<stop  offset="0.9987" style="stop-color:#0085C7"/>
			</linearGradient>
			<path class="st30" d="M299.4,540.2c1.2,5.3,2.1,10.6,3,16c0.8,5.3,1.5,10.7,2,16.1c0.4,4.9,0.8,9.9,0.7,14.9l-0.4,0.2
				c-1.6-4.8-2.8-9.7-3.8-14.6c-1.2-5.3-2.1-10.6-3-16c-0.3-2.3-0.7-4.6-1-6.9c-0.4-3.1-0.8-6.1-1-9.2c-0.5-5.4-0.8-10.8-0.7-16.3
				C296.9,529.6,298.3,534.9,299.4,540.2z"/>
			<linearGradient id="SVGID_30_" gradientUnits="userSpaceOnUse" x1="263.1668" y1="579.1283" x2="304.6537" y2="579.1283">
				<stop  offset="0" style="stop-color:#00BDCD"/>
				<stop  offset="0.9987" style="stop-color:#0085C7"/>
			</linearGradient>
			<path class="st31" d="M285.3,558.9c4.2,0,7.6-3.4,7.6-7.6c0-0.3,0-0.5,0-0.8l4-0.5c0.3,2.3,0.6,4.6,1,6.9c0.9,5.3,1.8,10.7,3,16
				c1.1,4.9,2.3,9.8,3.8,14.6l-41.5,21.8c1.8-9.1,3.5-18.2,5.1-27.3c1.9-10.9,3.7-21.9,5.4-32.8l4.1,0.6c-0.1,0.5-0.2,1-0.2,1.5
				C277.7,555.5,281.1,558.9,285.3,558.9z"/>
			<path class="st2" d="M285.3,545.3c3.3,0,5.9,2.6,5.9,5.9s-2.6,5.9-5.9,5.9c-3.3,0-5.9-2.7-5.9-5.9S282.1,545.3,285.3,545.3z"/>
			<linearGradient id="SVGID_31_" gradientUnits="userSpaceOnUse" x1="278.5514" y1="332.209" x2="333.0547" y2="332.209">
				<stop  offset="0" style="stop-color:#00BDCD"/>
				<stop  offset="0.9987" style="stop-color:#0085C7"/>
			</linearGradient>
			<path class="st32" d="M299.2,337.6c-3.5,1.7-6.6,4.2-10.1,6.8c0.6-1.7,1.6-3.5,2.6-5.1c-0.9-0.2-1.6-0.4-2.5-0.9
				c-1.3-0.6-2.5-1.4-3.5-2.5c-1-1-1.9-2.2-2.3-3.6c-0.4-1.4-0.6-3,0-4.3c0.6,1.3,1.2,2.3,2,3.3c0.7,1,1.6,1.7,2.5,2.6
				c1.4,1.4,3,2.7,4.5,4.5c1.2-1.6,2.6-3.2,4.3-4.5c0.7-0.4,1.3-1,2-1.4c-0.1,0-0.1-0.2-0.3-0.2c-1.2-0.6-2.2-1.4-3-2.5
				c-0.9-1-1.6-2.2-2-3.3c-0.4-1.3-0.6-2.7-0.1-3.9c0.7,1.2,1.4,2,2.2,2.9c0.7,0.9,1.4,1.7,2.2,2.6c0.9,0.9,1.9,2,2.9,3.2
				c1.2-0.7,2.5-1.2,3.9-1.6c-0.6-0.6-1.2-1.2-1.6-2c-0.7-1.2-1-2.6-1-4.1c0-1.4,0.4-2.7,1.3-3.8c0.4,1.3,0.6,2.5,0.9,3.5
				c0.3,1,0.7,2,1.3,2.9c0.6,1,1.3,2,2,3c0.7-0.1,1.4-0.1,2.2-0.1c4.8,0,9.4,2,12.9,4.8c3.3,2.9,6.1,6.4,7.7,10.4
				c-3.3-2.6-6.7-4.9-10.1-6.7c-3.5-1.7-6.9-2.9-10.4-2.9c-1.7,0-3.5,0.2-5.2,0.7C302.5,336.1,300.8,336.8,299.2,337.6z"/>
			<linearGradient id="SVGID_32_" gradientUnits="userSpaceOnUse" x1="277.7091" y1="551.2403" x2="292.9417" y2="551.2403">
				<stop  offset="0" style="stop-color:#00BDCD"/>
				<stop  offset="0.9987" style="stop-color:#0085C7"/>
			</linearGradient>
			<path class="st33" d="M285.3,557.2c3.3,0,5.9-2.7,5.9-5.9s-2.6-5.9-5.9-5.9c-3.3,0-5.9,2.6-5.9,5.9S282.1,557.2,285.3,557.2z
				 M285.3,543.6c3.9,0,7.2,3,7.6,6.8c0,0.3,0,0.5,0,0.8c0,4.2-3.4,7.6-7.6,7.6c-4.2,0-7.6-3.4-7.6-7.6c0-0.5,0-1,0.2-1.5
				C278.6,546.2,281.6,543.6,285.3,543.6z"/>
			<linearGradient id="SVGID_33_" gradientUnits="userSpaceOnUse" x1="273.7284" y1="534.2015" x2="443.6795" y2="534.2015">
				<stop  offset="0" style="stop-color:#00BDCD"/>
				<stop  offset="0.9987" style="stop-color:#0085C7"/>
			</linearGradient>
			<path class="st34" d="M408.5,564.8c0,4.2,3.4,7.6,7.6,7.6c4.2,0,7.6-3.4,7.6-7.6c0-4.2-3.4-7.6-7.6-7.6
				C411.9,557.2,408.5,560.6,408.5,564.8z M406,521.6c4.2,0,7.6-3.4,7.6-7.6c0-4.2-3.4-7.6-7.6-7.6c-4.2,0-7.6,3.4-7.6,7.6
				C398.4,518.2,401.8,521.6,406,521.6z M401.6,572.3c-0.5,5.4-0.8,10.8-0.7,16.3c1.8-5.2,3.1-10.5,4.2-15.8c1.2-5.3,2.1-10.6,3-16
				c0.8-5.4,1.5-10.7,2-16.1c0.5-5.4,0.8-10.8,0.7-16.3c-1.8,5.2-3.1,10.5-4.2,15.8c-1.2,5.3-2.1,10.6-3,16
				C402.8,561.5,402.1,566.9,401.6,572.3z M309.4,468.4c9.2-4.2,18.3-8.6,27.3-13.3h0.1v0c-0.2,1.7-0.4,3.3-0.6,5l0,0.1l0.1,0.2
				c1.2,2.9,2.5,5.9,3.9,8.8c1.3,2.9,2.8,5.8,4.1,8.6c2.9,5.7,5.8,11.4,8.9,17l2.3,4.3l1.8-4.5l3.4-8.4l3.2-8.5
				c2-5.7,4-11.4,5.7-17.3l0-0.2v-0.1c-0.2-1.7-0.4-3.4-0.6-5c0,0,0,0,0,0h0.4c9,4.7,18.1,9.1,27.3,13.3l13.9,6.2l12.1,5.2
				c1.4,11,2.7,22,4.3,32.9l2.4,17.3l2.6,17.3c1.8,11.6,3.7,23.1,5.7,34.6c1.8,10.5,3.8,21,6,31.5l-94.2-49.5l-44.4,23.4
				c0-5-0.3-9.9-0.7-14.9c-0.5-5.4-1.2-10.8-2-16.1c-0.9-5.4-1.8-10.7-3-16c-1.2-5.3-2.5-10.6-4.2-15.8c-0.1,5.5,0.2,10.9,0.7,16.3
				c0.3,3.1,0.6,6.1,1,9.2l-4,0.5c-0.4-3.8-3.6-6.8-7.6-6.8c-3.7,0-6.7,2.6-7.5,6.1l-4.1-0.6c0.1-0.6,0.2-1.2,0.3-1.8l2.6-17.3
				l2.4-17.3c1.5-11,2.9-21.9,4.3-32.9l12.1-5.2L309.4,468.4z M386.5,486.9c0-4.2-3.4-7.6-7.6-7.6c-4.2,0-7.6,3.4-7.6,7.6
				c0,4.2,3.4,7.6,7.6,7.6C383.1,494.5,386.5,491.1,386.5,486.9z M386.5,551.2c0-4.2-3.4-7.6-7.6-7.6c-4.2,0-7.6,3.4-7.6,7.6
				c0,4.2,3.4,7.6,7.6,7.6C383.1,558.9,386.5,555.5,386.5,551.2z M352.7,527.6c0-4.2-3.4-7.6-7.6-7.6c-4.2,0-7.6,3.4-7.6,7.6
				c0,4.2,3.4,7.6,7.6,7.6C349.2,535.2,352.7,531.8,352.7,527.6z M331.1,557.8c0-4.2-3.4-7.6-7.6-7.6c-4.2,0-7.6,3.4-7.6,7.6
				c0,4.2,3.4,7.6,7.6,7.6C327.7,565.4,331.1,562,331.1,557.8z M322.2,493.7c0-4.2-3.4-7.6-7.6-7.6c-4.2,0-7.6,3.4-7.6,7.6
				c0,4.2,3.4,7.6,7.6,7.6C318.8,501.3,322.2,497.9,322.2,493.7z"/>
			<linearGradient id="SVGID_34_" gradientUnits="userSpaceOnUse" x1="258.2618" y1="532.4297" x2="337.983" y2="532.4297">
				<stop  offset="0" style="stop-color:#00BDCD"/>
				<stop  offset="0.9987" style="stop-color:#0085C7"/>
			</linearGradient>
			<path class="st35" d="M279.1,512.6l-2.4,17.3l-2.6,17.3c-0.1,0.6-0.2,1.2-0.3,1.8c-1.7,11-3.5,21.9-5.4,32.8
				c-1.6,9.1-3.3,18.2-5.1,27.3l-1.1,0.6c0.6-9.5,1.4-19,2.3-28.4c1.1-11.6,2.3-23.2,3.6-34.9l2-17.4l2.2-17.4
				c1.4-11.6,3.2-23.1,4.8-34.7l0.3-2l1.8-0.6l14.2-5.2l14.3-5c9.6-3.2,19.2-6.4,29-9.1c-9,4.7-18.1,9.1-27.3,13.3l-13.9,6.2
				l-12.1,5.2C282,490.7,280.6,501.7,279.1,512.6z"/>
			<linearGradient id="SVGID_35_" gradientUnits="userSpaceOnUse" x1="258.2618" y1="612.7688" x2="337.983" y2="612.7688">
				<stop  offset="0" style="stop-color:#00BDCD"/>
				<stop  offset="0.9987" style="stop-color:#0085C7"/>
			</linearGradient>
			<path class="st36" d="M263.2,609.2c-0.5,2.4-1,4.8-1.5,7.1c0.1-2.2,0.3-4.4,0.4-6.6L263.2,609.2z"/>
			<linearGradient id="SVGID_36_" gradientUnits="userSpaceOnUse" x1="250.8698" y1="357.7141" x2="455.5766" y2="357.7141">
				<stop  offset="0" style="stop-color:#00BDCD"/>
				<stop  offset="0.9987" style="stop-color:#0085C7"/>
			</linearGradient>
			<path class="st37" d="M447.3,377.7c3.1-8.8,4.6-18.1,4.8-27.5c0-9.4-1.6-18.8-4.9-27.6c-3.1-8.4-7.6-16.4-13.2-23.5
				c0,0,0,0,0.1,0c12.2,14,19.7,32.3,20.2,51.1c0.1,9.6-1.3,19.3-4.4,28.5c-3.2,9.2-8,17.7-13.9,25.3c-5.8,7.8-13.2,14.2-21.2,19.7
				c-2,1.3-3.9,2.8-6.1,3.9l-6.4,3.5c-2.2,1.1-4.4,2-6.6,2.9c-0.9,0.4-1.9,0.9-2.8,1.2c-0.5-0.6-0.9-1.2-1.4-1.8
				c0.4,0.6,0.8,1.3,1.2,1.9c-0.1,0.1-0.3,0.1-0.4,0.2l-3.5,1.2c-6.4,2.2-12.9,3.8-19.5,4.7c-0.2-0.7-0.3-1.4-0.6-2
				c-0.3,0.7-0.5,1.5-0.6,2.2c-10.2,1.4-20.6,1.3-30.9,0c-0.2-0.8-0.4-1.6-0.6-2.3c-0.3,0.7-0.4,1.4-0.6,2.2c-1.5-0.2-3-0.5-4.5-0.7
				c-6.3-1.2-12.5-3.1-18.5-5.4c0.4-0.6,0.8-1.2,1.2-1.8c-0.4,0.6-0.9,1.2-1.3,1.8c-3-1.2-6-2.4-8.9-3.8c-8.7-4.4-16.8-9.9-24-16.4
				c-7.2-6.5-13.2-14.3-18-22.7c-1.1-2.2-2.4-4.2-3.4-6.5l-2.7-6.8c-1.4-4.6-2.9-9.3-3.5-14.1c-3.3-19.2,1.1-39.3,11.1-55.7
				c10.1-16.2,25.3-28.9,42.5-36.4c0,0,0,0,0,0c-16.8,8.5-31.3,21.4-40.6,37.6c-9.3,16.2-13.1,35.7-9.5,53.9c1.6,9.1,4.8,18,9.5,26
				c4.7,8,10.5,15.4,17.4,21.6c7,6.1,14.7,11.4,23.1,15.5c8.4,3.9,17.3,6.9,26.5,8.6c18.2,3.3,37.5,2.5,55.1-3.5l3.3-1.1
				c1.1-0.4,2.2-0.9,3.2-1.3c2.1-0.9,4.3-1.7,6.4-2.8l6.1-3.3c2.1-1,3.9-2.5,5.9-3.7c7.7-5.2,14.9-11.3,20.6-18.6
				C439.2,394.6,444,386.5,447.3,377.7z"/>
			<linearGradient id="SVGID_37_" gradientUnits="userSpaceOnUse" x1="196.5019" y1="331.4361" x2="508.232" y2="331.4361">
				<stop  offset="0" style="stop-color:#00BDCD"/>
				<stop  offset="0.9987" style="stop-color:#0085C7"/>
			</linearGradient>
			<path class="st38" d="M437.7,442.5c4.7-2.8,9.2-6.2,13.2-9.9c0.3-0.7,1-1.2,1.7-1.2h0.1c10-0.5,20.2-2.2,28.8-6.8
				c8.5-4.6,14.9-12.3,16.5-21.7l0.4-1.7c0.1-0.6,0.1-1.2,0.2-1.8l0.3-3.6l0-7.5c-0.1-2.5-0.3-5-0.5-7.4c-0.4-2.4-0.6-4.9-1.2-7.2
				c-1-4.7-2.7-9.2-5.2-12.7c-1.3-1.7-2.7-3.4-4.4-4.5c-0.8-0.6-1.7-1.1-2.6-1.4c-0.4-0.2-0.9-0.3-1.3-0.5c-0.4-0.1-1-0.2-1-0.2
				l-3.5-6.2c1.9-3.7,3.4-7.5,4.2-11.3c0.4-1.9,0.5-3.8,0.5-5.5c-0.1-1.8-0.4-3.5-1-5c-1.2-3.2-3.5-5.8-6.5-7.9
				c-1.5-1-3.2-1.9-4.9-2.6c-1.7-0.7-3.8-1.3-5.3-1.6l0,0c-2.6-0.5-4.4-3.1-3.9-5.8c0,0,0-0.1,0-0.1c1.4-6.4,2.2-12.9,1.6-19.1
				c-0.6-6.1-2.6-11.7-6.5-15.8c-3.8-4.2-9.3-6.8-15.3-8.2c-5.9-1.4-12.4-1.7-18.5-1.2c-0.8,0.1-1.6,0.1-2.4-0.1
				c-2.3-0.7-3.9-2.8-3.9-5.1v-0.1c0,0,0-0.1,0-0.2c0-0.5,0.1-1,0.2-1.4c1.1-3.7,1.5-7.3,1.1-10.4c-0.5-3.1-1.8-5.5-4.3-7.3
				c-2.4-1.9-5.8-3.2-9.5-3.8c-1.8-0.4-3.8-0.6-5.7-0.7c-1.9-0.1-4-0.1-5.6,0c-2.7,0.2-5.2-1.5-5.9-4.1l0-0.2
				c-0.6-2.1-1.4-4-2.3-5.1c-0.9-1.1-1.8-1.4-3.4-1.6c-1.5-0.1-3.6,0.3-5.7,1.1c-2,0.7-4,1.8-5.9,2.9c-1.7,1.3-4.1,1.5-6.1,0.5
				l-0.1-0.1c-3.7-2-8.1-3.4-12.5-4.1c-4.4-0.7-9-0.8-13.5-0.3c-4.5,0.5-9,1.7-13.3,3.5c-4.3,1.6-8.4,4-12.4,6.5l-0.1,0
				c-1.1,0.7-2.3,0.9-3.5,0.9c-1.6-0.1-3.8-0.1-5.7,0c-1.9,0.1-3.8,0.3-5.7,0.7c-3.7,0.7-7.1,2-9.6,3.8c-2.5,1.9-3.8,4.3-4.3,7.3
				c-0.1,0.8-0.2,1.7-0.2,2.5c0,2.5,0.4,5.2,1.2,7.9c0.1,0.5,0.2,1.1,0.2,1.6v0.1c-0.1,3-2.6,5.4-5.7,5.3c-0.1,0-0.2,0-0.3,0
				c-6.3-0.6-12.9-0.3-18.9,1.2c-6,1.4-11.6,4-15.5,8.2c-3.9,4.1-5.9,9.7-6.6,15.8c-0.6,6.2,0.2,12.7,1.7,19.1
				c0.6,2.6-0.9,5.1-3.4,5.8l-0.1,0c-5,1.5-10.4,3.8-15.1,6.5c-4.7,2.8-8.9,6.3-11.4,10.4c-2.6,4.1-3.2,8.9-1.9,13.7
				c1.3,4.9,4.2,9.6,7.7,13.9l0.1,0.2c1.4,1.7,1.1,4.1-0.6,5.5c-0.1,0.1-0.3,0.2-0.5,0.3c-0.1,0-0.5,0.4-0.8,0.6
				c-0.3,0.3-0.7,0.6-1,0.9c-0.6,0.6-1.2,1.4-1.8,2.1c-1.1,1.5-2,3.2-2.8,4.9c-1.4,3.5-2.1,7.4-2.2,11.4c0,2,0.2,4,0.4,6.1
				c0.4,2,0.6,4,1.3,6.1c0.5,2,1.1,4,1.8,5.9c0.4,1,0.7,2,1.2,2.9l1.4,2.8c3.8,7.3,9.7,13.3,17.1,17.1c7.4,3.8,15.9,5.5,24.4,5.9
				h0.1c0.8,0,1.4,0.5,1.7,1.2c3.9,3.8,8.5,7.2,13.2,10c5,2.9,10.5,5.1,16.2,5.9c5.7,0.7,11.7-0.2,16.8-3c4.5-2.4,8.4-6.1,11.6-10.2
				c0,0,0.1,0,0.1,0c-2.9,4.3-6.6,8.3-11.1,11.2c-5.2,3.3-11.5,4.7-17.6,4.2c-6.2-0.5-12.1-2.6-17.5-5.3c-5.2-2.7-10-5.9-14.5-9.9
				c-8.7-0.1-17.6-1.5-25.7-5.2c-8.5-3.8-15.7-10.6-20.3-18.8l-1.7-3.1c-0.6-1-0.9-2.1-1.4-3.2c-1-2.1-1.6-4.3-2.3-6.5
				c-0.8-2.2-1.1-4.5-1.6-6.8c-0.3-2.3-0.7-4.6-0.7-7c-0.1-4.8,0.5-9.7,2.2-14.4c0.9-2.3,2-4.6,3.5-6.6c0.7-1,1.4-1.9,2.3-2.8
				c-3.1-4-5.7-8.6-7.3-13.9c-0.9-3.3-1.4-6.9-1-10.5c0.4-3.6,1.6-7.1,3.4-10.1c3.6-6.1,8.8-10.4,14.2-13.8c2.7-1.7,5.5-3.2,8.4-4.5
				c1.5-0.7,3-1.3,4.6-1.9c-1.1-5.8-1.7-11.7-1.3-17.9c0.4-3.8,1.1-7.8,2.6-11.6c1.4-3.8,3.6-7.4,6.4-10.4
				c5.6-6.2,13.2-9.7,20.6-11.5c5-1.2,10.1-1.8,15.2-1.9c-0.3-2.6-0.3-5.2,0-8c0.4-2.7,1.3-5.5,2.8-8.1c1.4-2.5,3.5-4.7,5.7-6.4
				c4.5-3.4,9.5-5.1,14.2-6c2.4-0.5,4.8-0.8,7.2-0.9c1.8-0.1,3.5-0.1,5.4-0.1c4.1-2.5,8.3-4.9,12.8-6.6c5.1-2.1,10.5-3.6,16-4.3
				c5.6-0.7,11.3-0.6,16.8,0.3c4.5,0.8,8.9,2.1,13.2,4c1.8-0.9,3.6-1.9,5.6-2.6c3.1-1.1,6.5-2,10.5-1.7c1,0,2,0.3,3,0.5
				c1,0.3,2,0.7,3,1.1c0.9,0.5,1.9,1.1,2.8,1.7c0.8,0.7,1.5,1.4,2.3,2.2c1.5,1.7,2.5,3.5,3.2,5.4c0.9,0,1.9,0,2.8,0.1
				c2.4,0.1,4.8,0.4,7.2,0.9c4.8,1,9.7,2.6,14.2,6.1c2.2,1.7,4.2,3.9,5.6,6.5c1.4,2.5,2.3,5.3,2.8,8c0.3,2.8,0.3,5.4,0,8
				c5.1,0.1,10.1,0.7,15.1,1.9c7.4,1.8,14.9,5.4,20.5,11.6c2.7,3,4.9,6.6,6.3,10.4c1.4,3.8,2.2,7.7,2.5,11.5
				c0.4,6.1-0.1,12-1.2,17.6c0.8,0.3,1.6,0.6,2.5,1c2.3,1,4.5,2.2,6.6,3.7c4.2,2.9,7.9,7.3,9.7,12.5c0.9,2.6,1.3,5.3,1.4,7.9
				c0,2.6-0.3,5.2-0.9,7.6c-0.7,3.2-1.8,6.1-3.1,8.9c1.2,0.6,2.4,1.3,3.5,2.1c2.6,1.8,4.5,4.2,6.2,6.6c3.3,4.9,5,10.4,6,15.8
				c0.6,2.7,0.8,5.4,1.1,8.1c0.2,2.7,0.2,5.3,0.3,8l-0.3,7.9l-0.5,4.1c-0.1,0.7-0.2,1.4-0.3,2l-0.5,2c-1.2,5.4-3.8,10.7-7.4,15
				c-3.6,4.3-8.2,7.7-13.1,10.1c-9.6,4.6-20.1,5.9-30.2,6c-4.5,3.9-9.3,7.2-14.5,9.9c-5.4,2.8-11.4,4.8-17.5,5.3
				c-6.1,0.5-12.5-0.9-17.6-4.2c-4.5-2.9-8.2-6.8-11.1-11.1c0,0,0.1,0,0.1,0c3.2,4.1,7,7.7,11.6,10.2c5.2,2.8,11.1,3.8,16.8,3
				C427.1,447.6,432.6,445.4,437.7,442.5z"/>
		</g>
		<g>
			<linearGradient id="SVGID_38_" gradientUnits="userSpaceOnUse" x1="261.6668" y1="598.2955" x2="306.1537" y2="598.2955">
				<stop  offset="0" style="stop-color:#00BDCD"/>
				<stop  offset="0.9987" style="stop-color:#0085C7"/>
			</linearGradient>
			<line class="st39" x1="304.7" y1="587.4" x2="263.2" y2="609.2"/>
			<linearGradient id="SVGID_39_" gradientUnits="userSpaceOnUse" x1="303.5679" y1="588.5739" x2="445.1795" y2="588.5739">
				<stop  offset="0" style="stop-color:#00BDCD"/>
				<stop  offset="0.9987" style="stop-color:#0085C7"/>
			</linearGradient>
			<polyline class="st40" points="443.7,613.3 349.5,563.8 305.1,587.2 			"/>
			<linearGradient id="SVGID_40_" gradientUnits="userSpaceOnUse" x1="10.4907" y1="352.4922" x2="688.5093" y2="352.4922">
				<stop  offset="0" style="stop-color:#00BDCD"/>
				<stop  offset="0.9987" style="stop-color:#0085C7"/>
			</linearGradient>
			<polyline class="st41" points="262.1,609.8 140.9,673.5 180.7,441.2 12,276.7 245.2,242.8 349.5,31.5 453.8,242.8 687,276.7 
				518.3,441.2 558.1,673.5 444.1,613.6 			"/>
		</g>
	</g>
</g>
<g id="Guides" class="st42">
</g>
<g id="Layer_2">
</g>
</svg>
