<?xml version="1.0" encoding="utf-8"?>
<!-- Generator: Adobe Illustrator 22.0.1, SVG Export Plug-In . SVG Version: 6.00 Build 0)  -->
<svg version="1.1" id="Layer_1" xmlns="http://www.w3.org/2000/svg" xmlns:xlink="http://www.w3.org/1999/xlink" x="0px" y="0px"
	 viewBox="0 0 352.2 345.9" style="enable-background:new 0 0 352.2 345.9;" xml:space="preserve">
<style type="text/css">
	.st0{opacity:0.47;fill:url(#SVGID_1_);}
	.st1{opacity:0.47;fill:url(#SVGID_2_);}
	.st2{fill:#542C0B;}
	.st3{fill:#FF6492;}
	.st4{fill:#F6E5E9;}
	.st5{fill:#744818;}
	.st6{fill:#FFFFFF;}
	.st7{fill:#281D10;}
	.st8{fill:#F4DEE4;}
	.st9{fill:#CC4E73;}
	.st10{fill:#E3CDB5;}
	.st11{fill:#D0AB80;}
	.st12{fill:url(#SVGID_3_);}
	.st13{fill:none;}
	.st14{fill:#797979;}
	.st15{fill:#885E2F;}
	.st16{fill:none;stroke:#D0AB80;stroke-width:1.0736;stroke-miterlimit:10;}
	.st17{fill:none;stroke:#F5DFE5;stroke-width:1.0736;stroke-miterlimit:10;}
</style>
<g>
	<linearGradient id="SVGID_1_" gradientUnits="userSpaceOnUse" x1="176.1273" y1="14.1738" x2="176.1273" y2="500.0468">
		<stop  offset="0" style="stop-color:#00BDCD"/>
		<stop  offset="0.9987" style="stop-color:#0085C7"/>
	</linearGradient>
	<path class="st0" d="M319.2,254.9l-71.6-79.1c0.1-1.3,0.1-2.7,0.1-4c0-0.5,0-1.1,0-1.6l72-80.7l-104.3,22.4c-1.6-1-3.2-2-4.9-2.9
		L176.6,6.3l-32.7,101.6c-1.7,0.9-3.4,1.8-5,2.8L33,88.6l71.6,79.1c-0.1,1.3-0.1,2.7-0.1,4c0,0.5,0,1.1,0,1.6l-72,80.7l104.3-22.4
		c1.6,1,3.2,2,4.9,2.9l33.9,102.7l32.7-101.6c1.7-0.9,3.4-1.8,5-2.8L319.2,254.9z"/>
	
		<linearGradient id="SVGID_2_" gradientUnits="userSpaceOnUse" x1="859.2918" y1="1014.602" x2="859.2918" y2="1500.475" gradientTransform="matrix(0.8921 0.4518 -0.4518 0.8921 -60.8426 -1262.204)">
		<stop  offset="0" style="stop-color:#00BDCD"/>
		<stop  offset="0.9987" style="stop-color:#0085C7"/>
	</linearGradient>
	<path class="st1" d="M266.2,310.6l-28.1-102.9c0.7-1.2,1.3-2.3,1.9-3.5c0.2-0.5,0.5-1,0.7-1.5l100.7-39.5l-103.2-27.1
		c-0.9-1.6-1.9-3.3-3-4.8l16.2-106.9l-75.1,75.8c-1.9,0-3.8,0.1-5.7,0.2L86,32.9l28.1,102.9c-0.7,1.2-1.3,2.3-1.9,3.5
		c-0.2,0.5-0.5,1-0.7,1.5L10.8,180.4l103.2,27.1c0.9,1.6,1.9,3.3,3,4.8l-16.2,106.9l75.1-75.8c1.9,0,3.8-0.1,5.7-0.2L266.2,310.6z"
		/>
	<g>
		<g>
			<g id="XMLID_29_">
				<g>
					<path class="st2" d="M230.3,162.2c2.2,2.1,4.3,6.4,3.9,15.3c-0.7,12.9-12.3,14.9-19,15l0.1,0c0,0-12,12.4-21.2,2.9
						c15.4-6,26.1-19.6,26.1-35.4c0-5.4-1.3-10.6-3.5-15.3l4-1.7c0,0,17.3,5,10.8,17.4c-0.3,0.6-0.6,1.1-1,1.7L230.3,162.2z"/>
					<path class="st2" d="M231.9,160.6c0,0,2.7-0.2,5.2,2.1c-0.4,0.5-0.8,1-1.2,1.6L231.9,160.6z"/>
					<path class="st3" d="M207,252.1c0,0.2,0.1,0.4,0.1,0.6c0,1.6-1.3,2.9-2.9,2.9c-1.6,0-2.9-1.3-2.9-2.9c0-0.1,0-0.2,0-0.3
						c0.1-1.5,1.4-2.6,2.9-2.6C205.5,249.7,206.7,250.7,207,252.1z"/>
					<path class="st4" d="M206.9,229.3l3.7,22.2l-3.6,0.6c-0.3-1.3-1.5-2.3-2.9-2.3c-1.5,0-2.8,1.1-2.9,2.6l-2-0.3l2.6-16.9
						l-2.1-1.6c1.6,0,2.9-1.3,2.9-2.9c0-0.2,0-0.4-0.1-0.6L206.9,229.3z"/>
					<path class="st5" d="M206.9,119.6c4.3-0.4,24.7-1,19.3,22.1c0,0,21.6,6,10.9,21c-2.5-2.3-5.2-2.1-5.2-2.1l-0.5-0.3
						c6.5-12.4-10.8-17.4-10.8-17.4c4.1-18.4-8.7-20.4-14.7-20.4c-0.9,0-1.7,0-2.2,0.1c0.3-1.1,0.5-2.1,0.6-3L206.9,119.6z"/>
					<path class="st4" d="M176.1,265.9c-12.2,0-23.9-2.3-34.7-6.5l1.7-10.5c0.5,0.5,1.3,0.8,2,0.8c1.6,0,2.9-1.3,2.9-2.9
						c0-1.6-1.3-2.9-2.9-2.9c-0.5,0-0.9,0.1-1.3,0.3l4.6-27.7l21.5-8.5l7.6,13.8l5.7-13.8l21.5,8.5l2.1,12.8l-4.3,0.7
						c-0.3-1.3-1.5-2.3-2.9-2.3c-1.6,0-2.9,1.3-2.9,2.9c0,1.6,1.3,2.9,2.9,2.9l2.1,1.6l-2.6,16.9l-1.7,11l0.1,0.5
						C190.7,265.1,183.5,265.9,176.1,265.9z M190.8,218.8c0-1.6-1.3-2.9-2.9-2.9c-1.6,0-2.9,1.3-2.9,2.9c0,1.6,1.3,2.9,2.9,2.9
						C189.5,221.8,190.8,220.5,190.8,218.8z M190.8,246.8c0-1.6-1.3-2.9-2.9-2.9c-1.6,0-2.9,1.3-2.9,2.9c0,1.6,1.3,2.9,2.9,2.9
						C189.5,249.7,190.8,248.4,190.8,246.8z M176.1,236.5c0-1.6-1.3-2.9-2.9-2.9c-1.6,0-2.9,1.3-2.9,2.9c0,1.6,1.3,2.9,2.9,2.9
						C174.8,239.4,176.1,238.1,176.1,236.5z M168.8,255.6c0-1.6-1.3-2.9-2.9-2.9c-1.6,0-2.9,1.3-2.9,2.9c0,1.6,1.3,2.9,2.9,2.9
						C167.4,258.6,168.8,257.2,168.8,255.6z M162.9,221.8c0-1.6-1.3-2.9-2.9-2.9c-1.6,0-2.9,1.3-2.9,2.9c0,1.6,1.3,2.9,2.9,2.9
						C161.6,224.7,162.9,223.4,162.9,221.8z"/>
					<path class="st3" d="M202.6,230c0,0.2,0.1,0.4,0.1,0.6c0,1.6-1.3,2.9-2.9,2.9c-1.6,0-2.9-1.3-2.9-2.9c0-1.6,1.3-2.9,2.9-2.9
						C201.1,227.7,202.3,228.7,202.6,230z"/>
					<path class="st4" d="M207,252.7c0-0.2,0-0.4-0.1-0.6l3.6-0.6l1.3,7.5c-4.6,1.9-9.3,3.3-14.2,4.5l-0.1-0.5l1.7-11l2,0.3
						c0,0.1,0,0.2,0,0.3c0,1.6,1.3,2.9,2.9,2.9C205.7,255.6,207,254.3,207,252.7z"/>
					<path class="st5" d="M220.1,195.6c0,0-16.1,15.9-26.6,0c0.2-0.1,0.4-0.1,0.6-0.2c9.1,9.5,21.2-2.9,21.2-2.9l-0.1,0
						c6.7-0.1,18.3-2.1,19-15c0.5-8.9-1.6-13.2-3.9-15.3l0.1-0.2c0.4-0.6,0.8-1.2,1-1.7l0.5,0.3l4,3.6c0.4-0.5,0.8-1,1.2-1.6
						c2.5,2.3,4.9,6.9,4.4,16.6C240.8,193.3,227.6,195.4,220.1,195.6L220.1,195.6z"/>
					<circle class="st3" cx="187.9" cy="218.8" r="2.9"/>
					<circle class="st3" cx="187.9" cy="246.8" r="2.9"/>
					<path class="st6" d="M177.8,175c6.8-0.1,11.5-1.4,13.4-2c-2,1.1-3.1,4.3-3.7,7.6H168c-0.6-3.3-1.7-6.5-3.7-7.6
						c1.9,0.6,6.6,1.9,13.4,2H177.8z"/>
					<path class="st7" d="M187.5,180.6c-0.7,3.9-0.7,7.8-0.7,7.8s-0.7,0.5-2,1.2l-0.1-0.1c-7.5-5.9-14.4,0-14.4,0
						c-1.1-0.6-1.7-1.1-1.7-1.1s0-3.9-0.7-7.8H187.5z"/>
					<path class="st8" d="M183.7,205l24.5,9.7l8.1,42.4c-1.5,0.7-3,1.4-4.5,2l-1.3-7.5l-3.7-22.2l-2.1-12.8l-21.5-8.5l0.3-0.7V205
						H183.7z"/>
					<path class="st9" d="M173.8,190.7c1.6-0.8,4.5-1.8,7.6,0.1c-1.1,0.3-2.3,0.5-3.7,0.6C176.3,191.3,175,191.1,173.8,190.7z"/>
					<path class="st9" d="M170.4,189.4c0,0,6.9-5.9,14.4,0l0.1,0.1c-0.8,0.4-2,0.9-3.3,1.2h0c-3.2-1.8-6-0.9-7.6-0.1
						C172.4,190.4,171.3,189.9,170.4,189.4z"/>
					<circle class="st3" cx="173.2" cy="236.5" r="2.9"/>
					<path class="st10" d="M183.3,207.9l-5.7,13.8l-7.6-13.8l-0.4-0.8V205v-3.2c2,0.5,4.5,0.8,7.3,0.8c2.5,0,4.8-0.3,6.7-0.7v3v2.2
						L183.3,207.9z"/>
					<path class="st11" d="M176.7,198.6c2.3,0,4.6-0.2,6.8-0.5v3.8c-1.9,0.4-4.2,0.7-6.7,0.7c-2.7,0-5.2-0.3-7.3-0.8v-3.8
						C171.9,198.4,174.3,198.6,176.7,198.6z"/>
					<linearGradient id="SVGID_3_" gradientUnits="userSpaceOnUse" x1="80.5067" y1="166.0698" x2="271.7511" y2="166.0698">
						<stop  offset="0" style="stop-color:#FCBC4B"/>
						<stop  offset="1" style="stop-color:#FF6962"/>
					</linearGradient>
					<path class="st12" d="M169.6,201.8v3.2h0l-24.5,9.7l-8.1,42.4l-0.2,0.4c-33.2-15-56.3-48.4-56.3-87.2
						c0-52.8,42.8-95.6,95.6-95.6s95.6,42.8,95.6,95.6c0,38.5-22.7,71.6-55.4,86.8l-8.1-42.4l-24.5-9.7h-0.2v-3v-3.8
						c3.5-0.5,6.8-1.3,9.9-2.5c10.5,15.8,26.6,0,26.6,0l-0.1,0c7.6-0.1,20.8-2.3,21.5-16.3c0.5-9.7-1.9-14.3-4.4-16.6
						c10.7-15-10.9-21-10.9-21c5.4-23.1-14.9-22.5-19.3-22.1c0.5-1.6,0.7-2.9,0.7-4.1c0-9.9-13.6-8.7-13.6-8.7
						c-1.9-7.5-8.6-4.3-11.4-2.5c-2.5-1.4-12.4-5.8-25,2.5c0,0-17.2-1.6-13,12.8c-0.6-0.1-1.5-0.1-2.5-0.1
						c-6.9,0-21.5,2.3-16.8,22.2c0,0-22.8,6.3-10.1,22.1c-2.1,2.6-3.8,7.2-3.3,15.4c0.8,14,13.9,16.2,21.5,16.3l-0.1,0
						c0,0,16.1,15.9,26.6,0c3.1,1.1,6.3,2,9.7,2.5V201.8z"/>
					<circle class="st3" cx="165.8" cy="255.6" r="2.9"/>
					<path class="st11" d="M186.1,131c2.6,3.7,18.2,8.3,25.5,5.9c0.6,0.7,1.2,1.4,1.7,2.2l-0.1,0.1c-6.4,3.8-24.3-1.1-27.1-5.2
						c-3-4.3-9.1-4.3-19.2-2.1c-9.6,2-11.2-4.8-11.4-5.5c0.3-0.2,0.7-0.3,1-0.5l0.1-0.1c1.1,2,3.9,4.5,10.3,3.2
						C177,126.7,183,126.7,186.1,131z"/>
					<circle class="st3" cx="159.9" cy="221.8" r="2.9"/>
					<path class="st10" d="M173.8,190.7c1.1,0.3,2.4,0.6,3.9,0.7c-0.2,0-0.3,0-0.5,0h1c-0.2,0-0.3,0-0.5,0c1.4-0.1,2.6-0.3,3.7-0.6
						h0c1.4-0.4,2.5-0.8,3.3-1.2c1.3-0.6,2-1.2,2-1.2s0-3.9,0.7-7.8c0.6-3.3,1.7-6.5,3.7-7.6c0.6-0.2,0.9-0.3,0.9-0.3
						c-0.3,0.1-0.6,0.2-0.9,0.3c-1.9,0.6-6.6,1.9-13.4,2h-0.1c-6.8-0.1-11.5-1.4-13.4-2c-0.3-0.2-0.6-0.3-0.9-0.3
						c0,0,0.3,0.1,0.9,0.3c2,1.1,3.1,4.3,3.7,7.6c0.7,3.9,0.7,7.8,0.7,7.8s0.6,0.5,1.7,1.1C171.3,189.9,172.4,190.4,173.8,190.7z
						 M193.5,195.6c-3.1,1.2-6.5,2-9.9,2.5c-2.2,0.3-4.5,0.5-6.8,0.5c-2.4,0-4.8-0.2-7.1-0.5c-3.4-0.5-6.6-1.3-9.7-2.5c0,0,0,0,0,0
						c-15.6-5.9-26.6-19.6-26.6-35.6c0-14.5,9-27.1,22.3-33.7c0.1,0.7,1.8,7.6,11.4,5.5c10.1-2.1,16.1-2.1,19.2,2.1
						c2.8,4,20.7,9,27.1,5.2l0.1-0.1c1.3,1.8,2.4,3.7,3.4,5.6c2.3,4.7,3.5,9.9,3.5,15.3c0,15.9-10.8,29.5-26.1,35.4
						C193.9,195.5,193.7,195.6,193.5,195.6z"/>
					<path class="st2" d="M182.3,108.5c2.5-1.6,8.3-4.6,10,2.3c0,0,12.7-1.2,12,8.8c-0.1,0.9-0.3,1.9-0.6,3c0.5,0,1.3-0.1,2.2-0.1
						c6,0,18.9,2,14.7,20.4l-4,1.7c-1-2-2.1-3.9-3.4-5.6c-0.5-0.8-1.1-1.5-1.7-2.2c-7.4,2.4-22.9-2.1-25.5-5.9
						c-3-4.3-9.1-4.3-19.2-2.1c-6.4,1.4-9.1-1.1-10.3-3.2l-0.1,0.1c-0.3,0.2-0.7,0.3-1,0.5c-13.3,6.6-22.3,19.2-22.3,33.7
						c0,16,11,29.8,26.6,35.6c-9.1,9.1-21-3.1-21-3.1l0.1,0c-6.7-0.1-18.3-2.1-19-15c-0.4-7.6,4-11.8,5.9-14.2
						c-1-1.3-1.8-2.6-2.4-3.8c-5.8-11.8,8.4-16.6,8.4-16.6c-3.8-16.7,6.6-19.9,13-20.3c1.8-0.1,3.2,0,4,0c-0.4-1.4-0.6-2.7-0.6-3.8
						c0-9.1,12-8,12-8C171.4,103.2,180.1,107.2,182.3,108.5z"/>
					<path class="st3" d="M145.2,243.8c1.6,0,2.9,1.3,2.9,2.9c0,1.6-1.3,2.9-2.9,2.9c-0.8,0-1.5-0.3-2-0.8l0.8-4.8
						C144.4,244,144.8,243.8,145.2,243.8z"/>
					<path class="st5" d="M192.3,110.8c-1.7-6.9-7.5-4-10-2.3c-2.2-1.3-11-5.3-22,2.3c0,0-12-1.1-12,8c0,1.1,0.2,2.4,0.6,3.8
						c-0.8-0.1-2.3-0.1-4,0l-0.2-3c-4.2-14.4,13-12.8,13-12.8c12.6-8.3,22.5-3.9,25-2.5c2.8-1.8,9.5-5,11.4,2.5
						c0,0,13.6-1.2,13.6,8.7c0,1.2-0.2,2.6-0.7,4.1l-2.7,0C205.1,109.6,192.3,110.8,192.3,110.8z"/>
					<path class="st5" d="M142,119.5c1.1,0,2,0,2.5,0.1l0.2,3c-6.4,0.4-16.8,3.7-13,20.3c0,0-14.1,4.8-8.4,16.6l-2.2,1.1
						c-0.6,0-3.7,0.2-6.1,3.2c-12.7-15.8,10.1-22.1,10.1-22.1C120.5,121.8,135.2,119.5,142,119.5z"/>
					<path class="st8" d="M145.1,214.7l24.5-9.7h0v2.2l0.4,0.8l-21.5,8.5l-4.6,27.7c-1,0.5-1.7,1.5-1.7,2.7c0,0.8,0.3,1.6,0.9,2.1
						l-1.7,10.5c-1.6-0.6-3.1-1.3-4.7-2l0.2-0.4L145.1,214.7z"/>
					<path class="st5" d="M138.9,192.5c0,0,11.9,12.3,21,3.1c0,0,0,0,0,0c-10.5,15.9-26.6,0-26.6,0l0.1,0
						c-7.6-0.1-20.8-2.3-21.5-16.3c-0.5-8.3,1.2-12.9,3.3-15.4c0.1,0.1,0.2,0.3,0.3,0.4l5.9-3.6c0,0,0,0-0.1,0l2.2-1.1
						c0.6,1.2,1.4,2.5,2.4,3.8c-1.8,2.4-6.3,6.6-5.9,14.2C120.7,190.3,132.2,192.3,138.9,192.5L138.9,192.5z"/>
					<path class="st2" d="M115.1,163.8c2.5-3.1,5.5-3.2,6.1-3.2c0.1,0,0.1,0,0.1,0l-5.9,3.6C115.3,164.1,115.2,164,115.1,163.8z"/>
				</g>
				<g>
				</g>
			</g>
		</g>
		<circle class="st13" cx="176.1" cy="170.3" r="95.6"/>
		<g>
			<path class="st11" d="M173.5,164.8c-0.4-0.4-0.7-1.1-0.7-1.8c0-0.7,0.3-1.4,0.8-1.9c0.9-1,2.3-1.5,3.6-1.5c1.3,0,2.7,0.4,3.7,1.3
				c0.5,0.5,0.9,1.1,0.9,1.8c0.1,0.7-0.1,1.4-0.5,1.8c0.4-1.2-0.1-2.4-1-3c-0.9-0.6-2-0.9-3.1-0.9c-1.1,0-2.2,0.4-3,1.1
				C173.3,162.4,172.9,163.6,173.5,164.8z"/>
		</g>
		<g>
			<path class="st3" d="M192.2,172.7c-2.2,1.2-4.6,2-7,2.8c-2.4,0.7-4.9,1.3-7.5,1.7l0-4.3l0.1,0l0,0l0,4.3c-2.5-0.4-5-1-7.5-1.7
				c-2.4-0.7-4.8-1.6-7-2.8c2.4,0.5,4.9,0.7,7.3,0.7c2.4,0,4.8-0.2,7.2-0.5l0,4.3l0,0l-0.1,0l0-4.3c2.4,0.3,4.8,0.5,7.2,0.5
				C187.3,173.3,189.8,173.2,192.2,172.7z"/>
		</g>
		<g>
			<path class="st3" d="M192.2,172.7c-1.5,0.4-2.3,1.7-2.8,3c-0.5,1.3-0.8,2.7-1.1,4.1c-0.2,1.4-0.4,2.8-0.5,4.3
				c-0.1,1.4-0.1,2.9-0.1,4.3l0,0.5l-0.3,0.3c-0.8,0.6-1.5,1-2.4,1.5c-0.8,0.4-1.6,0.7-2.5,1c-0.9,0.3-1.7,0.5-2.6,0.6
				c-0.9,0.2-1.8,0.3-2.6,0.3l-0.1-2.1l1,0l-0.1,2.1c-0.9-0.1-1.8-0.2-2.6-0.3c-0.9-0.1-1.7-0.4-2.6-0.6c-0.9-0.3-1.7-0.6-2.5-1
				c-0.8-0.4-1.6-0.8-2.4-1.5l-0.3-0.3l0-0.5c0-1.4,0-2.9-0.1-4.3c-0.1-1.4-0.2-2.9-0.5-4.3c-0.2-1.4-0.5-2.8-1.1-4.1
				c-0.5-1.3-1.3-2.6-2.8-3c0.7,0.1,1.5,0.4,2,0.9c0.6,0.5,1,1.1,1.4,1.8c0.7,1.3,1.3,2.7,1.6,4.2c0.4,1.4,0.7,2.9,0.9,4.4
				c0.2,1.5,0.3,2.9,0.4,4.5l-0.3-0.7c0.6,0.4,1.3,0.8,2,1.1c0.7,0.3,1.5,0.6,2.2,0.8c0.8,0.2,1.5,0.4,2.3,0.5
				c0.8,0.1,1.6,0.2,2.4,0.3l-0.1,2.1l-1,0l-0.1-2.1c0.8-0.1,1.6-0.1,2.4-0.3c0.8-0.1,1.6-0.3,2.3-0.5c0.8-0.2,1.5-0.5,2.2-0.8
				c0.7-0.3,1.5-0.7,2-1.1l-0.3,0.7c0-1.5,0.2-3,0.4-4.5c0.2-1.5,0.5-2.9,0.9-4.4c0.4-1.4,0.9-2.9,1.6-4.2c0.4-0.7,0.8-1.3,1.4-1.8
				C190.7,173.1,191.5,172.7,192.2,172.7z"/>
		</g>
		<path class="st13" d="M170.4,189.4c0,0,6.9-5.9,14.4,0"/>
		<line class="st13" x1="168" y1="180.6" x2="187.5" y2="180.6"/>
		<g>
			<g>
				<path class="st14" d="M183.5,151.7c1-1.7,2.9-3,4.8-3.6c1-0.3,2.1-0.5,3.1-0.4c0.5,0,1.1,0.1,1.6,0.1c0.5,0.1,1.1,0.2,1.6,0.4
					c2.1,0.6,4,1.9,5.2,3.6c1.3,1.7,1.8,4.1,1.1,6c-0.7-1.9-1.7-3.2-3-4.3c-1.2-1.1-2.7-1.8-4.2-2.2c-0.8-0.2-1.6-0.4-2.4-0.5
					c-0.8-0.1-1.7-0.1-2.5-0.1C187.1,150.7,185.4,151.1,183.5,151.7z"/>
			</g>
			<g>
				<g>
					<path class="st14" d="M190.2,149.2c1.2-0.5,1.9-1.3,2.5-2.3c0.3-0.5,0.6-1,0.9-1.5c0.1-0.3,0.3-0.5,0.4-0.8
						c0.1-0.3,0.3-0.6,0.5-0.8c0.1,0.6,0,1.3-0.1,1.9c-0.2,0.6-0.4,1.2-0.8,1.8c-0.4,0.5-0.9,1-1.5,1.4
						C191.5,149.2,190.8,149.4,190.2,149.2z"/>
				</g>
				<g>
					<path class="st14" d="M196.1,150.5c0.8-1,1.6-1.9,2.5-2.8c0.4-0.4,0.8-0.9,1.2-1.3l1.2-1.5c0,1.3-0.7,2.6-1.6,3.5
						c-0.5,0.5-0.9,0.9-1.5,1.3C197.3,150.1,196.7,150.4,196.1,150.5z"/>
				</g>
				<g>
					<path class="st14" d="M199.5,153.5c1.4-0.7,2.8-1.3,4.1-2c0.7-0.3,1.3-0.7,1.9-1c0.6-0.4,1.2-0.8,1.8-1.3
						c-0.2,0.8-0.7,1.4-1.3,2c-0.6,0.6-1.3,1-2,1.3c-0.7,0.3-1.4,0.6-2.2,0.8C201.1,153.5,200.3,153.6,199.5,153.5z"/>
				</g>
			</g>
		</g>
		<g>
			<g>
				<path class="st14" d="M168.7,151.7c-1.9-0.7-3.6-1-5.3-1.1c-0.8,0-1.7,0-2.5,0.1c-0.8,0.1-1.6,0.3-2.4,0.5
					c-1.5,0.5-3,1.2-4.2,2.2c-1.3,1-2.3,2.4-3,4.3c-0.7-1.9-0.2-4.2,1.1-6c1.2-1.8,3.2-3,5.2-3.6c0.5-0.2,1-0.3,1.6-0.4
					c0.5,0,1.1-0.1,1.6-0.1c1.1,0,2.1,0.1,3.1,0.4C165.8,148.8,167.7,150,168.7,151.7z"/>
			</g>
			<g>
				<g>
					<path class="st14" d="M162,149.2c-0.6,0.2-1.3,0-1.9-0.3c-0.6-0.3-1.1-0.8-1.5-1.4c-0.4-0.6-0.6-1.2-0.8-1.8
						c-0.1-0.6-0.2-1.3-0.1-1.9c0.2,0.3,0.3,0.6,0.5,0.8c0.1,0.3,0.3,0.5,0.4,0.8c0.3,0.5,0.6,1,0.9,1.5
						C160.1,147.9,160.9,148.7,162,149.2z"/>
				</g>
				<g>
					<path class="st14" d="M156.1,150.5c-0.6-0.2-1.2-0.5-1.8-0.8c-0.5-0.4-1-0.8-1.5-1.3c-0.9-1-1.6-2.2-1.6-3.5l1.2,1.5
						c0.4,0.5,0.8,0.9,1.2,1.3C154.5,148.6,155.3,149.5,156.1,150.5z"/>
				</g>
				<g>
					<path class="st14" d="M152.7,153.5c-0.8,0.1-1.6,0-2.3-0.2c-0.8-0.2-1.5-0.4-2.2-0.8c-0.7-0.4-1.4-0.8-2-1.3
						c-0.6-0.6-1.1-1.2-1.3-2c0.6,0.5,1.2,0.9,1.8,1.3c0.6,0.4,1.3,0.7,1.9,1C149.9,152.2,151.3,152.8,152.7,153.5z"/>
				</g>
			</g>
		</g>
		<g>
			<g>
				<g>
					<path class="st15" d="M144.6,119.6c-0.8-1.7-1.3-3.6-1.2-5.7c0.1-2,1.2-4.1,2.8-5.4c1.6-1.3,3.6-2.1,5.6-2.5
						c2-0.4,3.9-0.5,5.9-0.3l-0.7,0.2c1.9-1.2,3.9-2.3,6.1-3.1c2.1-0.8,4.4-1.3,6.6-1.5c2.3-0.2,4.6-0.1,6.8,0.4
						c2.2,0.5,4.3,1.3,6.2,2.6c-2-0.9-4.2-1.4-6.3-1.6c-2.1-0.2-4.3-0.2-6.4,0.2c-2.1,0.3-4.1,1-6.1,1.8c-2,0.8-3.8,1.9-5.6,3.1
						l-0.3,0.2l-0.4,0c-1.7-0.1-3.6,0-5.3,0.3c-1.7,0.3-3.4,0.9-4.8,1.8c-1.4,0.9-2.3,2.4-2.8,4.1
						C144.3,115.8,144.3,117.7,144.6,119.6z"/>
				</g>
				<g>
					<path class="st15" d="M144.6,119.6c-3,0-6,0.4-8.9,1.2c-2.8,0.8-5.5,2.2-7.3,4.3c-0.9,1.1-1.6,2.3-2.1,3.6
						c-0.5,1.3-0.7,2.7-0.9,4.1c-0.2,2.8,0.2,5.8,0.8,8.6l0.2,1l-1,0.3c-2.3,0.7-4.7,1.7-6.8,2.9c-2.1,1.3-4.1,2.8-5.4,4.8
						c-0.6,1-1.1,2.1-1.3,3.3c-0.2,1.2-0.1,2.4,0.1,3.6c0.6,2.4,1.8,4.7,3.3,6.8c-1.8-1.8-3.4-4-4.3-6.5c-0.4-1.3-0.6-2.7-0.5-4.1
						c0.1-1.4,0.5-2.8,1.2-4c1.4-2.5,3.5-4.3,5.8-5.7c2.3-1.5,4.7-2.5,7.3-3.3l-0.8,1.3c-0.7-3-1.1-6.2-0.8-9.3
						c0.3-3.2,1.5-6.4,3.8-8.7c2.3-2.4,5.3-3.6,8.4-4.2C138.5,119.1,141.6,119.1,144.6,119.6z"/>
				</g>
				<g>
					<path class="st15" d="M121.4,160.6c-2.2,0.2-4.2,1.5-5.5,3.2c-1.4,1.6-2.1,3.7-2.5,5.8c-0.3,1-0.3,2.1-0.5,3.2
						c-0.1,1.1-0.1,2.2-0.1,3.3l0.1,3.3l0.2,1.6c0,0.3,0.1,0.5,0.1,0.8l0.2,0.8c0.8,4.2,3.6,7.6,7.4,9.6c3.8,2.1,8.2,3,12.6,3.5
						c-4.5,0.3-9.1-0.1-13.4-2c-2.1-1-4.1-2.4-5.6-4.3c-1.5-1.8-2.6-4.1-3.1-6.4L111,182c0-0.3-0.1-0.6-0.1-0.9l-0.2-1.8
						c0-1.1,0-2.3,0-3.4c0.1-1.1,0.2-2.3,0.3-3.4c0.2-1.1,0.3-2.3,0.7-3.4c0.6-2.2,1.7-4.4,3.4-6.1
						C116.8,161.4,119.1,160.4,121.4,160.6z"/>
				</g>
				<g>
					<path class="st15" d="M133.3,195.6c2.2,1.4,4.4,2.7,6.7,3.8c2.3,1,4.7,1.9,7.1,2.1c2.4,0.3,4.8-0.1,7-1.2
						c2.2-1.1,4.1-2.8,5.9-4.7c-1.1,2.4-2.7,4.6-5.1,6.2c-1.1,0.8-2.5,1.3-3.8,1.7c-1.4,0.3-2.8,0.4-4.2,0.3
						c-2.8-0.3-5.4-1.4-7.6-2.8C136.9,199.5,134.9,197.7,133.3,195.6z"/>
				</g>
				<g>
					<path class="st15" d="M207,119.6c0.2-1.9,0.3-3.8-0.1-5.5c-0.4-1.7-1.3-3.1-2.7-4.1c-1.4-1-3-1.5-4.8-1.8
						c-1.7-0.3-3.6-0.5-5.3-0.4l-0.9,0.1l-0.2-0.9c-0.3-1-0.6-2.1-1.2-2.8c-0.6-0.8-1.4-1.3-2.5-1.4c-1-0.2-2.2,0-3.3,0.3
						c-1.1,0.3-2.2,0.7-3.4,1.2c0.9-0.8,1.9-1.5,3-2c1.1-0.5,2.4-0.9,3.7-0.9c1.4,0,2.9,0.6,3.8,1.7c1,1.1,1.5,2.3,1.9,3.6l-1.2-0.8
						c2-0.1,4-0.1,5.9,0.3c1.9,0.4,3.9,1.1,5.5,2.5c1.7,1.3,2.7,3.4,2.8,5.4C208.3,116,207.8,117.9,207,119.6z"/>
				</g>
				<g>
					<path class="st15" d="M207,119.6c3-0.5,6.1-0.5,9.1,0.1c3,0.6,6.1,1.9,8.3,4.3c2.3,2.3,3.4,5.6,3.7,8.7
						c0.3,3.2-0.1,6.3-0.8,9.3l-0.8-1.3c2.6,0.8,5,1.9,7.3,3.3c2.2,1.4,4.4,3.3,5.7,5.7c0.7,1.2,1.1,2.6,1.2,4
						c0.1,1.4-0.1,2.8-0.5,4c-0.9,2.5-2.5,4.7-4.3,6.5c1.5-2.1,2.7-4.4,3.3-6.8c0.2-1.2,0.3-2.4,0.1-3.6c-0.2-1.2-0.6-2.3-1.3-3.3
						c-1.3-2-3.2-3.6-5.4-4.8c-2.1-1.2-4.5-2.3-6.8-3l-1-0.3l0.2-1c0.6-2.9,1-5.8,0.8-8.6c-0.1-1.4-0.4-2.8-0.8-4.1
						c-0.5-1.3-1.2-2.5-2.1-3.6c-1.8-2.1-4.4-3.5-7.2-4.4C213,120,210,119.6,207,119.6z"/>
				</g>
				<g>
					<path class="st15" d="M231.9,160.6c2.3-0.3,4.6,0.8,6.3,2.4c1.7,1.7,2.7,3.9,3.4,6.1c0.4,1.1,0.5,2.3,0.7,3.4
						c0.1,1.1,0.2,2.3,0.3,3.4c0,1.1,0,2.3,0,3.4l-0.2,1.8c0,0.3-0.1,0.6-0.1,0.9l-0.2,0.9c-0.5,2.3-1.6,4.6-3.1,6.4
						c-1.5,1.8-3.5,3.3-5.6,4.3c-4.3,2-8.9,2.4-13.4,2c4.4-0.6,8.9-1.4,12.6-3.5c3.7-2.1,6.6-5.5,7.4-9.6l0.2-0.8
						c0-0.3,0.1-0.5,0.1-0.8l0.2-1.6l0.1-3.3c0-1.1,0-2.2-0.1-3.3c-0.2-1.1-0.2-2.2-0.5-3.2c-0.4-2.1-1.2-4.2-2.5-5.8
						C236.1,162.1,234.2,160.8,231.9,160.6z"/>
				</g>
				<g>
					<path class="st15" d="M220.1,195.6c-1.6,2.1-3.6,3.9-5.9,5.3c-2.3,1.4-4.9,2.5-7.6,2.8c-1.4,0.1-2.8,0.1-4.2-0.3
						c-1.4-0.3-2.7-0.8-3.8-1.7c-2.3-1.5-4-3.8-5.1-6.2c1.8,1.9,3.7,3.6,5.9,4.7c2.2,1.1,4.6,1.5,7,1.2c2.4-0.2,4.8-1.1,7.1-2.1
						C215.6,198.3,217.9,197,220.1,195.6z"/>
				</g>
			</g>
			<g>
				<path class="st15" d="M155.8,123.5c0.4,1.3,1.1,2.5,2,3.3c1,0.9,2.1,1.4,3.4,1.6c1.2,0.3,2.5,0.2,3.8,0l1.9-0.4l2-0.5
					c2.6-0.6,5.3-1.1,8.1-1.2c1.4-0.1,2.8,0,4.2,0.4c1.4,0.3,2.9,0.9,4.1,1.9c0.3,0.2,0.6,0.5,0.8,0.8c0.2,0.3,0.5,0.6,0.7,0.9
					c0.3,0.4,0.7,0.8,1.2,1.1c1,0.7,2.2,1.3,3.3,1.8c2.4,1.1,4.9,1.8,7.5,2.5c2.6,0.6,5.2,1.1,7.8,1.2c1.3,0.1,2.6,0,3.9-0.2
					c1.3-0.2,2.6-0.7,3.6-1.5c-0.9,1-2.2,1.7-3.5,2.1c-1.3,0.4-2.7,0.6-4.1,0.7c-2.7,0.1-5.5-0.1-8.2-0.6c-2.7-0.5-5.3-1.2-7.9-2.3
					c-1.3-0.5-2.5-1.1-3.8-2c-0.6-0.4-1.2-0.9-1.7-1.6l-0.6-0.7c-0.2-0.2-0.4-0.4-0.6-0.6c-1.8-1.5-4.4-1.9-6.9-1.9
					c-2.6,0-5.2,0.4-7.9,0.8l-2,0.3c-0.7,0.1-1.4,0.2-2.1,0.3c-1.4,0-2.8,0.1-4.2-0.4c-1.4-0.4-2.6-1.2-3.6-2.2
					C156.5,126.1,156,124.8,155.8,123.5z"/>
			</g>
		</g>
		<g>
			<path class="st16" d="M211.5,136.8c5.5,6.5,8.7,14.5,8.7,23.2c0,21.3-19.5,38.7-43.5,38.7s-43.5-17.3-43.5-38.7
				c0-14.9,9.4-27.8,23.3-34.2"/>
			<line class="st16" x1="183.6" y1="205" x2="183.6" y2="198.1"/>
			<line class="st16" x1="169.6" y1="198.1" x2="169.6" y2="205"/>
		</g>
		<g>
			<line class="st17" x1="201.8" y1="235.1" x2="197.5" y2="263"/>
			<g>
				<polyline class="st17" points="169.6,205 169.6,207.2 177.6,221.8 183.6,207.2 183.6,205 				"/>
				<line class="st17" x1="151.5" y1="235.1" x2="155.8" y2="263"/>
				<polyline class="st17" points="169.6,205 145.1,214.7 137,257.1 				"/>
				<polyline class="st17" points="183.7,205 208.2,214.7 216.3,257.1 				"/>
			</g>
		</g>
		<path class="st13" d="M183.6,202c-1.9,0.4-4.2,0.7-6.7,0.7c-2.7,0-5.2-0.3-7.3-0.8"/>
	</g>
</g>
</svg>
