<svg id="Layer_1" data-name="Layer 1" xmlns="http://www.w3.org/2000/svg" viewBox="0 0 16 16"><defs><style>.cls-1{fill:#fff;}.cls-2{fill:#0076cf;}.cls-3,.cls-4,.cls-5{fill:#ff7500;}.cls-3{opacity:0.5;}.cls-4{opacity:0.75;}</style></defs><title>TF-favicon</title><rect class="cls-1" width="16" height="16" rx="1.96"/><path class="cls-2" d="M15,5.93H8.11A.38.38,0,0,0,7.85,6a.36.36,0,0,0-.11.26V7.57a.36.36,0,0,0,.11.26.34.34,0,0,0,.26.11h2a.31.31,0,0,1,.3.3v5a.38.38,0,0,0,.37.37h1.61a.34.34,0,0,0,.26-.11.36.36,0,0,0,.11-.26v-5a.3.3,0,0,1,.3-.3H15a.33.33,0,0,0,.26-.11.36.36,0,0,0,.11-.26V6.3A.38.38,0,0,0,15,5.93Z"/><path class="cls-3" d="M8.61,8.72v.43H5.88V6.87H7V5.93H5.17a.25.25,0,0,0-.25.25V9.35a.76.76,0,0,0,.76.76H9.32a.26.26,0,0,0,.26-.25V8.72Z"/><path class="cls-4" d="M10.66,5.15a1.53,1.53,0,0,0-1.43-1H3.38a.25.25,0,0,0-.25.25V10.1a1.79,1.79,0,0,0,1.79,1.79H9.58v-1H5A.89.89,0,0,1,4.14,10V5.15Z"/><path class="cls-5" d="M9.58,12.62H4.64a2.3,2.3,0,0,1-2.3-2.3V3.38h7a2.36,2.36,0,0,1,2.22,1.77h1.05A3.38,3.38,0,0,0,9.37,2.36H1.57a.25.25,0,0,0-.25.25v7.71a3.32,3.32,0,0,0,3.32,3.32H9.58Z"/></svg>