<svg id="Layer_1" data-name="Layer 1" xmlns="http://www.w3.org/2000/svg" xmlns:xlink="http://www.w3.org/1999/xlink" viewBox="0 0 564 292"><defs><style>.cls-1,.cls-10{fill:none;}.cls-2{clip-path:url(#clip-path);}.cls-3{fill:#ffb81c;}.cls-4{fill:#d0006f;}.cls-5{clip-path:url(#clip-path-2);}.cls-6{fill:#5bc2e7;}.cls-7{fill:#ff7500;}.cls-8{clip-path:url(#clip-path-3);}.cls-9{clip-path:url(#clip-path-4);}.cls-10{stroke:#fff;stroke-miterlimit:10;stroke-width:20px;opacity:0.3;}</style><clipPath id="clip-path"><rect class="cls-1" x="637" width="563" height="292" transform="translate(1837 292) rotate(-180)"/></clipPath><clipPath id="clip-path-2"><rect class="cls-1" x="-156" width="720" height="292"/></clipPath><clipPath id="clip-path-3"><rect class="cls-1" x="-80" y="-438.67" width="604" height="293"/></clipPath><clipPath id="clip-path-4"><rect class="cls-1" x="-2158" y="-1007" width="1920" height="816"/></clipPath></defs><title>GraphicAccent-30</title><g class="cls-2"><path class="cls-3" d="M563.64,426.31c0-176.38,143.5-319.88,319.89-319.88s319.88,143.5,319.88,319.88-143.5,319.88-319.88,319.88S563.64,602.69,563.64,426.31Zm34.82,0c0,157.19,127.88,285.07,285.07,285.07S1168.6,583.5,1168.6,426.31,1040.72,141.24,883.53,141.24,598.46,269.12,598.46,426.31Z"/><path class="cls-4" d="M789.4,609c2.93,0,5.92-.05,8.86-.14l1.54,49c-3.45.11-6.95.17-10.4.17h-.15Zm-31.85,47.48,4.77-48.8c3,.29,6,.54,9,.73l-3.18,48.92C764.58,657.09,761,656.8,757.55,656.46Zm58.64-48.77c3-.29,6-.63,8.93-1l6.32,48.62c-3.48.45-7,.85-10.52,1.19Zm-90.05,44.13,9.54-48.09c2.92.58,5.9,1.12,8.83,1.6l-8,48.38C733.1,653.14,729.59,652.51,726.14,651.82Zm116.7-48c2.92-.58,5.88-1.21,8.79-1.89l11,47.77c-3.43.79-6.91,1.54-10.35,2.22ZM695.33,644.11l14.23-46.91c2.86.87,5.76,1.69,8.63,2.46L705.51,647C702.12,646.11,698.7,645.14,695.33,644.11ZM869,597.28c2.85-.86,5.74-1.79,8.58-2.75L893.27,641c-3.34,1.13-6.75,2.22-10.12,3.24ZM665.45,633.41l18.79-45.28c2.75,1.14,5.55,2.25,8.33,3.29l-17.3,45.88C672,636.06,668.69,634.76,665.45,633.41Zm228.92-45.2c2.77-1.15,5.55-2.36,8.26-3.58l20.25,44.65c-3.2,1.45-6.48,2.87-9.75,4.22ZM636.8,619.83,660,576.62c2.62,1.4,5.3,2.78,8,4.1l-21.73,43.95C643.05,623.12,639.89,621.49,636.8,619.83Zm282-43.16c2.63-1.41,5.27-2.88,7.86-4.37l24.54,42.43c-3,1.77-6.17,3.51-9.27,5.17ZM609.61,603.5l27.27-40.74c2.46,1.65,5,3.29,7.54,4.87l-25.93,41.61C615.5,607.38,612.51,605.45,609.61,603.5Zm332.26-40.71c2.47-1.65,5-3.38,7.4-5.12l28.57,39.84c-2.86,2-5.79,4.08-8.7,6Zm-357.73,21.8,31.12-37.89c2.3,1.9,4.66,3.77,7,5.59l-29.87,38.88C589.64,589,586.85,586.82,584.14,584.59Zm379.39-37.87c2.3-1.9,4.61-3.86,6.85-5.82l32.33,36.85c-2.64,2.32-5.35,4.62-8.07,6.86Zm-402.9,16.56,34.66-34.68c2.11,2.12,4.29,4.22,6.45,6.25l-33.5,35.79C565.68,568.25,563.12,565.77,560.63,563.28ZM983.5,528.61c2.11-2.1,4.21-4.27,6.25-6.45l35.77,33.53c-2.41,2.56-4.88,5.12-7.36,7.6ZM539.3,539.77l37.87-31.13c1.89,2.29,3.85,4.6,5.83,6.86l-36.85,32.33C543.83,545.19,541.52,542.47,539.3,539.77Zm462.31-31.12c1.89-2.29,3.77-4.66,5.59-7l38.86,29.89c-2.14,2.79-4.36,5.57-6.58,8.28Zm-481.25,5.63L561.09,487c1.66,2.49,3.39,5,5.12,7.39L526.39,523C524.35,520.13,522.32,517.2,520.36,514.28ZM1017.68,487c1.65-2.47,3.29-5,4.87-7.53l41.6,25.94c-1.86,3-3.79,6-5.74,8.88ZM504,487l43.22-23.15c1.41,2.63,2.88,5.27,4.38,7.85L509.15,496.3C507.38,493.25,505.64,490.13,504,487ZM1031.55,464c1.4-2.62,2.78-5.3,4.1-8l43.94,21.74c-1.55,3.14-3.18,6.3-4.84,9.4Zm-541.19-5.68,45.29-18.78c1.15,2.76,2.35,5.54,3.58,8.25L494.59,468C493.14,464.83,491.72,461.55,490.36,458.29Zm552.71-18.6c1.14-2.75,2.25-5.55,3.3-8.32l45.87,17.31c-1.24,3.28-2.55,6.58-3.89,9.82ZM479.64,428.31l46.92-14.2c.87,2.85,1.79,5.74,2.76,8.58l-46.43,15.74C481.75,435.08,480.66,431.68,479.64,428.31Zm572.51-13.93c.87-2.86,1.7-5.77,2.47-8.64l47.35,12.7c-.9,3.39-1.88,6.81-2.91,10.19ZM472,397.5,520,388c.58,2.92,1.22,5.87,1.89,8.77l-47.76,11.09C473.38,404.43,472.63,401,472,397.5Zm586.75-9.24c.58-2.93,1.12-5.9,1.6-8.83l48.38,8c-.57,3.46-1.21,7-1.9,10.42ZM467.33,366.08l48.79-4.74c.29,3,.64,6,1,8.92l-48.61,6.34C468.07,373.13,467.67,369.59,467.33,366.08Zm595.31-4.47c.3-2.95.54-6,.74-8.95l48.92,3.21c-.23,3.51-.52,7.06-.86,10.54ZM465.8,334.31v-.51h49v.6c0,3,0,6,.15,9L466,345C465.85,341.46,465.8,337.91,465.8,334.31Zm598.17.09c0-2.89,0-5.82-.13-8.72l49-1.52c.11,3.4.16,6.85.16,10.24v.3h-49ZM466.52,312.62c.23-3.52.53-7.06.87-10.55l48.79,4.85c-.3,3-.55,6-.74,9Zm595.17-13.81,48.62-6.28c.45,3.48.85,7,1.19,10.52l-48.8,4.7C1062.41,304.78,1062.07,301.77,1061.69,298.81ZM470.17,281.09c.57-3.46,1.22-7,1.91-10.42l48.07,9.61c-.58,2.93-1.13,5.9-1.61,8.83Zm586.76-8.78,47.77-11c.79,3.43,1.53,6.91,2.21,10.35l-48.1,9.46C1058.23,278.17,1057.6,275.22,1056.93,272.31Zm-580-22.26c.91-3.38,1.89-6.81,2.92-10.18l46.89,14.3c-.87,2.86-1.7,5.76-2.47,8.63Zm572.66-3.67,46.44-15.7c1.13,3.35,2.22,6.75,3.24,10.13L1052.31,255C1051.45,252.11,1050.53,249.22,1049.57,246.38Zm-562.9-26.56c1.25-3.28,2.56-6.58,3.91-9.81l45.25,18.86c-1.14,2.74-2.26,5.54-3.31,8.32Zm553,1.48,44.66-20.23c1.45,3.2,2.87,6.48,4.22,9.75l-45.31,18.74C1042.11,226.79,1040.9,224,1039.68,221.3ZM499.35,190.76c1.57-3.16,3.2-6.31,4.85-9.38l43.18,23.21c-1.4,2.61-2.79,5.29-4.12,8Zm528,6.55,42.45-24.52c1.76,3.05,3.49,6.17,5.15,9.27l-43.23,23.11C1030.32,202.54,1028.85,199.89,1027.36,197.31ZM514.82,163.08c1.85-3,3.79-6,5.75-8.87l40.7,27.33c-1.66,2.48-3.31,5-4.88,7.53Zm497.92,11.57,39.85-28.56c2,2.85,4.07,5.78,6,8.71L1017.86,182C1016.2,179.56,1014.48,177.07,1012.74,174.65ZM532.93,137c2.15-2.78,4.36-5.56,6.59-8.27l37.84,31.17c-1.89,2.3-3.78,4.67-5.6,7ZM996,153.52l36.88-32.3c2.31,2.64,4.62,5.36,6.84,8.07l-37.9,31.1C999.91,158.08,998,155.77,996,153.52ZM553.5,112.89c2.41-2.57,4.89-5.12,7.37-7.6L595.49,140c-2.11,2.11-4.21,4.27-6.26,6.45Zm423.75,21.26,33.55-35.76c2.54,2.39,5.1,4.87,7.59,7.37L983.7,140.4C981.59,138.28,979.42,136.18,977.25,134.15ZM576.33,90.84c2.64-2.31,5.35-4.61,8.08-6.84l31.08,37.91c-2.32,1.9-4.63,3.86-6.87,5.82Zm380.39,25.84,29.92-38.84c2.78,2.14,5.56,4.36,8.27,6.58l-31.16,37.86C961.45,120.39,959.09,118.5,956.72,116.68ZM601.21,71.12c2.86-2.05,5.79-4.08,8.72-6l27.22,40.78c-2.49,1.66-5,3.37-7.39,5.11Zm333.4,30.2,26-41.58c3,1.86,5.95,3.79,8.86,5.74l-27.3,40.72C939.67,104.54,937.13,102.9,934.61,101.32ZM627.93,53.91c3-1.76,6.16-3.49,9.27-5.15L660.29,92c-2.64,1.41-5.28,2.88-7.87,4.37Zm283.2,34.3,21.76-43.93c3.16,1.56,6.31,3.19,9.39,4.85L919.09,92.32C916.48,90.92,913.8,89.54,911.13,88.21ZM656.22,39.4c3.2-1.45,6.48-2.87,9.74-4.22L684.68,80.5c-2.77,1.14-5.55,2.34-8.26,3.57ZM886.49,77.48l17.34-45.86c3.27,1.24,6.58,2.55,9.81,3.9L894.81,80.78C892.06,79.64,889.26,78.53,886.49,77.48ZM685.83,27.74c3.35-1.13,6.76-2.22,10.12-3.24l14.14,47c-2.85.86-5.74,1.78-8.58,2.74Zm175,41.47L873.6,21.87c3.38.91,6.81,1.89,10.18,2.92L869.5,71.69C866.64,70.82,863.74,70,860.87,69.21ZM716.43,19.07c3.43-.79,6.91-1.54,10.35-2.21L736.22,65c-2.92.57-5.87,1.2-8.78,1.87ZM834.56,63.52l8-48.37c3.46.57,7,1.21,10.42,1.9l-9.58,48.08C840.46,64.55,837.49,64,834.56,63.52ZM747.69,13.47c3.48-.45,7-.85,10.51-1.18l4.68,48.8c-3,.29-6,.62-8.93,1Zm60.1,47L811,11.51c3.52.24,7.07.53,10.55.87l-4.82,48.79C813.79,60.88,810.78,60.63,807.79,60.43ZM779.32,11c3.35-.11,6.74-.16,10.08-.16h.45v49h-.45c-2.85,0-5.73,0-8.59.13Z"/></g><g class="cls-5"><path class="cls-6" d="M317.47,746.19c-176.38,0-319.88-143.5-319.88-319.88s143.5-319.88,319.88-319.88,319.89,143.5,319.89,319.88S493.86,746.19,317.47,746.19Zm0-604.95C160.28,141.24,32.4,269.12,32.4,426.31S160.28,711.38,317.47,711.38,602.54,583.5,602.54,426.31,474.66,141.24,317.47,141.24Z"/><path class="cls-7" d="M411.75,658h-.15c-3.45,0-7-.06-10.4-.17l1.54-49c2.94.09,5.93.14,8.86.14Zm21.15-.7-3.18-48.92c3-.19,6-.44,9-.73l4.77,48.8C440,656.8,436.42,657.09,432.9,657.31Zm-52.82-.82c-3.5-.34-7-.74-10.52-1.19l6.32-48.62c2.95.38,5.95.72,8.93,1Zm84.36-2.78-7.95-48.38c2.93-.48,5.91-1,8.83-1.6l9.54,48.09C471.41,652.51,467.9,653.14,464.44,653.71Zm-115.77-1.82c-3.44-.68-6.92-1.43-10.35-2.22l11.05-47.77c2.91.68,5.87,1.31,8.79,1.89ZM495.49,647l-12.68-47.36c2.87-.77,5.77-1.59,8.63-2.46l14.23,46.91C502.3,645.14,498.88,646.11,495.49,647Zm-177.64-2.81c-3.37-1-6.78-2.11-10.12-3.24l15.72-46.44c2.84,1,5.73,1.89,8.58,2.75Zm207.88-6.91-17.3-45.88c2.78-1,5.58-2.15,8.33-3.29l18.79,45.28C532.31,634.76,529,636.06,525.73,637.3Zm-237.86-3.8c-3.27-1.35-6.55-2.77-9.75-4.22l20.25-44.65c2.71,1.22,5.49,2.43,8.26,3.58Zm266.94-8.83-21.73-43.95c2.67-1.32,5.35-2.7,8-4.1l23.15,43.21C561.11,621.49,558,623.12,554.81,624.67ZM259.12,619.9c-3.1-1.66-6.22-3.4-9.27-5.17l24.54-42.43c2.59,1.49,5.23,3,7.86,4.37Zm323.39-10.66-25.93-41.61c2.54-1.58,5.08-3.22,7.54-4.87l27.27,40.74C588.49,605.45,585.5,607.38,582.51,609.24Zm-350.65-5.7c-2.91-1.95-5.84-4-8.7-6l28.57-39.84c2.44,1.74,4.93,3.47,7.4,5.12Zm376.72-12.37-29.87-38.88c2.37-1.82,4.73-3.69,7-5.59l31.12,37.89C614.15,586.82,611.36,589,608.58,591.17Zm-402.22-6.56c-2.72-2.24-5.43-4.54-8.07-6.86l32.33-36.85c2.24,2,4.55,3.92,6.85,5.82Zm426.4-14-33.5-35.79c2.16-2,4.34-4.13,6.45-6.25l34.66,34.68C637.88,565.77,635.32,568.25,632.76,570.64Zm-449.92-7.35c-2.48-2.48-5-5-7.36-7.6l35.77-33.53c2,2.18,4.14,4.35,6.25,6.45Zm472-15.46L618,515.5c2-2.26,3.94-4.57,5.83-6.86l37.87,31.13C659.48,542.47,657.17,545.19,654.85,547.83Zm-493.33-8c-2.22-2.71-4.44-5.49-6.58-8.28l38.86-29.89c1.82,2.37,3.7,4.74,5.59,7ZM674.61,523l-39.82-28.6c1.73-2.42,3.46-4.9,5.12-7.39l40.73,27.29C678.68,517.2,676.65,520.13,674.61,523Zm-532-8.65c-2-2.91-3.88-5.9-5.74-8.88l41.6-25.94c1.58,2.52,3.22,5.06,4.87,7.53Zm549.26-18-42.43-24.57c1.5-2.58,3-5.22,4.38-7.85L697,487C695.36,490.13,693.62,493.25,691.85,496.3Zm-565.6-9.15c-1.66-3.1-3.29-6.26-4.84-9.4L165.35,456c1.32,2.66,2.7,5.34,4.1,8ZM706.41,468l-44.64-20.27c1.23-2.71,2.43-5.49,3.58-8.25l45.29,18.78C709.28,461.55,707.86,464.83,706.41,468ZM112.65,458.5c-1.34-3.24-2.65-6.54-3.89-9.82l45.87-17.31c1.05,2.77,2.16,5.57,3.3,8.32Zm605.46-20.07-46.43-15.74c1-2.84,1.89-5.73,2.76-8.58l46.92,14.2C720.34,431.68,719.25,435.08,718.11,438.43Zm-616.17-9.8c-1-3.38-2-6.8-2.91-10.19l47.35-12.7c.77,2.87,1.6,5.78,2.47,8.64Zm624.89-20.78-47.76-11.09c.67-2.9,1.31-5.85,1.89-8.77l48.09,9.51C728.37,401,727.62,404.43,726.83,407.85Zm-632.61-10c-.69-3.45-1.33-7-1.9-10.42l48.38-8c.48,2.93,1,5.9,1.6,8.83ZM732.47,376.6l-48.61-6.34c.38-2.94.73-5.95,1-8.92l48.79,4.74C733.33,369.59,732.93,373.13,732.47,376.6ZM89.56,366.41c-.34-3.48-.63-7-.86-10.54l48.92-3.21c.2,3,.44,6,.74,8.95ZM735,345l-49-1.57c.1-3,.15-6,.15-9v-.6h49v.51C735.2,337.91,735.15,341.46,735,345ZM137,334.7H88v-.3c0-3.39,0-6.84.16-10.24l49,1.52c-.09,2.9-.13,5.83-.13,8.72Zm548.53-18.82c-.19-3-.44-6-.74-9l48.79-4.85c.34,3.49.64,7,.87,10.55ZM138.3,307.75l-48.8-4.7c.34-3.5.74-7,1.19-10.52l48.62,6.28C138.93,301.77,138.59,304.78,138.3,307.75Zm544.16-18.64c-.48-2.93-1-5.9-1.61-8.83l48.07-9.61c.69,3.46,1.34,7,1.91,10.42Zm-540.27-8-48.1-9.46c.68-3.44,1.42-6.92,2.21-10.35l47.77,11C143.4,275.22,142.77,278.17,142.19,281.09ZM676.75,262.8c-.77-2.87-1.6-5.77-2.47-8.63l46.89-14.3c1,3.37,2,6.8,2.92,10.18ZM148.69,255l-46.94-14.16c1-3.38,2.11-6.78,3.24-10.13l46.44,15.7C150.47,249.22,149.55,252.11,148.69,255Zm519.79-17.78c-1.05-2.78-2.17-5.58-3.31-8.32L710.42,210c1.35,3.23,2.66,6.53,3.91,9.81Zm-510.73-7.63-45.31-18.74c1.35-3.27,2.77-6.55,4.22-9.75l44.66,20.23C160.1,224,158.89,226.79,157.75,229.56Zm500-17c-1.33-2.68-2.72-5.36-4.12-8l43.18-23.21c1.65,3.07,3.28,6.22,4.85,9.38Zm-488.47-7.39L126,182.06c1.66-3.1,3.39-6.22,5.15-9.27l42.45,24.52C172.15,199.89,170.68,202.54,169.27,205.17Zm475.34-16.1c-1.57-2.51-3.22-5-4.88-7.53l40.7-27.33c2,2.92,3.9,5.91,5.75,8.87Zm-461.47-7L142.38,154.8c2-2.93,4-5.86,6-8.71l39.85,28.56C186.52,177.07,184.8,179.56,183.14,182ZM629.24,167c-1.82-2.36-3.71-4.73-5.6-7l37.84-31.17c2.23,2.71,4.44,5.49,6.59,8.27Zm-430-6.58-37.9-31.1c2.22-2.71,4.53-5.43,6.84-8.07L205,153.52C203.05,155.77,201.09,158.08,199.2,160.39Zm412.57-13.94c-2-2.18-4.15-4.34-6.26-6.45l34.62-34.71c2.48,2.48,5,5,7.37,7.6Zm-394.47-6-34.69-34.64c2.49-2.5,5-5,7.59-7.37l33.55,35.76C221.58,136.18,219.41,138.28,217.3,140.4Zm375.08-12.67c-2.24-2-4.55-3.92-6.87-5.82L616.59,84c2.73,2.23,5.44,4.53,8.08,6.84Zm-355.13-5.45L206.09,84.42c2.71-2.22,5.49-4.44,8.27-6.58l29.92,38.84C241.91,118.5,239.55,120.39,237.25,122.28Zm334-11.3c-2.42-1.74-4.9-3.45-7.39-5.11l27.22-40.78c2.93,2,5.86,4,8.72,6ZM258.85,106.2l-27.3-40.72c2.91-2,5.89-3.88,8.86-5.74l26,41.58C263.87,102.9,261.33,104.54,258.85,106.2Zm289.73-9.82c-2.59-1.49-5.23-3-7.87-4.37L563.8,48.76c3.11,1.66,6.23,3.39,9.27,5.15ZM281.91,92.32,258.72,49.13c3.08-1.66,6.23-3.29,9.39-4.85l21.76,43.93C287.2,89.54,284.52,90.92,281.91,92.32Zm242.67-8.25c-2.71-1.23-5.49-2.43-8.26-3.57L535,35.18c3.26,1.35,6.54,2.77,9.74,4.22ZM306.19,80.78,287.36,35.52c3.23-1.35,6.54-2.66,9.81-3.9l17.34,45.86C311.74,78.53,308.94,79.64,306.19,80.78Zm193.3-6.59c-2.84-1-5.73-1.88-8.58-2.74L505.05,24.5c3.36,1,6.77,2.11,10.12,3.24Zm-168-2.5-14.28-46.9c3.37-1,6.8-2,10.18-2.92l12.73,47.34C337.26,70,334.36,70.82,331.5,71.69Zm142.06-4.85c-2.91-.67-5.86-1.3-8.78-1.87l9.44-48.11c3.44.67,6.92,1.42,10.35,2.21ZM357.61,65.13,348,17.05c3.45-.69,7-1.33,10.42-1.9l8,48.37C363.51,64,360.54,64.55,357.61,65.13Zm89.44-3c-2.95-.38-6-.71-8.93-1l4.68-48.8c3.49.33,7,.73,10.51,1.18Zm-62.8-.92-4.82-48.79c3.48-.34,7-.63,10.55-.87l3.23,48.92C390.22,60.63,387.21,60.88,384.25,61.17ZM420.19,60c-2.86-.09-5.74-.13-8.59-.13h-.45v-49h.45c3.34,0,6.73,0,10.08.16Z"/></g><g class="cls-8"><path class="cls-7" d="M213.63.32a15.77,15.77,0,1,0,19.43,10.94A15.77,15.77,0,0,0,213.63.32Z"/><path class="cls-7" d="M189.64,32.08A15.76,15.76,0,1,0,209.08,43,15.76,15.76,0,0,0,189.64,32.08Z"/><path class="cls-7" d="M342.93-18.85a15.78,15.78,0,0,0-3.63,22,15.77,15.77,0,0,0,22,3.63,15.77,15.77,0,0,0,3.63-22A15.77,15.77,0,0,0,342.93-18.85Z"/><path class="cls-7" d="M331.4,19.39a15.77,15.77,0,1,0,22,3.63A15.77,15.77,0,0,0,331.4,19.39Z"/><path class="cls-7" d="M319.88,57.63a15.77,15.77,0,1,0,22,3.63A15.77,15.77,0,0,0,319.88,57.63Z"/><path class="cls-7" d="M308.2,95.68a15.76,15.76,0,1,0,22,3.63A15.78,15.78,0,0,0,308.2,95.68Z"/><path class="cls-7" d="M438.94,17.31a15.77,15.77,0,1,0-4.11-21.92A15.78,15.78,0,0,0,438.94,17.31Z"/><path class="cls-7" d="M441.19,57.19a15.77,15.77,0,1,0-4.11-21.92A15.76,15.76,0,0,0,441.19,57.19Z"/><path class="cls-7" d="M443.44,97.06a15.76,15.76,0,1,0-4.12-21.91A15.75,15.75,0,0,0,443.44,97.06Z"/><path class="cls-7" d="M463.28,110.78a15.76,15.76,0,1,0,4.11,21.91A15.77,15.77,0,0,0,463.28,110.78Z"/><path class="cls-7" d="M572.35,21.88a15.76,15.76,0,1,0-19.18,11.36A15.76,15.76,0,0,0,572.35,21.88Z"/><path class="cls-7" d="M588.1,58.58a15.76,15.76,0,1,0-19.18,11.36A15.76,15.76,0,0,0,588.1,58.58Z"/></g><g class="cls-9"><circle class="cls-10" cx="-306" cy="-287" r="380"/></g></svg>