<?xml version="1.0" encoding="UTF-8"?>
<svg enable-background="new 0 0 200 200" version="1.1" viewBox="0 0 200 200" xml:space="preserve" xmlns="http://www.w3.org/2000/svg">
<style type="text/css">
	.st0{fill:url(#a);}
</style>
<linearGradient id="a" x2="200" y1="100" y2="100" gradientUnits="userSpaceOnUse">
	<stop stop-color="#F05B31" offset="0"/>
	<stop stop-color="#F05D5B" offset="1"/>
</linearGradient>
<path class="st0" d="M100,0v29.1c39.1,0,70.9,31.7,70.9,70.9s-31.7,70.9-70.9,70.9S29.1,139.1,29.1,100c0-25.7,13.7-48.3,34.2-60.7  L48,14.6C19.2,32.1,0,63.8,0,100c0,55.2,44.8,100,100,100s100-44.8,100-100S155.2,0,100,0z"/>
	<path d="m52.1 93.4c0-2 0.4-3.9 1.1-5.6 0.8-1.7 1.8-3.3 3.1-4.5 1.3-1.3 2.9-2.3 4.7-3s3.7-1.1 5.8-1.1c2.2 0 4.2 0.4 6 1.2s3.4 1.9 4.7 3.4 2.3 3.3 3.1 5.5c0.7 2.2 1.1 4.6 1.1 7.3 0 4.2-0.4 7.9-1.1 11s-1.8 5.8-3.1 7.8c-1.3 2.1-3 3.6-4.9 4.7-1.9 1-4 1.5-6.2 1.5-2.7 0-5.2-0.7-7.4-2-2.2-1.4-3.9-3.3-5-5.7l2.6-2.3c0.8 2 2.1 3.6 3.9 4.8s3.8 1.8 5.9 1.8c1.7 0 3.3-0.4 4.7-1.2s2.6-2 3.6-3.5 1.8-3.4 2.3-5.7 0.8-4.8 0.9-7.7c-0.9 2.3-2.4 4.1-4.5 5.5s-4.5 2.1-7.1 2.1c-2 0-3.9-0.4-5.6-1.1s-3.3-1.7-4.5-3c-1.3-1.3-2.3-2.8-3-4.5-0.7-1.9-1.1-3.7-1.1-5.7zm14.7-10.7c-1.5 0-2.9 0.3-4.2 0.8-1.3 0.6-2.5 1.3-3.5 2.3s-1.8 2.1-2.4 3.4-0.9 2.7-0.9 4.2 0.3 2.9 0.9 4.2 1.4 2.5 2.4 3.4c1 1 2.1 1.7 3.5 2.3 1.3 0.6 2.7 0.8 4.2 0.8s2.9-0.3 4.2-0.8c1.3-0.6 2.5-1.3 3.5-2.3s1.7-2.1 2.3-3.4 0.8-2.7 0.8-4.2c0-1.4-0.3-2.8-0.8-4.1-0.6-1.3-1.3-2.5-2.3-3.5s-2.1-1.8-3.5-2.3c-1.3-0.6-2.7-0.8-4.2-0.8z"/>
	<path d="m108.1 109v3.6h-19.8v-3.6h8.3v-25.1c-0.3 0.5-0.8 1-1.6 1.5s-1.6 1.1-2.5 1.5c-0.9 0.5-1.9 0.9-2.8 1.2-1 0.3-1.8 0.5-2.6 0.5v-3.9c0.9 0 1.9-0.3 3-0.8s2.1-1.1 3-1.8c1-0.7 1.8-1.3 2.4-1.9 0.7-0.6 1-1 1.1-1.2h4.1v30h7.4z"/>
	<path d="m120.5 87.2c-1.2 0-2.4-0.2-3.4-0.6-1.1-0.4-2-1-2.8-1.8s-1.4-1.6-1.9-2.7c-0.5-1-0.7-2.1-0.7-3.3s0.2-2.3 0.7-3.3 1.1-1.9 1.9-2.7 1.7-1.4 2.8-1.8 2.2-0.7 3.4-0.7 2.3 0.2 3.4 0.7 2 1.1 2.8 1.8c0.8 0.8 1.4 1.7 1.9 2.7 0.4 1 0.7 2.1 0.7 3.3s-0.2 2.3-0.7 3.3-1.1 1.9-1.9 2.7-1.7 1.4-2.8 1.8-2.2 0.6-3.4 0.6zm-7.3 23.8l16.3-19.9 15.9-20.3 2 1.8-16.3 19.9-16 20.4-1.9-1.9zm7.3-26.1c0.8 0 1.5-0.2 2.2-0.5s1.3-0.8 1.8-1.3c0.5-0.6 0.9-1.2 1.2-1.9s0.4-1.5 0.4-2.3c0-0.9-0.2-1.7-0.5-2.4s-0.7-1.4-1.3-1.9c-0.5-0.5-1.1-1-1.8-1.3s-1.4-0.5-2.2-0.5-1.6 0.2-2.3 0.5-1.3 0.8-1.8 1.3c-0.5 0.6-0.9 1.2-1.2 1.9s-0.4 1.5-0.4 2.3 0.2 1.6 0.5 2.3 0.7 1.4 1.3 2c0.5 0.6 1.1 1 1.8 1.3 0.8 0.4 1.5 0.5 2.3 0.5zm19.7 28.3c-1.2 0-2.3-0.2-3.4-0.6s-2-1-2.8-1.8-1.4-1.7-1.9-2.7-0.7-2.1-0.7-3.3 0.2-2.3 0.7-3.3c0.4-1 1.1-1.9 1.9-2.7s1.7-1.4 2.8-1.8 2.2-0.6 3.4-0.6 2.4 0.2 3.4 0.6c1.1 0.4 2 1 2.8 1.8s1.4 1.7 1.9 2.7 0.7 2.1 0.7 3.3-0.2 2.3-0.7 3.3-1.1 1.9-1.9 2.7-1.7 1.4-2.8 1.8-2.2 0.6-3.4 0.6zm0-2.4c0.8 0 1.6-0.2 2.3-0.5s1.3-0.8 1.8-1.3 0.9-1.2 1.2-1.9 0.4-1.5 0.4-2.3-0.2-1.6-0.5-2.3-0.7-1.4-1.3-2-1.1-1-1.8-1.3-1.4-0.5-2.2-0.5-1.5 0.2-2.2 0.5-1.3 0.8-1.8 1.3c-0.5 0.6-0.9 1.2-1.2 1.9s-0.4 1.5-0.4 2.3c0 0.9 0.2 1.7 0.5 2.4s0.7 1.4 1.3 1.9c0.5 0.5 1.1 1 1.8 1.3 0.5 0.4 1.3 0.5 2.1 0.5z"/>
</svg>
