<?xml version="1.0" encoding="utf-8"?>
<!-- Generator: Adobe Illustrator 22.1.0, SVG Export Plug-In . SVG Version: 6.00 Build 0)  -->
<svg version="1.1" id="Layer_1" xmlns="http://www.w3.org/2000/svg" xmlns:xlink="http://www.w3.org/1999/xlink" x="0px" y="0px"
	 viewBox="0 0 626 72" style="enable-background:new 0 0 626 72;" xml:space="preserve">
<style type="text/css">
	.st0{fill:url(#);}
	.st1{fill:#00ACBD;}
	.st2{fill:#F15740;}
	.st3{fill:#F15B33;}
	.st4{fill:#06B0C2;}
	.st5{fill:#03ADBF;}
	.st6{fill:#FFFFFF;}
	.st7{fill:url(#SVGID_1_);}
	.st8{fill:url(#SVGID_2_);}
	.st9{fill:url(#SVGID_3_);}
	.st10{fill:url(#SVGID_4_);}
	.st11{fill:url(#SVGID_5_);}
	.st12{fill:url(#SVGID_6_);}
	.st13{fill:url(#SVGID_7_);}
	.st14{fill:url(#SVGID_8_);}
	.st15{fill:url(#SVGID_9_);}
	.st16{fill:url(#SVGID_10_);}
	.st17{fill:url(#SVGID_11_);}
	.st18{fill:url(#SVGID_12_);}
	.st19{fill:url(#SVGID_13_);}
	.st20{fill:url(#SVGID_14_);}
	.st21{fill:url(#SVGID_15_);}
	.st22{fill:url(#SVGID_16_);}
	.st23{fill:url(#SVGID_17_);}
	.st24{fill:url(#SVGID_18_);}
	.st25{fill:url(#SVGID_19_);}
	.st26{fill:url(#SVGID_20_);}
	.st27{fill:url(#SVGID_21_);}
	.st28{fill:url(#SVGID_22_);}
	.st29{fill:url(#SVGID_23_);}
	.st30{fill:url(#SVGID_24_);}
	.st31{fill:url(#SVGID_25_);}
	.st32{fill:url(#SVGID_26_);}
	.st33{fill:url(#SVGID_27_);}
	.st34{fill:url(#SVGID_28_);}
	.st35{fill:url(#SVGID_29_);}
	.st36{fill:url(#SVGID_30_);}
	.st37{fill:url(#SVGID_31_);}
	.st38{fill:url(#SVGID_32_);}
	.st39{fill:url(#SVGID_33_);}
	.st40{fill:url(#SVGID_34_);}
	.st41{fill:url(#SVGID_35_);}
	.st42{fill:url(#SVGID_36_);}
	.st43{fill:url(#SVGID_37_);}
	.st44{fill:url(#SVGID_38_);}
	.st45{fill:url(#SVGID_39_);}
	.st46{fill:url(#SVGID_40_);}
	.st47{fill:url(#SVGID_41_);}
	.st48{fill:url(#SVGID_42_);}
	.st49{fill:url(#SVGID_43_);}
	.st50{fill:url(#SVGID_44_);}
	.st51{fill:url(#SVGID_45_);}
	.st52{fill:url(#SVGID_46_);}
	.st53{fill:url(#SVGID_47_);}
	.st54{fill:url(#SVGID_48_);}
	.st55{fill:url(#SVGID_49_);}
	.st56{fill:url(#SVGID_50_);}
	.st57{fill:url(#SVGID_51_);}
	.st58{fill:url(#SVGID_52_);}
	.st59{fill:url(#SVGID_53_);}
	.st60{fill:url(#SVGID_54_);}
	.st61{fill:url(#SVGID_55_);}
	.st62{fill:url(#SVGID_56_);}
	.st63{fill:url(#SVGID_57_);}
	.st64{fill:url(#SVGID_58_);}
	.st65{fill:url(#SVGID_59_);}
	.st66{fill:url(#SVGID_60_);}
	.st67{fill:url(#SVGID_61_);}
	.st68{fill:url(#SVGID_62_);}
	.st69{fill:url(#SVGID_63_);}
	.st70{fill:url(#SVGID_64_);}
	.st71{fill:url(#SVGID_65_);}
	.st72{fill:url(#SVGID_66_);}
	.st73{fill:url(#SVGID_67_);}
	.st74{fill:url(#SVGID_68_);}
	.st75{fill:url(#SVGID_69_);}
	.st76{fill:url(#SVGID_70_);}
	.st77{fill:url(#SVGID_71_);}
	.st78{fill:url(#SVGID_72_);}
	.st79{fill:url(#SVGID_73_);}
	.st80{fill:url(#SVGID_74_);}
	.st81{fill:url(#SVGID_75_);}
	.st82{fill:url(#SVGID_76_);}
	.st83{fill:url(#SVGID_77_);}
	.st84{fill:url(#SVGID_78_);}
	.st85{fill:url(#SVGID_79_);}
	.st86{fill:url(#SVGID_80_);}
	.st87{fill:url(#SVGID_81_);}
	.st88{fill:url(#SVGID_82_);}
	.st89{fill:url(#SVGID_83_);}
	.st90{fill:url(#SVGID_84_);}
	.st91{fill:url(#SVGID_85_);}
	.st92{fill:url(#SVGID_86_);}
	.st93{fill:url(#SVGID_87_);}
	.st94{fill:url(#SVGID_88_);}
	.st95{fill:url(#SVGID_89_);}
	.st96{fill:url(#SVGID_90_);}
	.st97{fill:url(#SVGID_91_);}
	.st98{fill:url(#SVGID_92_);}
	.st99{fill:url(#SVGID_93_);}
	.st100{fill:url(#SVGID_94_);}
	.st101{fill:url(#SVGID_95_);}
	.st102{fill:url(#SVGID_96_);}
	.st103{fill:url(#SVGID_97_);}
	.st104{fill:url(#SVGID_98_);}
	.st105{fill:url(#SVGID_99_);}
	.st106{fill:url(#SVGID_100_);}
	.st107{fill:url(#SVGID_101_);}
	.st108{fill:url(#SVGID_102_);}
	.st109{fill:url(#SVGID_103_);}
	.st110{fill:url(#SVGID_104_);}
	.st111{fill:url(#SVGID_105_);}
	.st112{fill:url(#SVGID_106_);}
	.st113{fill:url(#SVGID_107_);}
	.st114{fill:url(#SVGID_108_);}
	.st115{fill:url(#SVGID_109_);}
	.st116{fill:url(#SVGID_110_);}
	.st117{fill:url(#SVGID_111_);}
	.st118{fill:url(#SVGID_112_);}
	.st119{fill:url(#SVGID_113_);}
	.st120{fill:url(#SVGID_114_);}
	.st121{fill:url(#SVGID_115_);}
	.st122{fill:url(#SVGID_116_);}
	.st123{fill:url(#SVGID_117_);}
	.st124{fill:url(#SVGID_118_);}
	.st125{fill:url(#SVGID_119_);}
	.st126{clip-path:url(#SVGID_121_);fill:url(#SVGID_122_);}
	.st127{fill:url(#SVGID_123_);}
	.st128{fill:url(#SVGID_124_);}
	.st129{fill:url(#SVGID_125_);}
	.st130{fill:url(#SVGID_126_);}
	.st131{fill:url(#SVGID_127_);}
	.st132{fill:url(#SVGID_128_);}
	.st133{fill:url(#SVGID_129_);}
	.st134{fill:url(#SVGID_130_);}
	.st135{fill:url(#SVGID_131_);}
	.st136{fill:url(#SVGID_132_);}
	.st137{fill:url(#SVGID_133_);}
	.st138{fill:url(#SVGID_134_);}
	.st139{fill:url(#SVGID_135_);}
</style>
<path class="st6" d="M32.9,25c-2.3-2.7-5.8-4.3-10.5-4.3c-9.2,0-16.9,8.1-16.9,18.6c0,10.5,7.6,18.6,16.9,18.6
	c4.7,0,8.2-1.6,10.5-4.3v3.3h10.6V21.7H32.9V25z M24.5,47.9c-4.9,0-8.4-3.3-8.4-8.6c0-5.3,3.5-8.6,8.4-8.6c4.9,0,8.4,3.3,8.4,8.6
	C32.9,44.6,29.4,47.9,24.5,47.9z"/>
<path class="st6" d="M87.6,21.7h-4.7v10.2h4.7v25.1h10.6V31.8h6.6V21.7h-6.6c0-4.1,2.6-5.3,6.6-4.9V6.6C93,5.9,87.6,11.8,87.6,21.7z
	"/>
<path class="st6" d="M133.2,25c-2.3-2.7-5.8-4.3-10.5-4.3c-9.2,0-16.9,8.1-16.9,18.6c0,10.5,7.6,18.6,16.9,18.6
	c4.7,0,8.2-1.6,10.5-4.3v3.3h10.6V21.7h-10.6V25z M124.8,47.9c-4.9,0-8.4-3.3-8.4-8.6c0-5.3,3.5-8.6,8.4-8.6c4.9,0,8.4,3.3,8.4,8.6
	C133.2,44.6,129.6,47.9,124.8,47.9z"/>
<path class="st6" d="M191,20.7c-5,0-8.2,1.8-10.2,4.7c-2-3-5.1-4.7-9.2-4.7c-4.7,0-7.8,1.8-9.4,4.2v-3.2h-10.6v35.2h10.6V37
	c0-4.2,2-6.6,5.5-6.6c3.4,0,5.1,2.3,5.1,5.8v20.7h10.6V37c0-4.2,2-6.6,5.5-6.6c3.4,0,5.1,2.3,5.1,5.8v20.7h10.6V35.3
	C204.4,26.5,199.1,20.7,191,20.7z"/>
<path class="st6" d="M264,43.2l-7.8-21.6h-11.6l14,33.6c-1.6,4.3-3.9,5.9-8.8,5.9V71c9.9,0.5,16.1-3.9,20.1-15.2l12.1-34.2h-11.3
	L264,43.2z"/>
<path class="st6" d="M318.3,31.1c3.1,0,5.6,1.5,6.8,3.9l9.2-5.4c-3-5.4-9.1-9-15.9-9c-10.7,0-18.7,8.1-18.7,18.6
	c0,10.5,8,18.6,18.7,18.6c6.9,0,12.9-3.6,15.9-9.1l-9.2-5.3c-1.1,2.5-3.7,3.9-6.8,3.9c-4.6,0-8-3.3-8-8.2
	C310.4,34.4,313.7,31.1,318.3,31.1z"/>
<path class="st6" d="M359.3,20.7c-4.7,0-8.2,1.7-10.1,4.3V7.6h-10.6v49.4h10.6V37.7c0-5,2.7-7.3,6.6-7.3c3.4,0,6.1,2,6.1,6.4v20.1
	h10.6V35.3C372.5,25.7,366.4,20.7,359.3,20.7z"/>
<path class="st6" d="M405.4,25c-2.3-2.7-5.8-4.3-10.5-4.3c-9.2,0-16.9,8.1-16.9,18.6c0,10.5,7.6,18.6,16.9,18.6
	c4.7,0,8.2-1.6,10.5-4.3v3.3h10.6V21.7h-10.6V25z M397,47.9c-4.9,0-8.4-3.3-8.4-8.6c0-5.3,3.5-8.6,8.4-8.6c4.9,0,8.4,3.3,8.4,8.6
	C405.4,44.6,401.8,47.9,397,47.9z"/>
<path class="st6" d="M477.4,20.7c-11.1,0-18.8,8.1-18.8,18.6c0,10.5,7.5,18.6,19.5,18.6c6.7,0,11.9-2.5,15.4-7.3l-8.5-4.9
	c-1.4,1.5-3.9,2.7-6.8,2.7c-3.9,0-7.1-1.3-8.5-4.9h25c0.3-1.3,0.4-2.7,0.4-4.2C495.3,28.6,487.7,20.7,477.4,20.7z M469.6,35.6
	c1-3.6,3.7-5.6,7.7-5.6c3.2,0,6.3,1.5,7.5,5.6H469.6z"/>
<path class="st6" d="M522,20.7c-4.7,0-8.2,1.7-10.1,4.3v-3.3h-10.6v35.2h10.6V37.7c0-5,2.7-7.3,6.6-7.3c3.4,0,6.1,2,6.1,6.4v20.1
	h10.6V35.3C535.2,25.7,529.1,20.7,522,20.7z"/>
<path class="st6" d="M568.3,25.3c-2.3-2.9-5.7-4.6-10.3-4.6c-10,0-17.3,8.2-17.3,17.9c0,9.7,7.3,17.9,17.3,17.9
	c4.6,0,8-1.7,10.3-4.6v3.2c0,5-3,7.5-8,7.5c-4.7,0-6.7-2-8-4.4l-9,5.2c3.2,5.8,9.4,8.5,16.7,8.5c9.4,0,18.6-5,18.6-16.8V21.7h-10.3
	V25.3z M559.8,46.8c-5,0-8.5-3.3-8.5-8.2c0-4.9,3.5-8.2,8.5-8.2c5,0,8.5,3.3,8.5,8.2C568.3,43.4,564.8,46.8,559.8,46.8z"/>
<path class="st6" d="M621.3,39.3c0-10.6-7.6-18.6-17.9-18.6c-11.1,0-18.8,8.1-18.8,18.6c0,10.5,7.5,18.6,19.5,18.6
	c6.7,0,11.9-2.5,15.4-7.3l-8.5-4.9c-1.4,1.5-3.9,2.7-6.8,2.7c-3.9,0-7.1-1.3-8.5-4.9h25C621.1,42.2,621.3,40.8,621.3,39.3z
	 M595.6,35.6c1-3.6,3.7-5.6,7.7-5.6c3.2,0,6.3,1.5,7.5,5.6H595.6z"/>
<polygon class="st6" points="222.3,6.4 211.7,12.4 211.7,18.6 222.3,18.6 "/>
<polygon class="st6" points="230,56.9 240.6,56.9 240.6,6.4 230,12.4 "/>
<rect x="211.7" y="21.7" class="st6" width="10.6" height="35.2"/>
<polygon class="st6" points="61.8,6.4 51.2,12.5 51.2,18.7 61.8,18.7 "/>
<rect x="51.3" y="21.8" class="st6" width="10.6" height="35.2"/>
<polygon class="st6" points="423.7,56.9 434.3,56.9 434.3,6.4 423.7,12.4 "/>
<polygon class="st6" points="442.1,56.9 452.6,56.9 452.6,6.4 442.1,12.4 "/>
</svg>
