<svg xmlns="http://www.w3.org/2000/svg" xmlns:xlink="http://www.w3.org/1999/xlink" viewBox="0 0 218.09 250.5"><defs><style>.cls-1{fill:url(#New_Gradient_Swatch_3);}.cls-2{fill:url(#New_Gradient_Swatch_copy);}.cls-3,.cls-37,.cls-38{fill:#fff;}.cls-4{fill:url(#New_Gradient_Swatch_copy-2);}.cls-5{fill:url(#New_Gradient_Swatch_copy-3);}.cls-6{fill:url(#New_Gradient_Swatch_copy-4);}.cls-7{fill:url(#New_Gradient_Swatch_copy-5);}.cls-8{fill:url(#New_Gradient_Swatch_copy-6);}.cls-9{fill:url(#New_Gradient_Swatch_3-2);}.cls-10{fill:url(#New_Gradient_Swatch_3-3);}.cls-11{fill:url(#New_Gradient_Swatch_3-4);}.cls-12{fill:url(#New_Gradient_Swatch_3-5);}.cls-13{fill:url(#New_Gradient_Swatch_3-6);}.cls-14{fill:url(#New_Gradient_Swatch_3-7);}.cls-15{fill:url(#New_Gradient_Swatch_3-8);}.cls-16{fill:url(#New_Gradient_Swatch_3-9);}.cls-17{fill:url(#New_Gradient_Swatch_3-10);}.cls-18{fill:url(#New_Gradient_Swatch_3-11);}.cls-19{fill:url(#New_Gradient_Swatch_3-12);}.cls-20{fill:url(#New_Gradient_Swatch_3-13);}.cls-21{fill:url(#New_Gradient_Swatch_3-14);}.cls-22{fill:url(#New_Gradient_Swatch_3-15);}.cls-23{fill:url(#New_Gradient_Swatch_3-16);}.cls-24{fill:url(#New_Gradient_Swatch_3-17);}.cls-25{fill:url(#New_Gradient_Swatch_3-18);}.cls-26{fill:url(#New_Gradient_Swatch_3-19);}.cls-27{fill:url(#New_Gradient_Swatch_3-20);}.cls-28{fill:url(#New_Gradient_Swatch_3-21);}.cls-29{fill:url(#New_Gradient_Swatch_3-22);}.cls-30{fill:url(#New_Gradient_Swatch_3-23);}.cls-31{fill:url(#New_Gradient_Swatch_3-24);}.cls-32{fill:url(#New_Gradient_Swatch_3-25);}.cls-33{fill:url(#New_Gradient_Swatch_3-26);}.cls-34{fill:url(#New_Gradient_Swatch_3-27);}.cls-35{fill:url(#New_Gradient_Swatch_3-28);}.cls-36{fill:url(#New_Gradient_Swatch_3-29);}.cls-37,.cls-38{stroke-linecap:round;stroke-linejoin:round;stroke-width:2.14px;}.cls-37{stroke:url(#New_Gradient_Swatch_3-30);}.cls-38{stroke:url(#New_Gradient_Swatch_3-31);}.cls-39{fill:url(#New_Gradient_Swatch_3-32);}.cls-40{fill:url(#New_Gradient_Swatch_copy-7);}</style><linearGradient id="New_Gradient_Swatch_3" y1="90.58" x2="181.15" y2="90.58" gradientUnits="userSpaceOnUse"><stop offset="0" stop-color="#02b0c2"/><stop offset="1" stop-color="#0083c5"/></linearGradient><linearGradient id="New_Gradient_Swatch_copy" x1="152.19" y1="179.67" x2="48.39" y2="179.67" gradientUnits="userSpaceOnUse"><stop offset="0" stop-color="#c7edf2"/><stop offset="1" stop-color="#c4deef"/></linearGradient><linearGradient id="New_Gradient_Swatch_copy-2" x1="194" y1="179.69" x2="109.63" y2="179.69" xlink:href="#New_Gradient_Swatch_copy"/><linearGradient id="New_Gradient_Swatch_copy-3" x1="169.23" y1="262.61" x2="123.73" y2="262.61" xlink:href="#New_Gradient_Swatch_copy"/><linearGradient id="New_Gradient_Swatch_copy-4" x1="139.25" y1="131.41" x2="130.94" y2="131.41" xlink:href="#New_Gradient_Swatch_copy"/><linearGradient id="New_Gradient_Swatch_copy-5" x1="166.95" y1="176.79" x2="151.79" y2="176.79" xlink:href="#New_Gradient_Swatch_copy"/><linearGradient id="New_Gradient_Swatch_copy-6" x1="252.67" y1="133.92" x2="207.15" y2="133.92" xlink:href="#New_Gradient_Swatch_copy"/><linearGradient id="New_Gradient_Swatch_3-2" x1="110.55" y1="132.33" x2="100.09" y2="132.33" xlink:href="#New_Gradient_Swatch_3"/><linearGradient id="New_Gradient_Swatch_3-3" x1="140.87" y1="125.16" x2="131.48" y2="125.16" xlink:href="#New_Gradient_Swatch_3"/><linearGradient id="New_Gradient_Swatch_3-4" x1="184.19" y1="179.64" x2="109.09" y2="179.64" xlink:href="#New_Gradient_Swatch_3"/><linearGradient id="New_Gradient_Swatch_3-5" x1="106.73" y1="158.22" x2="51.37" y2="158.22" xlink:href="#New_Gradient_Swatch_3"/><linearGradient id="New_Gradient_Swatch_3-6" x1="180.31" y1="179.85" x2="137.65" y2="179.85" xlink:href="#New_Gradient_Swatch_3"/><linearGradient id="New_Gradient_Swatch_3-7" x1="158.95" y1="181.59" x2="132.68" y2="181.59" xlink:href="#New_Gradient_Swatch_3"/><linearGradient id="New_Gradient_Swatch_3-8" x1="169.65" y1="176.82" x2="151.25" y2="176.82" xlink:href="#New_Gradient_Swatch_3"/><linearGradient id="New_Gradient_Swatch_3-9" x1="172.47" y1="262.05" x2="122.65" y2="262.05" xlink:href="#New_Gradient_Swatch_3"/><linearGradient id="New_Gradient_Swatch_3-10" x1="171.71" y1="271.25" x2="147.58" y2="271.25" xlink:href="#New_Gradient_Swatch_3"/><linearGradient id="New_Gradient_Swatch_3-11" x1="210.74" y1="146.3" x2="191.28" y2="146.3" xlink:href="#New_Gradient_Swatch_3"/><linearGradient id="New_Gradient_Swatch_3-12" x1="216.85" y1="157.86" x2="192.05" y2="157.86" xlink:href="#New_Gradient_Swatch_3"/><linearGradient id="New_Gradient_Swatch_3-13" x1="255.9" y1="133.98" x2="206.08" y2="133.98" xlink:href="#New_Gradient_Swatch_3"/><linearGradient id="New_Gradient_Swatch_3-14" x1="255.36" y1="126.85" x2="232.12" y2="126.85" xlink:href="#New_Gradient_Swatch_3"/><linearGradient id="New_Gradient_Swatch_3-15" x1="78.01" y1="180.31" x2="75.6" y2="206.18" xlink:href="#New_Gradient_Swatch_3"/><linearGradient id="New_Gradient_Swatch_3-16" x1="161.64" y1="138.07" x2="135.68" y2="138.07" xlink:href="#New_Gradient_Swatch_3"/><linearGradient id="New_Gradient_Swatch_3-17" x1="106.98" y1="142.5" x2="81.03" y2="142.5" xlink:href="#New_Gradient_Swatch_3"/><linearGradient id="New_Gradient_Swatch_3-18" x1="115.39" y1="135.01" x2="105.67" y2="135.01" xlink:href="#New_Gradient_Swatch_3"/><linearGradient id="New_Gradient_Swatch_3-19" x1="137.48" y1="146.86" x2="111.37" y2="146.86" xlink:href="#New_Gradient_Swatch_3"/><linearGradient id="New_Gradient_Swatch_3-20" x1="137.29" y1="122.92" x2="77.89" y2="122.92" xlink:href="#New_Gradient_Swatch_3"/><linearGradient id="New_Gradient_Swatch_3-21" x1="114.92" y1="129.27" x2="82.6" y2="129.27" xlink:href="#New_Gradient_Swatch_3"/><linearGradient id="New_Gradient_Swatch_3-22" x1="102.55" y1="124.11" x2="94.28" y2="124.11" xlink:href="#New_Gradient_Swatch_3"/><linearGradient id="New_Gradient_Swatch_3-23" x1="161.49" y1="112.41" x2="112.33" y2="112.41" xlink:href="#New_Gradient_Swatch_3"/><linearGradient id="New_Gradient_Swatch_3-24" x1="141.67" y1="120.32" x2="113.38" y2="120.32" xlink:href="#New_Gradient_Swatch_3"/><linearGradient id="New_Gradient_Swatch_3-25" x1="130.42" y1="108.65" x2="124.42" y2="108.65" xlink:href="#New_Gradient_Swatch_3"/><linearGradient id="New_Gradient_Swatch_3-26" x1="197.77" y1="179.69" x2="117.92" y2="179.69" xlink:href="#New_Gradient_Swatch_3"/><linearGradient id="New_Gradient_Swatch_3-27" x1="103.99" y1="184.84" x2="46.77" y2="184.84" xlink:href="#New_Gradient_Swatch_3"/><linearGradient id="New_Gradient_Swatch_3-28" x1="128.3" y1="228.82" x2="74.48" y2="228.82" xlink:href="#New_Gradient_Swatch_3"/><linearGradient id="New_Gradient_Swatch_3-29" x1="135.61" y1="221.81" x2="84.96" y2="221.81" xlink:href="#New_Gradient_Swatch_3"/><linearGradient id="New_Gradient_Swatch_3-30" x1="1303.05" y1="-545.26" x2="1365.41" y2="-545.26" gradientTransform="translate(-376.81 1401.99) rotate(-45)" xlink:href="#New_Gradient_Swatch_3"/><linearGradient id="New_Gradient_Swatch_3-31" x1="1323.85" y1="-483.44" x2="1345.7" y2="-483.44" gradientTransform="translate(-376.81 1401.99) rotate(-45)" xlink:href="#New_Gradient_Swatch_3"/><linearGradient id="New_Gradient_Swatch_3-32" x1="1324.92" y1="-481.15" x2="1344.63" y2="-481.15" gradientTransform="translate(-376.81 1401.99) rotate(-45)" xlink:href="#New_Gradient_Swatch_3"/><linearGradient id="New_Gradient_Swatch_copy-7" x1="1309.59" y1="-545.23" x2="1358.87" y2="-545.23" gradientTransform="translate(-412.81 1366.35) rotate(-45)" xlink:href="#New_Gradient_Swatch_copy"/></defs><title>AIFC_Robot</title><g id="Circles"><circle class="cls-1" cx="90.58" cy="90.58" r="90.58"/></g><g id="Robots"><path class="cls-2" d="M53.12,150.83a7.17,7.17,0,0,0-4.73,6.86L49,203.12a11.91,11.91,0,0,0,8.31,11.19l42.87,14.41L75.56,204.61a11.36,11.36,0,1,1,10-5.78l28.83,27.95-4.66-60a5.82,5.82,0,0,1,3.57-6.13l38.94-16-1.09-2.64c-.32.13-.66.26-1,.37-6.18,2.05-12.11.93-13.25-2.5-.11-.35-.44-1.51-.65-2.45l-2,.34c.3,1.89.39,3,.39,3,1.15,3.43-3.07,7.72-9.25,9.78s-12.09.92-13.24-2.51c-.18-.55-.23-.3-.16-.88a46.15,46.15,0,0,0,.77-6.44h0c-3.14-.21-5.52-1.43-6.21-3.48-.75-2.25-.06-4.58,2.44-6.59L99.56,134c.26.3.54.6.84.91a5.13,5.13,0,0,1,3.69,3c1.15,3.43-2.94,7.88-9.12,9.93s-12.26,0-13.4-3.39c0,0-.53-1.35-1.15-3.57Z" transform="translate(-36 -35.64)"/><path class="cls-3" d="M75.56,204.61a6.69,6.69,0,0,0,.77,0,11.26,11.26,0,1,0-.77,0Z" transform="translate(-36 -35.64)"/><path class="cls-3" d="M119.58,231.87l-5.24-5.08h0L85.51,198.83a11.34,11.34,0,0,1-9.18,5.75,6.69,6.69,0,0,1-.77,0l24.65,24.11,25.4,24.86a22.69,22.69,0,0,1,7-9Z" transform="translate(-36 -35.64)"/><path class="cls-3" d="M100.4,134.93c-.3-.31-.58-.61-.84-.91-9.54-10.71-3.72-18.27-1.22-20.73-4.06-1.34-9.21-1.77-15.73-.84h0c-6.46,9.1-3.94,22.25-2.18,28.5.62,2.22,1.15,3.57,1.15,3.57C82.71,148,88.81,150,95,147.91s10.27-6.5,9.12-9.93A5.13,5.13,0,0,0,100.4,134.93Z" transform="translate(-36 -35.64)"/><path class="cls-3" d="M123.88,112.37a25.57,25.57,0,0,0-10.49-7.8l-.52-.2a27.09,27.09,0,0,0-13.68-1c-8.31,1.3-13.49,4.74-16.58,9.12,6.52-.93,11.67-.5,15.73.84,8.18,2.69,11.89,9.1,13.44,15.62a43.22,43.22,0,0,1,.93,11.78,46.15,46.15,0,0,1-.77,6.44c-.07.58,0,.33.16.88,1.15,3.43,7.08,4.55,13.24,2.51s10.4-6.35,9.25-9.78c0,0-.09-1.15-.39-3a70,70,0,0,0-3.26-12.53A43.91,43.91,0,0,0,123.88,112.37Z" transform="translate(-36 -35.64)"/><path class="cls-3" d="M108.93,130.62c-2.5,2-3.19,4.34-2.44,6.59.69,2,3.07,3.27,6.21,3.48h0a43.22,43.22,0,0,0-.93-11.78l-.1,0A15.5,15.5,0,0,0,108.93,130.62Z" transform="translate(-36 -35.64)"/><path class="cls-4" d="M152.19,144.58l-38.94,16a5.82,5.82,0,0,0-3.57,6.13l4.66,60h0l5.24,5.08a22.13,22.13,0,0,0,5.53-1.55l59.65-25.55a15.3,15.3,0,0,0,8.77-10.21,16.16,16.16,0,0,0,.45-4.68l-1.38-24-.78-13.47-.67-11.6a11.74,11.74,0,0,0-10.51-11l-21.93-2.31h0c.09,1.68.1,3,.09,4,.9,3.24-2.22,8.2-7.69,10.45Zm-20,37.15a19.71,19.71,0,0,1,17.73-19.9,19.72,19.72,0,1,1,8.29,37.73h-.84v0a18.31,18.31,0,0,1-5.19,1.59A19.71,19.71,0,0,1,132.15,181.73Z" transform="translate(-36 -35.64)"/><path class="cls-3" d="M158.79,131.49c0-.93,0-2.3-.09-4-.56-11.24-4.58-36.09-29.29-32.19-8.27,1.29-13.43,4.71-16.54,9.05l.52.2c6.6-1,11.61-.79,15.39.37,10.13,3.08,11.42,12.55,10.47,20.53a47.89,47.89,0,0,1-3,11.89c.21.94.54,2.1.65,2.45,1.14,3.43,7.07,4.55,13.25,2.5.33-.11.67-.24,1-.37C156.57,139.69,159.69,134.73,158.79,131.49Z" transform="translate(-36 -35.64)"/><path class="cls-3" d="M128.78,104.94c-3.78-1.16-8.79-1.42-15.39-.37a25.57,25.57,0,0,1,10.49,7.8A18.75,18.75,0,0,1,128.78,104.94Z" transform="translate(-36 -35.64)"/><path class="cls-5" d="M132.65,244.54A22.76,22.76,0,0,0,150,285.08a23.27,23.27,0,0,0,6-1.81l.1-.35A11.37,11.37,0,1,1,169,265.83v-.05a22.37,22.37,0,0,0-.07-6.73,22.75,22.75,0,0,0-36.29-14.51Z" transform="translate(-36 -35.64)"/><path class="cls-6" d="M138.56,125.41a51.12,51.12,0,0,0-7.62-.24,70,70,0,0,1,3.26,12.53l2-.34a47.89,47.89,0,0,0,3-11.89Z" transform="translate(-36 -35.64)"/><path class="cls-3" d="M149.88,161.83a19.72,19.72,0,0,0,2.26,39.33,18.31,18.31,0,0,0,5.19-1.59v0a19.71,19.71,0,0,1-7.45-37.72Z" transform="translate(-36 -35.64)"/><path class="cls-3" d="M149.88,161.83a19.71,19.71,0,0,0,7.45,37.72h.84a19.72,19.72,0,1,0-8.29-37.73Zm1.91,15.07a7.58,7.58,0,1,1,7.69,7.47A7.58,7.58,0,0,1,151.79,176.9Z" transform="translate(-36 -35.64)"/><path class="cls-7" d="M159.26,169.21a7.58,7.58,0,1,0,7.69,7.47A7.58,7.58,0,0,0,159.26,169.21Z" transform="translate(-36 -35.64)"/><path class="cls-3" d="M191.82,152.42l.78,13.47L213.86,150a22.7,22.7,0,0,1-5.82-9.85Z" transform="translate(-36 -35.64)"/><path class="cls-8" d="M208,140.19a22.76,22.76,0,0,0,44.62-6.49v-.06A11.37,11.37,0,1,1,242.11,115l-.06-.35a22.77,22.77,0,0,0-34,12.82A22.58,22.58,0,0,0,208,140.19Z" transform="translate(-36 -35.64)"/><path class="cls-9" d="M110,130.63a20.91,20.91,0,0,1-4.51,2.2,20.29,20.29,0,0,1-4.87,1.19,20.91,20.91,0,0,1,4.51-2.2A20.41,20.41,0,0,1,110,130.63Z" transform="translate(-36 -35.64)"/><path class="cls-10" d="M140.33,125.47a11.7,11.7,0,0,1-2.1.22c-.7,0-1.38,0-2.07,0a19.15,19.15,0,0,1-4.14-.52,11.29,11.29,0,0,1,4.18-.55A11.63,11.63,0,0,1,140.33,125.47Z" transform="translate(-36 -35.64)"/><path class="cls-11" d="M182.58,132.5c-10.66,5.11-21.44,9.94-32.27,14.65-5.4,2.39-10.84,4.67-16.26,7L117.71,161l-2,.84a7.05,7.05,0,0,0-1.63.8,4.24,4.24,0,0,0-1.67,2.66,6.09,6.09,0,0,0,0,1.77l.16,2.21.32,4.42c.36,5.9.79,11.79,1.1,17.69.68,11.8,1.25,23.6,1.49,35.42-1.59-11.72-2.85-23.45-4-35.19-.61-5.87-1.09-11.75-1.64-17.62l-.37-4.41-.18-2.2c0-.35-.09-.77-.09-1.24a7.28,7.28,0,0,1,.11-1.4,7.45,7.45,0,0,1,2.88-4.68,9.83,9.83,0,0,1,2.3-1.2l2-.86,16.4-6.66c5.49-2.17,11-4.39,16.48-6.5C160.36,140.55,171.41,136.38,182.58,132.5Z" transform="translate(-36 -35.64)"/><path class="cls-12" d="M52.45,154.05c4.5.25,9,.72,13.43,1.26s8.9,1.17,13.34,1.85,8.85,1.45,13.26,2.32,8.81,1.78,13.17,2.92c-4.5-.26-9-.72-13.43-1.26s-8.9-1.18-13.34-1.85S70,157.83,65.62,157,56.81,155.18,52.45,154.05Z" transform="translate(-36 -35.64)"/><path class="cls-13" d="M178.69,179.57a20.37,20.37,0,0,1-5.42,14.17,20.54,20.54,0,0,1-22,5.47,20.45,20.45,0,0,1-11.82-11,20.56,20.56,0,0,1-.24-16.28,20.85,20.85,0,0,1,4.63-6.85,20.56,20.56,0,0,1,6.89-4.43,20.35,20.35,0,0,1,8-1.38,20.57,20.57,0,0,1,20,20.25Zm0,0a19.92,19.92,0,0,0-1.66-7.5,19.25,19.25,0,0,0-4.47-6.2,18.92,18.92,0,0,0-31.68,14.23,18.94,18.94,0,0,0,18.36,18.65,18.86,18.86,0,0,0,18-11.64A19.84,19.84,0,0,0,178.69,179.57Z" transform="translate(-36 -35.64)"/><path class="cls-14" d="M158.41,199.57a28.74,28.74,0,0,1-3.83,1.51,6.86,6.86,0,0,1-1,.23,9.34,9.34,0,0,1-1.05,0,15.86,15.86,0,0,1-2.07-.09,19.83,19.83,0,0,1-17.36-15.87,19.76,19.76,0,0,1,10-21.29,19.47,19.47,0,0,1,7.89-2.26,19.81,19.81,0,0,0-16.77,15.41,19.26,19.26,0,0,0-.05,7.93,18.79,18.79,0,0,0,3.06,7.32A20.3,20.3,0,0,0,143,198a19.29,19.29,0,0,0,7.51,2.75,13.56,13.56,0,0,0,2,.21,5.56,5.56,0,0,0,2-.12A36.75,36.75,0,0,0,158.41,199.57Z" transform="translate(-36 -35.64)"/><path class="cls-15" d="M168.19,176.68a9.22,9.22,0,0,1-7.61,9.24A9,9,0,0,1,153.4,184a9.23,9.23,0,0,1-3.44-7.1,9.44,9.44,0,0,1,.84-4,9.66,9.66,0,0,1,2.41-3.2,9.12,9.12,0,0,1,15,6.93Zm-.32,0a7.34,7.34,0,1,0-14.68.2,7.31,7.31,0,0,0,7.36,7.24,7.38,7.38,0,0,0,7.32-7.44Z" transform="translate(-36 -35.64)"/><path class="cls-16" d="M170.09,265.83v-.05h0a23.2,23.2,0,0,0-.81-7.36c-.18-.59-.31-1.18-.53-1.75L168.1,255a24.18,24.18,0,0,0-1.74-3.16,22,22,0,0,0-17.57-10,22.44,22.44,0,0,0-6.78.88,21.34,21.34,0,0,0-11,7.67,21.76,21.76,0,0,0-3.1,6c-.15.55-.38,1.07-.48,1.63l-.34,1.67-.18,1.7c-.06.56,0,1.13-.05,1.7a21.27,21.27,0,0,0,1.11,6.75,23.12,23.12,0,0,0,3.24,6.08c.37.44.69.93,1.1,1.35l1.21,1.26,1.32,1.14c.45.38.95.7,1.42,1.05a22,22,0,0,0,6.39,3,21.74,21.74,0,0,0,7.16.89,23.31,23.31,0,0,0,7.28-1.36A20.44,20.44,0,0,1,150,285.8a22.23,22.23,0,0,1-7.76,0,23.81,23.81,0,0,1-17.75-14.69,25.11,25.11,0,0,1-1.64-7.95,24.31,24.31,0,0,1,18.12-24.42A26.27,26.27,0,0,1,149,238a22.85,22.85,0,0,1,7.81,2,23.87,23.87,0,0,1,6.66,4.42,24.35,24.35,0,0,1,4.71,6.32,21.87,21.87,0,0,1,2.27,7.42,20.79,20.79,0,0,1-.36,7.59h0Z" transform="translate(-36 -35.64)"/><path class="cls-17" d="M157.84,283.11a10.94,10.94,0,0,1-9.1-6.65,10.74,10.74,0,0,1-.87-3,12,12,0,0,1-.09-3.11,12.52,12.52,0,0,1,2.2-5.84,12.68,12.68,0,0,1,4.77-4,12,12,0,0,1,6.05-1.1,11.37,11.37,0,0,1,5.66,2,10.38,10.38,0,0,1,3.63,4.41,12.08,12.08,0,0,0-9.33-3.87,11.38,11.38,0,0,0-4.62,1.32,10.84,10.84,0,0,0-3.52,3.14,10.53,10.53,0,0,0-1.8,4.36,11.21,11.21,0,0,0,.28,4.81A12,12,0,0,0,157.84,283.11Z" transform="translate(-36 -35.64)"/><path class="cls-18" d="M192.9,152.43a22.51,22.51,0,0,1,3.29-4.08A38.07,38.07,0,0,1,200,145a36.65,36.65,0,0,1,4.26-2.78,22.34,22.34,0,0,1,4.82-2,21.69,21.69,0,0,1-3.29,4.08,34.68,34.68,0,0,1-3.85,3.33,36.73,36.73,0,0,1-4.26,2.79A23.07,23.07,0,0,1,192.9,152.43Z" transform="translate(-36 -35.64)"/><path class="cls-19" d="M193.67,165.89a38.37,38.37,0,0,1,4.63-5,66,66,0,0,1,5.18-4.3,64.16,64.16,0,0,1,5.6-3.74,38.5,38.5,0,0,1,6.15-3,37.17,37.17,0,0,1-4.63,5,62,62,0,0,1-5.18,4.29,64.16,64.16,0,0,1-5.6,3.74A38.5,38.5,0,0,1,193.67,165.89Z" transform="translate(-36 -35.64)"/><path class="cls-20" d="M253.74,133.69a20.22,20.22,0,0,1-.06,7.75,22.33,22.33,0,0,1-2.87,7.56,26.08,26.08,0,0,1-6,5.61,25.06,25.06,0,0,1-7.46,3.35,24.12,24.12,0,0,1-8.15.79,26.62,26.62,0,0,1-8-1.91,24.87,24.87,0,0,1-14.88-26.68,24.61,24.61,0,0,1,7.48-14.31,25,25,0,0,1,14.69-6.71,23.11,23.11,0,0,1,7.93,1.54,20.57,20.57,0,0,1,6.64,4,23.58,23.58,0,0,0-3.57-1.16,18.6,18.6,0,0,0-3.6-.57,20.79,20.79,0,0,0-7,.49A20.62,20.62,0,0,0,216.84,119a20.22,20.22,0,0,0-6.18,11.82A20.46,20.46,0,0,0,213,144a20.74,20.74,0,0,0,9.93,8.91,22.06,22.06,0,0,0,6.59,1.59,20.11,20.11,0,0,0,6.73-.65,21,21,0,0,0,6.17-2.77,20.71,20.71,0,0,0,4.9-4.67,23,23,0,0,0,2.27-2.62l1-1.47c.33-.5.56-1.05.86-1.57a17.8,17.8,0,0,0,1.41-3.36A24.33,24.33,0,0,0,253.74,133.69Z" transform="translate(-36 -35.64)"/><path class="cls-21" d="M243.83,114.92a12.1,12.1,0,0,0-7.66,6.59,11.24,11.24,0,0,0-.89,4.73,10.47,10.47,0,0,0,1.22,4.55,10.68,10.68,0,0,0,3.08,3.57,11.38,11.38,0,0,0,4.42,1.91,12.09,12.09,0,0,0,9.74-2.64h0l0,.05v-.05h0a10.37,10.37,0,0,1-4.18,3.9,11.47,11.47,0,0,1-5.86,1.23,12,12,0,0,1-5.85-1.88,12.6,12.6,0,0,1-4.22-4.6,12.43,12.43,0,0,1-1.42-6.06,11.8,11.8,0,0,1,.49-3.08,10.62,10.62,0,0,1,1.24-2.82A10.93,10.93,0,0,1,243.83,114.92Z" transform="translate(-36 -35.64)"/><path class="cls-22" d="M76,181.88a12.2,12.2,0,0,1,10.32,19.78,12.73,12.73,0,0,1-3.88,3.18,12.28,12.28,0,0,1-9.88.64,12.41,12.41,0,0,1-4.26-2.66,12.12,12.12,0,0,1-3.73-8.8A12.23,12.23,0,0,1,76,181.88Zm0,0a10.68,10.68,0,0,0-7.64,4,10.6,10.6,0,1,0,15.73-1,10.63,10.63,0,0,0-8.09-3Z" transform="translate(-36 -35.64)"/><path class="cls-23" d="M159.81,131.3a5.5,5.5,0,0,1,.35,4.26,10.92,10.92,0,0,1-2.09,3.9,14.57,14.57,0,0,1-7.41,4.69,15.55,15.55,0,0,1-8.74.1,8.87,8.87,0,0,1-2.1-1,6.27,6.27,0,0,1-1.72-1.65,4.22,4.22,0,0,1-.72-2.18c0-.7-.09-1.4-.09-2.09.75,1.18,1.1,2.62,2,3.23a6.16,6.16,0,0,0,3.2,1.18,19,19,0,0,0,7.29-.73,16.62,16.62,0,0,0,6.46-3.34,12,12,0,0,0,2.45-2.76A6.11,6.11,0,0,0,159.81,131.3Z" transform="translate(-36 -35.64)"/><path class="cls-24" d="M101.31,134.88a5.47,5.47,0,0,1,4.21,2,4.8,4.8,0,0,1,.89,2.54,6.35,6.35,0,0,1-.49,2.61,11.24,11.24,0,0,1-3,3.93,17,17,0,0,1-4,2.56,16,16,0,0,1-9.26,1.45,11.37,11.37,0,0,1-4.44-1.67,7.66,7.66,0,0,1-1.74-1.62,4.5,4.5,0,0,1-.87-2.13A6,6,0,0,0,86,146.85a12.24,12.24,0,0,0,3.94.56,18.61,18.61,0,0,0,7.68-1.85,14.6,14.6,0,0,0,6.05-4.69,5.18,5.18,0,0,0,.65-1.57,3,3,0,0,0-.14-1.64A5.88,5.88,0,0,0,101.31,134.88Z" transform="translate(-36 -35.64)"/><path class="cls-25" d="M113.78,140.7a6.72,6.72,0,0,1-5-.19,5.22,5.22,0,0,1-2.25-1.95,5.95,5.95,0,0,1-.16-5.78,6.71,6.71,0,0,1,1.77-2.12,7.94,7.94,0,0,1,4.65-1.73,35.58,35.58,0,0,0-2.8,3.48,5.33,5.33,0,0,0-1,3.18,3.58,3.58,0,0,0,1.19,2.78A16.58,16.58,0,0,0,113.78,140.7Z" transform="translate(-36 -35.64)"/><path class="cls-26" d="M135.68,140.74a3.67,3.67,0,0,1,.55,1.95,5.7,5.7,0,0,1-.41,2.07,10.35,10.35,0,0,1-2.37,3.41,17.58,17.58,0,0,1-7,4,16.05,16.05,0,0,1-8.12.47,9,9,0,0,1-3.81-1.82,4,4,0,0,1-1.49-3.72c0,.15,0,.35.11.42a4.62,4.62,0,0,1,.29.4,3.17,3.17,0,0,0,.57.68,4.21,4.21,0,0,0,1.39.9,9.56,9.56,0,0,0,3.29.62,21.56,21.56,0,0,0,6.82-1,25,25,0,0,0,6.35-2.9,11.62,11.62,0,0,0,2.6-2.23A4.66,4.66,0,0,0,135.68,140.74Z" transform="translate(-36 -35.64)"/><path class="cls-27" d="M135.68,140.74a82.78,82.78,0,0,0-4.51-13,46.55,46.55,0,0,0-5.77-12.06,26.09,26.09,0,0,0-9.59-8.69,23.93,23.93,0,0,0-12.62-2.35,36.7,36.7,0,0,0-6.51,1.16,24,24,0,0,0-6,2.48,18.1,18.1,0,0,0-8,9.62,30.33,30.33,0,0,0-1.41,13,60.08,60.08,0,0,0,1.38,13.65,48.28,48.28,0,0,1-4.6-13.38,33.55,33.55,0,0,1,1.59-14.39A21.4,21.4,0,0,1,89,105.47a26.89,26.89,0,0,1,6.78-2.82,39.27,39.27,0,0,1,7.14-1.26,27.05,27.05,0,0,1,14.32,2.68,29.35,29.35,0,0,1,10.79,9.74,51.51,51.51,0,0,1,6.21,12.88A57.21,57.21,0,0,1,135.68,140.74Z" transform="translate(-36 -35.64)"/><path class="cls-28" d="M113,147.13a61.8,61.8,0,0,0-.27-13.81,28,28,0,0,0-4.62-12.48,19.09,19.09,0,0,0-10.78-7.24,44.41,44.41,0,0,0-13.67-1.15A32.68,32.68,0,0,1,97.75,112a20.84,20.84,0,0,1,6.77,2.62,19.46,19.46,0,0,1,5.35,5,26.53,26.53,0,0,1,4.55,13.55A40.89,40.89,0,0,1,113,147.13Z" transform="translate(-36 -35.64)"/><path class="cls-29" d="M99.41,113.28a25.57,25.57,0,0,0-1,3,11.39,11.39,0,0,0-1.29,2.5,10.89,10.89,0,0,0-.49,5.49,14.33,14.33,0,0,0,2,5.3,23.91,23.91,0,0,0,1.65,2.41c.35,1,.81,1.91,1.16,3a22,22,0,0,1-2.85-1.65,24.14,24.14,0,0,1-1.81-2.64,16.48,16.48,0,0,1-2.33-6.06,13.12,13.12,0,0,1,.6-6.57,15.2,15.2,0,0,1,1.49-3A9.93,9.93,0,0,1,99.41,113.28Z" transform="translate(-36 -35.64)"/><path class="cls-30" d="M159.87,131.51c-.64-3.08-1.31-6.08-2.16-9a50.45,50.45,0,0,0-1.83-8.74c-1.71-5.64-4.7-11-9.43-14.16a18.38,18.38,0,0,0-7.9-2.87,28.84,28.84,0,0,0-8.68.33,27.67,27.67,0,0,0-8.24,2.74,21.48,21.48,0,0,0-7.68,4.56A18.79,18.79,0,0,1,120.1,97a31,31,0,0,1,9.19-3.08,32.64,32.64,0,0,1,9.68-.35,21.51,21.51,0,0,1,9.27,3.39A23.47,23.47,0,0,1,155,104a35.77,35.77,0,0,1,3.94,8.78,59.81,59.81,0,0,1,2,9.29A47.7,47.7,0,0,1,159.87,131.51Z" transform="translate(-36 -35.64)"/><path class="cls-31" d="M137.29,137.36a60.6,60.6,0,0,0,2.3-13,31.93,31.93,0,0,0-.24-6.42,17.15,17.15,0,0,0-1.91-5.92,12.19,12.19,0,0,0-4.11-4.45,17.87,17.87,0,0,0-5.8-2.37,47.72,47.72,0,0,0-13.07-.68,33.33,33.33,0,0,1,13.4-1,18.28,18.28,0,0,1,6.57,2.29,14,14,0,0,1,4.9,5.14,18.67,18.67,0,0,1,2,6.69,28.51,28.51,0,0,1-.11,6.85A38.88,38.88,0,0,1,137.29,137.36Z" transform="translate(-36 -35.64)"/><path class="cls-32" d="M129.88,104.93c-.8,1.34-1.67,2.51-2.48,3.73s-1.59,2.41-2.44,3.72a8.15,8.15,0,0,1,1.55-4.33,10.91,10.91,0,0,1,1.5-1.76A7.86,7.86,0,0,1,129.88,104.93Z" transform="translate(-36 -35.64)"/><path class="cls-33" d="M120.62,231.87c3.66-.71,6.77-2.72,10.12-4.31l9.95-4.88c6.66-3.19,13.33-6.36,20-9.43s13.45-6.09,20.17-9.13l2.53-1.13,1.27-.55c.38-.18.71-.31,1.05-.51a12.59,12.59,0,0,0,6.63-11.24l-1.1-22c-.28-7.38-.65-14.75-.83-22.13l-.16-5.53a10.2,10.2,0,0,0-8.63-9.93c-7.28-1.14-14.6-2.26-21.87-3.63,7.4.18,14.77.59,22.16,1a13.29,13.29,0,0,1,10.29,6.31,13.57,13.57,0,0,1,1.94,6l.47,5.52c.68,7.35,1.15,14.71,1.72,22.07l.72,11,.35,5.52.18,2.76.08,1.38.05.71c0,.27,0,.54,0,.81a17.85,17.85,0,0,1-4.51,11.89,17.51,17.51,0,0,1-5.08,4c-.46.26-1,.48-1.44.69l-1.28.53-2.55,1.06c-6.84,2.77-13.65,5.62-20.53,8.3s-13.75,5.38-20.65,8l-10.4,3.83-5.23,1.87A22,22,0,0,1,120.62,231.87Z" transform="translate(-36 -35.64)"/><path class="cls-34" d="M81.49,141c-5.41,2.6-10.91,5-16.41,7.34l-8.28,3.47-2,.86a5.11,5.11,0,0,0-3,3.61,5.62,5.62,0,0,0-.12,1.62l.1,2.25.18,4.48.31,9c.18,6,.3,12,.4,17.93l.09,9v2.24c0,.41,0,.67,0,1a8.55,8.55,0,0,0,.09.87A9.46,9.46,0,0,0,54,207.8a9.29,9.29,0,0,0,2.29,2.67,9.67,9.67,0,0,0,1.48,1,11.52,11.52,0,0,0,1.74.74l8.43,3.1c11.2,4.22,22.36,8.57,33.33,13.45-11.69-2.74-23.19-6-34.66-9.42l-8.57-2.61a17.46,17.46,0,0,1-2.43-.9,14,14,0,0,1-2.32-1.39,14.44,14.44,0,0,1-3.67-4,14.19,14.19,0,0,1-1.94-5.06c-.08-.45-.14-.91-.18-1.36s-.05-.94-.06-1.28l-.05-2.24-.16-9c-.07-6-.12-12-.11-17.94l0-9,.06-4.48,0-2.24a9.67,9.67,0,0,1,.41-2.82,9.15,9.15,0,0,1,3.24-4.64,8.9,8.9,0,0,1,2.49-1.32c.77-.26,1.44-.46,2.17-.68l8.58-2.64C69.93,144.13,75.67,142.43,81.49,141Z" transform="translate(-36 -35.64)"/><path class="cls-35" d="M76.1,204.07c4.68,3.65,9.14,7.53,13.52,11.48,2.22,2,4.35,4,6.52,6l6.38,6.13,6.27,6.25c2,2.12,4.13,4.21,6.13,6.38,4,4.29,8,8.67,11.77,13.27-4.69-3.64-9.15-7.51-13.53-11.47-2.22-1.95-4.34-4-6.52-6L100.26,230,94,223.73c-2-2.13-4.13-4.21-6.14-6.38C83.82,213.05,79.84,208.68,76.1,204.07Z" transform="translate(-36 -35.64)"/><path class="cls-36" d="M86.58,198.82c4.42,3.35,8.61,6.93,12.73,10.59,2.08,1.81,4.08,3.71,6.11,5.56l6,5.68,5.87,5.81c1.91,2,3.86,3.92,5.73,5.94,3.79,4,7.5,8.09,11,12.4-4.42-3.35-8.62-6.93-12.73-10.59-2.08-1.81-4.08-3.7-6.12-5.55l-6-5.69-5.86-5.81c-1.92-2-3.87-3.92-5.74-5.94C93.77,207.22,90.07,203.13,86.58,198.82Z" transform="translate(-36 -35.64)"/><path class="cls-37" d="M204.23,92.27a30.08,30.08,0,1,0-3,3.16" transform="translate(-36 -35.64)"/><path class="cls-38" d="M202.39,94.3c-.39.39-.79.77-1.2,1.13l3.91,3.9-3,3a3.49,3.49,0,0,0,0,4.93l31.6,31.6a9.86,9.86,0,0,0,13.94-13.94l-31.6-31.6a3.49,3.49,0,0,0-4.93,0l-3,3-4-4C203.65,93,203,93.65,202.39,94.3Z" transform="translate(-36 -35.64)"/><path class="cls-39" d="M207.83,95.87l-6.05,6a3.48,3.48,0,0,0,0,4.93l31.6,31.6a9.85,9.85,0,0,0,13.93-13.93l-31.6-31.6a3.49,3.49,0,0,0-4.93,0Z" transform="translate(-36 -35.64)"/><circle class="cls-40" cx="145.09" cy="37.37" r="24.64"/><path class="cls-3" d="M175.42,93.6a18.87,18.87,0,0,1-7.34-2.67,20.91,20.91,0,0,1-9.29-12.83,22.69,22.69,0,0,1-.46-8.17,21.43,21.43,0,0,1,7.88-14,19.8,19.8,0,0,1,14.88-4.31A23.27,23.27,0,0,0,167.9,57.9a21.36,21.36,0,0,0-3.56,26.17l1,1.51c.35.49.76.94,1.12,1.43A18.78,18.78,0,0,0,169,89.64,24.39,24.39,0,0,0,175.42,93.6Z" transform="translate(-36 -35.64)"/></g></svg>