<svg xmlns="http://www.w3.org/2000/svg" xmlns:xlink="http://www.w3.org/1999/xlink" viewBox="0 0 289.54 200.46"><defs><style>.cls-1{fill:#fff;}.cls-2,.cls-3{fill:#ff5050;}.cls-3{opacity:0.5;}.cls-4{fill:url(#New_Gradient_Swatch_copy);}.cls-5{fill:url(#New_Gradient_Swatch_copy-2);}.cls-6{fill:url(#New_Gradient_Swatch_copy-3);}.cls-7{fill:url(#New_Gradient_Swatch_copy-4);}.cls-8{fill:url(#New_Gradient_Swatch_3);}.cls-9{fill:url(#New_Gradient_Swatch_3-2);}.cls-10{fill:url(#New_Gradient_Swatch_3-3);}.cls-11{fill:url(#New_Gradient_Swatch_3-4);}.cls-12{fill:url(#New_Gradient_Swatch_3-5);}.cls-13{fill:url(#New_Gradient_Swatch_3-6);}.cls-14{fill:url(#New_Gradient_Swatch_3-7);}.cls-15{fill:url(#New_Gradient_Swatch_3-8);}.cls-16{fill:url(#New_Gradient_Swatch_3-9);}.cls-17{fill:url(#New_Gradient_Swatch_3-10);}.cls-18{fill:url(#New_Gradient_Swatch_3-11);}.cls-19{fill:url(#New_Gradient_Swatch_3-12);}.cls-20{fill:url(#New_Gradient_Swatch_3-13);}.cls-21{fill:url(#New_Gradient_Swatch_3-14);}.cls-22{fill:url(#New_Gradient_Swatch_3-15);}.cls-23{fill:url(#New_Gradient_Swatch_3-16);}.cls-24{fill:url(#New_Gradient_Swatch_3-17);}.cls-25{fill:url(#New_Gradient_Swatch_3-18);}.cls-26{fill:url(#New_Gradient_Swatch_3-19);}.cls-27{fill:url(#New_Gradient_Swatch_3-20);}.cls-28{fill:url(#New_Gradient_Swatch_3-21);}.cls-29{fill:url(#New_Gradient_Swatch_3-22);}.cls-30{fill:url(#New_Gradient_Swatch_3-23);}.cls-31{fill:url(#New_Gradient_Swatch_3-24);}.cls-32{fill:url(#New_Gradient_Swatch_3-25);}.cls-33{fill:url(#New_Gradient_Swatch_3-26);}.cls-34{fill:url(#New_Gradient_Swatch_3-27);}.cls-35{fill:url(#New_Gradient_Swatch_3-28);}.cls-36{fill:url(#New_Gradient_Swatch_3-29);}</style><linearGradient id="New_Gradient_Swatch_copy" x1="195.12" y1="119.16" x2="239.15" y2="119.16" gradientUnits="userSpaceOnUse"><stop offset="0" stop-color="#c7edf2"/><stop offset="1" stop-color="#c4deef"/></linearGradient><linearGradient id="New_Gradient_Swatch_copy-2" x1="168.34" y1="173.28" x2="176.39" y2="173.28" xlink:href="#New_Gradient_Swatch_copy"/><linearGradient id="New_Gradient_Swatch_copy-3" x1="88.46" y1="220.44" x2="229.36" y2="220.44" xlink:href="#New_Gradient_Swatch_copy"/><linearGradient id="New_Gradient_Swatch_copy-4" x1="43.9" y1="169.7" x2="87.94" y2="169.7" xlink:href="#New_Gradient_Swatch_copy"/><linearGradient id="New_Gradient_Swatch_3" x1="207.38" y1="150.01" x2="190.78" y2="153.54" gradientUnits="userSpaceOnUse"><stop offset="0" stop-color="#02b0c2"/><stop offset="1" stop-color="#0083c5"/></linearGradient><linearGradient id="New_Gradient_Swatch_3-2" x1="222.22" y1="154.63" x2="207.99" y2="157.66" xlink:href="#New_Gradient_Swatch_3"/><linearGradient id="New_Gradient_Swatch_3-3" x1="212.77" y1="95.31" x2="221.38" y2="142.74" xlink:href="#New_Gradient_Swatch_3"/><linearGradient id="New_Gradient_Swatch_3-4" x1="219.65" y1="94.58" x2="223.67" y2="116.71" xlink:href="#New_Gradient_Swatch_3"/><linearGradient id="New_Gradient_Swatch_3-5" x1="147.57" y1="174.16" x2="137.45" y2="174.16" xlink:href="#New_Gradient_Swatch_3"/><linearGradient id="New_Gradient_Swatch_3-6" x1="176.91" y1="167.23" x2="167.82" y2="167.23" xlink:href="#New_Gradient_Swatch_3"/><linearGradient id="New_Gradient_Swatch_3-7" x1="218.83" y1="219.95" x2="146.16" y2="219.95" xlink:href="#New_Gradient_Swatch_3"/><linearGradient id="New_Gradient_Swatch_3-8" x1="143.87" y1="199.22" x2="90.31" y2="199.22" xlink:href="#New_Gradient_Swatch_3"/><linearGradient id="New_Gradient_Swatch_3-9" x1="211.64" y1="219.29" x2="170.36" y2="219.29" xlink:href="#New_Gradient_Swatch_3"/><linearGradient id="New_Gradient_Swatch_3-10" x1="190.97" y1="220.97" x2="165.55" y2="220.97" xlink:href="#New_Gradient_Swatch_3"/><linearGradient id="New_Gradient_Swatch_3-11" x1="196.39" y1="229.14" x2="190.84" y2="212.67" xlink:href="#New_Gradient_Swatch_3"/><linearGradient id="New_Gradient_Swatch_3-12" x1="120.38" y1="216.3" x2="118.05" y2="241.33" xlink:href="#New_Gradient_Swatch_3"/><linearGradient id="New_Gradient_Swatch_3-13" x1="197" y1="179.72" x2="171.88" y2="179.72" xlink:href="#New_Gradient_Swatch_3"/><linearGradient id="New_Gradient_Swatch_3-14" x1="144.12" y1="184" x2="119.01" y2="184" xlink:href="#New_Gradient_Swatch_3"/><linearGradient id="New_Gradient_Swatch_3-15" x1="152.26" y1="176.76" x2="142.85" y2="176.76" xlink:href="#New_Gradient_Swatch_3"/><linearGradient id="New_Gradient_Swatch_3-16" x1="173.63" y1="188.23" x2="148.36" y2="188.23" xlink:href="#New_Gradient_Swatch_3"/><linearGradient id="New_Gradient_Swatch_3-17" x1="173.45" y1="165.06" x2="115.96" y2="165.06" xlink:href="#New_Gradient_Swatch_3"/><linearGradient id="New_Gradient_Swatch_3-18" x1="151.8" y1="171.2" x2="120.53" y2="171.2" xlink:href="#New_Gradient_Swatch_3"/><linearGradient id="New_Gradient_Swatch_3-19" x1="139.83" y1="166.21" x2="131.83" y2="166.21" xlink:href="#New_Gradient_Swatch_3"/><linearGradient id="New_Gradient_Swatch_3-20" x1="196.86" y1="154.89" x2="149.29" y2="154.89" xlink:href="#New_Gradient_Swatch_3"/><linearGradient id="New_Gradient_Swatch_3-21" x1="177.68" y1="162.55" x2="150.31" y2="162.55" xlink:href="#New_Gradient_Swatch_3"/><linearGradient id="New_Gradient_Swatch_3-22" x1="166.79" y1="151.26" x2="160.99" y2="151.26" xlink:href="#New_Gradient_Swatch_3"/><linearGradient id="New_Gradient_Swatch_3-23" x1="231.97" y1="220.44" x2="150.53" y2="220.44" xlink:href="#New_Gradient_Swatch_3"/><linearGradient id="New_Gradient_Swatch_3-24" x1="155.75" y1="249.23" x2="86.26" y2="249.23" xlink:href="#New_Gradient_Swatch_3"/><linearGradient id="New_Gradient_Swatch_3-25" x1="122.06" y1="191.77" x2="85.86" y2="191.77" xlink:href="#New_Gradient_Swatch_3"/><linearGradient id="New_Gradient_Swatch_3-26" x1="81.75" y1="200.48" x2="119.68" y2="200.48" xlink:href="#New_Gradient_Swatch_3"/><linearGradient id="New_Gradient_Swatch_3-27" x1="68.21" y1="215.17" x2="119.68" y2="215.17" xlink:href="#New_Gradient_Swatch_3"/><linearGradient id="New_Gradient_Swatch_3-28" x1="65.26" y1="145.6" x2="66.7" y2="193.79" xlink:href="#New_Gradient_Swatch_3"/><linearGradient id="New_Gradient_Swatch_3-29" x1="58.38" y1="146.33" x2="59.05" y2="168.81" xlink:href="#New_Gradient_Swatch_3"/></defs><title>AIFC_Robot-2</title><g id="Robots"><circle class="cls-1" cx="147.29" cy="97.23" r="97.23"/><path class="cls-2" d="M290.55,83.24" transform="translate(-5.46 -70.92)"/><path class="cls-2" d="M288.72,141.7" transform="translate(-5.46 -70.92)"/><path class="cls-2" d="M242.32,183.34c1.78,2.83,3.7,5.69,6.55,7.54,3.29,2.15,7.11,1.92,10.81,1.22,3.08-.58,1.77-5.28-1.29-4.7-2.63.5-5.26.7-7.49-1a20.48,20.48,0,0,1-4.38-5.49c-1.66-2.65-5.88-.21-4.2,2.45Z" transform="translate(-5.46 -70.92)"/><path class="cls-2" d="M217.57,165.44l-.08-6-6-.4,4.68-3.83-3.45-5,5.91,1.27,1.74-5.79L223,151.1l5.6-2.26-2.55,5.48,5.26,3-5.88,1.42,1,6L221.64,161ZM214,158.18l4.45.3.05,4.45,3-3.29,3.52,2.73-.7-4.4,4.33-1-3.88-2.2,1.88-4-4.13,1.67-2-4-1.27,4.27-4.36-.93,2.54,3.66Z" transform="translate(-5.46 -70.92)"/><path class="cls-2" d="M203.43,154.82" transform="translate(-5.46 -70.92)"/><path class="cls-2" d="M133,105.1" transform="translate(-5.46 -70.92)"/><path class="cls-2" d="M202.82,104.49" transform="translate(-5.46 -70.92)"/><path class="cls-2" d="M22.05,104.67" transform="translate(-5.46 -70.92)"/><path class="cls-2" d="M53.29,205.53l-1.13-5.33-3.83-3.88,5.33-1.13,3.88-3.83,1.13,5.33,3.83,3.88-5.33,1.13Zm-1.72-8.23,2.08,2.1.61,2.89,2.11-2.08,2.89-.61-2.08-2.1-.61-2.89-2.1,2.07Z" transform="translate(-5.46 -70.92)"/><path class="cls-2" d="M103.37,162.13l-.07-6-6-.4,4.68-3.82-3.45-5,5.91,1.27,1.73-5.79,2.69,5.41,5.61-2.25L111.89,151l5.26,3-5.88,1.42,1,6-4.77-3.71Zm-3.54-7.27,4.44.3.06,4.46,3-3.3,3.52,2.74-.7-4.4,4.33-1-3.87-2.19,1.88-4L108.35,149l-2-4-1.28,4.27-4.36-.94,2.55,3.66Z" transform="translate(-5.46 -70.92)"/><path class="cls-2" d="M85.83,133.66l-2.62-4.78-4.78-2.61,4.78-2.62,2.62-4.78,2.61,4.78,4.78,2.62-4.78,2.61Zm-4-7.39,2.59,1.42,1.42,2.59,1.41-2.59,2.6-1.42-2.6-1.42-1.41-2.59-1.42,2.59Z" transform="translate(-5.46 -70.92)"/><path class="cls-2" d="M294.93,114.77c-.68,3.32-1.5,6.73-3.35,9.37-2,2.89-4.94,3.71-7.88,4.16-1.06.17-1.95-1.23-2-2.43a2.3,2.3,0,0,1,2-2.44c2-.31,4.08-.94,5.33-3.12a23.2,23.2,0,0,0,2.11-6.84c.63-3,4.42-1.75,3.79,1.3Z" transform="translate(-5.46 -70.92)"/><path class="cls-2" d="M150.51,108.85" transform="translate(-5.46 -70.92)"/><path class="cls-2" d="M80.09,59.13" transform="translate(-5.46 -70.92)"/><path class="cls-2" d="M132.72,64.24" transform="translate(-5.46 -70.92)"/><path class="cls-2" d="M281.45,157.9" transform="translate(-5.46 -70.92)"/><path class="cls-2" d="M9.12,165.62c2.85-1.56,5.72-3.28,7.7-5.92,2.28-3,2.47-6.67,2-10.31A2.52,2.52,0,0,0,16.39,147,2.44,2.44,0,0,0,14,149.39c.35,2.72.57,5.55-1.32,7.79-1.58,1.87-3.86,3.07-6,4.23-2.75,1.51-.29,5.72,2.46,4.21Z" transform="translate(-5.46 -70.92)"/><path class="cls-2" d="M277.77,105.74l-.08-6-6-.4,4.68-3.83-3.45-5,5.91,1.27L280.54,86l2.69,5.42,5.61-2.26-2.56,5.48,5.26,3L285.67,99l.95,6-4.78-3.71Zm-3.55-7.26,4.45.29.06,4.46,3-3.29,3.52,2.73-.7-4.4,4.33-1L285,95l1.88-4-4.13,1.66-2-4-1.28,4.27L275.13,92l2.54,3.66Z" transform="translate(-5.46 -70.92)"/><path class="cls-2" d="M211.31,116.53" transform="translate(-5.46 -70.92)"/><path class="cls-2" d="M181.27,128.71" transform="translate(-5.46 -70.92)"/><path class="cls-2" d="M257.07,128.44l-1.13-5.33-3.83-3.88,5.33-1.13,3.88-3.82,1.13,5.33,3.82,3.87-5.33,1.13Zm-1.72-8.23,2.08,2.1.61,2.89,2.1-2.08,2.89-.61-2.07-2.1-.62-2.89-2.1,2.07Z" transform="translate(-5.46 -70.92)"/><path class="cls-2" d="M27.82,129.35c3.24.06,6.59,0,9.62-1.32,3.48-1.5,5.45-4.56,6.85-8a2.51,2.51,0,0,0-.9-3.32,2.45,2.45,0,0,0-3.33.91c-1,2.53-2.26,5.1-5,6.11a20.36,20.36,0,0,1-7.29.71c-3.14-.06-3.09,4.81.05,4.87Z" transform="translate(-5.46 -70.92)"/><path class="cls-2" d="M136.73,122.82a2.95,2.95,0,1,1,3-2.95A2.95,2.95,0,0,1,136.73,122.82Zm0-5.23a2.29,2.29,0,1,0,2.29,2.28A2.29,2.29,0,0,0,136.73,117.59Z" transform="translate(-5.46 -70.92)"/><polygon class="cls-3" points="45.65 73.2 49.97 81.11 57.88 85.44 49.97 89.76 45.65 97.67 41.32 89.76 33.41 85.44 41.32 81.11 45.65 73.2"/><path class="cls-4" d="M227,114.06a11,11,0,0,0,6.07-9.93h.33A22,22,0,0,1,203.07,136a22,22,0,0,1,10.35-38.64h.05A11,11,0,0,0,227,114.06Z" transform="translate(-5.46 -70.92)"/><path class="cls-1" d="M210.07,219a19.08,19.08,0,0,1-18.81,19.35c-.27,0-.55,0-.81,0A19.07,19.07,0,1,1,210.07,219Z" transform="translate(-5.46 -70.92)"/><path class="cls-1" d="M212.21,171.29l-17-1.79c0-.59-.07-1.23-.12-1.9,5-5.95,8.79-15.7,8-31.65A22.12,22.12,0,0,0,218,141C218.79,153.41,216.27,163.37,212.21,171.29Z" transform="translate(-5.46 -70.92)"/><path class="cls-1" d="M185.42,239.9a19.07,19.07,0,0,1-2.19-38.05,19.07,19.07,0,0,0,7.22,36.49v0A17.88,17.88,0,0,1,185.42,239.9Z" transform="translate(-5.46 -70.92)"/><path class="cls-5" d="M175.72,167.46l.67.08A46.5,46.5,0,0,1,173.44,179l-1.94.34a66.85,66.85,0,0,0-3.16-12.13h0A49.19,49.19,0,0,1,175.72,167.46Z" transform="translate(-5.46 -70.92)"/><path class="cls-1" d="M166.26,147.66a18,18,0,0,0-4.75,7.2,24.73,24.73,0,0,0-10.15-7.56C157.74,146.28,162.6,146.53,166.26,147.66Z" transform="translate(-5.46 -70.92)"/><path class="cls-1" d="M166.86,138.35c22.62-3.55,27.32,17.74,28.23,29.25,0,.67.09,1.31.12,1.9.09,1.63.09,3,.09,3.87h0c.91,3.32-2.54,8.5-8.4,10.45s-11.71.91-12.82-2.41c-.11-.34-.43-1.47-.63-2.38a46.5,46.5,0,0,0,2.95-11.49c.91-7.73-.33-16.91-10.13-19.88-3.66-1.13-8.52-1.38-14.9-.36-.16-.06-.33-.13-.5-.18h0C153.87,142.91,158.86,139.61,166.86,138.35Z" transform="translate(-5.46 -70.92)"/><path class="cls-1" d="M150.68,182.26c-3-.21-5.33-1.39-6-3.37-.72-2.18-.06-4.44,2.36-6.37a15,15,0,0,1,2.67-1.65h.07A40.38,40.38,0,0,1,150.68,182.26Z" transform="translate(-5.46 -70.92)"/><path class="cls-1" d="M119.45,182.51c-1.7-6.06-4.13-18.77,2.12-27.58,6.32-.89,11.3-.48,15.22.81-2.42,2.38-8,9.71,1.19,20.07.24.28.52.57.8.86h0a5,5,0,0,1,3.59,2.95c1.1,3.32-2.85,7.62-8.82,9.6s-11.88.05-13-3.27C120.57,186,120.05,184.65,119.45,182.51Z" transform="translate(-5.46 -70.92)"/><path class="cls-1" d="M121.57,154.93c3-4.24,8-7.56,16.05-8.83a26.17,26.17,0,0,1,13.24,1c.17,0,.34.12.5.18a24.73,24.73,0,0,1,10.15,7.56,42.24,42.24,0,0,1,6.83,12.38,66.85,66.85,0,0,1,3.16,12.13c.29,1.82.38,2.93.38,2.93,1.11,3.32-3,7.47-8.95,9.46s-11.71.91-12.81-2.41c-.18-.54-.24-.3-.17-.87a43.66,43.66,0,0,0,.73-6.22,40.38,40.38,0,0,0-.9-11.4c-1.48-6.32-5.07-12.51-13-15.12C132.87,154.45,127.89,154,121.57,154.93Z" transform="translate(-5.46 -70.92)"/><path class="cls-1" d="M130.07,228.1a11,11,0,0,1-10.27,11.69,11.83,11.83,0,0,1-2.31-.08,11,11,0,0,1-.33-21.74l.53-.08c.22,0,.46,0,.69-.07A11,11,0,0,1,130.07,228.1Z" transform="translate(-5.46 -70.92)"/><path class="cls-6" d="M190.45,238.37v0c.26,0,.54,0,.81,0a19.08,19.08,0,1,0-8-36.51,19.07,19.07,0,0,0,2.19,38.05A17.88,17.88,0,0,0,190.45,238.37Zm26-66.64a11.36,11.36,0,0,1,10.16,10.66l2.74,47.47a14.8,14.8,0,0,1-8.92,14.4L162.7,269a38,38,0,0,1-9.56,2.39l-56-17.88a11.57,11.57,0,0,1-8-10.82l-.21-15.58a61.35,61.35,0,0,0,28.58,12.84l0-.22a11.83,11.83,0,0,0,2.31.08,11,11,0,0,0-1.42-22c-.23,0-.47,0-.69.07l-.53.08c-4.43.59-19.71,1.19-28.66-16.94h0l0-2.32A7,7,0,0,1,93,192.06l26.41-9.55c.6,2.14,1.12,3.45,1.12,3.45,1.1,3.32,7,5.26,13,3.27s9.92-6.28,8.82-9.6a5,5,0,0,0-3.59-2.95h0c-.28-.29-.56-.58-.8-.86l9.06-3.29c-2.42,1.93-3.08,4.19-2.36,6.37.67,2,3,3.16,6,3.37a43.66,43.66,0,0,1-.73,6.22c-.07.57,0,.33.17.87,1.1,3.32,6.83,4.4,12.81,2.41s10.06-6.14,8.95-9.46c0,0-.09-1.11-.38-2.93l1.94-.34c.2.91.52,2,.63,2.38,1.11,3.32,6.85,4.4,12.82,2.41s9.31-7.13,8.4-10.45h0c0-.9,0-2.24-.09-3.87l17,1.79Z" transform="translate(-5.46 -70.92)"/><path class="cls-1" d="M88.87,227.09c-8.75-7.23-16.68-18.42-19.21-35.69a22.09,22.09,0,0,0,13.55-8.08A61.56,61.56,0,0,0,88.5,201h0c9,18.13,24.23,17.53,28.66,16.94a11,11,0,0,0,.33,21.74l0,.22A61.35,61.35,0,0,1,88.87,227.09Z" transform="translate(-5.46 -70.92)"/><path class="cls-7" d="M55.28,166.9A11,11,0,0,0,65,147.69H65a21.79,21.79,0,0,1,6.47.71A22,22,0,1,1,47,158.52l.34-.06A11,11,0,0,0,55.28,166.9Z" transform="translate(-5.46 -70.92)"/><path class="cls-8" d="M195.09,167.6a51.83,51.83,0,0,0,3.45-7.49,60.73,60.73,0,0,0,2.18-7.81c.56-2.65,1-5.34,1.34-8.06s.59-5.49,1-8.29a38.27,38.27,0,0,1,1,8.4,39.18,39.18,0,0,1-.83,8.49,30.77,30.77,0,0,1-2.86,8.08A21.27,21.27,0,0,1,195.09,167.6Z" transform="translate(-5.46 -70.92)"/><path class="cls-9" d="M212.21,171.29c.71-2.56,1.44-5,2.07-7.51s1.17-5,1.62-7.46.82-5,1.15-7.56.58-5.12.95-7.75a32.48,32.48,0,0,1,1.06,7.85,38.26,38.26,0,0,1-.63,7.92,36.84,36.84,0,0,1-2.25,7.64A28.86,28.86,0,0,1,212.21,171.29Z" transform="translate(-5.46 -70.92)"/><path class="cls-10" d="M213.42,97.31a22.45,22.45,0,0,0-6.27,3.41c-.45.38-.93.7-1.35,1.09L204.56,103a23.62,23.62,0,0,0-2.1,2.62,19.78,19.78,0,0,0-3.59,5.47,20.2,20.2,0,0,0-1.57,6.35,19.31,19.31,0,0,0,.54,6.52,21.33,21.33,0,0,0,2.65,6,19.89,19.89,0,0,0,23.12,7.89,19.54,19.54,0,0,0,10.19-7.93A20.06,20.06,0,0,0,237,117.38a20.1,20.1,0,0,0-.74-6.72,18.36,18.36,0,0,0-1.16-3.34,23.53,23.53,0,0,0-1.73-3.19,19.57,19.57,0,0,1,4.94,5.63,22.07,22.07,0,0,1,2.84,7.28,24.09,24.09,0,0,1-3.85,15.14,24.58,24.58,0,0,1-5.35,5.84,24.89,24.89,0,0,1-7,3.76,24.07,24.07,0,0,1-28-9.56,25.52,25.52,0,0,1-3.2-7.24,23.55,23.55,0,0,1-.66-7.89,24.66,24.66,0,0,1,1.9-7.69,25.06,25.06,0,0,1,4.31-6.65,21.5,21.5,0,0,1,6.7-4A19.56,19.56,0,0,1,213.42,97.31Z" transform="translate(-5.46 -70.92)"/><path class="cls-11" d="M233,103.5a10.55,10.55,0,0,1-3.45,10.34,9.68,9.68,0,0,1-2.47,1.67,11.28,11.28,0,0,1-2.84,1A11.88,11.88,0,0,1,213.11,113a11.62,11.62,0,0,1-2.8-5.25,11.13,11.13,0,0,1,.15-5.79,10.1,10.1,0,0,1,3-4.66v0h-.05l.05,0s0,0,0,0h0a11.67,11.67,0,0,0-.83,9.73,10.86,10.86,0,0,0,2.58,3.88,10.53,10.53,0,0,0,3.93,2.32,10.29,10.29,0,0,0,4.55.37,10.79,10.79,0,0,0,4.35-1.67A11.7,11.7,0,0,0,233,103.5Z" transform="translate(-5.46 -70.92)"/><path class="cls-12" d="M147.05,172.52a20.45,20.45,0,0,1-4.36,2.13A19.17,19.17,0,0,1,138,175.8a22.58,22.58,0,0,1,9.08-3.28Z" transform="translate(-5.46 -70.92)"/><path class="cls-13" d="M176.39,167.53a11.13,11.13,0,0,1-2,.21c-.67,0-1.33,0-2,0a19.93,19.93,0,0,1-4-.51,11.26,11.26,0,0,1,4-.54A11.63,11.63,0,0,1,176.39,167.53Z" transform="translate(-5.46 -70.92)"/><path class="cls-14" d="M217.26,174.33c-10.31,4.95-20.74,9.61-31.21,14.18-5.23,2.31-10.5,4.52-15.74,6.77l-15.81,6.61-2,.81a7,7,0,0,0-1.58.77,4.17,4.17,0,0,0-1.62,2.58,6,6,0,0,0,0,1.71l.16,2.14.3,4.28c.36,5.7.77,11.4,1.07,17.11.66,11.42,1.21,22.84,1.44,34.28-1.53-11.34-2.76-22.69-3.87-34.06-.59-5.67-1.06-11.36-1.59-17l-.36-4.27-.17-2.13a8.81,8.81,0,0,1,0-2.56A7.24,7.24,0,0,1,149.1,201a10,10,0,0,1,2.23-1.16l2-.82,15.87-6.45c5.31-2.1,10.6-4.25,15.94-6.29C195.77,182.12,206.46,178.08,217.26,174.33Z" transform="translate(-5.46 -70.92)"/><path class="cls-15" d="M91.35,195.18c4.36.24,8.68.69,13,1.22s8.61,1.14,12.9,1.79,8.57,1.41,12.83,2.24,8.53,1.73,12.75,2.83c-4.36-.25-8.68-.7-13-1.22s-8.61-1.14-12.9-1.79-8.57-1.41-12.84-2.25S95.57,196.28,91.35,195.18Z" transform="translate(-5.46 -70.92)"/><path class="cls-16" d="M210.07,219a19.89,19.89,0,0,1-26.53,19,19.82,19.82,0,0,1-11.44-10.59,19.92,19.92,0,0,1-.23-15.76A19.77,19.77,0,0,1,183,200.76,19.89,19.89,0,0,1,210.07,219Zm0,0a19.27,19.27,0,0,0-1.61-7.25A18.21,18.21,0,0,0,197.87,202a18.32,18.32,0,1,0,6.65,30.43,18.56,18.56,0,0,0,4.14-6.12A19,19,0,0,0,210.07,219Z" transform="translate(-5.46 -70.92)"/><path class="cls-17" d="M190.45,238.37a27,27,0,0,1-3.71,1.46,5.64,5.64,0,0,1-2,.25,15,15,0,0,1-2-.09,19.22,19.22,0,0,1-13.23-30.75,19.66,19.66,0,0,1,6.1-5.2,18.77,18.77,0,0,1,7.63-2.19A19.2,19.2,0,0,0,167,216.76a18.75,18.75,0,0,0,0,7.68,18.23,18.23,0,0,0,3,7.08,19.48,19.48,0,0,0,5.59,5.3,18.89,18.89,0,0,0,7.27,2.67,16.07,16.07,0,0,0,2,.2,5.63,5.63,0,0,0,1.92-.12A39.45,39.45,0,0,0,190.45,238.37Z" transform="translate(-5.46 -70.92)"/><path class="cls-18" d="M184.63,230.49a8.93,8.93,0,0,1-2.95-4.52,11.49,11.49,0,0,1-.1-5.77,13.29,13.29,0,0,1,7.75-9,14.92,14.92,0,0,1,3-.9,13.51,13.51,0,0,1,3.11-.18,12.89,12.89,0,0,1,5.8,1.72c3.44,2,5.71,5.72,5.35,9.3l0,.13a.23.23,0,0,1-.25.21.24.24,0,0,1-.19-.13,11.7,11.7,0,0,0-6.34-5.79,11.47,11.47,0,0,0-14.5,6.21,11.89,11.89,0,0,0-.19,8.59.23.23,0,0,1-.36.26Z" transform="translate(-5.46 -70.92)"/><path class="cls-19" d="M118.38,217.82a11.79,11.79,0,0,1,10,19.14,11.85,11.85,0,0,1-13.31,3.69,12.21,12.21,0,0,1-4.12-2.56,11.82,11.82,0,0,1,7.45-20.27Zm0,0a10.28,10.28,0,0,0-7.39,3.87,10.19,10.19,0,0,0-2.1,7.77,10.25,10.25,0,0,0,20.4-1.31,10.17,10.17,0,0,0-3.08-7.45,10.31,10.31,0,0,0-7.83-2.88Z" transform="translate(-5.46 -70.92)"/><path class="cls-20" d="M195.23,173.17a5.29,5.29,0,0,1,.34,4.12,10.56,10.56,0,0,1-2,3.78,14.17,14.17,0,0,1-7.17,4.54,15.11,15.11,0,0,1-8.46.09,8.48,8.48,0,0,1-2-.94,6,6,0,0,1-1.66-1.59,4.08,4.08,0,0,1-.7-2.11c-.05-.68-.09-1.36-.08-2,.71,1.14,1.06,2.54,1.94,3.13a6.07,6.07,0,0,0,3.1,1.14,18.3,18.3,0,0,0,7-.71,16,16,0,0,0,6.25-3.23,11.41,11.41,0,0,0,2.37-2.67A5.92,5.92,0,0,0,195.23,173.17Z" transform="translate(-5.46 -70.92)"/><path class="cls-21" d="M138.63,176.63a5.31,5.31,0,0,1,4.07,1.91,4.77,4.77,0,0,1,.87,2.45,6.3,6.3,0,0,1-.48,2.53,10.83,10.83,0,0,1-2.87,3.8,16.17,16.17,0,0,1-3.86,2.48,15.51,15.51,0,0,1-9,1.41,11,11,0,0,1-4.3-1.62,7.16,7.16,0,0,1-1.68-1.57,4.28,4.28,0,0,1-.85-2.06,5.82,5.82,0,0,0,3.22,2.26,11.8,11.8,0,0,0,3.82.53A17.91,17.91,0,0,0,135,187a14.1,14.1,0,0,0,5.85-4.54,5.42,5.42,0,0,0,.64-1.52,3,3,0,0,0-.14-1.59A5.73,5.73,0,0,0,138.63,176.63Z" transform="translate(-5.46 -70.92)"/><path class="cls-22" d="M150.69,182.26a6.45,6.45,0,0,1-4.87-.18,5,5,0,0,1-2.16-1.88,5.74,5.74,0,0,1-.16-5.6,6.38,6.38,0,0,1,1.71-2,7.66,7.66,0,0,1,4.5-1.67,36.58,36.58,0,0,0-2.72,3.36,5.36,5.36,0,0,0-1,3.08,3.49,3.49,0,0,0,1.16,2.69A15.65,15.65,0,0,0,150.69,182.26Z" transform="translate(-5.46 -70.92)"/><path class="cls-23" d="M171.88,182.3a3.66,3.66,0,0,1,.54,1.89,5.7,5.7,0,0,1-.4,2,9.83,9.83,0,0,1-2.29,3.3,16.89,16.89,0,0,1-6.78,3.9,15.49,15.49,0,0,1-7.86.45,8.62,8.62,0,0,1-3.69-1.75,3.88,3.88,0,0,1-1.44-3.61c0,.15,0,.34.1.41a4.4,4.4,0,0,1,.29.39,3.57,3.57,0,0,0,.55.66,4.12,4.12,0,0,0,1.35.87,9.12,9.12,0,0,0,3.18.6,20.79,20.79,0,0,0,6.6-1,24.73,24.73,0,0,0,6.14-2.8,11.38,11.38,0,0,0,2.52-2.16A4.54,4.54,0,0,0,171.88,182.3Z" transform="translate(-5.46 -70.92)"/><path class="cls-24" d="M171.88,182.3a78.71,78.71,0,0,0-4.36-12.6A45.37,45.37,0,0,0,161.94,158a25.4,25.4,0,0,0-9.28-8.4,23,23,0,0,0-12.22-2.27,29.22,29.22,0,0,0-12.1,3.52,17.6,17.6,0,0,0-7.74,9.3,29.51,29.51,0,0,0-1.36,12.58A58.43,58.43,0,0,0,120.57,186a46.71,46.71,0,0,1-4.45-13,32.48,32.48,0,0,1,1.54-13.92,20.74,20.74,0,0,1,9.09-10.92,26.23,26.23,0,0,1,6.56-2.72,37.65,37.65,0,0,1,6.9-1.22,26.23,26.23,0,0,1,13.86,2.59,28.57,28.57,0,0,1,10.45,9.42,50.44,50.44,0,0,1,6,12.47A54.93,54.93,0,0,1,171.88,182.3Z" transform="translate(-5.46 -70.92)"/><path class="cls-25" d="M150,188.48a59.58,59.58,0,0,0-.26-13.36,27.11,27.11,0,0,0-4.47-12.07,18.52,18.52,0,0,0-10.43-7,42.82,42.82,0,0,0-13.23-1.11,31.55,31.55,0,0,1,13.62-.47,20,20,0,0,1,6.54,2.53,18.78,18.78,0,0,1,5.18,4.83,25.61,25.61,0,0,1,4.4,13.12A39.21,39.21,0,0,1,150,188.48Z" transform="translate(-5.46 -70.92)"/><path class="cls-26" d="M136.79,155.74a25.14,25.14,0,0,0-1,2.87,10.54,10.54,0,0,0-1.72,7.73,13.88,13.88,0,0,0,2,5.12,22.63,22.63,0,0,0,1.61,2.34c.33.94.77,1.85,1.11,2.88a21.94,21.94,0,0,1-2.76-1.6,23.93,23.93,0,0,1-1.75-2.55,15.82,15.82,0,0,1-2.25-5.86,12.75,12.75,0,0,1,.58-6.36,15.32,15.32,0,0,1,1.44-2.86A9.31,9.31,0,0,1,136.79,155.74Z" transform="translate(-5.46 -70.92)"/><path class="cls-27" d="M195.29,173.37c-.62-3-1.27-5.88-2.09-8.7a49.2,49.2,0,0,0-1.77-8.47c-1.65-5.45-4.55-10.65-9.12-13.69a17.71,17.71,0,0,0-7.65-2.78,28.29,28.29,0,0,0-8.4.31,26.84,26.84,0,0,0-8,2.66,20.84,20.84,0,0,0-7.43,4.41,18.29,18.29,0,0,1,5.95-7.17,30,30,0,0,1,8.89-3,31.24,31.24,0,0,1,9.37-.34,20.86,20.86,0,0,1,9,3.27,22.67,22.67,0,0,1,6.57,6.88,34.94,34.94,0,0,1,3.81,8.5,57.11,57.11,0,0,1,1.91,9A46.06,46.06,0,0,1,195.29,173.37Z" transform="translate(-5.46 -70.92)"/><path class="cls-28" d="M173.45,179a59.71,59.71,0,0,0,2.22-12.53,30.66,30.66,0,0,0-.23-6.22,16.64,16.64,0,0,0-1.85-5.72,11.87,11.87,0,0,0-4-4.32A17.55,17.55,0,0,0,164,148a46.21,46.21,0,0,0-12.64-.65,32.21,32.21,0,0,1,12.95-1,17.47,17.47,0,0,1,6.36,2.23,13.51,13.51,0,0,1,4.74,5,18,18,0,0,1,2,6.48,28.24,28.24,0,0,1-.1,6.63A37.91,37.91,0,0,1,173.45,179Z" transform="translate(-5.46 -70.92)"/><path class="cls-29" d="M166.27,147.65c-.77,1.3-1.61,2.43-2.4,3.61s-1.54,2.34-2.36,3.6a7.92,7.92,0,0,1,1.5-4.19A9.53,9.53,0,0,1,166.27,147.65Z" transform="translate(-5.46 -70.92)"/><path class="cls-30" d="M153.14,271.37a34.8,34.8,0,0,0,10.38-3.26q4.9-2.48,9.85-4.88c3.28-1.62,6.59-3.19,9.9-4.76s6.62-3.14,9.94-4.66l10-4.59,10-4.5,5-2.24,1.25-.54c.34-.16.68-.32,1-.51a12.71,12.71,0,0,0,1.88-1.28,12.27,12.27,0,0,0,4.29-7.76,13,13,0,0,0,.09-2.25l-.14-2.71-.28-5.48-.57-11c-.27-7.31-.65-14.62-.83-21.94l-.16-5.48c0-.44,0-1,0-1.32a8.8,8.8,0,0,0-.13-1.15,9.65,9.65,0,0,0-.65-2.21,9.81,9.81,0,0,0-7.09-5.77c-.38-.09-.82-.16-1.29-.23l-1.35-.21-2.72-.42c-1.81-.29-3.62-.55-5.43-.87l-5.42-.9-5.42-1,5.5.18,5.5.23c1.83.07,3.66.19,5.49.29l2.74.14,1.37.08c.45,0,.91.05,1.44.11a12.73,12.73,0,0,1,5.71,2.18,13,13,0,0,1,4.11,4.67,11.88,11.88,0,0,1,1.09,3,10.52,10.52,0,0,1,.27,1.57c.08.55.09.94.14,1.42l.47,5.47c.65,7.29,1.12,14.59,1.69,21.89l.7,11,.34,5.48.18,2.77a17.26,17.26,0,0,1-6.38,14.16,17,17,0,0,1-2.67,1.78c-.47.26-1,.48-1.44.7l-1.28.54-5.07,2.08-10.17,4.15-10.2,4.06q-5.1,2-10.24,4c-3.42,1.31-6.83,2.62-10.27,3.88s-6.88,2.53-10.33,3.76A37.82,37.82,0,0,1,153.14,271.37Z" transform="translate(-5.46 -70.92)"/><path class="cls-31" d="M88.87,227.1a62.61,62.61,0,0,1,2.21,11.06c.11.93.21,1.85.29,2.77,0,.47.08.93.11,1.39,0,.25,0,.44.06.61a5,5,0,0,0,.08.54,10.27,10.27,0,0,0,4.63,7,9.06,9.06,0,0,0,1,.54,7.43,7.43,0,0,0,1.13.47l2.63.89L111.46,256c7,2.44,14,5,20.91,7.48s13.89,5.15,20.77,7.92c-7.21-1.73-14.36-3.65-21.51-5.58s-14.27-4-21.38-6L99.6,256.64,97,255.85c-.41-.14-1-.26-1.5-.44a12.38,12.38,0,0,1-1.55-.65A13,13,0,0,1,86.69,244q0-.42,0-.84c0-.29,0-.56,0-.77,0-.47,0-.93.07-1.39.06-.93.13-1.85.21-2.78A62.68,62.68,0,0,1,88.87,227.1Z" transform="translate(-5.46 -70.92)"/><path class="cls-32" d="M119.46,182.51a50.55,50.55,0,0,1-8.48,5.24,83.35,83.35,0,0,1-9,3.85c-1.53.55-3.07,1.07-4.63,1.53-.78.23-1.56.47-2.35.67l-1.19.31a6.7,6.7,0,0,0-.83.23,5.93,5.93,0,0,0-2.9,2.31,6.94,6.94,0,0,0-.91,1.94c-.21.8-.41,1.63-.69,2.44a23.65,23.65,0,0,1-.75-2.44,6.9,6.9,0,0,1-.06-2.83,7.9,7.9,0,0,1,3.28-5,10.53,10.53,0,0,1,1.37-.79l1.11-.51c.74-.36,1.49-.67,2.24-1,1.49-.64,3-1.22,4.54-1.78a80.66,80.66,0,0,1,9.36-2.79A49.76,49.76,0,0,1,119.46,182.51Z" transform="translate(-5.46 -70.92)"/><path class="cls-33" d="M118.4,217.75a23.82,23.82,0,0,1-14.27-.31,25.29,25.29,0,0,1-6.56-3.31,27.89,27.89,0,0,1-5.39-5,38.28,38.28,0,0,1-6.76-12.8A53.24,53.24,0,0,1,83,182.26a117.21,117.21,0,0,0,4.27,13.38,53.91,53.91,0,0,0,3,6.21,33,33,0,0,0,3.84,5.62,27.6,27.6,0,0,0,10.67,8.09A29.86,29.86,0,0,0,118.4,217.75Z" transform="translate(-5.46 -70.92)"/><path class="cls-34" d="M118.4,240.06a45.76,45.76,0,0,1-9.35-1.48,57.38,57.38,0,0,1-9-3.15,54.47,54.47,0,0,1-8.37-4.67,56.2,56.2,0,0,1-7.41-6.11,51.23,51.23,0,0,1-6.11-7.44l-1.3-2-1.17-2.1a47.48,47.48,0,0,1-2.07-4.32,55.22,55.22,0,0,1-4.14-18.48,79.7,79.7,0,0,0,6,17.64,56,56,0,0,0,10.64,14.9,60.65,60.65,0,0,0,14.83,10.79A73.62,73.62,0,0,0,118.4,240.06Z" transform="translate(-5.46 -70.92)"/><path class="cls-35" d="M65,147.7a19.66,19.66,0,0,1,7.5-.17,21.62,21.62,0,0,1,7.39,2.56,25,25,0,0,1,5.6,5.61A24.24,24.24,0,0,1,89,162.82a23.5,23.5,0,0,1,1,7.86,25.7,25.7,0,0,1-1.62,7.75,24.27,24.27,0,0,1-10.09,11.94A24,24,0,0,1,63,193.59a24.62,24.62,0,0,1-7.6-2.22,24.89,24.89,0,0,1-6.46-4.59,24.15,24.15,0,0,1-6.91-14,22.14,22.14,0,0,1,1.26-7.72A19.85,19.85,0,0,1,47,158.52a23.36,23.36,0,0,0-1,3.48,18.14,18.14,0,0,0-.45,3.5,20.16,20.16,0,0,0,.69,6.74,20,20,0,0,0,5.72,11.58,19.57,19.57,0,0,0,11.62,5.63,19.84,19.84,0,0,0,12.63-2.66,20.14,20.14,0,0,0,8.34-9.87,21.31,21.31,0,0,0,1.34-6.41A19.28,19.28,0,0,0,85,164a19.39,19.39,0,0,0-7.51-10.5,23.53,23.53,0,0,0-2.6-2.12l-1.46-.89c-.49-.29-1-.5-1.54-.78A22.52,22.52,0,0,0,65,147.7Z" transform="translate(-5.46 -70.92)"/><path class="cls-36" d="M47.17,157.82A11.71,11.71,0,0,0,53.76,165a10.92,10.92,0,0,0,4.6.73,10.22,10.22,0,0,0,7.74-4.4,11,11,0,0,0,1.71-4.32A11.67,11.67,0,0,0,65,147.7h0l.05,0H65a10,10,0,0,1,3.9,3.93,11,11,0,0,1,1.36,5.63A11.56,11.56,0,0,1,68.6,163a11.9,11.9,0,0,1-10.15,5.76,11.56,11.56,0,0,1-3-.38,11,11,0,0,1-8.29-10.53Z" transform="translate(-5.46 -70.92)"/></g></svg>