<?xml version="1.0" encoding="utf-8"?>
<!-- Generator: Adobe Illustrator 22.1.0, SVG Export Plug-In . SVG Version: 6.00 Build 0)  -->
<svg version="1.1" id="Layer_1" xmlns="http://www.w3.org/2000/svg" xmlns:xlink="http://www.w3.org/1999/xlink" x="0px" y="0px"
	 viewBox="0 0 1920 300" style="enable-background:new 0 0 1920 300;" xml:space="preserve">
<style type="text/css">
	.st0{fill:url(#SVGID_1_);}
	.st1{opacity:0.51;clip-path:url(#SVGID_3_);}
	.st2{fill:#FFFFFF;}
	.st3{opacity:0.34;fill:#FFFFFF;}
</style>
<g>
	<linearGradient id="SVGID_1_" gradientUnits="userSpaceOnUse" x1="0.2209" y1="149.8687" x2="1920" y2="149.8687">
		<stop  offset="0" style="stop-color:#F05B31"/>
		<stop  offset="1" style="stop-color:#F05D5B"/>
	</linearGradient>
	<rect x="0.2" y="0" class="st0" width="1919.8" height="299.8"/>
	<g>
		<defs>
			<rect id="SVGID_2_" x="0.2" y="0" width="1919.8" height="299.8"/>
		</defs>
		<clipPath id="SVGID_3_">
			<use xlink:href="#SVGID_2_"  style="overflow:visible;"/>
		</clipPath>
		<g class="st1">
			<path class="st2" d="M2053.1,255.5c-3.6-1.8-7.7-1.3-10.8,0.8l-47.2-53.2c1.4-1.1,2.5-2.5,3.3-4.2c2.6-5.7,0.3-12.5-5.2-15.1
				c-5.5-2.7-12.1-0.3-14.7,5.4c-0.7,1.5-1,3.2-1.1,4.8l-86.1-12.1l-77.9,5.4c-0.7-3.3-2.8-6.2-6-7.7c-3.9-1.9-8.4-1.2-11.6,1.4
				l-79.5-74.3c0.3-0.4,0.5-0.9,0.7-1.3c0.6-1.3,0.9-2.7,1-4.1l83.8-7.8c1,2.4,2.9,4.5,5.4,5.7c5.5,2.7,12.1,0.3,14.7-5.4
				c2.6-5.7,0.3-12.5-5.2-15.1c-5.5-2.7-12.1-0.3-14.7,5.4c-0.9,1.9-1.2,3.9-1,5.9l-83.2,7.8c-0.8-3.2-2.9-6-6-7.5
				c-5.2-2.6-11.4-0.5-14.3,4.6l-73.4-28.9c0-2.6-0.8-5.2-2.4-7.2l77.7-53.4c0.9,1,2.1,1.9,3.4,2.6c5.5,2.7,12.1,0.3,14.7-5.4
				c0.7-1.4,1-2.9,1.1-4.4l68.3-8.4c0.8,3,2.9,5.7,5.9,7.2c5.5,2.7,12.1,0.3,14.7-5.4c2.6-5.7,0.3-12.5-5.2-15.1
				c-5.5-2.7-12.1-0.3-14.7,5.4c-0.7,1.4-1,2.9-1.1,4.4l-68.3,8.4c-0.8-3-2.9-5.7-5.9-7.2c-5.5-2.7-12.1-0.3-14.7,5.4
				c-1.5,3.2-1.4,6.7-0.1,9.6l-78.5,53.9c-0.4-0.3-0.8-0.5-1.2-0.7c-4.5-2.2-9.6-1-12.8,2.6L1515.9,19c2-5.8-0.6-12.3-6.1-15
				c-5.9-2.9-12.9-0.3-15.7,5.8c-1.1,2.4-1.4,5.1-0.9,7.6l-69.9,21.1c-1.1-2.3-2.8-4.2-5.2-5.4c-0.4-0.2-0.9-0.4-1.3-0.5l12.6-84.8
				c4.1-0.1,8-2.4,9.8-6.5c1-2.3,1.3-4.7,0.9-6.9l88.8-31.5c1.1,2.3,3,4.3,5.4,5.5c5.9,2.9,12.9,0.3,15.7-5.8
				c2.8-6,0.3-13.3-5.6-16.1c-5.9-2.9-12.9-0.3-15.7,5.8c-1.1,2.3-1.4,4.9-1,7.2L1439-69.2c-1.1-2-2.8-3.7-4.9-4.8
				c-5.5-2.7-12.1-0.3-14.7,5.4c-2.6,5.7-0.3,12.5,5.2,15.1c0.5,0.2,0.9,0.4,1.4,0.6L1413.4,32c-4.1,0-8,2.4-9.9,6.5
				c-0.1,0.1-0.1,0.3-0.2,0.4l-70.4-18c0.4-4.6-2-9.1-6.3-11.2c-0.2-0.1-0.3-0.1-0.5-0.2l22.5-98l0.3-1.2l-61.7-46.4
				c0-0.1,0.1-0.2,0.2-0.3c2.6-5.7,0.3-12.5-5.2-15.1c-5.5-2.7-12.1-0.3-14.7,5.4c-2.6,5.7-0.3,12.5,5.2,15.1
				c4.3,2.1,9.3,1.1,12.5-2.2l59.8,45l-22.2,96.9c-2.5-0.2-4.9,0.5-6.9,1.9l-49.6-55.2c1-1,1.9-2.2,2.5-3.5c2.8-6,0.3-13.3-5.6-16.1
				c-5.9-2.9-12.9-0.3-15.7,5.8c-0.1,0.3-0.3,0.6-0.4,0.9l-74-22.8l-0.1,0l-97-13c-0.1-4.1-2.4-8-6.3-9.9
				c-5.5-2.7-12.1-0.3-14.7,5.4c-2.6,5.7-0.3,12.5,5.2,15.1c5.5,2.7,12.1,0.3,14.7-5.4c0.2-0.5,0.4-1.1,0.6-1.6l96.7,13l74.2,22.8
				c-0.3,4.8,2.2,9.5,6.7,11.7c3.4,1.7,7.2,1.5,10.3-0.1l49.9,55.6c-0.5,0.7-0.9,1.4-1.3,2.1c-0.9,2-1.2,4.1-1,6.1l-77.8,22.1
				c-1-2.4-2.9-4.4-5.3-5.6c-4.8-2.4-10.5-0.8-13.6,3.5l-77.5-41.9l-0.4-0.2l-79-1.9l-0.1,3.6l78.1,1.9l77.2,41.7
				c-1.8,5.4,0.6,11.4,5.7,13.9c2.4,1.2,5.1,1.4,7.5,0.7l25.9,60.2c-0.1,0.1-0.1,0.3-0.2,0.4c-0.9,1.9-1.2,3.9-1,5.8l-81.8-3.7
				c0.4-4.9-2.1-9.8-6.7-12c-5.9-2.9-12.9-0.3-15.7,5.8c-2.8,6-0.3,13.3,5.6,16.1c5.9,2.9,12.9,0.3,15.7-5.8
				c0.1-0.2,0.2-0.4,0.2-0.6l83.6,3.8c0.6,1.3,1.4,2.5,2.4,3.5l-27.5,86l-75.7-16.7c0.2-4.5-2.1-8.8-6.3-10.9
				c-5.5-2.7-12.1-0.3-14.7,5.4c-2.6,5.7-0.3,12.5,5.2,15.1c5.5,2.7,12.1,0.3,14.7-5.4c0.1-0.3,0.2-0.5,0.3-0.8l76.2,16.8l13.6,72
				c-2.6,1-4.9,3-6.2,5.8c-2.6,5.7-0.3,12.5,5.2,15.1c5.5,2.7,12.1,0.3,14.7-5.4c2.6-5.7,0.3-12.5-5.2-15.1
				c-1.6-0.8-3.4-1.1-5.1-1.1l-13.5-71.1l91.7-3.5c1.1,2.5,3.1,4.7,5.7,6c4.1,2,8.7,1.3,12.1-1.3l38.7,34.3l-36,30.8
				c-1-1.2-2.2-2.2-3.7-3c-5.5-2.7-12.1-0.3-14.7,5.4c-2.6,5.7-0.3,12.5,5.2,15.1c5.5,2.7,12.1,0.3,14.7-5.4c1.4-3,1.4-6.2,0.3-9.1
				l36.9-31.5l48.8,43.3c-0.1,0.2-0.3,0.5-0.4,0.7c-2.6,5.7-0.3,12.5,5.2,15.1c1.2,0.6,2.5,0.9,3.7,1l10.3,83.7l-81.9,1.2
				c-0.6-3.5-2.8-6.7-6.1-8.3c-5.5-2.7-12.1-0.3-14.7,5.4c-2.6,5.7-0.3,12.5,5.2,15.1c5.5,2.7,12.1,0.3,14.7-5.4
				c0.5-1,0.8-2.1,0.9-3.2l84.3-1.2l79.7-43.9c1.1,2.2,2.9,4,5.3,5.1c4.6,2.2,9.9,1.1,13.3-2.3l51.1,60.7l-41.9,33.9
				c-0.8-0.8-1.7-1.4-2.8-1.9c-5.5-2.7-12.1-0.3-14.7,5.4c-2.6,5.7-0.3,12.5,5.2,15.1c5.5,2.7,12.1,0.3,14.7-5.4
				c1.6-3.4,1.3-7.3-0.3-10.4l42.7-34.5l126.3,22.8l71,73.7c-0.5,0.6-0.9,1.3-1.2,2c-2.8,6-0.3,13.3,5.6,16.1
				c5.9,2.9,12.9,0.3,15.7-5.8c2.8-6,0.3-13.3-5.6-16.1c-4-2-8.6-1.4-12,1.2l-69.7-72.4l66.8-37l33.8,41.3c-0.6,0.8-1.2,1.6-1.6,2.5
				c-2.6,5.7-0.3,12.5,5.2,15.1c5.5,2.7,12.1,0.3,14.7-5.4c2.6-5.7,0.3-12.5-5.2-15.1c-3.5-1.7-7.4-1.4-10.4,0.5l-33.3-40.7
				l56.9-31.4c0.9,1,2,1.8,3.3,2.4c5.9,2.9,12.9,0.3,15.7-5.8c2.8-6,0.3-13.3-5.6-16.1c-1-0.5-2-0.8-3-1l-12.3-92.8
				c3.7-0.1,7.2-2.1,9.2-5.6l71.1,26.1l47.1-83.2c2.3,0.7,4.6,0.7,6.7-0.1l47.9,53.9c-0.5,0.7-1,1.4-1.3,2.2
				c-2.6,5.7-0.3,12.5,5.2,15.1c5.5,2.7,12.1,0.3,14.7-5.4C2061,265,2058.7,258.2,2053.1,255.5z M1847.6,261l-27.6,33.3
				c-0.5-0.3-1-0.7-1.6-0.9c-5.9-2.9-12.9-0.3-15.7,5.8c-1.8,3.8-1.4,8.1,0.6,11.5l-51.8,39l-54.8-60.8c0.9-0.9,1.7-2,2.3-3.3
				c1.2-2.6,1.3-5.4,0.6-8l55.4-32.5l41.5-45.8c0.4,0.3,0.9,0.6,1.4,0.8c3.4,1.7,7.2,1.4,10.2-0.4l39.9,50.6c-0.2,0.3-0.4,0.7-0.5,1
				C1846.1,254.5,1846.2,258,1847.6,261z M1656.4,377.9c1.1,1.8,2.7,3.3,4.7,4.3c2.7,1.3,5.5,1.4,8.1,0.5l56.3,65.1l-119.2-21.6
				L1656.4,377.9z M1675.2,366c-1.1-1.9-2.7-3.4-4.7-4.4c-4.1-2-8.7-1.2-11.9,1.7l-29.7-47.1c0.1-0.1,0.1-0.2,0.2-0.4
				c1.8-3.9,1.2-8.4-1.1-11.6l52-17.3c1.1,1.7,2.6,3.1,4.5,4c3.1,1.5,6.6,1.4,9.5,0l54.1,60L1675.2,366z M1604.3,72.5
				c1,1.4,2.4,2.6,4.1,3.4c5.5,2.7,12.1,0.3,14.7-5.4c0.2-0.4,0.3-0.7,0.4-1.1l72.7,28.7c-0.5,2.3-0.2,4.7,0.7,6.8l-75,48.7
				c-1.1-1.4-2.5-2.6-4.1-3.4c-5-2.4-10.8-0.9-14.1,3.3l-42.5-30c0,0,0,0,0-0.1c1.7-3.8,1.3-8-0.9-11.3L1604.3,72.5z M1791.7,190
				c0,2.5,0.9,4.8,2.3,6.8l-41.1,45.4l-54.7,32.1c-1.1-1.6-2.6-3-4.4-3.9c-0.8-0.4-1.6-0.6-2.4-0.8l8.9-86.5
				c3.3-0.3,6.4-2.2,8.2-5.3L1791.7,190z M1623.7,300.7c-2.8-1.4-5.9-1.4-8.6-0.4l-86.2-51.2c1.3-3.4,0.8-7.1-0.9-10l77.3-68.6
				c0.7,0.6,1.5,1.1,2.4,1.6c3,1.5,6.4,1.5,9.3,0.3l63.6,100.8c-0.6,0.7-1.2,1.6-1.6,2.5c-1.2,2.5-1.3,5.3-0.7,7.8l-53.5,17.8
				C1624.6,301.1,1624.2,300.9,1623.7,300.7z M1542.6,125.6c1,1.3,2.3,2.4,3.9,3.2c4.4,2.1,9.5,1,12.7-2.4l42.7,30.2
				c-1.5,3.8-1,8,1.1,11.3l-77.2,68.5c-0.7-0.6-1.5-1.2-2.4-1.6c-2.4-1.2-5-1.4-7.4-0.7l-30.3-72.8L1542.6,125.6z M1688.6,174.9
				c0.8,3,2.9,5.7,5.9,7.2c0.8,0.4,1.6,0.6,2.4,0.8l-8.9,86.5c-1.6,0.2-3.2,0.7-4.6,1.6l-63.3-100.3c1.4-1.1,2.5-2.6,3.3-4.3
				c0.2-0.3,0.3-0.7,0.4-1L1688.6,174.9z M1689.2,166.9c-0.6,1.4-1,2.8-1,4.3l-63.7-9.3c0.1-1.8-0.2-3.5-0.8-5.1l75.1-48.8
				c1,1.1,2.2,2.1,3.6,2.8c0.6,0.3,1.2,0.5,1.8,0.7l-5,49C1695,160.4,1691.1,162.8,1689.2,166.9z M1540.9,122.4l-56.8,35.7
				l-21.2-35.4c1.6-1.1,3-2.7,3.9-4.6l73.5,1.8C1540.4,120.7,1540.6,121.6,1540.9,122.4z M1445.9,113.8l-68-2.4
				c-0.3-3.1-1.8-5.9-4.2-7.9l34.8-50.1c0.1,0,0.1,0.1,0.2,0.1c2.9,1.4,6.2,1.4,8.9,0.2l31,51.9c-0.7,0.8-1.3,1.7-1.7,2.7
				C1446.1,110.1,1445.8,112,1445.9,113.8z M1405.7,51.4l-34.9,50.3c-2.9-1.3-6.1-1.2-8.9,0l-33.7-72.4c1.5-1.1,2.8-2.6,3.7-4.5
				c0.1-0.1,0.1-0.3,0.2-0.4l70.4,18C1402.2,45.7,1403.4,49,1405.7,51.4z M1317.7,30.4c2.4,1,5,1.1,7.4,0.4l33.8,72.7
				c-1.3,1.1-2.4,2.5-3.2,4.2c-0.7,1.6-1.1,3.2-1.1,4.8l-82,11.1c-0.3-3.7-2.2-7.1-5.5-9L1317.7,30.4z M1271.5,129.2
				c0.3-0.7,0.5-1.4,0.7-2l82.7-11.2c0.8,2.9,2.6,5.6,5.3,7.2l-23.9,79.2c-3.7-1.5-7.8-0.9-11,1.3l-59.4-69
				C1268.3,133.7,1270.3,131.8,1271.5,129.2z M1339.3,204.3l24.1-79.7c2.3,0.6,4.7,0.4,6.9-0.4l39.3,62l-66.2,24.7
				C1342.8,208.4,1341.4,206,1339.3,204.3z M1373.4,122.5c1.5-1.1,2.7-2.6,3.5-4.5c0.4-1,0.7-2,0.9-3l68.9,2.4c1,2.5,2.9,4.7,5.5,6
				c2.5,1.2,5.1,1.4,7.5,0.7l21.2,35.5L1413,185L1373.4,122.5z M1482.6,162.9l30.2,72.6c-1.6,1.1-3,2.6-3.9,4.4l-66.6-22.5
				c1.1-5.1-1.3-10.4-6-12.7c-3.4-1.7-7.3-1.4-10.3,0.5l-10.9-17.2L1482.6,162.9z M1441,220.8l66.8,22.5c-0.4,2.5,0.1,5,1.2,7.2
				l-62.9,49.9c-0.8-0.7-1.6-1.3-2.6-1.7c-1.5-0.7-3-1.1-4.6-1.1l-6.1-71.3C1436.2,225.9,1439.2,223.9,1441,220.8z M1448.3,303.2
				l62.8-49.8c0.8,0.8,1.8,1.5,2.8,2c1.7,0.8,3.5,1.2,5.3,1.1l18.8,89.5c-2.1,0.5-4.1,1.6-5.6,3.1l-83-37.1
				C1450.3,309,1449.8,305.8,1448.3,303.2z M1545.7,346.8c-1.3-0.6-2.7-1-4.1-1.1l-18.9-90c1.8-0.7,3.3-1.9,4.6-3.4l84.5,50.2
				c-1.1,1-2,2.2-2.7,3.7c-0.7,1.4-1,2.9-1.1,4.4l-59.4,38.3C1547.7,348,1546.8,347.4,1545.7,346.8z M1793.5,183.6
				c-0.3,0.4-0.5,0.9-0.7,1.3c-0.2,0.5-0.4,1-0.6,1.5l-82.2-12.1c1.2-5.1-1.2-10.6-6-12.9c-0.4-0.2-0.9-0.4-1.3-0.5l5.1-49.2
				c2.3-0.1,4.5-1,6.3-2.5L1793.5,183.6z M1494.5,20.8c1.1,2.2,2.9,4.1,5.3,5.2c5.2,2.5,11.2,0.8,14.5-3.7l88.8,38.8
				c-1.2,2.7-1.2,5.6-0.4,8.2l-44.7,40.3c-0.6-0.5-1.3-0.9-2-1.3c-5.5-2.7-12.1-0.3-14.7,5.4c-0.4,0.9-0.7,1.7-0.8,2.6l-72.6-1.7
				c0.5-4.7-1.8-9.5-6.2-11.6c-3.4-1.7-7.2-1.4-10.3,0.4l-30.7-51.4c1.1-1,2.1-2.3,2.8-3.7c0.9-2,1.2-4.2,1-6.3L1494.5,20.8z
				 M1229.1,57.4c1.7-1.1,3.1-2.7,4-4.7c0.9-2,1.2-4.1,1-6.1l77.8-22.1c0.6,1.5,1.6,2.8,2.8,3.9l-51,84.7c-3.4-0.7-7,0.3-9.5,2.6
				L1229.1,57.4z M1229.9,218.7l26.9-84.1c0,0,0,0,0,0c1.7,0.8,3.5,1.2,5.2,1.1l60.7,70.5c-0.5,0.7-1,1.5-1.4,2.3
				c-1,2.1-1.3,4.4-1,6.6L1229.9,218.7z M1341.5,220.9c0.4-0.6,0.8-1.2,1.1-1.9c0.6-1.4,1-2.8,1.1-4.2l67.9-25.3l11.6,18.2
				c-0.6,0.8-1.2,1.6-1.7,2.6c-1.5,3.3-1.3,7,0.1,10l-41.2,35.2L1341.5,220.9z M1383.1,257.8l40.6-34.7c0.9,0.9,1.9,1.7,3.1,2.2
				c0.8,0.4,1.7,0.7,2.6,0.9l6.2,71.9c-1.5,0.5-2.9,1.3-4.1,2.4L1383.1,257.8z M1451.6,402.9l-10.2-82.9c2.7-0.6,5.1-2.3,6.6-4.7
				l82.3,36.8c-0.1,0.2-0.2,0.4-0.3,0.5c-1.1,2.5-1.4,5.1-0.9,7.6L1451.6,402.9z M1550.8,351.6l57.7-37.2c0.9,2.9,2.9,5.4,5.8,6.9
				c4.2,2.1,9.1,1.1,12.3-2l29.6,47c-0.1,0.3-0.3,0.5-0.4,0.8c-1.1,2.4-1.3,4.9-0.8,7.3l-52.3,50.5l-51.6-61.3
				c0.1-0.2,0.2-0.3,0.2-0.5C1553,359.2,1552.7,354.9,1550.8,351.6z M1730.5,448.2l-58.1-67.2c1.4-1.1,2.6-2.5,3.4-4.2
				c1.1-2.4,1.3-5,0.8-7.3l74.2-15.4l46.8,57.1L1730.5,448.2z M1857.5,367c-1.6,3.6-1.4,7.6,0.2,10.8l-57.1,31.6l-46.7-57l51.8-38.9
				c0.8,0.7,1.7,1.4,2.7,1.9c5.9,2.9,12.9,0.3,15.7-5.8c2-4.3,1.3-9.2-1.5-12.8l27-32.7c0.9,1,2,1.8,3.2,2.4
				c0.5,0.2,0.9,0.4,1.4,0.6l12.4,93.2C1862.8,360.7,1859.3,363.1,1857.5,367z M1936.6,283.7l-68.3-25c1.1-5.1-1.3-10.4-6-12.7
				c-4-2-8.6-1.2-11.8,1.6l-39.5-50.1c0.7-0.8,1.3-1.7,1.7-2.7c0.6-1.2,0.9-2.5,1-3.8l77.4-5.4l86.9,12.3c0.7,2.2,2.1,4.2,4.1,5.6
				L1936.6,283.7z"/>
			<ellipse class="st3" cx="1429.3" cy="-63.7" rx="22.5" ry="23.2"/>
			<ellipse class="st3" cx="1413.4" cy="43.3" rx="22.5" ry="23.2"/>
			<ellipse class="st3" cx="1707.6" cy="-2.5" rx="22.5" ry="23.2"/>
			<ellipse class="st3" cx="1551.3" cy="118.5" rx="22.5" ry="23.2"/>
			<ellipse class="st3" cx="1456.9" cy="113.2" rx="22.5" ry="23.2"/>
			<ellipse class="st3" cx="1707.1" cy="100.4" rx="22.5" ry="23.2"/>
			<ellipse class="st3" cx="1802.7" cy="189.8" rx="22.5" ry="23.2"/>
			<ellipse class="st3" cx="1797.5" cy="-13.6" rx="22.5" ry="23.2"/>
			<ellipse class="st3" cx="1812" cy="88.8" rx="22.5" ry="23.2"/>
			<ellipse class="st3" cx="1988.4" cy="194" rx="22.5" ry="23.2"/>
			<ellipse class="st3" cx="2048.4" cy="265.8" rx="22.5" ry="23.2"/>
			<ellipse class="st3" cx="1857.6" cy="256.2" rx="22.5" ry="23.2"/>
			<ellipse class="st3" cx="1699.2" cy="171.7" rx="22.5" ry="23.2"/>
			<ellipse class="st3" cx="1613.1" cy="65.7" rx="22.5" ry="23.2"/>
			<ellipse class="st3" cx="1518.7" cy="245.1" rx="22.5" ry="23.2"/>
			<ellipse class="st3" cx="1619" cy="310.9" rx="22.5" ry="23.2"/>
			<ellipse class="st3" cx="1550.6" cy="469.3" rx="22.5" ry="23.2"/>
			<ellipse class="st3" cx="1842" cy="462.6" rx="22.5" ry="23.2"/>
			<ellipse class="st3" cx="1665.7" cy="371.9" rx="22.5" ry="23.2"/>
			<ellipse class="st3" cx="1355.4" cy="407.1" rx="22.5" ry="23.2"/>
			<ellipse class="st3" cx="1438.8" cy="309" rx="22.5" ry="23.2"/>
			<ellipse class="st3" cx="1333.3" cy="295.8" rx="22.5" ry="23.2"/>
			<ellipse class="st3" cx="1431.5" cy="215" rx="22.5" ry="23.2"/>
			<ellipse class="st3" cx="1243.4" cy="304.7" rx="22.5" ry="23.2"/>
			<ellipse class="st3" cx="1139.6" cy="201.2" rx="22.5" ry="23.2"/>
			<g>
				<ellipse class="st3" cx="1057.4" cy="-1.1" rx="22.5" ry="23.2"/>
				<ellipse class="st2" cx="1057.4" cy="-1.1" rx="11" ry="11.4"/>
			</g>
			<ellipse class="st3" cx="1064.9" cy="-93.3" rx="22.5" ry="23.2"/>
			<ellipse class="st3" cx="1277.4" cy="-141.3" rx="22.5" ry="23.2"/>
			<ellipse class="st3" cx="1321.9" cy="19.9" rx="22.5" ry="23.2"/>
			<ellipse class="st3" cx="1261.5" cy="124.4" rx="22.5" ry="23.2"/>
			<ellipse class="st3" cx="1689.1" cy="280.6" rx="22.5" ry="23.2"/>
			<ellipse class="st3" cx="1223.1" cy="47.9" rx="22.5" ry="23.2"/>
		</g>
	</g>
</g>
</svg>
