<?xml version="1.0" encoding="utf-8"?>
<!-- Generator: Adobe Illustrator 22.1.0, SVG Export Plug-In . SVG Version: 6.00 Build 0)  -->
<svg version="1.1" id="Layer_1" xmlns="http://www.w3.org/2000/svg" xmlns:xlink="http://www.w3.org/1999/xlink" x="0px" y="0px"
	 viewBox="0 0 1920 407" style="enable-background:new 0 0 1920 407;" xml:space="preserve">
<style type="text/css">
	.st0{opacity:0.48;clip-path:url(#SVGID_2_);}
	.st1{fill:url(#SVGID_3_);}
	.st2{opacity:0.34;fill:url(#SVGID_4_);}
	.st3{opacity:0.34;fill:url(#SVGID_5_);}
	.st4{opacity:0.34;fill:url(#SVGID_6_);}
	.st5{opacity:0.34;fill:url(#SVGID_7_);}
	.st6{opacity:0.34;fill:url(#SVGID_8_);}
	.st7{opacity:0.34;fill:url(#SVGID_9_);}
	.st8{opacity:0.34;fill:url(#SVGID_10_);}
	.st9{opacity:0.34;fill:url(#SVGID_11_);}
	.st10{opacity:0.34;fill:url(#SVGID_12_);}
	.st11{opacity:0.34;fill:url(#SVGID_13_);}
	.st12{opacity:0.34;fill:url(#SVGID_14_);}
	.st13{opacity:0.34;fill:url(#SVGID_15_);}
	.st14{opacity:0.34;fill:url(#SVGID_16_);}
	.st15{opacity:0.34;fill:url(#SVGID_17_);}
	.st16{opacity:0.34;fill:url(#SVGID_18_);}
	.st17{opacity:0.34;fill:url(#SVGID_19_);}
	.st18{opacity:0.34;fill:url(#SVGID_20_);}
	.st19{opacity:0.34;fill:url(#SVGID_21_);}
	.st20{opacity:0.34;fill:url(#SVGID_22_);}
	.st21{opacity:0.34;fill:url(#SVGID_23_);}
	.st22{opacity:0.34;fill:url(#SVGID_24_);}
	.st23{opacity:0.34;fill:url(#SVGID_25_);}
	.st24{opacity:0.34;fill:url(#SVGID_26_);}
	.st25{opacity:0.34;fill:url(#SVGID_27_);}
	.st26{fill:url(#SVGID_28_);}
	.st27{opacity:0.34;fill:url(#SVGID_29_);}
	.st28{opacity:0.34;fill:url(#SVGID_30_);}
	.st29{opacity:0.34;fill:url(#SVGID_31_);}
	.st30{opacity:0.34;fill:url(#SVGID_32_);}
	.st31{opacity:0.34;fill:url(#SVGID_33_);}
	.st32{opacity:0.34;fill:url(#SVGID_34_);}
	.st33{fill:url(#SVGID_35_);}
	.st34{opacity:0.34;fill:url(#SVGID_36_);}
	.st35{opacity:0.34;fill:url(#SVGID_37_);}
	.st36{opacity:0.34;fill:url(#SVGID_38_);}
	.st37{opacity:0.34;fill:url(#SVGID_39_);}
	.st38{opacity:0.34;fill:url(#SVGID_40_);}
	.st39{opacity:0.34;fill:url(#SVGID_41_);}
	.st40{opacity:0.34;fill:url(#SVGID_42_);}
	.st41{opacity:0.34;fill:url(#SVGID_43_);}
	.st42{opacity:0.34;fill:url(#SVGID_44_);}
	.st43{opacity:0.34;fill:url(#SVGID_45_);}
	.st44{opacity:0.34;fill:url(#SVGID_46_);}
	.st45{opacity:0.34;fill:url(#SVGID_47_);}
	.st46{opacity:0.34;fill:url(#SVGID_48_);}
	.st47{opacity:0.34;fill:url(#SVGID_49_);}
	.st48{opacity:0.34;fill:url(#SVGID_50_);}
	.st49{opacity:0.34;fill:url(#SVGID_51_);}
	.st50{opacity:0.34;fill:url(#SVGID_52_);}
	.st51{opacity:0.34;fill:url(#SVGID_53_);}
	.st52{opacity:0.34;fill:url(#SVGID_54_);}
	.st53{opacity:0.34;fill:url(#SVGID_55_);}
	.st54{opacity:0.34;fill:url(#SVGID_56_);}
	.st55{opacity:0.34;fill:url(#SVGID_57_);}
	.st56{opacity:0.34;fill:url(#SVGID_58_);}
	.st57{opacity:0.34;fill:url(#SVGID_59_);}
	.st58{fill:url(#SVGID_60_);}
	.st59{opacity:0.34;fill:url(#SVGID_61_);}
	.st60{opacity:0.34;fill:url(#SVGID_62_);}
	.st61{opacity:0.34;fill:url(#SVGID_63_);}
	.st62{opacity:0.34;fill:url(#SVGID_64_);}
	.st63{opacity:0.34;fill:url(#SVGID_65_);}
	.st64{opacity:0.34;fill:url(#SVGID_66_);}
</style>
<g>
	<defs>
		<rect id="SVGID_1_" y="0.1" width="1920" height="407.1"/>
	</defs>
	<clipPath id="SVGID_2_">
		<use xlink:href="#SVGID_1_"  style="overflow:visible;"/>
	</clipPath>
	<g class="st0">
		
			<linearGradient id="SVGID_3_" gradientUnits="userSpaceOnUse" x1="-1298.6206" y1="-902.3662" x2="-735.6947" y2="-902.3662" gradientTransform="matrix(-4.077955e-02 -0.9992 -0.9992 4.077955e-02 -604.2209 -671.4599)">
			<stop  offset="0" style="stop-color:#F05B31"/>
			<stop  offset="1" style="stop-color:#F05D5B"/>
		</linearGradient>
		<path class="st1" d="M433.6,528.6L563.7,512l91,48.4c-0.3,0.7-0.5,1.5-0.6,2.3c-0.9,6.6,3.6,12.7,10.2,13.6
			c6.6,0.9,12.7-3.6,13.6-10.2c0.9-6.6-3.6-12.7-10.2-13.6c-4.5-0.6-8.8,1.3-11.4,4.7L567,509.7l54.5-55.3l45.2,28.9
			c-0.4,0.9-0.7,1.9-0.8,2.9c-0.9,6.2,3.4,11.9,9.6,12.8c6.2,0.9,11.9-3.4,12.8-9.6c0.9-6.2-3.4-11.9-9.6-12.8
			c-3.9-0.6-7.6,0.9-10,3.7L624,451.8l46.3-47c1.2,0.6,2.5,1.1,3.9,1.3c6.6,0.9,12.7-3.6,13.6-10.2c0.9-6.6-3.6-12.7-10.2-13.6
			c-1.1-0.2-2.1-0.1-3.2,0L635.2,298c3.6-1.2,6.4-4.2,7.4-8l77.1,3.2l21.6-93.1c2.4,0,4.7-0.8,6.6-2.1l62.6,36.6
			c-0.3,0.8-0.5,1.6-0.7,2.5c-0.9,6.2,3.4,11.9,9.6,12.8c6.2,0.9,11.9-3.4,12.8-9.6c0.9-6.2-3.4-11.9-9.6-12.8
			c-4-0.6-7.9,1.1-10.3,4l-61.8-36.1c1-1.4,1.7-3.1,2-4.9c0.9-6.2-3.4-11.9-9.6-12.8c-6.2-0.9-11.9,3.4-12.8,9.6
			c-0.2,1.7-0.1,3.3,0.4,4.9l-87.7,14.6l-74.6,28.7c-1.7-2.9-4.6-5-8.1-5.5c-4.4-0.6-8.6,1.4-10.9,4.9l-99.5-46.4
			c0.1-0.5,0.3-1,0.3-1.5c0.2-1.4,0.1-2.9-0.2-4.2l79.6-32.8c1.7,2,4.1,3.4,6.9,3.8c6.2,0.9,11.9-3.4,12.8-9.6
			c0.9-6.2-3.4-11.9-9.6-12.8c-6.2-0.9-11.9,3.4-12.8,9.6c-0.3,2.1,0,4.1,0.7,5.9l-79.1,32.6c-1.7-2.8-4.6-4.8-8-5.3
			c-5.9-0.8-11.3,3-12.6,8.7l-80.2-5.2c-0.7-2.5-2.3-4.7-4.5-6.1l60.3-74.2c1.2,0.7,2.6,1.2,4,1.4c6.2,0.9,11.9-3.4,12.8-9.6
			c0.2-1.6,0.1-3.1-0.3-4.5L484.3,56c1.7,2.6,4.5,4.5,7.8,5c6.2,0.9,11.9-3.4,12.8-9.6c0.9-6.2-3.4-11.9-9.6-12.8
			c-6.2-0.9-11.9,3.4-12.8,9.6c-0.2,1.6-0.1,3.1,0.3,4.5l-64.3,28.6c-1.7-2.6-4.5-4.5-7.8-5c-6.2-0.9-11.9,3.4-12.8,9.6
			c-0.5,3.4,0.6,6.7,2.8,9.1l-60.9,74.9c-0.5-0.1-0.9-0.2-1.4-0.3c-5-0.7-9.7,2-11.8,6.3l-98.5-9.9c0.2-6.1-4.2-11.5-10.3-12.4
			c-6.6-0.9-12.7,3.6-13.6,10.2c-0.4,2.7,0.2,5.2,1.3,7.4l-62.2,41.1c-1.7-1.9-4-3.2-6.7-3.5c-0.5-0.1-1-0.1-1.5-0.1l-12.6-84.3
			c4-1.3,7.1-4.7,7.7-9.1c0.4-2.4-0.1-4.8-1.2-6.8l77.6-56.8c1.8,1.9,4.2,3.2,6.9,3.5c6.6,0.9,12.7-3.6,13.6-10.2
			s-3.6-12.7-10.2-13.6c-6.6-0.9-12.7,3.6-13.6,10.2c-0.4,2.6,0.1,5,1.2,7.2l-77.6,56.8c-1.6-1.6-3.8-2.7-6.2-3.1
			c-6.2-0.9-11.9,3.4-12.8,9.6c-0.9,6.2,3.4,11.9,9.6,12.8c0.5,0.1,1,0.1,1.5,0.1l12.6,84.2c-4,1.3-7.1,4.7-7.8,9.1
			c0,0.2,0,0.3,0,0.5l-74.1,4.3c-1-4.5-4.6-8.1-9.4-8.8c-0.2,0-0.4,0-0.6-0.1l-6.8-99.7l-0.1-1.2L-41,88.2c0-0.1,0-0.2,0.1-0.3
			c0.9-6.2-3.4-11.9-9.6-12.8c-6.2-0.9-11.9,3.4-12.8,9.6c-0.9,6.2,3.4,11.9,9.6,12.8c4.8,0.7,9.4-1.8,11.6-5.9l71.6,24.5l6.7,98.5
			c-2.5,0.6-4.6,1.9-6.2,3.9l-64.7-37.3c0.7-1.2,1.2-2.6,1.4-4.1c0.9-6.6-3.6-12.7-10.2-13.6c-6.6-0.9-12.7,3.6-13.6,10.2
			c0,0.3-0.1,0.7-0.1,1l-17.2-0.9l-0.1,0l-65.5,16.1c-1.3-3.9-4.7-6.9-9.1-7.5c-6.2-0.9-11.9,3.4-12.8,9.6
			c-0.9,6.2,3.4,11.9,9.6,12.8c6.2,0.9,11.9-3.4,12.8-9.6c0.1-0.6,0.1-1.2,0.1-1.7l65.2-16.1l17.3,0.9c1.1,4.6,5,8.3,10,9.1
			c3.8,0.5,7.5-0.8,10-3.2l65.1,37.6c-0.3,0.8-0.5,1.6-0.6,2.4c-0.3,2.1,0,4.2,0.8,6.1l-69.6,44.5c-1.7-1.9-4.1-3.3-6.8-3.7
			c-5.4-0.8-10.5,2.4-12.2,7.4l-26.2-17.9l-0.4-0.1l-44.6,21.2l1,3.4l43.8-20.9l25.8,17.9c-0.1,5.6,4,10.6,9.7,11.4
			c2.7,0.4,5.4-0.2,7.6-1.6l43,49.2c0,0.1-0.1,0.3-0.1,0.4c-0.3,2,0,4,0.7,5.8l-81.1,21.3c-1-4.8-4.9-8.6-10-9.3
			c-6.6-0.9-12.7,3.6-13.6,10.2c-0.9,6.6,3.6,12.7,10.2,13.6c6.6,0.9,12.7-3.6,13.6-10.2c0-0.2,0-0.4,0.1-0.6l82.8-21.7
			c0.9,1.1,2.1,2,3.4,2.6l-1.6,89.8l-78.9,7.1c-1.1-4.3-4.7-7.7-9.3-8.4c-6.2-0.9-11.9,3.4-12.8,9.6c-0.9,6.2,3.4,11.9,9.6,12.8
			c6.2,0.9,11.9-3.4,12.8-9.6c0-0.3,0.1-0.5,0.1-0.8l79.4-7.1l34.5,64.1c-2.3,1.7-3.9,4.3-4.3,7.4c-0.9,6.2,3.4,11.9,9.6,12.8
			c6.2,0.9,11.9-3.4,12.8-9.6c0.9-6.2-3.4-11.9-9.6-12.8c-1.8-0.3-3.7-0.1-5.3,0.5L7.9,445.4l88.6-31.1c1.8,2.1,4.4,3.5,7.3,3.9
			c4.6,0.7,8.9-1.4,11.5-4.9l47.9,20.8l-26.2,40.1c-1.3-0.9-2.8-1.4-4.5-1.7c-6.2-0.9-11.9,3.4-12.8,9.6c-0.9,6.2,3.4,11.9,9.6,12.8
			c6.2,0.9,11.9-3.4,12.8-9.6c0.5-3.2-0.5-6.3-2.4-8.7l26.8-41.1l60.4,26.2c-0.1,0.3-0.1,0.5-0.2,0.8c-0.9,6.2,3.4,11.9,9.6,12.8
			c1.4,0.2,2.7,0.1,4-0.1l3.3-1.3c2.4-1.4,4.3-3.7,5.1-6.5l91.3,9.9c0,0.2-0.1,0.4-0.1,0.6c-0.4,2.7,0.2,5.3,1.4,7.5l2.2,2.9
			c1.8,1.7,4,2.9,6.7,3.3c5.1,0.7,10-1.9,12.3-6.2l67.7,42.1 M623.3,295l-17.1,39.9c-0.6-0.2-1.2-0.3-1.8-0.4
			c-6.6-0.9-12.7,3.6-13.6,10.2c-0.6,4.2,1,8.1,4,10.7l-39.2,52.6L484,367c0.6-1.2,1.1-2.4,1.3-3.8c0.4-2.8-0.3-5.5-1.7-7.7
			l44.6-47.6l27.1-56c0.5,0.2,1.1,0.3,1.6,0.4c3.8,0.5,7.4-0.9,9.9-3.5l53.9,35.9c-0.1,0.4-0.2,0.8-0.2,1.1
			C619.9,289.2,621.1,292.6,623.3,295z M470.7,463.6c1.6,1.4,3.6,2.4,5.8,2.7c3,0.4,5.8-0.4,8.1-2l74.1,44.7l-122.8,15.7
			L470.7,463.6z M485.6,446.7c-1.6-1.4-3.6-2.4-5.9-2.7c-4.6-0.7-8.9,1.5-11.2,5.2l-42.9-35.7c0-0.1,0.1-0.3,0.1-0.4
			c0.6-4.3-1.2-8.3-4.5-10.7l45.7-32.2c1.5,1.3,3.4,2.2,5.6,2.5c3.5,0.5,6.9-0.7,9.3-2.9l70.5,40.5L485.6,446.7z M330.2,189.9
			c1.4,1,3.1,1.8,5,2c6.2,0.9,11.9-3.4,12.8-9.6c0.1-0.4,0.1-0.8,0.1-1.2l79.5,5.1c0.2,2.3,1.2,4.5,2.6,6.2l-59,68.9
			c-1.5-1-3.2-1.7-5-2c-5.6-0.8-10.8,2.4-12.8,7.4L303,251.3c0,0,0,0,0-0.1c0.6-4.1-1.1-8-4.2-10.4L330.2,189.9z M547.8,244.6
			c0.8,2.3,2.3,4.3,4.3,5.7l-26.8,55.5l-44,47c-1.5-1.2-3.4-2.1-5.5-2.4c-0.9-0.1-1.7-0.1-2.6-0.1l-16.7-84.7c3.1-1.3,5.6-4,6.5-7.5
			L547.8,244.6z M416.1,400.4c-3.1-0.4-6.2,0.4-8.5,2.2l-99.2-22.4c0.2-3.6-1.3-7-3.8-9.2l55.4-88.4c0.9,0.4,1.8,0.6,2.8,0.8
			c3.4,0.5,6.7-0.5,9.2-2.5l91.8,76.3c-0.4,0.9-0.7,1.8-0.8,2.9c-0.4,2.8,0.2,5.4,1.6,7.6l-47,33.1
			C417.1,400.5,416.6,400.4,416.1,400.4z M285.5,258.9c1.4,0.9,3,1.6,4.8,1.9c4.9,0.7,9.6-1.9,11.7-6.1l50.6,15.7
			c-0.4,4.1,1.4,7.9,4.4,10.4l-55.3,88.3c-0.9-0.4-1.8-0.6-2.8-0.8c-2.7-0.4-5.3,0.2-7.5,1.5L240.3,310L285.5,258.9z M442.6,261.5
			c1.7,2.6,4.5,4.5,7.8,5c0.9,0.1,1.7,0.1,2.5,0.1l16.7,84.7c-1.5,0.7-2.9,1.6-4,2.9l-91.3-75.9c1-1.5,1.7-3.2,2-5.1
			c0.1-0.4,0.1-0.7,0.1-1.1L442.6,261.5z M440.9,253.7c-0.2,1.5-0.1,3,0.2,4.4l-65,10.4c-0.4-1.7-1.2-3.3-2.3-4.6l59.1-69
			c1.3,0.8,2.7,1.3,4.3,1.5c0.7,0.1,1.3,0.1,2,0.1l9.5,48C444.6,245.8,441.5,249.3,440.9,253.7z M282.9,256.5l-45.1,51l-31.1-27.2
			c1.3-1.5,2.2-3.4,2.5-5.5l72.3-20.6C281.9,255,282.3,255.8,282.9,256.5z M187.5,277.1l-67.1,18.3c-1.2-2.8-3.5-5.1-6.4-6.3
			l19.3-58c0.1,0,0.1,0,0.2,0c3.3,0.5,6.4-0.5,8.8-2.5l45.5,39.8c-0.4,0.9-0.7,2-0.9,3C186.6,273.5,186.8,275.4,187.5,277.1z
			 M129.8,230.1l-19.4,58.2c-3.2-0.3-6.3,0.7-8.7,2.6l-54.2-58.4c1.2-1.5,2-3.3,2.3-5.4c0-0.2,0-0.3,0-0.5l74.1-4.3
			C124.7,225.8,126.9,228.5,129.8,230.1z M37.6,236.8c2.7,0.3,5.2-0.4,7.3-1.8l54.4,58.6c-1,1.4-1.6,3.1-1.9,5
			c-0.2,1.7-0.1,3.3,0.3,4.9l-76.9,35.3c-1.3-3.4-4.3-6-8-6.9L37.6,236.8z M21.5,344.5c0.1-0.7,0.1-1.4,0.1-2.2l77.5-35.6
			c1.6,2.5,4.2,4.5,7.3,5.2l-0.1,82.4c-4.1-0.3-7.9,1.5-10.3,4.6l-78.3-47.4C19.7,349.7,21.1,347.3,21.5,344.5z M109.9,395.1
			l0.1-82.8c2.5-0.1,4.8-1,6.6-2.5l56.7,46.9l-57.5,43.5C114.5,397.9,112.4,396.1,109.9,395.1z M119.1,307.3
			c1.1-1.5,1.8-3.3,2.1-5.3c0.2-1.1,0.1-2.1,0-3.1l68-18.6c1.7,2.1,4.2,3.6,7.1,4c2.7,0.4,5.4-0.2,7.6-1.6l31.1,27.2l-58.9,44.6
			L119.1,307.3z M237.7,312.5l50.9,59.7c-1.3,1.5-2.2,3.3-2.5,5.4l-71.7-1.1c-0.4-5.1-4.3-9.4-9.6-10.2c-3.9-0.6-7.5,0.9-10,3.6
			l-15.7-13L237.7,312.5z M214.1,380l71.9,1.1c0.4,2.5,1.5,4.7,3.3,6.5l-46.8,66.4c-0.9-0.4-1.9-0.7-3-0.9c-1.7-0.2-3.3-0.1-4.8,0.4
			l-26.9-65.7C210.9,386.3,213.3,383.5,214.1,380z M245.5,455.9l46.7-66.3c1,0.5,2.2,0.9,3.4,1c1.9,0.3,3.8,0,5.5-0.6l44.7,79.2
			c-1.9,1.1-3.5,2.7-4.6,4.7l-92.1-10C249,460.8,247.7,457.9,245.5,455.9z M353.4,467.7c-1.5-0.2-2.9-0.1-4.3,0.2l-44.9-79.6
			c1.5-1.2,2.7-2.8,3.4-4.6l97.3,22c-0.8,1.3-1.3,2.7-1.6,4.3c-0.2,1.5-0.1,3.1,0.3,4.5l-46.8,54.3
			C355.7,468.3,354.6,467.9,353.4,467.7z M547.6,238c-0.1,0.5-0.3,1-0.3,1.5c-0.1,0.5-0.1,1.1-0.1,1.6l-83.9,13.5
			c-0.4-5.2-4.3-9.6-9.7-10.4c-0.5-0.1-1-0.1-1.5-0.1l-9.5-48.1c2.2-0.8,4.1-2.3,5.4-4.3L547.6,238z M207.7,174.2
			c1.8,1.7,4.1,2.9,6.7,3.3c5.8,0.8,11.2-2.6,13.1-7.9l98.2,9.9c-0.4,2.9,0.4,5.7,2,7.9L295.7,239c-0.7-0.3-1.5-0.5-2.3-0.6
			c-6.2-0.9-11.9,3.4-12.8,9.6c-0.1,0.9-0.1,1.8,0,2.7l-71.5,20.3c-0.9-4.6-4.6-8.4-9.5-9.1c-3.8-0.5-7.5,0.9-9.9,3.5l-45.2-39.5
			c0.8-1.3,1.4-2.8,1.6-4.4c0.3-2.2,0-4.4-0.9-6.3L207.7,174.2z M-41,289.3c1.3-1.6,2.2-3.5,2.5-5.6c0.3-2.1,0-4.2-0.8-6.1
			l69.6-44.5c1.1,1.2,2.4,2.2,3.9,2.8L9.3,331.7c-3.6,0.4-6.7,2.4-8.5,5.4L-41,289.3z M7.2,441.9l1.6-87.8c0,0,0,0,0,0
			c1.9,0.3,3.8,0.1,5.4-0.6l80,48.5c-0.3,0.8-0.6,1.7-0.7,2.6c-0.3,2.3,0,4.6,0.9,6.6L7.2,441.9z M116.8,410.2
			c0.2-0.7,0.4-1.4,0.5-2.1c0.2-1.5,0.1-3-0.2-4.4l59-44.6l16.7,13.8c-0.4,0.9-0.7,1.9-0.9,3c-0.5,3.6,0.7,7,3.1,9.4l-29.9,45.9
			L116.8,410.2z M168.4,432.5l29.5-45.2c1.1,0.6,2.3,1,3.6,1.2c0.9,0.1,1.9,0.1,2.8,0l27.2,66.3c-1.3,0.9-2.5,2.1-3.3,3.6
			L168.4,432.5z M359.8,470.7l45.5-52.8c1.7,2.5,4.4,4.3,7.7,4.7c4.7,0.7,9.2-1.7,11.4-5.6l42.8,35.6c-0.1,0.3-0.1,0.6-0.2,0.9
			c-0.4,2.6,0.2,5,1.3,7.1L432,524.4l-68.4-42.5c0-0.2,0.1-0.3,0.1-0.5C364.2,477.2,362.7,473.3,359.8,470.7z M563.8,507.9
			l-76.5-46.1c1.1-1.4,1.8-3.2,2-5c0.4-2.6-0.2-5.1-1.4-7.2l68-37.1l62.5,40L563.8,507.9z M664.1,392.5c-0.6,3.9,0.8,7.6,3.4,10.2
			L621,449.9l-62.4-39.9l39.2-52.6c1,0.5,2.1,0.8,3.2,0.9c6.6,0.9,12.7-3.6,13.6-10.2c0.7-4.7-1.5-9.1-5.2-11.6l16.8-39.2
			c1.2,0.6,2.4,1.1,3.8,1.3c0.5,0.1,1,0.1,1.6,0.1l39.5,84.6C667.4,384.9,664.7,388.3,664.1,392.5z M716.9,289.5l-74.1-3.1
			c-0.4-5.1-4.3-9.5-9.6-10.2c-4.5-0.6-8.8,1.5-11.1,5.1l-53.4-35.5c0.4-1,0.8-2,0.9-3.1c0.2-1.4,0.1-2.7-0.1-3.9l74-28.6l88.6-14.7
			c1.4,1.9,3.3,3.4,5.6,4.1L716.9,289.5z"/>
		
			<linearGradient id="SVGID_4_" gradientUnits="userSpaceOnUse" x1="-837.175" y1="-690.7048" x2="-791.0717" y2="-690.7048" gradientTransform="matrix(-4.077955e-02 -0.9992 -0.9992 4.077955e-02 -604.2209 -671.4599)">
			<stop  offset="0" style="stop-color:#F05B31"/>
			<stop  offset="1" style="stop-color:#F05D5B"/>
		</linearGradient>
		<circle class="st2" cx="119.1" cy="113.8" r="23"/>
		
			<linearGradient id="SVGID_5_" gradientUnits="userSpaceOnUse" x1="-943.9937" y1="-702.2654" x2="-897.8904" y2="-702.2654" gradientTransform="matrix(-4.077955e-02 -0.9992 -0.9992 4.077955e-02 -604.2209 -671.4599)">
			<stop  offset="0" style="stop-color:#F05B31"/>
			<stop  offset="1" style="stop-color:#F05D5B"/>
		</linearGradient>
		<circle class="st3" cx="135" cy="220.1" r="23"/>
		
			<linearGradient id="SVGID_6_" gradientUnits="userSpaceOnUse" x1="-822.7428" y1="-981.4904" x2="-776.6396" y2="-981.4904" gradientTransform="matrix(-4.077955e-02 -0.9992 -0.9992 4.077955e-02 -604.2209 -671.4599)">
			<stop  offset="0" style="stop-color:#F05B31"/>
			<stop  offset="1" style="stop-color:#F05D5B"/>
		</linearGradient>
		<circle class="st4" cx="409.1" cy="87.5" r="23"/>
		
			<linearGradient id="SVGID_7_" gradientUnits="userSpaceOnUse" x1="-979.9176" y1="-857.7529" x2="-933.8144" y2="-857.7529" gradientTransform="matrix(-4.077955e-02 -0.9992 -0.9992 4.077955e-02 -604.2209 -671.4599)">
			<stop  offset="0" style="stop-color:#F05B31"/>
			<stop  offset="1" style="stop-color:#F05D5B"/>
		</linearGradient>
		<circle class="st5" cx="291.8" cy="249.6" r="23"/>
		
			<linearGradient id="SVGID_8_" gradientUnits="userSpaceOnUse" x1="-999.5978" y1="-763.069" x2="-953.4946" y2="-763.069" gradientTransform="matrix(-4.077955e-02 -0.9992 -0.9992 4.077955e-02 -604.2209 -671.4599)">
			<stop  offset="0" style="stop-color:#F05B31"/>
			<stop  offset="1" style="stop-color:#F05D5B"/>
		</linearGradient>
		<circle class="st6" cx="198" cy="273.2" r="23"/>
		
			<linearGradient id="SVGID_9_" gradientUnits="userSpaceOnUse" x1="-921.6216" y1="-1007.1926" x2="-875.5183" y2="-1007.1926" gradientTransform="matrix(-4.077955e-02 -0.9992 -0.9992 4.077955e-02 -604.2209 -671.4599)">
			<stop  offset="0" style="stop-color:#F05B31"/>
			<stop  offset="1" style="stop-color:#F05D5B"/>
		</linearGradient>
		<circle class="st7" cx="438.8" cy="185.3" r="23"/>
		
			<linearGradient id="SVGID_10_" gradientUnits="userSpaceOnUse" x1="-982.2391" y1="-1124.5317" x2="-936.1358" y2="-1124.5317" gradientTransform="matrix(-4.077955e-02 -0.9992 -0.9992 4.077955e-02 -604.2209 -671.4599)">
			<stop  offset="0" style="stop-color:#F05B31"/>
			<stop  offset="1" style="stop-color:#F05D5B"/>
		</linearGradient>
		<circle class="st8" cx="558.5" cy="241.1" r="23"/>
		
			<linearGradient id="SVGID_11_" gradientUnits="userSpaceOnUse" x1="-788.5433" y1="-1067.6178" x2="-742.4401" y2="-1067.6178" gradientTransform="matrix(-4.077955e-02 -0.9992 -0.9992 4.077955e-02 -604.2209 -671.4599)">
			<stop  offset="0" style="stop-color:#F05B31"/>
			<stop  offset="1" style="stop-color:#F05D5B"/>
		</linearGradient>
		<circle class="st9" cx="493.7" cy="49.9" r="23"/>
		
			<linearGradient id="SVGID_12_" gradientUnits="userSpaceOnUse" x1="-882.9722" y1="-1107.9792" x2="-836.869" y2="-1107.9792" gradientTransform="matrix(-4.077955e-02 -0.9992 -0.9992 4.077955e-02 -604.2209 -671.4599)">
			<stop  offset="0" style="stop-color:#F05B31"/>
			<stop  offset="1" style="stop-color:#F05D5B"/>
		</linearGradient>
		<circle class="st10" cx="537.9" cy="142.6" r="23"/>
		
			<linearGradient id="SVGID_13_" gradientUnits="userSpaceOnUse" x1="-937.5117" y1="-1309.2864" x2="-891.4084" y2="-1309.2864" gradientTransform="matrix(-4.077955e-02 -0.9992 -0.9992 4.077955e-02 -604.2209 -671.4599)">
			<stop  offset="0" style="stop-color:#F05B31"/>
			<stop  offset="1" style="stop-color:#F05D5B"/>
		</linearGradient>
		<circle class="st11" cx="741.3" cy="188.8" r="23"/>
		
			<linearGradient id="SVGID_14_" gradientUnits="userSpaceOnUse" x1="-990.5428" y1="-1386.8934" x2="-944.4396" y2="-1386.8934" gradientTransform="matrix(-4.077955e-02 -0.9992 -0.9992 4.077955e-02 -604.2209 -671.4599)">
			<stop  offset="0" style="stop-color:#F05B31"/>
			<stop  offset="1" style="stop-color:#F05D5B"/>
		</linearGradient>
		<circle class="st12" cx="821" cy="238.7" r="23"/>
		
			<linearGradient id="SVGID_15_" gradientUnits="userSpaceOnUse" x1="-1031.4746" y1="-1195.7089" x2="-985.3713" y2="-1195.7089" gradientTransform="matrix(-4.077955e-02 -0.9992 -0.9992 4.077955e-02 -604.2209 -671.4599)">
			<stop  offset="0" style="stop-color:#F05B31"/>
			<stop  offset="1" style="stop-color:#F05D5B"/>
		</linearGradient>
		<circle class="st13" cx="631.6" cy="287.4" r="23"/>
		
			<linearGradient id="SVGID_16_" gradientUnits="userSpaceOnUse" x1="-992.1096" y1="-1017.5921" x2="-946.0064" y2="-1017.5921" gradientTransform="matrix(-4.077955e-02 -0.9992 -0.9992 4.077955e-02 -604.2209 -671.4599)">
			<stop  offset="0" style="stop-color:#F05B31"/>
			<stop  offset="1" style="stop-color:#F05D5B"/>
		</linearGradient>
		<circle class="st14" cx="452" cy="255.3" r="23"/>
		
			<linearGradient id="SVGID_17_" gradientUnits="userSpaceOnUse" x1="-912.9633" y1="-905.462" x2="-866.86" y2="-905.462" gradientTransform="matrix(-4.077955e-02 -0.9992 -0.9992 4.077955e-02 -604.2209 -671.4599)">
			<stop  offset="0" style="stop-color:#F05B31"/>
			<stop  offset="1" style="stop-color:#F05D5B"/>
		</linearGradient>
		<circle class="st15" cx="336.8" cy="180.8" r="23"/>
		
			<linearGradient id="SVGID_18_" gradientUnits="userSpaceOnUse" x1="-1109.8563" y1="-857.7864" x2="-1063.7532" y2="-857.7864" gradientTransform="matrix(-4.077955e-02 -0.9992 -0.9992 4.077955e-02 -604.2209 -671.4599)">
			<stop  offset="0" style="stop-color:#F05B31"/>
			<stop  offset="1" style="stop-color:#F05D5B"/>
		</linearGradient>
		<circle class="st16" cx="297.2" cy="379.5" r="23"/>
		
			<linearGradient id="SVGID_19_" gradientUnits="userSpaceOnUse" x1="-1146.6873" y1="-973.7443" x2="-1100.584" y2="-973.7443" gradientTransform="matrix(-4.077955e-02 -0.9992 -0.9992 4.077955e-02 -604.2209 -671.4599)">
			<stop  offset="0" style="stop-color:#F05B31"/>
			<stop  offset="1" style="stop-color:#F05D5B"/>
		</linearGradient>
		<circle class="st17" cx="414.5" cy="411.5" r="23"/>
		
			<linearGradient id="SVGID_20_" gradientUnits="userSpaceOnUse" x1="-1233.609" y1="-1232.8767" x2="-1187.5059" y2="-1232.8767" gradientTransform="matrix(-4.077955e-02 -0.9992 -0.9992 4.077955e-02 -604.2209 -671.4599)">
			<stop  offset="0" style="stop-color:#F05B31"/>
			<stop  offset="1" style="stop-color:#F05D5B"/>
		</linearGradient>
		<circle class="st18" cx="677" cy="487.8" r="23"/>
		
			<linearGradient id="SVGID_21_" gradientUnits="userSpaceOnUse" x1="-1192.8584" y1="-1035.483" x2="-1146.7551" y2="-1035.483" gradientTransform="matrix(-4.077955e-02 -0.9992 -0.9992 4.077955e-02 -604.2209 -671.4599)">
			<stop  offset="0" style="stop-color:#F05B31"/>
			<stop  offset="1" style="stop-color:#F05D5B"/>
		</linearGradient>
		<circle class="st19" cx="478.1" cy="455.1" r="23"/>
		
			<linearGradient id="SVGID_22_" gradientUnits="userSpaceOnUse" x1="-1192.0986" y1="-795.0648" x2="-1145.9954" y2="-795.0648" gradientTransform="matrix(-4.077955e-02 -0.9992 -0.9992 4.077955e-02 -604.2209 -671.4599)">
			<stop  offset="0" style="stop-color:#F05B31"/>
			<stop  offset="1" style="stop-color:#F05D5B"/>
		</linearGradient>
		<circle class="st20" cx="237.9" cy="464.2" r="23"/>
		
			<linearGradient id="SVGID_23_" gradientUnits="userSpaceOnUse" x1="-1207.235" y1="-687.3326" x2="-1161.1317" y2="-687.3326" gradientTransform="matrix(-4.077955e-02 -0.9992 -0.9992 4.077955e-02 -604.2209 -671.4599)">
			<stop  offset="0" style="stop-color:#F05B31"/>
			<stop  offset="1" style="stop-color:#F05D5B"/>
		</linearGradient>
		<circle class="st21" cx="130.8" cy="483.7" r="23"/>
		
			<linearGradient id="SVGID_24_" gradientUnits="userSpaceOnUse" x1="-1103.9626" y1="-763.8847" x2="-1057.8595" y2="-763.8847" gradientTransform="matrix(-4.077955e-02 -0.9992 -0.9992 4.077955e-02 -604.2209 -671.4599)">
			<stop  offset="0" style="stop-color:#F05B31"/>
			<stop  offset="1" style="stop-color:#F05D5B"/>
		</linearGradient>
		<circle class="st22" cx="203.1" cy="377.4" r="23"/>
		
			<linearGradient id="SVGID_25_" gradientUnits="userSpaceOnUse" x1="-1238.9722" y1="-600.7632" x2="-1193.2576" y2="-600.7632" gradientTransform="matrix(-4.077955e-02 -0.9992 -0.9992 4.077955e-02 -604.2209 -671.4599)">
			<stop  offset="0" style="stop-color:#F05B31"/>
			<stop  offset="1" style="stop-color:#F05D5B"/>
		</linearGradient>
		<path class="st23" d="M42.4,542.2c-12.6-1.8-21.4-13.5-19.6-26.1c1.8-12.6,13.5-21.4,26.1-19.6s21.4,13.5,19.6,26.1"/>
		
			<linearGradient id="SVGID_26_" gradientUnits="userSpaceOnUse" x1="-1167.3429" y1="-471.6781" x2="-1121.2396" y2="-471.6781" gradientTransform="matrix(-4.077955e-02 -0.9992 -0.9992 4.077955e-02 -604.2209 -671.4599)">
			<stop  offset="0" style="stop-color:#F05B31"/>
			<stop  offset="1" style="stop-color:#F05D5B"/>
		</linearGradient>
		<circle class="st24" cx="-86.3" cy="452.6" r="23"/>
		<g>
			
				<linearGradient id="SVGID_27_" gradientUnits="userSpaceOnUse" x1="-996.1786" y1="-433.8495" x2="-950.0754" y2="-433.8495" gradientTransform="matrix(-4.077955e-02 -0.9992 -0.9992 4.077955e-02 -604.2209 -671.4599)">
				<stop  offset="0" style="stop-color:#F05B31"/>
				<stop  offset="1" style="stop-color:#F05D5B"/>
			</linearGradient>
			<circle class="st25" cx="-131" cy="283.2" r="23"/>
			
				<linearGradient id="SVGID_28_" gradientUnits="userSpaceOnUse" x1="-984.4139" y1="-433.8495" x2="-961.84" y2="-433.8495" gradientTransform="matrix(-4.077955e-02 -0.9992 -0.9992 4.077955e-02 -604.2209 -671.4599)">
				<stop  offset="0" style="stop-color:#F05B31"/>
				<stop  offset="1" style="stop-color:#F05D5B"/>
			</linearGradient>
			<circle class="st26" cx="-131" cy="283.2" r="11.3"/>
		</g>
		
			<linearGradient id="SVGID_29_" gradientUnits="userSpaceOnUse" x1="-905.7428" y1="-417.8395" x2="-859.6396" y2="-417.8395" gradientTransform="matrix(-4.077955e-02 -0.9992 -0.9992 4.077955e-02 -604.2209 -671.4599)">
			<stop  offset="0" style="stop-color:#F05B31"/>
			<stop  offset="1" style="stop-color:#F05D5B"/>
		</linearGradient>
		<circle class="st27" cx="-150.7" cy="193.5" r="23"/>
		
			<linearGradient id="SVGID_30_" gradientUnits="userSpaceOnUse" x1="-802.6394" y1="-520.7259" x2="-756.5362" y2="-520.7259" gradientTransform="matrix(-4.077955e-02 -0.9992 -0.9992 4.077955e-02 -604.2209 -671.4599)">
			<stop  offset="0" style="stop-color:#F05B31"/>
			<stop  offset="1" style="stop-color:#F05D5B"/>
		</linearGradient>
		<circle class="st28" cx="-52.1" cy="86.2" r="23"/>
		
			<linearGradient id="SVGID_31_" gradientUnits="userSpaceOnUse" x1="-945.5881" y1="-605.7999" x2="-899.4849" y2="-605.7999" gradientTransform="matrix(-4.077955e-02 -0.9992 -0.9992 4.077955e-02 -604.2209 -671.4599)">
			<stop  offset="0" style="stop-color:#F05B31"/>
			<stop  offset="1" style="stop-color:#F05D5B"/>
		</linearGradient>
		<circle class="st29" cx="38.7" cy="225.6" r="23"/>
		
			<linearGradient id="SVGID_32_" gradientUnits="userSpaceOnUse" x1="-1061.6356" y1="-572.7194" x2="-1015.5323" y2="-572.7194" gradientTransform="matrix(-4.077955e-02 -0.9992 -0.9992 4.077955e-02 -604.2209 -671.4599)">
			<stop  offset="0" style="stop-color:#F05B31"/>
			<stop  offset="1" style="stop-color:#F05D5B"/>
		</linearGradient>
		<circle class="st30" cx="10.4" cy="342.9" r="23"/>
		
			<linearGradient id="SVGID_33_" gradientUnits="userSpaceOnUse" x1="-1099.2136" y1="-1035.3099" x2="-1053.1104" y2="-1035.3099" gradientTransform="matrix(-4.077955e-02 -0.9992 -0.9992 4.077955e-02 -604.2209 -671.4599)">
			<stop  offset="0" style="stop-color:#F05B31"/>
			<stop  offset="1" style="stop-color:#F05D5B"/>
		</linearGradient>
		<circle class="st31" cx="474.1" cy="361.6" r="23"/>
		
			<linearGradient id="SVGID_34_" gradientUnits="userSpaceOnUse" x1="-998.4001" y1="-515.2065" x2="-952.2969" y2="-515.2065" gradientTransform="matrix(-4.077955e-02 -0.9992 -0.9992 4.077955e-02 -604.2209 -671.4599)">
			<stop  offset="0" style="stop-color:#F05B31"/>
			<stop  offset="1" style="stop-color:#F05D5B"/>
		</linearGradient>
		<circle class="st32" cx="-49.7" cy="282.1" r="23"/>
	</g>
	<g class="st0">
		
			<linearGradient id="SVGID_35_" gradientUnits="userSpaceOnUse" x1="-1116.394" y1="3324.0193" x2="-553.4681" y2="3324.0193" gradientTransform="matrix(4.299911e-02 -0.9991 0.9991 4.299911e-02 -1702.361 -672.6796)">
			<stop  offset="0" style="stop-color:#F05B31"/>
			<stop  offset="1" style="stop-color:#F05D5B"/>
		</linearGradient>
		<path class="st33" d="M1491,523.6l67.8-41.9c2.3,4.3,7.1,7,12.3,6.3c2.6-0.4,4.9-1.6,6.7-3.3l2.2-2.9c1.2-2.2,1.8-4.8,1.4-7.5
			c0-0.2-0.1-0.4-0.1-0.6l91.3-9.7c0.8,2.8,2.7,5.1,5.1,6.5l3.3,1.3c1.3,0.3,2.6,0.3,4,0.2c6.2-0.9,10.5-6.6,9.6-12.7
			c0-0.3-0.1-0.5-0.2-0.8l60.5-26.1l26.7,41.1c-1.9,2.3-2.9,5.4-2.4,8.7c0.9,6.2,6.6,10.5,12.7,9.6c6.2-0.9,10.5-6.6,9.6-12.7
			c-0.9-6.2-6.6-10.5-12.7-9.6c-1.7,0.2-3.2,0.8-4.5,1.7l-26.1-40.2l47.9-20.7c2.5,3.5,6.9,5.6,11.5,4.9c2.9-0.4,5.5-1.9,7.3-3.9
			l88.5,31.3l-34.2,63.3c-1.6-0.6-3.5-0.8-5.3-0.5c-6.2,0.9-10.5,6.6-9.6,12.7c0.9,6.2,6.6,10.5,12.7,9.6c6.2-0.9,10.5-6.6,9.6-12.7
			c-0.4-3-2-5.6-4.3-7.4l34.6-64l79.4,7.3c0,0.3,0,0.5,0.1,0.8c0.9,6.2,6.6,10.5,12.7,9.6c6.2-0.9,10.5-6.6,9.6-12.7
			c-0.9-6.2-6.6-10.5-12.7-9.6c-4.7,0.7-8.3,4.1-9.4,8.4l-78.9-7.3l-1.4-89.8c1.3-0.7,2.4-1.6,3.4-2.6l82.7,21.9
			c0,0.2,0,0.4,0.1,0.6c0.9,6.6,7,11.2,13.6,10.2c6.6-0.9,11.2-7,10.2-13.6c-0.9-6.6-7-11.2-13.6-10.2c-5.1,0.7-9,4.6-10.1,9.3
			l-81-21.4c0.7-1.8,1-3.8,0.7-5.8c0-0.1-0.1-0.3-0.1-0.4l43.1-49.2c2.2,1.4,4.8,2,7.6,1.6c5.7-0.8,9.8-5.8,9.7-11.4l25.9-17.8
			l43.8,21l1-3.4l-44.6-21.3l-0.4,0.1l-26.3,17.9c-1.7-5-6.8-8.2-12.2-7.4c-2.7,0.4-5.1,1.7-6.8,3.7l-69.5-44.6
			c0.8-1.9,1.1-3.9,0.8-6.1c-0.1-0.8-0.3-1.7-0.6-2.4l65.2-37.4c2.6,2.5,6.2,3.8,10,3.3c5-0.7,8.9-4.4,10-9l17.3-0.9l65.1,16.2
			c0,0.6,0,1.2,0.1,1.7c0.9,6.2,6.6,10.5,12.7,9.6c6.2-0.9,10.5-6.6,9.6-12.7c-0.9-6.2-6.6-10.5-12.7-9.6c-4.3,0.6-7.7,3.6-9.1,7.5
			l-65.4-16.3l-0.1,0l-17.2,0.9c0-0.3,0-0.7-0.1-1c-0.9-6.6-7-11.2-13.6-10.2c-6.6,0.9-11.2,7-10.2,13.6c0.2,1.5,0.7,2.9,1.4,4.1
			l-64.8,37.2c-1.6-1.9-3.7-3.3-6.2-3.9l6.9-98.5l71.7-24.4c2.2,4.1,6.7,6.6,11.5,5.9c6.2-0.9,10.5-6.6,9.6-12.7
			c-0.9-6.2-6.6-10.5-12.7-9.6c-6.2,0.9-10.5,6.6-9.6,12.7c0,0.1,0,0.2,0.1,0.3l-73.9,25.1l-0.1,1.2l-7,99.7c-0.2,0-0.4,0-0.6,0.1
			c-4.8,0.7-8.4,4.3-9.4,8.7l-74.1-4.4c0-0.2,0-0.3,0-0.5c-0.6-4.4-3.7-7.9-7.7-9.2l12.8-84.2c0.5,0,1,0,1.5-0.1
			c6.2-0.9,10.5-6.6,9.6-12.7c-0.9-6.2-6.6-10.5-12.7-9.6c-2.4,0.3-4.6,1.5-6.2,3.1l-77.5-57c1.1-2.1,1.6-4.6,1.2-7.2
			c-0.9-6.6-7-11.2-13.6-10.2c-6.6,0.9-11.2,7-10.2,13.6s7,11.2,13.6,10.2c2.7-0.4,5.1-1.7,6.9-3.5l77.4,56.9
			c-1.1,2-1.6,4.4-1.2,6.8c0.6,4.4,3.7,7.9,7.7,9.2l-12.8,84.2c-0.5,0-1,0-1.5,0.1c-2.7,0.4-5,1.7-6.7,3.5l-62.1-41.3
			c1.2-2.2,1.7-4.8,1.4-7.4c-0.9-6.6-7-11.2-13.6-10.2c-6.2,0.9-10.6,6.3-10.3,12.3l-98.5,9.7c-2.1-4.3-6.8-7-11.8-6.3
			c-0.5,0.1-1,0.2-1.4,0.3l-60.7-75c2.1-2.4,3.3-5.7,2.8-9.1c-0.9-6.2-6.6-10.5-12.7-9.6c-3.3,0.5-6.1,2.4-7.9,5l-64.2-28.8
			c0.4-1.4,0.5-2.9,0.3-4.5c-0.9-6.2-6.6-10.5-12.7-9.6c-6.2,0.9-10.5,6.6-9.6,12.7c0.9,6.2,6.6,10.5,12.7,9.6
			c3.3-0.5,6.1-2.4,7.9-5l64.2,28.8c-0.4,1.4-0.5,2.9-0.3,4.5c0.9,6.2,6.6,10.5,12.7,9.6c1.5-0.2,2.8-0.7,4-1.4l60.1,74.3
			c-2.1,1.5-3.7,3.6-4.5,6.1l-80.2,5c-1.3-5.7-6.7-9.5-12.6-8.7c-3.5,0.5-6.3,2.5-8,5.3l-79-32.7c0.7-1.8,1-3.8,0.8-5.9
			c-0.9-6.2-6.6-10.5-12.7-9.6c-6.2,0.9-10.5,6.6-9.6,12.7c0.9,6.2,6.6,10.5,12.7,9.6c2.8-0.4,5.2-1.8,7-3.8l79.5,33
			c-0.3,1.3-0.4,2.7-0.2,4.2c0.1,0.5,0.2,1,0.3,1.5l-99.6,46.2c-2.3-3.5-6.5-5.5-10.9-4.9c-3.6,0.5-6.5,2.6-8.2,5.5l-74.5-28.9
			l-87.6-14.8c0.5-1.5,0.6-3.2,0.4-4.9c-0.9-6.2-6.6-10.5-12.7-9.6c-6.2,0.9-10.5,6.6-9.6,12.7c0.3,1.8,1,3.5,2,4.9l-61.9,36
			c-2.4-2.9-6.3-4.6-10.3-4c-6.2,0.9-10.5,6.6-9.6,12.7c0.9,6.2,6.6,10.5,12.7,9.6c6.2-0.9,10.5-6.6,9.6-12.7
			c-0.1-0.9-0.4-1.7-0.7-2.5l62.7-36.5c1.9,1.4,4.1,2.1,6.6,2.1l21.4,93.1l77.1-3c0.9,3.9,3.8,6.8,7.3,8.1l-39.5,84.1
			c-1-0.1-2.1-0.1-3.2,0c-6.6,0.9-11.2,7-10.2,13.6c0.9,6.6,7,11.2,13.6,10.2c1.4-0.2,2.7-0.6,3.9-1.3l46.2,47.1l-44.6,28.4
			c-2.4-2.7-6.1-4.2-10-3.7c-6.2,0.9-10.5,6.6-9.6,12.7c0.9,6.2,6.6,10.5,12.7,9.6c6.2-0.9,10.5-6.6,9.6-12.7c-0.1-1-0.4-2-0.8-2.9
			l45.3-28.8l54.3,55.4l-89.5,47.3c-2.5-3.4-6.8-5.4-11.4-4.8c-6.6,0.9-11.2,7-10.2,13.6c0.9,6.6,7,11.2,13.6,10.2
			c6.6-0.9,11.2-7,10.2-13.6c-0.1-0.8-0.3-1.6-0.6-2.3l91.1-48.2l130.1,16.9 M1301.2,281.5c-0.1-0.4-0.1-0.8-0.2-1.1l54-35.8
			c2.4,2.6,6.1,4.1,9.9,3.5c0.6-0.1,1.1-0.2,1.6-0.4l26.9,56.1l44.5,47.7c-1.4,2.2-2.1,4.9-1.7,7.7c0.2,1.4,0.6,2.7,1.3,3.8
			l-71.6,40.9l-39.1-52.7c2.9-2.6,4.6-6.6,4-10.7c-0.9-6.6-7-11.2-13.6-10.2c-0.6,0.1-1.2,0.2-1.8,0.4l-17.1-40
			C1300.5,288.3,1301.7,285,1301.2,281.5z M1485.2,520.8l-122.8-15.9l74.2-44.5c2.3,1.6,5.1,2.4,8.1,2c2.2-0.3,4.2-1.3,5.8-2.7
			L1485.2,520.8z M1369,406.2l70.6-40.4c2.4,2.3,5.8,3.5,9.3,3c2.1-0.3,4-1.2,5.6-2.5l45.6,32.3c-3.2,2.4-5.1,6.4-4.5,10.7
			c0,0.1,0.1,0.3,0.1,0.4l-43,35.6c-2.3-3.7-6.6-5.9-11.2-5.2c-2.3,0.3-4.3,1.3-5.9,2.7L1369,406.2z M1622.9,237.2
			c-3,2.4-4.8,6.3-4.2,10.4c0,0,0,0,0,0.1l-50.4,15.5c-2-5-7.2-8.2-12.8-7.4c-1.9,0.3-3.6,1-5,1.9l-58.8-69c1.5-1.7,2.4-3.9,2.6-6.2
			l79.5-5c0,0.4,0,0.8,0.1,1.2c0.9,6.2,6.6,10.5,12.7,9.6c1.9-0.3,3.6-1,5-2L1622.9,237.2z M1458.7,254.3c0.9,3.4,3.4,6.1,6.5,7.5
			l-16.9,84.6c-0.8-0.1-1.7-0.1-2.6,0.1c-2.1,0.3-4,1.2-5.5,2.4l-43.9-47.1l-26.7-55.6c2-1.4,3.5-3.4,4.3-5.7L1458.7,254.3z
			 M1503.8,396.8l-46.9-33.2c1.4-2.2,2-4.8,1.6-7.6c-0.1-1-0.4-2-0.8-2.9l92-76.1c2.5,2,5.8,3,9.2,2.5c1-0.1,1.9-0.4,2.8-0.8
			l55.2,88.5c-2.6,2.2-4.1,5.6-3.9,9.2l-99.3,22.2c-2.3-1.8-5.3-2.7-8.5-2.3C1504.7,396.6,1504.3,396.7,1503.8,396.8z M1681.2,306.6
			l-51.1,59.7c-2.2-1.3-4.8-1.9-7.5-1.6c-1,0.1-1.9,0.4-2.8,0.8l-55.1-88.4c3-2.4,4.8-6.3,4.4-10.4l50.6-15.6
			c2.1,4.2,6.7,6.8,11.7,6.1c1.8-0.2,3.4-0.9,4.8-1.9L1681.2,306.6z M1545.2,268.3c0,0.4,0,0.7,0.1,1.1c0.3,1.9,1,3.6,2,5.1
			l-91.5,75.7c-1.1-1.2-2.5-2.2-4-2.9l16.9-84.6c0.8,0.1,1.7,0.1,2.5-0.1c3.3-0.5,6.1-2.4,7.9-5L1545.2,268.3z M1473.1,240.7l9.6-48
			c0.7,0,1.3,0,2-0.1c1.6-0.2,3-0.8,4.3-1.5l58.9,69.1c-1.1,1.3-1.9,2.9-2.3,4.6l-65-10.6c0.4-1.4,0.5-2.9,0.2-4.4
			C1480.2,245.4,1477.1,241.9,1473.1,240.7z M1640.1,250.7l72.3,20.7c0.3,2.1,1.2,4,2.5,5.6l-31.2,27.1l-44.9-51.1
			C1639.3,252.3,1639.8,251.5,1640.1,250.7z M1734.8,268.3c-0.2-1.1-0.5-2.1-0.9-3.1l45.6-39.7c2.4,2,5.5,3,8.8,2.5
			c0.1,0,0.1,0,0.2,0l19.1,58c-2.9,1.2-5.2,3.5-6.4,6.2l-67.1-18.5C1734.8,272.1,1735,270.2,1734.8,268.3z M1797.7,219.3l74.1,4.4
			c0,0.2,0,0.3,0,0.5c0.3,2,1.1,3.8,2.3,5.4l-54.3,58.3c-2.4-1.9-5.4-3-8.7-2.7l-19.2-58.3C1794.9,225.4,1797,222.6,1797.7,219.3z
			 M1908.6,329c-3.7,0.8-6.7,3.5-8,6.9l-76.8-35.5c0.4-1.5,0.6-3.2,0.3-4.9c-0.3-1.8-0.9-3.5-1.9-5l54.5-58.5
			c2.1,1.4,4.7,2.1,7.3,1.9L1908.6,329z M1903.7,348.5l-78.4,47.3c-2.4-3.1-6.2-4.9-10.3-4.6l0.1-82.4c3.1-0.8,5.6-2.7,7.3-5.2
			l77.5,35.8c0,0.7,0,1.4,0.1,2.2C1900.3,344.4,1901.7,346.8,1903.7,348.5z M1805.5,397.1l-57.4-43.6l56.8-46.8
			c1.9,1.4,4.2,2.3,6.6,2.5l-0.1,82.8C1808.9,393,1806.9,394.8,1805.5,397.1z M1745.2,351.2l-58.8-44.7l31.2-27.1
			c2.2,1.4,4.8,2,7.6,1.6c2.9-0.4,5.4-1.9,7.1-4l68,18.7c-0.1,1-0.1,2.1,0,3.1c0.3,2,1,3.8,2.1,5.3L1745.2,351.2z M1742.4,353.6
			l-15.7,12.9c-2.4-2.7-6.1-4.2-10-3.6c-5.3,0.7-9.2,5.1-9.7,10.2l-71.7,1c-0.4-2.1-1.2-3.9-2.5-5.4l51-59.6L1742.4,353.6z
			 M1713.6,384.3l-27.1,65.6c-1.5-0.4-3.1-0.6-4.8-0.4c-1.1,0.2-2.1,0.5-3,0.9l-46.7-66.5c1.8-1.7,2.9-4,3.3-6.4l71.9-0.9
			C1708.1,380.1,1710.5,382.9,1713.6,384.3z M1672.1,460.4l-92.1,9.8c-1.1-2-2.7-3.6-4.6-4.7l44.8-79.1c1.7,0.6,3.6,0.9,5.5,0.6
			c1.2-0.2,2.3-0.5,3.4-1l46.6,66.4C1673.6,454.4,1672.2,457.3,1672.1,460.4z M1564.4,465.1l-46.7-54.4c0.4-1.4,0.5-2.9,0.3-4.5
			c-0.2-1.6-0.8-3-1.5-4.3l97.3-21.8c0.7,1.8,1.9,3.4,3.4,4.6l-45.1,79.5c-1.4-0.3-2.8-0.4-4.3-0.2
			C1566.6,464.2,1565.5,464.6,1564.4,465.1z M1473.7,187.7c1.3,2,3.2,3.5,5.4,4.3l-9.6,48.1c-0.5,0-1,0-1.5,0.1
			c-5.4,0.8-9.3,5.2-9.7,10.4l-83.9-13.6c0-0.5,0-1.1-0.1-1.6c-0.1-0.5-0.2-1-0.3-1.5L1473.7,187.7z M1776.5,212.2
			c-0.9,1.9-1.2,4-0.9,6.3c0.2,1.6,0.8,3.1,1.6,4.4l-45.2,39.4c-2.4-2.6-6.1-4.1-9.9-3.5c-4.9,0.7-8.6,4.5-9.5,9.1l-71.4-20.5
			c0.1-0.9,0.1-1.8,0-2.7c-0.9-6.2-6.6-10.5-12.7-9.6c-0.8,0.1-1.6,0.3-2.3,0.6l-31.7-51.8c1.6-2.2,2.4-5,2-7.9l98.2-9.6
			c1.8,5.3,7.2,8.8,13,8c2.6-0.4,4.9-1.6,6.7-3.3L1776.5,212.2z M1920.8,334.2c-1.8-3-5-5-8.5-5.4l-24.7-95.8
			c1.5-0.7,2.8-1.6,3.9-2.8l69.5,44.6c-0.8,1.9-1.1,3.9-0.8,6.1c0.3,2.2,1.2,4.1,2.5,5.6L1920.8,334.2z M1826.9,408.1
			c0.9-2,1.3-4.3,0.9-6.6c-0.1-0.9-0.4-1.8-0.7-2.6l80.1-48.3c1.7,0.6,3.5,0.8,5.4,0.6c0,0,0,0,0,0l1.4,87.8L1826.9,408.1z
			 M1756.2,427.8l-29.8-45.9c2.3-2.4,3.6-5.8,3.1-9.4c-0.1-1-0.4-2-0.9-3l16.7-13.7l58.9,44.7c-0.3,1.4-0.4,2.9-0.2,4.4
			c0.1,0.7,0.3,1.5,0.5,2.1L1756.2,427.8z M1693.1,455.1c-0.8-1.4-2-2.6-3.3-3.6l27.3-66.2c0.9,0.1,1.8,0.1,2.8,0
			c1.3-0.2,2.5-0.6,3.6-1.2l29.4,45.2L1693.1,455.1z M1557.5,477.7c0,0.2,0.1,0.3,0.1,0.5l-68.5,42.4l-36.2-63.8
			c1.2-2.1,1.7-4.6,1.4-7.1c0-0.3-0.1-0.6-0.2-0.9l42.8-35.5c2.2,3.9,6.7,6.3,11.4,5.6c3.2-0.5,5.9-2.2,7.7-4.7l45.4,52.9
			C1558.5,469.6,1557,473.5,1557.5,477.7z M1302.8,448.2l62.6-39.8l67.9,37.2c-1.2,2.1-1.8,4.6-1.4,7.2c0.3,1.9,1,3.6,2,5
			l-76.6,45.9L1302.8,448.2z M1250.4,378.8l39.6-84.5c0.5,0,1,0,1.6-0.1c1.4-0.2,2.7-0.6,3.8-1.3l16.7,39.2
			c-3.7,2.5-5.9,6.9-5.2,11.6c0.9,6.6,7,11.2,13.6,10.2c1.1-0.2,2.2-0.5,3.2-0.9l39.1,52.6l-62.5,39.8l-46.4-47.3
			c2.6-2.6,4-6.3,3.4-10.2C1256.7,383.9,1254,380.5,1250.4,378.8z M1184,195c2.3-0.8,4.3-2.2,5.6-4.1l88.5,14.9l74,28.7
			c-0.3,1.3-0.3,2.6-0.2,3.9c0.2,1.1,0.5,2.1,0.9,3.1l-53.4,35.4c-2.3-3.6-6.6-5.8-11.1-5.1c-5.3,0.7-9.2,5.1-9.7,10.2l-74.1,2.9
			L1184,195z"/>
		
			<linearGradient id="SVGID_36_" gradientUnits="userSpaceOnUse" x1="-654.9484" y1="3535.6807" x2="-608.8452" y2="3535.6807" gradientTransform="matrix(4.299911e-02 -0.9991 0.9991 4.299911e-02 -1702.361 -672.6796)">
			<stop  offset="0" style="stop-color:#F05B31"/>
			<stop  offset="1" style="stop-color:#F05D5B"/>
		</linearGradient>
		<circle class="st34" cx="1802.9" cy="110.7" r="23"/>
		
			<linearGradient id="SVGID_37_" gradientUnits="userSpaceOnUse" x1="-761.7671" y1="3524.1201" x2="-715.6639" y2="3524.1201" gradientTransform="matrix(4.299911e-02 -0.9991 0.9991 4.299911e-02 -1702.361 -672.6796)">
			<stop  offset="0" style="stop-color:#F05B31"/>
			<stop  offset="1" style="stop-color:#F05D5B"/>
		</linearGradient>
		<circle class="st35" cx="1786.7" cy="216.9" r="23"/>
		
			<linearGradient id="SVGID_38_" gradientUnits="userSpaceOnUse" x1="-640.5162" y1="3244.8953" x2="-594.413" y2="3244.8953" gradientTransform="matrix(4.299911e-02 -0.9991 0.9991 4.299911e-02 -1702.361 -672.6796)">
			<stop  offset="0" style="stop-color:#F05B31"/>
			<stop  offset="1" style="stop-color:#F05D5B"/>
		</linearGradient>
		<circle class="st36" cx="1513" cy="83.7" r="23"/>
		
			<linearGradient id="SVGID_39_" gradientUnits="userSpaceOnUse" x1="-797.691" y1="3368.6328" x2="-751.5878" y2="3368.6328" gradientTransform="matrix(4.299911e-02 -0.9991 0.9991 4.299911e-02 -1702.361 -672.6796)">
			<stop  offset="0" style="stop-color:#F05B31"/>
			<stop  offset="1" style="stop-color:#F05D5B"/>
		</linearGradient>
		<circle class="st37" cx="1629.8" cy="246.1" r="23"/>
		
			<linearGradient id="SVGID_40_" gradientUnits="userSpaceOnUse" x1="-817.3713" y1="3463.3167" x2="-771.2681" y2="3463.3167" gradientTransform="matrix(4.299911e-02 -0.9991 0.9991 4.299911e-02 -1702.361 -672.6796)">
			<stop  offset="0" style="stop-color:#F05B31"/>
			<stop  offset="1" style="stop-color:#F05D5B"/>
		</linearGradient>
		<circle class="st38" cx="1723.6" cy="269.8" r="23"/>
		
			<linearGradient id="SVGID_41_" gradientUnits="userSpaceOnUse" x1="-739.395" y1="3219.1931" x2="-693.2917" y2="3219.1931" gradientTransform="matrix(4.299911e-02 -0.9991 0.9991 4.299911e-02 -1702.361 -672.6796)">
			<stop  offset="0" style="stop-color:#F05B31"/>
			<stop  offset="1" style="stop-color:#F05D5B"/>
		</linearGradient>
		<circle class="st39" cx="1483.1" cy="181.4" r="23"/>
		
			<linearGradient id="SVGID_42_" gradientUnits="userSpaceOnUse" x1="-800.0125" y1="3101.854" x2="-753.9092" y2="3101.854" gradientTransform="matrix(4.299911e-02 -0.9991 0.9991 4.299911e-02 -1702.361 -672.6796)">
			<stop  offset="0" style="stop-color:#F05B31"/>
			<stop  offset="1" style="stop-color:#F05D5B"/>
		</linearGradient>
		<circle class="st40" cx="1363.2" cy="236.9" r="23"/>
		
			<linearGradient id="SVGID_43_" gradientUnits="userSpaceOnUse" x1="-606.3167" y1="3158.7678" x2="-560.2135" y2="3158.7678" gradientTransform="matrix(4.299911e-02 -0.9991 0.9991 4.299911e-02 -1702.361 -672.6796)">
			<stop  offset="0" style="stop-color:#F05B31"/>
			<stop  offset="1" style="stop-color:#F05D5B"/>
		</linearGradient>
		<circle class="st41" cx="1428.4" cy="45.9" r="23"/>
		
			<linearGradient id="SVGID_44_" gradientUnits="userSpaceOnUse" x1="-700.7456" y1="3118.4062" x2="-654.6423" y2="3118.4062" gradientTransform="matrix(4.299911e-02 -0.9991 0.9991 4.299911e-02 -1702.361 -672.6796)">
			<stop  offset="0" style="stop-color:#F05B31"/>
			<stop  offset="1" style="stop-color:#F05D5B"/>
		</linearGradient>
		<circle class="st42" cx="1384" cy="138.5" r="23"/>
		
			<linearGradient id="SVGID_45_" gradientUnits="userSpaceOnUse" x1="-755.2851" y1="2917.0994" x2="-709.1819" y2="2917.0994" gradientTransform="matrix(4.299911e-02 -0.9991 0.9991 4.299911e-02 -1702.361 -672.6796)">
			<stop  offset="0" style="stop-color:#F05B31"/>
			<stop  offset="1" style="stop-color:#F05D5B"/>
		</linearGradient>
		<circle class="st43" cx="1180.6" cy="184.3" r="23"/>
		
			<linearGradient id="SVGID_46_" gradientUnits="userSpaceOnUse" x1="-808.3162" y1="2839.4922" x2="-762.213" y2="2839.4922" gradientTransform="matrix(4.299911e-02 -0.9991 0.9991 4.299911e-02 -1702.361 -672.6796)">
			<stop  offset="0" style="stop-color:#F05B31"/>
			<stop  offset="1" style="stop-color:#F05D5B"/>
		</linearGradient>
		<circle class="st44" cx="1100.7" cy="234" r="23"/>
		
			<linearGradient id="SVGID_47_" gradientUnits="userSpaceOnUse" x1="-849.248" y1="3030.6768" x2="-803.1448" y2="3030.6768" gradientTransform="matrix(4.299911e-02 -0.9991 0.9991 4.299911e-02 -1702.361 -672.6796)">
			<stop  offset="0" style="stop-color:#F05B31"/>
			<stop  offset="1" style="stop-color:#F05D5B"/>
		</linearGradient>
		<circle class="st45" cx="1290" cy="283.1" r="23"/>
		
			<linearGradient id="SVGID_48_" gradientUnits="userSpaceOnUse" x1="-809.8831" y1="3208.7935" x2="-763.7798" y2="3208.7935" gradientTransform="matrix(4.299911e-02 -0.9991 0.9991 4.299911e-02 -1702.361 -672.6796)">
			<stop  offset="0" style="stop-color:#F05B31"/>
			<stop  offset="1" style="stop-color:#F05D5B"/>
		</linearGradient>
		<circle class="st46" cx="1469.6" cy="251.4" r="23"/>
		
			<linearGradient id="SVGID_49_" gradientUnits="userSpaceOnUse" x1="-730.7368" y1="3320.9236" x2="-684.6335" y2="3320.9236" gradientTransform="matrix(4.299911e-02 -0.9991 0.9991 4.299911e-02 -1702.361 -672.6796)">
			<stop  offset="0" style="stop-color:#F05B31"/>
			<stop  offset="1" style="stop-color:#F05D5B"/>
		</linearGradient>
		<circle class="st47" cx="1585.1" cy="177.1" r="23"/>
		
			<linearGradient id="SVGID_50_" gradientUnits="userSpaceOnUse" x1="-927.6298" y1="3368.5991" x2="-881.5266" y2="3368.5991" gradientTransform="matrix(4.299911e-02 -0.9991 0.9991 4.299911e-02 -1702.361 -672.6796)">
			<stop  offset="0" style="stop-color:#F05B31"/>
			<stop  offset="1" style="stop-color:#F05D5B"/>
		</linearGradient>
		<circle class="st48" cx="1624.2" cy="375.9" r="23"/>
		
			<linearGradient id="SVGID_51_" gradientUnits="userSpaceOnUse" x1="-964.4606" y1="3252.6414" x2="-918.3574" y2="3252.6414" gradientTransform="matrix(4.299911e-02 -0.9991 0.9991 4.299911e-02 -1702.361 -672.6796)">
			<stop  offset="0" style="stop-color:#F05B31"/>
			<stop  offset="1" style="stop-color:#F05D5B"/>
		</linearGradient>
		<circle class="st49" cx="1506.8" cy="407.7" r="23"/>
		
			<linearGradient id="SVGID_52_" gradientUnits="userSpaceOnUse" x1="-1051.3824" y1="2993.5088" x2="-1005.2792" y2="2993.5088" gradientTransform="matrix(4.299911e-02 -0.9991 0.9991 4.299911e-02 -1702.361 -672.6796)">
			<stop  offset="0" style="stop-color:#F05B31"/>
			<stop  offset="1" style="stop-color:#F05D5B"/>
		</linearGradient>
		<circle class="st50" cx="1244.2" cy="483.4" r="23"/>
		
			<linearGradient id="SVGID_53_" gradientUnits="userSpaceOnUse" x1="-1010.6318" y1="3190.9026" x2="-964.5286" y2="3190.9026" gradientTransform="matrix(4.299911e-02 -0.9991 0.9991 4.299911e-02 -1702.361 -672.6796)">
			<stop  offset="0" style="stop-color:#F05B31"/>
			<stop  offset="1" style="stop-color:#F05D5B"/>
		</linearGradient>
		<circle class="st51" cx="1443.1" cy="451.2" r="23"/>
		
			<linearGradient id="SVGID_54_" gradientUnits="userSpaceOnUse" x1="-1009.872" y1="3431.3208" x2="-963.7688" y2="3431.3208" gradientTransform="matrix(4.299911e-02 -0.9991 0.9991 4.299911e-02 -1702.361 -672.6796)">
			<stop  offset="0" style="stop-color:#F05B31"/>
			<stop  offset="1" style="stop-color:#F05D5B"/>
		</linearGradient>
		<circle class="st52" cx="1683.4" cy="460.8" r="23"/>
		
			<linearGradient id="SVGID_55_" gradientUnits="userSpaceOnUse" x1="-1025.0084" y1="3539.053" x2="-978.9052" y2="3539.053" gradientTransform="matrix(4.299911e-02 -0.9991 0.9991 4.299911e-02 -1702.361 -672.6796)">
			<stop  offset="0" style="stop-color:#F05B31"/>
			<stop  offset="1" style="stop-color:#F05D5B"/>
		</linearGradient>
		<circle class="st53" cx="1790.3" cy="480.5" r="23"/>
		
			<linearGradient id="SVGID_56_" gradientUnits="userSpaceOnUse" x1="-921.7361" y1="3462.501" x2="-875.6329" y2="3462.501" gradientTransform="matrix(4.299911e-02 -0.9991 0.9991 4.299911e-02 -1702.361 -672.6796)">
			<stop  offset="0" style="stop-color:#F05B31"/>
			<stop  offset="1" style="stop-color:#F05D5B"/>
		</linearGradient>
		<circle class="st54" cx="1718.3" cy="374.1" r="23"/>
		
			<linearGradient id="SVGID_57_" gradientUnits="userSpaceOnUse" x1="-1056.7456" y1="3625.6223" x2="-1011.0309" y2="3625.6223" gradientTransform="matrix(4.299911e-02 -0.9991 0.9991 4.299911e-02 -1702.361 -672.6796)">
			<stop  offset="0" style="stop-color:#F05B31"/>
			<stop  offset="1" style="stop-color:#F05D5B"/>
		</linearGradient>
		<path class="st55" d="M1878.7,539.2c12.6-1.8,21.4-13.4,19.6-26c-1.8-12.6-13.4-21.4-26-19.6c-12.6,1.8-21.4,13.4-19.6,26"/>
		
			<linearGradient id="SVGID_58_" gradientUnits="userSpaceOnUse" x1="-985.1163" y1="3754.7075" x2="-939.0131" y2="3754.7075" gradientTransform="matrix(4.299911e-02 -0.9991 0.9991 4.299911e-02 -1702.361 -672.6796)">
			<stop  offset="0" style="stop-color:#F05B31"/>
			<stop  offset="1" style="stop-color:#F05D5B"/>
		</linearGradient>
		<circle class="st56" cx="2007.5" cy="449.9" r="23"/>
		<g>
			
				<linearGradient id="SVGID_59_" gradientUnits="userSpaceOnUse" x1="-813.952" y1="3792.5361" x2="-767.8488" y2="3792.5361" gradientTransform="matrix(4.299911e-02 -0.9991 0.9991 4.299911e-02 -1702.361 -672.6796)">
				<stop  offset="0" style="stop-color:#F05B31"/>
				<stop  offset="1" style="stop-color:#F05D5B"/>
			</linearGradient>
			<circle class="st57" cx="2052.7" cy="280.6" r="23"/>
			
				<linearGradient id="SVGID_60_" gradientUnits="userSpaceOnUse" x1="-802.1874" y1="3792.5361" x2="-779.6135" y2="3792.5361" gradientTransform="matrix(4.299911e-02 -0.9991 0.9991 4.299911e-02 -1702.361 -672.6796)">
				<stop  offset="0" style="stop-color:#F05B31"/>
				<stop  offset="1" style="stop-color:#F05D5B"/>
			</linearGradient>
			<circle class="st58" cx="2052.7" cy="280.6" r="11.3"/>
		</g>
		
			<linearGradient id="SVGID_61_" gradientUnits="userSpaceOnUse" x1="-723.5162" y1="3808.5461" x2="-677.413" y2="3808.5461" gradientTransform="matrix(4.299911e-02 -0.9991 0.9991 4.299911e-02 -1702.361 -672.6796)">
			<stop  offset="0" style="stop-color:#F05B31"/>
			<stop  offset="1" style="stop-color:#F05D5B"/>
		</linearGradient>
		<circle class="st59" cx="2072.5" cy="190.9" r="23"/>
		
			<linearGradient id="SVGID_62_" gradientUnits="userSpaceOnUse" x1="-620.4128" y1="3705.6597" x2="-574.3096" y2="3705.6597" gradientTransform="matrix(4.299911e-02 -0.9991 0.9991 4.299911e-02 -1702.361 -672.6796)">
			<stop  offset="0" style="stop-color:#F05B31"/>
			<stop  offset="1" style="stop-color:#F05D5B"/>
		</linearGradient>
		<circle class="st60" cx="1974.2" cy="83.5" r="23"/>
		
			<linearGradient id="SVGID_63_" gradientUnits="userSpaceOnUse" x1="-763.3615" y1="3620.5857" x2="-717.2582" y2="3620.5857" gradientTransform="matrix(4.299911e-02 -0.9991 0.9991 4.299911e-02 -1702.361 -672.6796)">
			<stop  offset="0" style="stop-color:#F05B31"/>
			<stop  offset="1" style="stop-color:#F05D5B"/>
		</linearGradient>
		<circle class="st61" cx="1883" cy="222.6" r="23"/>
		
			<linearGradient id="SVGID_64_" gradientUnits="userSpaceOnUse" x1="-879.409" y1="3653.6663" x2="-833.3058" y2="3653.6663" gradientTransform="matrix(4.299911e-02 -0.9991 0.9991 4.299911e-02 -1702.361 -672.6796)">
			<stop  offset="0" style="stop-color:#F05B31"/>
			<stop  offset="1" style="stop-color:#F05D5B"/>
		</linearGradient>
		<circle class="st62" cx="1911.1" cy="340" r="23"/>
		
			<linearGradient id="SVGID_65_" gradientUnits="userSpaceOnUse" x1="-916.987" y1="3191.0757" x2="-870.8838" y2="3191.0757" gradientTransform="matrix(4.299911e-02 -0.9991 0.9991 4.299911e-02 -1702.361 -672.6796)">
			<stop  offset="0" style="stop-color:#F05B31"/>
			<stop  offset="1" style="stop-color:#F05D5B"/>
		</linearGradient>
		<circle class="st63" cx="1447.3" cy="357.6" r="23"/>
		
			<linearGradient id="SVGID_66_" gradientUnits="userSpaceOnUse" x1="-816.1736" y1="3711.179" x2="-770.0703" y2="3711.179" gradientTransform="matrix(4.299911e-02 -0.9991 0.9991 4.299911e-02 -1702.361 -672.6796)">
			<stop  offset="0" style="stop-color:#F05B31"/>
			<stop  offset="1" style="stop-color:#F05D5B"/>
		</linearGradient>
		<circle class="st64" cx="1971.3" cy="279.3" r="23"/>
	</g>
</g>
</svg>
