<svg xmlns="http://www.w3.org/2000/svg" xmlns:xlink="http://www.w3.org/1999/xlink" viewBox="0 0 403.53 401.02"><defs><style>.cls-1{fill:url(#New_Gradient_Swatch_copy);}.cls-2{fill:#fff;}.cls-3{fill:url(#New_Gradient_Swatch_copy-2);}.cls-4{fill:url(#New_Gradient_Swatch_copy-3);}.cls-5{fill:url(#New_Gradient_Swatch_copy-4);}.cls-6{fill:url(#New_Gradient_Swatch_copy-5);}.cls-7{fill:url(#New_Gradient_Swatch_copy-6);}.cls-8{fill:url(#New_Gradient_Swatch_copy-7);}.cls-9{fill:url(#New_Gradient_Swatch_copy-8);}.cls-10{fill:url(#New_Gradient_Swatch_2);}.cls-11{fill:url(#New_Gradient_Swatch_2-2);}.cls-12{fill:url(#New_Gradient_Swatch_2-3);}.cls-13{fill:url(#New_Gradient_Swatch_2-4);}.cls-14{fill:url(#New_Gradient_Swatch_2-5);}.cls-15{fill:url(#New_Gradient_Swatch_2-6);}.cls-16{fill:url(#New_Gradient_Swatch_2-7);}.cls-17{fill:url(#New_Gradient_Swatch_2-8);}.cls-18{fill:url(#New_Gradient_Swatch_2-9);}.cls-19{fill:url(#New_Gradient_Swatch_2-10);}.cls-20{fill:url(#New_Gradient_Swatch_2-11);}.cls-21{fill:url(#New_Gradient_Swatch_2-12);}.cls-22{fill:url(#New_Gradient_Swatch_2-13);}.cls-23{fill:url(#New_Gradient_Swatch_2-14);}.cls-24{fill:url(#New_Gradient_Swatch_2-15);}.cls-25{fill:url(#New_Gradient_Swatch_2-16);}.cls-26{fill:url(#New_Gradient_Swatch_2-17);}.cls-27{fill:url(#New_Gradient_Swatch_2-18);}.cls-28{fill:url(#New_Gradient_Swatch_2-19);}.cls-29{fill:url(#New_Gradient_Swatch_2-20);}.cls-30{fill:url(#New_Gradient_Swatch_2-21);}.cls-31{fill:url(#New_Gradient_Swatch_2-22);}.cls-32{fill:url(#New_Gradient_Swatch_2-23);}.cls-33{fill:url(#New_Gradient_Swatch_2-24);}.cls-34{fill:url(#New_Gradient_Swatch_2-25);}.cls-35{fill:url(#New_Gradient_Swatch_2-26);}.cls-36{fill:url(#New_Gradient_Swatch_2-27);}.cls-37{fill:url(#New_Gradient_Swatch_2-28);}.cls-38{fill:url(#New_Gradient_Swatch_2-29);}.cls-39{fill:url(#New_Gradient_Swatch_2-30);}.cls-40{fill:url(#New_Gradient_Swatch_7);}.cls-41{fill:url(#New_Gradient_Swatch_7-2);}.cls-42{fill:url(#New_Gradient_Swatch_7-3);}.cls-43{fill:url(#New_Gradient_Swatch_7-4);}.cls-44{fill:url(#New_Gradient_Swatch_7-5);}.cls-45{fill:url(#New_Gradient_Swatch_7-6);}.cls-46,.cls-47,.cls-48,.cls-49,.cls-50{stroke-linecap:round;stroke-linejoin:round;}.cls-46{stroke-width:1.19px;fill:url(#New_Gradient_Swatch_7-7);stroke:url(#New_Gradient_Swatch_7-8);}.cls-47,.cls-48,.cls-49,.cls-50{stroke-width:1.04px;}.cls-47{fill:url(#New_Gradient_Swatch_7-9);stroke:url(#New_Gradient_Swatch_7-10);}.cls-48{fill:url(#New_Gradient_Swatch_7-11);stroke:url(#New_Gradient_Swatch_7-12);}.cls-49{fill:url(#New_Gradient_Swatch_7-13);stroke:url(#New_Gradient_Swatch_7-14);}.cls-50{fill:url(#New_Gradient_Swatch_7-15);stroke:url(#New_Gradient_Swatch_7-16);}</style><linearGradient id="New_Gradient_Swatch_copy" x1="325.57" y1="267.13" x2="400.39" y2="267.13" gradientUnits="userSpaceOnUse"><stop offset="0" stop-color="#c8e9ef"/><stop offset="1" stop-color="#c4deef"/></linearGradient><linearGradient id="New_Gradient_Swatch_copy-2" x1="29.86" y1="127.61" x2="357.16" y2="127.61" xlink:href="#New_Gradient_Swatch_copy"/><linearGradient id="New_Gradient_Swatch_copy-3" x1="211.17" y1="119.79" x2="236.64" y2="119.79" xlink:href="#New_Gradient_Swatch_copy"/><linearGradient id="New_Gradient_Swatch_copy-4" x1="219.14" y1="142.05" x2="236.65" y2="142.05" xlink:href="#New_Gradient_Swatch_copy"/><linearGradient id="New_Gradient_Swatch_copy-5" x1="116.1" y1="360.41" x2="190.92" y2="360.41" xlink:href="#New_Gradient_Swatch_copy"/><linearGradient id="New_Gradient_Swatch_copy-6" x1="167.87" y1="145.86" x2="191.41" y2="145.86" xlink:href="#New_Gradient_Swatch_copy"/><linearGradient id="New_Gradient_Swatch_copy-7" x1="162.9" y1="132.75" x2="189.96" y2="132.75" xlink:href="#New_Gradient_Swatch_copy"/><linearGradient id="New_Gradient_Swatch_copy-8" x1="86.05" y1="222.97" x2="325.44" y2="222.97" xlink:href="#New_Gradient_Swatch_copy"/><linearGradient id="New_Gradient_Swatch_2" x1="190.21" y1="141.62" x2="167.05" y2="141.62" gradientUnits="userSpaceOnUse"><stop offset="0" stop-color="#04bdce"/><stop offset="1" stop-color="#0b83c5"/></linearGradient><linearGradient id="New_Gradient_Swatch_2-2" x1="237.75" y1="130.16" x2="218.15" y2="130.16" xlink:href="#New_Gradient_Swatch_2"/><linearGradient id="New_Gradient_Swatch_2-3" x1="307.55" y1="220.01" x2="184.08" y2="220.01" xlink:href="#New_Gradient_Swatch_2"/><linearGradient id="New_Gradient_Swatch_2-4" x1="180.19" y1="184.8" x2="89.19" y2="184.8" xlink:href="#New_Gradient_Swatch_2"/><linearGradient id="New_Gradient_Swatch_2-5" x1="295.33" y1="218.9" x2="225.19" y2="218.9" xlink:href="#New_Gradient_Swatch_2"/><linearGradient id="New_Gradient_Swatch_2-6" x1="260.21" y1="221.75" x2="217.03" y2="221.75" xlink:href="#New_Gradient_Swatch_2"/><linearGradient id="New_Gradient_Swatch_2-7" x1="259.76" y1="207.45" x2="271.01" y2="234.75" xlink:href="#New_Gradient_Swatch_2"/><linearGradient id="New_Gradient_Swatch_2-8" x1="157.25" y1="244.29" x2="124.37" y2="217.01" xlink:href="#New_Gradient_Swatch_2"/><linearGradient id="New_Gradient_Swatch_2-9" x1="329.87" y1="220.85" x2="191.51" y2="220.85" xlink:href="#New_Gradient_Swatch_2"/><linearGradient id="New_Gradient_Swatch_2-10" x1="200.38" y1="297.54" x2="129.83" y2="297.54" xlink:href="#New_Gradient_Swatch_2"/><linearGradient id="New_Gradient_Swatch_2-11" x1="143.14" y1="218.57" x2="81.63" y2="218.57" xlink:href="#New_Gradient_Swatch_2"/><linearGradient id="New_Gradient_Swatch_2-12" x1="128.19" y1="306.31" x2="172.9" y2="261.6" xlink:href="#New_Gradient_Swatch_2"/><linearGradient id="New_Gradient_Swatch_2-13" x1="95.92" y1="308.31" x2="157.77" y2="246.47" xlink:href="#New_Gradient_Swatch_2"/><linearGradient id="New_Gradient_Swatch_2-14" x1="347.04" y1="216.05" x2="316.67" y2="211.91" xlink:href="#New_Gradient_Swatch_2"/><linearGradient id="New_Gradient_Swatch_2-15" x1="373.42" y1="192.89" x2="309.36" y2="184.17" xlink:href="#New_Gradient_Swatch_2"/><linearGradient id="New_Gradient_Swatch_2-16" x1="364.78" y1="308.04" x2="361.4" y2="226.21" xlink:href="#New_Gradient_Swatch_2"/><linearGradient id="New_Gradient_Swatch_2-17" x1="353.04" y1="307.65" x2="351.47" y2="269.47" xlink:href="#New_Gradient_Swatch_2"/><linearGradient id="New_Gradient_Swatch_2-18" x1="173.84" y1="395.96" x2="133" y2="324.96" xlink:href="#New_Gradient_Swatch_2"/><linearGradient id="New_Gradient_Swatch_2-19" x1="183.55" y1="389.36" x2="164.5" y2="356.24" xlink:href="#New_Gradient_Swatch_2"/><linearGradient id="New_Gradient_Swatch_2-20" x1="270.79" y1="154.87" x2="228.85" y2="154.87" xlink:href="#New_Gradient_Swatch_2"/><linearGradient id="New_Gradient_Swatch_2-21" x1="181.64" y1="161.05" x2="139.72" y2="161.05" xlink:href="#New_Gradient_Swatch_2"/><linearGradient id="New_Gradient_Swatch_2-22" x1="195.36" y1="150.61" x2="179.9" y2="150.61" xlink:href="#New_Gradient_Swatch_2"/><linearGradient id="New_Gradient_Swatch_2-23" x1="231.39" y1="167.12" x2="189.2" y2="167.12" xlink:href="#New_Gradient_Swatch_2"/><linearGradient id="New_Gradient_Swatch_2-24" x1="231.08" y1="133.6" x2="134.59" y2="133.6" xlink:href="#New_Gradient_Swatch_2"/><linearGradient id="New_Gradient_Swatch_2-25" x1="194.66" y1="142.46" x2="142.22" y2="142.46" xlink:href="#New_Gradient_Swatch_2"/><linearGradient id="New_Gradient_Swatch_2-26" x1="174.48" y1="135.35" x2="161.27" y2="135.35" xlink:href="#New_Gradient_Swatch_2"/><linearGradient id="New_Gradient_Swatch_2-27" x1="270.55" y1="118.95" x2="190.77" y2="118.95" xlink:href="#New_Gradient_Swatch_2"/><linearGradient id="New_Gradient_Swatch_2-28" x1="238.28" y1="129.99" x2="192.42" y2="129.99" xlink:href="#New_Gradient_Swatch_2"/><linearGradient id="New_Gradient_Swatch_2-29" x1="220" y1="113.83" x2="210.36" y2="113.83" xlink:href="#New_Gradient_Swatch_2"/><linearGradient id="New_Gradient_Swatch_2-30" x1="26.29" y1="126.06" x2="360.72" y2="126.06" xlink:href="#New_Gradient_Swatch_2"/><linearGradient id="New_Gradient_Swatch_7" x1="199.86" y1="63.39" x2="221.85" y2="63.39" gradientUnits="userSpaceOnUse"><stop offset="0" stop-color="#f05354"/><stop offset="1" stop-color="#ef4d80"/></linearGradient><linearGradient id="New_Gradient_Swatch_7-2" x1="252.31" y1="63.6" x2="265.68" y2="63.6" xlink:href="#New_Gradient_Swatch_7"/><linearGradient id="New_Gradient_Swatch_7-3" x1="265.83" y1="94.14" x2="306.14" y2="94.14" xlink:href="#New_Gradient_Swatch_7"/><linearGradient id="New_Gradient_Swatch_7-4" x1="97.24" y1="44.4" x2="134.87" y2="44.4" xlink:href="#New_Gradient_Swatch_7"/><linearGradient id="New_Gradient_Swatch_7-5" x1="-1.39" y1="153.27" x2="61.59" y2="153.27" xlink:href="#New_Gradient_Swatch_7"/><linearGradient id="New_Gradient_Swatch_7-6" x1="324.2" y1="107.8" x2="380.05" y2="107.8" xlink:href="#New_Gradient_Swatch_7"/><linearGradient id="New_Gradient_Swatch_7-7" x1="82.58" y1="154.1" x2="88.52" y2="154.1" xlink:href="#New_Gradient_Swatch_7"/><linearGradient id="New_Gradient_Swatch_7-8" x1="81.98" y1="154.1" x2="89.11" y2="154.1" xlink:href="#New_Gradient_Swatch_7"/><linearGradient id="New_Gradient_Swatch_7-9" x1="90.69" y1="111.44" x2="97.15" y2="111.44" xlink:href="#New_Gradient_Swatch_7"/><linearGradient id="New_Gradient_Swatch_7-10" x1="90.17" y1="111.44" x2="97.67" y2="111.44" xlink:href="#New_Gradient_Swatch_7"/><linearGradient id="New_Gradient_Swatch_7-11" x1="127.31" y1="99.81" x2="135.93" y2="99.81" xlink:href="#New_Gradient_Swatch_7"/><linearGradient id="New_Gradient_Swatch_7-12" x1="126.79" y1="99.81" x2="136.45" y2="99.81" xlink:href="#New_Gradient_Swatch_7"/><linearGradient id="New_Gradient_Swatch_7-13" x1="341.68" y1="82.11" x2="348.14" y2="82.11" xlink:href="#New_Gradient_Swatch_7"/><linearGradient id="New_Gradient_Swatch_7-14" x1="341.16" y1="82.11" x2="348.66" y2="82.11" xlink:href="#New_Gradient_Swatch_7"/><linearGradient id="New_Gradient_Swatch_7-15" x1="328.75" y1="29.51" x2="334.14" y2="29.51" xlink:href="#New_Gradient_Swatch_7"/><linearGradient id="New_Gradient_Swatch_7-16" x1="328.23" y1="29.51" x2="334.66" y2="29.51" xlink:href="#New_Gradient_Swatch_7"/></defs><title>Asset 1</title><g id="Layer_2" data-name="Layer 2"><g id="Layer_1-2" data-name="Layer 1"><path class="cls-1" d="M366,229.84A37.4,37.4,0,0,1,375,302.53a37.82,37.82,0,0,1-10.88,2h-.09a18.7,18.7,0,1,0-31.3-16.08l-.57-.06a37.42,37.42,0,0,1,9-51.62,36.8,36.8,0,0,1,9.76-5A37.33,37.33,0,0,1,366,229.84Z" transform="translate(-0.39)"/><path class="cls-2" d="M340.74,164c13.57,14.24,24.95,35.29,25.22,65.87a37.33,37.33,0,0,0-15,1.89,36.8,36.8,0,0,0-9.76,5c-1.23-26.38-9.31-41.72-18.7-50.62l-1.73-29.94a19.19,19.19,0,0,0-3.93-10.61A100.6,100.6,0,0,1,340.74,164Z" transform="translate(-0.39)"/><path class="cls-3" d="M345.45,102c24.39,19.66,4.55,57.08-4.71,62a100.6,100.6,0,0,0-23.92-18.38,19.36,19.36,0,0,0-13.34-7.5l-36-3.77c-2.23-17-11.37-43.89-47.26-39.07-13.49,1.82-21.9,6.57-27,12.61h0a51.58,51.58,0,0,0-22.33-1.46c-13.57,1.82-22,6.62-27,12.7-9.58,11.53-7.06,27.69-4.36,37.08l-.78.22L93.85,172.65a11.84,11.84,0,0,0-7.8,11.27L87,252c-1.7-1.26-20.19-14.75-35.58-16.68C35.27,233.33,26.65,221.2,31,203s17.23-18.21,20.47-18.21c0,0,4.31-2,2.16-6.06s-19.41-13.16-18.32-21.25a24.7,24.7,0,0,0-.57-9.38A14.18,14.18,0,0,0,32,142.3c-1.07-1-4.31-15.19,2.15-19.23s0-16.17,11.86-22.24S66.51,89.7,78.36,90.7s25.85-1,30.16-7.07,16.16-4,21.54-3,4.31-5.06,10.77-6.07,26.93-6.06,28-18.2S169.92,24,197.93,13.84s77.56-18.21,89.4,1,5.39,28.33,3.24,31.37,2.15,11.11,12.92,15.17,21.54-3,23.69,9.1S332.26,94.21,339,97.79A40.32,40.32,0,0,1,345.45,102Z" transform="translate(-0.39)"/><path class="cls-2" d="M292.66,218.43a32.4,32.4,0,0,1-32,32.86c-.45,0-.93,0-1.38,0a32.4,32.4,0,1,1,33.33-32.83Z" transform="translate(-0.39)"/><path class="cls-2" d="M227.85,219.34a32.37,32.37,0,0,0,31.48,31.92v.05c-3.19,1.32-6.62,2.59-8.56,2.62a32.41,32.41,0,0,1-3.69-64.66h0A32.4,32.4,0,0,0,227.85,219.34Z" transform="translate(-0.39)"/><path class="cls-4" d="M236.64,130.92l-2.34-.08c-4.14-.44-11-1.27-15.16-1.1a53.25,53.25,0,0,0-8-10.72c1.75-5,6.43-9.11,8-10.36C232.62,112.13,236.5,121.55,236.64,130.92Z" transform="translate(-0.39)"/><path class="cls-5" d="M231.28,153.8l-3.27.58a80.59,80.59,0,0,0-8.87-24.64c4.18-.17,11,.66,15.16,1.1l2.34.08C236.81,141.25,232.43,151.55,231.28,153.8Z" transform="translate(-0.39)"/><path class="cls-2" d="M219.14,129.74A80.59,80.59,0,0,1,228,154.38c.49,2.58.64,4.13.64,4.13,1.86,4.77-5,10.74-15.09,13.6s-19.75,1.31-21.6-3.47c-.3-.77-.4-.43-.27-1.24a54.94,54.94,0,0,0,1.24-9A50.53,50.53,0,0,0,191.41,142a36.11,36.11,0,0,0-1.45-4.21c-3.14-7.52-9.2-14.37-20.45-17.53-6.62-1.86-15-2.46-25.66-1.17,5-6.08,13.47-10.88,27-12.7a51.58,51.58,0,0,1,22.33,1.46c.28.08.56.17.83.27A42.06,42.06,0,0,1,211.17,119,53.25,53.25,0,0,1,219.14,129.74Z" transform="translate(-0.39)"/><path class="cls-2" d="M219.17,108.66c-1.57,1.25-6.25,5.34-8,10.36a42.06,42.06,0,0,0-17.12-10.88v0C204.82,106.66,213,107,219.17,108.66Z" transform="translate(-0.39)"/><path class="cls-2" d="M268.1,145.64h0c1.37,4.25-3.08,10.61-11,13.95a29.51,29.51,0,0,1-3.17,1.1c-10.06,2.84-19.73,1.29-21.6-3.48-.17-.48-.72-2.1-1.05-3.42,1.15-2.25,5.53-12.55,5.36-22.88-.14-9.37-4-18.79-17.47-22.26-6.18-1.64-14.35-2-25.12-.54v0c-.27-.1-.55-.19-.83-.27h0c5.06-6,13.47-10.79,27-12.61,35.89-4.82,45,22.07,47.26,39.07A82.81,82.81,0,0,1,268.1,145.64Z" transform="translate(-0.39)"/><path class="cls-2" d="M191.41,142a50.53,50.53,0,0,1,1.52,16.43c-5.11-.3-9-2-10.12-4.86-1.59-4.09.8-8.35,8.46-11.52Z" transform="translate(-0.39)"/><path class="cls-6" d="M189.87,351.69a37.79,37.79,0,0,1,1,10.24l-.46.34a18.71,18.71,0,1,0-17.87,30.35l-.08,0A37.4,37.4,0,1,1,144.79,324c1.26-.3,2.53-.54,3.79-.71A37.4,37.4,0,0,1,189.87,351.69Z" transform="translate(-0.39)"/><path class="cls-7" d="M167.93,145.18l21.4-7.12.63-.25a36.11,36.11,0,0,1,1.45,4.21l-.14,0c-7.66,3.17-10.05,7.43-8.46,11.52l-4.29.32c-1-1.64-3-2.82-5.66-3.49a42.31,42.31,0,0,1-5-5.19Z" transform="translate(-0.39)"/><path class="cls-8" d="M190,137.81l-.63.25-21.4,7.12-.06,0c-10.25-12.83-2.07-21.84,1.64-24.95C180.76,123.44,186.82,130.29,190,137.81Z" transform="translate(-0.39)"/><path class="cls-9" d="M260.71,251.29a32.41,32.41,0,1,0-13.63-62h0a32.41,32.41,0,0,0,3.69,64.66c1.94,0,5.37-1.3,8.56-2.62v-.05C259.78,251.29,260.26,251.29,260.71,251.29Zm61.77-65.15,2.91,50.7a25,25,0,0,1-15.14,24.48l-98.07,42c-6,2.59-13.1,3.62-16.23,4.06L134.27,287.7c-2.78-24.41,12.28-37.92,17.28-41.68l.36-.26c.38-.29.74-.59,1.1-.9a18.7,18.7,0,0,0-24.68-28.1,19.65,19.65,0,0,0-2.77,3l-.31-.22c-4.28,5.82-19.58,28.79-19.21,59.12h0L100.77,277a19.59,19.59,0,0,1-13.66-18.39L87,252l-1-68.11a11.84,11.84,0,0,1,7.8-11.27l44.86-16.24.78-.22a57.44,57.44,0,0,0,2.68,7.57c1.85,4.78,11.79,7.58,21.86,4.72s16.72-9,14.86-13.82a4.36,4.36,0,0,0-.37-.75l4.29-.32c1.11,2.85,5,4.56,10.12,4.86a54.94,54.94,0,0,1-1.24,9c-.13.81,0,.47.27,1.24,1.85,4.78,11.52,6.33,21.6,3.47s16.95-8.83,15.09-13.6c0,0-.15-1.55-.64-4.13l3.27-.58c.33,1.32.88,2.94,1.05,3.42,1.87,4.77,11.54,6.32,21.6,3.48a29.51,29.51,0,0,0,3.17-1.1l.91,2.23,46.88-19.32,1.16-4a19.33,19.33,0,0,1,14.7,17.66Z" transform="translate(-0.39)"/><path class="cls-2" d="M172.86,150.42c2.65.67,4.66,1.85,5.66,3.49a4.36,4.36,0,0,1,.37.75c1.86,4.78-4.79,11-14.86,13.82s-20,.06-21.86-4.72a57.44,57.44,0,0,1-2.68-7.57c-2.7-9.39-5.22-25.55,4.36-37.08,10.64-1.29,19-.69,25.66,1.17-3.71,3.11-11.89,12.12-1.64,24.95A42.31,42.31,0,0,0,172.86,150.42Z" transform="translate(-0.39)"/><path class="cls-2" d="M154.71,218.46a18.69,18.69,0,0,1-1.7,26.4c-.36.31-.72.61-1.1.9l-.36.26a18.71,18.71,0,0,1-26-26.24,19.65,19.65,0,0,1,2.77-3A18.69,18.69,0,0,1,154.71,218.46Z" transform="translate(-0.39)"/><path class="cls-2" d="M134.27,287.7c1.13,10,5.25,21.86,14.31,35.63-1.26.17-2.53.41-3.79.71A37.19,37.19,0,0,0,126.1,335c-14.77-19.92-19.88-39.28-20.06-56.3-.37-30.33,14.93-53.3,19.21-59.12l.31.22a18.71,18.71,0,0,0,26,26.24C146.55,249.78,131.49,263.29,134.27,287.7Z" transform="translate(-0.39)"/><path class="cls-10" d="M189.33,138.06a47,47,0,0,1-5.13,2.43c-1.74.73-3.51,1.36-5.29,2s-3.58,1.14-5.4,1.6a47,47,0,0,1-5.57,1.13,43.63,43.63,0,0,1,5.13-2.44c1.74-.73,3.51-1.36,5.28-2s3.59-1.14,5.41-1.6A45,45,0,0,1,189.33,138.06Z" transform="translate(-0.39)"/><path class="cls-11" d="M236.86,130.93c-.86.09-1.72.17-2.58.22h0a31,31,0,0,1-3.85,0c-1.28,0-2.55-.14-3.81-.27s-2.52-.28-3.77-.49-2.51-.41-3.79-.7a15.85,15.85,0,0,1,3.85-.61,29.36,29.36,0,0,1,3.87.06,37.39,37.39,0,0,1,3.81.47,33.48,33.48,0,0,1,3.76.87h0C235.16,130.64,236,130.77,236.86,130.93Z" transform="translate(-0.39)"/><path class="cls-12" d="M304.89,142.5c-17.53,8.42-35.25,16.35-53,24.1-8.88,3.93-17.83,7.68-26.75,11.51l-26.85,11.23-3.37,1.37A11.29,11.29,0,0,0,192.2,192a7,7,0,0,0-2.75,4.38,6.48,6.48,0,0,0-.11,1.32c0,.44.06.94.1,1.58l.26,3.63.52,7.27c.61,9.69,1.31,19.38,1.82,29.08,1.11,19.39,2,38.8,2.44,58.23-2.6-19.26-4.68-38.55-6.57-57.85-1-9.65-1.8-19.31-2.7-29l-.61-7.24-.3-3.63c0-.56-.13-1.26-.14-2a11.1,11.1,0,0,1,.18-2.3,12.22,12.22,0,0,1,4.74-7.69,12.43,12.43,0,0,1,2-1.2c.76-.36,1.22-.53,1.8-.78l3.36-1.4,27-10.95c9-3.57,18-7.22,27.08-10.69C268.36,155.75,286.53,148.88,304.89,142.5Z" transform="translate(-0.39)"/><path class="cls-13" d="M91,177.93c7.4.42,14.75,1.19,22.08,2.07,3.67.41,7.32.95,11,1.43L135,183.05l10.92,1.8c3.63.67,7.27,1.28,10.89,2,7.25,1.4,14.48,2.93,21.65,4.8-7.4-.42-14.75-1.18-22.08-2.07-3.67-.41-7.32-1-11-1.42l-10.94-1.62-10.92-1.82c-3.63-.66-7.27-1.27-10.89-2C105.36,181.32,98.13,179.8,91,177.93Z" transform="translate(-0.39)"/><path class="cls-14" d="M292.67,218.43a33.73,33.73,0,0,1-56.59,25.33,33.75,33.75,0,0,1-10.88-24.38,33.76,33.76,0,0,1,10.18-24.68,33.77,33.77,0,0,1,57.29,23.73Zm0,0a31.12,31.12,0,0,0-10.08-22.51,31.14,31.14,0,1,0,.64,45.3,31.14,31.14,0,0,0,9.44-22.79Z" transform="translate(-0.39)"/><path class="cls-15" d="M259.33,251.31a47.69,47.69,0,0,1-6.3,2.49,13.2,13.2,0,0,1-1.68.37,12.49,12.49,0,0,1-1.72.05,25.87,25.87,0,0,1-3.41-.15A32.51,32.51,0,0,1,217.68,228a33.36,33.36,0,0,1,.23-13.75,32.7,32.7,0,0,1,5.82-12.41A33.22,33.22,0,0,1,234.1,193a31.85,31.85,0,0,1,13-3.72,33.27,33.27,0,0,0-12.54,4.48,32.08,32.08,0,0,0-15.11,33.9,31.47,31.47,0,0,0,5.07,12,32.88,32.88,0,0,0,9.48,9,31.82,31.82,0,0,0,12.35,4.53,23.21,23.21,0,0,0,3.32.34,11.48,11.48,0,0,0,1.65.06,13.46,13.46,0,0,0,1.63-.26A60.29,60.29,0,0,0,259.33,251.31Z" transform="translate(-0.39)"/><path class="cls-16" d="M279.55,203.85a15,15,0,0,1,5.5,7.34,19.37,19.37,0,0,1,.81,9.77,21.8,21.8,0,0,1-4.06,9.44,14.28,14.28,0,0,1-1.71,2,20.86,20.86,0,0,1-4.07,3.41,18,18,0,0,1-2.29,1.34,20,20,0,0,1-2.43,1.05,19,19,0,0,1-2.53.8,21.36,21.36,0,0,1-2.61.48,16.66,16.66,0,0,1-2.64.19,21.94,21.94,0,0,1-10-2.29,19.51,19.51,0,0,1-7.42-6.4,14.66,14.66,0,0,1-2.69-8.77V222a.39.39,0,0,1,.41-.37.38.38,0,0,1,.33.2,19,19,0,0,0,4.87,5.64,19.4,19.4,0,0,0,6.53,3.47,19.53,19.53,0,0,0,23.89-12.15,19.35,19.35,0,0,0,1-7.32,20.15,20.15,0,0,0-1.69-7.26.4.4,0,0,1,.21-.52.39.39,0,0,1,.38,0Z" transform="translate(-0.39)"/><path class="cls-17" d="M153,244.85a17.38,17.38,0,1,0-13.52,4.25A17.54,17.54,0,0,0,153,244.85Zm0,0a20.06,20.06,0,0,1-31.81-7.41,20.4,20.4,0,0,1-1.49-8A20.05,20.05,0,1,1,153,244.85Z" transform="translate(-0.39)"/><path class="cls-18" d="M196,307.38c6.11-1.14,12.17-2.61,17.63-5.53l8.35-4.19,8.38-4.1c5.58-2.76,11.2-5.43,16.82-8.09l8.43-4,8.46-3.94q16.92-7.84,34-15.43l8.53-3.79,2.12-.93c.58-.28,1.17-.55,1.72-.88a19.8,19.8,0,0,0,3.17-2.18,21,21,0,0,0,7.3-13.15,21.32,21.32,0,0,0,.17-3.83l-.25-4.61-.51-9.31-.93-18.63c-.54-12.42-1.06-24.84-1.43-37.27l-.27-9.33,0-1.16,0-1.08a15.76,15.76,0,0,0-.21-1.94,16.64,16.64,0,0,0-5.85-10.1,16.84,16.84,0,0,0-7.3-3.48l-1-.19-1.16-.18-2.3-.36-4.62-.72c-3.07-.49-6.15-.94-9.22-1.47L276.63,136c-3.07-.56-6.14-1.07-9.2-1.66,3.11.06,6.23.2,9.34.29l9.33.41c3.12.12,6.22.32,9.33.48l4.66.25,2.33.12,1.17.07c.4,0,.85.06,1.28.11a21.62,21.62,0,0,1,9.7,3.71,22.15,22.15,0,0,1,7,7.93,20.87,20.87,0,0,1,1.88,5,20.14,20.14,0,0,1,.46,2.67l.12,1.24.11,1.17.8,9.29c1.06,12.39,2,24.79,2.85,37.2L329,222.9l.56,9.31.29,4.7a28.59,28.59,0,0,1-.27,5.47A29.17,29.17,0,0,1,314.47,264c-.79.44-1.62.81-2.45,1.18l-2.16.91-8.63,3.55q-17.24,7.13-34.6,13.94L258,287l-8.72,3.33c-5.81,2.23-11.62,4.46-17.46,6.6L223,300.18l-8.79,3.16A63.16,63.16,0,0,1,196,307.38Z" transform="translate(-0.39)"/><path class="cls-19" d="M134.26,287.7a80.39,80.39,0,0,1,16.48,1.61,138.59,138.59,0,0,1,30.85,9.83A80.57,80.57,0,0,1,196,307.38a79.7,79.7,0,0,1-16.48-1.6,133,133,0,0,1-15.71-4,134.85,134.85,0,0,1-15.13-5.83A81.83,81.83,0,0,1,134.26,287.7Z" transform="translate(-0.39)"/><path class="cls-20" d="M138.71,156.41q-9.47,4.49-19.07,8.64c-6.4,2.78-12.8,5.54-19.24,8.19l-4.83,2-.6.24c-.19.08-.31.15-.46.22-.3.12-.57.31-.85.45a9.61,9.61,0,0,0-1.49,1.19,8.65,8.65,0,0,0-2,3.13,7.94,7.94,0,0,0-.44,1.79,6.84,6.84,0,0,0-.08.91v1c.17,3.48.31,7,.44,10.43s.27,7,.37,10.44q.71,20.86.89,41.75l.09,10.43v1.31c0,.35,0,.68,0,1a17.19,17.19,0,0,0,.27,2,15.69,15.69,0,0,0,1.33,3.85,15.38,15.38,0,0,0,5.39,6.1,16.62,16.62,0,0,0,1.79,1l1,.43.49.19.25.09a2.34,2.34,0,0,1,.27.2,10.71,10.71,0,0,1,2.08,2.07,11.46,11.46,0,0,1,1.74,3.15,11.65,11.65,0,0,1-3.24,1.57,11.51,11.51,0,0,1-2.9.49,2,2,0,0,1-.34,0l-.37-.11-.75-.25c-.49-.17-1-.36-1.46-.57a21.71,21.71,0,0,1-2.8-1.43,23.74,23.74,0,0,1-8.6-9.05,23.36,23.36,0,0,1-2.21-5.94,24,24,0,0,1-.49-3.15c-.05-.52-.07-1.06-.09-1.58l0-1.3-.21-10.44q-.39-20.88-.29-41.76,0-5.22.08-10.44c0-3.48.07-7,.14-10.44v-.33l0-.42c0-.29,0-.57,0-.85a16.26,16.26,0,0,1,.26-1.68,14.45,14.45,0,0,1,1-3.2,14.91,14.91,0,0,1,4-5.27,15.71,15.71,0,0,1,2.75-1.84c.5-.23,1-.48,1.51-.66l.75-.27.62-.2,5-1.55c6.65-2.09,13.33-4.07,20-6S131.94,158.15,138.71,156.41Z" transform="translate(-0.39)"/><path class="cls-21" d="M153.13,244.92a51.79,51.79,0,0,0-12.92,17.37A46.64,46.64,0,0,0,136.15,283a57.62,57.62,0,0,0,1.23,10.6l.55,2.64.71,2.6.36,1.31.43,1.29.82,2.59a166.21,166.21,0,0,0,8.9,20.19,77.73,77.73,0,0,1-12.07-18.93A56.06,56.06,0,0,1,135,300l-.91-2.71-.74-2.77-.35-1.39-.27-1.42c-.16-.94-.36-1.88-.49-2.83a55.6,55.6,0,0,1-.45-5.77A45.23,45.23,0,0,1,133,271.53a41.67,41.67,0,0,1,4.21-10.77A39.62,39.62,0,0,1,153.13,244.92Z" transform="translate(-0.39)"/><path class="cls-22" d="M126.33,218.12a114.11,114.11,0,0,0-7.57,14,123.54,123.54,0,0,0-5.69,14.72,104,104,0,0,0-4.85,30.79,96.26,96.26,0,0,0,5.11,30.68,136,136,0,0,0,14,28.35,93.8,93.8,0,0,1-17.22-27.16,84.52,84.52,0,0,1-6.29-31.87,90.35,90.35,0,0,1,6-31.91,96.89,96.89,0,0,1,7-14.59A77.39,77.39,0,0,1,126.33,218.12Z" transform="translate(-0.39)"/><path class="cls-23" d="M322.4,186.07a37.37,37.37,0,0,1,10.68,11.11,54.66,54.66,0,0,1,6.34,14.2,70.83,70.83,0,0,1,1.9,30.52c-1-5-1.74-10-2.7-14.88s-2-9.71-3.4-14.42a92.39,92.39,0,0,0-5.13-13.75A76.32,76.32,0,0,0,322.4,186.07Z" transform="translate(-0.39)"/><path class="cls-24" d="M316.82,145.59a83.45,83.45,0,0,1,22.11,14.16,81.95,81.95,0,0,1,25.86,45.5A93.23,93.23,0,0,1,366,231.48,177.66,177.66,0,0,0,361.47,206a103,103,0,0,0-9.68-23.49,101.9,101.9,0,0,0-15.22-20.33A140.89,140.89,0,0,0,316.82,145.59Z" transform="translate(-0.39)"/><path class="cls-25" d="M364.16,304.52a40.82,40.82,0,0,0,5.92-1.72,30.29,30.29,0,0,0,5.43-2.55l1.27-.75a10.76,10.76,0,0,0,1.25-.77l2.36-1.68c.74-.61,1.45-1.27,2.16-1.88l.54-.47.48-.52c.33-.35.64-.71,1-1s.69-.62,1-.93.69-.62,1-.94a14.19,14.19,0,0,0,1.94-2l.89-1.07a8.08,8.08,0,0,0,.85-1.1c.52-.78,1.07-1.53,1.57-2.32A34.17,34.17,0,0,0,396,274.45a32.88,32.88,0,0,0,.61-11.1,36.17,36.17,0,0,0-3.05-10.71,34.09,34.09,0,0,0-15.32-15.71,34.88,34.88,0,0,0-10.62-3.3l-1.39-.17a9.2,9.2,0,0,0-1.39-.11l-2.79-.06-2.78.21c-.93.06-1.84.31-2.76.44a33.41,33.41,0,0,0-19,11c-.58.73-1.24,1.39-1.75,2.17l-1.58,2.31-1.35,2.44c-.45.82-.76,1.71-1.15,2.55a20.58,20.58,0,0,0-.94,2.63l-.43,1.33-.3,1.37a16.07,16.07,0,0,0-.49,2.74c0,.47-.05.93-.1,1.4s-.16.91-.21,1.38a34.23,34.23,0,0,0-.34,11.49A30.89,30.89,0,0,0,330,282.6a38.8,38.8,0,0,0,2.16,5.77,33.38,33.38,0,0,1-7-10.63l-.66-1.51c-.22-.5-.34-1-.52-1.56l-.49-1.58a12.69,12.69,0,0,1-.42-1.61l-.66-3.3-.32-3.37a13.12,13.12,0,0,1,.32-3.36,31.36,31.36,0,0,1,.64-3.32l.37-1.65c.15-.54.34-1.07.51-1.61a28,28,0,0,1,1.13-3.18c.47-1,.86-2.08,1.39-3.07l1.64-3,1.9-2.79c.64-.93,1.42-1.75,2.13-2.63a40.4,40.4,0,0,1,23-13.25c1.11-.18,2.21-.45,3.34-.54l3.37-.25,3.38.07a11.91,11.91,0,0,1,1.69.13l1.67.21a41.94,41.94,0,0,1,12.85,4,41.19,41.19,0,0,1,18.53,19,43.15,43.15,0,0,1,3.69,12.93,40.21,40.21,0,0,1-.74,13.44,41.53,41.53,0,0,1-5,12.49c-.6.95-1.26,1.86-1.89,2.8a11.94,11.94,0,0,1-1,1.34l-1.08,1.29a33.59,33.59,0,0,1-2.3,2.48c-.39.41-.76.83-1.16,1.23a10.43,10.43,0,0,1-1.34,1,36.59,36.59,0,0,1-12.22,5.23A33.46,33.46,0,0,1,364.16,304.52Z" transform="translate(-0.39)"/><path class="cls-26" d="M332.66,289.52a17.05,17.05,0,0,1,1.69-9.24,18.73,18.73,0,0,1,6.52-7.38,18,18,0,0,1,4.56-2.21l1.22-.4,1.25-.27a20,20,0,0,1,2.55-.35,20.25,20.25,0,0,1,17.9,8.54c.47.72.93,1.45,1.33,2.2a17.44,17.44,0,0,1,1,2.35,18.29,18.29,0,0,1,1.14,4.94,18.75,18.75,0,0,1-1.63,9.71,17.24,17.24,0,0,1-6.14,7.13v0h.09l-.09,0h0a0,0,0,0,1,0,0h0a21.32,21.32,0,0,0,3.67-8,18.49,18.49,0,0,0,0-8.21,18.1,18.1,0,0,0-3.41-7.12,16.81,16.81,0,0,0-2.78-2.75,16.39,16.39,0,0,0-3.3-2.08,17.59,17.59,0,0,0-7.56-1.7,16.31,16.31,0,0,0-2,.14l-1,.12-1,.22A16.2,16.2,0,0,0,343,276.5,19.77,19.77,0,0,0,332.66,289.52Z" transform="translate(-0.39)"/><path class="cls-27" d="M172.48,392.65a33.36,33.36,0,0,1-11.1,6.27,36.7,36.7,0,0,1-13.12,2.1,10.52,10.52,0,0,1-1.69-.16c-.55-.13-1.1-.29-1.64-.43a32.72,32.72,0,0,1-3.27-.86l-1.61-.52a12.48,12.48,0,0,1-1.58-.59c-1-.45-2.08-.87-3.1-1.35a41.17,41.17,0,0,1-10.89-7.89,40.2,40.2,0,0,1-7.81-11,43.5,43.5,0,0,1-3.79-12.91,41.21,41.21,0,0,1,5.52-26,42.17,42.17,0,0,1,8.73-10.24l1.31-1.07a12.16,12.16,0,0,1,1.35-1l2.82-1.86,3-1.59c1-.53,2.07-.88,3.1-1.33a40.48,40.48,0,0,1,26.52-1.07c1.06.37,2.16.64,3.19,1.09l3.1,1.34,3,1.63c1,.55,1.87,1.24,2.81,1.86a26.77,26.77,0,0,1,2.66,2.08c.43.36.87.72,1.29,1.09l1.2,1.2c.79.79,1.59,1.59,2.31,2.46a14.46,14.46,0,0,1,2.07,2.67l1.52,3,1.21,3.13a14,14,0,0,1,.5,1.59l.43,1.6c.13.54.31,1,.4,1.6l.24,1.62a33.58,33.58,0,0,1-.24,12.73,38.75,38.75,0,0,0-1.26-6,30.7,30.7,0,0,0-2.14-5.6,34.28,34.28,0,0,0-6.43-9.54c-.29-.36-.62-.69-.91-1.06s-.55-.75-.83-1.12a17.47,17.47,0,0,0-1.88-2.06l-1-1-1.08-.9a21.65,21.65,0,0,0-2.2-1.72c-.78-.51-1.51-1.09-2.33-1.54L168.39,330l-2.56-1.11c-.86-.38-1.77-.59-2.65-.9a33.34,33.34,0,0,0-21.92.89c-.85.38-1.75.65-2.56,1.1l-2.47,1.3-2.33,1.55a10.14,10.14,0,0,0-1.12.83l-1.08.89a35.26,35.26,0,0,0-7.22,8.46,34.07,34.07,0,0,0-4.56,21.47,36.27,36.27,0,0,0,3.14,10.68,33.07,33.07,0,0,0,6.44,9.06,34.18,34.18,0,0,0,9,6.52c.84.4,1.71.74,2.56,1.12a8.59,8.59,0,0,0,1.31.49l1.33.42a14.71,14.71,0,0,0,2.71.67c.46.08.92.14,1.37.23s.92.12,1.38.24.9.23,1.36.35l.69.18.7.11c.94.14,1.88.32,2.84.44l2.89.16a10.13,10.13,0,0,0,1.46,0l1.48,0a30.94,30.94,0,0,0,6-.74A41.52,41.52,0,0,0,172.48,392.65Z" transform="translate(-0.39)"/><path class="cls-28" d="M191.11,363.14a19.78,19.78,0,0,0-15.67-5.5,16.13,16.13,0,0,0-3.9.89l-.94.34-.9.42a14.4,14.4,0,0,0-1.73.93,17.51,17.51,0,0,0-5.49,5.48,16.41,16.41,0,0,0-1.68,3.51,17,17,0,0,0-.88,3.81,18.35,18.35,0,0,0,.91,7.85,18.74,18.74,0,0,0,4.37,6.95,21.5,21.5,0,0,0,7.36,4.78h0s0,0,0,0h0l-.09,0,.07,0v0a17.17,17.17,0,0,1-9-2.76,18.79,18.79,0,0,1-6.57-7.33,18.41,18.41,0,0,1-1.67-4.79,18.12,18.12,0,0,1-.39-2.54c-.06-.85-.06-1.71,0-2.57a20.26,20.26,0,0,1,10.57-16.78,21.28,21.28,0,0,1,2.34-1.06l1.21-.44,1.24-.32a17.85,17.85,0,0,1,5-.56,18.7,18.7,0,0,1,9.44,2.76A17.1,17.1,0,0,1,191.11,363.14Z" transform="translate(-0.39)"/><path class="cls-29" d="M268,145.36a5.65,5.65,0,0,1,.88,3.19,7.53,7.53,0,0,1-.21,1.7,10.55,10.55,0,0,1-.49,1.66,16.08,16.08,0,0,1-3.88,5.57,24.85,24.85,0,0,1-11.85,6.1,28.26,28.26,0,0,1-13.25,0,14.22,14.22,0,0,1-1.64-.53l-.8-.31-.79-.4a12.43,12.43,0,0,1-1.51-.92,7.69,7.69,0,0,1-.7-.58,3.93,3.93,0,0,1-.65-.64c-.2-.24-.41-.46-.58-.71l-.47-.81a5,5,0,0,1-.5-1.69c-.13-1.09-.24-2.15-.29-3.21.57.92,1.07,1.84,1.56,2.74a4.66,4.66,0,0,0,.8,1.11l.49.42c.17.13.38.23.55.35a12.69,12.69,0,0,0,5.24,1.41,38.77,38.77,0,0,0,11.46-1,37.46,37.46,0,0,0,5.48-1.67,26.46,26.46,0,0,0,5-2.63,18.54,18.54,0,0,0,4.22-3.78A7.54,7.54,0,0,0,268,145.36Z" transform="translate(-0.39)"/><path class="cls-30" d="M172.59,150.34a11.45,11.45,0,0,1,3.49.55,7.67,7.67,0,0,1,3.23,2.06,6,6,0,0,1,1.44,4,8.25,8.25,0,0,1-1.21,4,13.4,13.4,0,0,1-1.1,1.64c-.41.49-.83,1-1.28,1.43a20.71,20.71,0,0,1-2.87,2.38,29.94,29.94,0,0,1-6.45,3.34,30.78,30.78,0,0,1-7,1.76,27.07,27.07,0,0,1-7.25-.09,20.35,20.35,0,0,1-6.89-2.28c-.51-.35-1-.63-1.52-1-.24-.19-.48-.37-.71-.57s-.44-.44-.65-.66a6.3,6.3,0,0,1-1.65-3.15,9.44,9.44,0,0,0,5.45,3.2,24.91,24.91,0,0,0,6.26.66,33.26,33.26,0,0,0,6.23-.65l1.53-.33,1.5-.42c1-.3,2-.62,3-1a34.68,34.68,0,0,0,5.65-2.64,17,17,0,0,0,4.58-3.69c1.21-1.44,1.7-2.94,1-4.58a6.29,6.29,0,0,0-1.91-2.23A17.84,17.84,0,0,0,172.59,150.34Z" transform="translate(-0.39)"/><path class="cls-31" d="M192.93,158.45a11.69,11.69,0,0,1-7.56.16,8.23,8.23,0,0,1-3.71-2.43,6.55,6.55,0,0,1-.73-1,9.07,9.07,0,0,1-.51-1.13,5.89,5.89,0,0,1-.32-1.13,6.58,6.58,0,0,1-.17-1.18,8,8,0,0,1,1.15-4.58,9.67,9.67,0,0,1,3-3,12.78,12.78,0,0,1,7.22-2.07c-1.73,1.83-3.44,3.35-4.68,4.95a9,9,0,0,0-1.43,2.31,4.43,4.43,0,0,0-.36,2.1,2.44,2.44,0,0,0,0,.53,2.65,2.65,0,0,0,.13.54,3.68,3.68,0,0,0,.14.48c.07.13.12.28.21.42a6.34,6.34,0,0,0,1.72,1.79A43.38,43.38,0,0,0,192.93,158.45Z" transform="translate(-0.39)"/><path class="cls-32" d="M228.65,158.51a4.69,4.69,0,0,1,.77,3.05,8.5,8.5,0,0,1-1,3.14,16.33,16.33,0,0,1-4.25,4.79,26.83,26.83,0,0,1-5.37,3.24,32.87,32.87,0,0,1-5.86,2.06,28.66,28.66,0,0,1-12.44.48,15.56,15.56,0,0,1-6-2.41,7.8,7.8,0,0,1-2.26-2.42,7.21,7.21,0,0,1-.36-.74l-.23-.78c-.07-.27-.06-.46-.15-.71s.07-.58.15-.81c0,.24,0,.54.18.62s.34.45.5.61l.44.52c.15.16.35.29.51.43a2.65,2.65,0,0,0,.55.37c.19.11.36.23.56.33a8.63,8.63,0,0,0,1.23.46,18.84,18.84,0,0,0,5.27.73,43.85,43.85,0,0,0,10.83-1.41,48.15,48.15,0,0,0,10.31-3.76,19.58,19.58,0,0,0,4.43-3,7.54,7.54,0,0,0,1.62-2.06A5.1,5.1,0,0,0,228.65,158.51Z" transform="translate(-0.39)"/><path class="cls-33" d="M228.65,158.51c-.46-1.68-1-3.33-1.53-5s-1.12-3.24-1.77-4.83a90.71,90.71,0,0,0-4.23-9.22,58.48,58.48,0,0,0-10.07-17A39.68,39.68,0,0,0,186,108.78a51.18,51.18,0,0,0-9.83-.41,57.39,57.39,0,0,0-19.22,4.24,27.71,27.71,0,0,0-14,12.29c-3,5.56-3.8,12.2-3.29,18.72a70.7,70.7,0,0,0,2.54,20.15A59.35,59.35,0,0,1,134.77,144a45.56,45.56,0,0,1,.37-10.87,33.65,33.65,0,0,1,3.47-10.52,30.4,30.4,0,0,1,7-8.7,35.9,35.9,0,0,1,9.38-5.77c.84-.35,1.68-.71,2.52-1l2.58-.83,1.29-.42,1.31-.32,2.61-.62c1.75-.37,3.51-.61,5.27-.92,1.77-.16,3.55-.38,5.33-.49a55.65,55.65,0,0,1,10.78.46,44.46,44.46,0,0,1,28.05,15.36,65.09,65.09,0,0,1,11,18.34A71.93,71.93,0,0,1,228.65,158.51Z" transform="translate(-0.39)"/><path class="cls-34" d="M191.69,167.4a67.47,67.47,0,0,0-.55-20.63c-1.31-6.64-4.11-13-8.89-17.57a29,29,0,0,0-8.12-5.61c-.75-.37-1.54-.64-2.31-1-.39-.15-.78-.32-1.17-.46l-1.21-.37c-.81-.24-1.61-.51-2.43-.72l-2.49-.56c-6.68-1.41-13.67-1.51-20.68-1.39A60.75,60.75,0,0,1,165,118l2.66.4c.88.17,1.75.43,2.63.65l1.31.34c.43.13.86.3,1.29.44.85.32,1.72.59,2.56,1a31.11,31.11,0,0,1,9.13,6.09,30.17,30.17,0,0,1,6.24,9,37.16,37.16,0,0,1,2.86,10.45,48.94,48.94,0,0,1,.16,10.68A48.34,48.34,0,0,1,191.69,167.4Z" transform="translate(-0.39)"/><path class="cls-35" d="M169.5,120.28a37.86,37.86,0,0,0-1.77,4.19,15.54,15.54,0,0,0-2.11,3.42,12.87,12.87,0,0,0-.8,7.7,18.6,18.6,0,0,0,3.41,7.35l.59.86.69.8c.45.55.93,1.06,1.38,1.61.62,1.36,1.35,2.69,2,4.21a33.51,33.51,0,0,1-4.36-2c-.51-.57-1-1.18-1.5-1.76l-.75-.88-.67-1a21.83,21.83,0,0,1-4-8.61,16.17,16.17,0,0,1,1-9.63,21,21,0,0,1,2.49-4.13A14.13,14.13,0,0,1,169.5,120.28Z" transform="translate(-0.39)"/><path class="cls-36" d="M268.1,145.65a114.63,114.63,0,0,0-3.49-13.51,11.77,11.77,0,0,1-.29-1.66c-.08-.56-.2-1.11-.31-1.66-.26-1.09-.49-2.19-.8-3.27a51.82,51.82,0,0,0-2.12-6.34,45.37,45.37,0,0,0-2.91-5.94,37.15,37.15,0,0,0-3.82-5.3,30.19,30.19,0,0,0-10.26-7.7,35.56,35.56,0,0,0-12.66-3c-1.1,0-2.21-.1-3.32-.11l-3.34.12c-2.23.2-4.46.4-6.68.78a50.69,50.69,0,0,0-12.74,3.78,34.31,34.31,0,0,0-12.15,6,29.82,29.82,0,0,1,10.1-10.47,55.2,55.2,0,0,1,14-4.16c2.37-.41,4.78-.63,7.19-.85l3.64-.12c1.21,0,2.44.07,3.66.11a40.32,40.32,0,0,1,14.35,3.47A35.08,35.08,0,0,1,258,104.77a41.76,41.76,0,0,1,4.34,6,50.85,50.85,0,0,1,3.23,6.59,68.12,68.12,0,0,1,3.86,14A59.4,59.4,0,0,1,268.1,145.65Z" transform="translate(-0.39)"/><path class="cls-37" d="M231.28,153.8a72.7,72.7,0,0,0,2.67-9.56,58.31,58.31,0,0,0,1.31-9.68,33.42,33.42,0,0,0-.84-9.46,19.36,19.36,0,0,0-4.06-8.17,19.74,19.74,0,0,0-7.42-5.37,37.2,37.2,0,0,0-9.17-2.63c-1.59-.32-3.23-.38-4.85-.61s-3.27-.21-4.92-.26l-5,0c-1.65,0-3.32.08-5,.1,1.63-.36,3.27-.69,4.91-1s3.32-.44,5-.66,3.36-.19,5.05-.28l2.54.07c.85,0,1.7,0,2.55.15l2.55.29c.85.11,1.69.34,2.53.5l1.27.28,1.24.39,1.25.4.62.2.61.26a22.46,22.46,0,0,1,8.67,6.09,22,22,0,0,1,4.58,9.58,32.56,32.56,0,0,1,.37,10.36,47.83,47.83,0,0,1-2.3,9.9A46.44,46.44,0,0,1,231.28,153.8Z" transform="translate(-0.39)"/><path class="cls-38" d="M219.19,108.64c-.65,1-1.34,1.81-2,2.66l-2,2.52c-.67.83-1.33,1.67-2,2.53l-2,2.67a9.07,9.07,0,0,1,.87-3.32,13,13,0,0,1,1.82-2.9,15.56,15.56,0,0,1,2.41-2.39A11.56,11.56,0,0,1,219.19,108.64Z" transform="translate(-0.39)"/><path class="cls-39" d="M87.14,252.13a113,113,0,0,0-25-13.23l-1.66-.59-1.69-.5a33.89,33.89,0,0,0-3.4-.87,33.21,33.21,0,0,0-3.43-.59l-3.59-.54a29.33,29.33,0,0,1-7-2.31,26,26,0,0,1-3.24-1.85c-.51-.37-1-.78-1.49-1.16l-.73-.59-.66-.67a21.14,21.14,0,0,1-4.38-6.13l-.76-1.74c-.24-.58-.39-1.19-.58-1.79a27.4,27.4,0,0,1-.83-3.67,38.19,38.19,0,0,1,1-14.76l.48-1.8c.19-.59.42-1.18.64-1.77a25.84,25.84,0,0,1,1.53-3.46A23,23,0,0,1,37,188a20,20,0,0,1,6.75-4,23.08,23.08,0,0,1,7.66-1.26l-.9.2a4.42,4.42,0,0,0,.54-.37,3.33,3.33,0,0,0,.5-.49,1.8,1.8,0,0,0,.43-.92,2.13,2.13,0,0,0-.24-1.05c0-.09-.1-.22-.14-.3s-.07-.11-.16-.22a7.39,7.39,0,0,0-.57-.62,39,39,0,0,0-3.24-2.74l-3.57-2.78a57.64,57.64,0,0,1-7-6.27A20.2,20.2,0,0,1,34,163,11.19,11.19,0,0,1,33,160.29a9.28,9.28,0,0,1-.21-3.17,22.12,22.12,0,0,0-.5-8,18.11,18.11,0,0,0-1.36-3.68c-.14-.28-.29-.54-.43-.77s-.15-.23-.21-.29l-.07-.11s0,0,0,0-.24-.24-.32-.36a3.51,3.51,0,0,1-.28-.4,5.44,5.44,0,0,1-.27-.5,8.17,8.17,0,0,1-.31-.76c-.16-.44-.3-.87-.41-1.28a31.34,31.34,0,0,1-1.06-9.89,18.64,18.64,0,0,1,1.06-5.24,10.58,10.58,0,0,1,3.64-4.92l.34-.23.11-.08.06,0a2.15,2.15,0,0,0,.24-.18,3,3,0,0,0,.39-.41A4.79,4.79,0,0,0,34,118.8a18.54,18.54,0,0,0,.76-3.75c.36-2.88.7-6.38,2.41-9.72a15.13,15.13,0,0,1,3.38-4.44,20.39,20.39,0,0,1,4.4-3c2.66-1.38,5.33-2.81,8.08-4.18a79.63,79.63,0,0,1,8.6-3.8,42.24,42.24,0,0,1,9.49-2.34,37.15,37.15,0,0,1,4.95-.27c.82,0,1.64.07,2.46.11l2.17.13a65,65,0,0,0,8.6-.15A47,47,0,0,0,97.61,86a19.58,19.58,0,0,0,6.88-3.1l.59-.52c.18-.18.3-.37.46-.54l.12-.13,0-.06.13-.16.52-.62a7.31,7.31,0,0,1,1.13-1.16,11.34,11.34,0,0,1,1.25-1l1.32-.79a17.51,17.51,0,0,1,2.69-1,22,22,0,0,1,5.24-.86,35.69,35.69,0,0,1,5,.06c1.63.11,3.21.31,4.78.56s3.52.63,3.54.54,0,0,.18-.09a10.15,10.15,0,0,0,1-1.21,16.85,16.85,0,0,1,1.89-2.07A11,11,0,0,1,137.15,72c.51-.23,1-.39,1.54-.58s1-.23,1.52-.34c.73-.12,1.38-.24,2.09-.39,1.39-.29,2.78-.63,4.16-1a56.13,56.13,0,0,0,8-2.87,29,29,0,0,0,6.86-4.17,11,11,0,0,0,3.79-5.53,4,4,0,0,0,.14-.75l.06-.39,0-.56.19-2.24c.12-1.51.28-3.06.44-4.61a64.29,64.29,0,0,1,1.8-9.44A43.16,43.16,0,0,1,171.59,30a37.23,37.23,0,0,1,6.07-7.87A49.15,49.15,0,0,1,194,11.72c3-1.27,5.85-2.19,8.79-3.14s5.88-1.77,8.84-2.56q8.91-2.34,18-3.84a164.83,164.83,0,0,1,18.34-2,96.79,96.79,0,0,1,18.68.7A54.74,54.74,0,0,1,276,3.05a30.47,30.47,0,0,1,8.86,4.64c.67.56,1.32,1.14,2,1.72s1.2,1.29,1.75,2,1.07,1.48,1.48,2.17l1.16,2.06a53.8,53.8,0,0,1,3.94,8.69A32.06,32.06,0,0,1,297,34a21.41,21.41,0,0,1-2,10,22.54,22.54,0,0,1-1.26,2.26c-.23.34-.47.71-.7,1l-.17.24c-.05.07-.16.21-.12.18s0,0,0,0a1.75,1.75,0,0,0,0,.83,5.9,5.9,0,0,0,.47,1.47,16.13,16.13,0,0,0,5.07,5.74,24.11,24.11,0,0,0,3.52,2.14,19.15,19.15,0,0,0,1.89.87,16.84,16.84,0,0,0,1.89.71,28.57,28.57,0,0,0,8.28,1c1.48,0,3,0,4.63.11a15,15,0,0,1,5.17,1.1,9,9,0,0,1,2.49,1.66,10,10,0,0,1,1.75,2.36,16.75,16.75,0,0,1,1.46,4.94,87.32,87.32,0,0,0,4.22,17.14,20.71,20.71,0,0,0,4.3,7.05,11.28,11.28,0,0,0,1.52,1.18l.4.26.5.3,1,.61c.66.41,1.36.78,2,1.24l1.91,1.38a33.79,33.79,0,0,1,6.64,6.66,32.18,32.18,0,0,1,4.44,8.29,38.14,38.14,0,0,1,1.33,18.37,56.6,56.6,0,0,1-5.78,17.29,53.86,53.86,0,0,1-4.86,7.69,31.48,31.48,0,0,1-3,3.4,12.23,12.23,0,0,1-3.67,2.63,12,12,0,0,0,3.51-2.79,30.64,30.64,0,0,0,2.81-3.51,52.35,52.35,0,0,0,4.42-7.82A57,57,0,0,0,355.9,133,36.72,36.72,0,0,0,354,115.65a29.79,29.79,0,0,0-10.63-13.36l-1.8-1.21c-.6-.41-1.26-.72-1.89-1.09l-.95-.53-.48-.27-.56-.34a13.17,13.17,0,0,1-2.1-1.51,23.37,23.37,0,0,1-5.37-8.09c-2.46-5.82-3.74-11.85-4.93-17.81-.07-.38-.14-.74-.22-1a6.8,6.8,0,0,0-.24-.94,9.62,9.62,0,0,0-.69-1.69,5.53,5.53,0,0,0-1-1.24,4.84,4.84,0,0,0-1.28-.79,11,11,0,0,0-3.67-.62c-1.39,0-2.87,0-4.41,0a33.24,33.24,0,0,1-9.63-1,18.33,18.33,0,0,1-2.37-.82,21,21,0,0,1-2.23-1,29.29,29.29,0,0,1-4.26-2.47,21,21,0,0,1-6.85-7.62,11.12,11.12,0,0,1-.93-2.82,6.89,6.89,0,0,1,.27-3.62c.16-.34.33-.68.52-1a2,2,0,0,1,.19-.29l.15-.22c.21-.3.36-.57.55-.85a17.58,17.58,0,0,0,.91-1.71c2.16-4.65,1.54-10.31-.4-15.54a47.46,47.46,0,0,0-3.68-7.69L285,16.65c-.36-.59-.73-1-1.09-1.55s-.85-.92-1.27-1.38l-1.46-1.24C277,9.34,271.35,7.83,265.72,7a90.45,90.45,0,0,0-17.44-.43A156.21,156.21,0,0,0,230.7,8.76c-5.84,1-11.62,2.36-17.36,3.87-2.86.78-5.7,1.6-8.52,2.5s-5.66,1.86-8.23,3a42.36,42.36,0,0,0-14,9,30.65,30.65,0,0,0-4.93,6.42A36.42,36.42,0,0,0,174.57,41,55.85,55.85,0,0,0,173,49.36c-.15,1.45-.3,2.9-.41,4.4L172.44,56l-.05.57-.09.73a10.44,10.44,0,0,1-.28,1.46,15.36,15.36,0,0,1-2.42,5.28,21.67,21.67,0,0,1-3.69,4,36,36,0,0,1-8.55,5.2,62.68,62.68,0,0,1-9,3.21c-1.53.42-3.07.79-4.63,1.11l-2.36.43-.69.14c-.19.09-.4.14-.58.22a5.81,5.81,0,0,0-2.13,1.93,15.71,15.71,0,0,1-2,2.15,7.35,7.35,0,0,1-3.9,1.69c-.34,0-.67,0-1,.05a8.23,8.23,0,0,1-.9-.07l-.82-.11-.54-.1c-.72-.14-1.43-.27-2.14-.37-1.42-.23-2.83-.41-4.21-.51a27.84,27.84,0,0,0-4.07-.07,14.85,14.85,0,0,0-3.67.57,10.15,10.15,0,0,0-1.53.57c-.2.13-.41.26-.62.37a4.45,4.45,0,0,0-.53.42,1.75,1.75,0,0,0-.45.45l-.21.23-.06.07-.12.15-.25.3c-.34.39-.67.82-1,1.17l-1.11,1A20.12,20.12,0,0,1,104.12,91a32.78,32.78,0,0,1-4.77,1.63,53.51,53.51,0,0,1-9.52,1.5,73.31,73.31,0,0,1-9.49.06L78,94c-.68,0-1.37-.1-2-.12a31,31,0,0,0-4.08.18c-5.43.57-10.73,2.72-16,5.32-2.66,1.29-5.33,2.68-8,4a10.86,10.86,0,0,0-5.2,4.72c-1.12,2.05-1.48,4.68-1.91,7.74a22.56,22.56,0,0,1-1.2,5.07,10,10,0,0,1-1.6,2.74,9.64,9.64,0,0,1-1.2,1.19c-.22.18-.45.33-.68.49l-.42.29a4.74,4.74,0,0,0-1.66,2.25,12.81,12.81,0,0,0-.77,3.58,25.76,25.76,0,0,0,.7,8.05c.08.31.17.61.26.87,0,.11.09.25.11.29s0,0,0,0l-.12-.16c0-.06-.29-.3-.14-.15s.27.29.4.44l.26.35c.18.24.29.43.42.64.25.42.47.81.66,1.21a23.41,23.41,0,0,1,1.68,4.82,27.33,27.33,0,0,1,.44,9.95c-.31,1.58,1.07,4,2.9,6a58.88,58.88,0,0,0,6.33,5.9l3.5,2.87a42.5,42.5,0,0,1,3.57,3.2,10.51,10.51,0,0,1,.92,1.09,6.43,6.43,0,0,1,.47.72c.13.25.22.48.33.72a6.26,6.26,0,0,1,.48,3.36,6,6,0,0,1-1.48,3.12,7.55,7.55,0,0,1-1.14,1.06,7.88,7.88,0,0,1-1.35.84,2,2,0,0,1-.9.2,19,19,0,0,0-6.37.85,16.17,16.17,0,0,0-5.48,3.09,19.5,19.5,0,0,0-4,5,24.29,24.29,0,0,0-1.43,3c-.2.52-.43,1-.62,1.56L33,202.06a34.94,34.94,0,0,0-1.43,13.45,24.18,24.18,0,0,0,.63,3.29c.16.54.27,1.09.46,1.61l.62,1.55A18.79,18.79,0,0,0,37,227.49l.57.62.64.54c.43.36.84.74,1.28,1.08a23,23,0,0,0,2.88,1.78,27.37,27.37,0,0,0,6.4,2.4l3.44.66a35,35,0,0,1,3.55.76c1.17.31,2.34.62,3.47,1l1.71.59,1.67.67a90.5,90.5,0,0,1,12.77,6.47A128.25,128.25,0,0,1,87.14,252.13Z" transform="translate(-0.39)"/><path class="cls-40" d="M202.24,44.68a60.21,60.21,0,0,1,6,8.58A103,103,0,0,1,213,62.4,100.58,100.58,0,0,1,216.86,72a60.05,60.05,0,0,1,2.61,10.14,59.49,59.49,0,0,1-6-8.58,100.32,100.32,0,0,1-4.76-9.14,101.66,101.66,0,0,1-3.85-9.57A60.55,60.55,0,0,1,202.24,44.68Z" transform="translate(-0.39)"/><path class="cls-41" d="M263.3,43.37a60.08,60.08,0,0,1-.33,10.5c-.38,3.44-.94,6.85-1.65,10.22a103.19,103.19,0,0,1-2.65,10,61,61,0,0,1-4,9.73A59.21,59.21,0,0,1,255,73.32a105,105,0,0,1,4.32-20.23A60,60,0,0,1,263.3,43.37Z" transform="translate(-0.39)"/><path class="cls-42" d="M268.21,101.73a53.37,53.37,0,0,1,8.16-5.51A89.37,89.37,0,0,1,285.05,92a87.32,87.32,0,0,1,9.09-3.33,52.2,52.2,0,0,1,9.62-2.07,53.29,53.29,0,0,1-8.15,5.51,90.68,90.68,0,0,1-8.69,4.26,93,93,0,0,1-9.09,3.32A54.1,54.1,0,0,1,268.21,101.73Z" transform="translate(-0.39)"/><path class="cls-43" d="M99,27.55c3,1.22,6,2.53,8.89,3.87s5.86,2.7,8.76,4.12,5.79,2.83,8.66,4.3,5.74,2.93,8.58,4.44a1.74,1.74,0,0,1,.72,2.36,1.67,1.67,0,0,1-.88.8h0c-2,.83-4.06,1.67-6.11,2.46l-6.15,2.39-6.18,2.29c-2.05.78-4.14,1.47-6.21,2.21L109,54.37c1.38.53,2.74,1.08,4.11,1.63s2.73,1.1,4.08,1.68c2.72,1.14,5.43,2.31,8.1,3.58-2.89-.62-5.75-1.34-8.6-2.08-1.43-.36-2.85-.77-4.27-1.15s-2.84-.78-4.25-1.2a1.27,1.27,0,0,1-.15-2.39l.09,0c2-.89,4-1.83,6-2.68l6.06-2.59,6.1-2.5c2-.85,4.08-1.63,6.13-2.43l-.18,3.16q-4.24-2.3-8.45-4.69c-2.81-1.57-5.6-3.2-8.37-4.84s-5.53-3.32-8.28-5S101.7,29.37,99,27.55Z" transform="translate(-0.39)"/><path class="cls-44" d="M.39,138.06q2.61,2.85,5.14,5.76c1.67,2,3.37,3.89,5,5.87s3.31,3.93,4.93,5.92,3.26,4,4.86,6l-2.26-.19,6.49-6.25L31.13,149c2.18-2.07,4.41-4.08,6.62-6.11s4.43-4.06,6.68-6l.06,0a1.61,1.61,0,0,1,2.28.14,1.78,1.78,0,0,1,.28.45c1.12,2.7,2.29,5.38,3.38,8.1s2.22,5.42,3.27,8.15c2.14,5.45,4.21,10.94,6.11,16.5C57,165,54.26,159.8,51.66,154.55c-1.33-2.61-2.57-5.26-3.86-7.89s-2.5-5.29-3.75-7.94l2.61.54c-2.15,2.09-4.35,4.14-6.54,6.19s-4.36,4.12-6.59,6.13l-6.65,6.08-6.73,6,0,0a1.51,1.51,0,0,1-2.13-.13l-.09-.1c-1.52-2.07-3-4.18-4.49-6.26s-3-4.2-4.44-6.31-2.9-4.24-4.35-6.37S1.77,140.23.39,138.06Z" transform="translate(-0.39)"/><path class="cls-45" d="M326,106c.66,1.56,1.31,3.11,1.93,4.68s1.22,3.14,1.84,4.71l1.75,4.73c.6,1.58,1.15,3.17,1.7,4.75l-2.44-.28c1.56-3,3.17-5.89,4.79-8.82s3.3-5.83,4.95-8.74,3.39-5.78,5.08-8.66,3.48-5.72,5.22-8.59l0,0a1.52,1.52,0,0,1,2.47-.18c2.15,2.61,4.24,5.25,6.36,7.88s4.21,5.28,6.3,7.92,4.15,5.33,6.22,8,4.09,5.38,6.09,8.1q-3.52-3.65-7-7.35c-2.29-2.49-4.6-4.95-6.85-7.46s-4.55-5-6.78-7.52-4.49-5-6.71-7.58l2.5-.21c-1.63,2.92-3.2,5.88-4.89,8.77s-3.29,5.83-5,8.7-3.38,5.77-5.15,8.62-3.5,5.71-5.31,8.52l-.06.1a1.31,1.31,0,0,1-2.38-.37c-.43-1.63-.87-3.25-1.27-4.89l-1.21-4.9c-.38-1.64-.79-3.27-1.14-4.92S326.31,107.63,326,106Z" transform="translate(-0.39)"/><circle class="cls-46" cx="85.55" cy="154.1" r="2.97"/><ellipse class="cls-47" cx="93.92" cy="111.44" rx="3.23" ry="4.55"/><ellipse class="cls-48" cx="131.62" cy="99.81" rx="4.31" ry="2.02"/><ellipse class="cls-49" cx="344.91" cy="82.11" rx="3.23" ry="5.56"/><ellipse class="cls-50" cx="331.44" cy="29.51" rx="2.69" ry="2.53"/></g></g></svg>