<svg id="Layer_1" data-name="Layer 1" xmlns="http://www.w3.org/2000/svg" xmlns:xlink="http://www.w3.org/1999/xlink" viewBox="0 0 1922 293"><defs><style>.cls-1{fill:#041e42;}.cls-2{fill:none;}.cls-3{clip-path:url(#clip-path);}.cls-4{clip-path:url(#clip-path-2);}.cls-5{fill:#ff7500;}</style><clipPath id="clip-path"><rect class="cls-1" width="1922" height="293"/></clipPath><clipPath id="clip-path-2"><rect class="cls-2" x="1319" width="604" height="293"/></clipPath></defs><title>CTABanner-1</title><rect class="cls-1" width="1922" height="293"/><g class="cls-3"><rect class="cls-1" width="1922" height="293"/></g><g class="cls-4"><path class="cls-5" d="M1915.93,23.55a15.77,15.77,0,1,0,19.43,10.94A15.77,15.77,0,0,0,1915.93,23.55Z"/><path class="cls-5" d="M1892,55.54a15.77,15.77,0,1,0,19.43,10.94A15.77,15.77,0,0,0,1892,55.54Z"/><path class="cls-5" d="M1764.59,277.4a15.77,15.77,0,1,0-19.43-10.94A15.77,15.77,0,0,0,1764.59,277.4Z"/><path class="cls-5" d="M1740.68,309.39a15.76,15.76,0,1,0-19.43-10.93A15.77,15.77,0,0,0,1740.68,309.39Z"/><circle class="cls-5" cx="1870.98" cy="15" r="15.77" transform="translate(120.14 674.8) rotate(-21.11)"/><path class="cls-5" d="M1868.64,66.05a15.77,15.77,0,1,0-22-3.63A15.77,15.77,0,0,0,1868.64,66.05Z"/><path class="cls-5" d="M1788,266.85a15.77,15.77,0,1,0,22,3.63A15.78,15.78,0,0,0,1788,266.85Z"/><path class="cls-5" d="M1825.54-3.5a15.77,15.77,0,1,0,4.12,21.91A15.77,15.77,0,0,0,1825.54-3.5Z"/><path class="cls-5" d="M1827.79,36.38a15.77,15.77,0,1,0,4.11,21.91A15.76,15.76,0,0,0,1827.79,36.38Z"/><path class="cls-5" d="M1826.71,256.58a15.75,15.75,0,0,0,21.91-4.11,15.54,15.54,0,0,0,2.15-4.58,15.76,15.76,0,0,0,26.53-12.62,15.76,15.76,0,0,0,20.62-20.92,15.77,15.77,0,0,0,12.21-26.72,15.76,15.76,0,0,0,2.34-29.28,15.77,15.77,0,0,0-2.92-27,15.89,15.89,0,0,0-4.89-1.32,15.77,15.77,0,0,0-12-24.36,15.33,15.33,0,0,0-5,.43,15.77,15.77,0,0,0-24.19-16.67A15.77,15.77,0,0,0,1835,82a15.76,15.76,0,0,0-29.24,2.78,15.76,15.76,0,0,0-26.53,12.61,15.77,15.77,0,0,0-20.62,20.93,15.75,15.75,0,0,0-12.21,26.71,15.78,15.78,0,0,0-6.49,26.37,16,16,0,0,0,4.15,2.92,15.76,15.76,0,0,0,7.81,28.31,15.78,15.78,0,0,0,12,24.37,16,16,0,0,0,5.05-.43,15.76,15.76,0,0,0,19.59,18.8,16.14,16.14,0,0,0,4.6-2.13,15.77,15.77,0,0,0,28.43,7.39A15.72,15.72,0,0,0,1826.71,256.58Zm-26.79-28.2a17.12,17.12,0,0,0-.48-2.41,15.76,15.76,0,0,0-19-11,16.06,16.06,0,0,0,.38-2.42,15.77,15.77,0,0,0-14.11-16.88,15.33,15.33,0,0,0,1.18-2.15,15.76,15.76,0,0,0-7.48-20.68,16.32,16.32,0,0,0,1.84-1.61,15.76,15.76,0,0,0,0-22,15.77,15.77,0,0,0,9.85-21.54,16.79,16.79,0,0,0,2.45,0,15.76,15.76,0,0,0,14.17-16.83,15.09,15.09,0,0,0,2.32.79,15.75,15.75,0,0,0,19.07-11,16.07,16.07,0,0,0,1.91,1.54,15.77,15.77,0,0,0,21.67-3.78,15.24,15.24,0,0,0,1.27,2.1,15.76,15.76,0,0,0,21.65,3.86,17,17,0,0,0,.48,2.4,15.77,15.77,0,0,0,19,11,15.73,15.73,0,0,0,13.73,19.29,15.78,15.78,0,0,0,6.3,22.84,16.32,16.32,0,0,0-1.84,1.61,15.77,15.77,0,0,0,0,22,15.52,15.52,0,0,0-2.28.88,15.76,15.76,0,0,0-7.56,20.66,15.47,15.47,0,0,0-2.45,0,15.76,15.76,0,0,0-14.17,16.82,16.24,16.24,0,0,0-2.32-.79,15.76,15.76,0,0,0-19.07,11,16.84,16.84,0,0,0-1.91-1.53,15.76,15.76,0,0,0-21.67,3.77,15.54,15.54,0,0,0-1.27-2.09A15.76,15.76,0,0,0,1799.92,228.38Z"/><path class="cls-5" d="M1829,296.46a15.76,15.76,0,1,0-4.12-21.91A15.76,15.76,0,0,0,1829,296.46Z"/><path class="cls-5" d="M1732.68-17.67A15.76,15.76,0,0,0,1744,1.52a15.77,15.77,0,0,0,19.18-11.36A15.76,15.76,0,0,0,1751.86-29,15.77,15.77,0,0,0,1732.68-17.67Z"/><path class="cls-5" d="M1748.43,19a15.76,15.76,0,1,0,19.18-11.36A15.76,15.76,0,0,0,1748.43,19Z"/><path class="cls-5" d="M1764.18,55.74a15.76,15.76,0,1,0,19.18-11.36A15.76,15.76,0,0,0,1764.18,55.74Z"/><path class="cls-5" d="M1892.6,277a15.77,15.77,0,1,0-19.19,11.36A15.77,15.77,0,0,0,1892.6,277Z"/><path class="cls-5" d="M1648.15-3a15.76,15.76,0,0,0,17.24,14.14,15.76,15.76,0,0,0,14.14-17.23,15.77,15.77,0,0,0-17.24-14.15A15.78,15.78,0,0,0,1648.15-3Z"/><circle class="cls-5" cx="1691.19" cy="24.58" r="15.77" transform="translate(599.48 1316.44) rotate(-50.63)"/><path class="cls-5" d="M1720.1,69.37a15.77,15.77,0,1,0-17.24-14.14A15.77,15.77,0,0,0,1720.1,69.37Z"/><path class="cls-5" d="M1747.45,98.48a15.77,15.77,0,1,0-17.24-14.15A15.77,15.77,0,0,0,1747.45,98.48Z"/><path class="cls-5" d="M1909.33,234.2a15.77,15.77,0,1,0,17.24,14.14A15.77,15.77,0,0,0,1909.33,234.2Z"/><path class="cls-5" d="M1479.5,4.26a15.77,15.77,0,0,0,7.39-21,15.75,15.75,0,0,0-21-7.39,15.78,15.78,0,0,0-7.4,21A15.77,15.77,0,0,0,1479.5,4.26Z"/><path class="cls-5" d="M1515.16,22.25a15.77,15.77,0,1,0-21-7.39A15.75,15.75,0,0,0,1515.16,22.25Z"/><path class="cls-5" d="M1550.82,40.25a15.77,15.77,0,1,0-21-7.4A15.77,15.77,0,0,0,1550.82,40.25Z"/><path class="cls-5" d="M1586.47,58.24a15.77,15.77,0,1,0-21-7.4A15.78,15.78,0,0,0,1586.47,58.24Z"/><path class="cls-5" d="M1622.13,76.23a15.77,15.77,0,1,0-21-7.39A15.77,15.77,0,0,0,1622.13,76.23Z"/><circle class="cls-5" cx="1650.97" cy="80.01" r="15.77" transform="translate(1027.98 1611.02) rotate(-70.63)"/><path class="cls-5" d="M1672.42,104.82a15.76,15.76,0,1,0,7.39-21A15.77,15.77,0,0,0,1672.42,104.82Z"/><path class="cls-5" d="M1736.5,109.18a15.77,15.77,0,1,0-7.39,21A15.77,15.77,0,0,0,1736.5,109.18Z"/><path class="cls-5" d="M1920.26,223.42a15.77,15.77,0,1,0,7.39-21A15.75,15.75,0,0,0,1920.26,223.42Z"/><path class="cls-5" d="M1445.09,133.32a15.77,15.77,0,1,0-22.29.25A15.76,15.76,0,0,0,1445.09,133.32Z"/><path class="cls-5" d="M1484.75,138a15.77,15.77,0,1,0-22.29.25A15.76,15.76,0,0,0,1484.75,138Z"/><path class="cls-5" d="M1501.88,120.7a15.77,15.77,0,1,0,22.29-.25A15.76,15.76,0,0,0,1501.88,120.7Z"/><path class="cls-5" d="M1541.54,125.41a15.77,15.77,0,1,0,22.29-.25A15.76,15.76,0,0,0,1541.54,125.41Z"/><path class="cls-5" d="M1603.74,152.17a15.77,15.77,0,1,0-22.29.25A15.77,15.77,0,0,0,1603.74,152.17Z"/><path class="cls-5" d="M1620.86,134.83a15.77,15.77,0,1,0,22.3-.24A15.77,15.77,0,0,0,1620.86,134.83Z"/><path class="cls-5" d="M1660.77,161.84a15.77,15.77,0,1,0-.25-22.3A15.77,15.77,0,0,0,1660.77,161.84Z"/><path class="cls-5" d="M1700.19,144.26a15.76,15.76,0,1,0,22.29-.25A15.76,15.76,0,0,0,1700.19,144.26Z"/><path class="cls-5" d="M1449.05,245.5a15.76,15.76,0,1,0,7.85,20.87A15.77,15.77,0,0,0,1449.05,245.5Z"/><circle class="cls-5" cx="1481.42" cy="250.73" r="15.77" transform="translate(589.06 1459.51) rotate(-63.17)"/><path class="cls-5" d="M1534.67,248.09A15.77,15.77,0,1,0,1513.8,256,15.76,15.76,0,0,0,1534.67,248.09Z"/><path class="cls-5" d="M1573.55,239a15.76,15.76,0,1,0-20.87,7.85A15.77,15.77,0,0,0,1573.55,239Z"/><path class="cls-5" d="M1604.57,209a15.76,15.76,0,1,0,7.86,20.87A15.76,15.76,0,0,0,1604.57,209Z"/><path class="cls-5" d="M1651.31,220.68a15.76,15.76,0,1,0-20.86,7.86A15.77,15.77,0,0,0,1651.31,220.68Z"/><path class="cls-5" d="M1690.19,211.54a15.76,15.76,0,1,0-20.86,7.86A15.75,15.75,0,0,0,1690.19,211.54Z"/><path class="cls-5" d="M1700.35,189.4a15.77,15.77,0,1,0,20.87-7.86A15.76,15.76,0,0,0,1700.35,189.4Z"/><path class="cls-5" d="M1630.23,314.33a15.77,15.77,0,1,0-14.52-16.92A15.76,15.76,0,0,0,1630.23,314.33Z"/><path class="cls-5" d="M1663.65,292.45a15.77,15.77,0,1,0-14.52-16.92A15.77,15.77,0,0,0,1663.65,292.45Z"/><path class="cls-5" d="M1697.06,270.56a15.77,15.77,0,1,0-14.52-16.92A15.77,15.77,0,0,0,1697.06,270.56Z"/><path class="cls-5" d="M1732.87,217.24a15.77,15.77,0,1,0,14.52,16.92A15.75,15.75,0,0,0,1732.87,217.24Z"/><path class="cls-5" d="M1923.68,115.22a15.77,15.77,0,1,0-14.52-16.92A15.76,15.76,0,0,0,1923.68,115.22Z"/></g></svg>