<svg id="Layer_1" data-name="Layer 1" xmlns="http://www.w3.org/2000/svg" xmlns:xlink="http://www.w3.org/1999/xlink" viewBox="0 0 1922 293"><defs><style>.cls-1,.cls-7{fill:none;}.cls-2{fill:#0076cf;}.cls-3{clip-path:url(#clip-path);}.cls-4{fill:#5bc2e7;}.cls-5{fill:#ff7500;}.cls-6{clip-path:url(#clip-path-2);}.cls-7{stroke:#fff;stroke-miterlimit:10;stroke-width:20px;opacity:0.3;}.cls-8{clip-path:url(#clip-path-3);}.cls-9{fill:#041e42;}.cls-10{clip-path:url(#clip-path-4);}.cls-11{clip-path:url(#clip-path-5);}.cls-12{fill:#ffb81c;}</style><clipPath id="clip-path"><rect class="cls-1" x="1202" y="-427" width="720" height="292"/></clipPath><clipPath id="clip-path-2"><rect class="cls-1" x="-2158" y="-816" width="1920" height="816"/></clipPath><clipPath id="clip-path-3"><rect class="cls-2" width="1922" height="293"/></clipPath><clipPath id="clip-path-4"><rect class="cls-1" width="604" height="293" transform="translate(604 293) rotate(180)"/></clipPath><clipPath id="clip-path-5"><rect class="cls-1" x="1141" y="410" width="781" height="293" transform="translate(3063 1113) rotate(180)"/></clipPath></defs><title>CTABanner-3</title><g class="cls-3"><path class="cls-4" d="M1675.47,319.19c-176.38,0-319.88-143.5-319.88-319.88s143.5-319.88,319.88-319.88S1995.36-177.07,1995.36-.69,1851.86,319.19,1675.47,319.19Zm0-604.95c-157.19,0-285.07,127.88-285.07,285.07s127.88,285.07,285.07,285.07S1960.54,156.5,1960.54-.69,1832.66-285.76,1675.47-285.76Z"/><path class="cls-5" d="M1769.75,231h-.15c-3.45,0-6.95-.06-10.4-.17l1.54-49c2.94.09,5.93.14,8.86.14Zm21.15-.7-3.18-48.92c3-.19,6-.44,9-.73l4.77,48.8C1798,229.8,1794.42,230.09,1790.9,230.31Zm-52.82-.82c-3.5-.34-7-.74-10.52-1.19l6.32-48.62c2.95.38,5.95.72,8.93,1Zm84.36-2.78-8-48.38c2.93-.48,5.91-1,8.83-1.6l9.54,48.09C1829.41,225.51,1825.9,226.14,1822.44,226.71Zm-115.77-1.82c-3.44-.68-6.92-1.43-10.35-2.22l11-47.77c2.91.68,5.87,1.31,8.79,1.89ZM1853.49,220l-12.68-47.36c2.87-.77,5.77-1.59,8.63-2.46l14.23,46.91C1860.3,218.14,1856.88,219.11,1853.49,220Zm-177.64-2.81c-3.37-1-6.78-2.11-10.12-3.24l15.72-46.44c2.84,1,5.73,1.89,8.58,2.75Zm207.88-6.91-17.3-45.88c2.78-1,5.58-2.15,8.33-3.29l18.79,45.28C1890.31,207.76,1887,209.06,1883.73,210.3Zm-237.86-3.8c-3.27-1.35-6.55-2.77-9.75-4.22l20.25-44.65c2.71,1.22,5.49,2.43,8.26,3.58Zm266.94-8.83-21.73-43.95c2.67-1.32,5.35-2.7,8-4.1l23.15,43.21C1919.11,194.49,1916,196.12,1912.81,197.67Zm-295.69-4.77c-3.1-1.66-6.22-3.4-9.27-5.17l24.54-42.43c2.59,1.49,5.23,3,7.86,4.37Zm323.39-10.66-25.93-41.61c2.54-1.58,5.08-3.22,7.54-4.87l27.27,40.74C1946.49,178.45,1943.5,180.38,1940.51,182.24Zm-350.65-5.7c-2.91-1.95-5.84-4-8.7-6l28.57-39.84c2.44,1.74,4.93,3.47,7.4,5.12Zm376.72-12.37-29.87-38.88c2.37-1.82,4.73-3.69,7-5.59l31.12,37.89C1972.15,159.82,1969.36,162,1966.58,164.17Zm-402.22-6.56c-2.72-2.24-5.43-4.54-8.07-6.86l32.33-36.85c2.24,2,4.55,3.92,6.85,5.82Zm426.4-14-33.5-35.79c2.16-2,4.34-4.13,6.45-6.25l34.66,34.68C1995.88,138.77,1993.32,141.25,1990.76,143.64Zm-449.92-7.35c-2.48-2.48-4.95-5-7.36-7.6l35.77-33.53c2,2.18,4.14,4.35,6.25,6.45Zm472-15.46L1976,88.5c2-2.26,3.94-4.57,5.83-6.86l37.87,31.13C2017.48,115.47,2015.17,118.19,2012.85,120.83Zm-493.33-8c-2.22-2.71-4.44-5.49-6.58-8.28l38.86-29.89c1.82,2.37,3.7,4.74,5.59,7ZM2032.61,96l-39.82-28.6c1.73-2.42,3.46-4.9,5.12-7.39l40.73,27.29C2036.68,90.2,2034.65,93.13,2032.61,96Zm-532-8.65c-1.95-2.91-3.88-5.9-5.74-8.88l41.6-25.94c1.58,2.52,3.22,5.06,4.87,7.53Zm549.26-18-42.43-24.57c1.5-2.58,3-5.22,4.38-7.85L2055,60C2053.36,63.13,2051.62,66.25,2049.85,69.3Zm-565.6-9.15c-1.66-3.1-3.29-6.26-4.84-9.4L1523.35,29c1.32,2.66,2.7,5.34,4.1,8ZM2064.41,41l-44.64-20.27c1.23-2.71,2.43-5.49,3.58-8.25l45.29,18.78C2067.28,34.55,2065.86,37.83,2064.41,41ZM1470.65,31.5c-1.34-3.24-2.65-6.54-3.89-9.82l45.87-17.31c1,2.77,2.16,5.57,3.3,8.32Zm605.46-20.07L2029.68-4.31c1-2.84,1.89-5.73,2.76-8.58l46.92,14.2C2078.34,4.68,2077.25,8.08,2076.11,11.43Zm-616.17-9.8c-1-3.38-2-6.8-2.91-10.19l47.35-12.7c.77,2.87,1.6,5.78,2.47,8.64Zm624.89-20.78-47.76-11.09c.67-2.9,1.31-5.85,1.89-8.77l48.09,9.51C2086.37-26,2085.62-22.57,2084.83-19.15Zm-632.61-10c-.69-3.45-1.33-7-1.9-10.42l48.38-8c.48,2.93,1,5.9,1.6,8.83ZM2090.47-50.4l-48.61-6.34c.38-2.94.73-5.95,1-8.92l48.79,4.74C2091.33-57.41,2090.93-53.87,2090.47-50.4ZM1447.56-60.59c-.34-3.48-.63-7-.86-10.54l48.92-3.21c.2,3,.44,6,.74,9ZM2093-82l-49-1.57c.1-3,.15-6,.15-9v-.6h49v.51C2093.2-89.09,2093.15-85.54,2093-82ZM1495-92.3h-49v-.3c0-3.39,0-6.84.16-10.24l49,1.52c-.09,2.9-.13,5.83-.13,8.72Zm548.53-18.82c-.19-3-.44-6-.74-9l48.79-4.85c.34,3.49.64,7,.87,10.55Zm-547.26-8.13-48.8-4.7c.34-3.5.74-7,1.19-10.52l48.62,6.28C1496.93-125.23,1496.59-122.22,1496.3-119.25Zm544.16-18.64c-.48-2.93-1-5.9-1.61-8.83l48.07-9.61c.69,3.46,1.34,7,1.91,10.42Zm-540.27-8-48.1-9.46c.68-3.44,1.42-6.92,2.21-10.35l47.77,11C1501.4-151.78,1500.77-148.83,1500.19-145.91Zm534.56-18.29c-.77-2.87-1.6-5.77-2.47-8.63l46.89-14.3c1,3.37,2,6.8,2.92,10.18ZM1506.69-172l-46.94-14.16c1-3.38,2.11-6.78,3.24-10.13l46.44,15.7C1508.47-177.78,1507.55-174.89,1506.69-172Zm519.79-17.78c-1-2.78-2.17-5.58-3.31-8.32L2068.42-217c1.35,3.23,2.66,6.53,3.91,9.81Zm-510.73-7.63-45.31-18.74c1.35-3.27,2.77-6.55,4.22-9.75l44.66,20.23C1518.1-203,1516.89-200.21,1515.75-197.44Zm500-17c-1.33-2.68-2.72-5.36-4.12-8l43.18-23.21c1.65,3.07,3.28,6.22,4.85,9.38Zm-488.47-7.39L1484-244.94c1.66-3.1,3.39-6.22,5.15-9.27l42.45,24.52C1530.15-227.11,1528.68-224.46,1527.27-221.83Zm475.34-16.1c-1.57-2.51-3.22-5-4.88-7.53l40.7-27.33c2,2.92,3.9,5.91,5.75,8.87Zm-461.47-7-40.76-27.24c2-2.93,4-5.86,6-8.71l39.85,28.56C1544.52-249.93,1542.8-247.44,1541.14-245ZM1987.24-260c-1.82-2.36-3.71-4.73-5.6-7l37.84-31.17c2.23,2.71,4.44,5.49,6.59,8.27Zm-430-6.58-37.9-31.1c2.22-2.71,4.53-5.43,6.84-8.07l36.88,32.3C1561.05-271.23,1559.09-268.92,1557.2-266.61Zm412.57-13.94c-2-2.18-4.15-4.34-6.26-6.45l34.62-34.71c2.48,2.48,5,5,7.37,7.6ZM1575.3-286.6l-34.69-34.64c2.49-2.5,5.05-5,7.59-7.37l33.55,35.76C1579.58-290.82,1577.41-288.72,1575.3-286.6Zm375.08-12.67c-2.24-2-4.55-3.92-6.87-5.82L1974.59-343c2.73,2.23,5.44,4.53,8.08,6.84Zm-355.13-5.45-31.16-37.86c2.71-2.22,5.49-4.44,8.27-6.58l29.92,38.84C1599.91-308.5,1597.55-306.61,1595.25-304.72Zm334-11.3c-2.42-1.74-4.9-3.45-7.39-5.11l27.22-40.78c2.93,2,5.86,4,8.72,6Zm-312.39-4.78-27.3-40.72c2.91-2,5.89-3.88,8.86-5.74l26,41.58C1621.87-324.1,1619.33-322.46,1616.85-320.8Zm289.73-9.82c-2.59-1.49-5.23-3-7.87-4.37l23.09-43.25c3.11,1.66,6.23,3.39,9.27,5.15Zm-266.67-4.06-23.19-43.19c3.08-1.66,6.23-3.29,9.39-4.85l21.76,43.93C1645.2-337.46,1642.52-336.08,1639.91-334.68Zm242.67-8.25c-2.71-1.23-5.49-2.43-8.26-3.57L1893-391.82c3.26,1.35,6.54,2.77,9.74,4.22Zm-218.39-3.29-18.83-45.26c3.23-1.35,6.54-2.66,9.81-3.9l17.34,45.86C1669.74-348.47,1666.94-347.36,1664.19-346.22Zm193.3-6.59c-2.84-1-5.73-1.88-8.58-2.74l14.14-46.95c3.36,1,6.77,2.11,10.12,3.24Zm-168-2.5-14.28-46.9c3.37-1,6.8-2,10.18-2.92l12.73,47.34C1695.26-357,1692.36-356.18,1689.5-355.31Zm142.06-4.85c-2.91-.67-5.86-1.3-8.78-1.87l9.44-48.11c3.44.67,6.92,1.42,10.35,2.21Zm-116-1.71L1706-409.95c3.45-.69,7-1.33,10.42-1.9l8,48.37C1721.51-363,1718.54-362.45,1715.61-361.87Zm89.44-3c-3-.38-6-.71-8.93-1l4.68-48.8c3.49.33,7,.73,10.51,1.18Zm-62.8-.92-4.82-48.79c3.48-.34,7-.63,10.55-.87l3.23,48.92C1748.22-366.37,1745.21-366.12,1742.25-365.83Zm35.94-1.21c-2.86-.09-5.74-.13-8.59-.13h-.45v-49h.45c3.34,0,6.73.05,10.08.16Z"/></g><g class="cls-6"><circle class="cls-7" cx="-306" cy="-96" r="380"/></g><rect class="cls-2" width="1922" height="293"/><g class="cls-8"><rect class="cls-9" width="1922" height="293"/></g><rect class="cls-9" width="1922" height="293"/><g class="cls-10"><path class="cls-2" d="M7.07,269.45a15.77,15.77,0,1,0-19.43-10.94A15.77,15.77,0,0,0,7.07,269.45Z"/><path class="cls-2" d="M31,237.46a15.77,15.77,0,1,0-19.43-10.94A15.77,15.77,0,0,0,31,237.46Z"/><path class="cls-2" d="M158.41,15.6a15.77,15.77,0,1,0,19.43,10.94A15.77,15.77,0,0,0,158.41,15.6Z"/><path class="cls-2" d="M182.32-16.39A15.77,15.77,0,0,0,171.38,3,15.77,15.77,0,0,0,190.82,14,15.76,15.76,0,0,0,201.75-5.46,15.77,15.77,0,0,0,182.32-16.39Z"/><circle class="cls-2" cx="52.02" cy="278" r="15.77" transform="translate(-96.63 37.39) rotate(-21.11)"/><path class="cls-2" d="M54.36,227a15.77,15.77,0,1,0,22,3.63A15.77,15.77,0,0,0,54.36,227Z"/><path class="cls-2" d="M135,26.15a15.77,15.77,0,1,0-22-3.63A15.78,15.78,0,0,0,135,26.15Z"/><path class="cls-2" d="M97.46,296.5a15.77,15.77,0,1,0-4.12-21.91A15.77,15.77,0,0,0,97.46,296.5Z"/><path class="cls-2" d="M95.21,256.62a15.77,15.77,0,1,0-4.11-21.91A15.76,15.76,0,0,0,95.21,256.62Z"/><path class="cls-2" d="M96.29,36.42a15.75,15.75,0,0,0-21.91,4.11,15.54,15.54,0,0,0-2.15,4.58A15.76,15.76,0,0,0,45.7,57.73,15.76,15.76,0,0,0,25.08,78.65a15.77,15.77,0,0,0-12.21,26.72,15.76,15.76,0,0,0-2.34,29.28,15.77,15.77,0,0,0,2.92,27A15.89,15.89,0,0,0,18.34,163a15.77,15.77,0,0,0,12,24.36,15.33,15.33,0,0,0,5-.43,15.77,15.77,0,0,0,24.19,16.67A15.77,15.77,0,0,0,88,211a15.76,15.76,0,0,0,29.24-2.78,15.76,15.76,0,0,0,26.53-12.61,15.77,15.77,0,0,0,20.62-20.93,15.75,15.75,0,0,0,12.21-26.71,15.78,15.78,0,0,0,6.49-26.37,16,16,0,0,0-4.15-2.92,15.76,15.76,0,0,0-7.81-28.31,15.78,15.78,0,0,0-12-24.37,16,16,0,0,0-5,.43,15.76,15.76,0,0,0-19.59-18.8,16.14,16.14,0,0,0-4.6,2.13,15.77,15.77,0,0,0-28.43-7.39A15.72,15.72,0,0,0,96.29,36.42Zm26.79,28.2a17.12,17.12,0,0,0,.48,2.41,15.76,15.76,0,0,0,19,11,16.06,16.06,0,0,0-.38,2.42,15.77,15.77,0,0,0,14.11,16.88,15.33,15.33,0,0,0-1.18,2.15,15.76,15.76,0,0,0,7.48,20.68,16.32,16.32,0,0,0-1.84,1.61,15.76,15.76,0,0,0,0,22,15.77,15.77,0,0,0-9.85,21.54,16.79,16.79,0,0,0-2.45,0,15.76,15.76,0,0,0-14.17,16.83,15.09,15.09,0,0,0-2.32-.79,15.75,15.75,0,0,0-19.07,11,16.07,16.07,0,0,0-1.91-1.54,15.77,15.77,0,0,0-21.67,3.78,15.24,15.24,0,0,0-1.27-2.1,15.76,15.76,0,0,0-21.65-3.86,17,17,0,0,0-.48-2.4,15.77,15.77,0,0,0-19-11,15.73,15.73,0,0,0-13.73-19.29,15.78,15.78,0,0,0-6.3-22.84,16.32,16.32,0,0,0,1.84-1.61,15.77,15.77,0,0,0,.05-22,15.52,15.52,0,0,0,2.28-.88A15.76,15.76,0,0,0,38.57,88a15.47,15.47,0,0,0,2.45,0A15.76,15.76,0,0,0,55.19,71.08a16.24,16.24,0,0,0,2.32.79,15.76,15.76,0,0,0,19.07-11,16.84,16.84,0,0,0,1.91,1.53,15.76,15.76,0,0,0,21.67-3.77,15.54,15.54,0,0,0,1.27,2.09A15.76,15.76,0,0,0,123.08,64.62Z"/><path class="cls-2" d="M94-3.46a15.76,15.76,0,1,0,4.12,21.91A15.76,15.76,0,0,0,94-3.46Z"/><path class="cls-2" d="M190.32,310.67A15.76,15.76,0,1,0,171.14,322,15.76,15.76,0,0,0,190.32,310.67Z"/><path class="cls-2" d="M174.57,274a15.76,15.76,0,1,0-19.18,11.36A15.76,15.76,0,0,0,174.57,274Z"/><path class="cls-2" d="M158.82,237.26a15.76,15.76,0,1,0-19.18,11.36A15.76,15.76,0,0,0,158.82,237.26Z"/><path class="cls-2" d="M30.4,16A15.77,15.77,0,1,0,49.59,4.62,15.77,15.77,0,0,0,30.4,16Z"/><path class="cls-2" d="M274.85,296a15.77,15.77,0,1,0-14.14,17.24A15.76,15.76,0,0,0,274.85,296Z"/><circle class="cls-2" cx="231.81" cy="268.42" r="15.77" transform="translate(-122.74 277.37) rotate(-50.63)"/><path class="cls-2" d="M202.9,223.63a15.77,15.77,0,1,0,17.24,14.14A15.77,15.77,0,0,0,202.9,223.63Z"/><path class="cls-2" d="M175.55,194.52a15.77,15.77,0,1,0,17.24,14.15A15.77,15.77,0,0,0,175.55,194.52Z"/><path class="cls-2" d="M13.67,58.8A15.77,15.77,0,1,0-3.57,44.66,15.77,15.77,0,0,0,13.67,58.8Z"/><path class="cls-2" d="M-16.78-1.69A15.78,15.78,0,0,0-30.93,15.55,15.77,15.77,0,0,0-13.69,29.69,15.75,15.75,0,0,0,.45,12.46,15.77,15.77,0,0,0-16.78-1.69Z"/><path class="cls-2" d="M443.5,288.74a15.77,15.77,0,1,0,21,7.39A15.77,15.77,0,0,0,443.5,288.74Z"/><path class="cls-2" d="M407.84,270.75a15.77,15.77,0,1,0,21,7.39A15.75,15.75,0,0,0,407.84,270.75Z"/><path class="cls-2" d="M372.18,252.75a15.77,15.77,0,1,0,21,7.4A15.77,15.77,0,0,0,372.18,252.75Z"/><path class="cls-2" d="M336.53,234.76a15.77,15.77,0,1,0,21,7.4A15.78,15.78,0,0,0,336.53,234.76Z"/><path class="cls-2" d="M300.87,216.77a15.77,15.77,0,1,0,21,7.39A15.77,15.77,0,0,0,300.87,216.77Z"/><circle class="cls-2" cx="272.03" cy="212.99" r="15.77" transform="translate(-19.12 398.99) rotate(-70.63)"/><path class="cls-2" d="M250.58,188.18a15.76,15.76,0,1,0-7.39,21A15.77,15.77,0,0,0,250.58,188.18Z"/><path class="cls-2" d="M186.5,183.82a15.77,15.77,0,1,0,7.39-21A15.77,15.77,0,0,0,186.5,183.82Z"/><path class="cls-2" d="M2.74,69.58a15.75,15.75,0,0,0-21-7.39,15.77,15.77,0,0,0-7.4,21,15.78,15.78,0,0,0,21,7.4A15.77,15.77,0,0,0,2.74,69.58Z"/><path class="cls-2" d="M477.91,159.68a15.77,15.77,0,1,0,22.29-.25A15.76,15.76,0,0,0,477.91,159.68Z"/><path class="cls-2" d="M438.25,155a15.77,15.77,0,1,0,22.29-.25A15.76,15.76,0,0,0,438.25,155Z"/><path class="cls-2" d="M421.12,172.3a15.77,15.77,0,1,0-22.29.25A15.76,15.76,0,0,0,421.12,172.3Z"/><path class="cls-2" d="M381.46,167.59a15.77,15.77,0,1,0-22.29.25A15.76,15.76,0,0,0,381.46,167.59Z"/><path class="cls-2" d="M319.26,140.83a15.77,15.77,0,1,0,22.29-.25A15.77,15.77,0,0,0,319.26,140.83Z"/><path class="cls-2" d="M302.14,158.17a15.77,15.77,0,1,0-22.3.24A15.77,15.77,0,0,0,302.14,158.17Z"/><path class="cls-2" d="M262.23,131.16a15.77,15.77,0,1,0,.25,22.3A15.77,15.77,0,0,0,262.23,131.16Z"/><path class="cls-2" d="M222.81,148.74a15.76,15.76,0,1,0-22.29.25A15.76,15.76,0,0,0,222.81,148.74Z"/><path class="cls-2" d="M474,47.5a15.76,15.76,0,1,0-7.85-20.87A15.77,15.77,0,0,0,474,47.5Z"/><circle class="cls-2" cx="441.58" cy="42.27" r="15.77" transform="translate(204.55 417.23) rotate(-63.17)"/><path class="cls-2" d="M388.33,44.91a15.77,15.77,0,1,0,20.87-7.86A15.76,15.76,0,0,0,388.33,44.91Z"/><path class="cls-2" d="M349.45,54a15.76,15.76,0,1,0,20.87-7.85A15.77,15.77,0,0,0,349.45,54Z"/><path class="cls-2" d="M318.43,84.05a15.76,15.76,0,1,0-7.86-20.87A15.76,15.76,0,0,0,318.43,84.05Z"/><path class="cls-2" d="M271.69,72.32a15.76,15.76,0,1,0,20.86-7.86A15.77,15.77,0,0,0,271.69,72.32Z"/><path class="cls-2" d="M232.81,81.46a15.76,15.76,0,1,0,20.86-7.86A15.75,15.75,0,0,0,232.81,81.46Z"/><path class="cls-2" d="M222.65,103.6a15.77,15.77,0,1,0-20.87,7.86A15.76,15.76,0,0,0,222.65,103.6Z"/><path class="cls-2" d="M292.77-21.33A15.76,15.76,0,0,0,275.85-6.81a15.75,15.75,0,0,0,14.52,16.92A15.77,15.77,0,0,0,307.29-4.41,15.77,15.77,0,0,0,292.77-21.33Z"/><path class="cls-2" d="M259.35.55a15.77,15.77,0,1,0,14.52,16.92A15.77,15.77,0,0,0,259.35.55Z"/><path class="cls-2" d="M225.94,22.44a15.77,15.77,0,1,0,14.52,16.92A15.77,15.77,0,0,0,225.94,22.44Z"/><path class="cls-2" d="M190.13,75.76a15.77,15.77,0,1,0-14.52-16.92A15.75,15.75,0,0,0,190.13,75.76Z"/><path class="cls-2" d="M-.68,177.78A15.76,15.76,0,0,0-17.6,192.3,15.75,15.75,0,0,0-3.09,209.22,15.78,15.78,0,0,0,13.84,194.7,15.77,15.77,0,0,0-.68,177.78Z"/></g><g class="cls-11"><rect class="cls-2" x="1680.03" y="166.92" width="47.19" height="890.26" transform="translate(837.26 -977.4) rotate(41.64)"/><rect class="cls-12" x="1769.8" y="201.06" width="47.19" height="620.07" transform="translate(-69.71 590.75) rotate(-18.36)"/></g></svg>