<svg id="Layer_1" data-name="Layer 1" xmlns="http://www.w3.org/2000/svg" xmlns:xlink="http://www.w3.org/1999/xlink" viewBox="0 0 1922 293"><defs><style>.cls-1{fill:#0076cf;}.cls-10,.cls-2{fill:none;}.cls-3{clip-path:url(#clip-path);}.cls-4{fill:#041e42;}.cls-5{clip-path:url(#clip-path-2);}.cls-6{fill:#5bc2e7;}.cls-7{fill:#ff7500;}.cls-8{clip-path:url(#clip-path-3);}.cls-9{clip-path:url(#clip-path-4);}.cls-10{stroke:#fff;stroke-miterlimit:10;stroke-width:20px;opacity:0.3;}.cls-11{clip-path:url(#clip-path-5);}</style><clipPath id="clip-path"><rect class="cls-1" width="1922" height="293"/></clipPath><clipPath id="clip-path-2"><rect class="cls-2" x="1202" y="1" width="720" height="292"/></clipPath><clipPath id="clip-path-3"><rect class="cls-2" x="1324" y="-388" width="604" height="293"/></clipPath><clipPath id="clip-path-4"><rect class="cls-2" x="-2158" y="-388" width="1920" height="816"/></clipPath><clipPath id="clip-path-5"><rect class="cls-2" y="428" width="604" height="293" transform="translate(604 1149) rotate(180)"/></clipPath></defs><title>CTABanner-2</title><rect class="cls-1" width="1922" height="293"/><g class="cls-3"><rect class="cls-4" width="1922" height="293"/></g><g class="cls-5"><path class="cls-6" d="M1675.47,747.19c-176.38,0-319.88-143.5-319.88-319.88s143.5-319.88,319.88-319.88,319.89,143.5,319.89,319.88S1851.86,747.19,1675.47,747.19Zm0-604.95c-157.19,0-285.07,127.88-285.07,285.07s127.88,285.07,285.07,285.07,285.07-127.88,285.07-285.07S1832.66,142.24,1675.47,142.24Z"/><path class="cls-7" d="M1769.75,659h-.15c-3.45,0-6.95-.06-10.4-.17l1.54-49c2.94.09,5.93.14,8.86.14Zm21.15-.7-3.18-48.92c3-.19,6-.44,9-.73l4.77,48.8C1798,657.8,1794.42,658.09,1790.9,658.31Zm-52.82-.82c-3.5-.34-7-.74-10.52-1.19l6.32-48.62c2.95.38,5.95.72,8.93,1Zm84.36-2.78-8-48.38c2.93-.48,5.91-1,8.83-1.6l9.54,48.09C1829.41,653.51,1825.9,654.14,1822.44,654.71Zm-115.77-1.82c-3.44-.68-6.92-1.43-10.35-2.22l11-47.77c2.91.68,5.87,1.31,8.79,1.89ZM1853.49,648l-12.68-47.36c2.87-.77,5.77-1.59,8.63-2.46l14.23,46.91C1860.3,646.14,1856.88,647.11,1853.49,648Zm-177.64-2.81c-3.37-1-6.78-2.11-10.12-3.24l15.72-46.44c2.84,1,5.73,1.89,8.58,2.75Zm207.88-6.91-17.3-45.88c2.78-1,5.58-2.15,8.33-3.29l18.79,45.28C1890.31,635.76,1887,637.06,1883.73,638.3Zm-237.86-3.8c-3.27-1.35-6.55-2.77-9.75-4.22l20.25-44.65c2.71,1.22,5.49,2.43,8.26,3.58Zm266.94-8.83-21.73-43.95c2.67-1.32,5.35-2.7,8-4.1l23.15,43.21C1919.11,622.49,1916,624.12,1912.81,625.67Zm-295.69-4.77c-3.1-1.66-6.22-3.4-9.27-5.17l24.54-42.43c2.59,1.49,5.23,3,7.86,4.37Zm323.39-10.66-25.93-41.61c2.54-1.58,5.08-3.22,7.54-4.87l27.27,40.74C1946.49,606.45,1943.5,608.38,1940.51,610.24Zm-350.65-5.7c-2.91-1.95-5.84-4-8.7-6l28.57-39.84c2.44,1.74,4.93,3.47,7.4,5.12Zm376.72-12.37-29.87-38.88c2.37-1.82,4.73-3.69,7-5.59l31.12,37.89C1972.15,587.82,1969.36,590,1966.58,592.17Zm-402.22-6.56c-2.72-2.24-5.43-4.54-8.07-6.86l32.33-36.85c2.24,2,4.55,3.92,6.85,5.82Zm426.4-14-33.5-35.79c2.16-2,4.34-4.13,6.45-6.25l34.66,34.68C1995.88,566.77,1993.32,569.25,1990.76,571.64Zm-449.92-7.35c-2.48-2.48-4.95-5-7.36-7.6l35.77-33.53c2,2.18,4.14,4.35,6.25,6.45Zm472-15.46L1976,516.5c2-2.26,3.94-4.57,5.83-6.86l37.87,31.13C2017.48,543.47,2015.17,546.19,2012.85,548.83Zm-493.33-8c-2.22-2.71-4.44-5.49-6.58-8.28l38.86-29.89c1.82,2.37,3.7,4.74,5.59,7ZM2032.61,524l-39.82-28.6c1.73-2.42,3.46-4.9,5.12-7.39l40.73,27.29C2036.68,518.2,2034.65,521.13,2032.61,524Zm-532-8.65c-1.95-2.91-3.88-5.9-5.74-8.88l41.6-25.94c1.58,2.52,3.22,5.06,4.87,7.53Zm549.26-18-42.43-24.57c1.5-2.58,3-5.22,4.38-7.85L2055,488C2053.36,491.13,2051.62,494.25,2049.85,497.3Zm-565.6-9.15c-1.66-3.1-3.29-6.26-4.84-9.4L1523.35,457c1.32,2.66,2.7,5.34,4.1,8ZM2064.41,469l-44.64-20.27c1.23-2.71,2.43-5.49,3.58-8.25l45.29,18.78C2067.28,462.55,2065.86,465.83,2064.41,469Zm-593.76-9.53c-1.34-3.24-2.65-6.54-3.89-9.82l45.87-17.31c1,2.77,2.16,5.57,3.3,8.32Zm605.46-20.07-46.43-15.74c1-2.84,1.89-5.73,2.76-8.58l46.92,14.2C2078.34,432.68,2077.25,436.08,2076.11,439.43Zm-616.17-9.8c-1-3.38-2-6.8-2.91-10.19l47.35-12.7c.77,2.87,1.6,5.78,2.47,8.64Zm624.89-20.78-47.76-11.09c.67-2.9,1.31-5.85,1.89-8.77l48.09,9.51C2086.37,402,2085.62,405.43,2084.83,408.85Zm-632.61-10c-.69-3.45-1.33-7-1.9-10.42l48.38-8c.48,2.93,1,5.9,1.6,8.83Zm638.25-21.22-48.61-6.34c.38-2.94.73-5.95,1-8.92l48.79,4.74C2091.33,370.59,2090.93,374.13,2090.47,377.6Zm-642.91-10.19c-.34-3.48-.63-7-.86-10.54l48.92-3.21c.2,3,.44,6,.74,8.95ZM2093,346l-49-1.57c.1-3,.15-6,.15-9v-.6h49v.51C2093.2,338.91,2093.15,342.46,2093,346ZM1495,335.7h-49v-.3c0-3.39,0-6.84.16-10.24l49,1.52c-.09,2.9-.13,5.83-.13,8.72Zm548.53-18.82c-.19-3-.44-6-.74-9l48.79-4.85c.34,3.49.64,7,.87,10.55Zm-547.26-8.13-48.8-4.7c.34-3.5.74-7,1.19-10.52l48.62,6.28C1496.93,302.77,1496.59,305.78,1496.3,308.75Zm544.16-18.64c-.48-2.93-1-5.9-1.61-8.83l48.07-9.61c.69,3.46,1.34,7,1.91,10.42Zm-540.27-8-48.1-9.46c.68-3.44,1.42-6.92,2.21-10.35l47.77,11C1501.4,276.22,1500.77,279.17,1500.19,282.09Zm534.56-18.29c-.77-2.87-1.6-5.77-2.47-8.63l46.89-14.3c1,3.37,2,6.8,2.92,10.18ZM1506.69,256l-46.94-14.16c1-3.38,2.11-6.78,3.24-10.13l46.44,15.7C1508.47,250.22,1507.55,253.11,1506.69,256Zm519.79-17.78c-1-2.78-2.17-5.58-3.31-8.32L2068.42,211c1.35,3.23,2.66,6.53,3.91,9.81Zm-510.73-7.63-45.31-18.74c1.35-3.27,2.77-6.55,4.22-9.75l44.66,20.23C1518.1,225,1516.89,227.79,1515.75,230.56Zm500-17c-1.33-2.68-2.72-5.36-4.12-8l43.18-23.21c1.65,3.07,3.28,6.22,4.85,9.38Zm-488.47-7.39L1484,183.06c1.66-3.1,3.39-6.22,5.15-9.27l42.45,24.52C1530.15,200.89,1528.68,203.54,1527.27,206.17Zm475.34-16.1c-1.57-2.51-3.22-5-4.88-7.53l40.7-27.33c2,2.92,3.9,5.91,5.75,8.87Zm-461.47-7-40.76-27.24c2-2.93,4-5.86,6-8.71l39.85,28.56C1544.52,178.07,1542.8,180.56,1541.14,183ZM1987.24,168c-1.82-2.36-3.71-4.73-5.6-7l37.84-31.17c2.23,2.71,4.44,5.49,6.59,8.27Zm-430-6.58-37.9-31.1c2.22-2.71,4.53-5.43,6.84-8.07l36.88,32.3C1561.05,156.77,1559.09,159.08,1557.2,161.39Zm412.57-13.94c-2-2.18-4.15-4.34-6.26-6.45l34.62-34.71c2.48,2.48,5,5,7.37,7.6Zm-394.47-6-34.69-34.64c2.49-2.5,5.05-5,7.59-7.37l33.55,35.76C1579.58,137.18,1577.41,139.28,1575.3,141.4Zm375.08-12.67c-2.24-2-4.55-3.92-6.87-5.82L1974.59,85c2.73,2.23,5.44,4.53,8.08,6.84Zm-355.13-5.45-31.16-37.86c2.71-2.22,5.49-4.44,8.27-6.58l29.92,38.84C1599.91,119.5,1597.55,121.39,1595.25,123.28Zm334-11.3c-2.42-1.74-4.9-3.45-7.39-5.11l27.22-40.78c2.93,2,5.86,4,8.72,6Zm-312.39-4.78-27.3-40.72c2.91-2,5.89-3.88,8.86-5.74l26,41.58C1621.87,103.9,1619.33,105.54,1616.85,107.2Zm289.73-9.82c-2.59-1.49-5.23-3-7.87-4.37l23.09-43.25c3.11,1.66,6.23,3.39,9.27,5.15Zm-266.67-4.06-23.19-43.19c3.08-1.66,6.23-3.29,9.39-4.85l21.76,43.93C1645.2,90.54,1642.52,91.92,1639.91,93.32Zm242.67-8.25c-2.71-1.23-5.49-2.43-8.26-3.57L1893,36.18c3.26,1.35,6.54,2.77,9.74,4.22Zm-218.39-3.29-18.83-45.26c3.23-1.35,6.54-2.66,9.81-3.9l17.34,45.86C1669.74,79.53,1666.94,80.64,1664.19,81.78Zm193.3-6.59c-2.84-1-5.73-1.88-8.58-2.74l14.14-46.95c3.36,1,6.77,2.11,10.12,3.24Zm-168-2.5-14.28-46.9c3.37-1,6.8-2,10.18-2.92l12.73,47.34C1695.26,71,1692.36,71.82,1689.5,72.69Zm142.06-4.85c-2.91-.67-5.86-1.3-8.78-1.87l9.44-48.11c3.44.67,6.92,1.42,10.35,2.21Zm-116-1.71L1706,18.05c3.45-.69,7-1.33,10.42-1.9l8,48.37C1721.51,65,1718.54,65.55,1715.61,66.13Zm89.44-3c-3-.38-6-.71-8.93-1l4.68-48.8c3.49.33,7,.73,10.51,1.18Zm-62.8-.92-4.82-48.79c3.48-.34,7-.63,10.55-.87l3.23,48.92C1748.22,61.63,1745.21,61.88,1742.25,62.17ZM1778.19,61c-2.86-.09-5.74-.13-8.59-.13h-.45v-49h.45c3.34,0,6.73,0,10.08.16Z"/></g><g class="cls-8"><path class="cls-7" d="M1665.45-13a15.77,15.77,0,1,0,19.43,10.94A15.77,15.77,0,0,0,1665.45-13Z"/><path class="cls-7" d="M1641.54,19A15.76,15.76,0,1,0,1661,29.93,15.76,15.76,0,0,0,1641.54,19Z"/><path class="cls-7" d="M1617.63,51a15.76,15.76,0,1,0,19.43,10.93A15.76,15.76,0,0,0,1617.63,51Z"/><path class="cls-7" d="M1593.64,82.74a15.77,15.77,0,1,0,19.44,10.94A15.77,15.77,0,0,0,1593.64,82.74Z"/><path class="cls-7" d="M1758.46-6.42a15.76,15.76,0,1,0,22,3.63A15.77,15.77,0,0,0,1758.46-6.42Z"/><path class="cls-7" d="M1746.93,31.82a15.77,15.77,0,1,0,22,3.63A15.78,15.78,0,0,0,1746.93,31.82Z"/><path class="cls-7" d="M1735.4,70.06a15.77,15.77,0,1,0,22,3.63A15.76,15.76,0,0,0,1735.4,70.06Z"/><path class="cls-7" d="M1723.88,108.3a15.77,15.77,0,1,0,22,3.63A15.77,15.77,0,0,0,1723.88,108.3Z"/><path class="cls-7" d="M1712.2,146.34a15.77,15.77,0,1,0,22,3.63A15.78,15.78,0,0,0,1712.2,146.34Z"/><path class="cls-7" d="M1840.7,28.1a15.77,15.77,0,1,0-4.12-21.92A15.77,15.77,0,0,0,1840.7,28.1Z"/><path class="cls-7" d="M1842.94,68a15.76,15.76,0,1,0-4.11-21.91A15.77,15.77,0,0,0,1842.94,68Z"/><path class="cls-7" d="M1845.19,107.85a15.77,15.77,0,1,0-4.11-21.91A15.75,15.75,0,0,0,1845.19,107.85Z"/><path class="cls-7" d="M1847.44,147.73a15.77,15.77,0,1,0-4.12-21.91A15.76,15.76,0,0,0,1847.44,147.73Z"/><path class="cls-7" d="M1867.28,161.44a15.77,15.77,0,1,0,4.11,21.92A15.78,15.78,0,0,0,1867.28,161.44Z"/><path class="cls-7" d="M1944.85-.87A15.76,15.76,0,0,0,1933.49-20a15.76,15.76,0,0,0-19.18,11.36,15.75,15.75,0,0,0,11.36,19.18A15.75,15.75,0,0,0,1944.85-.87Z"/><path class="cls-7" d="M1504-17.57A15.77,15.77,0,0,0,1487.07-3a15.75,15.75,0,0,0,14.52,16.92A15.77,15.77,0,0,0,1518.51-.65,15.77,15.77,0,0,0,1504-17.57Z"/></g><g class="cls-9"><circle class="cls-10" cx="-306" cy="332" r="380"/></g><g class="cls-11"><path class="cls-1" d="M286.46,314A15.76,15.76,0,1,0,267,303.07,15.76,15.76,0,0,0,286.46,314Z"/><path class="cls-1" d="M310.37,282a15.76,15.76,0,1,0-19.43-10.93A15.76,15.76,0,0,0,310.37,282Z"/><path class="cls-1" d="M334.36,250.26a15.77,15.77,0,1,0-19.44-10.94A15.77,15.77,0,0,0,334.36,250.26Z"/><path class="cls-1" d="M181.07,301.18a15.77,15.77,0,1,0-22-3.63A15.78,15.78,0,0,0,181.07,301.18Z"/><path class="cls-1" d="M192.6,262.94a15.77,15.77,0,1,0-22-3.63A15.76,15.76,0,0,0,192.6,262.94Z"/><path class="cls-1" d="M204.12,224.7a15.77,15.77,0,1,0-22-3.63A15.77,15.77,0,0,0,204.12,224.7Z"/><path class="cls-1" d="M215.8,186.66a15.77,15.77,0,1,0-22-3.63A15.78,15.78,0,0,0,215.8,186.66Z"/><path class="cls-1" d="M85.06,265a15.76,15.76,0,1,0,4.11,21.91A15.77,15.77,0,0,0,85.06,265Z"/><path class="cls-1" d="M82.81,225.15a15.77,15.77,0,1,0,4.11,21.91A15.75,15.75,0,0,0,82.81,225.15Z"/><path class="cls-1" d="M80.56,185.27a15.77,15.77,0,1,0,4.12,21.91A15.76,15.76,0,0,0,80.56,185.27Z"/><path class="cls-1" d="M60.72,171.56a15.77,15.77,0,1,0-4.11-21.92A15.78,15.78,0,0,0,60.72,171.56Z"/></g></svg>