<svg xmlns="http://www.w3.org/2000/svg" viewBox="0 0 198.49 173.29"><defs><style>.cls-1{fill:#fff;}</style></defs><title>Asset 1</title><g id="Layer_2" data-name="Layer 2"><g id="logo"><g id="S-fullcolor"><path class="cls-1" d="M87,16.77a2.23,2.23,0,1,0-.06-4.45A2.23,2.23,0,0,0,87,16.77Z"/><path class="cls-1" d="M34.09,0V64.06H98.15V0ZM90.18,52.13c-4.51,5.51-12.52,8.66-19.9,8.72A28.81,28.81,0,0,1,49.54,53c-11.32-11-11.3-28.92-.6-40.53,11.24-12.19,30.62-12,41-1a4.23,4.23,0,0,1,.2,5.81,4.86,4.86,0,0,1-6.56.38,21.54,21.54,0,0,0-30.08,2.51c-6.12,7.26-5.7,20.5.66,27.55a22.15,22.15,0,0,0,16,7.55,23.65,23.65,0,0,0,16.53-6c1.28-1.18,2.77-1.84,3.7-1C91.67,49.46,91.43,50.61,90.18,52.13Z"/><path class="cls-1" d="M153.84,64.06V17.87L135.79,64.06h-6L111.78,17.87V64.06H98.15V0h19.1l15.56,40L148.37,0h19.21V64.06Z"/><path class="cls-1" d="M174.71.75h-2.29V6.6h-.63V.75H169.5V.19h5.21Z"/><path class="cls-1" d="M181.37,6.6V1.33L179,5.41h-.37l-2.35-4.08V6.6h-.62V.19h.64l2.51,4.39L181.35.19H182V6.6Z"/></g><path class="cls-1" d="M37.36,96.21V118H30.83v-2a8.19,8.19,0,0,1-6.48,2.66c-5.71,0-10.41-5-10.41-11.5S18.64,95.6,24.35,95.6a8.16,8.16,0,0,1,6.48,2.66V96.21Zm-6.53,10.88a5,5,0,0,0-5.18-5.31,5.31,5.31,0,0,0,0,10.62A5,5,0,0,0,30.83,107.09Z"/><path class="cls-1" d="M71.15,96.21h4v6.27h-4V118H64.62v-15.5H61.71V96.21h2.91c0-6.09,3.35-9.75,10.58-9.31v6.26C72.76,93,71.15,93.69,71.15,96.21Z"/><path class="cls-1" d="M99.28,96.21V118H92.75v-2a8.19,8.19,0,0,1-6.48,2.66c-5.71,0-10.41-5-10.41-11.5S80.56,95.6,86.27,95.6a8.16,8.16,0,0,1,6.48,2.66V96.21Zm-6.53,10.88a5.18,5.18,0,1,0-5.18,5.31A5,5,0,0,0,92.75,107.09Z"/><path class="cls-1" d="M136.72,104.61V118H130.2v-12.8c0-2.18-1-3.57-3.14-3.57s-3.39,1.52-3.39,4.09V118h-6.53v-12.8c0-2.18-1-3.57-3.13-3.57s-3.4,1.52-3.4,4.09V118h-6.53V96.21h6.53v2c1-1.48,2.91-2.61,5.83-2.61a6.47,6.47,0,0,1,5.7,2.88c1.22-1.75,3.23-2.88,6.32-2.88C133.46,95.6,136.72,99.17,136.72,104.61Z"/><path class="cls-1" d="M184.55,96.21l-7.44,21.11c-2.44,6.92-6.31,9.66-12.4,9.36v-6.09c3,0,4.48-1,5.44-3.62l-8.67-20.76h7.18l4.84,13.32,4.09-13.32Z"/><polygon class="cls-1" points="141.22 90.5 147.75 86.77 147.75 94.35 141.22 94.35 141.22 90.5"/><polygon class="cls-1" points="152.55 90.5 159.09 86.77 159.09 117.98 152.55 117.98 152.55 90.5"/><path class="cls-1" d="M141.25,96.24h6.52V118h-6.52Z"/><polygon class="cls-1" points="42.15 90.55 48.68 86.81 48.68 94.4 42.15 94.4 42.15 90.55"/><path class="cls-1" d="M42.18,96.28H48.7V118H42.18Z"/><path class="cls-1" d="M0,153.09A11.28,11.28,0,0,1,11.54,141.6a11.23,11.23,0,0,1,9.84,5.57l-5.71,3.31A4.51,4.51,0,0,0,11.45,148a5.05,5.05,0,0,0,0,10.1,4.46,4.46,0,0,0,4.22-2.43L21.38,159a11.15,11.15,0,0,1-9.84,5.62A11.28,11.28,0,0,1,0,153.09Z"/><path class="cls-1" d="M44.89,150.61V164H38.36V151.57a3.59,3.59,0,0,0-3.79-4c-2.39,0-4,1.39-4,4.48V164H24V133.51h6.54v10.75c1.17-1.61,3.35-2.66,6.22-2.66C41.14,141.6,44.89,144.74,44.89,150.61Z"/><path class="cls-1" d="M71.72,142.21V164H65.19v-2a8.2,8.2,0,0,1-6.49,2.66c-5.7,0-10.4-5-10.4-11.5S53,141.6,58.7,141.6a8.17,8.17,0,0,1,6.49,2.66v-2Zm-6.53,10.88A5.18,5.18,0,1,0,60,158.4,5,5,0,0,0,65.19,153.09Z"/><path class="cls-1" d="M110.22,158.75a5.72,5.72,0,0,0,4.18-1.65l5.22,3c-2.13,3-5.35,4.49-9.49,4.49-7.44,0-12.06-5-12.06-11.5a11.17,11.17,0,0,1,11.58-11.49c6.36,0,11.06,4.92,11.06,11.49a13,13,0,0,1-.26,2.62H105C105.83,158,107.82,158.75,110.22,158.75Zm4-7.92a4.9,4.9,0,0,0-9.36,0Z"/><path class="cls-1" d="M145.32,150.61V164h-6.53V151.57a3.59,3.59,0,0,0-3.79-4c-2.39,0-4.05,1.39-4.05,4.48V164h-6.53V142.21H131v2c1.18-1.61,3.35-2.66,6.23-2.66C141.57,141.6,145.32,144.74,145.32,150.61Z"/><path class="cls-1" d="M172.14,142.21v20.68c0,7.31-5.7,10.4-11.49,10.4-4.52,0-8.31-1.7-10.31-5.27l5.57-3.22c.82,1.53,2.09,2.74,5,2.74,3,0,4.92-1.56,4.92-4.65v-2a7.75,7.75,0,0,1-6.35,2.83,11.07,11.07,0,0,1,0-22.12,7.75,7.75,0,0,1,6.35,2.83v-2.22Zm-6.35,10.45a5.27,5.27,0,1,0-5.27,5.05A4.93,4.93,0,0,0,165.79,152.66Z"/><path class="cls-1" d="M188,158.75a5.72,5.72,0,0,0,4.18-1.65l5.22,3c-2.13,3-5.35,4.49-9.49,4.49-7.44,0-12-5-12-11.5a11.16,11.16,0,0,1,11.57-11.49c6.36,0,11.06,4.92,11.06,11.49a13,13,0,0,1-.26,2.62H182.78C183.61,158,185.61,158.75,188,158.75Zm4-7.92a4.9,4.9,0,0,0-9.36,0Z"/><polygon class="cls-1" points="76.52 136.5 83.05 132.77 83.05 163.98 76.52 163.98 76.52 136.5"/><polygon class="cls-1" points="87.84 136.5 94.37 132.77 94.37 163.98 87.84 163.98 87.84 136.5"/></g></g></svg>