<svg xmlns="http://www.w3.org/2000/svg" viewBox="0 0 190.33 120.07"><defs><style>.cls-1{fill:none;}.cls-2{fill:#6ccbd7;}.cls-3{fill:#008d9c;}</style></defs><title>robot</title><g id="Layer_1" data-name="Layer 1"><path class="cls-1" d="M26,92.92l-1,.25-.42,1.62,3.35-2.39A7.83,7.83,0,0,1,26,92.92Z"/><path class="cls-1" d="M31.08,90.14l1.36-1c0-.38.1-.77.16-1.14A11.64,11.64,0,0,1,31.08,90.14Z"/><polygon class="cls-1" points="70.45 96.32 69.46 92.98 67.42 94.3 70.45 96.32"/><path class="cls-1" d="M103.55,99.86V97.61a1.5,1.5,0,0,1,1.5-1.5h16.21a8.25,8.25,0,0,1,3-4.91V87.57H82.18a8.21,8.21,0,0,1-1.36.56l-.12,0a8.06,8.06,0,0,1-1.07.24,9.59,9.59,0,0,1-4.42,12.21A72.75,72.75,0,0,0,90.7,119l6.13-11.48A8.25,8.25,0,0,1,103.55,99.86Z"/><path class="cls-1" d="M32.6,88a11.64,11.64,0,0,1-1.52,2.12l1.36-1C32.48,88.79,32.53,88.4,32.6,88Z"/><path class="cls-1" d="M25,93.16l-.42,1.62,3.35-2.39a7.83,7.83,0,0,1-1.91.53Z"/><polygon class="cls-1" points="70.45 96.32 69.46 92.98 67.42 94.3 70.45 96.32"/><path class="cls-1" d="M82.18,87.56a8.21,8.21,0,0,1-1.36.56l-.12,0a8.06,8.06,0,0,1-1.07.24,9.59,9.59,0,0,1-4.42,12.21A72.75,72.75,0,0,0,90.7,119l6.13-11.48a8.25,8.25,0,0,1,6.73-7.69V97.61a1.5,1.5,0,0,1,1.5-1.5h16.21a8.25,8.25,0,0,1,3-4.91V87.57H82.18Z"/><path class="cls-1" d="M72.8,102.45a9.61,9.61,0,0,1-13.94-1l-5.76,3.46a11,11,0,0,1-4.31,2.55l-.15.05a9.84,9.84,0,0,1-2.89.42c-4.3,0-8.34-2.7-10.84-6.9-.2.17-.41.34-.62.49A9.58,9.58,0,0,1,23,101.4l2,9.33a34.15,34.15,0,0,0,3.48,9.34H87.25A75.08,75.08,0,0,1,72.8,102.45Z"/><path class="cls-1" d="M97.86,112l-4.31,8.08h10v-4A8.27,8.27,0,0,1,97.86,112Z"/><path class="cls-1" d="M161.92,108.07a8.26,8.26,0,0,1-6.74,8v4h15.74a13.61,13.61,0,0,0,.43-3.27C171.34,111.27,166.82,108.53,161.92,108.07Z"/><path class="cls-2" d="M62.44,99.25l-.21.15-.22.13-.52.31a6.54,6.54,0,0,0,1.17,1,6.62,6.62,0,0,0,8.19-.69L65.2,96.43A11.32,11.32,0,0,1,62.44,99.25Z"/><path class="cls-2" d="M32.37,92.91l-8,5.75a6.62,6.62,0,0,0,8.21.41h0a6.68,6.68,0,0,0,1-.88,19,19,0,0,1-1.05-4.12C32.43,93.68,32.4,93.3,32.37,92.91Z"/><path class="cls-2" d="M21.06,96.42,21.7,94,19,94.66A6.56,6.56,0,0,0,21.06,96.42Z"/><path class="cls-2" d="M131.47,89.7V87.57h-4.21V89.7a8,8,0,0,1,4.21,0Z"/><path class="cls-2" d="M131.47,92.86a5.22,5.22,0,0,0-7.09,3.25h10a5.23,5.23,0,0,0-2.88-3.25Z"/><path class="cls-2" d="M99.8,108a5.24,5.24,0,0,0,3.75,5V103A5.24,5.24,0,0,0,99.8,108Z"/><path class="cls-2" d="M158.92,108a5.24,5.24,0,0,0-3.75-5v10A5.24,5.24,0,0,0,158.92,108Z"/><path class="cls-2" d="M152.17,114.55V99.11H106.55v21h10V104.89a1.5,1.5,0,0,1,1.5-1.5h7.21a1.53,1.53,0,0,1,1.5,1.5v15.18H132v-3.27a1.5,1.5,0,0,1,1.5-1.5h7.21a1.5,1.5,0,0,1,1.5,1.5v3.27h10v-5.52Zm-11.49-2.07h-7.84a1.5,1.5,0,0,1,0-3h7.84a1.5,1.5,0,0,1,0,3Zm0-6.09h-7.84a1.5,1.5,0,0,1,0-3h7.84a1.5,1.5,0,0,1,0,3Z"/><rect class="cls-2" x="119.55" y="106.39" width="4.21" height="13.68"/><rect class="cls-2" x="134.97" y="118.29" width="4.21" height="1.77"/><circle class="cls-2" cx="100.11" cy="11.31" r="2.78"/><circle class="cls-2" cx="158.62" cy="11.31" r="2.78"/><circle class="cls-2" cx="100.11" cy="48.37" r="6.61"/><path class="cls-2" d="M89.94,65.12a12.15,12.15,0,0,1,3.49,7.11c.6,4.33-.95,8.47-4,10.6l-.19.14-.17.1c-.13.08-.29.18-.46.27l-2,1.23H175V25.39H83.73V62.68A8.18,8.18,0,0,1,89.94,65.12Zm68.68-26.35A9.61,9.61,0,1,1,149,48.37,9.62,9.62,0,0,1,158.62,38.76Zm-38.22,28L140,65.11a1.5,1.5,0,0,1,1.62,1.37,10.78,10.78,0,0,1-7.15,10.85,11.86,11.86,0,0,1-1.5.45,12,12,0,0,1-1.73.29c-.35,0-.7,0-1,0a11.77,11.77,0,0,1-4.11-.74,11.53,11.53,0,0,1-3.05-1.7,10.29,10.29,0,0,1-4-7.26A1.5,1.5,0,0,1,120.4,66.78Zm-20.3-28a9.61,9.61,0,1,1-9.61,9.61A9.62,9.62,0,0,1,100.11,38.76Z"/><circle class="cls-2" cx="158.62" cy="48.37" r="6.61"/><path class="cls-2" d="M124.88,73.31a8.64,8.64,0,0,0,6.1,1.77,8.2,8.2,0,0,0,7.62-6.84l-16.28,1.39A7.45,7.45,0,0,0,124.88,73.31Z"/><path class="cls-2" d="M63.48,68.5a13.21,13.21,0,0,1-.15,3.16l1.54-.54a8.27,8.27,0,0,0,1-4.62,8,8,0,0,0-2-4.86A4.48,4.48,0,0,0,60.28,60h-.12L60,60a3.77,3.77,0,0,0-.53.13,10,10,0,0,1,.93.89A12.32,12.32,0,0,1,63.48,68.5Z"/><path class="cls-2" d="M53.66,61.62a1.48,1.48,0,0,1,.42,0,1.5,1.5,0,0,1,.85.45,9.87,9.87,0,0,1,.83,1A12.52,12.52,0,0,1,58,70.35a13.58,13.58,0,0,1-.35,3.05l.44.11,1.87-.66a10,10,0,0,0,.56-4.15,9.33,9.33,0,0,0-2.27-5.63,5.84,5.84,0,0,0-2.65-1.73,4.57,4.57,0,0,0-1.29-.19H54a4.55,4.55,0,0,0-1.4.34,4.9,4.9,0,0,0-.66.33l.69-.09Z"/><path class="cls-2" d="M34.62,81l1.51-.5a11,11,0,0,1,6.54-3.67l4.65-1.46L48.78,75l1.49-.47L52,73.95a9.48,9.48,0,0,1,1.71-.54l.06,0,.19,0h0l.37-.06.21,0A10.41,10.41,0,0,0,55,70.35a9.42,9.42,0,0,0-1.75-5.66l-.28,0-3.74.47-1.65.21-1.61.2L31.12,67.45a20.15,20.15,0,0,1,3.35,8.8A22.2,22.2,0,0,1,34.62,81Z"/><path class="cls-2" d="M21.51,68.06a19.4,19.4,0,0,1,4.37,10.11,22.35,22.35,0,0,1,.21,3c0,.51,0,1-.05,1.52,0,.32-.05.64-.09.95a17.51,17.51,0,0,1-1.28,4.9c-.08.18-.15.37-.23.54a13.55,13.55,0,0,1-.72,1.31l.5-.12c1.27-.31,1.35-.32,1.4-.33l.25-.06c1.94-.38,3.56-2,4.58-4.32a13.3,13.3,0,0,0,.62-1.75,15.56,15.56,0,0,0,.37-1.71,18.21,18.21,0,0,0,.05-5.44,16.56,16.56,0,0,0-3.44-8.28l-.2-.25a9.48,9.48,0,0,0-1.76-1.56,6.82,6.82,0,0,0-1.31-.71,5,5,0,0,0-2.57-.35,4.64,4.64,0,0,0-.71.16l-.11,0-2,.45A12.7,12.7,0,0,1,21.51,68.06Z"/><path class="cls-2" d="M23.09,81a19.48,19.48,0,0,0-.18-2.44A16.4,16.4,0,0,0,19.26,70a7.07,7.07,0,0,0-4.67-2.65l-.33,0a4,4,0,0,0-1.17.16,5,5,0,0,0-1.42.62,7.87,7.87,0,0,0-2.76,3.33,17.71,17.71,0,0,0,2.47,17.74,8.15,8.15,0,0,0,3.21,2.33,5.23,5.23,0,0,0,1.43.32h.12a3.82,3.82,0,0,0,1.38-.14l.13,0a5,5,0,0,0,1.28-.58,7.84,7.84,0,0,0,2.79-3.35,13.83,13.83,0,0,0,1.12-3.69c.08-.51.15-1,.19-1.56S23.09,81.53,23.09,81Z"/><path class="cls-2" d="M87.64,75.09a14.23,14.23,0,0,1-.31,5.55l.21-.13.08,0,0,0c2.12-1.45,3.25-4.58,2.8-7.79a9.15,9.15,0,0,0-2.6-5.36,5.2,5.2,0,0,0-4.13-1.6h-.15l-.16,0-.13,0a4.47,4.47,0,0,0-.87.27l-.07,0a10.85,10.85,0,0,1,1.38,1.12A13.56,13.56,0,0,1,87.64,75.09Z"/><path class="cls-2" d="M76.93,68.64a8,8,0,0,1,1.69.89,9.91,9.91,0,0,1,2.11,2A13.12,13.12,0,0,1,81.8,73c.17.28.3.55.43.83a9.67,9.67,0,0,1,0,8.66,12.76,12.76,0,0,1-.87,1.56c-.2.3-.4.58-.61.85a5.92,5.92,0,0,0,1.48-1l.25-.26a7.76,7.76,0,0,0,1.25-1.83,10.81,10.81,0,0,0,.93-6.28,11.66,11.66,0,0,0-.93-3.23,10,10,0,0,0-1.5-2.36,8.08,8.08,0,0,0-1.5-1.37,6.16,6.16,0,0,0-2.49-1.05,5.29,5.29,0,0,0-.89-.08,5.19,5.19,0,0,0-.65,0h-.07a5.23,5.23,0,0,0-1.38.39,5.5,5.5,0,0,0-.61.32q.34,0,.68.06A7.41,7.41,0,0,1,76.93,68.64Z"/><path class="cls-2" d="M68.57,90l-.89-3a16.72,16.72,0,0,1-.19,3.69Z"/><path class="cls-2" d="M62.1,75.27l-.27.09.05,0,.1.08a12.85,12.85,0,0,1,1.11,1,15.36,15.36,0,0,1,4,7.13,1.5,1.5,0,0,1,.88-.71,9.67,9.67,0,0,1,8.82,1.78l.15-.1.33-.31a11.06,11.06,0,0,0,.84-.91,10.42,10.42,0,0,0,1.19-1.77,7.38,7.38,0,0,0,.89-3.38,6.51,6.51,0,0,0-.46-2.42,7.7,7.7,0,0,0-.57-1.19,9.05,9.05,0,0,0-1.55-2,5.41,5.41,0,0,0-1.74-1.13,4.19,4.19,0,0,0-3.16,0l-.44-.91-.17-.36h0l.15.42.33.92-.93.33-1.79.63-1.67.59-1.46.51-4.58,1.62Z"/><path class="cls-2" d="M62.69,94.76c.16-.23.3-.47.44-.71s.22-.38.32-.59a11.32,11.32,0,0,0,.58-1.4h0a12.77,12.77,0,0,0,.61-2.81A13.93,13.93,0,0,0,64.58,86a12.79,12.79,0,0,0-3.67-7.51c-.19-.18-.39-.36-.59-.52l-.12-.09a8.57,8.57,0,0,0-1.3-.84h0l-.08,0a7.28,7.28,0,0,0-1.56-.58l-.25,0-.41-.08a6.45,6.45,0,0,0-.76-.06,6.34,6.34,0,0,0-1,.05l-.27.05-.14,0-.06,0a6.41,6.41,0,0,0-1.21.38l-.06,0-.09,0-1.89.59-1.71.54-.11,0,.45.25q.52.29,1,.64c.2.14.41.27.61.43a14.35,14.35,0,0,1,1.15,1,17.65,17.65,0,0,1,5.06,10.33c0,.25,0,.49.07.73A18.43,18.43,0,0,1,57.09,98c-.11.41-.24.8-.38,1.19l.65-.39L58.67,98l1.26-.76.06,0,.44-.27.12-.07.06,0A8.19,8.19,0,0,0,62.69,94.76Z"/><path class="cls-2" d="M50.41,82.42a9.8,9.8,0,0,0-3.63-2.26,7.83,7.83,0,0,0-1.91-.39c-.19,0-.38,0-.57,0a7.4,7.4,0,0,0-1,.07h-.07c-.17,0-.33.07-.5.1a7.43,7.43,0,0,0-.89.24,7.57,7.57,0,0,0-.74.3,8.79,8.79,0,0,0-3.23,2.66,11.05,11.05,0,0,0-.79,1.16,13,13,0,0,0-1.35,3.29,14.6,14.6,0,0,0-.32,1.68,16.05,16.05,0,0,0,0,4.42,16.23,16.23,0,0,0,.75,3.07A15.38,15.38,0,0,0,37,98.57c2.06,4.12,5.75,6.71,9.57,6.29l.22,0a7.42,7.42,0,0,0,1.24-.3,8.19,8.19,0,0,0,3.32-2.09c2.54-2.57,3.89-6.86,3.25-11.47A14.64,14.64,0,0,0,50.41,82.42Z"/><path class="cls-2" d="M77.09,90.21a6.51,6.51,0,0,0-.77-1.64c-.09-.14-.17-.29-.27-.43A6.78,6.78,0,0,0,71.9,85.6a6.48,6.48,0,0,0-1.54-.11l.83,2.8.45,1.5.45,1.5L74,97.83A6.62,6.62,0,0,0,77.09,90.21Z"/><path class="cls-3" d="M119.55,106.39h4.21v13.68h3V104.89a1.52,1.52,0,0,0-1.5-1.5H118a1.5,1.5,0,0,0-1.5,1.5v15.18h3Z"/><path class="cls-3" d="M140.68,103.39h-7.84a1.5,1.5,0,0,0,0,3h7.84a1.5,1.5,0,0,0,0-3Z"/><path class="cls-3" d="M140.68,109.48h-7.84a1.5,1.5,0,0,0,0,3h7.84a1.5,1.5,0,0,0,0-3Z"/><path class="cls-3" d="M25,110.72l-2-9.33a9.58,9.58,0,0,0,11.3.11c.22-.16.42-.32.62-.49,2.51,4.2,6.54,6.9,10.84,6.9a9.84,9.84,0,0,0,2.89-.42l.15-.05a11,11,0,0,0,4.31-2.55l5.76-3.46a9.61,9.61,0,0,0,13.94,1,75.08,75.08,0,0,0,14.45,17.62h6.29L97.86,112a8.27,8.27,0,0,0,5.7,4.08v4h3v-21h45.62v21h3v-4a8.26,8.26,0,0,0,6.74-8c4.9.46,9.42,3.2,9.42,8.72a13.61,13.61,0,0,1-.43,3.27H174a16.46,16.46,0,0,0,.35-3.27c0-6.67-5.29-11.4-13-11.77a8.27,8.27,0,0,0-6.2-5.17V97.61a1.5,1.5,0,0,0-1.5-1.5H137.46a8.25,8.25,0,0,0-3-4.91V87.57h42a1.5,1.5,0,0,0,1.5-1.5V23.89a1.5,1.5,0,0,0-1.5-1.5H160.12V16.88a5.78,5.78,0,1,0-3,0v5.51H101.61V16.88a5.78,5.78,0,1,0-3,0v5.51H82.23a1.5,1.5,0,0,0-1.5,1.5V63.38l-4.66,1.15h0a9.16,9.16,0,0,0-6.51,4.92l-1,.36a11.78,11.78,0,0,0,.29-3.53,11,11,0,0,0-2.73-6.66A7.42,7.42,0,0,0,60,57l-.26,0-.2,0a6.83,6.83,0,0,0-1.18.28l-4.78.84h0a8.4,8.4,0,0,0-6.3,4.21L28.64,64.74a8.74,8.74,0,0,0-6.84-2.21,7.76,7.76,0,0,0-1.1.24l-8.18,1.81-.15,0A9.66,9.66,0,0,0,6.2,70.19a20.69,20.69,0,0,0,2.93,21,10.08,10.08,0,0,0,6.42,3.64,9.6,9.6,0,0,0,4.24,4.28,1.49,1.49,0,0,0-.16,1L22,111.36a37.56,37.56,0,0,0,3,8.71h3.39A34.15,34.15,0,0,1,25,110.72ZM155.17,103a5.21,5.21,0,0,1,0,10ZM32.53,99.07h0a6.62,6.62,0,0,1-8.21-.41l8-5.75c0,.39.06.77.12,1.16a19,19,0,0,0,1.05,4.12A6.68,6.68,0,0,1,32.53,99.07Zm-7.94-4.29L25,93.16l1-.25a7.83,7.83,0,0,0,1.91-.53Zm6.49-4.64A11.64,11.64,0,0,0,32.6,88c-.07.38-.12.76-.16,1.14Zm20.25,12.32A8.19,8.19,0,0,1,48,104.55a7.42,7.42,0,0,1-1.24.3l-.22,0c-3.82.42-7.51-2.17-9.57-6.29a15.38,15.38,0,0,1-.76-1.84,16.23,16.23,0,0,1-.75-3.07,16.05,16.05,0,0,1,0-4.42,14.6,14.6,0,0,1,.32-1.68,13,13,0,0,1,1.35-3.29,11.05,11.05,0,0,1,.79-1.16,8.79,8.79,0,0,1,3.23-2.66,7.57,7.57,0,0,1,.74-.3,7.43,7.43,0,0,1,.89-.24c.17,0,.33-.08.5-.1h.07a7.4,7.4,0,0,1,1-.07c.19,0,.38,0,.57,0a7.83,7.83,0,0,1,1.91.39,9.8,9.8,0,0,1,3.63,2.26A14.64,14.64,0,0,1,54.58,91C55.22,95.6,53.86,99.89,51.32,102.46Zm9.29-5.59-.06,0-.12.07-.44.27-.06,0L58.67,98l-1.31.79-.65.39c.14-.39.27-.79.38-1.19a18.43,18.43,0,0,0,.53-6.72c0-.24,0-.49-.07-.73a17.65,17.65,0,0,0-5.06-10.33,14.35,14.35,0,0,0-1.15-1c-.2-.15-.4-.29-.61-.43s-.68-.44-1-.64L49.26,78l.11,0,1.71-.54L53,76.79l.09,0,.06,0a6.41,6.41,0,0,1,1.21-.38l.06,0,.14,0,.27-.05a6.34,6.34,0,0,1,1-.05,6.45,6.45,0,0,1,.76.06l.41.08.25,0A7.28,7.28,0,0,1,58.8,77l.08,0h0a8.57,8.57,0,0,1,1.3.84l.12.09c.2.16.4.34.59.52A12.79,12.79,0,0,1,64.58,86a13.93,13.93,0,0,1,.07,3.28A12.77,12.77,0,0,1,64,92h0a11.32,11.32,0,0,1-.58,1.4c-.1.2-.21.39-.32.59s-.28.48-.44.71A8.19,8.19,0,0,1,60.62,96.87Zm2,4a6.54,6.54,0,0,1-1.17-1l.52-.31.22-.13.21-.15a11.32,11.32,0,0,0,2.76-2.82l5.64,3.75A6.62,6.62,0,0,1,62.66,100.87Zm5-13.87.89,3-1.08.7A16.72,16.72,0,0,0,67.68,87Zm1.78,6,1,3.33-3-2Zm2.63-1.69-.45-1.5-.45-1.5-.83-2.8a6.48,6.48,0,0,1,1.54.11A6.56,6.56,0,0,1,76,88.14c.1.13.18.28.27.43a6.51,6.51,0,0,1,.77,1.64A6.62,6.62,0,0,1,74,97.83ZM103.55,113a5.21,5.21,0,0,1,0-10ZM124.26,91.2a8.25,8.25,0,0,0-3,4.91H105.05a1.5,1.5,0,0,0-1.5,1.5v2.25a8.25,8.25,0,0,0-6.73,7.69L90.7,119A72.75,72.75,0,0,1,75.21,100.6a9.59,9.59,0,0,0,4.42-12.21,8.06,8.06,0,0,0,1.07-.24l.12,0a8.21,8.21,0,0,0,1.36-.56h42.08ZM133,96.11h-8.59a5.22,5.22,0,0,1,10,0Zm-5.71-6.41V87.57h4.21V89.7a8,8,0,0,0-4.21,0Zm28.58-78.39a2.78,2.78,0,1,1,2.78,2.78A2.78,2.78,0,0,1,155.84,11.31Zm-58.51,0a2.78,2.78,0,1,1,2.78,2.78A2.78,2.78,0,0,1,97.33,11.31ZM83.73,25.39H175V84.57H86.66l2-1.23c.17-.09.33-.19.46-.27l.17-.1.19-.14c3-2.13,4.56-6.28,4-10.6a12.15,12.15,0,0,0-3.49-7.11,8.18,8.18,0,0,0-6.21-2.43ZM82.42,66a4.47,4.47,0,0,1,.87-.27l.13,0,.16,0h.15a5.2,5.2,0,0,1,4.13,1.6,9.15,9.15,0,0,1,2.6,5.36c.45,3.22-.68,6.35-2.8,7.79l0,0-.08,0-.21.13a14.23,14.23,0,0,0,.31-5.55,13.56,13.56,0,0,0-3.9-7.92,10.85,10.85,0,0,0-1.38-1.12Zm-7.17,1.83a5.23,5.23,0,0,1,1.38-.39h.07a5.19,5.19,0,0,1,.65,0,5.29,5.29,0,0,1,.89.08,6.16,6.16,0,0,1,2.49,1.05,8.08,8.08,0,0,1,1.5,1.37,10,10,0,0,1,1.5,2.36,11.66,11.66,0,0,1,.93,3.23,10.81,10.81,0,0,1-.93,6.28,7.76,7.76,0,0,1-1.25,1.83l-.25.26a5.92,5.92,0,0,1-1.48,1c.21-.27.41-.55.61-.85a12.76,12.76,0,0,0,.87-1.56,9.67,9.67,0,0,0,0-8.66c-.13-.27-.27-.55-.43-.83a13.12,13.12,0,0,0-1.07-1.52,9.91,9.91,0,0,0-2.11-2,8,8,0,0,0-1.69-.89,7.41,7.41,0,0,0-1.6-.4q-.35,0-.68-.06A5.5,5.5,0,0,1,75.26,67.86ZM66.8,73.61l1.46-.51,1.67-.59,1.79-.63.93-.33-.33-.92-.15-.42h0l.17.36.44.91a4.19,4.19,0,0,1,3.16,0,5.41,5.41,0,0,1,1.74,1.13,9.05,9.05,0,0,1,1.55,2,7.7,7.7,0,0,1,.57,1.19,6.51,6.51,0,0,1,.46,2.42,7.38,7.38,0,0,1-.89,3.38,10.42,10.42,0,0,1-1.19,1.77,11.06,11.06,0,0,1-.84.91l-.33.31-.15.1a9.68,9.68,0,0,0-3.38-1.78,9.78,9.78,0,0,0-5.44,0,1.5,1.5,0,0,0-.88.71,15.36,15.36,0,0,0-4-7.13,12.85,12.85,0,0,0-1.11-1l-.1-.08-.05,0,.27-.09.12,0ZM60,60l.12,0h.13a4.48,4.48,0,0,1,3.61,1.63,8,8,0,0,1,2,4.86,8.27,8.27,0,0,1-1,4.62l-1.54.54a13.21,13.21,0,0,0,.15-3.16,12.32,12.32,0,0,0-3-7.43,10,10,0,0,0-.93-.89A3.77,3.77,0,0,1,60,60Zm-7.47,1.47a4.55,4.55,0,0,1,1.4-.34h.32a4.57,4.57,0,0,1,1.29.19,5.84,5.84,0,0,1,2.65,1.73,9.33,9.33,0,0,1,2.27,5.63,10,10,0,0,1-.56,4.15l-1.87.66-.44-.11A13.58,13.58,0,0,0,58,70.35a12.52,12.52,0,0,0-2.2-7.24,9.87,9.87,0,0,0-.83-1,1.5,1.5,0,0,0-.85-.45,1.48,1.48,0,0,0-.42,0l-1.07.13-.69.09A4.9,4.9,0,0,1,52.56,61.51Zm-6.62,4.1,1.61-.2,1.65-.21,3.74-.47.28,0A9.42,9.42,0,0,1,55,70.35a10.41,10.41,0,0,1-.42,2.91l-.21,0-.37.06h0l-.19,0-.06,0a9.48,9.48,0,0,0-1.71.54l-1.72.54L48.78,75l-1.47.46-4.65,1.46a11,11,0,0,0-6.54,3.67l-1.51.5a22.2,22.2,0,0,0-.15-4.79,20.15,20.15,0,0,0-3.35-8.8Zm-24.54.08.11,0a4.64,4.64,0,0,1,.71-.16,5,5,0,0,1,2.57.35,6.82,6.82,0,0,1,1.31.71,9.48,9.48,0,0,1,1.76,1.56l.2.25a16.56,16.56,0,0,1,3.44,8.28,18.21,18.21,0,0,1-.05,5.44,15.56,15.56,0,0,1-.37,1.71,13.3,13.3,0,0,1-.62,1.75c-1,2.33-2.64,3.94-4.58,4.32l-.25.06c-.05,0-.14,0-1.4.33l-.5.12a13.55,13.55,0,0,0,.72-1.31c.08-.18.15-.36.23-.54a17.51,17.51,0,0,0,1.28-4.9c0-.31.07-.63.09-.95,0-.5.05-1,.05-1.52a22.35,22.35,0,0,0-.21-3,19.4,19.4,0,0,0-4.37-10.11,12.7,12.7,0,0,0-2.13-1.93Zm-.33,30.73A6.56,6.56,0,0,1,19,94.66L21.7,94Zm.66-8.62a7.84,7.84,0,0,1-2.79,3.35,5,5,0,0,1-1.28.58l-.13,0a3.82,3.82,0,0,1-1.38.14H16a5.23,5.23,0,0,1-1.43-.32,8.15,8.15,0,0,1-3.21-2.33A17.71,17.71,0,0,1,8.91,71.49a7.87,7.87,0,0,1,2.76-3.33,5,5,0,0,1,1.42-.62,4,4,0,0,1,1.17-.16l.33,0A7.07,7.07,0,0,1,19.26,70a16.4,16.4,0,0,1,3.64,8.54A19.48,19.48,0,0,1,23.09,81c0,.51,0,1,0,1.51s-.1,1.05-.19,1.56A13.83,13.83,0,0,1,21.73,87.79Z"/><path class="cls-3" d="M140.68,115.29h-7.21a1.5,1.5,0,0,0-1.5,1.5v3.27h3v-1.77h4.21v1.77h3v-3.27A1.5,1.5,0,0,0,140.68,115.29Z"/><path class="cls-3" d="M100.11,58a9.61,9.61,0,1,0-9.61-9.61A9.62,9.62,0,0,0,100.11,58Zm0-16.22a6.61,6.61,0,1,1-6.61,6.61A6.62,6.62,0,0,1,100.11,41.76Z"/><path class="cls-3" d="M158.62,58A9.61,9.61,0,1,0,149,48.37,9.62,9.62,0,0,0,158.62,58Zm0-16.22A6.61,6.61,0,1,1,152,48.37,6.62,6.62,0,0,1,158.62,41.76Z"/><path class="cls-3" d="M123,75.67a11.53,11.53,0,0,0,3.05,1.7,11.77,11.77,0,0,0,4.11.74c.35,0,.69,0,1,0a12,12,0,0,0,1.73-.29,11.86,11.86,0,0,0,1.5-.45,10.78,10.78,0,0,0,7.15-10.85A1.5,1.5,0,0,0,140,65.11L120.4,66.78A1.5,1.5,0,0,0,119,68.4,10.29,10.29,0,0,0,123,75.67Zm15.57-7.43A8.2,8.2,0,0,1,131,75.08a8.64,8.64,0,0,1-6.1-1.77,7.45,7.45,0,0,1-2.57-3.68Z"/></g></svg>